<svg version="1.2" xmlns="http://www.w3.org/2000/svg" width="1000" height="1600"><defs><linearGradient id="g6" x2="1" href="#P" gradientTransform="matrix(792 0 0 116 104 1438.6)"><stop stop-color="#774879"/><stop offset="1" stop-color="#5d325f"/></linearGradient><linearGradient id="g11" x2="1" href="#P" gradientTransform="matrix(-390.745 -408.387 412.574 -394.751 699.88 656.88)"><stop offset=".05" stop-color="#6b1969"/><stop offset="1" stop-color="#3f1246"/></linearGradient><linearGradient id="g2" x2="1" href="#P" gradientTransform="matrix(515.5 -847 96.465 58.71 -44.5 669)"><stop stop-color="#fff"/><stop offset="1" stop-color="#fff" stop-opacity=".37"/></linearGradient><linearGradient id="g3" x2="1" href="#P" gradientTransform="matrix(510.485 -821.05 61.319 38.125 -206.712 762.96)"><stop stop-color="#194186"/><stop offset="1" stop-color="#fff" stop-opacity=".37"/></linearGradient><linearGradient id="g4" x2="1" href="#P" gradientTransform="matrix(792 0 0 116 104 1148.6)"><stop stop-color="#774879"/><stop offset="1" stop-color="#5d325f"/></linearGradient><linearGradient id="g5" x2="1" href="#P" gradientTransform="matrix(792 0 0 116 104 1293.6)"><stop stop-color="#774879"/><stop offset="1" stop-color="#5d325f"/></linearGradient><linearGradient id="g1" x2="1" href="#P" gradientTransform="matrix(-1433.488 -936.38 1033.831 -1582.674 1000 1600)"><stop offset=".05" stop-color="#441843"/><stop offset="1" stop-color="#683d6b"/></linearGradient><linearGradient id="P" gradientUnits="userSpaceOnUse"/><linearGradient id="g7" x2="1" href="#P" gradientTransform="matrix(30.975 40.164 -41.564 32.055 339.666 980.726)"><stop stop-color="#ffe500"/><stop offset="1" stop-color="#ffc42b"/></linearGradient><linearGradient id="g8" x2="1" href="#P" gradientTransform="matrix(30.975 40.164 -41.564 32.055 412.676 980.726)"><stop stop-color="#ffe500"/><stop offset="1" stop-color="#ffc42b"/></linearGradient><linearGradient id="g9" x2="1" href="#P" gradientTransform="matrix(30.975 40.164 -41.564 32.055 485.686 980.726)"><stop stop-color="#ffe500"/><stop offset="1" stop-color="#ffc42b"/></linearGradient><linearGradient id="g10" x2="1" href="#P" gradientTransform="matrix(-356.25 372.059 -375.015 -359.08 663.971 272.441)"><stop stop-color="#a45ab1"/><stop offset="1" stop-color="#a05aa6"/></linearGradient><clipPath clipPathUnits="userSpaceOnUse" id="cp5"><path d="M722 1337c-24.33 0-44-19.67-44-44s19.67-44 44-44 44 19.67 44 44-19.67 44-44 44z"/></clipPath><clipPath clipPathUnits="userSpaceOnUse" id="cp3"><path d="M834 1193c-24.33 0-44-19.67-44-44s19.67-44 44-44 44 19.67 44 44-19.67 44-44 44z"/></clipPath><clipPath clipPathUnits="userSpaceOnUse" id="cp1"><path d="M0 50C0 22.39 22.39 0 50 0h900c27.61 0 50 22.39 50 50v1500c0 27.61-22.39 50-50 50H50c-27.61 0-50-22.39-50-50z"/></clipPath><clipPath clipPathUnits="userSpaceOnUse" id="cp4"><path d="M610 1337c-24.33 0-44-19.67-44-44s19.67-44 44-44 44 19.67 44 44-19.67 44-44 44z"/></clipPath><clipPath clipPathUnits="userSpaceOnUse" id="cp7"><path d="M722 1482c-24.33 0-44-19.67-44-44s19.67-44 44-44 44 19.67 44 44-19.67 44-44 44z"/></clipPath><clipPath clipPathUnits="userSpaceOnUse" id="cp8"><path d="M834 1482c-24.33 0-44-19.67-44-44s19.67-44 44-44 44 19.67 44 44-19.67 44-44 44z"/></clipPath><clipPath clipPathUnits="userSpaceOnUse" id="cp2"><path d="M722 1193c-24.33 0-44-19.67-44-44s19.67-44 44-44 44 19.67 44 44-19.67 44-44 44z"/></clipPath><clipPath clipPathUnits="userSpaceOnUse" id="cp6"><path d="M834 1337c-24.33 0-44-19.67-44-44s19.67-44 44-44 44 19.67 44 44-19.67 44-44 44z"/></clipPath><clipPath clipPathUnits="userSpaceOnUse" id="cp9"><path d="m606.65 402.83 19.84 121.27-108.28 17.71-19.83-121.27z"/></clipPath><clipPath clipPathUnits="userSpaceOnUse" id="cp10"><path d="m372.91 383.01 137.99-8.35 9.81 162.08-137.99 8.35z"/></clipPath></defs><style>.d{fill:#fff}.i{fill:#cc8f35}.j,.k{fill:#fff;stroke:#142e46;stroke-width:2}.k{fill:none}.l{fill:#142e46}.q{fill:#583114}.s{fill:#163571}.w{fill:#764879}.B{fill:#81518a}</style><g clip-path="url(#cp1)"><path d="M0 50C0 22.4 22.4 0 50 0h900c27.6 0 50 22.4 50 50v1500c0 27.6-22.4 50-50 50H50c-27.6 0-50-22.4-50-50z" style="fill:url(#g1)"/><path d="M525.5-322-150 691l78 54L601.5-276z" style="opacity:.1;fill:url(#g2)"/><path d="M367.5-209-308 804l48 33.5 673.5-1021z" style="opacity:.1;fill:url(#g3)"/><path class="d" d="m298 809-5.7-5.7v-4.8h4.7v3.2l3.1 3.1h13l3.1-3.1v-12.4l-3.1-3h-20.2v-20.7h27.2v4.2h-22.6v12.3h17.7l5.7 5.8v15.4l-5.7 5.7zm37.2 0-6.2-6.2v-31l6.2-6.2h17.9l6.2 6.2v31l-6.2 6.2zm2.1-4.2h13.6l3.6-3.6v-27.8l-3.6-3.6h-13.6l-3.6 3.6v27.8zm33.7-16.3-4-4v-14.8l4-4h9.5l4 4v14.8l-4 4zm3.9 20.6 23.9-43.4h4.8l-23.9 43.4zm-2-24.2h5.6l1.8-1.8v-12l-1.8-1.8h-5.6l-1.9 1.8v12zm25 24.2-4-4.1v-14.7l4-4h9.5l4 4V805l-4 4.1zm1.9-3.6h5.6l1.8-1.8v-12.1l-1.8-1.8h-5.6l-1.9 1.8v12.1zm39.8 3.6-5.7-5.7v-19.5l5.7-5.7h14.9l5.7 5.7v3.8h-4.6v-2.4l-3.1-3h-10.9l-3.1 3v16.6l3.1 3.1h10.9l3.1-3.1v-2.3h4.6v3.8l-5.7 5.7zm28 0v-44.3h4.6v19.8l6.5-6.4h9.6l5.7 5.7v25.2h-4.6v-23.8l-3.1-3h-6.4l-7.7 7.7v19.1zm39.5 0L502 804v-7.9l5.1-5h16.5v-5.9l-3.1-3H510l-3.1 3v2.5h-4.6v-3.8l5.7-5.7h14.4l5.7 5.7v25.2h-4.4v-5.5l-5.7 5.5zm2-4h8l6.5-6.3v-3.7h-14.5l-2.5 2.4v5.2zm28.1 4v-30.9h4.4v6.5l6.6-6.5h9.5l5.7 5.7v25.2h-4.6v-23.8l-3.1-3h-6.3l-7.7 7.7v19.1zm40.3 0-5.7-5.8v-19.4l5.7-5.7h14.9l5.7 5.7v3.8h-4.6v-2.4l-3.1-3h-10.9l-3.1 3v16.6l3.1 3.1h10.9l3.1-3.1v-2.3h4.6v3.7l-5.7 5.8zm33.1 0-5.7-5.8v-19.4l5.7-5.7h15.6l5.8 5.7V795h-22.5v6.9l3.1 3.1h11.6l3.1-3.1v-2.3h4.6v3.7l-5.7 5.8zm-1.1-18.1h17.8v-5.7l-3.1-3h-11.6l-3.1 3zm51 18-5.7-5.7v-19.4l5.7-5.7h15.9l5.7 5.7v19.4l-5.7 5.7zm2-4h11.9l3.1-3.1v-16.6l-3.1-3h-11.9l-3.1 3v16.6zm31 4.1v-26.8h-5.6v-4.1h5.6v-6.8l5.4-5.4h8.9v3.9h-6.9l-2.8 2.8v5.5h9.7v4.1h-9.7v26.8zm-393 74-7.3-30.9h4.7l5.3 25.7h.2l7.4-25.7h4.5l6.8 25.7h.2l5.7-25.7h4.7l-7.8 30.9H320l-6.9-25.5h-.2l-7.4 25.5zm40.6-36.1-1.8-1.8v-2.8l1.8-1.8h2.7l1.9 1.8v2.8l-1.9 1.8zm-.9 36.1v-30.9h4.6v30.9zm14.5 0v-30.9h4.5v6.6l6.6-6.6h9.4l5.7 5.7v25.2h-4.5v-23.7l-3.1-3.1H367l-7.7 7.7v19.1zm35.2 0v-30.9h4.5v6.6l6.6-6.6h9.4l5.7 5.7v25.2h-4.5v-23.7l-3.1-3.1h-6.3l-7.7 7.7v19.1zm36.8-36.1-1.9-1.8v-2.8l1.9-1.8h2.7l1.9 1.8v2.8l-1.9 1.8zm-.9 36.1v-30.9h4.6v30.9zm14.5 0v-30.9h4.4v6.6l6.6-6.6h9.5l5.7 5.7v25.2h-4.6v-23.7l-3.1-3.1h-6.3l-7.6 7.7v19.1zm57.4-30.9h4.4V891l-5.6 5.6h-15.3l-4.8-4.7v-3.8h4.6v2.3l2.2 2.1h11.2l3.1-3V878l-5.7 5.1h-11.2l-5.8-5.7v-19.5l5.8-5.7h11.7l5.4 5.4zm-.2 20.8v-10.2l-6.5-6.5h-8.5l-3.1 3.1V876l3.1 3h8.6zm33.2 10.1-5.1-5.1v-7.8l5.1-5.1h16.5v-5.9l-3.1-3h-10.6l-3.1 3v2.6h-4.6v-3.9l5.7-5.7H546l5.7 5.7v25.2h-4.4v-5.4l-5.7 5.4zm2-3.9h8l6.5-6.3v-3.8h-14.5l-2.5 2.4v5.2zm48.2 4-5.7-5.7V858l5.7-5.7h11.9l5.1 4.5v-17.9h4.6v44.3H598v-5.6l-5.6 5.6zm2-4.1h8.5l6.5-6.5v-11l-6-5.2h-9l-3.1 3.1v16.6zm28.9 4.1v-30.9h4.4v5.5l5.5-5.5h8v4.1h-6.8l-6.6 6.6v20.2zm26.5 0-5.1-5.1v-7.9l5.1-5h16.5v-5.9l-3.1-3h-10.5l-3.1 3v2.5h-4.6V858l5.7-5.7h14.4l5.7 5.7v25.2h-4.4v-5.5l-5.7 5.5zm2-4h8l6.5-6.3v-3.7h-14.5l-2.5 2.4v5.2zm32.2 3.9-7.2-30.8h4.7l5.2 25.6h.2l7.5-25.6h4.4l6.8 25.6h.2l5.7-25.6h4.8l-7.9 30.8H692l-6.8-25.4h-.2l-7.5 25.4z"/><path fill-rule="evenodd" class="d" d="M358.1 82h27.6c14.3 0 23.8 9 23.8 22.6 0 13.8-9.8 22.4-24.4 22.4h-9.6v19h-17.4zm23.5 31.5c6.1 0 9.8-3.4 9.8-8.9s-3.7-8.7-9.8-8.7h-6.1v17.6zm24.1 32.5 21.2-64h23.7l21.1 64H453l-3.7-12.3h-21.1l-3.7 12.3zm39.6-25.3-6.4-21.1h-.5l-6.3 21.1zM477.8 82h27.6c14.2 0 23.8 9 23.8 22.6 0 13.8-9.8 22.4-24.4 22.4h-9.6v19h-17.4zm23.5 31.5c6.1 0 9.7-3.4 9.7-8.9s-3.6-8.7-9.7-8.7h-6.1v17.6zM535.5 82h46.1v14h-28.7v11h26.4v14h-26.4v11h28.6v14h-46zm54.8 0h27.6c14.2 0 23.7 8.1 23.7 21.8 0 8.8-4 15-10.8 18.3l13 23.9h-18.9l-11.3-21.1h-6V146h-17.3zm23.5 29.4c6.1 0 9.7-2.2 9.7-7.6 0-5.5-3.6-7.9-9.7-7.9h-6.2v15.5z"/><path d="M104 1148c0-32 26-58 58-58h676c32 0 58 26 58 58s-26 58-58 58H162c-32 0-58-26-58-58z" style="fill:url(#g4)"/><path d="M104 1293c0-32 26-58 58-58h676c32 0 58 26 58 58s-26 58-58 58H162c-32 0-58-26-58-58z" style="fill:url(#g5)"/><path d="M722 1193c-24.3 0-44-19.7-44-44s19.7-44 44-44 44 19.7 44 44-19.7 44-44 44z" style="fill:#d81719"/><g clip-path="url(#cp2)"><path d="m744.7 1142.8 3.3 1.6.8 8-.8 2.9 1.7 6.5-4.6 6.1-5.9 1.5-14.1 7.9-16.3-.8-42.3 28.1-12.2-37.3 38.1-20 5.9-17.6 21.4-6.8 15.7-4.2 7.2 3.4-1.6 8.2 3.8 1.8 2.1 8.6z" style="fill:#600809"/><path class="d" d="m705.2 1176 3.7-2.3 1.6-.4 14.3.4 11.9-6.4-15.6-1.2-4.3-12.6-.7-3-1-2.9-3.6-6.8-2.6-1.3 3.6.2 3-4.5-.7 3.2 2.6 4.5 8.1 2.3 3.7-3.4-9.5-16.8-19.7 7-5.2 16.1c-29.1 16.2-36.8 19.7-41.9 22.6 4.4 13.1 10.9 32.9 10.9 32.9l38.5-26 1.5-.8z"/><path class="d" d="m726 1160.8.6 4.5 16.8-.4 3.4-4.9-.4-3.1zM722.6 1154c.3.7 1 2.3 1.7 3.1l19.6-2.2 2.1-3-.1-5.7-5.4-1.3-16 5.3zM740.2 1132.2l4 2.1-.1 4.8-3.3 3.1-19.7 8.3-2-2 6.9-2.1 4.7-3.8-2.9-6.4zM735.5 1121l4.7 2.3-1.4 6.4-13.3 3.1-3.6-7.5z"/></g><path class="i" d="M834 1193c-24.3 0-44-19.7-44-44s19.7-44 44-44 44 19.7 44 44-19.7 44-44 44z"/><g clip-path="url(#cp3)"><path class="j" d="m813.6 1146.6-47.7 7.6 2.1 29.8 48-13s11 3.4 14.1 4.1l8.1-3.1 9.3-9.6 6.6-14.9-2.7-15.6-17.1.6-6.7-7.3-6.1-2.4-9.5 3.1c-.1 4.1-.1 12.5.7 14 .8 1.5 2 2.2 2.5 2.4l1.9 1.4z"/><path class="d" d="m860 1150.2 4.3-3.5c.1-3.9-1.1-13.4-7.5-19.9-.3-.1-9.2-1.8-13.5-2.6l-7.7 6.3 3.3 4.1 11.1.6-.7 4.1-12.1.1-1.1 4.4 3.6 4.5 10.4 1.4-3.2 2.6.3 1.6.4 1.8-14.6-5-2.7 2.2-.2 3.3 6.8 8.3 5.8 1.8-2.6 3.6 4.1 2.7 4.8.3 3.1-2.5-.1-9.3 6.2-1.5 2.3-2.6z"/><path fill-rule="evenodd" class="k" d="m849.3 1139.3.7-4.1-11.1-.6-3.3-4.1 7.7-6.3c4.3.8 13.2 2.5 13.5 2.6 6.4 6.5 7.6 16 7.5 19.9l-4.3 3.5m0 0-5.6-8.7-5.1-2.2zm0 0 .5 6.8-2.3 2.6-6.2 1.5zm-11.7-.8-8.5-1.1-3.7-4.5 1.2-4.4 12.1-.1zm1.8.2-2 1.6.2-1.8zm-2 1.6-.5 4.4-.3-1.8-.4-1.6zm4 9.8v9.3l-3.1 2.5-4.8-.4-4-2.6 2.5-3.6-5.8-1.8-6.8-8.3.2-3.3 2.8-2.2 14.6 5zm0 0-4.4-5.4"/><path class="j" d="m823.8 1164 1.2-1.5 4.9.3 11.8 10.1c1.3 1.1 1.4 2.9 1.3 3.6-.5 1.4-2.1 4.3-3.9 4.6-1.9.2-3.2-.5-3.7-.9l-10.7-10.2z"/><path class="l" d="m823.1 1132.5 4.4 2.8-2.9-.7c0 .9.2 2.4-.4 4.1-2.7 6-8.7 8.3-10.2 9l2.1-4-.8-2.6s3 1.7 5.2-.1c2.3-1.8 3-4.4 3-5.5z"/></g><path d="M104 1438c0-32 26-58 58-58h676c32 0 58 26 58 58s-26 58-58 58H162c-32 0-58-26-58-58z" style="fill:url(#g6)"/><path d="M610 1337c-24.3 0-44-19.7-44-44s19.7-44 44-44 44 19.7 44 44-19.7 44-44 44z" style="fill:#56d69c"/><g clip-path="url(#cp4)"><path d="m564.2 1307.1 18.9-8.8 2.7-9.6 6.3-14.9v-.1l.2-.1 2.9-1.7.2-.1.3.1 2.9 1.6.3.1v.3l.4 2.5v.1l-1.3 7.9 4.1-1.7 18.9-10.3h.1l2.1-.7.2-.1.2.1 2.7 1.4.3.2-.1.3-.8 3.3v.1l-.1.1-.8.7 1.5-.9.1-.1h.1l3.5-.2.5-.1.1.5.1 3.6v.1l-.1.1-.9 2.5v.1l-.1.1-.5.4v.1h-.1l-6.2 4 5.1-2.6.1-.1.2.1 3.4.3h.5v.5l-.4 4.1v.2l-.1.1-1.7 1.5v.1h-.1l-2.9 1.8 3.6.2h.5v.5l-.1 3.3v.2l-.1.2-2 1.7-25.9 16-.2.1h-8.4l-17.3 13-.4.3-.3-.5-12.3-21.2-.2-.4z" style="fill:#0e3e28;stroke:#0e3e28"/><path class="d" d="m594.1 1314.8-18.6 13.9-11.4-19.8 20.2-9.8 2.9-9.9 6-14.8 2.3-1.1 2.1.9.5 2.4-1.7 9.9 6.1-2.9 18.8-10 2.1-.8 1.9 1.1-.7 2.1-1.7 1.8-13.6 9.5-.3.6-.3.5.7-.2.3.8.2-1.3 16.7-9.5 2.4-.3.2 2.7-.7 2.1-16.6 10.5-.3 1.9.8-.3.6 1-.1-1.5 14.8-7.5 2.8.1v2.7l-1.2 1.3-15.9 10.1-1.3 2.3.9-.3.9 1.8-.1-2.5 12.4-7.1 3.1.1.2 2.3-1.2 1.4-25.6 15.9z"/></g><path d="M722 1337c-24.3 0-44-19.7-44-44s19.7-44 44-44 44 19.7 44 44-19.7 44-44 44z" style="fill:#8f3e02"/><g clip-path="url(#cp5)"><path class="q" d="m688.3 1297.6-16.8 9-1.8 1.4 13.5 24 1.9-1.1 14-9c3 1 7.9 1.3 10.1 1 3.6-.5 9.3-3 11.5-4.1l16.2-8.2 15.6-8.5-.2-5-5-1.9-7.6 1.4-6.9 2.8.4-1.3-1.4-4.7-2.1-1.5-2.1.3 1.1-2.1-.7-3.9-3.7-2.5 14.2-13.7-1.3-8-6.2 2.2-25.1 16.1-6.3.9-7.3 2.5z"/><path class="d" d="m736 1264.5.6 4.6-17.9 17 3.6-1.3 3.9 2.7c.2 1 .6 2.8.7 3.2q0 .1 0 0c-.2-.1-1.4 2-2 3.2l3.5-.4 2 1.4 1 4-3.2 4.2 12.3-4.8 6.6-1.2 3.6 1.3.1 2.5-22.4 11.5c-3.9 2.2-13.2 6.8-19.6 8.1-2 .2-6.9.3-10.1-.9-.4.2-16.1 10.6-20.8 13.6l-11.7-20.8 23.7-13.4 4.2-13.9 5.5-2 6.6-.9 26.2-16.5z"/><path fill-rule="evenodd" class="q" d="m706.4 1282.7 1 1 4.4 8 4.5-3 2.5-2.8 3.5-1.2-4.6 5.9-5 2.7 3 5.4c.2.2.4.6.5 1.1l5.5-3.5 4.1-4.1 1.5 1.3-4.8 4.3-6.4 3.1q0 .2-.1.3l-.9.2-3.2 1.3-2.8.7 1.1 2.3.1 2.8.8 1.3 2 .8 4.1-1.1 4.4-1.8 4.6-3.3 3.8-3.7.6 1.4-3.1 3.2-2.3 2-3.1 1.9c-.5.2-1.3.5-2.1.8-1.1.4-2.2.8-2.4.9-.4.1-.9.3-1.6.5-.7.2-1.6.4-2.3.6l-2.3-.1-1.9-1.3-1.1-2.1.4-1.8-.9-1.9-1.6-2.6.7-2.9-1.8-.9-2-3-1.2.7 1 1.7-2.4 8.4-.9-1.5-2.1-.6 2.3-1.4c.6-1.4 1.4-4.5 1.2-5.1-.2-.6-.9-1.6-1.2-2.1l3.8-2.1 2.6 3.6 7.1 3.5 1.3-.4-8.9-15.8-3.6-1.6 2.5-.4zm2.1 17.2-.4 2 .5.6 2.5-.6 1.2-.5z"/></g><path d="M834 1337c-24.3 0-44-19.7-44-44s19.7-44 44-44 44 19.7 44 44-19.7 44-44 44z" style="fill:#4774ca"/><g clip-path="url(#cp6)"><path class="s" d="m821 1315.7-15.1 12.3-1.4 1-14.9-21.2 18.7-16.2.2-1.5-.1-3.2 2.3-4.9 4-3.4 6.2-1.5 3.4-.2 4.3 1.8 3 1.1 2.7 1.7.7 1.1.3.4 1.9-1.1 5.2-3.7 3.1-4.6 2.9-2.3 1.9-.1 2.3 1 .5 1.1.8.2 1.9 1.1 2.2.7 1.4 2-.1 1.7 1.7.5.5 3.2-2.4 8.2-4.7 7.3-5.5 5.1-4.4 2.6-5.2 5-9.3 5.3z"/><path class="d" d="m820.6 1314-2.2 1.6-17.4 14.7-13.3-19.1 22.1-18.8.3-2.3-.2-2.7 2.1-4.5 3.3-2.6 6.1-1.7 2.6-.1 4.3 1.7 2.3.7 2.5 1.4.8 1.1.3 1.4 1.4-.5 2.3-1.1 5.6-4 1-1.7 2.1-3 2-1.8h1.4l1.7.5.6 1.6h1.1l1.9 1 1.7.5 1.1 1.5-.3 2 2.2.7.3 2.1-2.4 7.6-4.7 7-5.5 4.8-4.3 2.7-5.1 4.8-8.6 5z"/><path class="s" d="m826.6 1285.3-1-2.4-1.6-.5-.2.7 1.4.9.5 1.7-.2 1.3.8 2.1-1 3.2.9 1.1 2.3 1.7-1.9-2.8.9-2.8-.6-2.3 1.5-.7 2.5-.2 2.5.3.8-1.8-1.1 1.3-2.1-.3-2.2-.3-1 .2zM834.4 1289.9l-1.1-2.5 1.5 1.2.4 1.1 1.1.3.6-.2 1.3-.9 2.1-.9 1.7-1 2.1-1.3 3-3.2 1.2-1.7 3.9-6.6.5-.3-.3.9-3.4 6.5-1.3 1.4-1.6 2.1-2.5 2.3-2.2 1.3-4.1 2-.9 1.1 1.6 1.4 1 .9.8.7.8.2 1-.6 2.1-1.7 1.9-1.2 1.6-2.3 2.5-2.6 2.1-3.3 3.2-7.5.8-.2-2.2 5.5-1.3 3.1-2.3 3.4-1.7 2-2 2.4-1.8 1.2-2.7 1.8-.4 1 1.9 2h1.8l2-1.5 1.2-1.3 1.4-1.2 2.9-3.7 1.1-2.1 1.3-1.9 3.1-7.1.5.2-2.5 6-1.9 3.5-1 1.9-2.6 3.1-.7 1.3-1.2 1.1-3 2.9-.6 1-2.5-1.1-1.5-1.9-1.8-.9-.6-1.1-1.5-1.3-2.3-2.3z"/></g><path d="M362.2 977.5c1.2 3.4 4.4 5.7 8 5.8l7.9.1h1.5q1 .1 2 .4c3.7 1.5 4.8 6.7 1.2 9.4l-12.4 9.1s2.3 7.3 4.6 14.7c1.6 4.9-4.1 9-8.4 6l-7.6-5.4c-3-2-7-2-9.9 0l-7.7 5.4h.1-.1q-.9.5-1.9.9c-3.8.9-7.8-2.7-6.5-7l4.6-14.6.1.1-.1-.1-12.4-9.1c-4.2-3.1-2-9.7 3.2-9.8l9.4-.1c3.6-.1 6.8-2.4 8-5.8l3-8.8c1.7-4.9 8.7-4.9 10.4 0z" style="fill:url(#g7)"/><path d="M435.2 977.5c1.2 3.4 4.4 5.7 8 5.8l7.9.1H452.6q1 .1 2 .4c3.7 1.5 4.8 6.7 1.2 9.4l-12.4 9.1s2.3 7.3 4.6 14.7c1.6 4.9-4.1 9-8.4 6l-7.6-5.4c-3-2-7-2-9.9 0l-7.6 5.4h-.1q-.9.5-1.8.9c-3.9.9-7.9-2.7-6.6-7l4.6-14.6.1.1-.1-.1-12.4-9.1c-4.2-3.1-2-9.7 3.2-9.8l9.4-.1c3.6-.1 6.8-2.4 8-5.8l3-8.8c1.7-4.9 8.7-4.9 10.4 0z" style="fill:url(#g8)"/><path d="M508.2 977.5c1.2 3.4 4.4 5.7 8.1 5.8l7.8.1H525.6q1 .1 2 .4c3.7 1.5 4.8 6.7 1.2 9.4l-12.4 9.1s2.3 7.3 4.6 14.7c1.6 4.9-4.1 9-8.4 6l-7.6-5.4c-3-2-7-2-9.9 0l-7.6 5.4h-.1q-.9.5-1.8.9c-3.9.9-7.9-2.7-6.6-7l4.6-14.6.1.1v-.1l-12.5-9.1c-4.2-3.1-2-9.7 3.3-9.8l9.3-.1c3.6-.1 6.9-2.4 8-5.8l3-8.8c1.7-4.9 8.8-4.9 10.4 0z" style="fill:url(#g9)"/><path class="w" d="M581.2 977.5c1.2 3.4 4.4 5.7 8.1 5.8l7.8.1H598.6q1 .1 2 .4c3.7 1.5 4.8 6.7 1.2 9.4l-12.3 9.1s2.2 7.3 4.5 14.7c1.6 4.9-4.1 9-8.4 6l-7.6-5.4c-2.9-2-6.9-2-9.9 0l-7.6 5.4q-1 .5-1.9.9c-3.9.9-7.9-2.7-6.6-7l4.6-14.6.1.1v-.1l-12.5-9.1c-4.2-3.1-2-9.7 3.3-9.8l9.3-.1c3.6-.1 6.9-2.4 8-5.8l3-8.8c1.7-4.9 8.8-4.9 10.4 0zM654.2 977.5c1.2 3.4 4.4 5.7 8.1 5.8l7.8.1H671.6q1.1.1 2 .4c3.8 1.5 4.9 6.7 1.2 9.4l-12.3 9.1s2.2 7.3 4.6 14.7c1.5 4.9-4.2 9-8.5 6l-7.6-5.4c-2.9-2-6.9-2-9.9 0l-7.6 5.4q-.9.5-1.9.9c-3.9.9-7.9-2.7-6.5-7l4.5-14.6.1.1v-.1l-12.4-9.1c-4.3-3.1-2.1-9.7 3.2-9.8l9.3-.1c3.6-.1 6.9-2.4 8-5.8l3-8.8c1.7-4.9 8.8-4.9 10.4 0z"/><path d="M722 1482c-24.3 0-44-19.7-44-44s19.7-44 44-44 44 19.7 44 44-19.7 44-44 44z" style="fill:#ffc136"/><g clip-path="url(#cp7)"><path d="m700.1 1467.8-29.2 19.1-11.5-29.9 27.9-12.2 6.1-13 13.8-3.6 4.1-2.2 20.7-17.2 5.9-.1 2 2.3.4 4.9-19.4 16.6 27.2-5.6 1 .5 2.4 3.1-.6 4.9-2.9 2.3-17.9 4.2-6.6 1.7 2.8.1 1.8 1.6 1.1 3.8-.6 3.1 1 1.3-1.6 6-2.9 2.5-3.3.2-1.8.9-8.7 4.8z" style="fill:#3c2900"/><path class="d" d="m700 1465.8-26.1 16.4-11.1-24 26.7-11.5 5.5-12.4 12.6-3.6 6.7 12.3-2.4 2.4-4.5-1.6-3.3-3-.1-3.2-1 2.4-3.2 2.7 1.5-.4 2.7 5.1-5.1 6.7 8.3-3.8 3.8 11.1 7.8.4-8 4.3z"/><path class="d" d="m711.4 1459.2 1.1 1.2 12.1-.2 2-2 1-4.5-14.5 2.3-2 1zM727.1 1451.1l-1.5 1.5-14.9 1.2-1-3.5 1.4-1.3 12.1-3.8 2.7.4 1.2 2.1zM749 1434.1l-1.6 1.6-24.2 5.8-2.4-.2 1.5 2.8-4.9 1.5-8.4-15.7 3.6-2 20.1-16.6 3.7-.4 1.7 1.1.6 3.1-20.1 17.1-3.9.5 2.8.8.2 2.1 29.8-6.4 1.5 1.9z"/></g><path class="i" d="M834 1482c-24.3 0-44-19.7-44-44s19.7-44 44-44 44 19.7 44 44-19.7 44-44 44z"/><g clip-path="url(#cp8)"><path class="j" d="m813.6 1435.6-47.7 7.6 2.1 29.8 48-13s11 3.4 14.1 4.1l8.1-3.1 9.3-9.6 6.6-14.9-2.7-15.6-17.1.6-6.7-7.3-6.1-2.4-9.5 3.1c-.1 4.1-.1 12.5.7 14 .8 1.5 2 2.2 2.5 2.4l1.9 1.4z"/><path class="d" d="m860 1439.2 4.3-3.5c.1-3.9-1.1-13.4-7.5-19.9-.3-.1-9.2-1.8-13.5-2.6l-7.7 6.3 3.3 4.1 11.1.6-.7 4.1-12.1.1-1.1 4.4 3.6 4.5 10.4 1.4-3.2 2.6.3 1.6.4 1.8-14.6-5-2.7 2.2-.2 3.3 6.8 8.3 5.8 1.8-2.6 3.6 4.1 2.7 4.8.3 3.1-2.5-.1-9.3 6.2-1.5 2.3-2.6z"/><path fill-rule="evenodd" class="k" d="m849.3 1428.3.7-4.1-11.1-.6-3.3-4.1 7.7-6.3c4.3.8 13.2 2.5 13.5 2.6 6.4 6.5 7.6 16 7.5 19.9l-4.3 3.5m0 0-5.6-8.7-5.1-2.2zm0 0 .5 6.8-2.3 2.6-6.2 1.5zm-11.7-.8-8.5-1.1-3.7-4.5 1.2-4.4 12.1-.1zm1.8.2-2 1.6.2-1.8zm-2 1.6-.5 4.4-.3-1.8-.4-1.6zm4 9.8v9.3l-3.1 2.5-4.8-.4-4-2.6 2.5-3.6-5.8-1.8-6.8-8.3.2-3.3 2.8-2.2 14.6 5zm0 0-4.4-5.4"/><path class="j" d="m823.8 1453 1.2-1.5 4.9.3 11.8 10.1c1.3 1.1 1.4 2.9 1.3 3.6-.5 1.4-2.1 4.3-3.9 4.6-1.9.2-3.2-.5-3.7-.9l-10.7-10.2z"/><path class="l" d="m823.1 1421.5 4.4 2.8-2.9-.7c0 .9.2 2.4-.4 4.1-2.7 6-8.7 8.3-10.2 9l2.1-4-.8-2.6s3 1.7 5.2-.1c2.3-1.8 3-4.4 3-5.5z"/></g><path fill-rule="evenodd" class="d" d="M164.7 1164.6q-3.2 0-5.8-1.1-2.6-1.2-4.2-3.3-1.7-2.1-2.1-5l5.7-.8q.6 2.4 2.5 3.8 1.8 1.3 4.2 1.3 1.4 0 2.6-.4 1.3-.4 2.1-1.2.8-.9.8-2.1 0-.4-.1-.8t-.4-.8q-.3-.3-.9-.7-.5-.3-1.4-.5l-7.5-2.2q-.8-.3-1.9-.7-1.1-.5-2.2-1.3-1-.8-1.7-2.1-.7-1.4-.7-3.5 0-2.9 1.5-4.8 1.4-1.9 3.9-2.8 2.4-1 5.4-1 3 .1 5.3 1.1 2.3.9 3.9 2.8t2.3 4.6l-5.9 1q-.3-1.4-1.2-2.4-.8-.9-2-1.4-1.2-.5-2.5-.6-1.3 0-2.4.4-1.1.4-1.9 1.1-.7.7-.7 1.8 0 .9.6 1.5t1.5.9q.9.4 1.8.6l5 1.4q1.1.3 2.5.8 1.3.5 2.6 1.4 1.2.8 2 2.2.8 1.5.8 3.6 0 2.4-.9 4.1-1 1.7-2.6 2.9-1.7 1.1-3.8 1.6-2 .6-4.2.6zm28.9-.6q-2.2.4-4.4.4-2.1-.1-3.8-.8-1.7-.7-2.6-2.3-.8-1.5-.8-3-.1-1.5-.1-3.5v-8.2h-3.7v-4.2h3.7v-6h5.5v6h6.2v4.2h-6.2v10.2q0 1 .4 1.6.7 1.1 2.3 1.2 1.6.1 3.5-.1zm4.8 0v-21.6h4.8v3.5l.6-1q.7-.9 1.7-1.5.8-.5 1.7-.7.9-.3 1.9-.4 1 0 2 .1v5.1q-.9-.3-2.1-.2-1.2.1-2.2.5-.9.5-1.6 1.2-.6.7-1 1.7-.3 1-.3 2.2v11.1zm4.8-18.1q-.3.5-.5 1.1l.5.7zm21.3 18.7q-3.3 0-5.8-1.4-2.6-1.5-4-4t-1.4-5.7q0-3.6 1.4-6.2t3.8-4.1q2.5-1.4 5.7-1.4 3.4 0 5.8 1.6t3.5 4.5q1.1 2.9.8 6.8h-2.6v-4h-2.9q-.2-1.8-.9-2.7-1.1-1.5-3.5-1.5-2.7 0-4.1 1.7-.7 1-1 2.5h-1.9v4h1.7q.3 1.9 1.2 3.2 1.4 1.6 3.9 1.6 1.6 0 2.7-.7 1.2-.7 1.8-2l5.4 1.5q-1.2 3-3.8 4.6-2.7 1.7-5.8 1.7zm4.4-9.9h-9.8q-.1-.7-.1-1.5 0-1.4.3-2.5h9.5q.1.9.1 2zm24.1 9.3v-10.2q0-.8-.1-1.9-.1-1.2-.5-2.3-.4-1.2-1.4-2-.9-.7-2.7-.7-.7 0-1.5.2t-1.5.8q-.7.7-1.1 1.9-.5 1.2-.5 3.2v11h-5.5v-21.6h4.8v2.2q.8-.8 1.8-1.5 2.1-1.4 5.2-1.4 2.6 0 4.2.9t2.5 2.2q.9 1.3 1.2 2.7.4 1.5.5 2.6.1 1.2.1 1.8v12.1zm19.9 10.2q-1.8 0-3.5-.6-1.6-.6-3-1.7-1.3-1-2.1-2.4l5.1-2.4q.5.9 1.4 1.4 1 .5 2.2.5 1.2 0 2.3-.4 1-.4 1.7-1.2.6-.8.6-2v-2.2q-2.1 1.4-5.2 1.4-2.9 0-5.2-1.5-2.2-1.5-3.5-4.1-1.2-2.6-1.2-5.8 0-3.3 1.2-5.9 1.3-2.6 3.6-4 2.3-1.5 5.4-1.5 3.1 0 5.2 1.5.2.1.4.3v-1.2h4.7v24.6q-.1.7-.3 1.4-.5 2-1.9 3.2-1.4 1.3-3.5 1.9-2 .7-4.4.7zm.4-14.5q1.8 0 2.9-.8 1.1-.8 1.6-2.3.5-1.5.5-3.4 0-2-.5-3.5-.5-1.4-1.5-2.3-1.1-.8-2.8-.8-1.8 0-3 .9-1.1.9-1.7 2.4-.6 1.5-.6 3.3 0 1.8.6 3.3.5 1.5 1.6 2.4 1.2.8 2.9.8zm28.3 4.3q-2.2.4-4.4.3-2.1 0-3.8-.7-1.7-.7-2.6-2.3-.8-1.5-.8-3-.1-1.5-.1-3.5v-8.2h-3.7v-4.2h3.7v-6h5.5v6h6.2v4.2h-6.2v10.2q0 1 .4 1.6.7 1.1 2.3 1.2 1.6.1 3.5-.1zm19.5 0v-12.1q-.1-1.2-.5-2.3-.5-1.2-1.4-2-1-.8-2.7-.8-.7 0-1.5.3-.8.2-1.5.8-.7.6-1.2 1.9-.4 1.2-.4 3.2v11h-5.5v-28.8h4.8v9.4q.8-.8 1.7-1.5 2.1-1.4 5.3-1.4 2.6 0 4.2.9 1.6.8 2.4 2.2.9 1.3 1.3 2.7.4 1.4.5 2.6.1 1.2.1 1.7v12.2zm19.1.6q-4.1 0-6.6-1.9-2.5-1.8-3-5.2l5.5-.9q.4 1.6 1.5 2.4 1.2.9 3 .9 1.5 0 2.3-.6.8-.6.8-1.6 0-.6-.3-1-.4-.4-1.5-.8t-3.4-1q-2.7-.7-4.2-1.5-1.6-.8-2.3-2-.7-1.2-.7-2.8 0-2.1 1-3.6 1.1-1.6 3-2.4 2-.8 4.6-.8 2.5 0 4.5.7 1.9.8 3.1 2.3 1.3 1.4 1.5 3.4l-5.5 1q-.2-1.2-1.1-1.9-.9-.7-2.4-.9-1.5-.1-2.4.4-.9.5-.9 1.5 0 .5.4.9t1.6.8q1.2.4 3.7 1 2.5.7 4 1.5 1.5.9 2.2 2.1.6 1.2.6 2.8 0 3.4-2.4 5.3t-6.6 1.9zM153.8 1309v-28.8H167.1q.7.1 1.3.2 2.5.4 4.2 1.7 1.6 1.3 2.4 3.2.8 2 .8 4.4 0 3.6-1.8 6.2-1.1 1.6-3 2.4l5.2 10.7H170l-4.7-9.8h-6.1v9.8zm5.5-14.8h6.5q.4 0 .9-.1.5 0 .9-.1 1.1-.3 1.7-1 .6-.8.8-1.6.3-.9.3-1.7 0-.8-.3-1.6-.2-.9-.8-1.6-.6-.7-1.7-1-.4-.1-.9-.2h-7.4zm31.4 15.4q-3.3 0-5.9-1.4-2.5-1.4-3.9-3.9-1.5-2.6-1.5-5.8 0-3.5 1.4-6.2 1.4-2.6 3.9-4 2.5-1.5 5.7-1.5 3.4 0 5.7 1.6 2.4 1.6 3.6 4.5 1.1 2.9.8 6.8h-2.7v-4H195q-.3-1.8-1-2.7-1-1.5-3.4-1.5-2.8 0-4.1 1.7-.7 1-1.1 2.5h-1.9v4h1.8q.2 2 1.2 3.2 1.3 1.6 3.9 1.6 1.6 0 2.7-.7t1.7-2l5.5 1.6q-1.2 2.9-3.9 4.6-2.6 1.6-5.7 1.6zm4.4-9.9h-9.8q-.1-.7-.1-1.5 0-1.4.2-2.5h9.6q.1.9.1 2zm18.3 9.9q-4.1 0-6.6-1.8-2.5-1.9-3-5.3l5.5-.8q.4 1.5 1.5 2.4 1.2.8 3 .8 1.5 0 2.3-.5.8-.6.8-1.6 0-.7-.3-1-.3-.4-1.5-.8-1.1-.4-3.4-1-2.6-.7-4.2-1.5-1.6-.9-2.3-2-.7-1.2-.7-2.9 0-2.1 1.1-3.6 1-1.5 2.9-2.3 2-.9 4.6-.9 2.5 0 4.5.8t3.2 2.2q1.2 1.5 1.5 3.4l-5.6 1q-.1-1.2-1-1.9t-2.5-.8q-1.5-.1-2.4.4-.9.5-.9 1.4 0 .6.4 1t1.6.8q1.2.4 3.8 1 2.4.6 3.9 1.5 1.5.8 2.2 2 .7 1.2.7 2.9 0 3.3-2.4 5.2-2.4 1.9-6.7 1.9zm13.8-25.2v-4.8h5.5v4.8zm0 24.6v-21.6h5.4v21.6zm19.9.6q-4.1 0-6.6-1.8-2.5-1.9-3-5.3l5.5-.8q.4 1.5 1.5 2.4 1.2.8 3 .8 1.5 0 2.3-.5.8-.6.8-1.6 0-.7-.3-1-.4-.4-1.5-.8t-3.4-1q-2.7-.7-4.2-1.5-1.6-.9-2.3-2-.7-1.2-.7-2.9 0-2.1 1-3.6 1.1-1.5 3-2.3 2-.9 4.6-.9 2.5 0 4.5.8 1.9.8 3.1 2.2 1.3 1.5 1.5 3.4l-5.5 1q-.2-1.2-1.1-1.9-.9-.7-2.4-.8-1.5-.1-2.4.4-.9.5-.9 1.4 0 .6.4 1t1.6.8q1.2.4 3.7 1t4 1.5q1.5.8 2.2 2 .6 1.2.6 2.9 0 3.3-2.4 5.2-2.4 1.9-6.6 1.9zm26.4-.6q-2.2.4-4.4.4-2.1-.1-3.8-.8-1.7-.7-2.6-2.3-.8-1.4-.8-3-.1-1.5-.1-3.4v-8.3h-3.7v-4.2h3.7v-6h5.5v6h6.2v4.2h-6.2v10.2q0 1 .4 1.6.7 1.2 2.3 1.3 1.6.1 3.5-.2zm10.8.6q-2.3 0-3.9-.9t-2.5-2.4q-.8-1.5-.8-3.3 0-1.5.5-2.7.4-1.2 1.5-2.2 1-.9 2.7-1.6 1.2-.4 2.9-.8 1.7-.3 3.8-.6 1.2-.2 2.6-.4-.2-1.3-.9-2-.9-.9-3.1-.9-1.2 0-2.5.5-1.3.6-1.8 2.1l-4.9-1.6q.8-2.6 3.1-4.3 2.2-1.7 6.1-1.7 2.9 0 5.1.9 2.2.9 3.4 3 .6 1.2.7 2.4.1 1.2.1 2.7v13.2h-4.7v-2.7q-1.3 1.6-2.8 2.3-1.8 1-4.6 1zm6.8-14.9v.8l2-1.1q-1.1.2-2 .3zm.6 11.6q.3-.4.7-.8l-.7-.9zm-6.2-1.1q1.5 0 2.5-.5t1.6-1.2q.7-.7.9-1.1.4-.9.5-2.1v-1.3q-1.3.3-2.3.4-1.5.3-2.4.5-.9.2-1.6.5-.8.3-1.3.7-.5.4-.7.8-.3.4-.3 1 0 .7.4 1.3.4.5 1.1.8.6.2 1.6.2zm5.5-6.2 1.6-.2-1.6-.4v.6zm25.4 9.9v-10.2q0-.7-.1-1.9-.1-1.1-.5-2.3-.4-1.1-1.4-1.9-.9-.8-2.7-.8-.7 0-1.5.2t-1.5.9q-.7.6-1.1 1.8-.5 1.2-.5 3.3v10.9h-5.5v-21.6h4.8v2.2q.8-.8 1.8-1.4 2.1-1.4 5.2-1.4 2.6 0 4.2.8 1.6.9 2.5 2.2.9 1.3 1.2 2.8.4 1.4.5 2.6.1 1.2.1 1.7v12.1zm19.8.6q-3.3 0-5.7-1.5-2.4-1.5-3.7-4.1-1.3-2.5-1.3-5.8t1.3-5.8q1.4-2.6 3.8-4.1 2.4-1.5 5.7-1.5 3.8 0 6.4 2 2.6 1.9 3.3 5.2l-5.4 1.5q-.5-1.7-1.7-2.7-1.2-.9-2.7-.9-1.7 0-2.8.8-1.1.9-1.6 2.3t-.5 3.2q0 2.8 1.2 4.6 1.3 1.7 3.7 1.7 1.9 0 2.8-.8 1-.8 1.5-2.4l5.5 1.2q-.9 3.4-3.5 5.3-2.5 1.8-6.3 1.8zm23.3 0q-3.4 0-5.9-1.4-2.5-1.4-4-3.9-1.4-2.6-1.4-5.8 0-3.5 1.4-6.2 1.4-2.6 3.9-4 2.4-1.5 5.6-1.5 3.4 0 5.8 1.6t3.5 4.5q1.2 2.9.8 6.8h-2.6v-4h-2.9q-.2-1.8-.9-2.7-1-1.5-3.4-1.5-2.8 0-4.1 1.7-.8 1-1.1 2.5h-1.9v4h1.8q.2 2 1.2 3.2 1.3 1.6 3.8 1.6 1.6 0 2.8-.7 1.1-.7 1.7-2l5.5 1.6q-1.3 2.9-3.9 4.6-2.6 1.6-5.7 1.6zm4.4-9.9h-9.8q-.1-.7-.1-1.5 0-1.4.2-2.5h9.5q.2.9.2 2zm18.3 9.9q-4.1 0-6.6-1.8-2.5-1.9-3-5.3l5.5-.8q.4 1.5 1.5 2.4 1.2.8 3 .8 1.5 0 2.3-.5.8-.6.8-1.6 0-.7-.3-1-.4-.5-1.5-.8-1.1-.4-3.4-1-2.7-.7-4.2-1.5-1.6-.9-2.3-2-.7-1.2-.7-2.9 0-2.1 1-3.6 1.1-1.5 3-2.3 2-.9 4.6-.9 2.5 0 4.5.8 1.9.8 3.1 2.2 1.3 1.4 1.5 3.4l-5.5 1q-.2-1.2-1.1-1.9-.9-.7-2.4-.8-1.5-.1-2.4.4-.9.5-.9 1.4 0 .6.4 1 .4.3 1.6.8 1.2.4 3.7 1t4 1.5q1.5.8 2.2 2 .6 1.2.6 2.9 0 3.3-2.4 5.2-2.4 1.9-6.6 1.9zM159.8 1454l-8.4-28.8h5.7l5.4 19.8 5.4-19.8h5.7l5.4 19.8 5.4-19.8h5.8l-8.5 28.8h-5.3l-5.6-19.4-5.6 19.4zm41.2.6q-3.3 0-5.9-1.4-2.5-1.5-3.9-4-1.5-2.5-1.5-5.7 0-3.6 1.4-6.2t3.9-4q2.5-1.5 5.7-1.5 3.4 0 5.7 1.6 2.4 1.6 3.6 4.5 1.1 2.9.8 6.8h-2.7v-4h-2.8q-.3-1.8-1-2.7-1-1.5-3.4-1.5-2.8 0-4.1 1.7-.7 1-1.1 2.5h-1.9v4h1.8q.3 2 1.2 3.2 1.3 1.6 3.9 1.6 1.6 0 2.7-.7t1.7-2l5.5 1.6q-1.2 2.9-3.9 4.6-2.6 1.6-5.7 1.6zm4.4-9.9h-9.8q-.1-.7-.1-1.5 0-1.4.2-2.5h9.6q.1.9.1 2zm15.5 9.9q-2.3 0-3.9-.9t-2.5-2.4q-.8-1.5-.8-3.3 0-1.5.5-2.7.4-1.2 1.4-2.2 1.1-.9 2.8-1.6 1.2-.4 2.9-.8 1.6-.3 3.7-.6 1.3-.2 2.7-.4-.2-1.3-.9-2-.9-.9-3.1-.9-1.2 0-2.5.5-1.3.6-1.8 2.1l-4.9-1.6q.8-2.6 3-4.3 2.3-1.7 6.2-1.7 2.9 0 5.1.9 2.2.9 3.3 3 .7 1.2.8 2.4.1 1.2.1 2.7v13.2h-4.7v-2.7q-1.3 1.6-2.8 2.3-1.8 1-4.6 1zm6.8-14.9v.8l2-1.1q-1.1.2-2 .3zm.6 11.6.6-.8-.6-.9zm-6.2-1.1q1.5 0 2.5-.5t1.6-1.2q.6-.7.9-1.1.4-.9.4-2.1.1-.7.1-1.3-1.3.3-2.3.4-1.5.3-2.4.5-.9.2-1.6.5-.8.3-1.3.7-.5.4-.8.8-.2.4-.2 1 0 .7.4 1.3.4.5 1 .8.7.2 1.7.2zm5.5-6.2q.7-.1 1.6-.2l-1.6-.4v.6zm10.6 9.9v-28.8h5.5v17.6l7.4-10.4h6.7l-7.8 10.8 8.3 10.8h-7.1l-7.5-10.4v10.4zm36.9 0v-10.2q0-.7-.1-1.9-.1-1.1-.5-2.3-.4-1.1-1.4-1.9-.9-.8-2.7-.8-.7 0-1.5.2t-1.5.9q-.7.6-1.1 1.8-.5 1.2-.5 3.3v10.9h-5.5v-21.6h4.8v2.2q.8-.8 1.8-1.4 2.1-1.4 5.2-1.4 2.6 0 4.2.8 1.6.9 2.5 2.2.9 1.3 1.2 2.8.4 1.4.5 2.6.1 1.2.1 1.7v12.1zm20.3.6q-3.3 0-5.8-1.4t-4-3.9q-1.4-2.6-1.4-5.8 0-3.5 1.4-6.2 1.4-2.6 3.9-4 2.4-1.5 5.6-1.5 3.4 0 5.8 1.6t3.5 4.5q1.2 2.9.8 6.8h-2.6v-4h-2.9q-.2-1.8-.9-2.7-1.1-1.5-3.4-1.5-2.8 0-4.1 1.7-.8 1-1.1 2.5h-1.9v4h1.8q.2 2 1.2 3.2 1.3 1.6 3.8 1.6 1.6 0 2.8-.7 1.1-.7 1.7-2l5.4 1.6q-1.2 2.9-3.8 4.6-2.6 1.6-5.8 1.6zm4.4-9.9h-9.7q-.1-.7-.1-1.5 0-1.4.2-2.5h9.5q.1.9.1 2zm18.4 9.9q-4.1 0-6.6-1.8-2.5-1.9-3.1-5.3l5.6-.8q.3 1.5 1.5 2.4 1.2.8 3 .8 1.5 0 2.3-.5.8-.6.8-1.6 0-.7-.4-1-.3-.5-1.4-.8-1.1-.4-3.4-1-2.7-.7-4.3-1.5-1.5-.9-2.2-2-.7-1.2-.7-2.9 0-2.1 1-3.6 1.1-1.5 3-2.3 1.9-.9 4.6-.9 2.5 0 4.5.8 1.9.8 3.1 2.2 1.2 1.5 1.5 3.4l-5.5 1q-.2-1.2-1.1-1.9-.9-.7-2.4-.8-1.5-.1-2.4.4-.9.5-.9 1.4 0 .6.3 1 .4.3 1.7.8 1.2.4 3.7 1t4 1.5q1.5.8 2.1 2 .7 1.2.7 2.9 0 3.3-2.4 5.2-2.4 1.9-6.6 1.9zm21.9 0q-4.1 0-6.6-1.8-2.5-1.9-3.1-5.3l5.6-.8q.3 1.5 1.5 2.4 1.2.8 3 .8 1.4 0 2.2-.5.8-.6.8-1.6 0-.7-.3-1-.3-.5-1.4-.8-1.1-.4-3.5-1-2.6-.7-4.2-1.5-1.6-.9-2.3-2-.7-1.2-.7-2.9 0-2.1 1.1-3.6t3-2.3q1.9-.9 4.5-.9t4.5.8q2 .8 3.2 2.2 1.2 1.5 1.5 3.4l-5.6 1q-.1-1.2-1-1.9t-2.4-.8q-1.5-.1-2.5.4-.9.5-.9 1.4 0 .6.4 1 .4.3 1.6.8 1.3.4 3.8 1t3.9 1.5q1.5.8 2.2 2 .7 1.2.7 2.9 0 3.3-2.4 5.2-2.4 1.9-6.6 1.9zm23.4 0q-3.3 0-5.8-1.4-2.6-1.4-4-3.9-1.4-2.6-1.4-5.8 0-3.5 1.4-6.2 1.4-2.6 3.8-4 2.5-1.5 5.7-1.5 3.4 0 5.8 1.6t3.5 4.5q1.1 2.9.8 6.8h-2.6v-4h-2.9q-.2-1.8-.9-2.7-1.1-1.5-3.5-1.5-2.7 0-4.1 1.7-.7 1-1 2.5h-1.9v4h1.7q.3 2 1.2 3.2 1.4 1.6 3.9 1.6 1.6 0 2.7-.7 1.2-.7 1.8-2l5.4 1.6q-1.2 2.9-3.8 4.6-2.7 1.6-5.8 1.6zm4.4-9.9h-9.8q-.1-.7-.1-1.5 0-1.4.3-2.5h9.5q.1.9.1 2zm18.4 9.9q-4.1 0-6.6-1.8-2.5-1.9-3.1-5.3l5.6-.8q.3 1.5 1.5 2.4 1.2.8 3 .8 1.4 0 2.2-.5.8-.6.8-1.6 0-.7-.3-1-.3-.5-1.4-.8-1.1-.4-3.5-1-2.6-.7-4.2-1.5-1.6-.9-2.3-2-.7-1.2-.7-2.9 0-2.1 1.1-3.6t3-2.3q1.9-.9 4.5-.9t4.5.8q2 .8 3.2 2.2 1.2 1.5 1.5 3.4l-5.6 1q-.1-1.2-1-1.9t-2.4-.8q-1.5-.1-2.5.4-.9.5-.9 1.4 0 .6.4 1 .4.3 1.6.8 1.3.4 3.8 1t3.9 1.5q1.5.8 2.2 2 .7 1.2.7 2.9 0 3.3-2.4 5.2-2.4 1.9-6.6 1.9z"/><path d="M463 228.4a73.61 73.61 0 0 1 74 0l142.5 82.2c22.9 13.3 37 37.7 37 64.1v164.6c0 26.4-14.1 50.8-37 64.1L537 685.6a73.61 73.61 0 0 1-74 0l-142.5-82.2c-22.9-13.3-37-37.7-37-64.1V374.7c0-26.4 14.1-50.8 37-64.1z" style="fill:url(#g10)"/><path d="M487 264.6c8-4.6 18-4.6 26 0l147.1 85c8 4.6 13 13.2 13 22.5v169.8c0 9.3-5 17.9-13 22.5l-147.1 85c-8 4.6-18 4.6-26 0l-147.1-85c-8-4.6-13-13.2-13-22.5V372.1c0-9.3 5-17.9 13-22.5z" style="fill:url(#g11)"/><g clip-path="url(#cp9)"><path class="d" d="m578.5 531.9-66.9-30.3 40.9-89.9 54.4 24.6 3.9 8 3.9 7.8z"/><path class="B" d="m606.9 436.3-4.7 10.2 12.5 5.6z"/></g><g clip-path="url(#cp10)"><path class="d" d="m373.8 397.6 60.1-10.1 2.7 153.5-39.2 3.2z"/><path class="d" d="m373.8 397.6 126.5-22.3 16 88.5-80.3 28.5z"/><path d="m516.3 463.8-21.8-48.3L391 451.8s-5.9 38.6 45 40.4z" style="fill:#dfdfdf"/><path class="B" d="m436 492.3-35.1-38.6 93.6-38.2 21.8 48.3z"/></g></g></svg>