<svg version="1.2" xmlns="http://www.w3.org/2000/svg" viewBox="0 0 1000 1600" width="1000" height="1600"><defs><clipPath clipPathUnits="userSpaceOnUse" id="cp1"><path d="m0 50c0-27.61 22.39-50 50-50h900c27.61 0 50 22.39 50 50v1500c0 27.61-22.39 50-50 50h-900c-27.61 0-50-22.39-50-50z"/></clipPath><linearGradient id="P" gradientUnits="userSpaceOnUse"/><linearGradient id="g1" x2="1" href="#P" gradientTransform="matrix(-1433.488,-936.38,1033.832,-1582.675,1000,1600)"><stop offset=".05" stop-color="#441843"/><stop offset="1" stop-color="#683d6b"/></linearGradient><linearGradient id="g2" x2="1" href="#P" gradientTransform="matrix(515.5,-847,96.465,58.71,-44.5,669)"><stop stop-color="#fff" stop-opacity="1"/><stop offset="1" stop-color="#fff" stop-opacity=".37"/></linearGradient><linearGradient id="g3" x2="1" href="#P" gradientTransform="matrix(510.485,-821.05,61.319,38.125,-206.712,762.96)"><stop stop-color="#194186" stop-opacity="1"/><stop offset="1" stop-color="#fff" stop-opacity=".37"/></linearGradient><linearGradient id="g4" x2="1" href="#P" gradientTransform="matrix(792,0,0,116,104,1148.6)"><stop stop-color="#774879"/><stop offset="1" stop-color="#5d325f"/></linearGradient><linearGradient id="g5" x2="1" href="#P" gradientTransform="matrix(792,0,0,116,104,1293.6)"><stop stop-color="#774879"/><stop offset="1" stop-color="#5d325f"/></linearGradient><clipPath clipPathUnits="userSpaceOnUse" id="cp2"><path d="m722 1193c-24.33 0-44-19.67-44-44 0-24.33 19.67-44 44-44 24.33 0 44 19.67 44 44 0 24.33-19.67 44-44 44z"/></clipPath><clipPath clipPathUnits="userSpaceOnUse" id="cp3"><path d="m834 1193c-24.33 0-44-19.67-44-44 0-24.33 19.67-44 44-44 24.33 0 44 19.67 44 44 0 24.33-19.67 44-44 44z"/></clipPath><linearGradient id="g6" x2="1" href="#P" gradientTransform="matrix(792,0,0,116,104,1438.6)"><stop stop-color="#774879"/><stop offset="1" stop-color="#5d325f"/></linearGradient><clipPath clipPathUnits="userSpaceOnUse" id="cp4"><path d="m610 1337c-24.33 0-44-19.67-44-44 0-24.33 19.67-44 44-44 24.33 0 44 19.67 44 44 0 24.33-19.67 44-44 44z"/></clipPath><clipPath clipPathUnits="userSpaceOnUse" id="cp5"><path d="m722 1337c-24.33 0-44-19.67-44-44 0-24.33 19.67-44 44-44 24.33 0 44 19.67 44 44 0 24.33-19.67 44-44 44z"/></clipPath><clipPath clipPathUnits="userSpaceOnUse" id="cp6"><path d="m834 1337c-24.33 0-44-19.67-44-44 0-24.33 19.67-44 44-44 24.33 0 44 19.67 44 44 0 24.33-19.67 44-44 44z"/></clipPath><linearGradient id="g7" x2="1" href="#P" gradientTransform="matrix(30.975,40.164,-41.553,32.046,339.666,980.726)"><stop stop-color="#ffe500"/><stop offset="1" stop-color="#ffc42b"/></linearGradient><linearGradient id="g8" x2="1" href="#P" gradientTransform="matrix(30.975,40.164,-41.549,32.043,412.676,980.726)"><stop stop-color="#ffe500"/><stop offset="1" stop-color="#ffc42b"/></linearGradient><linearGradient id="g9" x2="1" href="#P" gradientTransform="matrix(30.975,40.164,-41.566,32.057,485.686,980.726)"><stop stop-color="#ffe500"/><stop offset="1" stop-color="#ffc42b"/></linearGradient><clipPath clipPathUnits="userSpaceOnUse" id="cp7"><path d="m834 1482c-24.33 0-44-19.67-44-44 0-24.33 19.67-44 44-44 24.33 0 44 19.67 44 44 0 24.33-19.67 44-44 44z"/></clipPath><clipPath clipPathUnits="userSpaceOnUse" id="cp8"><path d="m946 1482c-24.33 0-44-19.67-44-44 0-24.33 19.67-44 44-44 24.33 0 44 19.67 44 44 0 24.33-19.67 44-44 44z"/></clipPath><linearGradient id="g10" x2="1" href="#P" gradientTransform="matrix(-356.25,372.059,-375.012,-359.077,663.971,272.441)"><stop stop-color="#a45ab1"/><stop offset="1" stop-color="#a05aa6"/></linearGradient><linearGradient id="g11" x2="1" href="#P" gradientTransform="matrix(-390.745,-408.387,412.577,-394.754,699.88,656.88)"><stop offset=".05" stop-color="#6b1969"/><stop offset="1" stop-color="#3f1246"/></linearGradient><clipPath clipPathUnits="userSpaceOnUse" id="cp9"><path d="m606.65 402.83l19.84 121.27-108.28 17.71-19.83-121.27z"/></clipPath><clipPath clipPathUnits="userSpaceOnUse" id="cp10"><path d="m372.91 383.01l137.99-8.35 9.81 162.08-137.99 8.35z"/></clipPath></defs><style>.a{fill:url(#g1)}.b{opacity:.1;fill:url(#g2)}.c{opacity:.1;fill:url(#g3)}.d{fill:#fff}.e{fill:url(#g4)}.f{fill:url(#g5)}.g{fill:#d81719}.h{fill:#600809}.i{fill:#cc8f35}.j{fill:#fff;stroke:#142e46;stroke-width:2}.k{fill:#142e46}.l{fill:url(#g6)}.m{fill:#56d69c}.n{fill:#0e3e28;stroke:#0e3e28}.o{fill:#8f3e02}.p{fill:#583114}.q{fill:#4774ca}.r{fill:#163571}.s{fill:url(#g7)}.t{fill:url(#g8)}.u{fill:url(#g9)}.v{fill:#764879}.w{fill:#ffc136}.x{fill:#3c2900}.y{fill:url(#g10)}.z{fill:url(#g11)}.A{fill:#81518a}.B{fill:#dfdfdf}</style><g clip-path="url(#cp1)"><path class="a" d="m0 50c0-27.6 22.4-50 50-50h900c27.6 0 50 22.4 50 50v1500c0 27.6-22.4 50-50 50h-900c-27.6 0-50-22.4-50-50z"/><path class="b" d="m525.5-322l-675.5 1013 78 54 673.5-1021z"/><path class="c" d="m367.5-209l-675.5 1013 48 33.5 673.5-1021z"/><path fill-rule="evenodd" class="d" d="m298 809l-5.7-5.7v-4.8h4.7v3.2l3.1 3.1h13l3.1-3.1v-12.4l-3.1-3h-20.2v-20.7h27.2v4.2h-22.6v12.3h17.7l5.7 5.8v15.4l-5.7 5.7zm37.2 0l-6.2-6.2v-31l6.2-6.2h17.9l6.2 6.2v31l-6.2 6.2zm2.1-4.2h13.6l3.6-3.6v-27.8l-3.6-3.6h-13.6l-3.6 3.6v27.8zm33.7-16.3l-4-4v-14.8l4-4h9.5l4 4v14.8l-4 4zm3.9 20.6l23.9-43.4h4.8l-23.9 43.4zm-2-24.2h5.6l1.8-1.8v-12l-1.8-1.8h-5.6l-1.9 1.8v12zm25 24.2l-4-4.1v-14.7l4-4h9.5l4 4v14.7l-4 4.1zm1.9-3.6h5.6l1.8-1.8v-12.1l-1.8-1.8h-5.6l-1.9 1.8v12.1zm39.8 3.6l-5.7-5.7v-19.5l5.7-5.7h14.9l5.7 5.7v3.8h-4.6v-2.4l-3.1-3h-10.9l-3.1 3v16.6l3.1 3.1h10.9l3.1-3.1v-2.3h4.6v3.8l-5.7 5.7zm28 0v-44.3h4.6v19.8l6.5-6.4h9.6l5.7 5.7v25.2h-4.6v-23.8l-3.1-3h-6.4l-7.7 7.7v19.1zm39.5 0l-5.1-5.1v-7.9l5.1-5h16.5v-5.9l-3.1-3h-10.5l-3.1 3v2.5h-4.6v-3.8l5.7-5.7h14.4l5.7 5.7v25.2h-4.4v-5.5l-5.7 5.5zm2-4h8l6.5-6.3v-3.7h-14.5l-2.5 2.4v5.2zm28.1 4v-30.9h4.4v6.5l6.6-6.5h9.5l5.7 5.7v25.2h-4.6v-23.8l-3.1-3h-6.3l-7.7 7.7v19.1zm40.3 0l-5.7-5.8v-19.4l5.7-5.7h14.9l5.7 5.7v3.8h-4.6v-2.4l-3.1-3h-10.9l-3.1 3v16.6l3.1 3.1h10.9l3.1-3.1v-2.3h4.6v3.7l-5.7 5.8zm33.1 0l-5.7-5.8v-19.4l5.7-5.7h15.6l5.8 5.7v11.1h-22.5v6.9l3.1 3.1h11.6l3.1-3.1v-2.3h4.6v3.7l-5.7 5.8zm-1.1-18.1h17.8v-5.7l-3.1-3h-11.6l-3.1 3zm51 18l-5.7-5.7v-19.4l5.7-5.7h15.9l5.7 5.7v19.4l-5.7 5.7zm2-4h11.9l3.1-3.1v-16.6l-3.1-3h-11.9l-3.1 3v16.6zm31 4.1v-26.8h-5.6v-4.1h5.6v-6.8l5.4-5.4h8.9v3.9h-6.9l-2.8 2.8v5.5h9.7v4.1h-9.7v26.8zm-393 74l-7.3-30.9h4.7l5.3 25.7h0.2l7.4-25.7h4.5l6.8 25.7h0.2l5.7-25.7h4.7l-7.8 30.9h-4.9l-6.9-25.5h-0.2l-7.4 25.5zm40.6-36.1l-1.8-1.8v-2.8l1.8-1.8h2.7l1.9 1.8v2.8l-1.9 1.8zm-0.9 36.1v-30.9h4.6v30.9zm14.5 0v-30.9h4.5v6.6l6.6-6.6h9.4l5.7 5.7v25.2h-4.5v-23.7l-3.1-3.1h-6.3l-7.7 7.7v19.1zm35.2 0v-30.9h4.5v6.6l6.6-6.6h9.4l5.7 5.7v25.2h-4.5v-23.7l-3.1-3.1h-6.3l-7.7 7.7v19.1zm36.8-36.1l-1.9-1.8v-2.8l1.9-1.8h2.7l1.9 1.8v2.8l-1.9 1.8zm-0.9 36.1v-30.9h4.6v30.9zm14.5 0v-30.9h4.4v6.6l6.6-6.6h9.5l5.7 5.7v25.2h-4.6v-23.7l-3.1-3.1h-6.3l-7.6 7.7v19.1zm57.4-30.9h4.4v38.8l-5.6 5.6h-15.3l-4.8-4.7v-3.8h4.6v2.3l2.2 2.1h11.2l3.1-3v-11.5l-5.7 5.1h-11.2l-5.8-5.7v-19.5l5.8-5.7h11.7l5.4 5.4zm-0.2 20.8v-10.2l-6.5-6.5h-8.5l-3.1 3.1v16.6l3.1 3h8.6zm33.2 10.1l-5.1-5.1v-7.8l5.1-5.1h16.5v-5.9l-3.1-3h-10.6l-3.1 3v2.6h-4.6v-3.9l5.7-5.7h14.5l5.7 5.7v25.2h-4.4v-5.4l-5.7 5.4zm2-3.9h8l6.5-6.3v-3.8h-14.5l-2.5 2.4v5.2zm48.2 4l-5.7-5.7v-19.5l5.7-5.7h11.9l5.1 4.5v-17.9h4.6v44.3h-4.5v-5.6l-5.6 5.6zm2-4.1h8.5l6.5-6.5v-11l-6-5.2h-9l-3.1 3.1v16.6zm28.9 4.1v-30.9h4.4v5.5l5.5-5.5h8v4.1h-6.8l-6.6 6.6v20.2zm26.5 0l-5.1-5.1v-7.9l5.1-5h16.5v-5.9l-3.1-3h-10.5l-3.1 3v2.5h-4.6v-3.8l5.7-5.7h14.4l5.7 5.7v25.2h-4.4v-5.5l-5.7 5.5zm2-4h8l6.5-6.3v-3.7h-14.5l-2.5 2.4v5.2zm32.2 3.9l-7.2-30.8h4.7l5.2 25.6h0.2l7.5-25.6h4.4l6.8 25.6h0.2l5.7-25.6h4.8l-7.9 30.8h-4.9l-6.8-25.4h-0.2l-7.5 25.4z"/><path fill-rule="evenodd" class="d" d="m358.1 82h27.6c14.3 0 23.8 9 23.8 22.6 0 13.8-9.8 22.4-24.4 22.4h-9.6v19h-17.4zm23.5 31.5c6.1 0 9.8-3.4 9.8-8.9 0-5.5-3.7-8.7-9.8-8.7h-6.1v17.6zm24.1 32.5l21.2-64h23.7l21.1 64h-18.7l-3.7-12.3h-21.1l-3.7 12.3zm39.6-25.3l-6.4-21.1h-0.5l-6.3 21.1zm32.5-38.7h27.6c14.2 0 23.8 9 23.8 22.6 0 13.8-9.8 22.4-24.4 22.4h-9.6v19h-17.4zm23.5 31.5c6.1 0 9.7-3.4 9.7-8.9 0-5.5-3.6-8.7-9.7-8.7h-6.1v17.6zm34.2-31.5h46.1v14h-28.7v11h26.4v14h-26.4v11h28.6v14h-46zm54.8 0h27.6c14.2 0 23.7 8.1 23.7 21.8 0 8.8-4 15-10.8 18.3l13 23.9h-18.9l-11.3-21.1h-6v21.1h-17.3zm23.5 29.4c6.1 0 9.7-2.2 9.7-7.6 0-5.5-3.6-7.9-9.7-7.9h-6.2v15.5z"/><path class="e" d="m104 1148c0-32 26-58 58-58h676c32 0 58 26 58 58 0 32-26 58-58 58h-676c-32 0-58-26-58-58z"/><path class="f" d="m104 1293c0-32 26-58 58-58h676c32 0 58 26 58 58 0 32-26 58-58 58h-676c-32 0-58-26-58-58z"/><path class="g" d="m722 1193c-24.3 0-44-19.7-44-44 0-24.3 19.7-44 44-44 24.3 0 44 19.7 44 44 0 24.3-19.7 44-44 44z"/><g clip-path="url(#cp2)"><path class="h" d="m744.7 1142.8l3.3 1.6 0.8 8-0.8 2.9 1.7 6.5-4.6 6.1-5.9 1.5-14.1 7.9-16.3-0.8-42.3 28.1-12.2-37.3 38.1-20 5.9-17.6 21.4-6.8 15.7-4.2 7.2 3.4-1.6 8.2 3.8 1.8 2.1 8.6z"/><path class="d" d="m705.2 1176l3.7-2.3 1.6-0.4 14.3 0.4 11.9-6.4-15.6-1.2-4.3-12.6-0.7-3-1-2.9-3.6-6.8-2.6-1.3 3.6 0.2 3-4.5-0.7 3.2 2.6 4.5 8.1 2.3 3.7-3.4-9.5-16.8-19.7 7-5.2 16.1c-29.1 16.2-36.8 19.7-41.9 22.6 4.4 13.1 10.9 32.9 10.9 32.9l38.5-26 1.5-0.8z"/><path fill-rule="evenodd" class="d" d="m746.4 1156.9l0.4 3.1-3.4 4.9-16.8 0.4-0.6-4.5zm-21.9-6.7l16-5.3 5.4 1.3 0.1 5.7-2.1 3-19.6 2.2c-0.7-0.8-1.4-2.4-1.7-3.1zm15.7-18l4 2.1-0.1 4.8-3.3 3.1-19.7 8.3-2-2 6.9-2.1 4.7-3.8-2.9-6.4zm-4.7-11.2l4.7 2.3-1.4 6.4-13.3 3.1-3.6-7.5z"/></g><path class="i" d="m834 1193c-24.3 0-44-19.7-44-44 0-24.3 19.7-44 44-44 24.3 0 44 19.7 44 44 0 24.3-19.7 44-44 44z"/><g clip-path="url(#cp3)"><path class="j" d="m813.6 1146.6l-47.7 7.6 2.1 29.8 48-13c0 0 11 3.4 14.1 4.1l8.1-3.1 9.3-9.6 6.6-14.9-2.7-15.6-17.1 0.6-6.7-7.3-6.1-2.4-9.5 3.1c-0.1 4.1-0.1 12.5 0.7 14 0.8 1.5 2 2.2 2.5 2.4l1.9 1.4z"/><path class="d" d="m860 1150.2l4.3-3.5c0.1-3.9-1.1-13.4-7.5-19.9-0.3-0.1-9.2-1.8-13.5-2.6l-7.7 6.3 3.3 4.1 11.1 0.6-0.7 4.1-12.1 0.1-1.1 4.4 3.6 4.5 10.4 1.4-3.2 2.6 0.3 1.6 0.4 1.8-14.6-5-2.7 2.2-0.2 3.3 6.8 8.3 5.8 1.8-2.6 3.6 4.1 2.7 4.8 0.3 3.1-2.5-0.1-9.3 6.2-1.5 2.3-2.6z"/><path fill-rule="evenodd" class="j" d="m849.3 1139.3l0.7-4.1-11.1-0.6-3.3-4.1 7.7-6.3c4.3 0.8 13.2 2.5 13.5 2.6 6.4 6.5 7.6 16 7.5 19.9l-4.3 3.5m-10.6-10.8l-1.1 10-8.5-1.1-3.7-4.5 1.2-4.4 12-0.1h0.1l5 2.2 5.6 8.7zm10.6 10.8l0.5 6.8-2.3 2.6-6.1 1.5v-0.1zm-7.9 10.9v9.2l-3.1 2.5-4.8-0.4-4-2.6 2.5-3.6-5.8-1.8-6.8-8.3 0.2-3.3 2.8-2.2 14.5 5h0.1l4.4 5.4-0.1 0.1zm-2-11.5l-2 1.6 0.2-1.8zm-3.2 2.6l0.4 1.6 0.3 1.8 0.5-4.4zm5.2 8.8l-4.4-5.4"/><path class="j" d="m823.8 1164l1.2-1.5 4.9 0.3 11.8 10.1c1.3 1.1 1.4 2.9 1.3 3.6-0.5 1.4-2.1 4.3-3.9 4.6-1.9 0.2-3.2-0.5-3.7-0.9l-10.7-10.2z"/><path class="k" d="m823.1 1132.5l4.4 2.8-2.9-0.7c0 0.9 0.2 2.4-0.4 4.1-2.7 6-8.7 8.3-10.2 9l2.1-4-0.8-2.6c0 0 3 1.7 5.2-0.1 2.3-1.8 3-4.4 3-5.5z"/></g><path class="l" d="m104 1438c0-32 26-58 58-58h676c32 0 58 26 58 58 0 32-26 58-58 58h-676c-32 0-58-26-58-58z"/><path class="m" d="m610 1337c-24.3 0-44-19.7-44-44 0-24.3 19.7-44 44-44 24.3 0 44 19.7 44 44 0 24.3-19.7 44-44 44z"/><g clip-path="url(#cp4)"><path class="n" d="m564.2 1307.1l18.9-8.8 2.7-9.6 6.3-14.9v-0.1l0.2-0.1 2.9-1.7 0.2-0.1 0.3 0.1 2.9 1.6 0.3 0.1v0.3l0.4 2.5v0.1l-1.3 7.9 4.1-1.7 18.9-10.3h0.1l2.1-0.7 0.2-0.1 0.2 0.1 2.7 1.4 0.3 0.2-0.1 0.3-0.8 3.3v0.1l-0.1 0.1-0.8 0.7 1.5-0.9 0.1-0.1h0.1l3.5-0.2 0.5-0.1 0.1 0.5 0.1 3.6v0.1l-0.1 0.1-0.9 2.5v0.1l-0.1 0.1-0.5 0.4v0.1h-0.1l-6.2 4 5.1-2.6 0.1-0.1 0.2 0.1 3.4 0.3h0.5v0.5l-0.4 4.1v0.2l-0.1 0.1-1.7 1.5v0.1h-0.1l-2.9 1.8 3.6 0.2h0.5v0.5l-0.1 3.3v0.2l-0.1 0.2-2 1.7-25.9 16-0.2 0.1h-8.4l-17.3 13-0.4 0.3-0.3-0.5-12.3-21.2-0.2-0.4z"/><path class="d" d="m594.1 1314.8l-18.6 13.9-11.4-19.8 20.2-9.8 2.9-9.9 6-14.8 2.3-1.1 2.1 0.9 0.5 2.4-1.7 9.9 6.1-2.9 18.8-10 2.1-0.8 1.9 1.1-0.7 2.1-1.7 1.8-13.6 9.5-0.3 0.6-0.3 0.5 0.7-0.2 0.3 0.8 0.2-1.3 16.7-9.5 2.4-0.3 0.2 2.7-0.7 2.1-16.6 10.5-0.3 1.9 0.8-0.3 0.6 1-0.1-1.5 14.8-7.5 2.8 0.1v2.7l-1.2 1.3-15.9 10.1-1.3 2.3 0.9-0.3 0.9 1.8-0.1-2.5 12.4-7.1 3.1 0.1 0.2 2.3-1.2 1.4-25.6 15.9z"/></g><path class="o" d="m722 1337c-24.3 0-44-19.7-44-44 0-24.3 19.7-44 44-44 24.3 0 44 19.7 44 44 0 24.3-19.7 44-44 44z"/><g clip-path="url(#cp5)"><path class="p" d="m688.3 1297.6l-16.8 9-1.8 1.4 13.5 24 1.9-1.1 14-9c3 1 7.9 1.3 10.1 1 3.6-0.5 9.3-3 11.5-4.1l16.2-8.2 15.6-8.5-0.2-5-5-1.9-7.6 1.4-6.9 2.8 0.4-1.3-1.4-4.7-2.1-1.5-2.1 0.3 1.1-2.1-0.7-3.9-3.7-2.5 14.2-13.7-1.3-8-6.2 2.2-25.1 16.1-6.3 0.9-7.3 2.5z"/><path class="d" d="m736 1264.5l0.6 4.6-17.9 17 3.6-1.3 3.9 2.7c0.2 1 0.6 2.8 0.7 3.2q0 0.1 0 0c-0.2-0.1-1.4 2-2 3.2l3.5-0.4 2 1.4 1 4-3.2 4.2 12.3-4.8 6.6-1.2 3.6 1.3 0.1 2.5-22.4 11.5c-3.9 2.2-13.2 6.8-19.6 8.1-2 0.2-6.9 0.3-10.1-0.9-0.4 0.2-16.1 10.6-20.8 13.6l-11.7-20.8 23.7-13.4 4.2-13.9 5.5-2 6.6-0.9 26.2-16.5z"/><path fill-rule="evenodd" class="p" d="m706.4 1282.7l1 1 4.4 8 4.5-3 2.5-2.8 3.5-1.2-4.6 5.9-5 2.7 3 5.4c0.2 0.2 0.4 0.6 0.5 1.1l5.5-3.5 4.1-4.1 1.5 1.3-4.8 4.3-6.4 3.1q0 0.2-0.1 0.3l-0.9 0.2-3.2 1.3-2.8 0.7 1.1 2.3 0.1 2.8 0.8 1.3 2 0.8 4.1-1.1 4.4-1.8 4.6-3.3 3.8-3.7 0.6 1.4-3.1 3.2-2.3 2-3.1 1.9c-0.5 0.2-1.3 0.5-2.1 0.8-1.1 0.4-2.2 0.8-2.4 0.9-0.4 0.1-0.9 0.3-1.6 0.5-0.7 0.2-1.6 0.4-2.3 0.6l-2.3-0.1-1.9-1.3-1.1-2.1 0.4-1.8-0.9-1.9-1.6-2.6 0.7-2.9-1.8-0.9-2-3-1.2 0.7 1 1.7-2.4 8.4-0.9-1.5-2.1-0.6 2.3-1.4c0.6-1.4 1.4-4.5 1.2-5.1-0.2-0.6-0.9-1.6-1.2-2.1l3.8-2.1 2.6 3.6 7.1 3.5 1.3-0.4-8.9-15.8-3.6-1.6 2.5-0.4zm2.1 17.2l-0.4 2 0.5 0.6 2.5-0.6 1.2-0.5z"/></g><path class="q" d="m834 1337c-24.3 0-44-19.7-44-44 0-24.3 19.7-44 44-44 24.3 0 44 19.7 44 44 0 24.3-19.7 44-44 44z"/><g clip-path="url(#cp6)"><path class="r" d="m821 1315.7l-15.1 12.3-1.4 1-14.9-21.2 18.7-16.2 0.2-1.5-0.1-3.2 2.3-4.9 4-3.4 6.2-1.5 3.4-0.2 4.3 1.8 3 1.1 2.7 1.7 0.7 1.1 0.3 0.4 1.9-1.1 5.2-3.7 3.1-4.6 2.9-2.3 1.9-0.1 2.3 1 0.5 1.1 0.8 0.2 1.9 1.1 2.2 0.7 1.4 2-0.1 1.7 1.7 0.5 0.5 3.2-2.4 8.2-4.7 7.3-5.5 5.1-4.4 2.6-5.2 5-9.3 5.3z"/><path class="d" d="m820.6 1314l-2.2 1.6-17.4 14.7-13.3-19.1 22.1-18.8 0.3-2.3-0.2-2.7 2.1-4.5 3.3-2.6 6.1-1.7 2.6-0.1 4.3 1.7 2.3 0.7 2.5 1.4 0.8 1.1 0.3 1.4 1.4-0.5 2.3-1.1 5.6-4 1-1.7 2.1-3 2-1.8h1.4l1.7 0.5 0.6 1.6h1.1l1.9 1 1.7 0.5 1.1 1.5-0.3 2 2.2 0.7 0.3 2.1-2.4 7.6-4.7 7-5.5 4.8-4.3 2.7-5.1 4.8-8.6 5z"/><path fill-rule="evenodd" class="r" d="m826.6 1285.3l-1-2.4-1.6-0.5-0.2 0.7 1.4 0.9 0.5 1.7-0.2 1.3 0.8 2.1-1 3.2 0.9 1.1 2.3 1.7-1.9-2.8 0.9-2.8-0.6-2.3 1.5-0.7 2.5-0.2 2.5 0.3 0.8-1.8-1.1 1.3-2.1-0.3-2.2-0.3-1 0.2zm8.3 6l2.3 2.3 1.5 1.3 0.6 1.1 1.8 0.9 1.5 1.9 2.5 1.1 0.6-1 3-2.9 1.2-1.1 0.7-1.3 2.6-3.1 1-1.9 1.9-3.5 2.5-6-0.5-0.2-3.1 7.1-1.3 1.9-1.1 2.1-2.9 3.7-1.4 1.2-1.2 1.3-2 1.5h-1.8l-1.9-2 0.4-1 4.5-3 2-2.4 1.7-2 2.3-3.4 1.3-3.1 2.2-5.5-0.8 0.2-3.2 7.5-2.1 3.3-2.5 2.6-1.6 2.3-1.9 1.2-2.1 1.7-1 0.6-0.8-0.2-0.8-0.7-1-0.9-1.6-1.4 0.9-1.1 4.1-2 2.2-1.3 2.5-2.3 1.6-2.1 1.3-1.4 3.4-6.5 0.3-0.9-0.5 0.3-3.9 6.6-1.2 1.7-3 3.2-2.1 1.3-1.7 1-2.1 0.9-1.3 0.9-0.6 0.2-1.1-0.3-0.4-1.1-1.5-1.2 1.1 2.5z"/></g><path class="s" d="m362.2 977.5c1.2 3.4 4.4 5.7 8 5.8l7.9 0.1h1.5q1 0.1 2 0.4c3.7 1.5 4.8 6.7 1.2 9.4l-12.4 9.1c0 0 2.3 7.3 4.6 14.7 1.6 4.9-4.1 9-8.4 6l-7.6-5.4c-3-2-7-2-9.9 0l-7.7 5.4h0.1-0.1q-0.9 0.5-1.9 0.9c-3.8 0.9-7.8-2.7-6.5-7l4.6-14.6 0.1 0.1-0.1-0.1-12.4-9.1c-4.2-3.1-2-9.7 3.2-9.8l9.4-0.1c3.6-0.1 6.8-2.4 8-5.8l3-8.8c1.7-4.9 8.7-4.9 10.4 0z"/><path class="t" d="m435.2 977.5c1.2 3.4 4.4 5.7 8 5.8l7.9 0.1h1.5q1 0.1 2 0.4c3.7 1.5 4.8 6.7 1.2 9.4l-12.4 9.1c0 0 2.3 7.3 4.6 14.7 1.6 4.9-4.1 9-8.4 6l-7.6-5.4c-3-2-7-2-9.9 0l-7.6 5.4h-0.1q-0.9 0.5-1.8 0.9c-3.9 0.9-7.9-2.7-6.6-7l4.6-14.6 0.1 0.1-0.1-0.1-12.4-9.1c-4.2-3.1-2-9.7 3.2-9.8l9.4-0.1c3.6-0.1 6.8-2.4 8-5.8l3-8.8c1.7-4.9 8.7-4.9 10.4 0z"/><path class="u" d="m508.2 977.5c1.2 3.4 4.4 5.7 8.1 5.8l7.8 0.1h1.5q1 0.1 2 0.4c3.7 1.5 4.8 6.7 1.2 9.4l-12.4 9.1c0 0 2.3 7.3 4.6 14.7 1.6 4.9-4.1 9-8.4 6l-7.6-5.4c-3-2-7-2-9.9 0l-7.6 5.4h-0.1q-0.9 0.5-1.8 0.9c-3.9 0.9-7.9-2.7-6.6-7l4.6-14.6 0.1 0.1v-0.1l-12.5-9.1c-4.2-3.1-2-9.7 3.3-9.8l9.3-0.1c3.6-0.1 6.9-2.4 8-5.8l3-8.8c1.7-4.9 8.8-4.9 10.4 0z"/><path class="v" d="m581.2 977.5c1.2 3.4 4.4 5.7 8.1 5.8l7.8 0.1h1.5q1 0.1 2 0.4c3.7 1.5 4.8 6.7 1.2 9.4l-12.3 9.1c0 0 2.2 7.3 4.5 14.7 1.6 4.9-4.1 9-8.4 6l-7.6-5.4c-2.9-2-6.9-2-9.9 0l-7.6 5.4q-1 0.5-1.9 0.9c-3.9 0.9-7.9-2.7-6.6-7l4.6-14.6 0.1 0.1v-0.1l-12.5-9.1c-4.2-3.1-2-9.7 3.3-9.8l9.3-0.1c3.6-0.1 6.9-2.4 8-5.8l3-8.8c1.7-4.9 8.8-4.9 10.4 0zm73 0c1.2 3.4 4.4 5.7 8.1 5.8l7.8 0.1h1.5q1.1 0.1 2 0.4c3.8 1.5 4.9 6.7 1.2 9.4l-12.3 9.1c0 0 2.2 7.3 4.6 14.7 1.5 4.9-4.2 9-8.5 6l-7.6-5.4c-2.9-2-6.9-2-9.9 0l-7.6 5.4q-0.9 0.5-1.9 0.9c-3.9 0.9-7.9-2.7-6.5-7l4.5-14.6 0.1 0.1v-0.1l-12.4-9.1c-4.3-3.1-2.1-9.7 3.2-9.8l9.3-0.1c3.6-0.1 6.9-2.4 8-5.8l3-8.8c1.7-4.9 8.8-4.9 10.4 0z"/><path class="w" d="m834 1482c-24.3 0-44-19.7-44-44 0-24.3 19.7-44 44-44 24.3 0 44 19.7 44 44 0 24.3-19.7 44-44 44z"/><g clip-path="url(#cp7)"><path class="x" d="m812.1 1467.8l-29.2 19.1-11.5-29.9 27.9-12.2 6.1-13 13.8-3.6 4.1-2.2 20.7-17.2 5.9-0.1 2 2.3 0.4 4.9-19.4 16.6 27.2-5.6 1 0.5 2.4 3.1-0.6 4.9-2.9 2.3-17.9 4.2-6.6 1.7 2.8 0.1 1.8 1.6 1.1 3.8-0.6 3.1 1 1.3-1.6 6-2.9 2.5-3.3 0.2-1.8 0.9-8.7 4.8z"/><path class="d" d="m812 1465.8l-26.1 16.4-11.1-24 26.7-11.5 5.5-12.4 12.6-3.6 6.7 12.3-2.4 2.4-4.5-1.6-3.3-3-0.1-3.2-1 2.4-3.2 2.7 1.5-0.4 2.7 5.1-5.1 6.7 8.3-3.8 3.8 11.1 7.8 0.4-8 4.3z"/><path fill-rule="evenodd" class="d" d="m823.4 1459.2l1.1 1.2 12.1-0.2 2-2 1-4.5-14.5 2.3-2 1zm15.7-11.5l-1.2-2.1-2.7-0.4-12.1 3.8-1.4 1.3 1 3.5 14.9-1.2 1.5-1.5zm21.9-16.6l-1.5-1.9-29.8 6.4-0.2-2.1-2.8-0.8 3.9-0.5 20.1-17.1-0.6-3.1-1.7-1.1-3.7 0.4-20.1 16.6-3.6 2 8.4 15.7 4.9-1.5-1.5-2.8 2.4 0.2 24.2-5.8 1.6-1.6z"/></g><g clip-path="url(#cp8)"></g><path fill-rule="evenodd" class="d" d="m164.7 1164.6q-3.2 0-5.8-1.1-2.6-1.2-4.2-3.3-1.7-2.1-2.1-5l5.7-0.8q0.6 2.4 2.5 3.8 1.8 1.3 4.2 1.3 1.4 0 2.6-0.4 1.3-0.4 2.1-1.2 0.8-0.9 0.8-2.1 0-0.4-0.1-0.8-0.1-0.4-0.4-0.8-0.3-0.3-0.9-0.7-0.5-0.3-1.4-0.5l-7.5-2.2q-0.8-0.3-1.9-0.7-1.1-0.5-2.2-1.3-1-0.8-1.7-2.1-0.7-1.4-0.7-3.5 0-2.9 1.5-4.8 1.4-1.9 3.9-2.8 2.4-1 5.4-1 3 0.1 5.3 1.1 2.3 0.9 3.9 2.8 1.6 1.9 2.3 4.6l-5.9 1q-0.3-1.4-1.2-2.4-0.8-0.9-2-1.4-1.2-0.5-2.5-0.6-1.3 0-2.4 0.4-1.1 0.4-1.9 1.1-0.7 0.7-0.7 1.8 0 0.9 0.6 1.5 0.6 0.6 1.5 0.9 0.9 0.4 1.8 0.6l5 1.4q1.1 0.3 2.5 0.8 1.3 0.5 2.6 1.4 1.2 0.8 2 2.2 0.8 1.5 0.8 3.6 0 2.4-0.9 4.1-1 1.7-2.6 2.9-1.7 1.1-3.8 1.6-2 0.6-4.2 0.6zm28.9-0.6q-2.2 0.4-4.4 0.4-2.1-0.1-3.8-0.8-1.7-0.7-2.6-2.3-0.8-1.5-0.8-3-0.1-1.5-0.1-3.5v-8.2h-3.7v-4.2h3.7v-6h5.5v6h6.2v4.2h-6.2v10.2q0 1 0.4 1.6 0.7 1.1 2.3 1.2 1.6 0.1 3.5-0.1zm4.8 0v-21.6h4.8v3.5l0.6-1q0.7-0.9 1.7-1.5 0.8-0.5 1.7-0.7 0.9-0.3 1.9-0.4 1 0 2 0.1v5.1q-0.9-0.3-2.1-0.2-1.2 0.1-2.2 0.5-0.9 0.5-1.6 1.2-0.6 0.7-1 1.7-0.3 1-0.3 2.2v11.1zm4.8-18.1q-0.3 0.5-0.5 1.1l0.5 0.7zm21.3 18.7q-3.3 0-5.8-1.4-2.6-1.5-4-4-1.4-2.5-1.4-5.7 0-3.6 1.4-6.2 1.4-2.6 3.8-4.1 2.5-1.4 5.7-1.4 3.4 0 5.8 1.6 2.4 1.6 3.5 4.5 1.1 2.9 0.8 6.8h-2.6v-4h-2.9q-0.2-1.8-0.9-2.7-1.1-1.5-3.5-1.5-2.7 0-4.1 1.7-0.7 1-1 2.5h-1.9v4h1.7q0.3 1.9 1.2 3.2 1.4 1.6 3.9 1.6 1.6 0 2.7-0.7 1.2-0.7 1.8-2l5.4 1.5q-1.2 3-3.8 4.6-2.7 1.7-5.8 1.7zm4.4-9.9h-9.8q-0.1-0.7-0.1-1.5 0-1.4 0.3-2.5h9.5q0.1 0.9 0.1 2zm24.1 9.3v-10.2q0-0.8-0.1-1.9-0.1-1.2-0.5-2.3-0.4-1.2-1.4-2-0.9-0.7-2.7-0.7-0.7 0-1.5 0.2-0.8 0.2-1.5 0.8-0.7 0.7-1.1 1.9-0.5 1.2-0.5 3.2v11h-5.5v-21.6h4.8v2.2q0.8-0.8 1.8-1.5 2.1-1.4 5.2-1.4 2.6 0 4.2 0.9 1.6 0.9 2.5 2.2 0.9 1.3 1.2 2.7 0.4 1.5 0.5 2.6 0.1 1.2 0.1 1.8v12.1zm19.9 10.2q-1.8 0-3.5-0.6-1.6-0.6-3-1.7-1.3-1-2.1-2.4l5.1-2.4q0.5 0.9 1.4 1.4 1 0.5 2.2 0.5 1.2 0 2.3-0.4 1-0.4 1.7-1.2 0.6-0.8 0.6-2v-2.2q-2.1 1.4-5.2 1.4-2.9 0-5.2-1.5-2.2-1.5-3.5-4.1-1.2-2.6-1.2-5.8 0-3.3 1.2-5.9 1.3-2.6 3.6-4 2.3-1.5 5.4-1.5 3.1 0 5.2 1.5 0.2 0.1 0.4 0.3v-1.2h4.7v24.6q-0.1 0.7-0.3 1.4-0.5 2-1.9 3.2-1.4 1.3-3.5 1.9-2 0.7-4.4 0.7zm0.4-14.5q1.8 0 2.9-0.8 1.1-0.8 1.6-2.3 0.5-1.5 0.5-3.4 0-2-0.5-3.5-0.5-1.4-1.5-2.3-1.1-0.8-2.8-0.8-1.8 0-3 0.9-1.1 0.9-1.7 2.4-0.6 1.5-0.6 3.3 0 1.8 0.6 3.3 0.5 1.5 1.6 2.4 1.2 0.8 2.9 0.8zm28.3 4.3q-2.2 0.4-4.4 0.3-2.1 0-3.8-0.7-1.7-0.7-2.6-2.3-0.8-1.5-0.8-3-0.1-1.5-0.1-3.5v-8.2h-3.7v-4.2h3.7v-6h5.5v6h6.2v4.2h-6.2v10.2q0 1 0.4 1.6 0.7 1.1 2.3 1.2 1.6 0.1 3.5-0.1zm19.5 0v-12.1q-0.1-1.2-0.5-2.3-0.5-1.2-1.4-2-1-0.8-2.7-0.8-0.7 0-1.5 0.3-0.8 0.2-1.5 0.8-0.7 0.6-1.2 1.9-0.4 1.2-0.4 3.2v11h-5.5v-28.8h4.8v9.4q0.8-0.8 1.7-1.5 2.1-1.4 5.3-1.4 2.6 0 4.2 0.9 1.6 0.8 2.4 2.2 0.9 1.3 1.3 2.7 0.4 1.4 0.5 2.6 0.1 1.2 0.1 1.7v12.2zm19.1 0.6q-4.1 0-6.6-1.9-2.5-1.8-3-5.2l5.5-0.9q0.4 1.6 1.5 2.4 1.2 0.9 3 0.9 1.5 0 2.3-0.6 0.8-0.6 0.8-1.6 0-0.6-0.3-1-0.4-0.4-1.5-0.8-1.1-0.4-3.4-1-2.7-0.7-4.2-1.5-1.6-0.8-2.3-2-0.7-1.2-0.7-2.8 0-2.1 1-3.6 1.1-1.6 3-2.4 2-0.8 4.6-0.8 2.5 0 4.5 0.7 1.9 0.8 3.1 2.3 1.3 1.4 1.5 3.4l-5.5 1q-0.2-1.2-1.1-1.9-0.9-0.7-2.4-0.9-1.5-0.1-2.4 0.4-0.9 0.5-0.9 1.5 0 0.5 0.4 0.9 0.4 0.4 1.6 0.8 1.2 0.4 3.7 1 2.5 0.7 4 1.5 1.5 0.9 2.2 2.1 0.6 1.2 0.6 2.8 0 3.4-2.4 5.3-2.4 1.9-6.6 1.9zm-186.4 144.4v-28.8h13.3q0.7 0.1 1.3 0.2 2.5 0.4 4.2 1.7 1.6 1.3 2.4 3.2 0.8 2 0.8 4.4 0 3.6-1.8 6.2-1.1 1.6-3 2.4l5.2 10.7h-6.2l-4.7-9.8h-6.1v9.8zm5.5-14.8h6.5q0.4 0 0.9-0.1 0.5 0 0.9-0.1 1.1-0.3 1.7-1 0.6-0.8 0.8-1.6 0.3-0.9 0.3-1.7 0-0.8-0.3-1.6-0.2-0.9-0.8-1.6-0.6-0.7-1.7-1-0.4-0.1-0.9-0.2h-7.4zm31.4 15.4q-3.3 0-5.9-1.4-2.5-1.4-3.9-3.9-1.5-2.6-1.5-5.8 0-3.5 1.4-6.2 1.4-2.6 3.9-4 2.5-1.5 5.7-1.5 3.4 0 5.7 1.6 2.4 1.6 3.6 4.5 1.1 2.9 0.8 6.8h-2.7v-4h-2.8q-0.3-1.8-1-2.7-1-1.5-3.4-1.5-2.8 0-4.1 1.7-0.7 1-1.1 2.5h-1.9v4h1.8q0.2 2 1.2 3.2 1.3 1.6 3.9 1.6 1.6 0 2.7-0.7 1.1-0.7 1.7-2l5.5 1.6q-1.2 2.9-3.9 4.6-2.6 1.6-5.7 1.6zm4.4-9.9h-9.8q-0.1-0.7-0.1-1.5 0-1.4 0.2-2.5h9.6q0.1 0.9 0.1 2zm18.3 9.9q-4.1 0-6.6-1.8-2.5-1.9-3-5.3l5.5-0.8q0.4 1.5 1.5 2.4 1.2 0.8 3 0.8 1.5 0 2.3-0.5 0.8-0.6 0.8-1.6 0-0.7-0.3-1-0.3-0.4-1.5-0.8-1.1-0.4-3.4-1-2.6-0.7-4.2-1.5-1.6-0.9-2.3-2-0.7-1.2-0.7-2.9 0-2.1 1.1-3.6 1-1.5 2.9-2.3 2-0.9 4.6-0.9 2.5 0 4.5 0.8 2 0.8 3.2 2.2 1.2 1.5 1.5 3.4l-5.6 1q-0.1-1.2-1-1.9-0.9-0.7-2.5-0.8-1.5-0.1-2.4 0.4-0.9 0.5-0.9 1.4 0 0.6 0.4 1 0.4 0.4 1.6 0.8 1.2 0.4 3.8 1 2.4 0.6 3.9 1.5 1.5 0.8 2.2 2 0.7 1.2 0.7 2.9 0 3.3-2.4 5.2-2.4 1.9-6.7 1.9zm13.8-25.2v-4.8h5.5v4.8zm0 24.6v-21.6h5.4v21.6zm19.9 0.6q-4.1 0-6.6-1.8-2.5-1.9-3-5.3l5.5-0.8q0.4 1.5 1.5 2.4 1.2 0.8 3 0.8 1.5 0 2.3-0.5 0.8-0.6 0.8-1.6 0-0.7-0.3-1-0.4-0.4-1.5-0.8-1.1-0.4-3.4-1-2.7-0.7-4.2-1.5-1.6-0.9-2.3-2-0.7-1.2-0.7-2.9 0-2.1 1-3.6 1.1-1.5 3-2.3 2-0.9 4.6-0.9 2.5 0 4.5 0.8 1.9 0.8 3.1 2.2 1.3 1.5 1.5 3.4l-5.5 1q-0.2-1.2-1.1-1.9-0.9-0.7-2.4-0.8-1.5-0.1-2.4 0.4-0.9 0.5-0.9 1.4 0 0.6 0.4 1 0.4 0.4 1.6 0.8 1.2 0.4 3.7 1 2.5 0.6 4 1.5 1.5 0.8 2.2 2 0.6 1.2 0.6 2.9 0 3.3-2.4 5.2-2.4 1.9-6.6 1.9zm26.4-0.6q-2.2 0.4-4.4 0.4-2.1-0.1-3.8-0.8-1.7-0.7-2.6-2.3-0.8-1.4-0.8-3-0.1-1.5-0.1-3.4v-8.3h-3.7v-4.2h3.7v-6h5.5v6h6.2v4.2h-6.2v10.2q0 1 0.4 1.6 0.7 1.2 2.3 1.3 1.6 0.1 3.5-0.2zm10.8 0.6q-2.3 0-3.9-0.9-1.6-0.9-2.5-2.4-0.8-1.5-0.8-3.3 0-1.5 0.5-2.7 0.4-1.2 1.5-2.2 1-0.9 2.7-1.6 1.2-0.4 2.9-0.8 1.7-0.3 3.8-0.6 1.2-0.2 2.6-0.4-0.2-1.3-0.9-2-0.9-0.9-3.1-0.9-1.2 0-2.5 0.5-1.3 0.6-1.8 2.1l-4.9-1.6q0.8-2.6 3.1-4.3 2.2-1.7 6.1-1.7 2.9 0 5.1 0.9 2.2 0.9 3.4 3 0.6 1.2 0.7 2.4 0.1 1.2 0.1 2.7v13.2h-4.7v-2.7q-1.3 1.6-2.8 2.3-1.8 1-4.6 1zm6.8-14.9v0.8l2-1.1q-1.1 0.2-2 0.3zm0.6 11.6q0.3-0.4 0.7-0.8l-0.7-0.9zm-6.2-1.1q1.5 0 2.5-0.5 1-0.5 1.6-1.2 0.7-0.7 0.9-1.1 0.4-0.9 0.5-2.1v-1.3q-1.3 0.3-2.3 0.4-1.5 0.3-2.4 0.5-0.9 0.2-1.6 0.5-0.8 0.3-1.3 0.7-0.5 0.4-0.7 0.8-0.3 0.4-0.3 1 0 0.7 0.4 1.3 0.4 0.5 1.1 0.8 0.6 0.2 1.6 0.2zm5.5-6.2l1.6-0.2-1.6-0.4zm25.4 9.9v-10.2q0-0.7-0.1-1.9-0.1-1.1-0.5-2.3-0.4-1.1-1.4-1.9-0.9-0.8-2.7-0.8-0.7 0-1.5 0.2-0.8 0.2-1.5 0.9-0.7 0.6-1.1 1.8-0.5 1.2-0.5 3.3v10.9h-5.5v-21.6h4.8v2.2q0.8-0.8 1.8-1.4 2.1-1.4 5.2-1.4 2.6 0 4.2 0.8 1.6 0.9 2.5 2.2 0.9 1.3 1.2 2.8 0.4 1.4 0.5 2.6 0.1 1.2 0.1 1.7v12.1zm19.8 0.6q-3.3 0-5.7-1.5-2.4-1.5-3.7-4.1-1.3-2.5-1.3-5.8 0-3.3 1.3-5.8 1.4-2.6 3.8-4.1 2.4-1.5 5.7-1.5 3.8 0 6.4 2 2.6 1.9 3.3 5.2l-5.4 1.5q-0.5-1.7-1.7-2.7-1.2-0.9-2.7-0.9-1.7 0-2.8 0.8-1.1 0.9-1.6 2.3-0.5 1.4-0.5 3.2 0 2.8 1.2 4.6 1.3 1.7 3.7 1.7 1.9 0 2.8-0.8 1-0.8 1.5-2.4l5.5 1.2q-0.9 3.4-3.5 5.3-2.5 1.8-6.3 1.8zm23.3 0q-3.4 0-5.9-1.4-2.5-1.4-4-3.9-1.4-2.6-1.4-5.8 0-3.5 1.4-6.2 1.4-2.6 3.9-4 2.4-1.5 5.6-1.5 3.4 0 5.8 1.6 2.4 1.6 3.5 4.5 1.2 2.9 0.8 6.8h-2.6v-4h-2.9q-0.2-1.8-0.9-2.7-1-1.5-3.4-1.5-2.8 0-4.1 1.7-0.8 1-1.1 2.5h-1.9v4h1.8q0.2 2 1.2 3.2 1.3 1.6 3.8 1.6 1.6 0 2.8-0.7 1.1-0.7 1.7-2l5.5 1.6q-1.3 2.9-3.9 4.6-2.6 1.6-5.7 1.6zm4.4-9.9h-9.8q-0.1-0.7-0.1-1.5 0-1.4 0.2-2.5h9.5q0.2 0.9 0.2 2zm18.3 9.9q-4.1 0-6.6-1.8-2.5-1.9-3-5.3l5.5-0.8q0.4 1.5 1.5 2.4 1.2 0.8 3 0.8 1.5 0 2.3-0.5 0.8-0.6 0.8-1.6 0-0.7-0.3-1-0.4-0.5-1.5-0.8-1.1-0.4-3.4-1-2.7-0.7-4.2-1.5-1.6-0.9-2.3-2-0.7-1.2-0.7-2.9 0-2.1 1-3.6 1.1-1.5 3-2.3 2-0.9 4.6-0.9 2.5 0 4.5 0.8 1.9 0.8 3.1 2.2 1.3 1.4 1.5 3.4l-5.5 1q-0.2-1.2-1.1-1.9-0.9-0.7-2.4-0.8-1.5-0.1-2.4 0.4-0.9 0.5-0.9 1.4 0 0.6 0.4 1 0.4 0.3 1.6 0.8 1.2 0.4 3.7 1 2.5 0.6 4 1.5 1.5 0.8 2.2 2 0.6 1.2 0.6 2.9 0 3.3-2.4 5.2-2.4 1.9-6.6 1.9zm-222.4 144.5l-8.4-28.8h5.7l5.4 19.8 5.4-19.8h5.7l5.4 19.8 5.4-19.8h5.8l-8.5 28.8h-5.3l-5.6-19.4-5.6 19.4zm41.2 0.6q-3.3 0-5.9-1.4-2.5-1.5-3.9-4-1.5-2.5-1.5-5.7 0-3.6 1.4-6.2 1.4-2.6 3.9-4 2.5-1.5 5.7-1.5 3.4 0 5.7 1.6 2.4 1.6 3.6 4.5 1.1 2.9 0.8 6.8h-2.7v-4h-2.8q-0.3-1.8-1-2.7-1-1.5-3.4-1.5-2.8 0-4.1 1.7-0.7 1-1.1 2.5h-1.9v4h1.8q0.3 2 1.2 3.2 1.3 1.6 3.9 1.6 1.6 0 2.7-0.7 1.1-0.7 1.7-2l5.5 1.6q-1.2 2.9-3.9 4.6-2.6 1.6-5.7 1.6zm4.4-9.9h-9.8q-0.1-0.7-0.1-1.5 0-1.4 0.2-2.5h9.6q0.1 0.9 0.1 2zm15.5 9.9q-2.3 0-3.9-0.9-1.6-0.9-2.5-2.4-0.8-1.5-0.8-3.3 0-1.5 0.5-2.7 0.4-1.2 1.4-2.2 1.1-0.9 2.8-1.6 1.2-0.4 2.9-0.8 1.6-0.3 3.7-0.6 1.3-0.2 2.7-0.4-0.2-1.3-0.9-2-0.9-0.9-3.1-0.9-1.2 0-2.5 0.5-1.3 0.6-1.8 2.1l-4.9-1.6q0.8-2.6 3-4.3 2.3-1.7 6.2-1.7 2.9 0 5.1 0.9 2.2 0.9 3.3 3 0.7 1.2 0.8 2.4 0.1 1.2 0.1 2.7v13.2h-4.7v-2.7q-1.3 1.6-2.8 2.3-1.8 1-4.6 1zm6.8-14.9v0.8l2-1.1q-1.1 0.2-2 0.3zm0.6 11.6l0.6-0.8-0.6-0.9zm-6.2-1.1q1.5 0 2.5-0.5 1-0.5 1.6-1.2 0.6-0.7 0.9-1.1 0.4-0.9 0.4-2.1 0.1-0.7 0.1-1.3-1.3 0.3-2.3 0.4-1.5 0.3-2.4 0.5-0.9 0.2-1.6 0.5-0.8 0.3-1.3 0.7-0.5 0.4-0.8 0.8-0.2 0.4-0.2 1 0 0.7 0.4 1.3 0.4 0.5 1 0.8 0.7 0.2 1.7 0.2zm5.5-6.2q0.7-0.1 1.6-0.2l-1.6-0.4zm10.6 9.9v-28.8h5.5v17.6l7.4-10.4h6.7l-7.8 10.8 8.3 10.8h-7.1l-7.5-10.4v10.4zm36.9 0v-10.2q0-0.7-0.1-1.9-0.1-1.1-0.5-2.3-0.4-1.1-1.4-1.9-0.9-0.8-2.7-0.8-0.7 0-1.5 0.2-0.8 0.2-1.5 0.9-0.7 0.6-1.1 1.8-0.5 1.2-0.5 3.3v10.9h-5.5v-21.6h4.8v2.2q0.8-0.8 1.8-1.4 2.1-1.4 5.2-1.4 2.6 0 4.2 0.8 1.6 0.9 2.5 2.2 0.9 1.3 1.2 2.8 0.4 1.4 0.5 2.6 0.1 1.2 0.1 1.7v12.1zm20.3 0.6q-3.3 0-5.8-1.4-2.5-1.4-4-3.9-1.4-2.6-1.4-5.8 0-3.5 1.4-6.2 1.4-2.6 3.9-4 2.4-1.5 5.6-1.5 3.4 0 5.8 1.6 2.4 1.6 3.5 4.5 1.2 2.9 0.8 6.8h-2.6v-4h-2.9q-0.2-1.8-0.9-2.7-1.1-1.5-3.4-1.5-2.8 0-4.1 1.7-0.8 1-1.1 2.5h-1.9v4h1.8q0.2 2 1.2 3.2 1.3 1.6 3.8 1.6 1.6 0 2.8-0.7 1.1-0.7 1.7-2l5.4 1.6q-1.2 2.9-3.8 4.6-2.6 1.6-5.8 1.6zm4.4-9.9h-9.7q-0.1-0.7-0.1-1.5 0-1.4 0.2-2.5h9.5q0.1 0.9 0.1 2zm18.4 9.9q-4.1 0-6.6-1.8-2.5-1.9-3.1-5.3l5.6-0.8q0.3 1.5 1.5 2.4 1.2 0.8 3 0.8 1.5 0 2.3-0.5 0.8-0.6 0.8-1.6 0-0.7-0.4-1-0.3-0.5-1.4-0.8-1.1-0.4-3.4-1-2.7-0.7-4.3-1.5-1.5-0.9-2.2-2-0.7-1.2-0.7-2.9 0-2.1 1-3.6 1.1-1.5 3-2.3 1.9-0.9 4.6-0.9 2.5 0 4.5 0.8 1.9 0.8 3.1 2.2 1.2 1.5 1.5 3.4l-5.5 1q-0.2-1.2-1.1-1.9-0.9-0.7-2.4-0.8-1.5-0.1-2.4 0.4-0.9 0.5-0.9 1.4 0 0.6 0.3 1 0.4 0.3 1.7 0.8 1.2 0.4 3.7 1 2.5 0.6 4 1.5 1.5 0.8 2.1 2 0.7 1.2 0.7 2.9 0 3.3-2.4 5.2-2.4 1.9-6.6 1.9zm21.9 0q-4.1 0-6.6-1.8-2.5-1.9-3.1-5.3l5.6-0.8q0.3 1.5 1.5 2.4 1.2 0.8 3 0.8 1.4 0 2.2-0.5 0.8-0.6 0.8-1.6 0-0.7-0.3-1-0.3-0.5-1.4-0.8-1.1-0.4-3.5-1-2.6-0.7-4.2-1.5-1.6-0.9-2.3-2-0.7-1.2-0.7-2.9 0-2.1 1.1-3.6 1.1-1.5 3-2.3 1.9-0.9 4.5-0.9 2.6 0 4.5 0.8 2 0.8 3.2 2.2 1.2 1.5 1.5 3.4l-5.6 1q-0.1-1.2-1-1.9-0.9-0.7-2.4-0.8-1.5-0.1-2.5 0.4-0.9 0.5-0.9 1.4 0 0.6 0.4 1 0.4 0.3 1.6 0.8 1.3 0.4 3.8 1 2.5 0.6 3.9 1.5 1.5 0.8 2.2 2 0.7 1.2 0.7 2.9 0 3.3-2.4 5.2-2.4 1.9-6.6 1.9zm23.4 0q-3.3 0-5.8-1.4-2.6-1.4-4-3.9-1.4-2.6-1.4-5.8 0-3.5 1.4-6.2 1.4-2.6 3.8-4 2.5-1.5 5.7-1.5 3.4 0 5.8 1.6 2.4 1.6 3.5 4.5 1.1 2.9 0.8 6.8h-2.6v-4h-2.9q-0.2-1.8-0.9-2.7-1.1-1.5-3.5-1.5-2.7 0-4.1 1.7-0.7 1-1 2.5h-1.9v4h1.7q0.3 2 1.2 3.2 1.4 1.6 3.9 1.6 1.6 0 2.7-0.7 1.2-0.7 1.8-2l5.4 1.6q-1.2 2.9-3.8 4.6-2.7 1.6-5.8 1.6zm4.4-9.9h-9.8q-0.1-0.7-0.1-1.5 0-1.4 0.3-2.5h9.5q0.1 0.9 0.1 2zm18.4 9.9q-4.1 0-6.6-1.8-2.5-1.9-3.1-5.3l5.6-0.8q0.3 1.5 1.5 2.4 1.2 0.8 3 0.8 1.4 0 2.2-0.5 0.8-0.6 0.8-1.6 0-0.7-0.3-1-0.3-0.5-1.4-0.8-1.1-0.4-3.5-1-2.6-0.7-4.2-1.5-1.6-0.9-2.3-2-0.7-1.2-0.7-2.9 0-2.1 1.1-3.6 1.1-1.5 3-2.3 1.9-0.9 4.5-0.9 2.6 0 4.5 0.8 2 0.8 3.2 2.2 1.2 1.5 1.5 3.4l-5.6 1q-0.1-1.2-1-1.9-0.9-0.7-2.4-0.8-1.5-0.1-2.5 0.4-0.9 0.5-0.9 1.4 0 0.6 0.4 1 0.4 0.3 1.6 0.8 1.3 0.4 3.8 1 2.5 0.6 3.9 1.5 1.5 0.8 2.2 2 0.7 1.2 0.7 2.9 0 3.3-2.4 5.2-2.4 1.9-6.6 1.9z"/><path class="y" d="m463 228.4c5.6-3.3 11.6-5.8 17.8-7.4 6.3-1.7 12.7-2.6 19.2-2.6 6.5 0 12.9 0.9 19.2 2.6 6.2 1.6 12.2 4.1 17.8 7.4l142.5 82.2c22.9 13.3 37 37.7 37 64.1v164.6c0 26.4-14.1 50.8-37 64.1l-142.5 82.2c-5.6 3.3-11.6 5.8-17.8 7.4-6.3 1.7-12.7 2.6-19.2 2.6-6.5 0-12.9-0.9-19.2-2.6-6.2-1.6-12.2-4.1-17.8-7.4l-142.5-82.2c-22.9-13.3-37-37.7-37-64.1v-164.6c0-26.4 14.1-50.8 37-64.1z"/><path class="z" d="m487 264.6c8-4.6 18-4.6 26 0l147.1 85c8 4.6 13 13.2 13 22.5v169.8c0 9.3-5 17.9-13 22.5l-147.1 85c-8 4.6-18 4.6-26 0l-147.1-85c-8-4.6-13-13.2-13-22.5v-169.8c0-9.3 5-17.9 13-22.5z"/><g clip-path="url(#cp9)"><path class="d" d="m578.5 531.9l-66.9-30.3 40.9-89.9 54.4 24.6 3.9 8 3.9 7.8z"/><path class="A" d="m606.9 436.3l-4.7 10.2 12.5 5.6z"/></g><g clip-path="url(#cp10)"><path class="d" d="m373.8 397.6l60.1-10.1 2.7 153.5-39.2 3.2z"/><path class="d" d="m373.8 397.6l126.5-22.3 16 88.5-80.3 28.5z"/><path class="B" d="m516.3 463.8l-21.8-48.3-103.5 36.3c0 0-5.9 38.6 45 40.4z"/><path class="A" d="m436 492.3l-35.1-38.6 93.6-38.2 21.8 48.3z"/></g></g></svg>