<?xml version="1.0" standalone="no"?>
<!DOCTYPE svg PUBLIC "-//W3C//DTD SVG 20010904//EN"
 "http://www.w3.org/TR/2001/REC-SVG-20010904/DTD/svg10.dtd">
<svg version="1.0" xmlns="http://www.w3.org/2000/svg"
 width="1280.000000pt" height="640.000000pt" viewBox="0 0 1280.000000 640.000000"
 preserveAspectRatio="xMidYMid meet">
<metadata>
</metadata>
<g transform="translate(0.000000,640.000000) scale(0.100000,-0.100000)"
fill="#000000" stroke="none">
<path d="M2485 4806 c-56 -25 -115 -86 -142 -143 -17 -36 -18 -108 -18 -1188
0 -1085 1 -1152 18 -1188 27 -58 92 -122 147 -146 l49 -21 3873 2 3873 3 40
22 c53 28 99 78 124 133 20 44 21 60 21 1189 0 848 -3 1154 -12 1183 -16 55
-83 126 -143 154 l-50 24 -3865 0 -3865 0 -50 -24z"/>
<path d="M73 4279 c-38 -11 -73 -52 -73 -86 0 -13 6 -38 14 -56 7 -18 192
-255 410 -527 435 -543 438 -548 439 -675 2 -130 5 -125 -436 -677 -221 -276
-408 -516 -414 -531 -17 -36 -16 -62 2 -96 30 -58 -21 -56 1225 -56 1141 0
1145 0 1190 21 25 11 59 33 77 48 37 31 81 116 85 166 l3 35 -65 7 c-82 8
-163 38 -240 89 -73 50 -129 113 -175 201 -66 125 -65 99 -65 1176 l0 972
-972 -1 c-561 0 -986 -5 -1005 -10z"/>
<path d="M10750 3318 c0 -1077 1 -1051 -65 -1176 -46 -88 -102 -151 -175 -201
-77 -51 -158 -81 -240 -89 l-65 -7 3 -35 c4 -50 48 -135 85 -166 18 -15 52
-37 77 -48 45 -21 49 -21 1190 -21 939 0 1151 2 1177 14 57 24 77 78 51 138
-7 15 -192 253 -412 527 -219 275 -405 515 -413 534 -40 95 -37 216 7 302 10
19 196 258 414 530 264 330 400 508 408 533 14 47 3 82 -35 111 -28 21 -30 21
-1018 24 l-989 2 0 -972z"/>
</g>
</svg>
