<svg version="1.2" xmlns="http://www.w3.org/2000/svg" viewBox="0 0 127 45" width="127" height="45"><style>.a{fill:#d81719}.b{fill:#fff}.c{fill:#ffb000}</style><path fill-rule="evenodd" class="a" d="m8.7 29.9v7.1h-5.5v-22.7h10.6c2 0 3.9 0.8 5.3 2.2 1.5 1.4 2.3 3.4 2.3 5.4 0 2-0.8 4-2.3 5.4-1.1 1.1-2.4 1.8-3.9 2.1l5.7 7.7h-6.9c0 0-5.3-7.2-5.3-7.2zm6.6-6.5c0.4-0.4 0.6-0.9 0.6-1.5 0-0.6-0.2-1.1-0.6-1.5-0.4-0.4-1-0.6-1.5-0.6h-5.1v4.2h5.1c0.5 0 1.1-0.2 1.5-0.6zm13.5 13.6h-5.5v-22.7h10.6c2 0 4 0.8 5.4 2.2 1.4 1.4 2.2 3.4 2.2 5.4 0 2-0.8 4-2.2 5.4-1.4 1.4-3.4 2.2-5.4 2.2h-5.1c0 0 0 7.5 0 7.5zm6.6-13.6c0.4-0.4 0.6-0.9 0.6-1.5 0-0.6-0.2-1.1-0.6-1.5-0.4-0.4-0.9-0.6-1.5-0.6h-5.1v4.2h5.1c0.6 0 1.1-0.2 1.5-0.6zm7.7 8.4h11.7c0.4 0 0.9-0.2 1.2-0.5 0.3-0.3 0.4-0.7 0.4-1.1 0-0.5-0.1-0.9-0.4-1.2-0.3-0.3-0.8-0.5-1.2-0.5h-4.7c-1.9 0-3.7-0.7-5-2.1-1.4-1.3-2.1-3.1-2.1-5 0-1.9 0.7-3.7 2.1-5 1.3-1.4 3.1-2.1 5-2.1h11.7v5.5h-11.7c-0.4 0-0.9 0.1-1.2 0.4-0.3 0.4-0.4 0.8-0.4 1.2 0 0.4 0.1 0.8 0.4 1.2 0.3 0.3 0.8 0.4 1.2 0.4h4.7c1.9 0 3.7 0.8 5 2.1 1.4 1.4 2.1 3.2 2.1 5.1 0 1.9-0.7 3.7-2.1 5-1.3 1.4-3.1 2.1-5 2.1h-11.7z"/><path fill-rule="evenodd" class="b" d="m74.9 29.5v7q-4.3 0.5-7.8 0.5-1.8 0-2.6-0.9-0.9-0.8-0.9-2.6v-5.8q0-1.9 0.9-2.8 0.9-0.8 2.8-0.8h6.5v2.5h-5.8q-1.1 0-1.1 1.1v5.8q0 0.4 0.2 0.7 0.3 0.2 0.7 0.2 2.1 0 3.8-0.1v-2.6h-2.3v-2.2zm2.1 0.1v-2.3q3.3-0.3 5.9-0.3 1.3 0 2 0.7 0.8 0.8 0.8 2v7.1h-2.8l-0.2-0.9q-0.9 0.6-1.8 0.8-0.9 0.3-1.5 0.3h-0.6q-1.3 0-2-0.8-0.8-0.7-0.8-1.9v-0.9q0-1.2 0.8-1.9 0.7-0.8 2-0.8h3.7v-0.7q0-0.3-0.2-0.5-0.2-0.2-0.4-0.2-1.2 0-2.7 0.2-1.4 0.1-2.2 0.1zm2.9 4.8h0.4q1 0 2.2-0.3v-1.1h-2.6q-0.3 0-0.5 0.2-0.2 0.1-0.2 0.4v0.2q0 0.3 0.2 0.5 0.2 0.1 0.5 0.1zm13.7-7.4h0.2q1.4 0 2.2 1.1 0.9-0.6 1.8-0.8 1-0.3 1.8-0.3h0.2q1.2 0 1.9 0.7 0.8 0.8 0.8 2v7.1h-3.2v-6.5q0-0.3-0.2-0.5-0.2-0.2-0.4-0.2h-0.1q-0.8 0-2.1 0.4v6.8h-3.2v-6.5q0-0.3-0.2-0.5-0.2-0.2-0.4-0.2h-0.1q-0.8 0-2.1 0.4v6.8h-3.2v-9.6h2.8l0.2 0.9q0.9-0.6 1.8-0.8 0.9-0.3 1.5-0.3zm19.4 7.3v2.3q-3.5 0.4-6.3 0.4-1.3 0-2-0.8-0.8-0.7-0.8-1.9v-4.4q0-1.4 0.8-2.1 0.8-0.8 2.1-0.8h3.7q1.3 0 2.1 0.8 0.8 0.7 0.8 2.1v3.4h-6.3v0.7q0 0.3 0.2 0.4 0.2 0.2 0.5 0.2 1.7 0 5.2-0.3zm-3.5-5h-1.7q-0.7 0-0.7 0.7v1h3.1v-1q0-0.7-0.7-0.7z"/><path class="a" d="m112.2 9.4l-7.3-2.7q-0.3-0.1-0.7 0-0.3 0.2-0.5 0.6l-2.2 6.1q-1.5 3.9-0.7 6.8 0.8 2.8 4 6l3.3-3q-1.9-2.1-2.4-3.5c-0.4-1-0.4-2.1-0.1-3.1l3.4 1.3q0.4 0.2 0.8 0 0.3-0.2 0.5-0.5l2.4-6.7q0.1-0.4 0-0.7-0.2-0.4-0.5-0.6z"/><path class="c" d="m113.5 17.6l7.5-1.7q0.2 0 0.4 0 0.2 0.1 0.3 0.2 0.2 0 0.3 0.2 0.1 0.2 0.2 0.3l1.4 6.1q0.9 3.9-0.2 6.5-1.2 2.6-4.8 5.2l-2.9-3.3q2.2-1.6 2.9-3c0.5-0.9 0.6-1.9 0.4-2.9l-3.5 0.8q-0.4 0.1-0.7-0.1-0.4-0.2-0.4-0.6l-1.6-6.6q-0.1-0.4 0.1-0.7 0.2-0.3 0.6-0.4z"/></svg>