<svg version="1.2" xmlns="http://www.w3.org/2000/svg" viewBox="0 0 64 23" width="64" height="23"><style>.a{fill:#d81719}.b{fill:#ffb000}.c{fill:#686868}</style><path fill-rule="evenodd" class="a" d="m4.2 15.9v3.8h-2.9v-12.1h5.6c1.1 0 2.1 0.4 2.8 1.2 0.8 0.7 1.2 1.8 1.2 2.9 0 1-0.4 2.1-1.2 2.8-0.5 0.6-1.3 1-2.1 1.2l3.1 4h-3.7c0 0-2.8-3.8-2.8-3.8zm3.5-3.4c0.2-0.3 0.3-0.5 0.3-0.8 0-0.3-0.1-0.6-0.3-0.8-0.2-0.3-0.5-0.4-0.8-0.4h-2.7v2.3h2.7c0.3 0 0.6-0.1 0.8-0.3zm7.2 7.2h-2.9v-12.1h5.6c1.1 0 2.1 0.4 2.9 1.2 0.7 0.7 1.2 1.8 1.2 2.9 0 1-0.5 2.1-1.2 2.8-0.8 0.8-1.8 1.2-2.9 1.2h-2.7c0 0 0 4 0 4zm3.5-7.2c0.2-0.3 0.3-0.5 0.3-0.8 0-0.3-0.1-0.6-0.3-0.8-0.2-0.3-0.5-0.4-0.8-0.4h-2.7v2.3h2.7c0.3 0 0.6-0.1 0.8-0.3zm4.1 4.4h6.2q0.4 0 0.6-0.2 0.3-0.3 0.3-0.6 0-0.4-0.3-0.7-0.2-0.2-0.6-0.2h-2.5c-1 0-1.9-0.4-2.7-1.1-0.7-0.7-1.1-1.7-1.1-2.7 0-1 0.4-2 1.2-2.7 0.7-0.7 1.6-1.1 2.6-1.1h6.2v2.9h-6.2q-0.3 0-0.6 0.3-0.2 0.2-0.2 0.6 0 0.3 0.2 0.6 0.3 0.3 0.6 0.3h2.5c1 0 2 0.4 2.7 1.1 0.7 0.7 1.1 1.7 1.1 2.7 0 1-0.4 1.9-1.1 2.6-0.7 0.8-1.7 1.2-2.7 1.2h-6.2z"/><path class="a" d="m58 2.4l-3.7-1.4q-0.2 0-0.4 0-0.2 0.1-0.3 0.3l-1.1 3.2q-0.8 2-0.4 3.4 0.4 1.5 2.1 3.1l1.7-1.5q-1-1-1.3-1.8c-0.1-0.5-0.1-1.1 0-1.6l1.8 0.7q0.2 0.1 0.4 0 0.1-0.1 0.2-0.3l1.3-3.4q0-0.2 0-0.4-0.1-0.2-0.3-0.3z"/><path class="b" d="m58.7 6.6l3.8-0.8q0.1-0.1 0.2 0 0.1 0 0.2 0 0.1 0.1 0.1 0.2 0.1 0 0.1 0.1l0.8 3.2q0.4 2-0.2 3.3-0.5 1.3-2.4 2.7l-1.5-1.7q1.1-0.9 1.5-1.6c0.2-0.4 0.3-0.9 0.2-1.4l-1.8 0.4q-0.2 0-0.4-0.1-0.1-0.1-0.2-0.3l-0.8-3.4q0-0.2 0.1-0.4 0.1-0.1 0.3-0.2z"/><path class="c" d="m36.8 19.1q-0.5 0-0.9-0.1-0.5-0.1-0.8-0.3-0.4-0.2-0.7-0.5-0.3-0.3-0.5-0.6-0.3-0.4-0.4-0.8-0.1-0.5-0.1-1 0-0.7 0.3-1.2 0.3-0.6 0.8-1.1 0.5-0.4 1.2-0.6 0.7-0.2 1.5-0.2 0.5 0 1 0 0.5 0.1 1 0.3l-0.3 1.4q-0.4-0.2-0.8-0.3-0.4 0-0.7 0-0.5 0-0.9 0.1-0.3 0.1-0.6 0.4-0.2 0.2-0.4 0.5-0.1 0.4-0.1 0.8 0 0.4 0.1 0.7 0.1 0.4 0.3 0.6 0.1 0.3 0.4 0.4 0.3 0.1 0.8 0.1h0.5v-1.3l-1 0.2v-1.1h2.7v3q-0.3 0.1-0.6 0.3-0.3 0.1-0.6 0.2-0.3 0.1-0.6 0.1-0.3 0-0.6 0zm7.4-6.3l1.7 6.2h-2.4l-0.2-1.3h-1.6l-0.3 1.3h-1.6l1.6-6.2zm-1.5 1h-0.1l-0.7 2.8h1.3zm4 5.3v-6.2h1.9l1.5 2.4 1.6-2.4h1.8v6.2h-2v-3.4l-1.4 2.5h-0.4l-1.5-2.5v3.4zm8.3 0v-6.2h4.3v1.1h-2.4v1.3h2.1v1.2h-2.1v1.3h2.4v1.3z"/></svg>