<svg version="1.2" xmlns="http://www.w3.org/2000/svg" viewBox="0 0 64 64" width="64" height="64"><style>.a{fill:#fff}</style><path class="a" d="m33.6 8.9l-15.2-5.8c-0.5-0.2-1.1-0.1-1.6 0.1-0.5 0.2-0.9 0.6-1 1.1l-4.8 13q-3.1 8.2-1.4 14.3 1.6 6 8.5 12.8l7-6.4q-4.2-4.3-5.2-7.4c-0.7-2.1-0.8-4.4-0.1-6.5l7.2 2.8c0.5 0.2 1.1 0.1 1.6-0.1 0.5-0.2 0.8-0.6 1-1.1l5.2-14.1c0.2-0.6 0.2-1.1 0-1.6-0.3-0.5-0.7-0.9-1.2-1.1z"/><path class="a" d="m36.5 26.2l15.9-3.6q0.4 0 0.8 0 0.4 0.1 0.7 0.3 0.4 0.2 0.6 0.5 0.2 0.4 0.3 0.7l3.1 12.9q1.9 8.2-0.5 13.8-2.4 5.5-10.1 11l-6.1-6.9q4.6-3.6 6.1-6.4c1-1.9 1.3-4 0.9-6.1l-7.5 1.6c-0.5 0.2-1.1 0.1-1.5-0.2-0.5-0.3-0.8-0.7-0.9-1.2l-3.3-14.1c-0.1-0.5 0-1 0.3-1.5 0.2-0.4 0.7-0.7 1.2-0.8z"/></svg>