<svg version="1.2" xmlns="http://www.w3.org/2000/svg" viewBox="0 0 476 476" width="476" height="476"><style>.a{fill:#fff}</style><path fill-rule="evenodd" class="a" d="m475.5 212.1c0 4-1.6 7.8-4.4 10.7l-42.4 42.4c-2.9 2.8-6.7 4.4-10.6 4.4-2.3 0-4.5-0.6-6.5-1.5l-53.6 53.6q0 0-0.1 0c-8.1 8.2-18.6 12.5-29.3 13.1-0.6 10.7-4.9 21.2-13.1 29.4-8.1 8.1-18.6 12.5-29.3 13.1-0.6 11-5.2 21.4-13.1 29.3-8.8 8.8-20.3 13.2-31.8 13.2-11.5 0-23.1-4.4-31.8-13.2q0 0 0 0l-145.6-145.6c-2.1 1-4.3 1.5-6.5 1.5-3.8 0-7.6-1.5-10.6-4.4l-42.4-42.4c-2.8-2.8-4.4-6.6-4.4-10.6 0-4 1.6-7.8 4.4-10.6l134.3-134.4c5.9-5.8 15.4-5.8 21.3 0l42.4 42.4 31.8 31.9 31.8-31.9 42.4-42.4c5.9-5.8 15.4-5.8 21.3 0l141.4 141.4c2.8 2.8 4.4 6.7 4.4 10.6zm-418.1 14.2l108.7-108.7 4.5-4.5-21.2-21.2-113.2 113.2zm236.9 95.4q0 0 0 0l-21.2-21.2c-5.9-5.8-5.9-15.3 0-21.2 5.8-5.9 15.3-5.9 21.2 0l21.2 21.2q0 0 0 0c5.9 5.9 15.4 5.9 21.2 0q0 0 0 0c2.9-2.8 4.4-6.6 4.4-10.6 0-4-1.5-7.7-4.4-10.6l-7.1-7.1q0 0 0 0l-53-53-31.8 31.8q0 0 0 0c-8.8 8.8-20.3 13.2-31.8 13.2-11.5 0-23.1-4.4-31.8-13.2-17.6-17.5-17.6-46.1-0.1-63.6q0.1 0 0.1 0l31.8-31.8-21.2-21.3-106.1 106.1 144.9 145q0.1 0 0.1 0c5.8 5.8 15.3 5.8 21.2 0 2.8-2.9 4.4-6.6 4.4-10.6 0-4-1.6-7.8-4.4-10.6q0 0 0 0 0 0 0 0l-21.2-21.3c-5.9-5.8-5.9-15.3 0-21.2 5.8-5.8 15.3-5.8 21.2 0l21.2 21.2q0 0 0 0.1c5.8 5.8 15.3 5.8 21.2-0.1 5.8-5.8 5.8-15.3 0-21.2zm95.5-74.2l-113.2-113.2-31.8 31.9q0 0 0 0 0 0 0 0l-42.4 42.4q0 0 0 0c-5.9 5.8-5.9 15.4 0 21.2 5.8 5.9 15.3 5.9 21.2 0l42.4-42.4c2.8-2.8 6.6-4.4 10.6-4.4 4 0 7.8 1.6 10.6 4.4l63.7 63.6q0 0 0 0l7 7.1q0 0 0 0 0 0 0 0l10.6 10.6zm49.5-35.4l-120.2-120.2-21.2 21.2 120.2 120.3z"/></svg>