<svg version="1.2" xmlns="http://www.w3.org/2000/svg" viewBox="0 0 2122 2122" width="112" height="112"><style>.a{fill:#79a779}.b{fill:#ae7350}.c{fill:#c5874c}.d{fill:#e1e2e3}.e{fill:#c59365}.f{fill:#e6e3e3}.g{fill:#8ab459}.h{fill:#b77c47}.i{fill:#93ac83}.j{fill:#abc88c}.k{fill:#a7c884}.l{fill:#aec892}.m{fill:#79a167}.n{fill:#83a571}</style><path class="a" d="m1079.1 1684.2q-0.6 0.9-1.2 1.8 0.6-0.9 1.2-1.8 0 0 0 0z"/><path class="b" d="m1219 499.1l-0.2 0.2c0 0-2 4.5-5.7 12.8-1.9 4.2-4.1 9.4-6.8 15.5-2.6 6-5.6 13-8.9 20.9-6.6 15.6-14.2 34.8-22.5 57-4.2 11.1-8.3 22.7-12.7 35.2-2.1 6.3-4.3 12.8-6.5 19.4q-3.2 10-6.5 20.5c-4.5 13.8-8.8 28.4-13.3 43.5-2.3 7.5-4.4 15.2-6.7 23-2.2 7.8-4.5 15.7-6.6 23.8-0.7 2.7-1.4 5.4-2.1 8.1q-1.6 5.6-3 11.3c-6.9 26.4-13.4 54.1-19.7 82.4-1.1 5.1-2.1 10.4-3.3 15.6q-1.1 5.4-2.3 11c-0.1 0.7-0.3 1.5-0.4 2.2q-2.5 12.7-5 25.5l-1.3 7.1-0.3 1.5-0.1 0.3v0.4l-0.2 0.9-0.6 3.5q-1.2 6.9-2.4 13.9c-1.5 9.3-3.3 18.5-4.6 27.9-2.8 17.1-5.2 34.4-7.5 51.8-0.4 3.8-0.9 7.6-1.4 11.4-2.1 16.9-4 33.9-5.8 51q-1.6 16.6-2.9 33.2-0.5 5.8-0.9 11.5c-1.8 23.5-3.2 46.8-4.2 69.5-0.5 8.5-0.7 17.4-1 26q0 1.5-0.1 2.9c-0.1 2.9-0.2 5.9-0.3 8.8q-0.1 2.8-0.2 5.6-0.1 6.7-0.2 13.3c-0.2 9.2-0.2 18.4-0.2 27.5-0.1 9.1 0.1 18.2 0.2 27.2q0.1 13.7 0.4 27 0.1 5.8 0.3 11.5c0.5 19.4 1.2 38.4 2 56.9 0.1 3.1 0.3 6.1 0.4 9.1 0.1 0.8 0.1 1.7 0.2 2.6 1.1 25.6 2.6 50.2 4.2 73.3q0.4 5.7 0.8 11.3 0.2 3.3 0.4 6.4c1.5 21.2 3.2 41 4.8 59.3q0.5 5.8 1.1 11.4 0.3 4.2 0.7 8.2 1.8 17.6 3.3 32.8 1.7 15.1 3.2 27.6l0.1 1.4q0.8 6.5 1.6 12.3 0.5 4.3 1 8c0.2 1.6 0.4 3.1 0.5 4.6q0.4 2.3 0.6 4.4 0.6 4.2 1.1 7.6c1.2 9.2 1.9 14.1 1.9 14.1 5.4 39.9-22.5 76.7-62.5 82.2-39.9 5.4-76.7-22.5-82.1-62.5-0.3-1.9-0.5-4-0.6-6 0 0-0.3-4.9-0.8-14.1q-0.1-3.5-0.4-7.8-0.2-4.3-0.4-9.5c-0.1-3.4-0.3-7-0.4-10.9q-0.3-6.2-0.6-13.1v-0.1c-0.3-8.9-0.5-18.6-0.9-29.3-0.2-10.6-0.4-22.1-0.6-34.4q0-2.2 0-4.3c0-4-0.1-8-0.1-12-0.2-20.3-0.2-42.3 0.1-65.9v-0.7q0.1-5.6 0.1-11.3c0.3-24.1 0.8-49.6 1.8-76.3q0.1-4.4 0.3-8.8 0-2 0.1-4.1c0.8-21.1 1.8-42.9 3.1-65.2q0.3-5.8 0.7-11.6 0.8-13.6 1.8-27.5c0.7-9.5 1.3-19 2.2-28.6 0.8-9.6 1.6-19.2 2.6-29v-0.1c0.4-3.8 0.8-7.6 1.2-11.4q0.2-1.9 0.3-3.8 0.9-7.1 1.8-14.2c1.2-9.6 2.2-19.1 3.5-28.9 3.1-23.7 6.6-47.3 10.4-70.8q0.9-5.7 1.8-11.4 3.1-18.5 6.5-37.1 4.7-24.9 9.9-49.5 1.5-7 3-14c3.9-18.1 8.1-36.2 12.5-54 2.2-9.6 4.9-19.1 7.3-28.7q1.9-7.1 3.7-14.1l1-3.6 0.5-2.1 0.5-1.7 1.9-6.9q2.6-8.9 5.1-17.8 1.3-4.7 2.7-9.5l0.4-1.3q4-13.2 7.9-26.2c2.7-9.1 5.7-17.9 8.5-26.7 2.7-8.8 5.5-17.5 8.5-26 2-5.7 3.9-11.4 5.8-17q1.5-4.2 2.9-8.4c1-2.7 2-5.5 3-8.2v-0.1c1.9-5.5 3.9-10.9 5.8-16.3 2.9-8.1 5.9-16 8.9-23.8 2.9-7.8 5.8-15.5 8.8-23 5.9-15 11.6-29.6 17.4-43.4q4.3-10.3 8.4-20.2 4.3-9.9 8.4-19.2c5.6-12.6 11-24.7 16.2-35.6 10.5-22.1 20.1-41 28.2-56.5 4-7.8 7.7-14.6 10.9-20.6 3.2-6 6-11 8.2-15.1 4.6-8.2 7-12.5 7-12.5 5.3-9.6 17.3-13 26.8-7.8 9.1 5 12.7 16.1 8.6 25.4z"/><path class="c" d="m1076.3 1673.3c-6.8 3.3-14.2 3.4-20.9 3.4-4.2 0.1-8.2 0.1-11.9 0.9-1.3 0.3-2.9 1.6-4.6 3-2.5 2-5.6 4.6-9.8 5.1-7.8 0.8-13.3-4.2-17.7-8.2-2.3-2.2-4.8-4.4-6.5-4.8-9-1.6-18.3 2.7-28.2 7.4-9 4.2-19.3 9.1-29.6 8.1-4.3-0.4-8.7-1.9-12.9-4.8q-0.3-6.2-0.6-13.1l1.6-1.3c10.3 12.4 20.2 8.6 36.7 0.8 10.6-4.9 22.6-10.5 35.1-8.2 4.9 1 8.7 4.4 12.1 7.5 3.6 3.4 6.3 5.6 8.8 5.3 0.8-0.1 2.5-1.5 3.8-2.5 2.4-2 5.4-4.5 9.5-5.4 4.7-1 9.5-1 14.1-1.1 8.7-0.1 14.6-0.4 19.4-4.4q0.8 6.5 1.6 12.3z"/><path class="c" d="m1067.4 1591c-7.3-0.7-11.4 0.7-18.8 3.1-2.6 0.9-5.5 1.9-9 3-11.5 3.4-17.6-0.2-22.9-3.4-2.5-1.4-5-2.9-8.3-4-9-2.7-14.2 0.6-23.3 7.2q-1.3 0.9-2.6 1.8c-10.3 7.3-14.9 6.5-22.5 3.1-1.9-0.8-4.2-1.9-7.2-2.7-7-2-12.2 0-18.8 2.4q-1 0.3-1.9 0.7c0-4-0.1-8-0.1-12 6.7-2.4 14.3-4.7 23.9-2 3.8 1.1 6.6 2.3 8.8 3.3 4.6 2.1 5.1 2.3 11.2-2q1.3-0.9 2.6-1.8c9.1-6.6 18.5-13.4 33.3-8.7 4.6 1.4 7.9 3.4 10.7 5 4.7 2.8 7.1 4.3 13.9 2.2 3.3-1 6.1-1.9 8.6-2.8 7.5-2.5 12.8-4.3 21.3-3.8q0.5 5.8 1.1 11.4z"/><path class="c" d="m1061.1 1513.9c-3.6-0.4-9 0.7-15.8 2.7l-1.7 0.5c-16.4 4.7-31.1 5.8-44.9 3.6-3.5-0.6-6.6-1.3-9.3-1.8-8.5-1.8-14.1-2.9-22.5-0.6l-2.3 0.7c-10.1 2.8-20.4 5.8-31.5 4.8l-1-0.2q0.1-5.6 0.1-11.3c9.6 1.4 18.9-1.2 29.4-4.2l2.2-0.6c11.1-3.2 18.9-1.6 27.9 0.3 2.7 0.6 5.6 1.2 8.8 1.7 12.2 2 25.2 0.9 40-3.3l1.6-0.5c4.6-1.3 11.5-3.3 18.2-3.1q0.4 5.7 0.8 11.3z"/><path class="c" d="m1056.1 1429.3c-3.7 1.2-7.8 3.1-11.5 4.7-7.3 3.2-13.6 6-18.8 6-5.3-0.1-10.1-2.3-14.7-4.3-3.2-1.5-6.3-2.8-9-3.3-7.4-1.2-12.6 0.8-18.8 3.2-4.2 1.6-8.5 3.3-13.8 4.1-8.2 1.3-15.5-1.3-21.3-3.3-7-2.5-10.8-3.9-14.2-0.4q0.1-4.4 0.3-8.8 0-2 0.1-4.1c6.1-1.5 12.3 0.7 17.6 2.6 5.1 1.8 10.4 3.6 15.7 2.8 4.1-0.6 7.7-2 11.5-3.5 6.7-2.6 14.4-5.5 24.8-3.8 4.1 0.7 8 2.5 11.7 4.1 3.7 1.7 7.3 3.3 10.3 3.3 2.7 0.1 8.9-2.7 14-5 5.2-2.3 10.5-4.7 15.5-6 0.1 3.1 0.3 6.1 0.4 9.1 0.1 0.8 0.1 1.7 0.2 2.6z"/><path class="c" d="m1053.5 1360.7c-1.8 0.4-3.9 1.1-6.6 2.2-5.2 1.9-11.1 4.1-17.4 3.1-5.6-1.1-9.6-3.7-13-6-3.7-2.4-6.5-4.3-11.3-4.3-4.5 0-8.1 1-12.1 2-6 1.6-12.2 3.3-20.6 1-2.9-0.8-5.4-1.7-7.6-2.5-4.8-1.8-8-3-14-2-1.1 0.1-2.9 0.8-4.6 1.3-2.7 1-5.7 2.1-8.8 2.4q0.3-5.8 0.7-11.6c1.5-0.4 3.3-1 4.4-1.4 2.1-0.8 4.4-1.6 6.5-1.9 8.9-1.4 14.4 0.6 19.8 2.6 2 0.8 4.1 1.6 6.6 2.2 5.4 1.5 9.5 0.4 14.7-1 4.3-1.2 9.1-2.4 15.1-2.4 8.1 0 13.3 3.4 17.4 6.2 2.9 1.9 5.4 3.6 8.8 4.2 3.2 0.6 7.2-0.9 11.4-2.5 3.1-1.2 6.6-2.5 10.3-3.1q0.1 5.8 0.3 11.5z"/><path class="c" d="m1053.2 1248.6l-1.1-0.4c-2.2 0.3-4.6 3.1-7.1 5.9-3 3.4-6.3 7.3-11.1 9.1-9.4 3.4-27.1-0.4-34.6-3.2-4.1-1.6-7.5-3.2-10.4-4.7-8.9-4.2-12.9-6.2-23.7-1.3q-2.4 1-4.4 2.1c-5.6 2.6-10.2 4.8-16 5.1v-0.1c0.4-3.8 0.8-7.6 1.2-11.4 2.9-0.6 5.8-1.9 10-3.9 1.4-0.7 2.9-1.4 4.6-2.1 15.6-7 23.7-3.1 33.2 1.4 2.9 1.4 5.9 2.9 9.5 4.3 7.7 2.8 21.8 4.9 26.7 3.1 2.1-0.7 4.3-3.3 6.5-5.8 3.6-4.1 8-9.2 14.8-9.9q1.1-0.1 2.3 0.1 0 1.5-0.1 2.9c-0.1 2.9-0.2 5.9-0.3 8.8z"/><path class="c" d="m1058.8 1141.4c-6.4-1.9-14.4-2.4-22.3-2.8-7.9-0.4-16.1-0.9-23.1-2.9-3.2-0.9-5.7-1.7-8-2.5-7.9-2.5-10.6-3.4-22.2-1.6l-0.9 0.1c-5.1 0.8-13.4 2-20.3 0.3q0.9-5.7 1.8-11.4c3.6 1.5 10.1 0.9 16.8-0.1l0.9-0.1c13.6-2.1 18.3-0.9 27.4 2.1 2.1 0.7 4.6 1.5 7.7 2.3 5.7 1.7 12.9 2.1 20.5 2.5 7.7 0.4 15.5 0.8 22.6 2.6q-0.5 5.8-0.9 11.5z"/><path class="c" d="m1069.8 1034.3c-0.4 3.8-0.9 7.6-1.4 11.4-2.5-0.7-4.7-1.6-6.6-2.7-2.4-1.5-4.1-4.1-5.6-6.3-0.4-0.7-1.1-1.6-1.5-2.1-3-0.5-7.2 1.9-11.5 4.5-4.7 2.7-10.1 5.8-15.9 6.4-1.8 0.2-3.5 0.2-5.2 0-7.9-0.8-14.7-4.9-20.9-8.5-9.8-5.9-14.9-8.6-21-3q1.5-7 3-14c8.8-1.7 17.1 3.2 23.8 7.2 6.5 4 12.7 7.6 19.1 7 3.5-0.3 7.5-2.7 11.3-4.9 6.5-3.7 13.7-8 21.7-5.2 3 1 4.8 3.7 6.5 6.3 0.7 1 1.7 2.6 2.2 3 0.6 0.3 1.2 0.6 2 0.9z"/><path class="c" d="m1094.5 888.3q-1.1 5.4-2.3 11c-0.1 0.7-0.3 1.5-0.4 2.2-1.8 0.9-4 1.8-6.6 1.9q-1.9 0.1-3.4 0c-2.4-0.2-3.9-0.9-5.5-1.8-0.6-0.3-1-0.5-1.8-0.7-4.6-1.1-8.2-3.6-11.4-5.8-2.2-1.4-4.2-2.8-6.1-3.4-4-1.4-6.2-0.9-10.6 0.2-2.1 0.6-4.5 1.1-7.4 1.6-8.3 1.2-16.3-0.2-23.3-2.4q1.3-4.7 2.7-9.5l0.4-1.3c5.8 1.8 12.1 2.9 18.6 2 2.3-0.4 4.4-0.9 6.3-1.4 5-1.2 9.8-2.4 16.9 0 3.3 1.2 6.1 3 8.8 4.8 2.7 1.8 5.2 3.5 7.9 4.2 2.1 0.5 3.5 1.3 4.4 1.8 0.9 0.4 1 0.5 2.8 0.4 1.2-0.1 2.6-0.8 4-1.6 1.4-0.8 3.5-1.9 6-2.2z"/><path class="c" d="m1120.5 779q-1.6 5.6-3 11.3c-2.6-2-6.8-1.4-14.6 0.3-5.6 1.2-11.4 2.5-17 1.7-10.9-1.6-13-6.3-14.2-11.5-0.5-1.9-0.8-3.1-2.4-4.7-2.4-2.3-3-2.6-9 2.2-3 2.3-6.5 5.1-10.8 6.1q1.5-4.2 2.9-8.4c1-2.7 2-5.5 3-8.2v-0.1c5.1-3.8 13.1-8.1 21.8 0.3 3.9 3.8 4.9 7.6 5.5 10.1 0.2 0.7 0.4 1.5 0.5 1.8 0 0 0.2 0.1 0.8 0.4 0.7 0.2 1.8 0.5 3.5 0.8 3.6 0.5 8.4-0.6 13-1.5 5.9-1.4 13.5-3 20-0.6z"/><path class="d" d="m937.3 1735.3q0 0 0 0.1 0-0.1 0-0.1zm-0.1-0.6q0 0 0 0 0 0 0 0zm-0.1-0.7q0 0.1 0 0.2 0-0.1 0-0.2zm-0.1-0.5q0 0 0 0.1 0-0.1 0-0.1zm-0.1-0.7q0 0.1 0 0.2 0-0.1 0-0.2zm-0.1-0.5q0 0 0.1 0.1-0.1-0.1-0.1-0.1z"/><path class="e" d="m935.2 1669l-1.6 1.3q0.3 6.9 0.6 13.1c3.5 2.4 7.1 3.8 10.7 4.5q-0.2-6-0.4-11.8c-3.2-1.1-6.2-3.4-9.3-7.1z"/><path class="e" d="m942.3 1587.3c-3.7 0.6-7.1 1.7-10.3 2.9 0 4 0.1 8.1 0.1 12q0.9-0.4 1.9-0.7c3-1.1 5.7-2.1 8.5-2.7q-0.1-5.8-0.2-11.5z"/><path class="e" d="m932.2 1512.3q0 5.7-0.1 11.3l1 0.2q2.4 0.2 4.6 0.2 2.3 0 4.6-0.2 0-5.7 0.1-11.4-2.3 0.3-4.6 0.3-2.8 0-5.6-0.4z"/><path class="e" d="m938.6 1422.6q-2.1 0-4.2 0.5-0.1 2.1-0.1 4.1-0.2 4.4-0.3 8.8c1.4-1.5 3-2.1 4.8-2.1 1.8 0 3.8 0.5 6.3 1.4q0.3-5.8 0.6-11.6c-2.3-0.6-4.7-1.1-7.1-1.1z"/><path class="e" d="m951.1 1342.7q-1 0.1-2 0.3c-2.1 0.3-4.4 1.1-6.5 1.9-1.1 0.4-2.9 1-4.4 1.4q-0.4 5.8-0.7 11.6c3.1-0.3 6.1-1.4 8.8-2.4 1.4-0.4 2.8-1 3.9-1.2q0.5-5.9 0.9-11.6z"/><path class="e" d="m961.1 1243.4q-0.3 0.1-0.5 0.3c-1.7 0.7-3.2 1.4-4.6 2.1-4.2 2-7.1 3.3-10 3.9-0.4 3.8-0.8 7.6-1.2 11.4v0.1c5.3-0.3 9.7-2.2 14.8-4.6q0.7-6.6 1.5-13.2z"/><path class="e" d="m963.8 1120.6q-0.9 5.7-1.8 11.4c2.6 0.6 5.3 0.9 8.1 0.9q1.6 0 3.1-0.1c0.5-3.9 1-7.7 1.5-11.5q-2.5 0.2-4.8 0.2c-2.4 0-4.5-0.2-6.1-0.9z"/><path class="e" d="m986.9 1019.6q-1.8 0-3.7 0.4-1.5 7-3 14c2.3-2.1 4.5-3.1 6.9-3.1q0.3 0 0.7 0.1 0.9-5.6 1.8-11.2-1.3-0.2-2.7-0.2z"/><path class="f" d="m1095.7 662.6q-3.4 8.2-6.8 16.8 3.4-8.6 6.8-16.8z"/><path class="g" d="m1081.1 1710.1q0.3 1.9 0.3 1.9 0.7 4.9 0.7 9.8 0-4.9-0.7-9.8 0 0-0.3-1.9z"/><path class="h" d="m1074.7 1661c-4.8 4-10.7 4.3-19.5 4.4q-2.6 0-5.4 0.1 0.6 5.8 1 11.3 2.3-0.1 4.6-0.1c6.7 0 14.1-0.1 20.9-3.4q-0.2-0.9-0.3-1.8-0.6-5-1.3-10.5z"/><path class="h" d="m1063.7 1579.5c-7 0-12 1.7-18.7 3.9q-2 0.7-4.3 1.4 0.6 5.8 1.3 11.5c2.5-0.7 4.6-1.5 6.6-2.2 6.1-2 9.9-3.3 15.2-3.3q1.7 0 3.6 0.2-0.6-5.6-1.1-11.4-1.4-0.1-2.6-0.1z"/><path class="h" d="m1059.3 1502.6c-6.3 0-12.9 1.9-17.2 3.1l-1.6 0.5q-2 0.6-4 1.1 0.2 5.7 0.3 11.5 3.3-0.7 6.8-1.7l1.7-0.5c5.7-1.7 10.5-2.8 14-2.8q1 0 1.8 0.1-0.4-5.6-0.8-11.3-0.5 0-1 0z"/><path class="h" d="m1055.5 1417.6c-5 1.3-10.3 3.7-15.5 6-1.7 0.8-3.5 1.6-5.3 2.4q0.1 6 0.2 12c3-1 6.2-2.5 9.7-4 3.7-1.6 7.8-3.5 11.5-4.7-0.1-0.9-0.1-1.8-0.2-2.6-0.1-3-0.3-6-0.4-9.1z"/><path class="h" d="m1053.2 1349.3c-3.7 0.5-7.2 1.8-10.3 3-3.3 1.2-6.4 2.4-9.1 2.6q0 5.7 0 11.3c4.7-0.2 9.1-1.8 13.1-3.3 2.7-1.1 4.8-1.8 6.6-2.2q-0.2-5.7-0.3-11.4z"/><path class="h" d="m1052.2 1236.8q-0.5 0-0.9 0c-6.8 0.7-11.2 5.8-14.8 9.9q-0.2 0.2-0.3 0.4-0.4 7.7-0.8 15.4c4-1.9 7-5.3 9.6-8.4 2.5-2.8 4.9-5.6 7.1-5.9l1.1 0.4c0.1-2.9 0.2-5.9 0.3-8.8q0.1-1.4 0.1-2.9-0.7-0.1-1.4-0.1z"/><path class="h" d="m1046.7 1127.9q-0.6 5.7-1.2 11.3c4.7 0.4 9.3 1 13.3 2.2q0.4-5.7 0.9-11.5c-4.1-1-8.5-1.6-13-2z"/><path class="h" d="m1057.7 1023.6q-0.6 6.8-1.3 13.4c1.4 2.2 3.1 4.6 5.4 6 1.9 1.1 4.1 2 6.6 2.7 0.5-3.8 1-7.6 1.4-11.4-0.8-0.3-1.4-0.6-2-0.9-0.5-0.4-1.5-2-2.2-3-1.7-2.6-3.5-5.3-6.5-6.3q-0.7-0.3-1.4-0.5z"/><path class="h" d="m1070 886.1q-0.6 6.3-1.1 12.6c1.7 0.9 3.6 1.7 5.6 2.2 0.8 0.2 1.2 0.4 1.8 0.7 1.6 0.9 3.1 1.6 5.5 1.8q0.8 0.1 1.6 0.1 0.9 0 1.8-0.1c2.6-0.2 4.8-1 6.6-1.9 0.1-0.7 0.3-1.5 0.4-2.2q1.2-5.6 2.3-11c-2.5 0.3-4.6 1.4-6 2.2-1.4 0.8-2.8 1.5-4 1.6q-0.6 0.1-1 0.1c-0.9 0-1.1-0.2-1.8-0.5-0.9-0.5-2.3-1.3-4.4-1.8-2.5-0.6-4.8-2.1-7.3-3.8z"/><path class="h" d="m1112.9 777.8c-4.3 0-8.7 0.9-12.4 1.8-3.8 0.8-7.7 1.6-10.9 1.6q-1.1 0-2.1-0.1c-1.7-0.3-2.8-0.6-3.5-0.8-0.6-0.3-0.8-0.4-0.8-0.4-0.1-0.3-0.3-1.1-0.5-1.8q0 0 0 0-0.4 2.1-0.7 4.2-0.6 4.4-1.2 8.8 2.1 0.7 5.1 1.2 1.9 0.2 3.7 0.2c4.5 0 8.9-0.9 13.3-1.9 4.3-0.9 7.6-1.5 10-1.5 2 0 3.5 0.3 4.6 1.2q1.4-5.7 3-11.3c-2.4-0.9-5-1.2-7.6-1.2z"/><path class="i" d="m1190.1 484.7q0 0 0 0 0 0 0 0 0 0 0 0z"/><path class="j" d="m1190.1 484.7q0 0 0 0.1 0.7 1.7 1.2 3.4-0.5-1.7-1.2-3.5z"/><path class="k" d="m1204 487.6q-6.9 0-12.7 0.6 5.8-0.6 12.7-0.6 3.3 0 6.9 0.2-3.6-0.2-6.9-0.2z"/><path class="l" d="m1191.3 488.2q0 0 0 0z"/><path class="k" d="m1191.3 488.2c-6.5 0.7-11.7 2-15.7 3.7 4-1.7 9.2-3 15.7-3.7z"/><path fill-rule="evenodd" class="m" d="m1192.8 516.3q0 0.1 0 0.2 0-0.1 0-0.2zm-2.4-10.8q0 0 0 0c1.9 2.4 3 4.7 3.2 6.8-0.2-2.1-1.3-4.4-3.2-6.8zm2.2 11.2q0 0 0 0 0 0 0 0zm0.1-0.2q0 0 0 0.1 0-0.1 0-0.1zm0.2-0.3q0 0-0.1 0.1 0.1-0.1 0.1-0.1zm0.1-0.2q0 0.1-0.1 0.1 0.1 0 0.1-0.1zm0.6-3.7q0 0.1 0 0.2 0-0.1 0-0.2zm-19.9-19.5z"/><path class="n" d="m1173.7 492.8c7.8 4.3 13.5 8.7 16.7 12.7q0 0 0 0c-3.2-4-8.9-8.4-16.7-12.7z"/></svg>