<svg version="1.2" xmlns="http://www.w3.org/2000/svg" viewBox="0 0 40 40" width="40" height="40"><style>.a{fill:#ffd526}.b{fill:#ffe750}.c{fill:#efc940}.d{fill:#da9c13}.e{opacity:.4;fill:#fff391}.f{opacity:.2;fill:#fff391}.g{fill:#fff391}</style><path class="a" d="m32.1 24q0.3 0.2 0.6 0.5 0.3 0.3 0.3 0.5c0 1.5-6.8 2.6-15.3 2.6-8.4 0-15.2-1.1-15.2-2.6q0-0.2 0.2-0.5 0.1 0 0.1 0 0-0.1 0-0.1 0.1 0 0.1 0 0 0 0-0.1 0.1 0 0.1 0 0 0 0 0 0-0.1 0.1-0.1 0 0 0-0.1 0.1 0 0.1 0 0 0 0 0c0.1-0.1 0.1-0.2 0.1-0.2q-0.2 0.3-0.2 0.5c0 1.4 6.6 2.5 14.6 2.6 8.1 0 14.7-1.2 14.7-2.6q0-0.2-0.3-0.4z"/><path class="b" d="m32.4 24.4q0 0.2-0.2 0.4c-1 1.2-7.1 2.2-14.5 2.2-2.1-0.1-4.1-0.1-5.9-0.3-2.8-0.2-5.1-0.5-6.7-1q-1.3-0.4-1.8-0.8-0.2-0.3-0.2-0.5 0-0.3 0.3-0.5c1.4-1.2 7.3-2 14.3-2q2.8 0 5.2 0.1c1.8 0.1 3.4 0.3 4.8 0.5q1.9 0.4 3.1 0.8c1 0.3 1.6 0.7 1.6 1.1z"/><path class="c" d="m17.7 26.6q-3.1 0-5.8-0.2c-2.8-0.2-5.1-0.6-6.7-1-1-0.3-1.4-0.6-1.6-0.8-0.1 0-0.2-0.1-0.2-0.2q0-0.1 0.2-0.3c0.6-0.5 2.4-1 4.9-1.3 2.6-0.4 5.9-0.6 9.2-0.6q2.7 0 5.2 0.2 2.6 0.1 4.7 0.5 1.9 0.3 3.1 0.7c1.3 0.4 1.4 0.8 1.4 0.8q-0.1 0.1-0.1 0.2c-0.9 1-6.4 2-14.2 2z"/><path class="a" d="m32.7 28.1q-0.3 0.2-0.6 0.5c-1.2 1.2-7.2 2.1-14.4 2.1-7.1 0-13.1-0.9-14.4-2.1q0 0 0 0 0-0.1 0-0.1-0.1 0-0.1 0 0 0 0-0.1-0.1 0-0.1 0 0 0 0 0-0.1-0.1-0.1-0.1-0.1-0.1-0.3-0.3c1.3 1.3 7.6 2.2 15 2.2 7.5 0 13.7-0.9 15-2.1z"/><path class="d" d="m33 25v2.6c0 0.6-1.3 1.2-3.4 1.6-1.6 0.4-3.8 0.7-6.2 0.8-1.8 0.2-3.7 0.2-5.7 0.2q-1.7 0-3.4 0-0.5-0.1-0.9-0.1c-1.8-0.1-3.4-0.2-4.8-0.4-2-0.3-3.5-0.6-4.6-1-0.9-0.3-1.5-0.7-1.5-1.1v-2.6c0 0.4 0.6 0.9 1.8 1.2 1 0.4 2.6 0.7 4.4 0.9 1.7 0.2 3.6 0.4 5.7 0.5q0.3 0 0.6 0 1.3 0 2.7 0c2 0 3.9 0 5.7-0.1 2.6-0.2 4.8-0.5 6.4-0.9 2-0.4 3.2-1 3.2-1.6z"/><path class="c" d="m2.5 25.2v2.6q0.1 0.2 0.4 0.3v-2.5q-0.3-0.2-0.4-0.4z"/><path class="c" d="m3.8 26.1v2.5q0.1 0.1 0.3 0.1v-2.5q-0.2-0.1-0.3-0.1z"/><path class="c" d="m5 26.5v2.5q0.2 0.1 0.3 0.1v-2.6q-0.1 0-0.3 0z"/><path class="c" d="m6.2 26.7v2.6q0.2 0 0.3 0.1v-2.6q-0.1 0-0.3-0.1z"/><path class="c" d="m7.5 27v2.5q0.1 0 0.3 0.1v-2.6q-0.2 0-0.3 0z"/><path class="c" d="m8.7 27.1v2.6q0.1 0 0.3 0v-2.5q-0.2-0.1-0.3-0.1z"/><path class="c" d="m9.9 27.3v2.5q0.2 0.1 0.3 0.1v-2.6q-0.1 0-0.3 0z"/><path class="c" d="m11.1 27.4v2.6q0.2 0 0.3 0v-2.6q-0.1 0-0.3 0z"/><path class="c" d="m12.4 27.5v2.5q0.1 0.1 0.3 0.1v-2.6q-0.2 0-0.3 0z"/><path class="c" d="m13.6 27.5v2.6q0.2 0 0.3 0v-2.5q-0.1 0-0.3-0.1z"/><path class="c" d="m14.8 27.6v2.6q0.2 0 0.3 0v-2.6q-0.1 0-0.3 0z"/><path class="c" d="m16.1 27.6v2.6q0.1 0 0.3 0v-2.6q-0.2 0-0.3 0z"/><path class="c" d="m17.3 27.6v2.6q0.1 0 0.3 0v-2.6q-0.2 0-0.3 0z"/><path class="c" d="m18.5 27.6v2.6q0.2 0 0.3 0v-2.6q-0.1 0-0.3 0z"/><path class="c" d="m19.7 27.6v2.6q0.2 0 0.3 0v-2.6q-0.1 0-0.3 0z"/><path class="c" d="m21 27.6v2.6q0.1 0 0.3-0.1v-2.5q-0.2 0-0.3 0z"/><path class="c" d="m22.2 27.5v2.6q0.1 0 0.3 0v-2.6q-0.2 0-0.3 0z"/><path class="c" d="m23.4 27.5v2.5q0.2 0 0.3 0v-2.6q-0.1 0-0.3 0.1z"/><path class="c" d="m24.7 27.4v2.5q0.1 0 0.3 0v-2.6q-0.2 0-0.3 0.1z"/><path class="c" d="m25.9 27.2v2.6q0.1 0 0.3 0v-2.6q-0.2 0-0.3 0z"/><path class="c" d="m27.1 27.1v2.6q0.2-0.1 0.3-0.1v-2.6q-0.1 0.1-0.3 0.1z"/><path class="c" d="m28.3 26.9v2.6q0.2 0 0.3-0.1v-2.5q-0.1 0-0.3 0z"/><path class="c" d="m29.6 26.7v2.5q0.1 0 0.3 0v-2.6q-0.2 0-0.3 0.1z"/><path class="c" d="m30.8 26.4v2.5q0.2 0 0.3 0v-2.6q-0.1 0-0.3 0.1z"/><path class="c" d="m32 25.9v2.6q0.2-0.1 0.3-0.2v-2.5q-0.1 0.1-0.3 0.1z"/><path class="e" d="m27.7 22.5l-24.4 2.4q-0.2-0.3-0.2-0.5 0-0.3 0.3-0.5l19.5-1.9c1.8 0.1 3.4 0.3 4.8 0.5z"/><path class="e" d="m32.4 24.4q0 0.2-0.2 0.4l-20.4 1.9c-2.8-0.2-5.1-0.5-6.7-1l25.7-2.4c1 0.3 1.6 0.7 1.6 1.1z"/><path class="f" d="m23.3 28.7q0 0.7 0.1 1.3c-1.8 0.2-3.7 0.2-5.7 0.2q-1.7 0-3.4 0c0.3-0.9 0.3-1.8 0.1-2.6q0.3 0 0.6 0 1.3 0 2.7 0c2 0 3.9 0 5.7-0.1-0.1 0.4-0.1 0.8-0.1 1.2z"/><path class="f" d="m8.6 29.7c-2-0.3-3.5-0.6-4.6-1 0.2-0.5 0.2-1 0.3-1.1q0-0.7 0-1.3 0 0 0-0.1c1 0.4 2.6 0.7 4.4 0.9-0.3 0.8-0.3 1.7-0.1 2.6z"/><path class="f" d="m33 25v2.6c0 0.6-1.3 1.2-3.4 1.6q0.2-0.5 0.2-1.1 0.1-0.8 0-1.5c2-0.4 3.2-1 3.2-1.6z"/><path class="a" d="m35.3 20.9q0.3 0.3 0.6 0.6 0.3 0.2 0.3 0.4c0 1.5-6.9 2.7-15.3 2.7-8.4 0-15.2-1.2-15.2-2.7q0-0.2 0.2-0.5 0.1 0 0.1 0 0 0 0 0 0-0.1 0.1-0.1 0 0 0 0 0-0.1 0.1-0.1 0 0 0 0 0 0 0.1-0.1 0 0 0 0 0 0 0-0.1 0.1 0 0.1 0c0.1-0.1 0.1-0.1 0.1-0.1q-0.2 0.2-0.2 0.4c0 1.4 6.5 2.6 14.6 2.6 8.1 0 14.7-1.2 14.7-2.6q0-0.2-0.3-0.4z"/><path class="b" d="m35.6 21.3q0 0.2-0.2 0.4c-1.1 1.2-7.1 2.2-14.5 2.2-2.1 0-4.1-0.1-5.9-0.2-2.8-0.3-5.1-0.6-6.7-1.1q-1.3-0.4-1.8-0.8-0.2-0.2-0.2-0.5 0-0.2 0.3-0.5c1.4-1.1 7.3-2 14.3-2q2.7 0 5.2 0.2c1.8 0.1 3.4 0.3 4.8 0.5q1.9 0.3 3.1 0.7c1 0.3 1.6 0.7 1.6 1.1z"/><path class="c" d="m20.9 23.6q-3.1 0-5.9-0.3c-2.7-0.2-5.1-0.5-6.6-1-1-0.3-1.5-0.6-1.7-0.7 0-0.1-0.1-0.2-0.1-0.3q0-0.1 0.2-0.2c0.6-0.6 2.4-1.1 4.9-1.4 2.6-0.4 5.8-0.6 9.2-0.6q2.7 0 5.1 0.2 2.7 0.2 4.8 0.5 1.9 0.3 3.1 0.7c1.3 0.4 1.3 0.8 1.3 0.8q0 0.1-0.1 0.2c-0.8 1-6.4 2.1-14.2 2.1z"/><path class="a" d="m35.9 25q-0.3 0.3-0.6 0.6c-1.2 1.1-7.2 2-14.4 2-7.2 0-13.1-0.9-14.4-2.1q0 0 0 0-0.1 0-0.1 0 0-0.1 0-0.1 0 0-0.1 0 0-0.1 0-0.1 0 0 0 0-0.1 0-0.1-0.1-0.1-0.1-0.3-0.2c1.3 1.2 7.5 2.1 15 2.1 7.5 0 13.7-0.9 15-2.1z"/><path class="d" d="m36.2 21.9v2.6c0 0.6-1.3 1.2-3.4 1.7-1.7 0.3-3.8 0.6-6.3 0.8-1.7 0.1-3.6 0.1-5.6 0.1q-1.8 0-3.4 0-0.5 0-1-0.1c-1.7-0.1-3.3-0.2-4.8-0.4-1.9-0.2-3.4-0.6-4.5-0.9-1-0.4-1.5-0.8-1.5-1.2v-2.6c0 0.5 0.6 0.9 1.7 1.3 1.1 0.3 2.6 0.6 4.5 0.9 1.6 0.2 3.6 0.3 5.6 0.4q0.4 0 0.7 0 1.3 0.1 2.7 0.1c2 0 3.9-0.1 5.7-0.2 2.5-0.2 4.8-0.5 6.4-0.9 2-0.4 3.2-1 3.2-1.6z"/><path class="c" d="m5.7 22.1v2.6q0.1 0.2 0.3 0.4v-2.6q-0.2-0.2-0.3-0.4z"/><path class="c" d="m6.9 23v2.6q0.2 0 0.4 0.1v-2.6q-0.2-0.1-0.4-0.1z"/><path class="c" d="m8.2 23.4v2.6q0.1 0 0.3 0v-2.5q-0.2-0.1-0.3-0.1z"/><path class="c" d="m9.4 23.7v2.5q0.2 0.1 0.3 0.1v-2.6q-0.1 0-0.3 0z"/><path class="c" d="m10.6 23.9v2.6q0.2 0 0.3 0v-2.6q-0.1 0-0.3 0z"/><path class="c" d="m11.9 24.1v2.5q0.1 0 0.3 0.1v-2.6q-0.2 0-0.3 0z"/><path class="c" d="m13.1 24.2v2.6q0.1 0 0.3 0v-2.6q-0.2 0-0.3 0z"/><path class="c" d="m14.3 24.3v2.6q0.2 0 0.3 0v-2.6q-0.1 0-0.3 0z"/><path class="c" d="m15.5 24.4v2.6q0.2 0 0.4 0v-2.6q-0.2 0-0.4 0z"/><path class="c" d="m16.8 24.5v2.5q0.1 0.1 0.3 0.1v-2.6q-0.2 0-0.3 0z"/><path class="c" d="m18 24.5v2.6q0.2 0 0.3 0v-2.6q-0.1 0-0.3 0z"/><path class="c" d="m19.2 24.6v2.5q0.2 0 0.3 0v-2.5q-0.1 0-0.3 0z"/><path class="c" d="m20.5 24.6v2.5q0.1 0 0.3 0v-2.5q-0.2 0-0.3 0z"/><path class="c" d="m21.7 24.6v2.5q0.1 0 0.3 0v-2.5q-0.2 0-0.3 0z"/><path class="c" d="m22.9 24.6v2.5q0.2 0 0.3 0v-2.6q-0.1 0-0.3 0.1z"/><path class="c" d="m24.1 24.5v2.6q0.2 0 0.3 0v-2.6q-0.1 0-0.3 0z"/><path class="c" d="m25.4 24.5v2.5q0.1 0 0.3 0v-2.6q-0.2 0.1-0.3 0.1z"/><path class="c" d="m26.6 24.4v2.6q0.2-0.1 0.3-0.1v-2.5q-0.1 0-0.3 0z"/><path class="c" d="m27.8 24.3v2.6q0.2-0.1 0.3-0.1v-2.5q-0.1 0-0.3 0z"/><path class="c" d="m29.1 24.2v2.5q0.1 0 0.3 0v-2.6q-0.2 0.1-0.3 0.1z"/><path class="c" d="m30.3 24v2.6q0.1 0 0.3-0.1v-2.5q-0.2 0-0.3 0z"/><path class="c" d="m31.5 23.8v2.6q0.2 0 0.3 0v-2.6q-0.1 0-0.3 0z"/><path class="c" d="m32.7 23.6v2.6q0.2-0.1 0.3-0.1v-2.6q-0.1 0.1-0.3 0.1z"/><path class="c" d="m34 23.3v2.6q0.1-0.1 0.3-0.1v-2.6q-0.2 0.1-0.3 0.1z"/><path class="c" d="m35.2 22.9v2.5q0.2 0 0.3-0.1v-2.6q-0.1 0.1-0.3 0.2z"/><path class="e" d="m30.9 19.5l-24.4 2.3q-0.2-0.2-0.2-0.5 0-0.2 0.3-0.5l19.5-1.8c1.8 0.1 3.4 0.3 4.8 0.5z"/><path class="e" d="m35.6 21.3q0 0.2-0.2 0.4l-20.4 2c-2.8-0.3-5.1-0.6-6.7-1.1l25.7-2.4c1 0.3 1.6 0.7 1.6 1.1z"/><path class="g" d="m35.5 22.2l2 0.7-1.9-1 1.2-0.7-1.3 0.3 0.4-1.1-0.7 1-0.9-1.8 0.5 2-1.2-0.4 1.1 0.6-1.8 0.9 2-0.5-0.5 1.2 0.7-1.1 0.8 1.4z"/><path class="f" d="m26.5 25.7q0 0.6 0 1.3c-1.7 0.1-3.6 0.1-5.6 0.1q-1.8 0-3.4 0c0.3-0.8 0.3-1.8 0-2.6q0.4 0 0.7 0 1.3 0.1 2.7 0.1c2 0 3.9-0.1 5.7-0.2-0.1 0.4-0.1 0.8-0.1 1.3z"/><path class="f" d="m11.7 26.6c-1.9-0.2-3.4-0.6-4.5-0.9 0.1-0.5 0.2-1 0.2-1.2q0.1-0.6 0-1.3 0 0 0 0c1.1 0.3 2.6 0.6 4.5 0.9-0.3 0.8-0.4 1.7-0.2 2.5z"/><path class="f" d="m36.2 21.9v2.6c0 0.6-1.3 1.2-3.4 1.7q0.1-0.6 0.2-1.2 0.1-0.7 0-1.5c2-0.4 3.2-1 3.2-1.6z"/><path class="a" d="m34.4 16.5q0.3 0.3 0.6 0.5 0.2 0.3 0.2 0.5c0 1.5-6.8 2.7-15.2 2.7-8.4 0-15.2-1.2-15.2-2.7q0-0.2 0.2-0.5 0 0 0.1 0 0 0 0 0 0-0.1 0.1-0.1 0 0 0 0 0-0.1 0-0.1 0.1 0 0.1 0 0 0 0-0.1 0.1 0 0.1 0 0 0 0-0.1 0.1 0 0.1 0c0.1-0.1 0.1-0.1 0.1-0.1q-0.2 0.2-0.2 0.4c0 1.4 6.5 2.6 14.6 2.6 8.1 0 14.6-1.2 14.6-2.6q0-0.2-0.2-0.4z"/><path class="b" d="m34.6 16.9q0 0.2-0.1 0.4c-1.1 1.2-7.2 2.2-14.5 2.2-2.1 0-4.1-0.1-5.9-0.2-2.8-0.3-5.2-0.6-6.7-1.1q-1.3-0.4-1.8-0.8-0.2-0.2-0.2-0.5 0-0.2 0.3-0.5c1.4-1.1 7.2-2 14.3-2q2.7 0 5.1 0.2c1.8 0.1 3.5 0.2 4.8 0.5q1.9 0.3 3.1 0.7c1.1 0.3 1.6 0.7 1.6 1.1z"/><path class="c" d="m20 19.2q-3.1-0.1-5.9-0.3c-2.7-0.2-5.1-0.5-6.6-1-1-0.3-1.5-0.6-1.7-0.7 0-0.1-0.1-0.2-0.1-0.3q0-0.1 0.2-0.2c0.6-0.6 2.4-1.1 4.8-1.4 2.6-0.4 5.9-0.6 9.3-0.6q2.7 0 5.1 0.2 2.7 0.2 4.8 0.5 1.9 0.3 3 0.7c1.4 0.4 1.4 0.8 1.4 0.8q0 0.1-0.1 0.2c-0.8 1-6.4 2.1-14.2 2.1z"/><path class="a" d="m35 20.6q-0.3 0.3-0.6 0.5c-1.3 1.2-7.2 2.1-14.4 2.1-7.2 0-13.2-0.9-14.4-2.1q0 0-0.1 0 0 0 0 0 0-0.1-0.1-0.1 0 0 0 0 0-0.1 0-0.1-0.1 0-0.1 0 0 0 0-0.1-0.2-0.1-0.3-0.2c1.3 1.2 7.5 2.1 15 2.1 7.5 0 13.7-0.9 15-2.1z"/><path class="d" d="m35.2 17.5v2.6c0 0.6-1.2 1.2-3.3 1.7-1.7 0.3-3.8 0.6-6.3 0.8-1.7 0.1-3.6 0.1-5.6 0.1q-1.8 0-3.4 0-0.5 0-1-0.1c-1.7-0.1-3.4-0.2-4.8-0.4-1.9-0.2-3.5-0.6-4.5-0.9-1-0.4-1.5-0.8-1.5-1.2v-2.6c0 0.5 0.6 0.9 1.7 1.3 1.1 0.3 2.6 0.6 4.5 0.9 1.6 0.2 3.5 0.3 5.6 0.4q0.3 0 0.7 0 1.3 0.1 2.7 0.1c2 0 3.9-0.1 5.6-0.2 2.6-0.2 4.8-0.5 6.5-0.9 2-0.4 3.1-1 3.1-1.6z"/><path class="c" d="m4.8 17.7v2.6q0.1 0.2 0.3 0.4v-2.6q-0.2-0.2-0.3-0.4z"/><path class="c" d="m6 18.6v2.6q0.2 0 0.3 0.1v-2.6q-0.1-0.1-0.3-0.1z"/><path class="c" d="m7.3 19v2.5q0.1 0.1 0.3 0.1v-2.5q-0.2-0.1-0.3-0.1z"/><path class="c" d="m8.5 19.3v2.5q0.1 0.1 0.3 0.1v-2.6q-0.2 0-0.3 0z"/><path class="c" d="m9.7 19.5v2.5q0.2 0.1 0.3 0.1v-2.6q-0.1 0-0.3 0z"/><path class="c" d="m10.9 19.7v2.5q0.2 0 0.3 0.1v-2.6q-0.1 0-0.3 0z"/><path class="c" d="m12.2 19.8v2.6q0.1 0 0.3 0v-2.6q-0.2 0-0.3 0z"/><path class="c" d="m13.4 19.9v2.6q0.1 0 0.3 0v-2.6q-0.2 0-0.3 0z"/><path class="c" d="m14.6 20v2.6q0.2 0 0.3 0v-2.6q-0.1 0-0.3 0z"/><path class="c" d="m15.9 20.1v2.5q0.1 0.1 0.3 0.1v-2.6q-0.2 0-0.3 0z"/><path class="c" d="m17.1 20.1v2.6q0.1 0 0.3 0v-2.6q-0.2 0-0.3 0z"/><path class="c" d="m18.3 20.2v2.5q0.2 0 0.3 0v-2.5q-0.1 0-0.3 0z"/><path class="c" d="m19.5 20.2v2.5q0.2 0 0.3 0v-2.5q-0.1 0-0.3 0z"/><path class="c" d="m20.8 20.2v2.5q0.1 0 0.3 0v-2.5q-0.2 0-0.3 0z"/><path class="c" d="m22 20.1v2.6q0.1 0 0.3 0v-2.6q-0.2 0-0.3 0z"/><path class="c" d="m23.2 20.1v2.6q0.2 0 0.3 0v-2.6q-0.1 0-0.3 0z"/><path class="c" d="m24.4 20.1v2.5q0.2 0 0.4 0v-2.6q-0.2 0-0.4 0.1z"/><path class="c" d="m25.7 20v2.6q0.1-0.1 0.3-0.1v-2.5q-0.2 0-0.3 0z"/><path class="c" d="m26.9 19.9v2.6q0.2-0.1 0.3-0.1v-2.5q-0.1 0-0.3 0z"/><path class="c" d="m28.1 19.8v2.5q0.2 0 0.3 0v-2.6q-0.1 0-0.3 0.1z"/><path class="c" d="m29.4 19.6v2.6q0.1 0 0.3-0.1v-2.5q-0.2 0-0.3 0z"/><path class="c" d="m30.6 19.4v2.6q0.1 0 0.3-0.1v-2.5q-0.2 0-0.3 0z"/><path class="c" d="m31.8 19.2v2.6q0.2-0.1 0.3-0.1v-2.6q-0.1 0.1-0.3 0.1z"/><path class="c" d="m33 18.9v2.6q0.2-0.1 0.4-0.1v-2.6q-0.2 0-0.4 0.1z"/><path class="c" d="m34.3 18.5v2.5q0.1 0 0.3-0.1v-2.6q-0.2 0.1-0.3 0.2z"/><path class="e" d="m29.9 15.1l-24.3 2.3q-0.2-0.2-0.2-0.5 0-0.2 0.3-0.5l19.4-1.8c1.8 0.1 3.5 0.2 4.8 0.5z"/><path class="e" d="m34.6 16.9q0 0.2-0.1 0.4l-20.4 2c-2.8-0.3-5.2-0.6-6.7-1.1l25.6-2.4c1.1 0.3 1.6 0.7 1.6 1.1z"/><path class="f" d="m25.5 21.2q0 0.7 0.1 1.4c-1.7 0.1-3.6 0.1-5.6 0.1q-1.8 0-3.4 0c0.2-0.8 0.3-1.8 0-2.6q0.3 0 0.7 0 1.3 0.1 2.7 0.1c2 0 3.9-0.1 5.6-0.2-0.1 0.4-0.1 0.8-0.1 1.2z"/><path class="f" d="m10.8 22.2c-1.9-0.2-3.5-0.6-4.5-0.9 0.1-0.6 0.2-1 0.2-1.2q0.1-0.6 0-1.3 0 0 0 0c1.1 0.3 2.6 0.6 4.5 0.9-0.3 0.8-0.4 1.7-0.2 2.5z"/><path class="f" d="m35.2 17.5v2.6c0 0.6-1.2 1.2-3.3 1.7q0.1-0.6 0.2-1.2 0.1-0.7 0-1.5c2-0.4 3.1-1 3.1-1.6z"/><path class="a" d="m35.6 12.4q0.3 0.3 0.6 0.6 0.3 0.2 0.3 0.4c0 1.5-6.9 2.7-15.3 2.7-8.4 0-15.2-1.2-15.2-2.7q0-0.2 0.2-0.5 0.1 0 0.1 0 0 0 0 0 0-0.1 0.1-0.1 0 0 0 0 0-0.1 0.1-0.1 0 0 0 0 0 0 0.1-0.1 0 0 0 0 0 0 0-0.1 0.1 0 0.1 0c0.1-0.1 0.1-0.1 0.1-0.1q-0.2 0.2-0.2 0.4c0 1.4 6.5 2.6 14.6 2.6 8.1 0 14.7-1.2 14.7-2.6q0-0.2-0.3-0.4z"/><path class="b" d="m35.9 12.8q0 0.2-0.2 0.4c-1.1 1.2-7.1 2.2-14.5 2.2-2.1 0-4.1-0.1-5.9-0.2-2.8-0.3-5.1-0.6-6.7-1.1q-1.3-0.4-1.8-0.8-0.2-0.2-0.2-0.5 0-0.2 0.3-0.5c1.4-1.1 7.3-2 14.3-2q2.8 0 5.2 0.2c1.8 0.1 3.4 0.3 4.8 0.5q1.9 0.3 3.1 0.7c1 0.3 1.6 0.7 1.6 1.1z"/><path class="c" d="m21.2 15.1q-3.1 0-5.9-0.3c-2.7-0.2-5.1-0.5-6.6-1-1-0.3-1.5-0.6-1.6-0.7-0.1-0.1-0.2-0.2-0.2-0.3q0-0.1 0.2-0.2c0.6-0.6 2.4-1.1 4.9-1.4 2.6-0.4 5.8-0.6 9.2-0.6q2.7 0 5.1 0.2 2.7 0.2 4.8 0.5 1.9 0.3 3.1 0.7c1.3 0.4 1.3 0.8 1.3 0.8q0 0.1 0 0.2c-0.9 1-6.5 2.1-14.3 2.1z"/><path class="a" d="m36.2 16.5q-0.3 0.3-0.6 0.6c-1.2 1.1-7.2 2-14.4 2-7.2 0-13.1-0.9-14.4-2.1q0 0 0 0 0 0-0.1 0 0-0.1 0-0.1 0 0-0.1 0 0-0.1 0-0.1 0 0 0 0-0.1 0-0.1-0.1-0.1-0.1-0.3-0.2c1.3 1.2 7.5 2.1 15 2.1 7.5 0 13.7-0.9 15-2.1z"/><path class="d" d="m36.5 13.4v2.6c0 0.6-1.3 1.2-3.4 1.7-1.6 0.3-3.8 0.6-6.3 0.8-1.7 0.1-3.6 0.1-5.6 0.1q-1.8 0-3.4 0-0.5 0-1-0.1c-1.7-0.1-3.3-0.2-4.8-0.4-1.9-0.2-3.4-0.6-4.5-0.9-1-0.4-1.5-0.8-1.5-1.2v-2.6c0 0.5 0.6 0.9 1.7 1.3 1.1 0.3 2.6 0.6 4.5 0.9 1.7 0.2 3.6 0.3 5.6 0.4q0.4 0 0.7 0 1.3 0.1 2.7 0.1c2 0 3.9-0.1 5.7-0.2 2.5-0.2 4.8-0.5 6.4-0.9 2-0.4 3.2-1 3.2-1.6z"/><path class="c" d="m6 13.6v2.6q0.1 0.2 0.3 0.4v-2.6q-0.2-0.2-0.3-0.4z"/><path class="c" d="m7.3 14.5v2.6q0.1 0 0.3 0.1v-2.6q-0.2-0.1-0.3-0.1z"/><path class="c" d="m8.5 14.9v2.6q0.1 0 0.3 0v-2.5q-0.2-0.1-0.3-0.1z"/><path class="c" d="m9.7 15.2v2.5q0.2 0.1 0.3 0.1v-2.6q-0.1 0-0.3 0z"/><path class="c" d="m10.9 15.4v2.6q0.2 0 0.3 0v-2.6q-0.1 0-0.3 0z"/><path class="c" d="m12.2 15.6v2.5q0.1 0 0.3 0.1v-2.6q-0.2 0-0.3 0z"/><path class="c" d="m13.4 15.7v2.6q0.1 0 0.3 0v-2.6q-0.2 0-0.3 0z"/><path class="c" d="m14.6 15.8v2.6q0.2 0 0.3 0v-2.6q-0.1 0-0.3 0z"/><path class="c" d="m15.9 15.9v2.6q0.1 0 0.3 0v-2.6q-0.2 0-0.3 0z"/><path class="c" d="m17.1 16v2.5q0.1 0.1 0.3 0.1v-2.6q-0.2 0-0.3 0z"/><path class="c" d="m18.3 16v2.6q0.2 0 0.3 0v-2.6q-0.1 0-0.3 0z"/><path class="c" d="m19.5 16.1v2.5q0.2 0 0.3 0v-2.5q-0.1 0-0.3 0z"/><path class="c" d="m20.8 16.1v2.5q0.1 0 0.3 0v-2.5q-0.2 0-0.3 0z"/><path class="c" d="m22 16.1v2.5q0.1 0 0.3 0v-2.5q-0.2 0-0.3 0z"/><path class="c" d="m23.2 16.1v2.5q0.2 0 0.3 0v-2.6q-0.1 0-0.3 0.1z"/><path class="c" d="m24.4 16v2.6q0.2 0 0.4 0v-2.6q-0.2 0-0.4 0z"/><path class="c" d="m25.7 16v2.5q0.1 0 0.3 0v-2.6q-0.2 0.1-0.3 0.1z"/><path class="c" d="m26.9 15.9v2.6q0.2-0.1 0.3-0.1v-2.5q-0.1 0-0.3 0z"/><path class="c" d="m28.1 15.8v2.6q0.2-0.1 0.3-0.1v-2.5q-0.1 0-0.3 0z"/><path class="c" d="m29.4 15.7v2.5q0.1 0 0.3 0v-2.6q-0.2 0.1-0.3 0.1z"/><path class="c" d="m30.6 15.5v2.6q0.1 0 0.3-0.1v-2.5q-0.2 0-0.3 0z"/><path class="c" d="m31.8 15.3v2.6q0.2 0 0.3 0v-2.6q-0.1 0-0.3 0z"/><path class="c" d="m33 15.1v2.6q0.2-0.1 0.4-0.1v-2.6q-0.2 0.1-0.4 0.1z"/><path class="c" d="m34.3 14.8v2.6q0.1-0.1 0.3-0.1v-2.6q-0.2 0.1-0.3 0.1z"/><path class="c" d="m35.5 14.4v2.5q0.2 0 0.3-0.1v-2.6q-0.1 0.1-0.3 0.2z"/><path class="e" d="m31.2 11l-24.4 2.3q-0.2-0.2-0.2-0.5 0-0.2 0.3-0.5l19.5-1.8c1.8 0.1 3.4 0.3 4.8 0.5z"/><path class="e" d="m35.9 12.8q0 0.2-0.2 0.4l-20.4 2c-2.8-0.3-5.1-0.6-6.7-1.1l25.7-2.4c1 0.3 1.6 0.7 1.6 1.1z"/><path class="g" d="m14.7 15.2l2 0.8-1.9-1 1.2-0.8-1.3 0.4 0.4-1.2-0.7 1.1-0.9-1.8 0.5 1.9-1.2-0.4 1.1 0.7-1.8 0.9 2-0.5-0.4 1.2 0.6-1.1 0.8 1.3z"/><path class="g" d="m35.2 12.2l1.3-0.1-1.4-0.1 0.6-0.8-0.7 0.6-0.1-0.8-0.1 0.8-1-0.8 0.8 1-0.8 0.1 0.8 0.1-0.8 1 1-0.8 0.1 0.8 0.1-0.8 0.8 0.6z"/><path class="f" d="m26.8 17.2q0 0.6 0 1.3c-1.7 0.1-3.6 0.1-5.6 0.1q-1.8 0-3.4 0c0.3-0.8 0.3-1.8 0-2.6q0.4 0 0.7 0 1.3 0.1 2.7 0.1c2 0 3.9-0.1 5.7-0.2-0.1 0.4-0.1 0.8-0.1 1.3z"/><path class="f" d="m12 18.1c-1.9-0.2-3.4-0.6-4.5-0.9 0.1-0.5 0.2-1 0.2-1.2q0.1-0.6 0-1.3 0 0 0 0c1.1 0.3 2.6 0.6 4.5 0.9-0.3 0.8-0.3 1.7-0.2 2.5z"/><path class="f" d="m36.5 13.4v2.6c0 0.6-1.3 1.2-3.4 1.7q0.1-0.6 0.2-1.2 0.1-0.7 0-1.5c2-0.4 3.2-1 3.2-1.6z"/></svg>