<svg version="1.2" xmlns="http://www.w3.org/2000/svg" viewBox="0 0 40 40" width="40" height="40"><style>.a{fill:#ffd526}.b{fill:#ffe750}.c{fill:#efc940}.d{fill:#da9c13}.e{opacity:.4;fill:#fff391}.f{opacity:.2;fill:#fff391}.g{fill:#fff391}</style><path class="a" d="m20.7 32.4q0.2 0.2 0.4 0.4 0.1 0.2 0.1 0.3c0 1-4.5 1.8-10 1.8-5.6 0-10.1-0.8-10.1-1.8q0-0.1 0.2-0.3 0 0 0 0 0 0 0-0.1 0 0 0.1 0 0 0 0 0 0 0 0 0 0-0.1 0-0.1 0 0 0.1 0 0 0 0 0 0-0.1 0-0.1 0 0 0.1 0c0-0.1 0-0.1 0-0.1q-0.1 0.2-0.1 0.3c0 1 4.3 1.7 9.7 1.7 5.3 0 9.6-0.7 9.6-1.7q0-0.1-0.1-0.3z"/><path class="b" d="m20.8 32.7q0 0.2-0.1 0.3c-0.7 0.8-4.7 1.4-9.5 1.4q-2.1 0-3.9-0.1c-1.9-0.2-3.4-0.4-4.5-0.7q-0.8-0.3-1.2-0.6-0.1-0.1-0.1-0.3 0-0.1 0.2-0.3c0.9-0.8 4.8-1.4 9.5-1.3q1.8 0 3.4 0.1 1.7 0.1 3.1 0.3 1.3 0.2 2.1 0.5c0.6 0.2 1 0.5 1 0.7z"/><path class="c" d="m11.2 34.2q-2.1 0-3.9-0.1c-1.8-0.2-3.4-0.4-4.4-0.7-0.7-0.2-1-0.4-1.1-0.5 0-0.1-0.1-0.1-0.1-0.2q0 0 0.1-0.2c0.4-0.3 1.6-0.6 3.2-0.9 1.8-0.2 3.9-0.3 6.1-0.3h0.1q1.7 0 3.3 0.1 1.8 0.1 3.2 0.3 1.2 0.2 2 0.5c0.9 0.3 0.9 0.5 0.9 0.5q0 0.1 0 0.1c-0.6 0.7-4.3 1.4-9.4 1.4z"/><path class="a" d="m21.1 35.1q-0.2 0.2-0.4 0.4c-0.9 0.8-4.8 1.4-9.5 1.4-4.8 0-8.7-0.6-9.6-1.4q0 0 0 0 0 0 0 0 0-0.1-0.1-0.1 0 0 0 0 0 0 0 0 0-0.1 0-0.1-0.1 0-0.1 0-0.1-0.1-0.1-0.2c0.8 0.8 4.9 1.5 9.9 1.5 4.9 0 9-0.7 9.9-1.5z"/><path class="d" d="m21.2 33.1v1.7c0 0.4-0.8 0.8-2.2 1.1-1.1 0.2-2.5 0.4-4.1 0.5q-1.8 0.2-3.7 0.2-1.2 0-2.3-0.1-0.3 0-0.6 0-1.8-0.1-3.2-0.3c-1.3-0.2-2.3-0.4-3-0.6-0.6-0.2-1-0.5-1-0.8v-1.7c0 0.3 0.4 0.6 1.1 0.8 0.8 0.3 1.8 0.5 3 0.6 1.1 0.2 2.4 0.3 3.7 0.3q0.2 0 0.5 0 0.8 0.1 1.8 0.1 1.9 0 3.7-0.2c1.7-0.1 3.2-0.3 4.3-0.5 1.3-0.3 2-0.7 2-1.1z"/><path class="c" d="m4.4 34.4v1.7q0.1 0 0.2 0v-1.7q-0.1 0-0.2 0z"/><path class="c" d="m5.2 34.5v1.7q0.1 0 0.2 0v-1.7q-0.1 0-0.2 0z"/><path class="c" d="m6 34.6v1.7q0.1 0 0.2 0v-1.7q-0.1 0-0.2 0z"/><path class="c" d="m6.8 34.7v1.7q0.1 0 0.2 0v-1.7q-0.1 0-0.2 0z"/><path class="c" d="m7.6 34.8v1.7q0.1 0 0.2 0v-1.7q-0.1 0-0.2 0z"/><path class="c" d="m8.4 34.8v1.7q0.1 0 0.2 0v-1.7q-0.1 0-0.2 0z"/><path class="c" d="m9.2 34.8v1.7q0.1 0 0.2 0v-1.7q-0.1 0-0.2 0z"/><path class="c" d="m10 34.9v1.7q0.1 0 0.2 0v-1.7q-0.1 0-0.2 0z"/><path class="c" d="m10.9 34.9v1.7q0.1 0 0.2 0v-1.7q-0.1 0-0.2 0z"/><path class="c" d="m11.7 34.9v1.7q0.1 0 0.2 0v-1.7q-0.1 0-0.2 0z"/><path class="c" d="m12.5 34.9v1.7q0.1-0.1 0.2-0.1v-1.7q-0.1 0-0.2 0.1z"/><path class="c" d="m13.3 34.8v1.7q0.1 0 0.2 0v-1.7q-0.1 0-0.2 0z"/><path class="c" d="m14.1 34.8v1.7q0.1 0 0.2 0v-1.7q-0.1 0-0.2 0z"/><path class="c" d="m14.9 34.7v1.7q0.1 0 0.2 0v-1.7q-0.1 0-0.2 0z"/><path class="c" d="m15.7 34.7v1.7q0.1 0 0.2 0v-1.7q-0.1 0-0.2 0z"/><path class="c" d="m16.5 34.6v1.7q0.1 0 0.2 0v-1.7q-0.1 0-0.2 0z"/><path class="c" d="m17.3 34.5v1.7q0.1 0 0.2 0v-1.7q-0.1 0-0.2 0z"/><path class="c" d="m18.2 34.4v1.7q0.1 0 0.2-0.1v-1.7q-0.1 0.1-0.2 0.1z"/><path class="c" d="m19 34.2v1.7q0.1 0 0.2 0v-1.7q-0.1 0-0.2 0z"/><path class="c" d="m19.8 34v1.7q0.1 0 0.2 0v-1.7q-0.1 0-0.2 0z"/><path class="c" d="m20.6 33.7v1.7q0.1 0 0.2-0.1v-1.7q-0.1 0.1-0.2 0.1z"/><path class="e" d="m17.7 31.5l-16.1 1.5q-0.1-0.1-0.1-0.3 0-0.1 0.2-0.3l12.9-1.2q1.7 0.1 3.1 0.3z"/><path class="e" d="m20.8 32.7q0 0.2-0.1 0.3l-13.4 1.3c-1.9-0.2-3.4-0.4-4.5-0.7l17-1.6c0.6 0.2 1 0.5 1 0.7z"/><path class="f" d="m14.8 35.6q0 0.4 0.1 0.8-1.8 0.2-3.7 0.2-1.2 0-2.3-0.1c0.2-0.5 0.2-1.1 0-1.7q0.2 0 0.5 0 0.8 0.1 1.8 0.1 1.9 0 3.7-0.2c-0.1 0.3-0.1 0.6-0.1 0.9z"/><path class="f" d="m5.1 36.2c-1.3-0.2-2.3-0.4-3-0.6 0.1-0.4 0.1-0.7 0.2-0.8q0-0.4 0-0.8-0.1 0-0.1-0.1c0.8 0.3 1.8 0.5 3 0.6-0.2 0.6-0.2 1.2-0.1 1.7z"/><path class="f" d="m21.2 33.1v1.7c0 0.4-0.8 0.8-2.2 1.1q0.1-0.4 0.1-0.7 0.1-0.5 0.1-1c1.3-0.3 2-0.7 2-1.1z"/><path class="a" d="m22.8 30.4q0.2 0.2 0.4 0.4 0.1 0.1 0.1 0.3c0 1-4.5 1.7-10 1.7-5.6 0-10.1-0.7-10.1-1.7q0-0.2 0.1-0.3 0.1 0 0.1-0.1 0 0 0 0 0 0 0 0 0.1 0 0.1 0 0-0.1 0-0.1 0 0 0 0 0 0 0.1 0 0-0.1 0-0.1 0 0 0 0 0 0 0.1 0c0-0.1 0-0.1 0-0.1q-0.1 0.1-0.1 0.3c0 0.9 4.3 1.7 9.7 1.7 5.3 0 9.6-0.8 9.6-1.7q0-0.2-0.1-0.3z"/><path class="b" d="m22.9 30.7q0 0.1-0.1 0.3c-0.7 0.8-4.7 1.4-9.5 1.4q-2.1 0-4-0.2c-1.8-0.1-3.3-0.3-4.4-0.6q-0.8-0.3-1.2-0.6-0.1-0.1-0.1-0.3 0-0.2 0.2-0.3c0.9-0.8 4.8-1.4 9.5-1.4q1.8 0 3.4 0.1 1.7 0.1 3.1 0.4 1.3 0.2 2.1 0.4c0.6 0.3 1 0.5 1 0.8z"/><path class="c" d="m13.3 32.2q-2.1 0-3.9-0.2c-1.8-0.1-3.4-0.4-4.4-0.7-0.7-0.2-1-0.3-1.1-0.5 0 0-0.1 0-0.1-0.1q0-0.1 0.1-0.2c0.4-0.3 1.6-0.7 3.2-0.9 1.8-0.2 3.9-0.4 6.1-0.4h0.1q1.7 0 3.3 0.1 1.8 0.2 3.2 0.4 1.2 0.2 2 0.4c0.9 0.3 0.9 0.6 0.9 0.6q0 0.1 0 0.1c-0.6 0.7-4.3 1.4-9.4 1.4z"/><path class="a" d="m23.2 33.1q-0.2 0.2-0.4 0.4c-0.9 0.8-4.8 1.4-9.5 1.4-4.8 0-8.7-0.6-9.6-1.4q0 0 0-0.1 0 0 0 0 0 0-0.1 0 0 0 0 0 0-0.1 0-0.1 0 0 0 0-0.1 0-0.1 0-0.1-0.1-0.2-0.2c0.9 0.8 5 1.4 10 1.4 4.9 0 9-0.6 9.9-1.4z"/><path class="d" d="m23.3 31.1v1.7c0 0.4-0.8 0.8-2.2 1.1-1.1 0.2-2.5 0.4-4.1 0.5q-1.8 0.1-3.7 0.1-1.2 0-2.3 0-0.3 0-0.6 0-1.8-0.1-3.2-0.3c-1.3-0.2-2.3-0.4-3-0.6-0.7-0.3-1-0.5-1-0.8v-1.7c0 0.3 0.4 0.6 1.1 0.8 0.8 0.2 1.8 0.4 3 0.6 1.1 0.1 2.4 0.2 3.7 0.3q0.2 0 0.5 0 0.8 0 1.8 0 1.9 0 3.7-0.1c1.7-0.1 3.2-0.3 4.2-0.5 1.4-0.3 2.1-0.7 2.1-1.1z"/><path class="c" d="m4.8 32v1.7q0.1 0.1 0.2 0.1v-1.7q-0.1 0-0.2-0.1z"/><path class="c" d="m5.6 32.2v1.7q0.1 0.1 0.3 0.1v-1.7q-0.2 0-0.3-0.1z"/><path class="c" d="m6.5 32.4v1.7q0.1 0 0.2 0v-1.7q-0.1 0-0.2 0z"/><path class="c" d="m7.3 32.5v1.7q0.1 0 0.2 0v-1.7q-0.1 0-0.2 0z"/><path class="c" d="m8.1 32.6v1.7q0.1 0 0.2 0v-1.7q-0.1 0-0.2 0z"/><path class="c" d="m8.9 32.7v1.7q0.1 0 0.2 0v-1.7q-0.1 0-0.2 0z"/><path class="c" d="m9.7 32.7v1.7q0.1 0 0.2 0v-1.7q-0.1 0-0.2 0z"/><path class="c" d="m10.5 32.8v1.7q0.1 0 0.2 0v-1.7q-0.1 0-0.2 0z"/><path class="c" d="m11.3 32.8v1.7q0.1 0 0.2 0v-1.7q-0.1 0-0.2 0z"/><path class="c" d="m12.1 32.8v1.7q0.1 0 0.2 0v-1.7q-0.1 0-0.2 0z"/><path class="c" d="m13 32.8l-0.1 1.7q0.2 0 0.3 0v-1.7q-0.1 0-0.2 0z"/><path class="c" d="m13.8 32.8v1.7q0.1 0 0.2 0v-1.7q-0.1 0-0.2 0z"/><path class="c" d="m14.6 32.8v1.7q0.1 0 0.2 0v-1.7q-0.1 0-0.2 0z"/><path class="c" d="m15.4 32.8v1.7q0.1 0 0.2 0v-1.7q-0.1 0-0.2 0z"/><path class="c" d="m16.2 32.8v1.7q0.1 0 0.2 0v-1.7q-0.1 0-0.2 0z"/><path class="c" d="m17 32.7v1.7q0.1 0 0.2 0v-1.7q-0.1 0-0.2 0z"/><path class="c" d="m17.8 32.6v1.7q0.1 0 0.2 0v-1.7q-0.1 0-0.2 0z"/><path class="c" d="m18.6 32.6v1.7q0.1 0 0.2-0.1v-1.7q-0.1 0.1-0.2 0.1z"/><path class="c" d="m19.4 32.5v1.7q0.1 0 0.2-0.1v-1.7q-0.1 0.1-0.2 0.1z"/><path class="c" d="m20.3 32.3v1.7q0.1 0 0.2 0v-1.7q-0.1 0-0.2 0z"/><path class="c" d="m21.1 32.2v1.7q0.1 0 0.2-0.1v-1.7q-0.1 0.1-0.2 0.1z"/><path class="c" d="m21.9 32v1.7q0.1 0 0.2-0.1v-1.7q-0.1 0.1-0.2 0.1z"/><path class="c" d="m22.7 31.7v1.7q0.1 0 0.2-0.1v-1.7q-0.1 0.1-0.2 0.1z"/><path class="e" d="m19.8 29.5l-16.1 1.5q-0.1-0.1-0.1-0.3 0-0.2 0.2-0.3l12.9-1.3q1.7 0.1 3.1 0.4z"/><path class="e" d="m22.9 30.7q0 0.1-0.1 0.3l-13.5 1.2c-1.8-0.1-3.3-0.3-4.4-0.6l17-1.7c0.6 0.3 1 0.5 1 0.8z"/><path class="g" d="m22.9 31.3l1.3 0.5-1.2-0.7 0.8-0.5-0.9 0.2 0.2-0.8-0.4 0.8-0.6-1.2 0.3 1.3-0.8-0.3 0.8 0.4-1.2 0.6 1.3-0.3-0.3 0.8 0.4-0.7 0.5 0.9z"/><path class="f" d="m16.9 33.5q0 0.5 0.1 0.9-1.8 0.1-3.7 0.1-1.2 0-2.3 0c0.2-0.6 0.2-1.2 0-1.7q0.2 0 0.5 0 0.8 0 1.8 0 1.9 0 3.7-0.1c-0.1 0.3-0.1 0.6-0.1 0.8z"/><path class="f" d="m7.2 34.2c-1.3-0.2-2.3-0.4-3-0.6 0.1-0.4 0.1-0.7 0.1-0.8q0.1-0.4 0-0.9 0 0 0 0c0.8 0.2 1.8 0.4 3 0.6-0.2 0.5-0.2 1.1-0.1 1.7z"/><path class="f" d="m23.3 31.1v1.7c0 0.4-0.8 0.8-2.2 1.1q0.1-0.4 0.1-0.8 0.1-0.5 0-0.9c1.4-0.3 2.1-0.7 2.1-1.1z"/><path class="a" d="m22.2 27.5q0.2 0.2 0.4 0.4 0.1 0.1 0.1 0.3c0 0.9-4.5 1.7-10.1 1.7-5.5 0-10-0.8-10-1.7q0-0.2 0.1-0.3 0.1-0.1 0.1-0.1 0 0 0 0 0 0 0 0 0 0 0.1 0 0-0.1 0-0.1 0 0 0 0 0 0 0.1 0 0-0.1 0-0.1 0 0 0 0 0 0 0.1 0c0-0.1 0-0.1 0-0.1q-0.1 0.1-0.1 0.3c0 0.9 4.3 1.7 9.6 1.7 5.4 0 9.7-0.8 9.7-1.7q0-0.2-0.1-0.3z"/><path class="b" d="m22.3 27.8q0 0.1-0.1 0.2c-0.7 0.9-4.7 1.5-9.6 1.5q-2.1 0-3.9-0.2c-1.8-0.1-3.4-0.4-4.4-0.7q-0.8-0.2-1.2-0.5-0.1-0.2-0.1-0.3 0-0.2 0.2-0.4c0.9-0.7 4.8-1.3 9.4-1.3q1.8 0 3.4 0.1 1.8 0.1 3.2 0.4 1.3 0.2 2.1 0.4c0.6 0.3 1 0.5 1 0.8z"/><path class="c" d="m12.6 29.3q-2 0-3.8-0.2c-1.9-0.1-3.4-0.4-4.4-0.7-0.7-0.2-1-0.3-1.1-0.5-0.1 0-0.1-0.1-0.1-0.1q0-0.1 0.1-0.2c0.4-0.3 1.6-0.7 3.2-0.9 1.7-0.2 3.9-0.4 6.1-0.4q1.8 0 3.4 0.1 1.8 0.1 3.2 0.4 1.2 0.2 2 0.4c0.9 0.3 0.9 0.6 0.9 0.6q0 0.1-0.1 0.1c-0.5 0.7-4.2 1.4-9.3 1.4z"/><path class="a" d="m22.6 30.2q-0.2 0.2-0.4 0.4c-0.9 0.8-4.8 1.3-9.6 1.3-4.7 0-8.6-0.5-9.5-1.3q0 0 0-0.1 0 0 0 0 0 0-0.1 0 0 0 0 0 0-0.1 0-0.1 0 0 0 0-0.1 0-0.1 0-0.1-0.1-0.2-0.2c0.9 0.8 5 1.4 9.9 1.4 5 0 9.1-0.6 10-1.4z"/><path class="d" d="m22.7 28.2v1.7c0 0.4-0.8 0.8-2.2 1.1-1.1 0.2-2.5 0.4-4.1 0.5q-1.8 0.1-3.8 0.1-1.1 0-2.2 0-0.3 0-0.6 0-1.8-0.1-3.2-0.3c-1.3-0.2-2.3-0.4-3-0.7-0.7-0.2-1-0.4-1-0.7v-1.7c0 0.3 0.4 0.6 1.1 0.8 0.7 0.2 1.8 0.4 3 0.6 1.1 0.1 2.3 0.2 3.7 0.3q0.2 0 0.4 0 0.9 0 1.8 0 2 0 3.8-0.1c1.7-0.1 3.1-0.3 4.2-0.6 1.3-0.3 2.1-0.6 2.1-1z"/><path class="c" d="m4.2 29.1v1.7q0.1 0.1 0.2 0.1v-1.7q-0.1 0-0.2-0.1z"/><path class="c" d="m5 29.3v1.7q0.1 0 0.2 0.1v-1.7q-0.1-0.1-0.2-0.1z"/><path class="c" d="m5.9 29.5v1.7q0.1 0 0.2 0v-1.7q-0.1 0-0.2 0z"/><path class="c" d="m6.7 29.6v1.7q0.1 0 0.2 0v-1.7q-0.1 0-0.2 0z"/><path class="c" d="m7.5 29.7v1.7q0.1 0 0.2 0v-1.7q-0.1 0-0.2 0z"/><path class="c" d="m8.3 29.8v1.7q0.1 0 0.2 0v-1.7q-0.1 0-0.2 0z"/><path class="c" d="m9.1 29.8v1.7q0.1 0 0.2 0v-1.7q-0.1 0-0.2 0z"/><path class="c" d="m9.9 29.9v1.7q0.1 0 0.2 0v-1.7q-0.1 0-0.2 0z"/><path class="c" d="m10.7 29.9v1.7q0.1 0 0.2 0v-1.7q-0.1 0-0.2 0z"/><path class="c" d="m11.5 29.9v1.7q0.1 0 0.2 0v-1.7q-0.1 0-0.2 0z"/><path class="c" d="m12.3 29.9v1.7q0.1 0 0.2 0v-1.7q-0.1 0-0.2 0z"/><path class="c" d="m13.2 29.9v1.7q0.1 0 0.2 0v-1.7q-0.1 0-0.2 0z"/><path class="c" d="m14 29.9v1.7q0.1 0 0.2 0v-1.7q-0.1 0-0.2 0z"/><path class="c" d="m14.8 29.9v1.7q0.1 0 0.2 0v-1.7q-0.1 0-0.2 0z"/><path class="c" d="m15.6 29.9v1.7q0.1-0.1 0.2-0.1v-1.7q-0.1 0-0.2 0.1z"/><path class="c" d="m16.4 29.8v1.7q0.1 0 0.2 0v-1.7q-0.1 0-0.2 0z"/><path class="c" d="m17.2 29.7v1.7q0.1 0 0.2 0v-1.7q-0.1 0-0.2 0z"/><path class="c" d="m18 29.7v1.7q0.1-0.1 0.2-0.1v-1.7q-0.1 0-0.2 0.1z"/><path class="c" d="m18.8 29.6v1.7q0.1-0.1 0.2-0.1v-1.7q-0.1 0-0.2 0.1z"/><path class="c" d="m19.6 29.4v1.7q0.1 0 0.2 0v-1.7q-0.1 0-0.2 0z"/><path class="c" d="m20.5 29.3v1.7q0.1 0 0.2-0.1v-1.7q-0.1 0.1-0.2 0.1z"/><path class="c" d="m21.3 29.1v1.7q0.1 0 0.2-0.1v-1.7q-0.1 0.1-0.2 0.1z"/><path class="c" d="m22.1 28.8v1.7q0.1-0.1 0.2-0.1v-1.7q-0.1 0-0.2 0.1z"/><path class="e" d="m19.2 26.6l-16.1 1.5q-0.1-0.2-0.1-0.3 0-0.2 0.2-0.4l12.8-1.2q1.8 0.1 3.2 0.4z"/><path class="e" d="m22.3 27.8q0 0.1-0.1 0.2l-13.5 1.3c-1.8-0.1-3.4-0.4-4.4-0.7l17-1.6c0.6 0.3 1 0.5 1 0.8z"/><path class="f" d="m16.3 30.6q0 0.5 0.1 0.9-1.8 0.1-3.8 0.1-1.1 0-2.2 0c0.2-0.6 0.2-1.2 0-1.7q0.2 0 0.4 0 0.9 0 1.8 0 2 0 3.8-0.1c-0.1 0.3-0.1 0.6-0.1 0.8z"/><path class="f" d="m6.6 31.3c-1.3-0.2-2.3-0.4-3-0.7 0.1-0.3 0.1-0.6 0.1-0.7q0.1-0.4 0-0.9 0 0 0 0c0.7 0.2 1.8 0.4 3 0.6-0.2 0.5-0.2 1.1-0.1 1.7z"/><path class="f" d="m22.7 28.2v1.7c0 0.4-0.8 0.8-2.2 1.1q0.1-0.4 0.1-0.8 0.1-0.5 0-1c1.3-0.3 2.1-0.6 2.1-1z"/><path class="a" d="m23 24.8q0.2 0.2 0.4 0.4 0.1 0.1 0.1 0.3c0 0.9-4.5 1.7-10 1.7-5.6 0-10.1-0.8-10.1-1.7q0-0.2 0.2-0.3 0-0.1 0-0.1 0 0 0 0 0 0 0.1 0 0 0 0-0.1 0 0 0 0 0 0 0 0 0 0 0.1 0 0-0.1 0-0.1 0 0 0 0 0 0 0.1 0c0-0.1 0-0.1 0-0.1q-0.1 0.1-0.1 0.3c0 0.9 4.3 1.7 9.7 1.7 5.3 0 9.6-0.8 9.6-1.7q0-0.2-0.1-0.3z"/><path class="b" d="m23.1 25.1q0 0.1-0.1 0.2c-0.7 0.8-4.7 1.5-9.5 1.5q-2.1 0-3.9-0.2c-1.9-0.1-3.4-0.4-4.5-0.7q-0.8-0.2-1.2-0.5-0.1-0.2-0.1-0.3 0-0.2 0.2-0.4c0.9-0.7 4.8-1.3 9.5-1.3q1.8 0 3.4 0.1 1.7 0.1 3.1 0.4 1.3 0.2 2.1 0.4c0.6 0.3 1 0.5 1 0.8z"/><path class="c" d="m13.5 26.5q-2.1 0-3.9-0.1c-1.8-0.1-3.4-0.4-4.4-0.7-0.7-0.2-1-0.4-1.1-0.5 0 0-0.1-0.1-0.1-0.1q0-0.1 0.1-0.2c0.4-0.3 1.6-0.7 3.2-0.9 1.8-0.2 3.9-0.4 6.1-0.4h0.1q1.7 0 3.3 0.1 1.8 0.1 3.2 0.4 1.2 0.2 2 0.4c0.9 0.3 0.9 0.6 0.9 0.6q0 0 0 0.1c-0.6 0.7-4.3 1.3-9.4 1.3z"/><path class="a" d="m23.4 27.5q-0.2 0.2-0.4 0.4c-0.9 0.8-4.8 1.3-9.5 1.3-4.8 0-8.7-0.6-9.6-1.3q0-0.1 0-0.1 0 0 0 0 0 0-0.1 0 0 0 0 0 0-0.1 0-0.1 0 0 0 0-0.1 0-0.1 0-0.1-0.1-0.1-0.2c0.8 0.8 4.9 1.4 9.9 1.4 4.9 0 9-0.6 9.9-1.4z"/><path class="d" d="m23.5 25.5v1.7c0 0.4-0.8 0.8-2.2 1.1-1.1 0.2-2.5 0.4-4.1 0.5q-1.8 0.1-3.7 0.1-1.2 0-2.3 0-0.3 0-0.6-0.1-1.8 0-3.2-0.2c-1.3-0.2-2.3-0.4-3-0.7-0.6-0.2-1-0.5-1-0.7v-1.7c0 0.3 0.4 0.5 1.1 0.8 0.8 0.2 1.8 0.4 3 0.6 1.1 0.1 2.4 0.2 3.7 0.3q0.2 0 0.5 0 0.8 0 1.8 0 1.9 0 3.7-0.1c1.7-0.1 3.2-0.3 4.3-0.6 1.3-0.3 2-0.6 2-1z"/><path class="c" d="m4.2 26.2v1.7q0.1 0 0.2 0v-1.7q-0.1 0-0.2 0z"/><path class="c" d="m5 26.4v1.7q0.1 0.1 0.2 0.1v-1.7q-0.1 0-0.2-0.1z"/><path class="c" d="m5.9 26.6v1.7q0.1 0 0.2 0.1v-1.7q-0.1-0.1-0.2-0.1z"/><path class="c" d="m6.7 26.8v1.7q0.1 0 0.2 0v-1.7q-0.1 0-0.2 0z"/><path class="c" d="m7.5 26.9v1.7q0.1 0 0.2 0v-1.7q-0.1 0-0.2 0z"/><path class="c" d="m8.3 27v1.7q0.1 0 0.2 0v-1.7q-0.1 0-0.2 0z"/><path class="c" d="m9.1 27.1v1.7q0.1 0 0.2 0v-1.7q-0.1 0-0.2 0z"/><path class="c" d="m9.9 27.1v1.7q0.1 0 0.2 0v-1.7q-0.1 0-0.2 0z"/><path class="c" d="m10.7 27.2v1.7q0.1 0 0.2 0v-1.7q-0.1 0-0.2 0z"/><path class="c" d="m11.5 27.2v1.7q0.1 0 0.2 0v-1.7q-0.1 0-0.2 0z"/><path class="c" d="m12.3 27.2v1.7q0.1 0 0.2 0v-1.7q-0.1 0-0.2 0z"/><path class="c" d="m13.2 27.2v1.7q0.1 0 0.2 0v-1.7q-0.1 0-0.2 0z"/><path class="c" d="m14 27.2v1.7q0.1 0 0.2 0v-1.7q-0.1 0-0.2 0z"/><path class="c" d="m14.8 27.2v1.7q0.1 0 0.2 0v-1.7q-0.1 0-0.2 0z"/><path class="c" d="m15.6 27.2v1.7q0.1 0 0.2 0v-1.7q-0.1 0-0.2 0z"/><path class="c" d="m16.4 27.1v1.7q0.1 0 0.2 0v-1.7q-0.1 0-0.2 0z"/><path class="c" d="m17.2 27.1v1.7q0.1 0 0.2 0v-1.7q-0.1 0-0.2 0z"/><path class="c" d="m18 27v1.7q0.1 0 0.2 0v-1.7q-0.1 0-0.2 0z"/><path class="c" d="m18.8 27v1.7q0.1-0.1 0.2-0.1v-1.7q-0.1 0-0.2 0.1z"/><path class="c" d="m19.6 26.9v1.7q0.1-0.1 0.2-0.1v-1.7q-0.1 0-0.2 0.1z"/><path class="c" d="m20.5 26.7v1.7q0.1 0 0.2 0v-1.7q-0.1 0-0.2 0z"/><path class="c" d="m21.3 26.6v1.7q0.1 0 0.2-0.1v-1.7q-0.1 0.1-0.2 0.1z"/><path class="c" d="m22.1 26.4v1.7q0.1-0.1 0.2-0.1v-1.7q-0.1 0.1-0.2 0.1z"/><path class="c" d="m22.9 26.1v1.7q0.1-0.1 0.2-0.1v-1.7q-0.1 0-0.2 0.1z"/><path class="e" d="m20 23.9l-16.1 1.5q-0.1-0.2-0.1-0.3 0-0.2 0.2-0.4l12.9-1.2q1.7 0.1 3.1 0.4z"/><path class="e" d="m23.1 25.1q0 0.1-0.1 0.2l-13.4 1.3c-1.9-0.1-3.4-0.4-4.5-0.7l17-1.6c0.6 0.3 1 0.5 1 0.8z"/><path class="f" d="m17.1 27.9q0 0.5 0.1 0.9-1.8 0.1-3.7 0.1-1.2 0-2.3 0c0.2-0.6 0.2-1.2 0-1.7q0.2 0 0.5 0 0.8 0 1.8 0 1.9 0 3.7-0.1c-0.1 0.3-0.1 0.6-0.1 0.8z"/><path class="f" d="m7.4 28.6c-1.3-0.2-2.3-0.4-3-0.7 0.1-0.3 0.1-0.6 0.2-0.7q0-0.4 0-0.9-0.1 0-0.1 0c0.8 0.2 1.8 0.4 3 0.6-0.2 0.5-0.2 1.1-0.1 1.7z"/><path class="f" d="m23.5 25.5v1.7c0 0.4-0.8 0.8-2.2 1.1q0.1-0.4 0.1-0.8 0.1-0.5 0.1-1c1.3-0.3 2-0.6 2-1z"/><path class="a" d="m22 21.9q0.1 0.2 0.3 0.4 0.2 0.1 0.2 0.3c0 0.9-4.5 1.7-10.1 1.7-5.5 0-10-0.8-10-1.7q0-0.2 0.1-0.4 0.1 0 0.1 0 0 0 0 0 0 0 0 0 0-0.1 0.1-0.1 0 0 0 0 0 0 0 0 0 0 0.1-0.1 0 0 0 0 0 0 0 0 0 0 0.1-0.1c0 0 0 0 0 0q-0.1 0.1-0.1 0.3c0 0.9 4.3 1.7 9.6 1.7 5.4 0 9.7-0.8 9.7-1.7q0-0.2-0.1-0.3z"/><path class="b" d="m22.1 22.2q0 0.1-0.1 0.2c-0.7 0.8-4.7 1.5-9.6 1.5q-2.1 0-3.9-0.2c-1.8-0.1-3.4-0.4-4.4-0.7q-0.8-0.2-1.2-0.5-0.1-0.2-0.1-0.3 0-0.2 0.2-0.4c0.9-0.7 4.8-1.3 9.4-1.3q1.8 0 3.4 0.1 1.8 0.1 3.2 0.3 1.3 0.2 2.1 0.5c0.6 0.2 1 0.5 1 0.8z"/><path class="c" d="m12.4 23.6q-2 0-3.8-0.1c-1.9-0.1-3.4-0.4-4.4-0.7-0.7-0.2-1-0.4-1.1-0.5-0.1 0-0.1-0.1-0.1-0.1q0-0.1 0.1-0.2c0.4-0.3 1.6-0.7 3.2-0.9 1.7-0.3 3.9-0.4 6.1-0.4q1.8 0 3.4 0.1 1.8 0.1 3.2 0.4 1.2 0.2 2 0.4c0.9 0.3 0.9 0.6 0.9 0.6q0 0-0.1 0.1c-0.5 0.7-4.2 1.3-9.3 1.3z"/><path class="a" d="m22.3 24.6q-0.2 0.2-0.3 0.4c-0.9 0.7-4.8 1.3-9.6 1.3-4.7 0-8.6-0.6-9.5-1.3q0-0.1 0-0.1 0 0 0 0 0 0-0.1 0 0 0 0-0.1 0 0 0 0 0 0 0 0-0.1 0-0.1-0.1-0.1 0-0.2-0.1c0.9 0.8 5 1.4 9.9 1.4 5 0 9.1-0.6 9.9-1.4z"/><path class="d" d="m22.5 22.6v1.7c0 0.4-0.8 0.8-2.2 1.1-1.1 0.2-2.5 0.4-4.1 0.5q-1.8 0.1-3.8 0.1-1.1 0-2.2 0-0.3 0-0.6-0.1-1.8-0.1-3.2-0.2c-1.3-0.2-2.3-0.4-3-0.7-0.7-0.2-1-0.5-1-0.7v-1.7c0 0.3 0.4 0.5 1.1 0.8 0.7 0.2 1.8 0.4 3 0.6 1.1 0.1 2.3 0.2 3.7 0.3q0.2 0 0.4 0 0.9 0 1.8 0 2 0 3.8-0.1c1.7-0.1 3.1-0.3 4.2-0.6 1.3-0.3 2.1-0.6 2.1-1z"/><path class="c" d="m4.8 23.7v1.7q0.1 0 0.2 0v-1.6q-0.1-0.1-0.2-0.1z"/><path class="c" d="m5.6 23.9v1.7q0.1 0 0.3 0v-1.7q-0.2 0-0.3 0z"/><path class="c" d="m6.5 24v1.7q0.1 0 0.2 0v-1.7q-0.1 0-0.2 0z"/><path class="c" d="m7.3 24.1v1.7q0.1 0 0.2 0v-1.7q-0.1 0-0.2 0z"/><path class="c" d="m8.1 24.1v1.7q0.1 0 0.2 0.1v-1.7q-0.1 0-0.2-0.1z"/><path class="c" d="m8.9 24.2v1.7q0.1 0 0.2 0v-1.7q-0.1 0-0.2 0z"/><path class="c" d="m9.7 24.2v1.7q0.1 0.1 0.2 0.1v-1.7q-0.1 0-0.2-0.1z"/><path class="c" d="m10.5 24.3v1.7q0.1 0 0.2 0v-1.7q-0.1 0-0.2 0z"/><path class="c" d="m11.3 24.3v1.7q0.1 0 0.2 0v-1.7q-0.1 0-0.2 0z"/><path class="c" d="m12.1 24.3v1.7q0.1 0 0.2 0v-1.7q-0.1 0-0.2 0z"/><path class="c" d="m12.9 24.3v1.7q0.2 0 0.3 0v-1.7q-0.1 0-0.3 0z"/><path class="c" d="m13.8 24.3v1.7q0.1 0 0.2 0v-1.7q-0.1 0-0.2 0z"/><path class="c" d="m14.6 24.3v1.7q0.1 0 0.2 0v-1.7q-0.1 0-0.2 0z"/><path class="c" d="m15.4 24.2v1.7q0.1 0 0.2 0v-1.7q-0.1 0-0.2 0z"/><path class="c" d="m16.2 24.2v1.7q0.1 0 0.2 0v-1.7q-0.1 0-0.2 0z"/><path class="c" d="m17 24.1v1.7q0.1 0 0.2 0v-1.7q-0.1 0-0.2 0z"/><path class="c" d="m17.8 24v1.7q0.1 0 0.2 0v-1.7q-0.1 0-0.2 0z"/><path class="c" d="m18.6 23.9v1.7q0.1 0 0.2 0v-1.7q-0.1 0-0.2 0z"/><path class="c" d="m19.4 23.8v1.7q0.1 0 0.2 0v-1.7q-0.1 0-0.2 0z"/><path class="c" d="m20.3 23.7v1.7q0.1-0.1 0.2-0.1v-1.7q-0.1 0-0.2 0.1z"/><path class="c" d="m21.1 23.5v1.7q0.1-0.1 0.2-0.1v-1.7q-0.1 0-0.2 0.1z"/><path class="c" d="m21.9 23.2v1.7q0.1-0.1 0.2-0.1v-1.7q-0.1 0-0.2 0.1z"/><path class="e" d="m19 20.9l-16.1 1.6q-0.1-0.2-0.1-0.3 0-0.2 0.2-0.4l12.8-1.2q1.8 0.1 3.2 0.3z"/><path class="e" d="m22.1 22.2q0 0.1-0.1 0.2l-13.5 1.3c-1.8-0.1-3.4-0.4-4.4-0.7l17-1.6c0.6 0.2 1 0.5 1 0.8z"/><path class="f" d="m16.1 25q0 0.5 0.1 0.9-1.8 0.1-3.8 0.1-1.1 0-2.2 0c0.2-0.6 0.2-1.2 0-1.7q0.2 0 0.4 0 0.9 0 1.8 0 2 0 3.8-0.1c-0.1 0.3-0.1 0.5-0.1 0.8z"/><path class="f" d="m6.4 25.7c-1.3-0.2-2.3-0.4-3-0.7 0.1-0.3 0.1-0.6 0.1-0.7q0.1-0.5 0-0.9 0 0 0 0c0.7 0.2 1.8 0.4 3 0.6-0.2 0.5-0.2 1.1-0.1 1.7z"/><path class="f" d="m22.5 22.6v1.7c0 0.4-0.8 0.8-2.2 1.1q0.1-0.4 0.1-0.8 0.1-0.5 0-1c1.3-0.3 2.1-0.6 2.1-1z"/><path class="g" d="m19.6 26.4l1.5-0.1-1.5-0.1 0.6-0.9-0.8 0.7-0.1-0.9-0.1 0.9-1.1-0.9 0.9 1.1-0.9 0.1 0.9 0.1-0.9 1.1 1.1-0.9 0.1 0.9 0.1-0.9 0.9 0.7z"/><path class="a" d="m22.9 19q0.2 0.2 0.4 0.4 0.2 0.2 0.2 0.3c0 1-4.6 1.8-10.1 1.8-5.6 0-10.1-0.8-10.1-1.8q0-0.1 0.2-0.3 0 0 0 0 0 0 0 0 0.1-0.1 0.1-0.1 0 0 0 0 0 0 0 0 0.1-0.1 0.1-0.1 0 0 0 0 0 0 0 0 0.1 0 0.1-0.1 0 0 0 0c0.1-0.1 0.1-0.1 0.1-0.1q-0.2 0.2-0.2 0.3c0 1 4.4 1.7 9.7 1.7 5.3 0 9.7-0.7 9.7-1.7q0-0.1-0.2-0.3z"/><path class="b" d="m23.1 19.3q0 0.2-0.2 0.3c-0.6 0.8-4.7 1.4-9.5 1.4q-2.1 0-3.9-0.1c-1.9-0.2-3.4-0.4-4.4-0.7q-0.9-0.3-1.2-0.6-0.2-0.1-0.2-0.3 0-0.1 0.2-0.3c0.9-0.8 4.8-1.3 9.5-1.3q1.8 0 3.4 0.1 1.8 0.1 3.2 0.3 1.2 0.2 2 0.5c0.7 0.2 1.1 0.5 1.1 0.7z"/><path class="c" d="m13.4 20.8q-2.1 0-3.9-0.1c-1.8-0.2-3.4-0.4-4.4-0.7-0.7-0.2-0.9-0.4-1.1-0.5 0-0.1-0.1-0.1-0.1-0.2q0 0 0.2-0.1c0.4-0.4 1.5-0.7 3.2-1 1.7-0.2 3.9-0.3 6.1-0.3q1.7 0 3.4 0.1 1.7 0.1 3.1 0.3 1.3 0.2 2 0.5c0.9 0.3 0.9 0.5 0.9 0.5q0 0.1 0 0.1c-0.6 0.7-4.3 1.4-9.4 1.4z"/><path class="a" d="m23.3 21.7q-0.2 0.2-0.4 0.4c-0.8 0.8-4.8 1.4-9.5 1.4-4.8 0-8.7-0.6-9.5-1.4q0 0-0.1 0 0 0 0 0 0-0.1 0-0.1 0 0 0 0-0.1 0-0.1 0 0 0 0-0.1 0 0 0 0-0.1-0.1-0.2-0.2c0.8 0.9 4.9 1.5 9.9 1.5 4.9 0 9-0.6 9.9-1.5z"/><path class="d" d="m23.5 19.7v1.7c0 0.4-0.9 0.8-2.3 1.1-1.1 0.3-2.5 0.4-4.1 0.6q-1.7 0.1-3.7 0.1-1.2 0-2.3-0.1-0.3 0-0.6 0-1.8-0.1-3.2-0.3c-1.2-0.1-2.3-0.4-3-0.6-0.6-0.2-1-0.5-1-0.8v-1.7c0 0.3 0.4 0.6 1.2 0.8 0.7 0.3 1.7 0.5 2.9 0.6 1.1 0.2 2.4 0.3 3.8 0.3q0.2 0 0.4 0 0.9 0.1 1.8 0.1 2 0 3.7-0.1c1.7-0.2 3.2-0.4 4.3-0.6 1.3-0.3 2.1-0.7 2.1-1.1z"/><path class="c" d="m4.2 20.4v1.7q0.1 0.1 0.2 0.1v-1.7q-0.1 0-0.2-0.1z"/><path class="c" d="m5 20.7v1.7q0.1 0 0.2 0v-1.7q-0.1 0-0.2 0z"/><path class="c" d="m5.8 20.9v1.7q0.1 0 0.2 0v-1.7q-0.1 0-0.2 0z"/><path class="c" d="m6.6 21v1.7q0.1 0 0.2 0v-1.7q-0.1 0-0.2 0z"/><path class="c" d="m7.4 21.1v1.7q0.1 0 0.2 0.1v-1.7q-0.1-0.1-0.2-0.1z"/><path class="c" d="m8.2 21.2v1.7q0.1 0 0.2 0v-1.7q-0.1 0-0.2 0z"/><path class="c" d="m9 21.3v1.7q0.1 0 0.2 0v-1.7q-0.1 0-0.2 0z"/><path class="c" d="m9.8 21.4v1.7q0.1 0 0.2 0v-1.7q-0.1 0-0.2 0z"/><path class="c" d="m10.7 21.4v1.7q0.1 0 0.2 0v-1.7q-0.1 0-0.2 0z"/><path class="c" d="m11.5 21.4v1.7q0.1 0 0.2 0v-1.7q-0.1 0-0.2 0z"/><path class="c" d="m12.3 21.5v1.7q0.1 0 0.2 0v-1.7q-0.1 0-0.2 0z"/><path class="c" d="m13.1 21.5v1.7q0.1 0 0.2 0v-1.7q-0.1 0-0.2 0z"/><path class="c" d="m13.9 21.5v1.7q0.1 0 0.2 0v-1.7q-0.1 0-0.2 0z"/><path class="c" d="m14.7 21.5v1.7q0.1 0 0.2 0v-1.7q-0.1 0-0.2 0z"/><path class="c" d="m15.5 21.4v1.7q0.1 0 0.2 0v-1.7q-0.1 0-0.2 0z"/><path class="c" d="m16.3 21.4v1.7q0.1 0 0.2 0v-1.7q-0.1 0-0.2 0z"/><path class="c" d="m17.1 21.3v1.7q0.1 0 0.2 0v-1.7q-0.1 0-0.2 0z"/><path class="c" d="m18 21.3v1.7q0.1 0 0.2 0v-1.7q-0.1 0-0.2 0z"/><path class="c" d="m18.8 21.2v1.7q0.1 0 0.2 0v-1.7q-0.1 0-0.2 0z"/><path class="c" d="m19.6 21.1v1.7q0.1 0 0.2 0v-1.7q-0.1 0-0.2 0z"/><path class="c" d="m20.4 21v1.7q0.1 0 0.2-0.1v-1.7q-0.1 0.1-0.2 0.1z"/><path class="c" d="m21.2 20.8v1.7q0.1 0 0.2 0v-1.7q-0.1 0-0.2 0z"/><path class="c" d="m22 20.6v1.7q0.1 0 0.2 0v-1.7q-0.1 0-0.2 0z"/><path class="c" d="m22.8 20.3v1.7q0.1 0 0.2-0.1v-1.7q-0.1 0.1-0.2 0.1z"/><path class="e" d="m20 18.1l-16.1 1.5q-0.2-0.1-0.2-0.3 0-0.1 0.2-0.3l12.9-1.2q1.8 0.1 3.2 0.3z"/><path class="e" d="m23.1 19.3q0 0.2-0.2 0.3l-13.4 1.3c-1.9-0.2-3.4-0.4-4.4-0.7l16.9-1.6c0.7 0.2 1.1 0.5 1.1 0.7z"/><path class="f" d="m17.1 22.2q-0.1 0.4 0 0.9-1.7 0.1-3.7 0.1-1.2 0-2.3-0.1c0.2-0.5 0.2-1.1 0.1-1.7q0.2 0 0.4 0 0.9 0.1 1.8 0.1 2 0 3.7-0.1c0 0.2 0 0.5 0 0.8z"/><path class="f" d="m7.3 22.8c-1.2-0.1-2.3-0.4-3-0.6 0.1-0.3 0.2-0.7 0.2-0.8q0-0.4 0-0.8 0 0 0-0.1c0.7 0.3 1.7 0.5 2.9 0.6-0.2 0.6-0.2 1.2-0.1 1.7z"/><path class="f" d="m23.5 19.7v1.7c0 0.4-0.9 0.8-2.3 1.1q0.1-0.3 0.2-0.7 0-0.5 0-1c1.3-0.3 2.1-0.7 2.1-1.1z"/><path class="a" d="m22 16.5q0.1 0.2 0.3 0.4 0.2 0.2 0.2 0.3c0 1-4.5 1.8-10.1 1.8-5.5 0-10-0.8-10-1.8q0-0.1 0.1-0.3 0.1 0 0.1 0 0 0 0-0.1 0 0 0 0 0 0 0.1 0 0 0 0 0 0-0.1 0-0.1 0 0 0.1 0 0 0 0 0 0 0 0-0.1 0 0 0.1 0c0-0.1 0-0.1 0-0.1q-0.1 0.2-0.1 0.3c0 1 4.3 1.7 9.6 1.7 5.4 0 9.7-0.7 9.7-1.7q0-0.1-0.1-0.3z"/><path class="b" d="m22.1 16.8q0 0.2-0.1 0.3c-0.7 0.8-4.7 1.4-9.6 1.4q-2.1 0-3.9-0.1c-1.8-0.2-3.4-0.4-4.4-0.7q-0.8-0.3-1.2-0.6-0.1-0.1-0.1-0.3 0-0.1 0.2-0.3c0.9-0.8 4.8-1.3 9.4-1.3q1.8 0 3.4 0.1 1.8 0.1 3.2 0.3 1.3 0.2 2.1 0.5c0.6 0.2 1 0.5 1 0.7z"/><path class="c" d="m12.4 18.3q-2 0-3.8-0.1c-1.9-0.2-3.4-0.4-4.4-0.7-0.7-0.2-1-0.4-1.1-0.5-0.1-0.1-0.1-0.1-0.1-0.2q0 0 0.1-0.1c0.4-0.4 1.6-0.7 3.2-1 1.7-0.2 3.9-0.3 6.1-0.3q1.8 0 3.4 0.1 1.8 0.1 3.2 0.3 1.2 0.2 2 0.5c0.9 0.3 0.9 0.5 0.9 0.5q0 0.1-0.1 0.1c-0.5 0.7-4.2 1.4-9.3 1.4z"/><path class="a" d="m22.3 19.2q-0.2 0.2-0.3 0.4c-0.9 0.8-4.8 1.4-9.6 1.4-4.7 0-8.6-0.6-9.5-1.4q0 0 0 0 0 0 0 0 0-0.1-0.1-0.1 0 0 0 0 0 0 0 0 0 0 0-0.1-0.1 0-0.1 0-0.1-0.1-0.2-0.2c0.9 0.9 5 1.5 9.9 1.5 5 0 9.1-0.6 9.9-1.5z"/><path class="d" d="m22.5 17.2v1.7c0 0.4-0.8 0.8-2.2 1.1-1.1 0.3-2.5 0.4-4.1 0.5q-1.8 0.2-3.8 0.2-1.1 0-2.2-0.1-0.3 0-0.6 0-1.8-0.1-3.2-0.3c-1.3-0.1-2.3-0.4-3-0.6-0.7-0.2-1-0.5-1-0.8v-1.7c0 0.3 0.4 0.6 1.1 0.8 0.7 0.3 1.8 0.5 3 0.6 1.1 0.2 2.3 0.3 3.7 0.3q0.2 0 0.4 0 0.9 0.1 1.8 0.1 2 0 3.8-0.2c1.7-0.1 3.1-0.3 4.2-0.5 1.3-0.3 2.1-0.7 2.1-1.1z"/><path class="c" d="m4.8 18.4v1.7q0.1 0 0.2 0v-1.7q-0.1 0-0.2 0z"/><path class="c" d="m5.6 18.5v1.7q0.1 0 0.3 0v-1.7q-0.2 0-0.3 0z"/><path class="c" d="m6.5 18.6v1.7q0.1 0 0.2 0.1v-1.7q-0.1-0.1-0.2-0.1z"/><path class="c" d="m7.3 18.7v1.7q0.1 0 0.2 0v-1.7q-0.1 0-0.2 0z"/><path class="c" d="m8.1 18.8v1.7q0.1 0 0.2 0v-1.7q-0.1 0-0.2 0z"/><path class="c" d="m8.9 18.9v1.7q0.1 0 0.2 0v-1.7q-0.1 0-0.2 0z"/><path class="c" d="m9.7 18.9v1.7q0.1 0 0.2 0v-1.7q-0.1 0-0.2 0z"/><path class="c" d="m10.5 18.9v1.7q0.1 0 0.2 0v-1.7q-0.1 0-0.2 0z"/><path class="c" d="m11.3 19v1.7q0.1 0 0.2 0v-1.7q-0.1 0-0.2 0z"/><path class="c" d="m12.1 19v1.7q0.1 0 0.2 0v-1.7q-0.1 0-0.2 0z"/><path class="c" d="m12.9 19v1.7q0.2 0 0.3 0v-1.7q-0.1 0-0.3 0z"/><path class="c" d="m13.8 19v1.7q0.1 0 0.2 0v-1.7q-0.1 0-0.2 0z"/><path class="c" d="m14.6 18.9v1.7q0.1 0 0.2 0v-1.7q-0.1 0-0.2 0z"/><path class="c" d="m15.4 18.9v1.7q0.1 0 0.2 0v-1.7q-0.1 0-0.2 0z"/><path class="c" d="m16.2 18.8v1.7q0.1 0 0.2 0v-1.7q-0.1 0-0.2 0z"/><path class="c" d="m17 18.8v1.7q0.1 0 0.2 0v-1.7q-0.1 0-0.2 0z"/><path class="c" d="m17.8 18.7v1.7q0.1 0 0.2 0v-1.7q-0.1 0-0.2 0z"/><path class="c" d="m18.6 18.6v1.7q0.1 0 0.2 0v-1.7q-0.1 0-0.2 0z"/><path class="c" d="m19.4 18.5v1.7q0.1 0 0.2-0.1v-1.7q-0.1 0.1-0.2 0.1z"/><path class="c" d="m20.3 18.3v1.7q0.1 0 0.2 0v-1.7q-0.1 0-0.2 0z"/><path class="c" d="m21.1 18.1v1.7q0.1 0 0.2 0v-1.7q-0.1 0-0.2 0z"/><path class="c" d="m21.9 17.8v1.7q0.1 0 0.2-0.1v-1.7q-0.1 0.1-0.2 0.1z"/><path class="e" d="m19 15.6l-16.1 1.5q-0.1-0.1-0.1-0.3 0-0.1 0.2-0.3l12.8-1.2q1.8 0.1 3.2 0.3z"/><path class="e" d="m22.1 16.8q0 0.2-0.1 0.3l-13.5 1.3c-1.8-0.2-3.4-0.4-4.4-0.7l17-1.6c0.6 0.2 1 0.5 1 0.7z"/><path class="f" d="m16.1 19.7q0 0.4 0.1 0.8-1.8 0.2-3.8 0.2-1.1 0-2.2-0.1c0.2-0.5 0.2-1.1 0-1.7q0.2 0 0.4 0 0.9 0.1 1.8 0.1 2 0 3.8-0.2c-0.1 0.3-0.1 0.6-0.1 0.9z"/><path class="f" d="m6.4 20.3c-1.3-0.1-2.3-0.4-3-0.6 0.1-0.3 0.1-0.7 0.1-0.8q0.1-0.4 0-0.8 0 0 0-0.1c0.7 0.3 1.8 0.5 3 0.6-0.2 0.6-0.2 1.2-0.1 1.7z"/><path class="f" d="m22.5 17.2v1.7c0 0.4-0.8 0.8-2.2 1.1q0.1-0.3 0.1-0.7 0.1-0.5 0-1c1.3-0.3 2.1-0.7 2.1-1.1z"/><path class="a" d="m22.8 13.8q0.2 0.2 0.4 0.4 0.1 0.2 0.1 0.3c0 1-4.5 1.8-10 1.8-5.6 0-10.1-0.8-10.1-1.8q0-0.1 0.1-0.3 0.1 0 0.1 0 0 0 0-0.1 0 0 0 0 0.1 0 0.1 0 0 0 0-0.1 0 0 0 0 0 0 0.1 0 0 0 0 0 0-0.1 0-0.1 0 0 0.1 0c0-0.1 0-0.1 0-0.1q-0.1 0.2-0.1 0.3c0 1 4.3 1.7 9.7 1.7 5.3 0 9.6-0.7 9.6-1.7q0-0.1-0.1-0.3z"/><path class="b" d="m22.9 14.1q0 0.2-0.1 0.3c-0.7 0.8-4.7 1.4-9.5 1.4q-2.1 0-4-0.1c-1.8-0.2-3.3-0.4-4.4-0.7q-0.8-0.3-1.2-0.6-0.1-0.1-0.1-0.3 0-0.2 0.2-0.3c0.9-0.8 4.8-1.4 9.5-1.4q1.8 0 3.4 0.2 1.7 0.1 3.1 0.3 1.3 0.2 2.1 0.5c0.6 0.2 1 0.5 1 0.7z"/><path class="c" d="m13.3 15.6q-2.1 0-3.9-0.2c-1.8-0.1-3.4-0.3-4.4-0.6-0.7-0.2-1-0.4-1.1-0.5 0-0.1-0.1-0.1-0.1-0.2q0 0 0.1-0.2c0.4-0.3 1.6-0.6 3.2-0.9 1.8-0.2 3.9-0.3 6.1-0.3h0.1q1.7 0 3.3 0.1 1.8 0.1 3.2 0.3 1.2 0.2 2 0.5c0.9 0.3 0.9 0.5 0.9 0.5q0 0.1 0 0.1c-0.6 0.7-4.3 1.4-9.4 1.4z"/><path class="a" d="m23.2 16.5q-0.2 0.2-0.4 0.4c-0.9 0.8-4.8 1.4-9.5 1.4-4.8 0-8.7-0.6-9.6-1.4q0 0 0 0 0 0 0 0 0-0.1-0.1-0.1 0 0 0 0 0 0 0 0 0-0.1 0-0.1-0.1 0-0.1 0-0.1-0.1-0.2-0.2c0.9 0.8 5 1.5 10 1.5 4.9 0 9-0.7 9.9-1.5z"/><path class="d" d="m23.3 14.5v1.7c0 0.4-0.8 0.8-2.2 1.1-1.1 0.2-2.5 0.4-4.1 0.5q-1.8 0.2-3.7 0.2-1.2 0-2.3-0.1-0.3 0-0.6 0-1.8-0.1-3.2-0.3c-1.3-0.2-2.3-0.4-3-0.6-0.7-0.3-1-0.5-1-0.8v-1.7c0 0.3 0.4 0.6 1.1 0.8 0.8 0.3 1.8 0.5 3 0.6 1.1 0.2 2.4 0.3 3.7 0.3q0.2 0 0.5 0 0.8 0.1 1.8 0.1 1.9 0 3.7-0.2c1.7-0.1 3.2-0.3 4.2-0.5 1.4-0.3 2.1-0.7 2.1-1.1z"/><path class="c" d="m4.8 15.5v1.7q0.1 0 0.2 0v-1.7q-0.1 0-0.2 0z"/><path class="c" d="m5.6 15.7v1.7q0.1 0 0.3 0v-1.7q-0.2 0-0.3 0z"/><path class="c" d="m6.5 15.8v1.7q0.1 0 0.2 0v-1.7q-0.1 0-0.2 0z"/><path class="c" d="m7.3 15.9v1.7q0.1 0 0.2 0v-1.7q-0.1 0-0.2 0z"/><path class="c" d="m8.1 16v1.7q0.1 0 0.2 0v-1.7q-0.1 0-0.2 0z"/><path class="c" d="m8.9 16.1v1.7q0.1 0 0.2 0v-1.7q-0.1 0-0.2 0z"/><path class="c" d="m9.7 16.2v1.7q0.1 0 0.2 0v-1.7q-0.1 0-0.2 0z"/><path class="c" d="m10.5 16.2v1.7q0.1 0 0.2 0v-1.7q-0.1 0-0.2 0z"/><path class="c" d="m11.3 16.2v1.7q0.1 0 0.2 0v-1.7q-0.1 0-0.2 0z"/><path class="c" d="m12.1 16.3v1.7q0.1 0 0.2 0v-1.7q-0.1 0-0.2 0z"/><path class="c" d="m13 16.3l-0.1 1.7q0.2 0 0.3 0v-1.7q-0.1 0-0.2 0z"/><path class="c" d="m13.8 16.3v1.7q0.1 0 0.2 0v-1.7q-0.1 0-0.2 0z"/><path class="c" d="m14.6 16.3v1.6q0.1 0 0.2 0v-1.7q-0.1 0-0.2 0.1z"/><path class="c" d="m15.4 16.2v1.7q0.1 0 0.2 0v-1.7q-0.1 0-0.2 0z"/><path class="c" d="m16.2 16.2v1.7q0.1 0 0.2 0v-1.7q-0.1 0-0.2 0z"/><path class="c" d="m17 16.1v1.7q0.1 0 0.2 0v-1.7q-0.1 0-0.2 0z"/><path class="c" d="m17.8 16.1v1.7q0.1 0 0.2 0v-1.7q-0.1 0-0.2 0z"/><path class="c" d="m18.6 16v1.7q0.1 0 0.2 0v-1.7q-0.1 0-0.2 0z"/><path class="c" d="m19.4 15.9v1.7q0.1 0 0.2 0v-1.7q-0.1 0-0.2 0z"/><path class="c" d="m20.3 15.8v1.7q0.1 0 0.2-0.1v-1.7q-0.1 0.1-0.2 0.1z"/><path class="c" d="m21.1 15.6v1.7q0.1 0 0.2 0v-1.7q-0.1 0-0.2 0z"/><path class="c" d="m21.9 15.4v1.7q0.1 0 0.2 0v-1.7q-0.1 0-0.2 0z"/><path class="c" d="m22.7 15.1v1.7q0.1 0 0.2-0.1v-1.7q-0.1 0.1-0.2 0.1z"/><path class="e" d="m19.8 12.9l-16.1 1.5q-0.1-0.1-0.1-0.3 0-0.2 0.2-0.3l12.9-1.2q1.7 0.1 3.1 0.3z"/><path class="e" d="m22.9 14.1q0 0.2-0.1 0.3l-13.5 1.3c-1.8-0.2-3.3-0.4-4.4-0.7l17-1.6c0.6 0.2 1 0.5 1 0.7z"/><path class="f" d="m16.9 17q0 0.4 0.1 0.8-1.8 0.2-3.7 0.2-1.2 0-2.3-0.1c0.2-0.5 0.2-1.1 0-1.7q0.2 0 0.5 0 0.8 0.1 1.8 0.1 1.9 0 3.7-0.2c-0.1 0.3-0.1 0.6-0.1 0.9z"/><path class="f" d="m7.2 17.6c-1.3-0.2-2.3-0.4-3-0.6 0.1-0.4 0.1-0.7 0.1-0.8q0.1-0.4 0-0.8 0-0.1 0-0.1c0.8 0.3 1.8 0.5 3 0.6-0.2 0.6-0.2 1.2-0.1 1.7z"/><path class="f" d="m23.3 14.5v1.7c0 0.4-0.8 0.8-2.2 1.1q0.1-0.4 0.1-0.7 0.1-0.5 0-1c1.4-0.3 2.1-0.7 2.1-1.1z"/><path class="g" d="m12.4 15.9l1.4 0.5-1.3-0.7 0.9-0.5-1 0.2 0.3-0.9-0.5 0.8-0.6-1.3 0.3 1.4-0.8-0.3 0.7 0.5-1.3 0.6 1.4-0.3-0.3 0.8 0.5-0.8 0.5 1z"/><path class="g" d="m4.7 23.2l1.5-0.5-1.6 0.3 0.4-1-0.6 0.8-0.3-0.9 0.1 0.9-1.3-0.6 1.2 0.9-0.9 0.3 0.9-0.1-0.6 1.3 0.9-1.2 0.2 0.9-0.1-0.9 1.1 0.4z"/><path class="a" d="m33.8 33q0.2 0.2 0.4 0.3 0.1 0.2 0.1 0.4c0 0.9-4.5 1.7-10 1.7-5.6 0-10.1-0.8-10.1-1.7q0-0.2 0.2-0.4 0 0 0 0 0 0 0 0 0.1 0 0.1-0.1 0 0 0 0 0 0 0 0 0 0 0.1 0 0 0 0-0.1 0 0 0 0 0 0 0.1 0 0 0 0-0.1c0.1 0 0.1 0 0.1 0q-0.2 0.1-0.2 0.3c0 0.9 4.3 1.6 9.7 1.6 5.3 0 9.6-0.7 9.6-1.6q0-0.2-0.1-0.3z"/><path class="b" d="m33.9 33.3q0 0.1-0.1 0.2c-0.7 0.8-4.7 1.4-9.5 1.4q-2.1 0-3.9-0.1c-1.9-0.1-3.4-0.4-4.4-0.7q-0.9-0.2-1.2-0.5-0.2-0.2-0.2-0.3 0-0.2 0.2-0.4c0.9-0.7 4.8-1.3 9.5-1.3q1.8 0 3.4 0.1 1.8 0.1 3.1 0.3 1.3 0.2 2.1 0.5c0.7 0.2 1 0.5 1 0.8z"/><path class="c" d="m24.3 34.7q-2.1 0-3.9-0.1c-1.8-0.1-3.4-0.4-4.4-0.7-0.7-0.2-1-0.4-1.1-0.5 0 0-0.1-0.1-0.1-0.1q0-0.1 0.2-0.2c0.4-0.4 1.5-0.7 3.2-0.9 1.7-0.3 3.8-0.4 6.1-0.4q1.7 0 3.4 0.1 1.7 0.1 3.1 0.3 1.3 0.3 2 0.5c0.9 0.3 0.9 0.5 0.9 0.6q0 0 0 0.1c-0.6 0.6-4.3 1.3-9.4 1.3z"/><path class="a" d="m34.2 35.7q-0.2 0.2-0.4 0.4c-0.8 0.7-4.8 1.3-9.5 1.3-4.8 0-8.7-0.6-9.5-1.3q0-0.1-0.1-0.1 0 0 0 0 0 0 0 0 0-0.1 0-0.1-0.1 0-0.1 0 0 0 0 0 0 0 0-0.1-0.1 0-0.2-0.1c0.8 0.8 4.9 1.4 9.9 1.4 4.9 0 9-0.6 9.9-1.4z"/><path class="d" d="m34.3 33.7v1.7c0 0.4-0.8 0.8-2.2 1.1-1.1 0.2-2.5 0.4-4.1 0.5q-1.7 0.1-3.7 0.1-1.2 0-2.3 0-0.3-0.1-0.6-0.1-1.8-0.1-3.2-0.2c-1.2-0.2-2.3-0.4-3-0.7-0.6-0.2-1-0.5-1-0.7v-1.7c0 0.3 0.4 0.5 1.2 0.8 0.7 0.2 1.7 0.4 2.9 0.6 1.1 0.1 2.4 0.2 3.7 0.3q0.3 0 0.5 0 0.9 0 1.8 0 2 0 3.7-0.1c1.7-0.1 3.2-0.3 4.3-0.6 1.3-0.3 2-0.6 2-1z"/><path class="c" d="m14.2 33.8v1.7q0.1 0.1 0.2 0.2v-1.7q-0.1-0.1-0.2-0.2z"/><path class="c" d="m15.1 34.4v1.7q0 0 0.2 0v-1.7q-0.2 0-0.2 0z"/><path class="c" d="m15.9 34.6v1.7q0.1 0 0.2 0.1v-1.7q-0.1-0.1-0.2-0.1z"/><path class="c" d="m16.7 34.8v1.7q0.1 0 0.2 0v-1.7q-0.1 0-0.2 0z"/><path class="c" d="m17.5 34.9v1.7q0.1 0.1 0.2 0.1v-1.7q-0.1 0-0.2-0.1z"/><path class="c" d="m18.3 35.1v1.7q0.1 0 0.2 0v-1.7q-0.1 0-0.2 0z"/><path class="c" d="m19.1 35.2v1.7q0.1 0 0.2 0v-1.7q-0.1 0-0.2 0z"/><path class="c" d="m19.9 35.2v1.7q0.1 0 0.2 0.1v-1.7q-0.1-0.1-0.2-0.1z"/><path class="c" d="m20.7 35.3v1.7q0.1 0 0.2 0v-1.7q-0.1 0-0.2 0z"/><path class="c" d="m21.5 35.3v1.7q0.1 0 0.2 0.1v-1.7q-0.1-0.1-0.2-0.1z"/><path class="c" d="m22.4 35.4v1.7q0.1 0 0.2 0v-1.7q-0.1 0-0.2 0z"/><path class="c" d="m23.2 35.4v1.7q0.1 0 0.2 0v-1.7q-0.1 0-0.2 0z"/><path class="c" d="m24 35.4v1.7q0.1 0 0.2 0v-1.7q-0.1 0-0.2 0z"/><path class="c" d="m24.8 35.4v1.7q0.1 0 0.2 0v-1.7q-0.1 0-0.2 0z"/><path class="c" d="m25.6 35.4v1.7q0.1 0 0.2 0v-1.7q-0.1 0-0.2 0z"/><path class="c" d="m26.4 35.4v1.7q0.1 0 0.2 0v-1.7q-0.1 0-0.2 0z"/><path class="c" d="m27.2 35.3v1.7q0.1 0 0.2 0v-1.7q-0.1 0-0.2 0z"/><path class="c" d="m28 35.3v1.7q0.1 0 0.2 0v-1.7q-0.1 0-0.2 0z"/><path class="c" d="m28.8 35.2v1.7q0.1 0 0.2 0v-1.7q-0.1 0-0.2 0z"/><path class="c" d="m29.7 35.1v1.7q0.1 0 0.2 0v-1.7q-0.1 0-0.2 0z"/><path class="c" d="m30.5 35v1.7q0.1 0 0.2 0v-1.7q-0.1 0-0.2 0z"/><path class="c" d="m31.3 34.9v1.7q0.1 0 0.2 0v-1.7q-0.1 0-0.2 0z"/><path class="c" d="m32.1 34.8v1.7q0.1-0.1 0.2-0.1v-1.7q-0.1 0-0.2 0.1z"/><path class="c" d="m32.9 34.6v1.7q0.1-0.1 0.2-0.1v-1.7q-0.1 0-0.2 0.1z"/><path class="c" d="m33.7 34.3v1.7q0.1-0.1 0.2-0.1v-1.7q-0.1 0-0.2 0.1z"/><path class="e" d="m30.8 32l-16 1.6q-0.2-0.2-0.2-0.3 0-0.2 0.2-0.4l12.9-1.2q1.8 0.1 3.1 0.3z"/><path class="e" d="m33.9 33.3q0 0.1-0.1 0.2l-13.4 1.3c-1.9-0.1-3.4-0.4-4.4-0.7l16.9-1.6c0.7 0.2 1 0.5 1 0.8z"/><path class="f" d="m27.9 36.1q0 0.5 0.1 0.9-1.7 0.1-3.7 0.1-1.2 0-2.3 0c0.2-0.6 0.2-1.2 0-1.7q0.3 0 0.5 0 0.9 0 1.8 0 2 0 3.7-0.1c-0.1 0.3-0.1 0.5-0.1 0.8z"/><path class="f" d="m18.2 36.8c-1.2-0.2-2.3-0.4-3-0.7 0.1-0.3 0.2-0.6 0.2-0.7q0-0.5 0-0.9 0 0 0 0c0.7 0.2 1.7 0.4 2.9 0.6-0.2 0.5-0.2 1.1-0.1 1.7z"/><path class="f" d="m34.3 33.7v1.7c0 0.4-0.8 0.8-2.2 1.1q0.1-0.4 0.2-0.8 0-0.5 0-1c1.3-0.3 2-0.6 2-1z"/><path class="a" d="m35.9 30.9q0.2 0.2 0.4 0.4 0.1 0.2 0.1 0.3c0 1-4.5 1.8-10 1.8-5.6 0-10.1-0.8-10.1-1.8q0-0.1 0.2-0.3 0 0 0 0 0 0 0 0 0.1-0.1 0.1-0.1 0 0 0 0 0 0 0 0 0 0 0-0.1 0.1 0 0.1 0 0 0 0 0 0 0 0-0.1 0.1 0 0.1 0c0.1-0.1 0.1-0.1 0.1-0.1q-0.2 0.2-0.2 0.3c0 1 4.3 1.7 9.7 1.7 5.3 0 9.6-0.7 9.6-1.7q0-0.1-0.1-0.3z"/><path class="b" d="m36 31.2q0 0.2-0.1 0.3c-0.7 0.8-4.7 1.4-9.5 1.4q-2.1 0-3.9-0.1c-1.9-0.2-3.4-0.4-4.4-0.7q-0.9-0.3-1.2-0.6-0.2-0.1-0.2-0.3 0-0.1 0.2-0.3c0.9-0.8 4.8-1.3 9.5-1.3q1.8 0 3.4 0.1 1.8 0.1 3.1 0.3 1.3 0.2 2.1 0.5c0.7 0.2 1 0.5 1 0.7z"/><path class="c" d="m26.4 32.7q-2.1 0-3.9-0.1c-1.8-0.2-3.4-0.4-4.4-0.7-0.7-0.2-1-0.4-1.1-0.5 0 0-0.1-0.1-0.1-0.2q0 0 0.2-0.1c0.4-0.4 1.5-0.7 3.2-0.9 1.7-0.3 3.8-0.4 6.1-0.4q1.7 0 3.4 0.1 1.7 0.1 3.1 0.3 1.3 0.2 2 0.5c0.9 0.3 0.9 0.5 0.9 0.5q0 0.1 0 0.2c-0.6 0.6-4.3 1.3-9.4 1.3z"/><path class="a" d="m36.3 33.6q-0.2 0.2-0.4 0.4c-0.8 0.8-4.8 1.4-9.5 1.4-4.8 0-8.7-0.6-9.5-1.4q-0.1 0-0.1 0 0 0 0 0 0-0.1 0-0.1 0 0-0.1 0 0 0 0 0 0 0 0 0 0-0.1-0.1-0.1 0-0.1-0.1-0.2c0.8 0.9 4.9 1.5 9.9 1.5 4.9 0 9-0.6 9.9-1.5z"/><path class="d" d="m36.4 31.6v1.7c0 0.4-0.8 0.8-2.2 1.1-1.1 0.3-2.5 0.4-4.1 0.6q-1.7 0.1-3.7 0.1-1.2 0-2.3-0.1-0.3 0-0.6 0-1.8-0.1-3.2-0.3c-1.3-0.1-2.3-0.4-3-0.6-0.6-0.2-1-0.5-1-0.8v-1.7c0 0.3 0.4 0.6 1.2 0.8 0.7 0.3 1.7 0.5 2.9 0.6 1.1 0.2 2.4 0.3 3.7 0.3q0.3 0 0.5 0.1 0.9 0 1.8 0 2 0 3.7-0.1c1.7-0.2 3.2-0.4 4.3-0.6 1.3-0.3 2-0.7 2-1.1z"/><path class="c" d="m16.3 31.8v1.7q0.1 0.1 0.2 0.2v-1.7q-0.1-0.1-0.2-0.2z"/><path class="c" d="m17.2 32.3l-0.1 1.7q0.1 0.1 0.3 0.1v-1.7q-0.2 0-0.2-0.1z"/><path class="c" d="m18 32.6v1.7q0.1 0 0.2 0v-1.7q-0.1 0-0.2 0z"/><path class="c" d="m18.8 32.8v1.7q0.1 0 0.2 0v-1.7q-0.1 0-0.2 0z"/><path class="c" d="m19.6 32.9v1.7q0.1 0 0.2 0.1v-1.7q-0.1-0.1-0.2-0.1z"/><path class="c" d="m20.4 33v1.7q0.1 0 0.2 0.1v-1.7q-0.1-0.1-0.2-0.1z"/><path class="c" d="m21.2 33.1v1.7q0.1 0 0.2 0.1v-1.7q-0.1-0.1-0.2-0.1z"/><path class="c" d="m22 33.2v1.7q0.1 0 0.2 0v-1.7q-0.1 0-0.2 0z"/><path class="c" d="m22.8 33.3v1.7q0.1 0 0.2 0v-1.7q-0.1 0-0.2 0z"/><path class="c" d="m23.6 33.3v1.7q0.1 0 0.2 0v-1.7q-0.1 0-0.2 0z"/><path class="c" d="m24.5 33.3v1.7q0.1 0 0.2 0.1v-1.7q-0.1-0.1-0.2-0.1z"/><path class="c" d="m25.3 33.4v1.7q0.1 0 0.2 0v-1.7q-0.1 0-0.2 0z"/><path class="c" d="m26.1 33.4v1.7q0.1 0 0.2 0v-1.7q-0.1 0-0.2 0z"/><path class="c" d="m26.9 33.4v1.7q0.1 0 0.2 0v-1.7q-0.1 0-0.2 0z"/><path class="c" d="m27.7 33.4v1.7q0.1 0 0.2 0v-1.7q-0.1 0-0.2 0z"/><path class="c" d="m28.5 33.3v1.7q0.1 0 0.2 0v-1.7q-0.1 0-0.2 0z"/><path class="c" d="m29.3 33.3v1.7q0.1 0 0.2 0v-1.7q-0.1 0-0.2 0z"/><path class="c" d="m30.1 33.3v1.7q0.1-0.1 0.2-0.1v-1.7q-0.1 0-0.2 0.1z"/><path class="c" d="m30.9 33.2v1.7q0.1 0 0.2 0v-1.7q-0.1 0-0.2 0z"/><path class="c" d="m31.8 33.1v1.7q0.1 0 0.2 0v-1.7q-0.1 0-0.2 0z"/><path class="c" d="m32.6 33v1.7q0.1 0 0.2 0v-1.7q-0.1 0-0.2 0z"/><path class="c" d="m33.4 32.9v1.7q0.1 0 0.2 0v-1.7q-0.1 0-0.2 0z"/><path class="c" d="m34.2 32.7v1.7q0.1 0 0.2 0v-1.7q-0.1 0-0.2 0z"/><path class="c" d="m35 32.5v1.7q0.1 0 0.2 0v-1.7q-0.1 0-0.2 0z"/><path class="c" d="m35.8 32.2v1.7q0.1 0 0.2-0.1v-1.7q-0.1 0.1-0.2 0.1z"/><path class="e" d="m32.9 30l-16 1.5q-0.2-0.1-0.2-0.3 0-0.1 0.2-0.3l12.9-1.2q1.8 0.1 3.1 0.3z"/><path class="e" d="m36 31.2q0 0.2-0.1 0.3l-13.4 1.3c-1.9-0.2-3.4-0.4-4.4-0.7l16.9-1.6c0.7 0.2 1 0.5 1 0.7z"/><path class="g" d="m36 31.8l1.3 0.5-1.2-0.7 0.8-0.5-0.9 0.3 0.3-0.8-0.5 0.7-0.6-1.2 0.4 1.3-0.8-0.3 0.7 0.5-1.2 0.6 1.3-0.4-0.3 0.8 0.4-0.7 0.5 0.9z"/><path class="f" d="m30 34.1q0 0.4 0.1 0.9-1.7 0.1-3.7 0.1-1.2 0-2.3-0.1c0.2-0.5 0.2-1.1 0-1.7q0.3 0 0.5 0.1 0.9 0 1.8 0 2 0 3.7-0.1c-0.1 0.2-0.1 0.5-0.1 0.8z"/><path class="f" d="m20.3 34.7c-1.3-0.1-2.3-0.4-3-0.6 0.1-0.3 0.2-0.7 0.2-0.8q0-0.4 0-0.8 0 0 0-0.1c0.7 0.3 1.7 0.5 2.9 0.6-0.2 0.6-0.2 1.2-0.1 1.7z"/><path class="f" d="m36.4 31.6v1.7c0 0.4-0.8 0.8-2.2 1.1q0.1-0.3 0.2-0.7 0-0.5 0-1c1.3-0.3 2-0.7 2-1.1z"/><path class="a" d="m35.3 28q0.2 0.2 0.4 0.4 0.1 0.2 0.1 0.3c0 1-4.5 1.8-10 1.8-5.6 0-10.1-0.8-10.1-1.8q0-0.1 0.2-0.3 0 0 0 0 0 0 0-0.1 0 0 0.1 0 0 0 0 0 0 0 0 0 0-0.1 0-0.1 0.1 0 0.1 0 0 0 0 0 0 0 0-0.1 0.1 0 0.1 0c0.1-0.1 0.1-0.1 0.1-0.1q-0.2 0.2-0.2 0.3c0 1 4.3 1.7 9.7 1.7 5.3 0 9.6-0.7 9.6-1.7q0-0.1-0.1-0.3z"/><path class="b" d="m35.4 28.3q0 0.2-0.1 0.3c-0.7 0.8-4.7 1.4-9.5 1.4q-2.1 0-3.9-0.1c-1.9-0.2-3.4-0.4-4.5-0.7q-0.8-0.3-1.1-0.6-0.2-0.1-0.2-0.3 0-0.1 0.2-0.3c0.9-0.8 4.8-1.3 9.5-1.3q1.8 0 3.4 0.1 1.8 0.1 3.1 0.3 1.3 0.2 2.1 0.5c0.7 0.2 1 0.5 1 0.7z"/><path class="c" d="m25.8 29.8q-2.1 0-3.9-0.1c-1.8-0.2-3.4-0.4-4.4-0.7-0.7-0.2-1-0.4-1.1-0.5 0-0.1-0.1-0.1-0.1-0.2q0 0 0.1-0.1c0.5-0.4 1.6-0.7 3.3-1 1.7-0.2 3.8-0.3 6.1-0.3q1.7 0 3.4 0.1 1.7 0.1 3.1 0.3 1.3 0.2 2 0.5c0.9 0.3 0.9 0.5 0.9 0.5q0 0.1 0 0.1c-0.6 0.7-4.3 1.4-9.4 1.4z"/><path class="a" d="m35.7 30.7q-0.2 0.2-0.4 0.4c-0.8 0.8-4.8 1.4-9.5 1.4-4.8 0-8.7-0.6-9.5-1.4q-0.1 0-0.1 0 0 0 0 0 0-0.1 0-0.1-0.1 0-0.1 0 0 0 0 0 0 0 0-0.1 0 0-0.1 0 0-0.1-0.1-0.2c0.8 0.9 4.9 1.5 9.9 1.5 4.9 0 9-0.6 9.9-1.5z"/><path class="d" d="m35.8 28.7v1.7c0 0.4-0.8 0.8-2.2 1.1-1.1 0.3-2.5 0.4-4.1 0.5q-1.8 0.2-3.7 0.2-1.2 0-2.3-0.1-0.3 0-0.6 0-1.8-0.1-3.2-0.3c-1.3-0.2-2.3-0.4-3-0.6-0.6-0.2-1-0.5-1-0.8v-1.7c0 0.3 0.4 0.6 1.2 0.8 0.7 0.3 1.7 0.5 2.9 0.6 1.1 0.2 2.4 0.3 3.7 0.3q0.2 0 0.5 0 0.8 0.1 1.8 0.1 2 0 3.7-0.2c1.7-0.1 3.2-0.3 4.3-0.5 1.3-0.3 2-0.7 2-1.1z"/><path class="c" d="m15.7 28.9v1.7q0.1 0.1 0.2 0.2v-1.7q-0.1-0.1-0.2-0.2z"/><path class="c" d="m16.5 29.4v1.7q0.1 0.1 0.2 0.1v-1.7q-0.1 0-0.2-0.1z"/><path class="c" d="m17.4 29.7v1.7q0.1 0 0.2 0v-1.7q-0.1 0-0.2 0z"/><path class="c" d="m18.2 29.9v1.7q0.1 0 0.2 0v-1.7q-0.1 0-0.2 0z"/><path class="c" d="m19 30v1.7q0.1 0 0.2 0v-1.7q-0.1 0-0.2 0z"/><path class="c" d="m19.8 30.1v1.7q0.1 0 0.2 0.1v-1.7q-0.1-0.1-0.2-0.1z"/><path class="c" d="m20.6 30.2v1.7q0.1 0 0.2 0v-1.7q-0.1 0-0.2 0z"/><path class="c" d="m21.4 30.3v1.7q0.1 0 0.2 0v-1.7q-0.1 0-0.2 0z"/><path class="c" d="m22.2 30.4v1.7q0.1 0 0.2 0v-1.7q-0.1 0-0.2 0z"/><path class="c" d="m23 30.4v1.7q0.1 0 0.2 0v-1.7q-0.1 0-0.2 0z"/><path class="c" d="m23.8 30.4v1.7q0.1 0 0.2 0v-1.7q-0.1 0-0.2 0z"/><path class="c" d="m24.7 30.5v1.7q0.1 0 0.2 0v-1.7q-0.1 0-0.2 0z"/><path class="c" d="m25.5 30.5v1.7q0.1 0 0.2 0v-1.7q-0.1 0-0.2 0z"/><path class="c" d="m26.3 30.5v1.7q0.1 0 0.2 0v-1.7q-0.1 0-0.2 0z"/><path class="c" d="m27.1 30.5v1.7q0.1 0 0.2-0.1v-1.6q-0.1 0-0.2 0z"/><path class="c" d="m27.9 30.4v1.7q0.1 0 0.2 0v-1.7q-0.1 0-0.2 0z"/><path class="c" d="m28.7 30.4v1.7q0.1 0 0.2 0v-1.7q-0.1 0-0.2 0z"/><path class="c" d="m29.5 30.3v1.7q0.1 0 0.2 0v-1.7q-0.1 0-0.2 0z"/><path class="c" d="m30.3 30.3v1.7q0.1 0 0.2 0v-1.7q-0.1 0-0.2 0z"/><path class="c" d="m31.1 30.2v1.7q0.1 0 0.2 0v-1.7q-0.1 0-0.2 0z"/><path class="c" d="m32 30.1v1.7q0.1 0 0.2 0v-1.7q-0.1 0-0.2 0z"/><path class="c" d="m32.8 30v1.7q0.1 0 0.2-0.1v-1.7q-0.1 0.1-0.2 0.1z"/><path class="c" d="m33.6 29.8v1.7q0.1 0 0.2 0v-1.7q-0.1 0-0.2 0z"/><path class="c" d="m34.4 29.6v1.7q0.1 0 0.2 0v-1.7q-0.1 0-0.2 0z"/><path class="c" d="m35.2 29.3v1.7q0.1 0 0.2-0.1v-1.7q-0.1 0.1-0.2 0.1z"/><path class="e" d="m32.3 27.1l-16 1.5q-0.2-0.1-0.2-0.3 0-0.1 0.2-0.3l12.9-1.2q1.8 0.1 3.1 0.3z"/><path class="e" d="m35.4 28.3q0 0.2-0.1 0.3l-13.4 1.3c-1.9-0.2-3.4-0.4-4.5-0.7l17-1.6c0.7 0.2 1 0.5 1 0.7z"/><path class="f" d="m29.4 31.2q0 0.4 0.1 0.8-1.8 0.2-3.7 0.2-1.2 0-2.3-0.1c0.2-0.5 0.2-1.1 0-1.7q0.2 0 0.5 0 0.8 0.1 1.8 0.1 2 0 3.7-0.2c-0.1 0.3-0.1 0.6-0.1 0.9z"/><path class="f" d="m19.7 31.8c-1.3-0.2-2.3-0.4-3-0.6 0.1-0.3 0.2-0.7 0.2-0.8q0-0.4 0-0.8 0 0 0-0.1c0.7 0.3 1.7 0.5 2.9 0.6-0.2 0.6-0.2 1.2-0.1 1.7z"/><path class="f" d="m35.8 28.7v1.7c0 0.4-0.8 0.8-2.2 1.1q0.1-0.3 0.2-0.7 0-0.5 0-1c1.3-0.3 2-0.7 2-1.1z"/><path class="a" d="m36.1 25.3q0.2 0.2 0.4 0.4 0.1 0.2 0.1 0.3c0 1-4.5 1.8-10 1.8-5.6 0-10.1-0.8-10.1-1.8q0-0.1 0.2-0.3 0 0 0 0 0 0 0-0.1 0.1 0 0.1 0 0 0 0 0 0 0 0-0.1 0 0 0.1 0 0 0 0 0 0 0 0 0 0-0.1 0.1-0.1 0 0 0 0c0.1-0.1 0.1-0.1 0.1-0.1q-0.2 0.2-0.2 0.3c0 1 4.3 1.7 9.7 1.7 5.3 0 9.6-0.7 9.6-1.7q0-0.1-0.1-0.3z"/><path class="b" d="m36.2 25.6q0 0.2-0.1 0.3c-0.7 0.8-4.7 1.4-9.5 1.4q-2.1 0-3.9-0.1c-1.9-0.2-3.4-0.4-4.4-0.7q-0.9-0.3-1.2-0.6-0.2-0.1-0.2-0.3 0-0.2 0.2-0.3c0.9-0.8 4.8-1.4 9.5-1.4q1.8 0 3.4 0.2 1.8 0.1 3.1 0.3 1.3 0.2 2.1 0.5c0.7 0.2 1 0.5 1 0.7z"/><path class="c" d="m26.6 27.1q-2.1 0-3.9-0.2c-1.8-0.1-3.4-0.3-4.4-0.6-0.7-0.2-1-0.4-1.1-0.5 0-0.1-0.1-0.1-0.1-0.2q0-0.1 0.2-0.2c0.4-0.3 1.5-0.6 3.2-0.9 1.7-0.2 3.8-0.3 6.1-0.3q1.7 0 3.4 0.1 1.7 0.1 3.1 0.3 1.3 0.2 2 0.5c0.9 0.3 0.9 0.5 0.9 0.5q0 0.1 0 0.1c-0.6 0.7-4.3 1.4-9.4 1.4z"/><path class="a" d="m36.5 28q-0.2 0.2-0.4 0.4c-0.8 0.8-4.8 1.4-9.5 1.4-4.8 0-8.7-0.6-9.5-1.4q-0.1 0-0.1 0 0 0 0 0 0-0.1 0-0.1 0 0 0 0-0.1 0-0.1 0 0-0.1 0-0.1 0 0 0 0-0.1-0.1-0.2-0.2c0.8 0.8 4.9 1.5 9.9 1.5 4.9 0 9-0.7 9.9-1.5z"/><path class="d" d="m36.6 26v1.7c0 0.4-0.8 0.8-2.2 1.1-1.1 0.2-2.5 0.4-4.1 0.5q-1.7 0.2-3.7 0.2-1.2 0-2.3-0.1-0.3 0-0.6 0-1.8-0.1-3.2-0.3c-1.3-0.2-2.3-0.4-3-0.6-0.6-0.3-1-0.5-1-0.8v-1.7c0 0.3 0.4 0.6 1.2 0.8 0.7 0.3 1.7 0.5 2.9 0.6 1.1 0.2 2.4 0.3 3.7 0.3q0.3 0 0.5 0 0.9 0.1 1.8 0.1 2 0 3.7-0.2c1.7-0.1 3.2-0.3 4.3-0.5 1.3-0.3 2-0.7 2-1.1z"/><path class="c" d="m16.5 26.2v1.7q0.1 0.1 0.2 0.2v-1.7q-0.1-0.1-0.2-0.2z"/><path class="c" d="m17.4 26.7v1.7q0 0.1 0.2 0.1v-1.7q-0.2 0-0.2-0.1z"/><path class="c" d="m18.2 27v1.7q0.1 0 0.2 0v-1.7q-0.1 0-0.2 0z"/><path class="c" d="m19 27.2v1.7q0.1 0 0.2 0v-1.7q-0.1 0-0.2 0z"/><path class="c" d="m19.8 27.3v1.7q0.1 0 0.2 0v-1.7q-0.1 0-0.2 0z"/><path class="c" d="m20.6 27.4v1.7q0.1 0 0.2 0v-1.7q-0.1 0-0.2 0z"/><path class="c" d="m21.4 27.5v1.7q0.1 0 0.2 0v-1.7q-0.1 0-0.2 0z"/><path class="c" d="m22.2 27.6v1.7q0.1 0 0.2 0v-1.7q-0.1 0-0.2 0z"/><path class="c" d="m23 27.7v1.7q0.1 0 0.2 0v-1.7q-0.1 0-0.2 0z"/><path class="c" d="m23.8 27.7v1.7q0.1 0 0.2 0v-1.7q-0.1 0-0.2 0z"/><path class="c" d="m24.7 27.7v1.7q0.1 0 0.2 0v-1.7q-0.1 0-0.2 0z"/><path class="c" d="m25.5 27.8v1.7q0.1 0 0.2 0v-1.7q-0.1 0-0.2 0z"/><path class="c" d="m26.3 27.8v1.7q0.1 0 0.2 0v-1.7q-0.1 0-0.2 0z"/><path class="c" d="m27.1 27.8v1.7q0.1 0 0.2 0v-1.7q-0.1 0-0.2 0z"/><path class="c" d="m27.9 27.7v1.7q0.1 0 0.2 0v-1.7q-0.1 0-0.2 0z"/><path class="c" d="m28.7 27.7v1.7q0.1 0 0.2 0v-1.7q-0.1 0-0.2 0z"/><path class="c" d="m29.5 27.7v1.7q0.1 0 0.2 0v-1.7q-0.1 0-0.2 0z"/><path class="c" d="m30.3 27.6v1.7q0.1 0 0.2 0v-1.7q-0.1 0-0.2 0z"/><path class="c" d="m31.1 27.6v1.7q0.1 0 0.2 0v-1.7q-0.1 0-0.2 0z"/><path class="c" d="m32 27.5v1.7q0.1 0 0.2 0v-1.7q-0.1 0-0.2 0z"/><path class="c" d="m32.8 27.4v1.7q0.1 0 0.2 0v-1.7q-0.1 0-0.2 0z"/><path class="c" d="m33.6 27.3v1.7q0.1 0 0.2-0.1v-1.7q-0.1 0.1-0.2 0.1z"/><path class="c" d="m34.4 27.1v1.7q0.1 0 0.2 0v-1.7q-0.1 0-0.2 0z"/><path class="c" d="m35.2 26.9v1.7q0.1 0 0.2 0v-1.7q-0.1 0-0.2 0z"/><path class="c" d="m36 26.6v1.7q0.1 0 0.2-0.1v-1.7q-0.1 0.1-0.2 0.1z"/><path class="e" d="m33.1 24.4l-16 1.5q-0.2-0.1-0.2-0.3 0-0.2 0.2-0.3l12.9-1.2q1.8 0.1 3.1 0.3z"/><path class="e" d="m36.2 25.6q0 0.2-0.1 0.3l-13.4 1.3c-1.9-0.2-3.4-0.4-4.4-0.7l16.9-1.6c0.7 0.2 1 0.5 1 0.7z"/><path class="f" d="m30.2 28.5q0 0.4 0.1 0.8-1.7 0.2-3.7 0.2-1.2 0-2.3-0.1c0.2-0.5 0.2-1.1 0-1.7q0.3 0 0.5 0 0.9 0.1 1.8 0.1 2 0 3.7-0.2c-0.1 0.3-0.1 0.6-0.1 0.9z"/><path class="f" d="m20.5 29.1c-1.3-0.2-2.3-0.4-3-0.6 0.1-0.4 0.2-0.7 0.2-0.8q0-0.4 0-0.8 0-0.1 0-0.1c0.7 0.3 1.7 0.5 2.9 0.6-0.2 0.6-0.2 1.2-0.1 1.7z"/><path class="f" d="m36.6 26v1.7c0 0.4-0.8 0.8-2.2 1.1q0.1-0.4 0.2-0.7 0-0.5 0-1c1.3-0.3 2-0.7 2-1.1z"/><path class="a" d="m35.1 22.4q0.2 0.2 0.4 0.4 0.1 0.1 0.1 0.3c0 1-4.5 1.8-10 1.8-5.6 0-10.1-0.8-10.1-1.8q0-0.2 0.2-0.3 0 0 0 0 0-0.1 0-0.1 0 0 0.1 0 0 0 0 0 0 0 0-0.1 0 0 0 0 0.1 0 0.1 0 0 0 0-0.1 0 0 0 0 0.1 0 0.1 0c0.1-0.1 0.1-0.1 0.1-0.1q-0.2 0.2-0.2 0.3c0 0.9 4.3 1.7 9.7 1.7 5.3 0 9.6-0.8 9.6-1.7q0-0.1-0.1-0.3z"/><path class="b" d="m35.2 22.7q0 0.1-0.1 0.3c-0.7 0.8-4.7 1.4-9.5 1.4q-2.1 0-3.9-0.1c-1.9-0.2-3.4-0.4-4.5-0.7q-0.8-0.3-1.1-0.6-0.2-0.1-0.2-0.3 0-0.2 0.2-0.3c0.9-0.8 4.8-1.4 9.5-1.4q1.8 0 3.4 0.1 1.8 0.2 3.1 0.4 1.3 0.2 2.1 0.5c0.7 0.2 1 0.4 1 0.7z"/><path class="c" d="m25.6 24.2q-2.1 0-3.9-0.2c-1.8-0.1-3.4-0.3-4.4-0.6-0.7-0.2-1-0.4-1.1-0.5 0-0.1-0.1-0.1-0.1-0.2q0-0.1 0.1-0.2c0.4-0.3 1.6-0.6 3.3-0.9 1.7-0.2 3.8-0.3 6.1-0.3q1.7 0 3.3 0.1 1.8 0.1 3.2 0.3 1.2 0.2 2 0.5c0.9 0.3 0.9 0.5 0.9 0.5q0 0.1 0 0.1c-0.6 0.7-4.3 1.4-9.4 1.4z"/><path class="a" d="m35.5 25.1q-0.2 0.2-0.4 0.4c-0.8 0.8-4.8 1.4-9.5 1.4-4.8 0-8.7-0.6-9.5-1.4q-0.1 0-0.1 0 0 0 0-0.1 0 0 0 0-0.1 0-0.1 0 0 0 0-0.1 0 0 0 0 0 0-0.1 0-0.1-0.1-0.1-0.2c0.8 0.8 4.9 1.5 9.9 1.5 4.9 0 9-0.7 9.9-1.5z"/><path class="d" d="m35.6 23.1v1.7c0 0.4-0.8 0.8-2.2 1.1-1.1 0.2-2.5 0.4-4.1 0.5q-1.8 0.2-3.7 0.2-1.2 0-2.3-0.1-0.3 0-0.6 0-1.8-0.1-3.2-0.3c-1.3-0.2-2.3-0.4-3-0.6-0.6-0.3-1-0.5-1-0.8v-1.7c0 0.3 0.4 0.6 1.2 0.8 0.7 0.3 1.7 0.5 2.9 0.6 1.1 0.2 2.4 0.3 3.7 0.3q0.2 0 0.5 0 0.8 0.1 1.8 0.1 2 0 3.7-0.2c1.7-0.1 3.2-0.3 4.3-0.5 1.3-0.3 2-0.7 2-1.1z"/><path class="c" d="m15.5 23.2v1.7q0.1 0.2 0.2 0.3v-1.7q-0.1-0.1-0.2-0.3z"/><path class="c" d="m16.3 23.8v1.7q0.1 0 0.2 0.1v-1.7q-0.1-0.1-0.2-0.1z"/><path class="c" d="m17.1 24.1v1.7q0.1 0 0.3 0v-1.7q-0.2 0-0.3 0z"/><path class="c" d="m18 24.3v1.7q0.1 0 0.2 0v-1.7q-0.1 0-0.2 0z"/><path class="c" d="m18.8 24.4v1.7q0.1 0 0.2 0v-1.7q-0.1 0-0.2 0z"/><path class="c" d="m19.6 24.5v1.7q0.1 0 0.2 0v-1.7q-0.1 0-0.2 0z"/><path class="c" d="m20.4 24.6v1.7q0.1 0 0.2 0v-1.7q-0.1 0-0.2 0z"/><path class="c" d="m21.2 24.7v1.7q0.1 0 0.2 0v-1.7q-0.1 0-0.2 0z"/><path class="c" d="m22 24.7v1.7q0.1 0 0.2 0.1v-1.7q-0.1 0-0.2-0.1z"/><path class="c" d="m22.8 24.8v1.7q0.1 0 0.2 0v-1.7q-0.1 0-0.2 0z"/><path class="c" d="m23.6 24.8v1.7q0.1 0 0.2 0v-1.7q-0.1 0-0.2 0z"/><path class="c" d="m24.4 24.8v1.7q0.2 0 0.3 0v-1.7q-0.1 0-0.3 0z"/><path class="c" d="m25.3 24.9v1.7q0.1 0 0.2 0v-1.7q-0.1 0-0.2 0z"/><path class="c" d="m26.1 24.9v1.7q0.1 0 0.2 0v-1.7q-0.1 0-0.2 0z"/><path class="c" d="m26.9 24.8v1.7q0.1 0 0.2 0v-1.7q-0.1 0-0.2 0z"/><path class="c" d="m27.7 24.8v1.7q0.1 0 0.2 0v-1.7q-0.1 0-0.2 0z"/><path class="c" d="m28.5 24.8v1.7q0.1 0 0.2 0v-1.7q-0.1 0-0.2 0z"/><path class="c" d="m29.3 24.7v1.7q0.1 0 0.2 0v-1.7q-0.1 0-0.2 0z"/><path class="c" d="m30.1 24.7v1.7q0.1 0 0.2-0.1v-1.7q-0.1 0.1-0.2 0.1z"/><path class="c" d="m30.9 24.6v1.7q0.1 0 0.2 0v-1.7q-0.1 0-0.2 0z"/><path class="c" d="m31.8 24.5v1.7q0.1 0 0.2 0v-1.7q-0.1 0-0.2 0z"/><path class="c" d="m32.6 24.4v1.7q0.1-0.1 0.2-0.1v-1.7q-0.1 0-0.2 0.1z"/><path class="c" d="m33.4 24.2v1.7q0.1 0 0.2 0v-1.7q-0.1 0-0.2 0z"/><path class="c" d="m34.2 24v1.7q0.1 0 0.2 0v-1.7q-0.1 0-0.2 0z"/><path class="c" d="m35 23.7v1.7q0.1 0 0.2-0.1v-1.7q-0.1 0.1-0.2 0.1z"/><path class="e" d="m32.1 21.5l-16 1.5q-0.2-0.1-0.2-0.3 0-0.2 0.2-0.3l12.9-1.3q1.8 0.2 3.1 0.4z"/><path class="e" d="m35.2 22.7q0 0.1-0.1 0.3l-13.4 1.3c-1.9-0.2-3.4-0.4-4.5-0.7l17-1.6c0.7 0.2 1 0.4 1 0.7z"/><path class="f" d="m29.2 25.6q0 0.4 0.1 0.8-1.8 0.2-3.7 0.2-1.2 0-2.3-0.1c0.2-0.5 0.2-1.1 0-1.7q0.2 0 0.5 0 0.8 0.1 1.8 0.1 2 0 3.7-0.2c-0.1 0.3-0.1 0.6-0.1 0.9z"/><path class="f" d="m19.5 26.2c-1.3-0.2-2.3-0.4-3-0.6 0.1-0.4 0.1-0.7 0.2-0.8q0-0.4 0-0.8 0-0.1 0-0.1c0.7 0.3 1.7 0.5 2.9 0.6-0.2 0.6-0.2 1.1-0.1 1.7z"/><path class="f" d="m35.6 23.1v1.7c0 0.4-0.8 0.8-2.2 1.1q0.1-0.4 0.1-0.7 0.1-0.5 0.1-1c1.3-0.3 2-0.7 2-1.1z"/><path class="g" d="m32.7 26.9l1.6-0.1-1.6-0.1 0.6-0.8-0.8 0.6-0.1-0.9-0.1 0.9-1.1-0.9 0.9 1.2h-0.9l0.9 0.1-0.9 1.2 1.1-0.9 0.1 0.9 0.1-0.9 0.9 0.6z"/><path class="a" d="m36 19.6q0.2 0.2 0.4 0.4 0.2 0.1 0.2 0.3c0 0.9-4.5 1.7-10.1 1.7-5.5 0-10.1-0.8-10.1-1.7q0-0.2 0.2-0.4 0 0 0 0 0.1 0 0.1 0 0 0 0 0 0-0.1 0-0.1 0 0 0.1 0 0 0 0 0 0 0 0-0.1 0 0 0.1 0 0 0 0 0 0 0 0-0.1c0.1 0 0.1 0 0.1 0q-0.2 0.1-0.2 0.3c0 0.9 4.4 1.7 9.7 1.7 5.3 0 9.7-0.8 9.7-1.7q0-0.2-0.2-0.3z"/><path class="b" d="m36.2 19.9q0 0.1-0.1 0.2c-0.7 0.8-4.7 1.5-9.6 1.5q-2.1 0-3.9-0.2c-1.8-0.1-3.4-0.4-4.4-0.7q-0.9-0.2-1.2-0.5-0.2-0.2-0.2-0.3 0-0.2 0.2-0.4c1-0.7 4.9-1.3 9.5-1.3q1.8 0 3.4 0.1 1.8 0.1 3.2 0.3 1.2 0.2 2 0.5c0.7 0.2 1.1 0.5 1.1 0.8z"/><path class="c" d="m26.5 21.3q-2 0-3.9-0.1c-1.8-0.1-3.3-0.4-4.3-0.7-0.7-0.2-1-0.4-1.2-0.5 0 0 0-0.1 0-0.1q0-0.1 0.1-0.2c0.4-0.3 1.6-0.7 3.2-0.9 1.7-0.3 3.9-0.4 6.1-0.4q1.8 0 3.4 0.1 1.8 0.1 3.1 0.4 1.3 0.2 2.1 0.4c0.8 0.3 0.9 0.6 0.9 0.6q0 0-0.1 0.1c-0.6 0.7-4.2 1.3-9.4 1.3z"/><path class="a" d="m36.4 22.3q-0.2 0.2-0.4 0.4c-0.8 0.7-4.7 1.3-9.5 1.3-4.7 0-8.7-0.6-9.5-1.3q0-0.1 0-0.1 0 0-0.1 0 0 0 0 0 0 0 0-0.1 0 0-0.1 0 0 0 0 0 0 0 0 0-0.1-0.1-0.2-0.2c0.9 0.8 5 1.4 9.9 1.4 5 0 9.1-0.6 9.9-1.4z"/><path class="d" d="m36.6 20.3v1.7c0 0.4-0.9 0.8-2.2 1.1-1.1 0.2-2.5 0.4-4.2 0.5q-1.7 0.1-3.7 0.1-1.2 0-2.3 0-0.3 0-0.6-0.1-1.7-0.1-3.2-0.2c-1.2-0.2-2.2-0.4-2.9-0.7-0.7-0.2-1.1-0.5-1.1-0.7v-1.7c0 0.3 0.5 0.5 1.2 0.8 0.7 0.2 1.7 0.4 2.9 0.6 1.1 0.1 2.4 0.2 3.8 0.3q0.2 0 0.4 0 0.9 0 1.8 0 2 0 3.7-0.1c1.7-0.1 3.2-0.3 4.3-0.6 1.3-0.3 2.1-0.6 2.1-1z"/><path class="c" d="m16.5 20.4v1.7q0 0.1 0.2 0.2v-1.7q-0.2-0.1-0.2-0.2z"/><path class="c" d="m17.3 21v1.7q0.1 0 0.2 0v-1.7q-0.1 0-0.2 0z"/><path class="c" d="m18.1 21.2v1.7q0.1 0.1 0.2 0.1v-1.7q-0.1 0-0.2-0.1z"/><path class="c" d="m18.9 21.4v1.7q0.1 0 0.2 0v-1.6q-0.1-0.1-0.2-0.1z"/><path class="c" d="m19.7 21.6v1.7q0.1 0 0.2 0v-1.7q-0.1 0-0.2 0z"/><path class="c" d="m20.5 21.7v1.7q0.1 0 0.2 0v-1.7q-0.1 0-0.2 0z"/><path class="c" d="m21.3 21.8v1.7q0.1 0 0.2 0v-1.7q-0.1 0-0.2 0z"/><path class="c" d="m22.2 21.8v1.7q0.1 0.1 0.2 0.1v-1.7q-0.1 0-0.2-0.1z"/><path class="c" d="m23 21.9v1.7q0.1 0 0.2 0v-1.7q-0.1 0-0.2 0z"/><path class="c" d="m23.8 21.9v1.7q0.1 0.1 0.2 0.1v-1.7q-0.1 0-0.2-0.1z"/><path class="c" d="m24.6 22v1.7q0.1 0 0.2 0v-1.7q-0.1 0-0.2 0z"/><path class="c" d="m25.4 22v1.7q0.1 0 0.2 0v-1.7q-0.1 0-0.2 0z"/><path class="c" d="m26.2 22v1.7q0.1 0 0.2 0v-1.7q-0.1 0-0.2 0z"/><path class="c" d="m27 22v1.7q0.1 0 0.2 0v-1.7q-0.1 0-0.2 0z"/><path class="c" d="m27.8 22v1.7q0.1 0 0.2 0v-1.7q-0.1 0-0.2 0z"/><path class="c" d="m28.6 22v1.7q0.1 0 0.2 0v-1.7q-0.1 0-0.2 0z"/><path class="c" d="m29.5 21.9v1.7q0.1 0 0.2 0v-1.7q-0.1 0-0.2 0z"/><path class="c" d="m30.3 21.9v1.7q0.1 0 0.2 0v-1.7q-0.1 0-0.2 0z"/><path class="c" d="m31.1 21.8v1.7q0.1 0 0.2 0v-1.7q-0.1 0-0.2 0z"/><path class="c" d="m31.9 21.7v1.7q0.1 0 0.2 0v-1.7q-0.1 0-0.2 0z"/><path class="c" d="m32.7 21.6v1.7q0.1 0 0.2 0v-1.7q-0.1 0-0.2 0z"/><path class="c" d="m33.5 21.5v1.7q0.1 0 0.2 0v-1.7q-0.1 0-0.2 0z"/><path class="c" d="m34.3 21.4v1.7q0.1-0.1 0.2-0.1v-1.7q-0.1 0-0.2 0.1z"/><path class="c" d="m35.1 21.2v1.7q0.1-0.1 0.2-0.1v-1.7q-0.1 0-0.2 0.1z"/><path class="c" d="m35.9 20.9v1.7q0.2-0.1 0.2-0.1v-1.7q0 0-0.2 0.1z"/><path class="e" d="m33.1 18.6l-16.1 1.6q-0.2-0.2-0.2-0.3 0-0.2 0.2-0.4l12.9-1.2q1.8 0.1 3.2 0.3z"/><path class="e" d="m36.2 19.9q0 0.1-0.1 0.2l-13.5 1.3c-1.8-0.1-3.4-0.4-4.4-0.7l16.9-1.6c0.7 0.2 1.1 0.5 1.1 0.8z"/><path class="f" d="m30.2 22.7q0 0.5 0 0.9-1.7 0.1-3.7 0.1-1.2 0-2.3 0c0.2-0.6 0.2-1.2 0.1-1.7q0.2 0 0.4 0 0.9 0 1.8 0 2 0 3.7-0.1c0 0.3 0 0.5 0 0.8z"/><path class="f" d="m20.4 23.4c-1.2-0.2-2.2-0.4-2.9-0.7 0-0.3 0.1-0.6 0.1-0.7q0.1-0.5 0-0.9 0 0 0 0c0.7 0.2 1.7 0.4 2.9 0.6-0.1 0.5-0.2 1.1-0.1 1.7z"/><path class="f" d="m36.6 20.3v1.7c0 0.4-0.9 0.8-2.2 1.1q0-0.4 0.1-0.8 0.1-0.5 0-1c1.3-0.3 2.1-0.6 2.1-1z"/><path class="a" d="m35.1 17.1q0.2 0.2 0.4 0.3 0.1 0.2 0.1 0.4c0 0.9-4.5 1.7-10 1.7-5.6 0-10.1-0.8-10.1-1.7q0-0.2 0.2-0.4 0 0 0 0 0 0 0 0 0 0 0.1 0 0-0.1 0-0.1 0 0 0 0 0 0 0 0 0.1 0 0.1-0.1 0 0 0 0 0 0 0 0 0.1 0 0.1-0.1c0.1 0 0.1 0 0.1 0q-0.2 0.1-0.2 0.3c0 0.9 4.3 1.7 9.7 1.7 5.3 0 9.6-0.8 9.6-1.7q0-0.2-0.1-0.3z"/><path class="b" d="m35.2 17.4q0 0.1-0.1 0.2c-0.7 0.8-4.7 1.5-9.5 1.5q-2.1-0.1-3.9-0.2c-1.9-0.1-3.4-0.4-4.5-0.7q-0.8-0.2-1.1-0.5-0.2-0.2-0.2-0.3 0-0.2 0.2-0.4c0.9-0.7 4.8-1.3 9.5-1.3q1.8 0 3.4 0.1 1.8 0.1 3.1 0.3 1.3 0.2 2.1 0.5c0.7 0.2 1 0.5 1 0.8z"/><path class="c" d="m25.6 18.8q-2.1 0-3.9-0.1c-1.8-0.1-3.4-0.4-4.4-0.7-0.7-0.2-1-0.4-1.1-0.5 0 0-0.1-0.1-0.1-0.1q0-0.1 0.1-0.2c0.4-0.3 1.6-0.7 3.3-0.9 1.7-0.3 3.8-0.4 6.1-0.4q1.7 0 3.3 0.1 1.8 0.1 3.2 0.4 1.2 0.2 2 0.4c0.9 0.3 0.9 0.5 0.9 0.6q0 0 0 0.1c-0.6 0.7-4.3 1.3-9.4 1.3z"/><path class="a" d="m35.5 19.8q-0.2 0.2-0.4 0.4c-0.8 0.7-4.8 1.3-9.5 1.3-4.8 0-8.7-0.6-9.5-1.3q-0.1-0.1-0.1-0.1 0 0 0 0 0 0 0 0-0.1 0-0.1-0.1 0 0 0 0 0 0 0 0 0 0-0.1-0.1-0.1 0-0.1-0.1c0.8 0.8 4.9 1.4 9.9 1.4 4.9 0 9-0.6 9.9-1.4z"/><path class="d" d="m35.6 17.8v1.7c0 0.4-0.8 0.8-2.2 1.1-1.1 0.2-2.5 0.4-4.1 0.5q-1.8 0.1-3.7 0.1-1.2 0-2.3 0-0.3 0-0.6-0.1-1.8-0.1-3.2-0.2c-1.3-0.2-2.3-0.4-3-0.7-0.6-0.2-1-0.5-1-0.7v-1.7c0 0.3 0.4 0.5 1.2 0.8 0.7 0.2 1.7 0.4 2.9 0.6 1.1 0.1 2.4 0.2 3.7 0.3q0.2 0 0.5 0 0.8 0 1.8 0 2 0 3.7-0.1c1.7-0.1 3.2-0.3 4.3-0.6 1.3-0.3 2-0.6 2-1z"/><path class="c" d="m15.5 17.9v1.7q0.1 0.1 0.2 0.2v-1.7q-0.1-0.1-0.2-0.2z"/><path class="c" d="m16.3 18.5v1.7q0.1 0 0.2 0v-1.7q-0.1 0-0.2 0z"/><path class="c" d="m17.1 18.7v1.7q0.1 0 0.3 0.1v-1.7q-0.2-0.1-0.3-0.1z"/><path class="c" d="m18 18.9v1.7q0.1 0 0.2 0v-1.7q-0.1 0-0.2 0z"/><path class="c" d="m18.8 19.1v1.7q0.1 0 0.2 0v-1.7q-0.1 0-0.2 0z"/><path class="c" d="m19.6 19.2v1.7q0.1 0 0.2 0v-1.7q-0.1 0-0.2 0z"/><path class="c" d="m20.4 19.3v1.7q0.1 0 0.2 0v-1.7q-0.1 0-0.2 0z"/><path class="c" d="m21.2 19.3v1.7q0.1 0 0.2 0.1v-1.7q-0.1-0.1-0.2-0.1z"/><path class="c" d="m22 19.4v1.7q0.1 0 0.2 0v-1.7q-0.1 0-0.2 0z"/><path class="c" d="m22.8 19.4v1.7q0.1 0.1 0.2 0.1v-1.7q-0.1 0-0.2-0.1z"/><path class="c" d="m23.6 19.5v1.7q0.1 0 0.2 0v-1.7q-0.1 0-0.2 0z"/><path class="c" d="m24.4 19.5v1.7q0.2 0 0.3 0v-1.7q-0.1 0-0.3 0z"/><path class="c" d="m25.3 19.5v1.7q0.1 0 0.2 0v-1.7q-0.1 0-0.2 0z"/><path class="c" d="m26.1 19.5v1.7q0.1 0 0.2 0v-1.7q-0.1 0-0.2 0z"/><path class="c" d="m26.9 19.5v1.7q0.1 0 0.2 0v-1.7q-0.1 0-0.2 0z"/><path class="c" d="m27.7 19.5v1.7q0.1 0 0.2 0v-1.7q-0.1 0-0.2 0z"/><path class="c" d="m28.5 19.4v1.7q0.1 0 0.2 0v-1.7q-0.1 0-0.2 0z"/><path class="c" d="m29.3 19.4v1.7q0.1 0 0.2 0v-1.7q-0.1 0-0.2 0z"/><path class="c" d="m30.1 19.3v1.7q0.1 0 0.2 0v-1.7q-0.1 0-0.2 0z"/><path class="c" d="m30.9 19.2v1.7q0.1 0 0.2 0v-1.7q-0.1 0-0.2 0z"/><path class="c" d="m31.8 19.1v1.7q0.1 0 0.2 0v-1.7q-0.1 0-0.2 0z"/><path class="c" d="m32.6 19v1.7q0.1 0 0.2 0v-1.7q-0.1 0-0.2 0z"/><path class="c" d="m33.4 18.9v1.7q0.1-0.1 0.2-0.1v-1.7q-0.1 0-0.2 0.1z"/><path class="c" d="m34.2 18.7v1.7q0.1-0.1 0.2-0.1v-1.7q-0.1 0-0.2 0.1z"/><path class="c" d="m35 18.4v1.7q0.1-0.1 0.2-0.1v-1.7q-0.1 0-0.2 0.1z"/><path class="e" d="m32.1 16.1l-16 1.6q-0.2-0.2-0.2-0.3 0-0.2 0.2-0.4l12.9-1.2q1.8 0.1 3.1 0.3z"/><path class="e" d="m35.2 17.4q0 0.1-0.1 0.2l-13.4 1.3c-1.9-0.1-3.4-0.4-4.5-0.7l17-1.6c0.7 0.2 1 0.5 1 0.8z"/><path class="f" d="m29.2 20.2q0 0.5 0.1 0.9-1.8 0.1-3.7 0.1-1.2 0-2.3 0c0.2-0.6 0.2-1.2 0-1.7q0.2 0 0.5 0 0.8 0 1.8 0 2 0 3.7-0.1c-0.1 0.3-0.1 0.5-0.1 0.8z"/><path class="f" d="m19.5 20.9c-1.3-0.2-2.3-0.4-3-0.7 0.1-0.3 0.1-0.6 0.2-0.7q0-0.5 0-0.9 0 0 0 0c0.7 0.2 1.7 0.4 2.9 0.6-0.2 0.5-0.2 1.1-0.1 1.7z"/><path class="f" d="m35.6 17.8v1.7c0 0.4-0.8 0.8-2.2 1.1q0.1-0.4 0.1-0.8 0.1-0.5 0.1-1c1.3-0.3 2-0.6 2-1z"/><path class="a" d="m35.9 14.4q0.2 0.2 0.4 0.3 0.1 0.2 0.1 0.4c0 0.9-4.5 1.7-10 1.7-5.6 0-10.1-0.8-10.1-1.7q0-0.2 0.2-0.4 0 0 0 0 0 0 0 0 0.1 0 0.1-0.1 0 0 0 0 0 0 0 0 0 0 0 0 0.1 0 0.1-0.1 0 0 0 0 0 0 0 0 0.1 0 0.1-0.1c0.1 0 0.1 0 0.1 0q-0.2 0.1-0.2 0.3c0 0.9 4.3 1.6 9.7 1.6 5.3 0 9.6-0.7 9.6-1.6q0-0.2-0.1-0.3z"/><path class="b" d="m36 14.7q0 0.1-0.1 0.2c-0.7 0.8-4.7 1.4-9.5 1.4q-2.1 0-3.9-0.1c-1.9-0.1-3.4-0.4-4.4-0.7q-0.9-0.2-1.2-0.5-0.2-0.2-0.2-0.3 0-0.2 0.2-0.4c0.9-0.7 4.8-1.3 9.5-1.3q1.8 0 3.4 0.1 1.8 0.1 3.1 0.3 1.3 0.2 2.1 0.5c0.7 0.2 1 0.5 1 0.8z"/><path class="c" d="m26.4 16.1q-2.1 0-3.9-0.1c-1.8-0.1-3.4-0.4-4.4-0.7-0.7-0.2-1-0.4-1.1-0.5 0 0-0.1-0.1-0.1-0.1q0-0.1 0.2-0.2c0.4-0.4 1.5-0.7 3.2-0.9 1.7-0.3 3.8-0.4 6.1-0.4q1.7 0 3.4 0.1 1.7 0.1 3.1 0.3 1.3 0.2 2 0.5c0.9 0.3 0.9 0.5 0.9 0.6q0 0 0 0.1c-0.6 0.6-4.3 1.3-9.4 1.3z"/><path class="a" d="m36.3 17.1q-0.2 0.2-0.4 0.4c-0.8 0.7-4.8 1.3-9.5 1.3-4.8 0-8.7-0.6-9.5-1.4q-0.1 0-0.1 0 0 0 0 0 0 0 0 0 0-0.1-0.1-0.1 0 0 0 0 0 0 0 0 0 0-0.1-0.1 0 0-0.1-0.1c0.8 0.8 4.9 1.4 9.9 1.4 4.9 0 9-0.6 9.9-1.4z"/><path class="d" d="m36.4 15.1v1.7c0 0.4-0.8 0.8-2.2 1.1-1.1 0.2-2.5 0.4-4.1 0.5q-1.7 0.1-3.7 0.1-1.2 0-2.3 0-0.3-0.1-0.6-0.1-1.8-0.1-3.2-0.2c-1.3-0.2-2.3-0.4-3-0.7-0.6-0.2-1-0.5-1-0.7v-1.7c0 0.3 0.4 0.5 1.2 0.8 0.7 0.2 1.7 0.4 2.9 0.6 1.1 0.1 2.4 0.2 3.7 0.3q0.3 0 0.5 0 0.9 0 1.8 0 2 0 3.7-0.1c1.7-0.1 3.2-0.3 4.3-0.6 1.3-0.3 2-0.6 2-1z"/><path class="c" d="m16.3 15.2v1.7q0.1 0.1 0.2 0.2v-1.7q-0.1-0.1-0.2-0.2z"/><path class="c" d="m17.2 15.8l-0.1 1.7q0.1 0 0.3 0v-1.7q-0.2 0-0.2 0z"/><path class="c" d="m18 16v1.7q0.1 0 0.2 0.1v-1.7q-0.1-0.1-0.2-0.1z"/><path class="c" d="m18.8 16.2v1.7q0.1 0 0.2 0v-1.7q-0.1 0-0.2 0z"/><path class="c" d="m19.6 16.3v1.7q0.1 0.1 0.2 0.1v-1.7q-0.1 0-0.2-0.1z"/><path class="c" d="m20.4 16.5v1.7q0.1 0 0.2 0v-1.7q-0.1 0-0.2 0z"/><path class="c" d="m21.2 16.6v1.7q0.1 0 0.2 0v-1.7q-0.1 0-0.2 0z"/><path class="c" d="m22 16.6v1.7q0.1 0 0.2 0v-1.6q-0.1-0.1-0.2-0.1z"/><path class="c" d="m22.8 16.7v1.7q0.1 0 0.2 0v-1.7q-0.1 0-0.2 0z"/><path class="c" d="m23.6 16.7v1.7q0.1 0 0.2 0v-1.6q-0.1-0.1-0.2-0.1z"/><path class="c" d="m24.5 16.8v1.7q0.1 0 0.2 0v-1.7q-0.1 0-0.2 0z"/><path class="c" d="m25.3 16.8v1.7q0.1 0 0.2 0v-1.7q-0.1 0-0.2 0z"/><path class="c" d="m26.1 16.8v1.7q0.1 0 0.2 0v-1.7q-0.1 0-0.2 0z"/><path class="c" d="m26.9 16.8v1.7q0.1 0 0.2 0v-1.7q-0.1 0-0.2 0z"/><path class="c" d="m27.7 16.8v1.7q0.1 0 0.2 0v-1.7q-0.1 0-0.2 0z"/><path class="c" d="m28.5 16.8v1.7q0.1 0 0.2 0v-1.7q-0.1 0-0.2 0z"/><path class="c" d="m29.3 16.7v1.7q0.1 0 0.2 0v-1.7q-0.1 0-0.2 0z"/><path class="c" d="m30.1 16.7v1.7q0.1 0 0.2 0v-1.7q-0.1 0-0.2 0z"/><path class="c" d="m30.9 16.6v1.7q0.1 0 0.2 0v-1.7q-0.1 0-0.2 0z"/><path class="c" d="m31.8 16.5v1.7q0.1 0 0.2 0v-1.7q-0.1 0-0.2 0z"/><path class="c" d="m32.6 16.4v1.7q0.1 0 0.2 0v-1.7q-0.1 0-0.2 0z"/><path class="c" d="m33.4 16.3v1.7q0.1 0 0.2 0v-1.7q-0.1 0-0.2 0z"/><path class="c" d="m34.2 16.2v1.7q0.1-0.1 0.2-0.1v-1.7q-0.1 0-0.2 0.1z"/><path class="c" d="m35 16v1.7q0.1-0.1 0.2-0.1v-1.7q-0.1 0-0.2 0.1z"/><path class="c" d="m35.8 15.7v1.7q0.1-0.1 0.2-0.1v-1.7q-0.1 0-0.2 0.1z"/><path class="e" d="m32.9 13.4l-16 1.6q-0.2-0.2-0.2-0.3 0-0.2 0.2-0.4l12.9-1.2q1.8 0.1 3.1 0.3z"/><path class="e" d="m36 14.7q0 0.1-0.1 0.2l-13.4 1.3c-1.9-0.1-3.4-0.4-4.4-0.7l16.9-1.6c0.7 0.2 1 0.5 1 0.8z"/><path class="f" d="m30 17.5q0 0.4 0.1 0.9-1.7 0.1-3.7 0.1-1.2 0-2.3 0c0.2-0.6 0.2-1.2 0-1.7q0.3 0 0.5 0 0.9 0 1.8 0 2 0 3.7-0.1c-0.1 0.3-0.1 0.5-0.1 0.8z"/><path class="f" d="m20.3 18.2c-1.3-0.2-2.3-0.4-3-0.7 0.1-0.3 0.2-0.6 0.2-0.7q0-0.5 0-0.9 0 0 0 0c0.7 0.2 1.7 0.4 2.9 0.6-0.2 0.5-0.2 1.1-0.1 1.7z"/><path class="f" d="m36.4 15.1v1.7c0 0.4-0.8 0.8-2.2 1.1q0.1-0.4 0.2-0.8 0-0.5 0-1c1.3-0.3 2-0.6 2-1z"/><path class="g" d="m17.8 23.7l1.5-0.5-1.5 0.3 0.3-1-0.6 0.8-0.3-0.8 0.1 0.9-1.3-0.7 1.2 0.9-0.9 0.3 0.9-0.1-0.6 1.3 0.9-1.1 0.3 0.8-0.1-0.9 1 0.5z"/><path class="a" d="m36.6 11.7q0.2 0.1 0.4 0.3 0.1 0.2 0.1 0.4c0 0.9-4.5 1.7-10 1.7-5.6 0-10.1-0.8-10.1-1.7q0-0.2 0.1-0.4 0.1 0 0.1 0 0 0 0 0 0 0 0-0.1 0.1 0 0.1 0 0 0 0 0 0 0 0 0 0-0.1 0.1-0.1 0 0 0 0 0 0 0 0 0 0 0.1-0.1c0 0 0 0 0 0q-0.1 0.1-0.1 0.3c0 0.9 4.3 1.6 9.7 1.6 5.3 0 9.6-0.7 9.6-1.6q0-0.2-0.1-0.3z"/><path class="b" d="m36.7 12q0 0.1-0.1 0.2c-0.7 0.8-4.7 1.4-9.5 1.4q-2.1 0-4-0.1c-1.8-0.1-3.3-0.4-4.4-0.7q-0.8-0.2-1.2-0.5-0.1-0.2-0.1-0.3 0-0.2 0.2-0.4c0.9-0.7 4.8-1.3 9.5-1.3q1.8 0 3.4 0.1 1.7 0.1 3.1 0.3 1.3 0.2 2.1 0.5c0.6 0.2 1 0.5 1 0.8z"/><path class="c" d="m27.1 13.4q-2.1 0-3.9-0.1c-1.8-0.2-3.4-0.4-4.4-0.7-0.7-0.2-1-0.4-1.1-0.5 0 0-0.1-0.1-0.1-0.1q0-0.1 0.1-0.2c0.4-0.4 1.6-0.7 3.2-0.9 1.8-0.3 3.9-0.4 6.1-0.4h0.1q1.7 0 3.3 0.1 1.8 0.1 3.2 0.3 1.2 0.2 2 0.5c0.9 0.3 0.9 0.5 0.9 0.6q0 0 0 0.1c-0.6 0.6-4.3 1.3-9.4 1.3z"/><path class="a" d="m37 14.4q-0.2 0.2-0.4 0.3c-0.9 0.8-4.8 1.4-9.5 1.4-4.8 0-8.7-0.6-9.6-1.4q0 0 0 0 0 0 0 0 0 0-0.1-0.1 0 0 0 0 0 0 0 0 0 0 0 0-0.1 0-0.1-0.1-0.1 0-0.2-0.1c0.9 0.8 5 1.4 10 1.4 4.9 0 9-0.6 9.9-1.4z"/><path class="d" d="m37.1 12.4v1.7c0 0.4-0.8 0.7-2.2 1-1.1 0.3-2.5 0.5-4.1 0.6q-1.8 0.1-3.7 0.1-1.2 0-2.3 0-0.3-0.1-0.6-0.1-1.8-0.1-3.2-0.3c-1.3-0.1-2.3-0.3-3-0.6-0.7-0.2-1-0.5-1-0.7v-1.7c0 0.2 0.4 0.5 1.1 0.8 0.8 0.2 1.8 0.4 3 0.6 1.1 0.1 2.3 0.2 3.7 0.3q0.2 0 0.4 0 0.9 0 1.9 0 1.9 0 3.7-0.1c1.7-0.1 3.2-0.3 4.2-0.6 1.3-0.3 2.1-0.6 2.1-1z"/><path class="c" d="m17 12.5v1.7q0.1 0.1 0.2 0.2v-1.7q-0.1-0.1-0.2-0.2z"/><path class="c" d="m17.8 13.1v1.7q0.1 0 0.2 0v-1.7q-0.1 0-0.2 0z"/><path class="c" d="m18.6 13.3v1.7q0.1 0 0.2 0.1v-1.7q-0.1-0.1-0.2-0.1z"/><path class="c" d="m19.4 13.5v1.7q0.1 0 0.2 0l0.1-1.7q-0.2 0-0.3 0z"/><path class="c" d="m20.3 13.6v1.7q0.1 0.1 0.2 0.1v-1.7q-0.1 0-0.2-0.1z"/><path class="c" d="m21.1 13.8v1.7q0.1 0 0.2 0v-1.7q-0.1 0-0.2 0z"/><path class="c" d="m21.9 13.9v1.7q0.1 0 0.2 0v-1.7q-0.1 0-0.2 0z"/><path class="c" d="m22.7 13.9v1.7q0.1 0 0.2 0v-1.7q-0.1 0-0.2 0z"/><path class="c" d="m23.5 14v1.7q0.1 0 0.2 0v-1.7q-0.1 0-0.2 0z"/><path class="c" d="m24.3 14v1.7q0.1 0 0.2 0v-1.7q-0.1 0-0.2 0z"/><path class="c" d="m25.1 14.1v1.7q0.1 0 0.2 0v-1.7q-0.1 0-0.2 0z"/><path class="c" d="m25.9 14.1v1.7q0.1 0 0.2 0v-1.7q-0.1 0-0.2 0z"/><path class="c" d="m26.7 14.1v1.7q0.1 0 0.3 0v-1.7q-0.2 0-0.3 0z"/><path class="c" d="m27.6 14.1v1.7q0.1 0 0.2 0v-1.7q-0.1 0-0.2 0z"/><path class="c" d="m28.4 14.1v1.7q0.1 0 0.2 0v-1.7q-0.1 0-0.2 0z"/><path class="c" d="m29.2 14.1v1.7q0.1 0 0.2 0v-1.7q-0.1 0-0.2 0z"/><path class="c" d="m30 14v1.7q0.1 0 0.2 0v-1.7q-0.1 0-0.2 0z"/><path class="c" d="m30.8 14v1.7q0.1 0 0.2 0v-1.7q-0.1 0-0.2 0z"/><path class="c" d="m31.6 13.9v1.7q0.1 0 0.2 0v-1.7q-0.1 0-0.2 0z"/><path class="c" d="m32.4 13.8v1.7q0.1 0 0.2 0v-1.7q-0.1 0-0.2 0z"/><path class="c" d="m33.2 13.7v1.7q0.1 0 0.2 0v-1.7q-0.1 0-0.2 0z"/><path class="c" d="m34 13.6v1.7q0.2 0 0.3 0v-1.7q-0.1 0-0.3 0z"/><path class="c" d="m34.9 13.5v1.7q0.1-0.1 0.2-0.1v-1.7q-0.1 0-0.2 0.1z"/><path class="c" d="m35.7 13.3v1.7q0.1-0.1 0.2-0.1v-1.7q-0.1 0-0.2 0.1z"/><path class="c" d="m36.5 13v1.7q0.1-0.1 0.2-0.1v-1.7q-0.1 0-0.2 0.1z"/><path class="e" d="m33.6 10.7l-16.1 1.6q-0.1-0.2-0.1-0.3 0-0.2 0.2-0.4l12.9-1.2q1.7 0.1 3.1 0.3z"/><path class="e" d="m36.7 12q0 0.1-0.1 0.2l-13.5 1.3c-1.8-0.1-3.3-0.4-4.4-0.7l17-1.6c0.6 0.2 1 0.5 1 0.8z"/><path class="f" d="m30.7 14.8q0 0.4 0.1 0.9-1.8 0.1-3.7 0.1-1.2 0-2.3 0c0.2-0.6 0.2-1.2 0-1.7q0.2 0 0.4 0 0.9 0 1.9 0 1.9 0 3.7-0.1c-0.1 0.2-0.1 0.5-0.1 0.8z"/><path class="f" d="m21 15.4c-1.3-0.1-2.3-0.3-3-0.6 0.1-0.3 0.1-0.6 0.1-0.7q0.1-0.5 0-0.9 0 0 0 0c0.8 0.2 1.8 0.4 3 0.6-0.2 0.5-0.2 1.1-0.1 1.6z"/><path class="f" d="m37.1 12.4v1.7c0 0.4-0.8 0.7-2.2 1q0.1-0.3 0.1-0.7 0.1-0.5 0-1c1.3-0.3 2.1-0.6 2.1-1z"/><path class="a" d="m36.4 9q0.2 0.1 0.4 0.3 0.1 0.2 0.1 0.3c0 1-4.5 1.8-10 1.8-5.6 0-10.1-0.8-10.1-1.8q0-0.1 0.1-0.3 0.1 0 0.1 0 0 0 0 0 0 0 0-0.1 0.1 0 0.1 0 0 0 0 0 0 0 0 0 0-0.1 0.1-0.1 0 0 0 0 0 0 0 0 0-0.1 0.1-0.1c0 0 0 0 0 0q-0.1 0.1-0.1 0.3c0 0.9 4.3 1.6 9.7 1.6 5.3 0 9.6-0.7 9.6-1.6q0-0.2-0.1-0.3z"/><path class="b" d="m36.5 9.3q0 0.1-0.1 0.2c-0.7 0.8-4.7 1.4-9.5 1.4q-2.1 0-4-0.1c-1.8-0.1-3.3-0.4-4.4-0.7q-0.8-0.2-1.2-0.5-0.1-0.2-0.1-0.3 0-0.2 0.2-0.4c0.9-0.8 4.8-1.3 9.5-1.3q1.8 0 3.3 0.1 1.8 0.1 3.2 0.3 1.3 0.2 2.1 0.5c0.6 0.2 1 0.5 1 0.8z"/><path class="c" d="m26.9 10.7q-2.1 0-3.9-0.1c-1.9-0.2-3.4-0.4-4.4-0.7-0.7-0.2-1-0.4-1.1-0.5 0 0-0.1-0.1-0.1-0.1q0-0.1 0.1-0.2c0.4-0.4 1.6-0.7 3.2-0.9 1.8-0.3 3.9-0.4 6.1-0.4h0.1q1.7 0 3.3 0.1 1.8 0.1 3.2 0.3 1.2 0.2 2 0.5c0.9 0.3 0.9 0.5 0.9 0.6q0 0-0.1 0.1c-0.5 0.6-4.2 1.3-9.3 1.3z"/><path class="a" d="m36.8 11.7q-0.2 0.2-0.4 0.3c-0.9 0.8-4.8 1.4-9.6 1.4-4.7 0-8.6-0.6-9.5-1.4q0 0 0 0 0 0 0 0 0 0-0.1-0.1 0 0 0 0 0 0 0 0 0 0 0 0-0.1-0.1-0.1-0.1-0.1-0.1-0.2-0.1c0.9 0.8 5 1.4 10 1.4 4.9 0 9-0.6 9.9-1.4z"/><path class="d" d="m36.9 9.6v1.7c0 0.5-0.8 0.8-2.2 1.1-1.1 0.3-2.5 0.5-4.1 0.6q-1.8 0.1-3.8 0.1-1.1 0-2.2-0.1-0.3 0-0.6 0-1.8-0.1-3.2-0.3c-1.3-0.1-2.3-0.3-3-0.6-0.7-0.2-1-0.5-1-0.8v-1.7c0 0.3 0.4 0.6 1.1 0.9 0.8 0.2 1.8 0.4 3 0.6 1.1 0.1 2.3 0.2 3.7 0.3q0.2 0 0.4 0 0.9 0 1.9 0 1.9 0 3.7-0.1c1.7-0.1 3.1-0.3 4.2-0.6 1.3-0.3 2.1-0.7 2.1-1.1z"/><path class="c" d="m16.8 9.8v1.7q0.1 0.1 0.2 0.2v-1.7q-0.1-0.1-0.2-0.2z"/><path class="c" d="m17.6 10.3v1.7q0.1 0.1 0.2 0.1v-1.7q-0.1 0-0.2-0.1z"/><path class="c" d="m18.4 10.6v1.7q0.1 0 0.2 0.1v-1.7q-0.1-0.1-0.2-0.1z"/><path class="c" d="m19.2 10.8v1.7q0.1 0 0.2 0v-1.7q-0.1 0-0.2 0z"/><path class="c" d="m20.1 10.9v1.7q0.1 0.1 0.2 0.1v-1.7q-0.1 0-0.2-0.1z"/><path class="c" d="m20.9 11.1v1.7q0.1 0 0.2 0v-1.7q-0.1 0-0.2 0z"/><path class="c" d="m21.7 11.1v1.7q0.1 0.1 0.2 0.1v-1.7q-0.1 0-0.2-0.1z"/><path class="c" d="m22.5 11.2v1.7q0.1 0 0.2 0v-1.7q-0.1 0-0.2 0z"/><path class="c" d="m23.3 11.3v1.7q0.1 0 0.2 0v-1.7q-0.1 0-0.2 0z"/><path class="c" d="m24.1 11.3v1.7q0.1 0 0.2 0v-1.7q-0.1 0-0.2 0z"/><path class="c" d="m24.9 11.4v1.7q0.1 0 0.2 0v-1.7q-0.1 0-0.2 0z"/><path class="c" d="m25.7 11.4v1.7q0.1 0 0.2 0v-1.7q-0.1 0-0.2 0z"/><path class="c" d="m26.5 11.4v1.7q0.1 0 0.2 0v-1.7q-0.1 0-0.2 0z"/><path class="c" d="m27.4 11.4v1.7q0.1 0 0.2 0v-1.7q-0.1 0-0.2 0z"/><path class="c" d="m28.2 11.4v1.7q0.1 0 0.2 0v-1.7q-0.1 0-0.2 0z"/><path class="c" d="m29 11.4v1.7q0.1 0 0.2-0.1v-1.7q-0.1 0.1-0.2 0.1z"/><path class="c" d="m29.8 11.3v1.7q0.1 0 0.2 0v-1.7q-0.1 0-0.2 0z"/><path class="c" d="m30.6 11.3v1.7q0.1 0 0.2 0v-1.7q-0.1 0-0.2 0z"/><path class="c" d="m31.4 11.2v1.7q0.1 0 0.2 0v-1.7q-0.1 0-0.2 0z"/><path class="c" d="m32.2 11.1v1.7q0.1 0 0.2 0v-1.7q-0.1 0-0.2 0z"/><path class="c" d="m33 11v1.7q0.1 0 0.2 0v-1.7q-0.1 0-0.2 0z"/><path class="c" d="m33.8 10.9v1.7q0.1 0 0.2 0v-1.7q-0.1 0-0.2 0z"/><path class="c" d="m34.7 10.8v1.7q0.1-0.1 0.2-0.1v-1.7q-0.1 0-0.2 0.1z"/><path class="c" d="m35.5 10.6v1.7q0.1-0.1 0.2-0.1v-1.7q-0.1 0-0.2 0.1z"/><path class="c" d="m36.3 10.3v1.7q0.1-0.1 0.2-0.1v-1.7q-0.1 0-0.2 0.1z"/><path class="e" d="m33.4 8l-16.1 1.6q-0.1-0.2-0.1-0.3 0-0.2 0.2-0.4l12.8-1.2q1.8 0.1 3.2 0.3z"/><path class="e" d="m36.5 9.3q0 0.1-0.1 0.2l-13.5 1.3c-1.8-0.1-3.3-0.4-4.4-0.7l17-1.6c0.6 0.2 1 0.5 1 0.8z"/><path class="f" d="m30.5 12.1q0 0.4 0.1 0.9-1.8 0.1-3.8 0.1-1.1 0-2.2-0.1c0.2-0.5 0.2-1.1 0-1.6q0.2 0 0.4 0 0.9 0 1.9 0 1.9 0 3.7-0.1c-0.1 0.2-0.1 0.5-0.1 0.8z"/><path class="f" d="m20.8 12.7c-1.3-0.1-2.3-0.3-3-0.6 0.1-0.3 0.1-0.6 0.1-0.7q0.1-0.5 0-0.9 0 0 0 0c0.8 0.2 1.8 0.4 3 0.6-0.2 0.5-0.2 1.1-0.1 1.6z"/><path class="f" d="m36.9 9.6v1.7c0 0.5-0.8 0.8-2.2 1.1q0.1-0.3 0.1-0.7 0.1-0.5 0-1c1.3-0.3 2.1-0.7 2.1-1.1z"/><path class="a" d="m36.9 6.2q0.2 0.2 0.4 0.4 0.2 0.2 0.2 0.3c0 1-4.5 1.8-10.1 1.8-5.6 0-10.1-0.8-10.1-1.8q0-0.1 0.2-0.3 0 0 0 0 0 0 0 0 0.1-0.1 0.1-0.1 0 0 0 0 0 0 0 0 0.1 0 0.1 0 0-0.1 0-0.1 0 0 0 0 0.1 0 0.1 0 0-0.1 0-0.1c0.1-0.1 0.1-0.1 0.1-0.1q-0.2 0.2-0.2 0.3c0 1 4.4 1.7 9.7 1.7 5.3 0 9.7-0.7 9.7-1.6q0-0.2-0.2-0.4z"/><path class="b" d="m37.1 6.6q0 0.1-0.1 0.2c-0.7 0.8-4.8 1.4-9.6 1.4q-2.1 0-3.9-0.1c-1.9-0.2-3.4-0.4-4.4-0.7q-0.9-0.2-1.2-0.5-0.2-0.2-0.2-0.4 0-0.1 0.2-0.3c0.9-0.8 4.8-1.3 9.5-1.3q1.8 0 3.4 0.1 1.8 0.1 3.2 0.3 1.2 0.2 2 0.5c0.7 0.2 1.1 0.5 1.1 0.8z"/><path class="c" d="m27.4 8q-2.1 0-3.9-0.1c-1.8-0.2-3.4-0.4-4.4-0.7-0.7-0.2-0.9-0.4-1.1-0.5 0 0-0.1-0.1-0.1-0.2q0 0 0.2-0.1c0.4-0.4 1.5-0.7 3.2-0.9 1.7-0.3 3.9-0.4 6.1-0.4q1.8 0 3.4 0.1 1.7 0.1 3.1 0.3 1.3 0.2 2 0.5c0.9 0.3 0.9 0.5 0.9 0.6q0 0 0 0.1c-0.6 0.6-4.3 1.3-9.4 1.3z"/><path class="a" d="m37.3 9q-0.2 0.1-0.4 0.3c-0.8 0.8-4.8 1.4-9.5 1.4-4.8 0-8.7-0.6-9.5-1.4q0 0-0.1 0 0 0 0 0 0 0 0-0.1 0 0 0 0-0.1 0-0.1 0 0 0 0 0 0-0.1 0-0.1-0.1-0.1-0.2-0.1c0.8 0.8 5 1.4 9.9 1.4 4.9 0 9-0.6 9.9-1.4z"/><path class="d" d="m37.5 6.9v1.7c0 0.5-0.9 0.8-2.3 1.1-1.1 0.3-2.5 0.5-4.1 0.6q-1.7 0.1-3.7 0.1-1.2 0-2.3-0.1-0.3 0-0.6 0-1.8-0.1-3.2-0.3c-1.2-0.1-2.3-0.3-3-0.6-0.6-0.2-1-0.5-1-0.8v-1.7c0 0.3 0.4 0.6 1.2 0.9 0.7 0.2 1.7 0.4 2.9 0.5 1.1 0.2 2.4 0.3 3.8 0.3q0.2 0.1 0.4 0.1 0.9 0 1.8 0 2 0 3.7-0.1c1.7-0.2 3.2-0.3 4.3-0.6 1.3-0.3 2.1-0.7 2.1-1.1z"/><path class="c" d="m17.4 7.1v1.7q0 0.1 0.2 0.2v-1.7q-0.2-0.1-0.2-0.2z"/><path class="c" d="m18.2 7.6v1.7q0.1 0.1 0.2 0.1v-1.7q-0.1 0-0.2-0.1z"/><path class="c" d="m19 7.9v1.7q0.1 0 0.2 0.1v-1.7q-0.1-0.1-0.2-0.1z"/><path class="c" d="m19.8 8.1v1.7q0.1 0 0.2 0v-1.7q-0.1 0-0.2 0z"/><path class="c" d="m20.6 8.2v1.7q0.1 0 0.2 0.1v-1.7q-0.1-0.1-0.2-0.1z"/><path class="c" d="m21.4 8.3v1.7q0.1 0.1 0.2 0.1v-1.7q-0.1 0-0.2-0.1z"/><path class="c" d="m22.2 8.4v1.7q0.1 0.1 0.2 0.1v-1.7q-0.1 0-0.2-0.1z"/><path class="c" d="m23 8.5v1.7q0.1 0 0.2 0v-1.7q-0.1 0-0.2 0z"/><path class="c" d="m23.8 8.6v1.7q0.1 0 0.2 0v-1.7q-0.1 0-0.2 0z"/><path class="c" d="m24.7 8.6v1.7q0.1 0 0.2 0v-1.7q-0.1 0-0.2 0z"/><path class="c" d="m25.5 8.7v1.7q0.1 0 0.2 0v-1.7q-0.1 0-0.2 0z"/><path class="c" d="m26.3 8.7v1.7q0.1 0 0.2 0v-1.7q-0.1 0-0.2 0z"/><path class="c" d="m27.1 8.7v1.7q0.1 0 0.2 0v-1.7q-0.1 0-0.2 0z"/><path class="c" d="m27.9 8.7v1.7q0.1 0 0.2 0v-1.7q-0.1 0-0.2 0z"/><path class="c" d="m28.7 8.7v1.7q0.1 0 0.2 0v-1.7q-0.1 0-0.2 0z"/><path class="c" d="m29.5 8.7v1.6q0.1 0 0.2 0v-1.7q-0.1 0-0.2 0.1z"/><path class="c" d="m30.3 8.6v1.7q0.1 0 0.2 0v-1.7q-0.1 0-0.2 0z"/><path class="c" d="m31.1 8.6v1.7q0.1 0 0.2-0.1v-1.7q-0.1 0.1-0.2 0.1z"/><path class="c" d="m32 8.5v1.7q0.1 0 0.2 0v-1.7q-0.1 0-0.2 0z"/><path class="c" d="m32.8 8.4v1.7q0.1 0 0.2 0v-1.7q-0.1 0-0.2 0z"/><path class="c" d="m33.6 8.3v1.7q0.1 0 0.2 0v-1.7q-0.1 0-0.2 0z"/><path class="c" d="m34.4 8.2v1.7q0.1 0 0.2 0v-1.7q-0.1 0-0.2 0z"/><path class="c" d="m35.2 8v1.7q0.1 0 0.2 0v-1.7q-0.1 0-0.2 0z"/><path class="c" d="m36 7.8v1.7q0.1 0 0.2 0v-1.7q-0.1 0-0.2 0z"/><path class="c" d="m36.8 7.6v1.7q0.1-0.1 0.2-0.1v-1.7q-0.1 0-0.2 0.1z"/><path class="e" d="m34 5.3l-16.1 1.6q-0.2-0.2-0.2-0.4 0-0.1 0.2-0.3l12.9-1.2q1.8 0.1 3.2 0.3z"/><path class="e" d="m37.1 6.6q0 0.1-0.1 0.2l-13.5 1.3c-1.9-0.2-3.4-0.4-4.4-0.7l16.9-1.6c0.7 0.2 1.1 0.5 1.1 0.8z"/><path class="f" d="m31.1 9.4q-0.1 0.4 0 0.9-1.7 0.1-3.7 0.1-1.2 0-2.3-0.1c0.2-0.5 0.2-1.1 0.1-1.7q0.2 0.1 0.4 0.1 0.9 0 1.8 0 2 0 3.7-0.1c0 0.2 0 0.5 0 0.8z"/><path class="f" d="m21.3 10c-1.2-0.1-2.3-0.3-3-0.6 0.1-0.3 0.2-0.7 0.2-0.7q0-0.5 0-0.9 0 0 0 0c0.7 0.2 1.7 0.4 2.9 0.5-0.2 0.6-0.2 1.2-0.1 1.7z"/><path class="f" d="m37.5 6.9v1.7c0 0.5-0.9 0.8-2.3 1.1q0.1-0.3 0.2-0.7 0-0.5 0-1c1.3-0.3 2.1-0.7 2.1-1.1z"/><path class="g" d="m35.8 7.5l1 1.1-0.8-1.2 1-0.1-1-0.2 0.7-0.6-0.8 0.4v-1.4l-0.3 1.4-0.6-0.7 0.4 0.8h-1.4l1.4 0.3-0.7 0.6 0.8-0.4v1.1z"/><path class="g" d="m18.2 15.5l1 0.5-0.9-0.6 0.6-0.3-0.7 0.1 0.3-0.6-0.4 0.6-0.4-1 0.2 1-0.6-0.2 0.5 0.3-0.9 0.4 1-0.2-0.3 0.6 0.4-0.5 0.4 0.7z"/></svg>