<svg version="1.2" xmlns="http://www.w3.org/2000/svg" viewBox="0 0 40 40" width="40" height="40"><style>.a{fill:#ffd526}.b{fill:#ffe750}.c{fill:#efc940}.d{fill:#da9c13}.e{opacity:.4;fill:#fff391}.f{opacity:.2;fill:#fff391}.g{fill:#fff391}</style><path class="a" d="m33.4 19.4q0.3 0.3 0.7 0.6 0.2 0.2 0.2 0.5c0 1.5-7.2 2.7-16 2.7-8.9 0-16.1-1.2-16.1-2.7q0-0.3 0.3-0.6 0 0 0 0 0.1 0 0.1 0 0-0.1 0-0.1 0.1 0 0.1 0 0-0.1 0-0.1 0 0 0.1 0 0-0.1 0-0.1 0.1 0 0.1 0 0-0.1 0-0.1 0.1 0 0.1 0c0.1-0.1 0.1-0.2 0.1-0.2q-0.2 0.3-0.2 0.5c0 1.5 6.9 2.7 15.4 2.7 8.5 0 15.4-1.2 15.4-2.7q0-0.2-0.3-0.4z"/><path class="b" d="m33.7 19.8q0 0.2-0.2 0.4c-1.1 1.3-7.5 2.3-15.2 2.3-2.2 0-4.4-0.1-6.3-0.2-2.9-0.2-5.4-0.6-7-1.1q-1.4-0.4-1.9-0.9-0.2-0.2-0.2-0.5 0-0.3 0.3-0.5c1.4-1.2 7.6-2.1 15.1-2.1q2.8 0 5.4 0.1c1.9 0.1 3.6 0.3 5 0.6 1.4 0.2 2.5 0.4 3.3 0.7 1.1 0.4 1.7 0.8 1.7 1.2z"/><path class="c" d="m18.3 22.2q-3.3 0-6.2-0.3c-2.9-0.2-5.4-0.6-7-1-1.1-0.4-1.6-0.6-1.8-0.8 0-0.1-0.1-0.2-0.1-0.3q0-0.1 0.2-0.3c0.7-0.5 2.5-1 5.1-1.4 2.8-0.4 6.2-0.6 9.8-0.6q2.8 0 5.4 0.2 2.8 0.2 5 0.5 2 0.3 3.2 0.7c1.4 0.5 1.4 0.9 1.4 0.9q0 0.1 0 0.2c-1 1.1-6.8 2.2-15 2.2z"/><path class="a" d="m34.1 23.7q-0.4 0.3-0.7 0.6c-1.3 1.2-7.6 2.2-15.1 2.2-7.6 0-13.9-1-15.2-2.2q0-0.1-0.1-0.1 0 0 0 0 0-0.1 0-0.1-0.1 0-0.1 0 0 0 0-0.1-0.1 0-0.1 0 0 0 0-0.1-0.2-0.1-0.3-0.2c1.3 1.3 7.9 2.3 15.8 2.3 7.8 0 14.4-1 15.8-2.3z"/><path class="d" d="m34.3 20.5v2.7c0 0.6-1.3 1.2-3.5 1.7-1.8 0.4-4 0.7-6.6 0.9-1.8 0.1-3.8 0.2-5.9 0.2q-1.9 0-3.6-0.1-0.6 0-1-0.1c-1.9-0.1-3.6-0.2-5.1-0.4-2-0.3-3.7-0.6-4.8-1-1-0.4-1.6-0.8-1.6-1.2v-2.7c0 0.4 0.7 0.9 1.9 1.3 1.1 0.3 2.7 0.6 4.7 0.9 1.7 0.2 3.7 0.4 5.9 0.5q0.4 0 0.7 0 1.4 0 2.9 0c2.1 0 4.1 0 5.9-0.2 2.7-0.1 5.1-0.5 6.8-0.8 2.1-0.5 3.3-1.1 3.3-1.7z"/><path class="c" d="m2.3 20.7v2.7q0.1 0.2 0.3 0.4v-2.7q-0.2-0.2-0.3-0.4z"/><path class="c" d="m3.6 21.6v2.7q0.1 0 0.3 0.1v-2.7q-0.2-0.1-0.3-0.1z"/><path class="c" d="m4.9 22v2.7q0.1 0 0.3 0.1v-2.7q-0.2-0.1-0.3-0.1z"/><path class="c" d="m6.1 22.3v2.7q0.2 0 0.4 0.1v-2.8q-0.2 0-0.4 0z"/><path class="c" d="m7.4 22.5v2.7q0.2 0 0.4 0.1v-2.7q-0.2-0.1-0.4-0.1z"/><path class="c" d="m8.7 22.7v2.7q0.2 0 0.4 0v-2.7q-0.2 0-0.4 0z"/><path class="c" d="m10 22.8v2.8q0.2 0 0.3 0v-2.7q-0.1 0-0.3-0.1z"/><path class="c" d="m11.3 23v2.7q0.2 0 0.3 0v-2.7q-0.1 0-0.3 0z"/><path class="c" d="m12.6 23.1v2.7q0.2 0 0.3 0v-2.7q-0.1 0-0.3 0z"/><path class="c" d="m13.9 23.1v2.7q0.2 0.1 0.3 0.1v-2.7q-0.1-0.1-0.3-0.1z"/><path class="c" d="m15.2 23.2v2.7q0.2 0 0.3 0v-2.7q-0.1 0-0.3 0z"/><path class="c" d="m16.5 23.2v2.7q0.2 0 0.3 0v-2.7q-0.1 0-0.3 0z"/><path class="c" d="m17.8 23.2v2.7q0.1 0.1 0.3 0.1v-2.8q-0.2 0-0.3 0z"/><path class="c" d="m19.1 23.2v2.7q0.1 0 0.3 0v-2.7q-0.2 0-0.3 0z"/><path class="c" d="m20.4 23.2v2.7q0.1 0 0.3 0v-2.7q-0.2 0-0.3 0z"/><path class="c" d="m21.7 23.2v2.7q0.1 0 0.3 0v-2.7q-0.2 0-0.3 0z"/><path class="c" d="m23 23.1v2.7q0.1 0 0.3 0v-2.7q-0.2 0-0.3 0z"/><path class="c" d="m24.3 23v2.8q0.1-0.1 0.3-0.1v-2.7q-0.2 0-0.3 0z"/><path class="c" d="m25.5 22.9v2.7q0.2 0 0.4 0v-2.7q-0.2 0-0.4 0z"/><path class="c" d="m26.8 22.8v2.7q0.2 0 0.4 0v-2.7q-0.2 0-0.4 0z"/><path class="c" d="m28.1 22.7v2.7q0.2-0.1 0.4-0.1v-2.7q-0.2 0-0.4 0.1z"/><path class="c" d="m29.4 22.5v2.7q0.2-0.1 0.3-0.1v-2.7q-0.1 0-0.3 0.1z"/><path class="c" d="m30.7 22.2v2.7q0.2 0 0.3 0v-2.8q-0.1 0.1-0.3 0.1z"/><path class="c" d="m32 21.9v2.7q0.2 0 0.3-0.1v-2.7q-0.1 0-0.3 0.1z"/><path class="c" d="m33.3 21.4v2.7q0.2 0 0.3-0.1v-2.7q-0.1 0.1-0.3 0.1z"/><path class="e" d="m28.7 17.9l-25.6 2.4q-0.2-0.2-0.2-0.5 0-0.3 0.3-0.5l20.5-2c1.9 0.1 3.6 0.3 5 0.6z"/><path class="e" d="m33.7 19.8q0 0.2-0.2 0.4l-21.5 2.1c-2.9-0.2-5.4-0.6-7-1.1l27-2.6c1.1 0.4 1.7 0.8 1.7 1.2z"/><path class="f" d="m24.1 24.4c0 0.4 0 0.9 0.1 1.4-1.8 0.1-3.8 0.2-5.9 0.2q-1.9 0-3.6-0.1c0.2-0.9 0.3-1.9 0-2.7q0.4 0 0.7 0 1.4 0 2.9 0c2.1 0 4.1 0 5.9-0.2-0.1 0.5-0.1 0.9-0.1 1.4z"/><path class="f" d="m8.6 25.4c-2-0.3-3.7-0.6-4.8-1 0.2-0.5 0.3-1.1 0.3-1.2q0-0.7 0-1.4 0 0 0 0c1.1 0.3 2.7 0.6 4.7 0.9-0.3 0.9-0.4 1.8-0.2 2.7z"/><path class="f" d="m34.3 20.5v2.7c0 0.6-1.3 1.2-3.5 1.7q0.1-0.6 0.2-1.2 0.1-0.8 0-1.5c2.1-0.5 3.3-1.1 3.3-1.7z"/><path class="a" d="m36.8 16.1q0.3 0.3 0.6 0.6 0.3 0.3 0.3 0.5c0 1.6-7.2 2.8-16.1 2.8-8.9 0-16-1.2-16-2.8q0-0.2 0.2-0.5 0.1 0 0.1 0 0-0.1 0-0.1 0 0 0.1 0 0-0.1 0-0.1 0 0 0.1 0 0 0 0-0.1 0 0 0.1 0 0 0 0-0.1 0 0 0.1 0 0 0 0-0.1c0.1-0.1 0.2-0.1 0.2-0.1q-0.3 0.2-0.3 0.5c0 1.5 6.9 2.7 15.4 2.7 8.5 0 15.4-1.2 15.4-2.7q0-0.2-0.2-0.5z"/><path class="b" d="m37 16.6q0 0.2-0.1 0.4c-1.2 1.3-7.6 2.3-15.3 2.3-2.2 0-4.3-0.1-6.2-0.3-3-0.2-5.4-0.6-7.1-1q-1.3-0.4-1.8-0.9-0.3-0.3-0.3-0.5 0-0.3 0.3-0.6c1.5-1.2 7.7-2.1 15.1-2.1q2.9 0 5.4 0.2c1.9 0.1 3.6 0.3 5.1 0.5 1.3 0.2 2.4 0.5 3.3 0.8 1 0.3 1.6 0.8 1.6 1.2z"/><path class="c" d="m21.6 18.9q-3.2 0-6.2-0.2c-2.9-0.2-5.3-0.6-7-1.1-1.1-0.3-1.5-0.6-1.7-0.8-0.1 0-0.2-0.1-0.2-0.2q0-0.1 0.2-0.3c0.7-0.5 2.6-1.1 5.2-1.4 2.7-0.4 6.2-0.6 9.7-0.6q2.8 0 5.4 0.1 2.8 0.2 5 0.6 2 0.3 3.2 0.7c1.4 0.5 1.5 0.9 1.5 0.9q0 0.1-0.1 0.2c-0.9 1-6.8 2.1-15 2.1z"/><path class="a" d="m37.4 20.4q-0.3 0.3-0.6 0.6c-1.3 1.3-7.6 2.2-15.2 2.2-7.5 0-13.8-0.9-15.1-2.2q-0.1 0-0.1 0 0 0 0-0.1-0.1 0-0.1 0 0 0 0 0-0.1-0.1-0.1-0.1 0 0 0 0-0.1-0.1-0.1-0.1-0.1-0.1-0.3-0.3c1.4 1.3 7.9 2.3 15.8 2.3 7.9 0 14.4-1 15.8-2.3z"/><path class="d" d="m37.7 17.2v2.7c0 0.7-1.4 1.3-3.6 1.8-1.7 0.3-4 0.6-6.6 0.8-1.8 0.1-3.8 0.2-5.9 0.2q-1.9 0-3.6-0.1-0.5 0-1 0c-1.8-0.1-3.6-0.3-5.1-0.4-2-0.3-3.6-0.7-4.7-1.1-1.1-0.3-1.6-0.7-1.6-1.2v-2.7c0 0.5 0.6 0.9 1.8 1.3 1.1 0.4 2.8 0.7 4.7 1 1.7 0.2 3.8 0.4 6 0.4q0.3 0.1 0.6 0.1 1.4 0 2.9 0c2.1 0 4.1-0.1 6-0.2 2.7-0.2 5-0.5 6.8-0.9 2-0.5 3.3-1 3.3-1.7z"/><path class="c" d="m5.6 17.4v2.7q0.1 0.2 0.3 0.4v-2.7q-0.2-0.2-0.3-0.4z"/><path class="c" d="m6.9 18.3v2.7q0.2 0.1 0.3 0.2v-2.7q-0.1-0.1-0.3-0.2z"/><path class="c" d="m8.2 18.7v2.8q0.2 0 0.3 0v-2.7q-0.1 0-0.3-0.1z"/><path class="c" d="m9.5 19v2.8q0.1 0 0.3 0v-2.7q-0.2 0-0.3-0.1z"/><path class="c" d="m10.8 19.3v2.7q0.1 0 0.3 0v-2.7q-0.2 0-0.3 0z"/><path class="c" d="m12.1 19.5v2.7q0.1 0 0.3 0v-2.7q-0.2 0-0.3 0z"/><path class="c" d="m13.4 19.6v2.7q0.1 0 0.3 0.1v-2.8q-0.2 0-0.3 0z"/><path class="c" d="m14.7 19.7v2.7q0.1 0.1 0.3 0.1v-2.7q-0.2-0.1-0.3-0.1z"/><path class="c" d="m16 19.8v2.7q0.1 0 0.3 0.1v-2.8q-0.2 0-0.3 0z"/><path class="c" d="m17.2 19.9v2.7q0.2 0 0.4 0v-2.7q-0.2 0-0.4 0z"/><path class="c" d="m18.5 20v2.7q0.2 0 0.4 0v-2.7q-0.2 0-0.4 0z"/><path class="c" d="m19.8 20v2.7q0.2 0 0.4 0v-2.7q-0.2 0-0.4 0z"/><path class="c" d="m21.1 20v2.7q0.2 0 0.4 0v-2.7q-0.2 0-0.4 0z"/><path class="c" d="m22.4 20v2.7q0.2 0 0.3 0v-2.7q-0.1 0-0.3 0z"/><path class="c" d="m23.7 20v2.7q0.2 0 0.3 0v-2.7q-0.1 0-0.3 0z"/><path class="c" d="m25 19.9v2.8q0.2-0.1 0.3-0.1v-2.7q-0.1 0-0.3 0z"/><path class="c" d="m26.3 19.9v2.7q0.2 0 0.3 0v-2.7q-0.1 0-0.3 0z"/><path class="c" d="m27.6 19.8v2.7q0.2 0 0.3 0v-2.7q-0.1 0-0.3 0z"/><path class="c" d="m28.9 19.7v2.7q0.2 0 0.3 0v-2.7q-0.1 0-0.3 0z"/><path class="c" d="m30.2 19.6v2.7q0.1 0 0.3 0v-2.8q-0.2 0.1-0.3 0.1z"/><path class="c" d="m31.5 19.4v2.7q0.1 0 0.3 0v-2.7q-0.2 0-0.3 0z"/><path class="c" d="m32.8 19.2v2.7q0.1 0 0.3 0v-2.7q-0.2 0-0.3 0z"/><path class="c" d="m34.1 19v2.7q0.1 0 0.3-0.1v-2.7q-0.2 0-0.3 0.1z"/><path class="c" d="m35.4 18.7v2.7q0.1-0.1 0.3-0.1v-2.7q-0.2 0-0.3 0.1z"/><path class="c" d="m36.6 18.2v2.7q0.2-0.1 0.4-0.2v-2.7q-0.2 0.1-0.4 0.2z"/><path class="e" d="m32.1 14.6l-25.6 2.5q-0.3-0.3-0.3-0.5 0-0.3 0.3-0.6l20.5-1.9c1.9 0.1 3.6 0.3 5.1 0.5z"/><path class="e" d="m37 16.6q0 0.2-0.1 0.4l-21.5 2c-3-0.2-5.4-0.6-7.1-1l27.1-2.6c1 0.3 1.6 0.8 1.6 1.2z"/><path class="g" d="m14.7 19.1l2.2 0.8-2-1.1 1.3-0.8-1.5 0.4 0.4-1.2-0.6 1.1-1-1.9 0.5 2.1-1.2-0.5 1.1 0.7-1.9 1 2.1-0.6-0.5 1.3 0.7-1.1 0.8 1.4z"/><path class="f" d="m27.5 21.1c0 0.5 0 1 0 1.4-1.8 0.1-3.8 0.2-5.9 0.2q-1.9 0-3.6-0.1c0.3-0.8 0.3-1.8 0.1-2.7q0.3 0.1 0.6 0.1 1.4 0 2.9 0c2.1 0 4.1-0.1 6-0.2-0.1 0.4-0.1 0.9-0.1 1.3z"/><path class="f" d="m11.9 22.2c-2-0.3-3.6-0.7-4.7-1.1 0.1-0.5 0.2-1 0.2-1.1q0.1-0.7 0-1.4 0-0.1 0-0.1c1.1 0.4 2.8 0.7 4.7 1-0.3 0.8-0.4 1.8-0.2 2.7z"/><path class="f" d="m37.7 17.2v2.7c0 0.7-1.4 1.3-3.6 1.8q0.2-0.6 0.2-1.2 0.1-0.8 0.1-1.6c2-0.5 3.3-1 3.3-1.7z"/></svg>