<svg version="1.2" xmlns="http://www.w3.org/2000/svg" viewBox="0 0 40 40" width="40" height="40"><style>.a{fill:#ffd526}.b{fill:#ffe750}.c{fill:#efc940}.d{fill:#da9c13}.e{opacity:.4;fill:#fff391}.f{opacity:.2;fill:#fff391}.g{fill:#fff391}</style><path class="a" d="m31.6 31.7q0.3 0.3 0.6 0.6 0.2 0.2 0.2 0.4c0 1.4-6.5 2.6-14.6 2.6-8 0-14.5-1.2-14.5-2.6q0-0.2 0.2-0.4 0-0.1 0.1-0.1 0 0 0 0 0 0 0-0.1 0.1 0 0.1 0 0 0 0 0 0-0.1 0.1-0.1 0 0 0 0 0-0.1 0.1-0.1 0 0 0 0 0 0 0.1-0.1c0.1-0.1 0.1-0.1 0.1-0.1q-0.3 0.2-0.3 0.5c0 1.3 6.3 2.4 14 2.4 7.8 0 14-1.1 14-2.4q0-0.3-0.2-0.5z"/><path class="b" d="m31.8 32.2q0 0.2-0.1 0.3c-1 1.2-6.8 2.1-13.9 2.1-2 0-3.9-0.1-5.6-0.2-2.7-0.2-4.9-0.6-6.4-1q-1.3-0.4-1.7-0.8-0.3-0.2-0.3-0.4 0-0.3 0.3-0.5c1.4-1.1 7-2 13.7-2q2.7 0 5 0.2c1.7 0.1 3.2 0.3 4.5 0.5q1.9 0.3 3 0.7c1 0.3 1.5 0.7 1.5 1.1z"/><path class="c" d="m17.8 34.3q-2.9 0-5.6-0.2c-2.6-0.2-4.9-0.6-6.3-1-1-0.3-1.4-0.5-1.6-0.7-0.1-0.1-0.1-0.2-0.1-0.2q0-0.1 0.1-0.3c0.6-0.5 2.3-1 4.7-1.3 2.5-0.4 5.6-0.5 8.8-0.5q2.6 0 4.9 0.1 2.6 0.2 4.6 0.5 1.8 0.3 2.9 0.7c1.3 0.4 1.3 0.7 1.3 0.8q0 0.1-0.1 0.1c-0.8 1-6.1 2-13.5 2z"/><path class="a" d="m32.2 35.7q-0.3 0.2-0.6 0.5c-1.2 1.1-6.9 2-13.8 2-6.8 0-12.5-0.9-13.7-2q-0.1 0-0.1-0.1 0 0 0 0 0 0-0.1 0 0-0.1 0-0.1 0 0-0.1 0 0 0 0 0 0-0.1 0-0.1-0.2-0.1-0.3-0.2c1.2 1.1 7.2 2 14.3 2 7.2 0 13.1-0.9 14.4-2z"/><path class="d" d="m32.4 32.7v2.5c0 0.6-1.2 1.2-3.2 1.6-1.6 0.3-3.6 0.6-6 0.8-1.6 0.1-3.5 0.1-5.4 0.1q-1.7 0-3.2 0-0.5-0.1-0.9-0.1-2.6-0.1-4.6-0.4c-1.9-0.2-3.4-0.5-4.4-0.9-0.9-0.3-1.4-0.7-1.4-1.1v-2.5c0 0.5 0.6 0.9 1.6 1.2 1.1 0.4 2.5 0.6 4.3 0.9 1.6 0.2 3.4 0.3 5.4 0.4q0.3 0 0.6 0 1.3 0.1 2.6 0.1c1.9 0 3.8-0.1 5.4-0.2 2.5-0.2 4.6-0.5 6.2-0.8 1.9-0.5 3-1 3-1.6z"/><path class="c" d="m3.3 32.9v2.5q0.1 0.2 0.3 0.3v-2.4q-0.2-0.2-0.3-0.4z"/><path class="c" d="m4.5 33.7v2.5q0.1 0.1 0.3 0.1v-2.4q-0.2-0.1-0.3-0.2z"/><path class="c" d="m5.7 34.1v2.5q0.1 0 0.2 0.1v-2.5q-0.1 0-0.2-0.1z"/><path class="c" d="m6.8 34.4v2.5q0.2 0 0.3 0v-2.4q-0.1-0.1-0.3-0.1z"/><path class="c" d="m8 34.6v2.5q0.2 0 0.3 0v-2.5q-0.1 0-0.3 0z"/><path class="c" d="m9.2 34.8v2.4q0.1 0.1 0.3 0.1v-2.5q-0.2 0-0.3 0z"/><path class="c" d="m10.4 34.9v2.5q0.1 0 0.2 0v-2.5q-0.1 0-0.2 0z"/><path class="c" d="m11.5 35v2.5q0.2 0 0.3 0v-2.5q-0.1 0-0.3 0z"/><path class="c" d="m12.7 35.1v2.5q0.1 0 0.3 0v-2.5q-0.2 0-0.3 0z"/><path class="c" d="m13.9 35.2v2.4q0.1 0 0.3 0v-2.4q-0.2 0-0.3 0z"/><path class="c" d="m15.1 35.2v2.5q0.1 0 0.2 0v-2.5q-0.1 0-0.2 0z"/><path class="c" d="m16.2 35.3v2.4q0.2 0 0.3 0v-2.4q-0.1 0-0.3 0z"/><path class="c" d="m17.4 35.3v2.4q0.1 0 0.3 0v-2.4q-0.2 0-0.3 0z"/><path class="c" d="m18.6 35.3v2.4q0.1 0 0.3 0v-2.4q-0.2 0-0.3 0z"/><path class="c" d="m19.8 35.2v2.5q0.1 0 0.2 0v-2.5q-0.1 0-0.2 0z"/><path class="c" d="m20.9 35.2v2.5q0.2 0 0.3 0v-2.5q-0.1 0-0.3 0z"/><path class="c" d="m22.1 35.2v2.4q0.1 0 0.3 0v-2.5q-0.2 0.1-0.3 0.1z"/><path class="c" d="m23.3 35.1v2.4q0.1 0 0.3 0v-2.4q-0.2 0-0.3 0z"/><path class="c" d="m24.4 35v2.5q0.2-0.1 0.3-0.1v-2.4q-0.1 0-0.3 0z"/><path class="c" d="m25.6 34.9v2.4q0.2 0 0.3 0v-2.5q-0.1 0.1-0.3 0.1z"/><path class="c" d="m26.8 34.7v2.5q0.1 0 0.3 0v-2.5q-0.2 0-0.3 0z"/><path class="c" d="m28 34.6v2.4q0.1 0 0.3 0v-2.5q-0.2 0-0.3 0.1z"/><path class="c" d="m29.1 34.3v2.5q0.2 0 0.3-0.1v-2.4q-0.1 0-0.3 0z"/><path class="c" d="m30.3 34v2.5q0.2 0 0.3-0.1v-2.4q-0.1 0-0.3 0z"/><path class="c" d="m31.5 33.6v2.5q0.2-0.1 0.3-0.2v-2.4q-0.1 0.1-0.3 0.1z"/><path class="e" d="m27.3 30.4l-23.2 2.2q-0.3-0.2-0.3-0.4 0-0.3 0.3-0.5l18.7-1.8c1.7 0.1 3.2 0.3 4.5 0.5z"/><path class="e" d="m31.8 32.2q0 0.2-0.1 0.3l-19.5 1.9c-2.7-0.2-4.9-0.6-6.4-1l24.5-2.3c1 0.3 1.5 0.7 1.5 1.1z"/><path class="f" d="m23.1 36.3q0 0.6 0.1 1.3c-1.6 0.1-3.5 0.1-5.4 0.1q-1.7 0-3.2 0c0.2-0.8 0.3-1.7 0-2.5q0.3 0 0.6 0 1.3 0.1 2.6 0.1c1.9 0 3.8-0.1 5.4-0.2-0.1 0.4-0.1 0.8-0.1 1.2z"/><path class="f" d="m9.1 37.2c-1.9-0.2-3.4-0.5-4.4-0.9 0.2-0.5 0.2-0.9 0.2-1.1q0.1-0.6 0-1.2 0-0.1 0-0.1c1.1 0.4 2.5 0.6 4.3 0.9-0.3 0.8-0.3 1.6-0.1 2.4z"/><path class="f" d="m32.4 32.7v2.5c0 0.6-1.2 1.2-3.2 1.6q0.1-0.5 0.2-1.1 0.1-0.7 0-1.4c1.9-0.5 3-1 3-1.6z"/><path class="a" d="m34.6 28.8q0.3 0.3 0.6 0.5 0.3 0.3 0.3 0.5c0 1.4-6.6 2.5-14.6 2.5-8.1 0-14.6-1.1-14.6-2.5q0-0.2 0.2-0.5 0.1 0 0.1 0 0 0 0 0 0.1-0.1 0.1-0.1 0 0 0 0 0-0.1 0.1-0.1 0 0 0 0 0 0 0.1-0.1 0 0 0 0 0 0 0 0 0.1-0.1 0.1-0.1c0.1-0.1 0.1-0.1 0.1-0.1q-0.2 0.2-0.2 0.4c0 1.4 6.2 2.5 14 2.5 7.7 0 14-1.1 14-2.5q0-0.2-0.3-0.4z"/><path class="b" d="m34.9 29.2q0 0.2-0.2 0.4c-1 1.2-6.8 2.1-13.8 2.1-2 0-3.9-0.1-5.7-0.2-2.7-0.2-4.9-0.6-6.4-1q-1.2-0.4-1.7-0.8-0.2-0.2-0.2-0.5 0-0.2 0.3-0.5c1.3-1.1 6.9-1.9 13.7-1.9q2.6 0 4.9 0.2c1.7 0.1 3.3 0.2 4.6 0.5q1.8 0.2 3 0.6c0.9 0.4 1.5 0.7 1.5 1.1z"/><path class="c" d="m20.9 31.4q-3 0-5.7-0.3c-2.6-0.2-4.8-0.5-6.3-0.9-1-0.3-1.4-0.6-1.6-0.8 0 0-0.1-0.1-0.1-0.2q0-0.1 0.2-0.2c0.6-0.5 2.3-1 4.6-1.3 2.5-0.4 5.6-0.6 8.9-0.6q2.5 0 4.9 0.2 2.5 0.1 4.5 0.5 1.8 0.2 3 0.6c1.2 0.5 1.3 0.8 1.3 0.8q0 0.1-0.1 0.2c-0.8 1-6.2 2-13.6 2z"/><path class="a" d="m35.2 32.7q-0.3 0.3-0.6 0.6c-1.1 1.1-6.9 2-13.7 2-6.9 0-12.6-0.9-13.8-2q0-0.1 0-0.1-0.1 0-0.1 0 0 0 0-0.1 0 0-0.1 0 0 0 0-0.1 0 0 0 0-0.1 0-0.1 0-0.1-0.2-0.3-0.3c1.3 1.2 7.2 2.1 14.4 2.1 7.1 0 13.1-0.9 14.3-2.1z"/><path class="d" d="m35.5 29.8v2.5c0 0.6-1.3 1.1-3.3 1.5-1.5 0.4-3.6 0.7-5.9 0.8-1.7 0.1-3.5 0.2-5.4 0.2q-1.7 0-3.3-0.1-0.5 0-0.9 0-2.5-0.2-4.6-0.4c-1.8-0.3-3.3-0.6-4.3-0.9-1-0.4-1.5-0.7-1.5-1.1v-2.5c0 0.4 0.6 0.8 1.7 1.2 1 0.3 2.5 0.6 4.2 0.8 1.6 0.2 3.5 0.4 5.4 0.5q0.4 0 0.7 0 1.2 0 2.6 0c1.9 0 3.7 0 5.4-0.1 2.4-0.2 4.6-0.5 6.2-0.9 1.8-0.4 3-0.9 3-1.5z"/><path class="c" d="m6.3 30v2.5q0.1 0.1 0.3 0.3v-2.5q-0.2-0.1-0.3-0.3z"/><path class="c" d="m7.5 30.8v2.5q0.2 0 0.3 0.1v-2.5q-0.1 0-0.3-0.1z"/><path class="c" d="m8.7 31.2v2.4q0.1 0.1 0.3 0.1v-2.4q-0.2-0.1-0.3-0.1z"/><path class="c" d="m9.9 31.5v2.4q0.1 0 0.3 0.1v-2.5q-0.2 0-0.3 0z"/><path class="c" d="m11 31.7v2.4q0.2 0 0.3 0.1v-2.5q-0.1 0-0.3 0z"/><path class="c" d="m12.2 31.8v2.5q0.2 0 0.3 0v-2.4q-0.1 0-0.3-0.1z"/><path class="c" d="m13.4 32v2.4q0.1 0 0.3 0.1v-2.5q-0.2 0-0.3 0z"/><path class="c" d="m14.6 32.1v2.4q0.1 0.1 0.3 0.1v-2.5q-0.2 0-0.3 0z"/><path class="c" d="m15.7 32.2v2.4q0.2 0 0.3 0v-2.4q-0.1 0-0.3 0z"/><path class="c" d="m16.9 32.2v2.5q0.2 0 0.3 0v-2.5q-0.1 0-0.3 0z"/><path class="c" d="m18.1 32.3v2.4q0.1 0 0.3 0.1v-2.5q-0.2 0-0.3 0z"/><path class="c" d="m19.3 32.3v2.5q0.1 0 0.3 0v-2.5q-0.2 0-0.3 0z"/><path class="c" d="m20.4 32.3v2.5q0.2 0 0.3 0v-2.5q-0.1 0-0.3 0z"/><path class="c" d="m21.6 32.3v2.5q0.2 0 0.3 0v-2.5q-0.1 0-0.3 0z"/><path class="c" d="m22.8 32.3v2.5q0.1 0 0.3 0v-2.5q-0.2 0-0.3 0z"/><path class="c" d="m24 32.3v2.4q0.1 0 0.3 0v-2.4q-0.2 0-0.3 0z"/><path class="c" d="m25.1 32.2v2.5q0.2 0 0.3 0v-2.5q-0.1 0-0.3 0z"/><path class="c" d="m26.3 32.1v2.5q0.2 0 0.3 0v-2.5q-0.1 0-0.3 0z"/><path class="c" d="m27.5 32.1v2.4q0.1 0 0.3 0v-2.5q-0.2 0-0.3 0.1z"/><path class="c" d="m28.7 31.9v2.5q0.1 0 0.3 0v-2.5q-0.2 0-0.3 0z"/><path class="c" d="m29.8 31.8v2.5q0.2-0.1 0.3-0.1v-2.4q-0.1 0-0.3 0z"/><path class="c" d="m31 31.6v2.5q0.2 0 0.3-0.1v-2.4q-0.1 0-0.3 0z"/><path class="c" d="m32.2 31.4v2.5q0.1-0.1 0.3-0.1v-2.5q-0.2 0.1-0.3 0.1z"/><path class="c" d="m33.4 31.1v2.5q0.1-0.1 0.2-0.1v-2.5q-0.1 0.1-0.2 0.1z"/><path class="c" d="m34.5 30.7v2.4q0.2 0 0.3-0.1v-2.5q-0.1 0.1-0.3 0.2z"/><path class="e" d="m30.4 27.5l-23.3 2.2q-0.2-0.2-0.2-0.5 0-0.2 0.3-0.5l18.6-1.7c1.7 0.1 3.3 0.2 4.6 0.5z"/><path class="e" d="m34.9 29.2q0 0.2-0.2 0.4l-19.5 1.9c-2.7-0.2-4.9-0.6-6.4-1l24.6-2.4c0.9 0.4 1.5 0.7 1.5 1.1z"/><path class="g" d="m34.8 30.1l1.9 0.7-1.8-1 1.2-0.7-1.3 0.3 0.4-1.1-0.6 1-0.9-1.7 0.5 1.9-1.2-0.4 1.1 0.6-1.8 0.9 1.9-0.5-0.4 1.1 0.6-1 0.8 1.3z"/><path class="f" d="m26.2 33.4q0 0.6 0.1 1.2c-1.7 0.1-3.5 0.2-5.4 0.2q-1.7 0-3.3-0.1c0.3-0.8 0.3-1.6 0-2.4q0.4 0 0.7 0 1.2 0 2.6 0c1.9 0 3.7 0 5.4-0.1-0.1 0.3-0.1 0.8-0.1 1.2z"/><path class="f" d="m12.1 34.3c-1.8-0.3-3.3-0.6-4.3-0.9 0.1-0.5 0.2-1 0.2-1.1q0.1-0.6 0-1.3 0 0 0 0c1 0.3 2.5 0.6 4.2 0.8-0.2 0.8-0.3 1.7-0.1 2.5z"/><path class="f" d="m35.5 29.8v2.5c0 0.6-1.3 1.1-3.3 1.5q0.2-0.5 0.2-1 0.1-0.8 0.1-1.5c1.8-0.4 3-0.9 3-1.5z"/><path class="a" d="m33.8 24.6q0.3 0.3 0.5 0.5 0.3 0.3 0.3 0.5c0 1.4-6.6 2.5-14.6 2.5-8.1 0-14.6-1.1-14.6-2.5q0-0.2 0.3-0.5 0 0 0 0 0 0 0-0.1 0.1 0 0.1 0 0 0 0 0 0.1-0.1 0.1-0.1 0 0 0 0 0 0 0.1-0.1 0 0 0 0 0 0 0.1-0.1 0 0 0 0c0.1-0.1 0.1-0.1 0.1-0.1q-0.2 0.2-0.2 0.4c0 1.4 6.3 2.5 14 2.5 7.7 0 14-1.1 14-2.5q0-0.2-0.2-0.4z"/><path class="b" d="m34 25q0 0.2-0.2 0.4c-1 1.2-6.8 2.1-13.8 2.1-2 0-3.9-0.1-5.7-0.3-2.6-0.2-4.9-0.5-6.3-0.9q-1.3-0.4-1.8-0.8-0.2-0.3-0.2-0.5 0-0.2 0.3-0.5c1.3-1.1 7-1.9 13.7-1.9q2.6 0 4.9 0.1c1.7 0.2 3.3 0.3 4.6 0.5q1.8 0.3 3 0.7c0.9 0.4 1.5 0.7 1.5 1.1z"/><path class="c" d="m20 27.1q-3 0-5.6-0.2c-2.7-0.2-4.9-0.5-6.4-0.9-1-0.3-1.4-0.6-1.6-0.8 0 0-0.1-0.1-0.1-0.2q0-0.1 0.2-0.2c0.6-0.5 2.3-1 4.7-1.4 2.4-0.3 5.6-0.5 8.8-0.5q2.5 0 4.9 0.2 2.5 0.1 4.6 0.4 1.8 0.3 2.9 0.7c1.2 0.4 1.3 0.8 1.3 0.8q0 0.1-0.1 0.2c-0.8 0.9-6.1 1.9-13.6 1.9z"/><path class="a" d="m34.3 28.5q-0.2 0.3-0.5 0.6c-1.2 1.1-6.9 1.9-13.8 1.9-6.9 0-12.6-0.8-13.8-2q0 0 0 0 0 0-0.1 0 0-0.1 0-0.1 0 0 0 0-0.1 0-0.1-0.1 0 0 0 0-0.1 0-0.1-0.1-0.1-0.1-0.2-0.2c1.2 1.2 7.1 2.1 14.3 2.1 7.1 0 13.1-0.9 14.3-2.1z"/><path class="d" d="m34.6 25.6v2.4c0 0.7-1.2 1.2-3.3 1.6-1.5 0.4-3.6 0.6-5.9 0.8-1.7 0.1-3.5 0.2-5.4 0.2q-1.7 0-3.3-0.1-0.4 0-0.9 0-2.5-0.2-4.6-0.4c-1.8-0.3-3.3-0.6-4.3-0.9-1-0.4-1.5-0.8-1.5-1.2v-2.4c0 0.4 0.6 0.8 1.7 1.2 1 0.3 2.5 0.6 4.3 0.8 1.5 0.2 3.4 0.4 5.4 0.5q0.3 0 0.6 0 1.3 0 2.6 0c1.9 0 3.7 0 5.4-0.2 2.5-0.1 4.6-0.4 6.2-0.8 1.9-0.4 3-0.9 3-1.5z"/><path class="c" d="m5.5 25.8v2.4q0 0.2 0.3 0.4v-2.5q-0.3-0.1-0.3-0.3z"/><path class="c" d="m6.6 26.6v2.5q0.2 0 0.3 0.1v-2.5q-0.1 0-0.3-0.1z"/><path class="c" d="m7.8 27v2.4q0.2 0.1 0.3 0.1v-2.5q-0.1 0-0.3 0z"/><path class="c" d="m9 27.2v2.5q0.1 0 0.3 0.1v-2.5q-0.2 0-0.3-0.1z"/><path class="c" d="m10.2 27.5v2.4q0.1 0 0.3 0.1v-2.5q-0.2 0-0.3 0z"/><path class="c" d="m11.3 27.6v2.5q0.2 0 0.3 0v-2.4q-0.1-0.1-0.3-0.1z"/><path class="c" d="m12.5 27.8v2.4q0.2 0 0.3 0v-2.4q-0.1 0-0.3 0z"/><path class="c" d="m13.7 27.9v2.4q0.1 0 0.3 0.1v-2.5q-0.2 0-0.3 0z"/><path class="c" d="m14.9 28v2.4q0.1 0 0.3 0v-2.4q-0.2 0-0.3 0z"/><path class="c" d="m16 28v2.5q0.2 0 0.3 0v-2.5q-0.1 0-0.3 0z"/><path class="c" d="m17.2 28.1v2.4q0.2 0 0.3 0v-2.4q-0.1 0-0.3 0z"/><path class="c" d="m18.4 28.1v2.5q0.1 0 0.3 0v-2.5q-0.2 0-0.3 0z"/><path class="c" d="m19.6 28.1v2.5q0.1 0 0.2 0v-2.5q-0.1 0-0.2 0z"/><path class="c" d="m20.7 28.1v2.5q0.2 0 0.3 0v-2.5q-0.1 0-0.3 0z"/><path class="c" d="m21.9 28.1v2.5q0.2 0 0.3 0v-2.5q-0.1 0-0.3 0z"/><path class="c" d="m23.1 28.1v2.4q0.1 0 0.3 0v-2.4q-0.2 0-0.3 0z"/><path class="c" d="m24.3 28v2.5q0.1 0 0.2 0v-2.5q-0.1 0-0.2 0z"/><path class="c" d="m25.4 27.9v2.5q0.2 0 0.3 0v-2.5q-0.1 0-0.3 0z"/><path class="c" d="m26.6 27.8v2.5q0.1 0 0.3 0v-2.5q-0.1 0-0.3 0z"/><path class="c" d="m27.8 27.7v2.5q0.1 0 0.3 0v-2.5q-0.2 0-0.3 0z"/><path class="c" d="m29 27.6v2.4q0.1 0 0.2 0v-2.5q-0.1 0.1-0.2 0.1z"/><path class="c" d="m30.1 27.4v2.5q0.2-0.1 0.3-0.1v-2.4q-0.1 0-0.3 0z"/><path class="c" d="m31.3 27.2v2.4q0.1 0 0.3 0v-2.5q-0.2 0.1-0.3 0.1z"/><path class="c" d="m32.5 26.9v2.5q0.1-0.1 0.3-0.1v-2.5q-0.2 0.1-0.3 0.1z"/><path class="c" d="m33.7 26.5l-0.1 2.4q0.2 0 0.3-0.1v-2.5q-0.1 0.1-0.2 0.2z"/><path class="e" d="m29.5 23.2l-23.3 2.3q-0.2-0.3-0.2-0.5 0-0.2 0.3-0.5l18.6-1.8c1.7 0.2 3.3 0.3 4.6 0.5z"/><path class="e" d="m34 25q0 0.2-0.2 0.4l-19.5 1.8c-2.6-0.2-4.9-0.5-6.3-0.9l24.5-2.4c0.9 0.4 1.5 0.7 1.5 1.1z"/><path class="f" d="m25.3 29.1q0 0.7 0.1 1.3c-1.7 0.1-3.5 0.2-5.4 0.2q-1.7 0-3.3-0.1c0.3-0.8 0.3-1.6 0.1-2.4q0.3 0 0.6 0 1.3 0 2.6 0c1.9 0 3.7 0 5.4-0.2-0.1 0.4-0.1 0.8-0.1 1.2z"/><path class="f" d="m11.2 30.1c-1.8-0.3-3.3-0.6-4.3-0.9 0.1-0.5 0.2-1 0.2-1.1q0.1-0.7 0-1.3 0 0 0 0c1 0.3 2.5 0.6 4.3 0.8-0.3 0.8-0.4 1.7-0.2 2.5z"/><path class="f" d="m34.6 25.6v2.4c0 0.7-1.2 1.2-3.3 1.6q0.2-0.5 0.3-1 0-0.8 0-1.5c1.9-0.4 3-0.9 3-1.5z"/><path class="a" d="m34.9 20.7q0.3 0.2 0.6 0.5 0.2 0.2 0.3 0.5c0 1.4-6.6 2.5-14.6 2.5-8.1 0-14.6-1.1-14.6-2.5q0-0.3 0.2-0.5 0.1 0 0.1 0 0-0.1 0-0.1 0 0 0.1 0 0 0 0-0.1 0 0 0.1 0 0 0 0 0 0-0.1 0-0.1 0.1 0 0.1 0 0-0.1 0-0.1 0.1 0 0.1 0c0.1-0.1 0.1-0.1 0.1-0.1q-0.2 0.2-0.2 0.4c0 1.3 6.2 2.4 14 2.4 7.7 0 14-1.1 14-2.4q0-0.2-0.3-0.4z"/><path class="b" d="m35.2 21.1q0 0.2-0.2 0.4c-1 1.1-6.8 2-13.8 2-2 0-4 0-5.7-0.2-2.7-0.2-4.9-0.5-6.4-1q-1.2-0.3-1.7-0.8-0.2-0.2-0.2-0.4 0-0.3 0.3-0.5c1.3-1.1 6.9-1.9 13.7-1.9q2.6 0 4.9 0.1c1.7 0.1 3.3 0.3 4.6 0.5q1.8 0.3 2.9 0.7c1 0.3 1.6 0.7 1.6 1.1z"/><path class="c" d="m21.2 23.2q-3 0-5.7-0.2c-2.6-0.2-4.8-0.5-6.3-1-1-0.2-1.4-0.5-1.6-0.7 0 0-0.1-0.1-0.1-0.2q0-0.1 0.2-0.3c0.6-0.5 2.3-0.9 4.6-1.3 2.5-0.3 5.6-0.5 8.9-0.5q2.5 0 4.9 0.1 2.5 0.2 4.5 0.5 1.8 0.3 2.9 0.7c1.3 0.4 1.4 0.8 1.4 0.8q-0.1 0.1-0.1 0.2c-0.9 0.9-6.2 1.9-13.6 1.9z"/><path class="a" d="m35.5 24.6q-0.3 0.3-0.6 0.5c-1.2 1.2-6.9 2-13.7 2-6.9 0-12.6-0.8-13.8-2q0 0-0.1 0 0 0 0-0.1 0 0 0 0-0.1 0-0.1 0 0-0.1 0-0.1 0 0-0.1 0 0 0 0-0.1-0.1-0.1-0.3-0.2c1.3 1.2 7.2 2.1 14.4 2.1 7.1 0 13.1-0.9 14.3-2.1z"/><path class="d" d="m35.8 21.7v2.4c0 0.6-1.3 1.2-3.3 1.6-1.5 0.4-3.6 0.6-6 0.8-1.6 0.1-3.4 0.2-5.3 0.2q-1.7 0-3.3-0.1-0.5 0-0.9 0-2.6-0.2-4.6-0.5c-1.8-0.2-3.3-0.5-4.3-0.9-1-0.3-1.5-0.7-1.5-1.1v-2.4c0 0.4 0.6 0.8 1.7 1.1 1 0.4 2.5 0.7 4.2 0.9 1.6 0.2 3.5 0.4 5.4 0.4q0.3 0.1 0.7 0.1 1.2 0 2.6 0c1.9 0 3.7-0.1 5.4-0.2 2.4-0.1 4.6-0.4 6.1-0.8 1.9-0.4 3.1-0.9 3.1-1.5z"/><path class="c" d="m6.6 21.9v2.4q0.1 0.2 0.3 0.4v-2.5q-0.2-0.2-0.3-0.3z"/><path class="c" d="m7.8 22.7v2.4q0.2 0.1 0.3 0.2v-2.5q-0.1-0.1-0.3-0.1z"/><path class="c" d="m9 23.1v2.4q0.1 0.1 0.3 0.1v-2.5q-0.2 0-0.3 0z"/><path class="c" d="m10.2 23.3v2.5q0.1 0 0.3 0v-2.4q-0.2 0-0.3-0.1z"/><path class="c" d="m11.3 23.5v2.5q0.2 0 0.3 0v-2.4q-0.1 0-0.3-0.1z"/><path class="c" d="m12.5 23.7v2.5q0.2 0 0.3 0v-2.5q-0.1 0-0.3 0z"/><path class="c" d="m13.7 23.8v2.5q0.1 0 0.3 0v-2.4q-0.2 0-0.3-0.1z"/><path class="c" d="m14.9 24v2.4q0.1 0 0.3 0v-2.4q-0.2 0-0.3 0z"/><path class="c" d="m16 24v2.5q0.2 0 0.3 0v-2.4q-0.1-0.1-0.3-0.1z"/><path class="c" d="m17.2 24.1v2.5q0.2 0 0.3 0v-2.5q-0.1 0-0.3 0z"/><path class="c" d="m18.4 24.2v2.4q0.1 0 0.3 0v-2.4q-0.2 0-0.3 0z"/><path class="c" d="m19.6 24.2v2.4q0.1 0 0.2 0.1v-2.5q-0.1 0-0.2 0z"/><path class="c" d="m20.7 24.2v2.5q0.2 0 0.3 0v-2.5q-0.1 0-0.3 0z"/><path class="c" d="m21.9 24.2v2.5q0.2 0 0.3 0v-2.5q-0.1 0-0.3 0z"/><path class="c" d="m23.1 24.2v2.4q0.1 0 0.3 0v-2.4q-0.2 0-0.3 0z"/><path class="c" d="m24.3 24.1v2.5q0.1 0 0.2 0v-2.5q-0.1 0-0.2 0z"/><path class="c" d="m25.4 24.1v2.5q0.2-0.1 0.3-0.1v-2.4q-0.1 0-0.3 0z"/><path class="c" d="m26.6 24v2.5q0.2 0 0.3 0v-2.5q-0.1 0-0.3 0z"/><path class="c" d="m27.8 23.9v2.5q0.1 0 0.3 0v-2.5q-0.2 0-0.3 0z"/><path class="c" d="m29 23.8v2.5q0.1 0 0.2-0.1v-2.4q-0.1 0-0.2 0z"/><path class="c" d="m30.1 23.7v2.4q0.2 0 0.3 0v-2.5q-0.1 0-0.3 0.1z"/><path class="c" d="m31.3 23.5v2.5q0.1-0.1 0.3-0.1v-2.5q-0.2 0.1-0.3 0.1z"/><path class="c" d="m32.5 23.3v2.4q0.1 0 0.3 0v-2.5q-0.2 0-0.3 0.1z"/><path class="c" d="m33.7 23v2.4q0.1 0 0.2 0v-2.5q-0.1 0-0.2 0.1z"/><path class="c" d="m34.8 22.6v2.4q0.2-0.1 0.3-0.1v-2.5q-0.1 0.1-0.3 0.2z"/><path class="e" d="m30.7 19.3l-23.3 2.2q-0.2-0.2-0.2-0.4 0-0.3 0.3-0.5l18.6-1.8c1.7 0.1 3.3 0.3 4.6 0.5z"/><path class="e" d="m35.2 21.1q0 0.2-0.2 0.4l-19.5 1.8c-2.7-0.2-4.9-0.5-6.4-1l24.5-2.3c1 0.3 1.6 0.7 1.6 1.1z"/><path class="f" d="m26.5 25.2q0 0.7 0 1.3c-1.6 0.1-3.4 0.2-5.3 0.2q-1.7 0-3.3-0.1c0.3-0.8 0.3-1.7 0-2.5q0.3 0.1 0.7 0.1 1.2 0 2.6 0c1.9 0 3.7-0.1 5.4-0.2-0.1 0.4-0.1 0.8-0.1 1.2z"/><path class="f" d="m12.4 26.1c-1.8-0.2-3.3-0.5-4.3-0.9 0.1-0.4 0.2-0.9 0.2-1q0-0.7 0-1.3 0 0 0-0.1c1 0.4 2.5 0.7 4.2 0.9-0.2 0.8-0.3 1.6-0.1 2.4z"/><path class="f" d="m35.8 21.7v2.4c0 0.6-1.3 1.2-3.3 1.6q0.2-0.5 0.2-1.1 0.1-0.7 0-1.4c1.9-0.4 3.1-0.9 3.1-1.5z"/><path class="a" d="m33.5 16.5q0.3 0.2 0.5 0.5 0.3 0.2 0.3 0.5c0 1.4-6.5 2.5-14.6 2.5-8 0-14.6-1.1-14.6-2.5q0-0.3 0.3-0.5 0 0 0-0.1 0 0 0 0 0.1 0 0.1 0 0-0.1 0-0.1 0.1 0 0.1 0 0 0 0 0 0-0.1 0.1-0.1 0 0 0-0.1 0 0 0.1 0 0 0 0 0c0.1-0.1 0.1-0.1 0.1-0.1q-0.2 0.2-0.2 0.4c0 1.3 6.3 2.4 14 2.4 7.7 0 14-1.1 14-2.4q0-0.2-0.2-0.4z"/><path class="b" d="m33.7 16.9q0 0.2-0.2 0.4c-1 1.1-6.8 2-13.8 2-2 0-3.9-0.1-5.7-0.2-2.6-0.2-4.9-0.5-6.3-1q-1.3-0.3-1.8-0.8-0.2-0.2-0.2-0.4 0-0.3 0.3-0.5c1.3-1.1 7-1.9 13.7-1.9q2.6 0 4.9 0.1c1.7 0.1 3.3 0.3 4.6 0.5q1.8 0.3 3 0.7c1 0.3 1.5 0.7 1.5 1.1z"/><path class="c" d="m19.7 19q-3 0-5.6-0.2c-2.7-0.2-4.9-0.5-6.4-1-1-0.3-1.4-0.5-1.6-0.7 0 0-0.1-0.1-0.1-0.2q0-0.1 0.2-0.3c0.6-0.5 2.3-0.9 4.7-1.3 2.4-0.3 5.6-0.5 8.8-0.5q2.5 0 4.9 0.1 2.6 0.2 4.6 0.5 1.8 0.3 2.9 0.7c1.3 0.4 1.3 0.8 1.3 0.8q0 0.1-0.1 0.2c-0.8 0.9-6.1 1.9-13.6 1.9z"/><path class="a" d="m34 20.4q-0.2 0.3-0.5 0.5c-1.2 1.2-6.9 2-13.8 2-6.9 0-12.6-0.8-13.8-2q0 0 0 0 0 0-0.1-0.1 0 0 0 0 0 0 0 0-0.1-0.1-0.1-0.1 0 0 0 0-0.1-0.1-0.1-0.1-0.1-0.1-0.2-0.2c1.2 1.2 7.1 2 14.3 2 7.2 0.1 13.1-0.8 14.3-2z"/><path class="d" d="m34.3 17.5v2.4c0 0.6-1.2 1.2-3.2 1.6-1.6 0.3-3.7 0.6-6 0.8-1.7 0.1-3.5 0.1-5.4 0.1q-1.7 0-3.3 0-0.4 0-0.9-0.1-2.5-0.1-4.6-0.4c-1.8-0.2-3.3-0.5-4.3-0.9-0.9-0.3-1.5-0.7-1.5-1.1v-2.4c0 0.4 0.6 0.8 1.7 1.1 1 0.4 2.5 0.7 4.3 0.9 1.6 0.2 3.4 0.3 5.4 0.4q0.3 0 0.6 0 1.3 0.1 2.6 0.1c1.9 0 3.7-0.1 5.4-0.2 2.5-0.2 4.6-0.4 6.2-0.8 1.9-0.4 3-1 3-1.5z"/><path class="c" d="m5.2 17.7v2.4q0.1 0.2 0.3 0.4v-2.5q-0.2-0.2-0.3-0.3z"/><path class="c" d="m6.3 18.5v2.4q0.2 0.1 0.3 0.1v-2.4q-0.1-0.1-0.3-0.1z"/><path class="c" d="m7.5 18.8v2.5q0.2 0 0.3 0.1v-2.5q-0.1 0-0.3-0.1z"/><path class="c" d="m8.7 19.1v2.5q0.1 0 0.3 0v-2.4q-0.2-0.1-0.3-0.1z"/><path class="c" d="m9.9 19.3v2.5q0.1 0 0.3 0v-2.4q-0.2-0.1-0.3-0.1z"/><path class="c" d="m11 19.5v2.5q0.2 0 0.3 0v-2.5q-0.1 0-0.3 0z"/><path class="c" d="m12.2 19.6v2.5q0.2 0 0.3 0v-2.4q-0.1-0.1-0.3-0.1z"/><path class="c" d="m13.4 19.7v2.5q0.1 0 0.3 0v-2.4q-0.2 0-0.3-0.1z"/><path class="c" d="m14.6 19.8v2.5q0.1 0 0.3 0v-2.5q-0.2 0-0.3 0z"/><path class="c" d="m15.7 19.9v2.5q0.2 0 0.3 0v-2.5q-0.1 0-0.3 0z"/><path class="c" d="m16.9 19.9v2.5q0.2 0 0.3 0v-2.4q-0.1-0.1-0.3-0.1z"/><path class="c" d="m18.1 20v2.4q0.1 0 0.3 0v-2.4q-0.2 0-0.3 0z"/><path class="c" d="m19.3 20v2.4q0.1 0 0.3 0v-2.4q-0.2 0-0.3 0z"/><path class="c" d="m20.4 20v2.4q0.2 0 0.3 0v-2.4q-0.1 0-0.3 0z"/><path class="c" d="m21.6 20v2.4q0.2 0 0.3 0v-2.4q-0.1 0-0.3 0z"/><path class="c" d="m22.8 19.9v2.5q0.1 0 0.3 0v-2.5q-0.2 0-0.3 0z"/><path class="c" d="m24 19.9v2.4q0.1 0 0.3 0v-2.4q-0.2 0-0.3 0z"/><path class="c" d="m25.1 19.8v2.5q0.2 0 0.3-0.1v-2.4q-0.1 0-0.3 0z"/><path class="c" d="m26.3 19.7v2.5q0.2 0 0.3-0.1v-2.4q-0.1 0-0.3 0z"/><path class="c" d="m27.5 19.6v2.5q0.1-0.1 0.3-0.1v-2.4q-0.2 0-0.3 0z"/><path class="c" d="m28.7 19.5v2.4q0.1 0 0.2 0l0.1-2.5q-0.2 0-0.3 0.1z"/><path class="c" d="m29.8 19.3v2.4q0.2 0 0.3 0v-2.5q-0.1 0.1-0.3 0.1z"/><path class="c" d="m31 19.1v2.4q0.2 0 0.3 0v-2.5q-0.1 0-0.3 0.1z"/><path class="c" d="m32.2 18.8v2.4q0.1 0 0.3-0.1v-2.4q-0.2 0-0.3 0.1z"/><path class="c" d="m33.4 18.3v2.5q0.1-0.1 0.2-0.1v-2.5q-0.1 0.1-0.2 0.1z"/><path class="e" d="m29.2 15.1l-23.3 2.2q-0.2-0.2-0.2-0.4 0-0.3 0.3-0.5l18.6-1.8c1.7 0.1 3.3 0.3 4.6 0.5z"/><path class="e" d="m33.7 16.9q0 0.2-0.2 0.4l-19.5 1.8c-2.6-0.2-4.9-0.5-6.3-1l24.5-2.3c1 0.3 1.5 0.7 1.5 1.1z"/><path class="f" d="m25 21q0 0.6 0.1 1.3c-1.7 0.1-3.5 0.1-5.4 0.1q-1.7 0-3.3 0c0.3-0.8 0.3-1.7 0.1-2.5q0.3 0 0.6 0 1.3 0.1 2.6 0.1c1.9 0 3.7-0.1 5.4-0.2-0.1 0.4-0.1 0.8-0.1 1.2z"/><path class="f" d="m10.9 21.9c-1.8-0.2-3.3-0.5-4.3-0.9 0.1-0.5 0.2-0.9 0.2-1.1q0.1-0.6 0-1.2 0 0 0-0.1c1 0.4 2.5 0.7 4.3 0.9-0.3 0.8-0.4 1.6-0.2 2.4z"/><path class="f" d="m34.3 17.5v2.4c0 0.6-1.2 1.2-3.2 1.6q0.1-0.5 0.2-1.1 0-0.7 0-1.4c1.9-0.4 3-1 3-1.5z"/><path class="g" d="m30.1 23l2.2-0.1-2.2-0.2 0.8-1.2-1.1 0.9-0.1-1.3-0.2 1.3-1.6-1.3 1.3 1.6-1.3 0.2 1.3 0.1-1.3 1.6 1.6-1.3 0.1 1.3 0.2-1.3 1.3 1z"/><path class="a" d="m34.8 12.3q0.3 0.3 0.6 0.6 0.3 0.2 0.3 0.4c0 1.4-6.6 2.6-14.6 2.6-8.1 0-14.6-1.2-14.6-2.6q0-0.2 0.2-0.4 0.1 0 0.1-0.1 0 0 0 0 0 0 0.1-0.1 0 0 0 0 0 0 0.1 0 0 0 0-0.1 0 0 0 0 0.1 0 0.1-0.1 0 0 0 0 0.1 0 0.1-0.1c0.1-0.1 0.1-0.1 0.1-0.1q-0.2 0.3-0.2 0.5c0 1.3 6.2 2.4 14 2.4 7.7 0 14-1.1 14-2.4q0-0.2-0.3-0.5z"/><path class="b" d="m35.1 12.8q0 0.2-0.2 0.3c-1 1.2-6.8 2.1-13.8 2.1-2 0-4-0.1-5.7-0.2-2.7-0.2-4.9-0.5-6.4-1q-1.2-0.3-1.7-0.8-0.2-0.2-0.2-0.4 0-0.3 0.3-0.5c1.3-1.1 6.9-2 13.7-1.9q2.6 0 4.9 0.1c1.7 0.1 3.3 0.3 4.6 0.5q1.8 0.3 2.9 0.7c1 0.3 1.6 0.7 1.6 1.1z"/><path class="c" d="m21.1 14.9q-3 0-5.7-0.2c-2.6-0.2-4.8-0.6-6.3-1-1-0.3-1.4-0.5-1.6-0.7 0-0.1-0.1-0.1-0.1-0.2q0-0.1 0.2-0.3c0.6-0.5 2.3-1 4.6-1.3 2.5-0.3 5.6-0.5 8.9-0.5q2.5 0 4.9 0.1 2.5 0.2 4.5 0.5 1.8 0.3 2.9 0.7c1.3 0.4 1.4 0.7 1.4 0.8q-0.1 0.1-0.1 0.1c-0.8 1-6.2 2-13.6 2z"/><path class="a" d="m35.4 16.3q-0.3 0.2-0.6 0.5c-1.1 1.1-6.9 2-13.7 2-6.9 0-12.6-0.9-13.8-2q0 0-0.1 0 0-0.1 0-0.1 0 0 0 0-0.1 0-0.1-0.1 0 0 0 0 0 0-0.1 0 0-0.1 0-0.1-0.1-0.1-0.3-0.2c1.3 1.1 7.2 2 14.4 2 7.1 0 13.1-0.9 14.3-2z"/><path class="d" d="m35.7 13.3v2.5c0 0.6-1.3 1.2-3.3 1.6-1.5 0.3-3.6 0.6-5.9 0.8-1.7 0.1-3.5 0.1-5.4 0.1q-1.7 0-3.3 0-0.5 0-0.9-0.1-2.6-0.1-4.6-0.4c-1.8-0.2-3.3-0.5-4.3-0.9-1-0.3-1.5-0.7-1.5-1.1v-2.5c0 0.5 0.6 0.9 1.7 1.2 1 0.4 2.5 0.7 4.2 0.9 1.6 0.2 3.5 0.3 5.4 0.4q0.4 0 0.7 0 1.2 0.1 2.6 0.1c1.9 0 3.7-0.1 5.4-0.2 2.4-0.2 4.6-0.5 6.2-0.8 1.8-0.4 3-1 3-1.6z"/><path class="c" d="m6.5 13.5v2.5q0.1 0.2 0.3 0.3v-2.4q-0.2-0.2-0.3-0.4z"/><path class="c" d="m7.7 14.4v2.4q0.2 0.1 0.3 0.1v-2.4q-0.1-0.1-0.3-0.1z"/><path class="c" d="m8.9 14.7v2.5q0.1 0 0.3 0.1v-2.5q-0.2 0-0.3-0.1z"/><path class="c" d="m10.1 15v2.5q0.1 0 0.3 0v-2.4q-0.2-0.1-0.3-0.1z"/><path class="c" d="m11.2 15.2v2.5q0.2 0 0.3 0v-2.4q-0.1-0.1-0.3-0.1z"/><path class="c" d="m12.4 15.4v2.4q0.2 0.1 0.3 0.1v-2.5q-0.1 0-0.3 0z"/><path class="c" d="m13.6 15.5v2.5q0.1 0 0.3 0v-2.5q-0.2 0-0.3 0z"/><path class="c" d="m14.8 15.6v2.5q0.1 0 0.3 0v-2.4q-0.2-0.1-0.3-0.1z"/><path class="c" d="m15.9 15.7v2.5q0.2 0 0.3 0v-2.5q-0.1 0-0.3 0z"/><path class="c" d="m17.1 15.8v2.4q0.2 0 0.3 0.1v-2.5q-0.1 0-0.3 0z"/><path class="c" d="m18.3 15.8v2.5q0.1 0 0.3 0v-2.5q-0.2 0-0.3 0z"/><path class="c" d="m19.5 15.9v2.4q0.1 0 0.3 0v-2.4q-0.2 0-0.3 0z"/><path class="c" d="m20.6 15.9v2.4q0.2 0 0.3 0v-2.4q-0.1 0-0.3 0z"/><path class="c" d="m21.8 15.9v2.4q0.2 0 0.3 0v-2.4q-0.1 0-0.3 0z"/><path class="c" d="m23 15.9v2.4q0.1 0 0.3 0v-2.5q-0.2 0.1-0.3 0.1z"/><path class="c" d="m24.2 15.8v2.5q0.1 0 0.2 0v-2.5q-0.1 0-0.2 0z"/><path class="c" d="m25.3 15.8v2.4q0.2 0 0.3 0v-2.4q-0.1 0-0.3 0z"/><path class="c" d="m26.5 15.7v2.5q0.2-0.1 0.3-0.1v-2.4q-0.1 0-0.3 0z"/><path class="c" d="m27.7 15.6v2.5q0.1 0 0.3-0.1v-2.4q-0.2 0-0.3 0z"/><path class="c" d="m28.9 15.5v2.4q0.1 0 0.2 0v-2.4q-0.1 0-0.2 0z"/><path class="c" d="m30 15.3v2.5q0.2 0 0.3 0v-2.5q-0.1 0-0.3 0z"/><path class="c" d="m31.2 15.2v2.4q0.2 0 0.3 0v-2.5q-0.1 0-0.3 0.1z"/><path class="c" d="m32.4 14.9v2.5q0.1 0 0.3-0.1v-2.4q-0.2 0-0.3 0z"/><path class="c" d="m33.6 14.7v2.4q0.1 0 0.2-0.1v-2.4q-0.1 0-0.2 0.1z"/><path class="c" d="m34.7 14.2v2.5q0.2-0.1 0.3-0.2v-2.4q-0.1 0.1-0.3 0.1z"/><path class="e" d="m30.6 11l-23.3 2.2q-0.2-0.2-0.2-0.4 0-0.3 0.3-0.5l18.6-1.8c1.7 0.1 3.3 0.3 4.6 0.5z"/><path class="e" d="m35.1 12.8q0 0.2-0.2 0.3l-19.5 1.9c-2.7-0.2-4.9-0.5-6.4-1l24.5-2.3c1 0.3 1.6 0.7 1.6 1.1z"/><path class="f" d="m26.4 16.9q0 0.6 0.1 1.3c-1.7 0.1-3.5 0.1-5.4 0.1q-1.7 0-3.3 0c0.3-0.8 0.3-1.7 0-2.5q0.4 0 0.7 0 1.2 0.1 2.6 0.1c1.9 0 3.7-0.1 5.4-0.2-0.1 0.4-0.1 0.8-0.1 1.2z"/><path class="f" d="m12.3 17.8c-1.8-0.2-3.3-0.5-4.3-0.9 0.1-0.5 0.2-0.9 0.2-1.1q0-0.6 0-1.2 0-0.1 0-0.1c1 0.4 2.5 0.7 4.2 0.9-0.2 0.8-0.3 1.6-0.1 2.4z"/><path class="f" d="m35.7 13.3v2.5c0 0.6-1.3 1.2-3.3 1.6q0.2-0.5 0.2-1.1 0.1-0.7 0.1-1.4c1.8-0.4 3-1 3-1.6z"/><path class="a" d="m33.5 8.7q0.3 0.3 0.5 0.6 0.3 0.2 0.3 0.4c0 1.4-6.5 2.6-14.6 2.6-8 0-14.6-1.2-14.6-2.6q0-0.2 0.3-0.4 0-0.1 0-0.1 0 0 0 0 0.1 0 0.1-0.1 0 0 0 0 0.1 0 0.1-0.1 0 0 0 0 0 0 0.1 0 0-0.1 0-0.1 0 0 0.1 0 0 0 0-0.1c0.1-0.1 0.1-0.1 0.1-0.1q-0.2 0.2-0.2 0.5c0 1.3 6.3 2.4 14 2.4 7.7 0 14-1.1 14-2.4q0-0.3-0.2-0.5z"/><path class="b" d="m33.7 9.2q0 0.1-0.2 0.3c-1 1.2-6.8 2.1-13.8 2.1-2 0-3.9-0.1-5.7-0.2-2.6-0.2-4.9-0.6-6.3-1q-1.3-0.4-1.8-0.8-0.2-0.2-0.2-0.4 0-0.3 0.3-0.5c1.3-1.1 7-2 13.7-2q2.6 0 4.9 0.2c1.7 0.1 3.3 0.3 4.6 0.5q1.8 0.3 3 0.7c1 0.3 1.5 0.7 1.5 1.1z"/><path class="c" d="m19.7 11.3q-3 0-5.6-0.2c-2.7-0.2-4.9-0.6-6.4-1-1-0.3-1.4-0.6-1.6-0.7 0-0.1-0.1-0.2-0.1-0.2q0-0.2 0.2-0.3c0.6-0.5 2.3-1 4.7-1.3 2.4-0.4 5.6-0.6 8.8-0.6q2.5 0 4.9 0.2 2.6 0.2 4.6 0.5 1.8 0.3 2.9 0.6c1.3 0.5 1.3 0.8 1.3 0.9q0 0-0.1 0.1c-0.8 1-6.1 2-13.6 2z"/><path class="a" d="m34 12.6q-0.2 0.3-0.5 0.6c-1.2 1.1-6.9 2-13.8 2-6.9 0-12.6-0.9-13.8-2q0 0 0-0.1 0 0-0.1 0 0 0 0-0.1 0 0 0 0-0.1 0-0.1 0 0 0 0-0.1-0.1 0-0.1 0-0.1-0.1-0.2-0.3c1.2 1.2 7.1 2.1 14.3 2.1 7.2 0 13.1-0.9 14.3-2.1z"/><path class="d" d="m34.3 9.7v2.5c0 0.6-1.2 1.1-3.2 1.6-1.6 0.3-3.7 0.6-6 0.7-1.7 0.2-3.5 0.2-5.4 0.2q-1.7 0-3.3-0.1-0.4 0-0.9 0-2.5-0.1-4.6-0.4c-1.8-0.2-3.3-0.6-4.3-0.9-0.9-0.3-1.5-0.7-1.5-1.1v-2.5c0 0.4 0.6 0.8 1.7 1.2 1 0.3 2.5 0.6 4.3 0.9 1.6 0.2 3.4 0.3 5.4 0.4q0.3 0 0.6 0 1.3 0.1 2.6 0.1c1.9 0 3.7-0.1 5.4-0.2 2.5-0.2 4.6-0.5 6.2-0.8 1.9-0.5 3-1 3-1.6z"/><path class="c" d="m5.2 9.9v2.5q0.1 0.2 0.3 0.3v-2.4q-0.2-0.2-0.3-0.4z"/><path class="c" d="m6.3 10.7v2.5q0.2 0.1 0.3 0.1v-2.5q-0.1 0-0.3-0.1z"/><path class="c" d="m7.5 11.1v2.5q0.2 0 0.3 0v-2.4q-0.1-0.1-0.3-0.1z"/><path class="c" d="m8.7 11.4v2.4q0.1 0.1 0.3 0.1v-2.5q-0.2 0-0.3 0z"/><path class="c" d="m9.9 11.6v2.4q0.1 0.1 0.3 0.1v-2.5q-0.2 0-0.3 0z"/><path class="c" d="m11 11.8v2.4q0.2 0 0.3 0.1v-2.5q-0.1 0-0.3 0z"/><path class="c" d="m12.2 11.9v2.5q0.2 0 0.3 0v-2.5q-0.1 0-0.3 0z"/><path class="c" d="m13.4 12v2.5q0.1 0 0.3 0v-2.5q-0.2 0-0.3 0z"/><path class="c" d="m14.6 12.1v2.5q0.1 0 0.3 0v-2.5q-0.2 0-0.3 0z"/><path class="c" d="m15.7 12.2v2.4q0.2 0 0.3 0v-2.4q-0.1 0-0.3 0z"/><path class="c" d="m16.9 12.2v2.5q0.2 0 0.3 0v-2.5q-0.1 0-0.3 0z"/><path class="c" d="m18.1 12.2v2.5q0.1 0 0.3 0v-2.5q-0.2 0-0.3 0z"/><path class="c" d="m19.3 12.3v2.4q0.1 0 0.3 0v-2.4q-0.2 0-0.3 0z"/><path class="c" d="m20.4 12.2v2.5q0.2 0 0.3 0v-2.5q-0.1 0-0.3 0z"/><path class="c" d="m21.6 12.2v2.5q0.2 0 0.3 0v-2.5q-0.1 0-0.3 0z"/><path class="c" d="m22.8 12.2v2.5q0.1 0 0.3-0.1v-2.4q-0.2 0-0.3 0z"/><path class="c" d="m24 12.1v2.5q0.1 0 0.3 0v-2.5q-0.2 0-0.3 0z"/><path class="c" d="m25.1 12.1v2.4q0.2 0 0.3 0v-2.4q-0.1 0-0.3 0z"/><path class="c" d="m26.3 12v2.4q0.2 0 0.3 0v-2.4q-0.1 0-0.3 0z"/><path class="c" d="m27.5 11.9v2.4q0.1 0 0.3 0v-2.5q-0.2 0-0.3 0.1z"/><path class="c" d="m28.7 11.7v2.5q0.1 0 0.2-0.1l0.1-2.4q-0.2 0-0.3 0z"/><path class="c" d="m29.8 11.5v2.5q0.2 0 0.3 0v-2.5q-0.1 0-0.3 0z"/><path class="c" d="m31 11.3v2.5q0.2-0.1 0.3-0.1v-2.4q-0.1 0-0.3 0z"/><path class="c" d="m32.2 11v2.5q0.1-0.1 0.3-0.1v-2.5q-0.2 0.1-0.3 0.1z"/><path class="c" d="m33.4 10.6v2.5q0.1-0.1 0.2-0.2v-2.4q-0.1 0-0.2 0.1z"/><path class="e" d="m29.2 7.4l-23.3 2.2q-0.2-0.2-0.2-0.4 0-0.3 0.3-0.5l18.6-1.8c1.7 0.1 3.3 0.3 4.6 0.5z"/><path class="e" d="m33.7 9.2q0 0.1-0.2 0.3l-19.5 1.9c-2.6-0.2-4.9-0.6-6.3-1l24.5-2.3c1 0.3 1.5 0.7 1.5 1.1z"/><path class="f" d="m25 13.3q0 0.6 0.1 1.2c-1.7 0.2-3.5 0.2-5.4 0.2q-1.7 0-3.3-0.1c0.3-0.7 0.3-1.6 0.1-2.4q0.3 0 0.6 0 1.3 0.1 2.6 0.1c1.9 0 3.7-0.1 5.4-0.2-0.1 0.4-0.1 0.8-0.1 1.2z"/><path class="f" d="m10.9 14.2c-1.8-0.2-3.3-0.6-4.3-0.9 0.1-0.5 0.2-1 0.2-1.1q0.1-0.6 0-1.2 0-0.1 0-0.1c1 0.3 2.5 0.6 4.3 0.9-0.3 0.7-0.4 1.6-0.2 2.4z"/><path class="f" d="m34.3 9.7v2.5c0 0.6-1.2 1.1-3.2 1.6q0.1-0.6 0.2-1.1 0-0.7 0-1.4c1.9-0.5 3-1 3-1.6z"/><path class="a" d="m34.6 4.8q0.3 0.3 0.6 0.5 0.3 0.3 0.3 0.5c0 1.4-6.6 2.5-14.6 2.5-8.1 0-14.6-1.1-14.6-2.5q0-0.2 0.2-0.5 0.1 0 0.1 0 0 0 0 0 0.1-0.1 0.1-0.1 0 0 0 0 0 0 0.1-0.1 0 0 0 0 0 0 0.1-0.1 0 0 0 0 0 0 0 0 0.1-0.1 0.1-0.1c0.1-0.1 0.1-0.1 0.1-0.1q-0.2 0.2-0.2 0.4c0 1.4 6.2 2.5 14 2.5 7.7 0 14-1.1 14-2.5q0-0.2-0.3-0.4z"/><path class="b" d="m34.9 5.2q0 0.2-0.2 0.4c-1 1.2-6.8 2.1-13.8 2.1-2 0-3.9-0.1-5.7-0.2-2.7-0.2-4.9-0.6-6.4-1q-1.2-0.4-1.7-0.8-0.2-0.2-0.2-0.5 0-0.2 0.3-0.5c1.3-1.1 6.9-1.9 13.7-1.9q2.6 0 4.9 0.2c1.7 0.1 3.3 0.2 4.6 0.5q1.8 0.3 3 0.6c0.9 0.4 1.5 0.7 1.5 1.1z"/><path class="c" d="m20.9 7.4q-3 0-5.7-0.2c-2.6-0.2-4.8-0.6-6.3-1-1-0.3-1.4-0.6-1.6-0.7 0-0.1-0.1-0.2-0.1-0.3q0-0.1 0.2-0.2c0.6-0.5 2.3-1 4.6-1.3 2.5-0.4 5.6-0.6 8.9-0.6q2.5 0 4.9 0.2 2.5 0.1 4.5 0.5 1.8 0.3 3 0.6c1.2 0.5 1.3 0.8 1.3 0.8q0 0.1-0.1 0.2c-0.8 1-6.2 2-13.6 2z"/><path class="a" d="m35.2 8.7q-0.3 0.3-0.6 0.6c-1.1 1.1-6.9 2-13.7 2-6.9 0-12.6-0.9-13.8-2q0-0.1 0-0.1-0.1 0-0.1 0 0 0 0-0.1 0 0-0.1 0 0 0 0-0.1 0 0 0 0-0.1 0-0.1 0-0.1-0.2-0.3-0.3c1.3 1.2 7.2 2.1 14.4 2.1 7.1 0 13.1-0.9 14.3-2.1z"/><path class="d" d="m35.5 5.8v2.5c0 0.6-1.3 1.1-3.3 1.6-1.5 0.3-3.6 0.6-5.9 0.7-1.7 0.1-3.5 0.2-5.4 0.2q-1.7 0-3.3-0.1-0.5 0-0.9 0-2.5-0.1-4.6-0.4c-1.8-0.3-3.3-0.6-4.3-0.9-1-0.4-1.5-0.7-1.5-1.1v-2.5c0 0.4 0.6 0.8 1.7 1.2 1 0.3 2.5 0.6 4.2 0.8 1.6 0.2 3.5 0.4 5.4 0.5q0.4 0 0.7 0 1.2 0 2.6 0c1.9 0 3.7 0 5.4-0.1 2.4-0.2 4.6-0.5 6.2-0.9 1.8-0.4 3-0.9 3-1.5z"/><path class="c" d="m6.3 6v2.5q0.1 0.1 0.3 0.3v-2.5q-0.2-0.1-0.3-0.3z"/><path class="c" d="m7.5 6.8v2.5q0.2 0 0.3 0.1v-2.5q-0.1 0-0.3-0.1z"/><path class="c" d="m8.7 7.2v2.5q0.1 0 0.3 0v-2.4q-0.2-0.1-0.3-0.1z"/><path class="c" d="m9.9 7.5v2.4q0.1 0.1 0.3 0.1v-2.5q-0.2 0-0.3 0z"/><path class="c" d="m11 7.7v2.4q0.2 0.1 0.3 0.1v-2.5q-0.1 0-0.3 0z"/><path class="c" d="m12.2 7.8v2.5q0.2 0 0.3 0v-2.4q-0.1 0-0.3-0.1z"/><path class="c" d="m13.4 8v2.4q0.1 0.1 0.3 0.1v-2.5q-0.2 0-0.3 0z"/><path class="c" d="m14.6 8.1v2.4q0.1 0.1 0.3 0.1v-2.5q-0.2 0-0.3 0z"/><path class="c" d="m15.7 8.2v2.4q0.2 0 0.3 0.1v-2.5q-0.1 0-0.3 0z"/><path class="c" d="m16.9 8.2v2.5q0.2 0 0.3 0v-2.4q-0.1-0.1-0.3-0.1z"/><path class="c" d="m18.1 8.3v2.4q0.1 0.1 0.3 0.1v-2.5q-0.2 0-0.3 0z"/><path class="c" d="m19.3 8.3v2.5q0.1 0 0.3 0v-2.5q-0.2 0-0.3 0z"/><path class="c" d="m20.4 8.3v2.5q0.2 0 0.3 0v-2.5q-0.1 0-0.3 0z"/><path class="c" d="m21.6 8.3v2.5q0.2 0 0.3 0v-2.5q-0.1 0-0.3 0z"/><path class="c" d="m22.8 8.3v2.5q0.1 0 0.3 0v-2.5q-0.2 0-0.3 0z"/><path class="c" d="m24 8.3v2.4q0.1 0 0.3 0v-2.4q-0.2 0-0.3 0z"/><path class="c" d="m25.1 8.2v2.5q0.2 0 0.3 0v-2.5q-0.1 0-0.3 0z"/><path class="c" d="m26.3 8.2v2.4q0.2 0 0.3 0v-2.5q-0.1 0-0.3 0.1z"/><path class="c" d="m27.5 8.1v2.4q0.1 0 0.3 0v-2.5q-0.2 0-0.3 0.1z"/><path class="c" d="m28.7 7.9v2.5q0.1 0 0.3 0v-2.5q-0.2 0-0.3 0z"/><path class="c" d="m29.8 7.8v2.5q0.2-0.1 0.3-0.1v-2.4q-0.1 0-0.3 0z"/><path class="c" d="m31 7.6v2.5q0.2 0 0.3-0.1v-2.4q-0.1 0-0.3 0z"/><path class="c" d="m32.2 7.4v2.5q0.1-0.1 0.3-0.1v-2.5q-0.2 0.1-0.3 0.1z"/><path class="c" d="m33.4 7.1v2.5q0.1-0.1 0.2-0.1v-2.5q-0.1 0.1-0.2 0.1z"/><path class="c" d="m34.5 6.7v2.5q0.2-0.1 0.3-0.2v-2.5q-0.1 0.1-0.3 0.2z"/><path class="e" d="m30.4 3.5l-23.3 2.2q-0.2-0.2-0.2-0.5 0-0.2 0.3-0.5l18.6-1.7c1.7 0.1 3.3 0.2 4.6 0.5z"/><path class="e" d="m34.9 5.2q0 0.2-0.2 0.4l-19.5 1.9c-2.7-0.2-4.9-0.6-6.4-1l24.6-2.4c0.9 0.4 1.5 0.7 1.5 1.1z"/><path class="f" d="m26.2 9.4q0 0.6 0.1 1.2c-1.7 0.1-3.5 0.2-5.4 0.2q-1.7 0-3.3-0.1c0.3-0.8 0.3-1.6 0-2.4q0.4 0 0.7 0 1.2 0 2.6 0c1.9 0 3.7 0 5.4-0.1-0.1 0.3-0.1 0.8-0.1 1.2z"/><path class="f" d="m12.1 10.3c-1.8-0.3-3.3-0.6-4.3-0.9 0.1-0.5 0.2-1 0.2-1.1q0.1-0.6 0-1.3 0 0 0 0c1 0.3 2.5 0.6 4.2 0.8-0.2 0.8-0.3 1.7-0.1 2.5z"/><path class="f" d="m35.5 5.8v2.5c0 0.6-1.3 1.1-3.3 1.6q0.2-0.6 0.2-1.1 0.1-0.8 0.1-1.5c1.8-0.4 3-0.9 3-1.5z"/><path class="g" d="m19.6 7.7l2.1 0.9-2-1.1 1.4-0.8-1.5 0.4 0.5-1.3-0.7 1.1-0.9-1.9 0.5 2.1-1.3-0.5 1.1 0.7-1.9 0.9 2.1-0.5-0.5 1.3 0.7-1.1 0.8 1.4z"/><path class="g" d="m8.5 18.3l2.1-0.6-2.2 0.3 0.6-1.4-0.9 1.2-0.5-1.2 0.2 1.3-1.9-1 1.7 1.3-1.3 0.4 1.3-0.1-0.9 1.9 1.3-1.7 0.4 1.3-0.1-1.3 1.4 0.6z"/></svg>