<?xml version="1.0" encoding="UTF-8"?>
<svg xmlns="http://www.w3.org/2000/svg" xmlnsXlink="http://www.w3.org/1999/xlink" width="24pt" height="24pt" viewBox="0 0 24 24" version="1.1">
<g id="surface1">
<path style=" stroke:none;fill-rule:nonzero;fill:#fff;fill-opacity:1;" d="M 17.925781 11.414062 C 18.820312 11.339844 19.601562 10.964844 20.257812 10.296875 C 22.511719 7.996094 22.445312 2.878906 22.441406 2.660156 C 22.433594 2.257812 22.105469 1.9375 21.703125 1.9375 L 17.988281 1.933594 L 17.988281 0.371094 C 17.988281 0.164062 17.820312 0 17.617188 0 L 6.382812 0 C 6.179688 0 6.011719 0.164062 6.011719 0.371094 L 6.011719 1.933594 L 2.296875 1.9375 C 1.894531 1.9375 1.566406 2.257812 1.558594 2.660156 C 1.554688 2.878906 1.488281 7.996094 3.742188 10.296875 C 4.398438 10.964844 5.179688 11.339844 6.074219 11.414062 C 6.414062 13.804688 8.203125 15.730469 10.523438 16.277344 L 10.523438 20.929688 L 8.648438 20.929688 C 8.527344 20.929688 8.414062 20.988281 8.347656 21.085938 L 6.71875 23.417969 C 6.640625 23.53125 6.632812 23.679688 6.695312 23.800781 C 6.757812 23.921875 6.886719 24 7.023438 24 C 7.023438 24 16.976562 24 16.976562 24 C 17.183594 24 17.347656 23.835938 17.347656 23.628906 C 17.347656 23.539062 17.3125 23.46875 17.261719 23.394531 L 15.652344 21.085938 C 15.585938 20.988281 15.472656 20.929688 15.351562 20.929688 L 13.476562 20.929688 L 13.476562 16.277344 C 15.796875 15.730469 17.585938 13.804688 17.925781 11.414062 Z M 20.953125 3.414062 C 20.878906 5.050781 20.492188 7.945312 19.203125 9.257812 C 18.847656 9.621094 18.445312 9.839844 17.988281 9.917969 L 17.988281 3.410156 Z M 3.050781 3.414062 L 6.011719 3.410156 L 6.011719 9.917969 C 5.554688 9.839844 5.152344 9.625 4.796875 9.261719 C 3.511719 7.949219 3.121094 5.050781 3.050781 3.414062 Z M 8.9375 6.167969 L 11.054688 5.859375 L 12 3.945312 L 12.945312 5.859375 L 15.0625 6.167969 L 13.53125 7.660156 L 13.894531 9.769531 L 12 8.773438 L 10.105469 9.769531 L 10.46875 7.660156 Z M 8.9375 6.167969 "/>
</g>
</svg>
