<?xml version="1.0" encoding="utf-8"?>
<!-- Generator: Adobe Illustrator 23.0.6, SVG Export Plug-In . SVG Version: 6.00 Build 0)  -->
<svg version="1.1" id="Layer_1" xmlns="http://www.w3.org/2000/svg" xmlns:xlink="http://www.w3.org/1999/xlink" x="0px" y="0px"
	 viewBox="0 0 512 512" style="enable-background:new 0 0 512 512;" xml:space="preserve">
<style type="text/css">
	.st0{fill:#FFFFFF;}
</style>
<path class="st0" d="M512,346.5c0-74.6-50.3-139.8-121.2-159.5C386.3,83.1,300.5,0,195.5,0C87.7,0,0,87.7,0,195.5
	c0,35.1,9.4,69.3,27.1,99.4L0.7,390.3l95.4-26.4c27.6,16.3,58.7,25.5,90.9,26.9C206.7,461.7,271.9,512,346.5,512
	c29.8,0,58.8-7.9,84.2-23l80.6,22.3L489,430.7C504.1,405.3,512,376.3,512,346.5z M100.9,331.5l-57.1,15.8l15.8-57.1l-3.6-5.6
	c-17-26.6-25.9-57.3-25.9-89C30,104.2,104.2,30,195.5,30S361,104.2,361,195.5S286.8,361,195.5,361c-31.7,0-62.4-9-89-25.9
	L100.9,331.5z M468.3,468.3l-42.4-11.7l-5.7,3.7c-21.9,14.3-47.4,21.8-73.7,21.8c-58.7,0-110.2-37.9-128.5-92.3
	c89.8-10.4,161.3-81.8,171.7-171.7c54.4,18.3,92.3,69.8,92.3,128.5c0,26.3-7.5,51.8-21.8,73.7l-3.7,5.7L468.3,468.3z"/>
<path class="st0" d="M180.5,271h30v30h-30V271z"/>
<path class="st0" d="M225.5,150c0,8.5-3.5,16.4-9.8,22.1l-35.2,32.2V241h30v-23.4l25.5-23.3c12.4-11.3,19.5-27.5,19.5-44.3
	c0-33.1-26.9-60-60-60s-60,26.9-60,60h30c0-16.5,13.5-30,30-30S225.5,133.5,225.5,150z"/>
</svg>
