<svg version="1.2" xmlns="http://www.w3.org/2000/svg" viewBox="0 0 48 48" width="48" height="48">
	<title>modal-provably-fair-svg</title>
	<style>
		.s0 { fill: #000000 } 
	</style>
	<path id="Layer" fill-rule="evenodd" class="s0" d="m41.7 23.7c0 3.3-3 6.1-6.7 6.1-3.8 0-6.8-2.8-6.8-6.1 0-0.4 0.3-0.7 0.6-0.8l4.8-9.6h-6c-0.3 1.4-1.4 2.5-2.8 2.8v14c2.6 0.3 4.6 2.2 4.9 4.2h1.8c0.4 0.1 0.8 0.4 0.8 0.9v3.2c0 0.4-0.4 0.7-0.8 0.7h-15c-0.4 0-0.8-0.3-0.8-0.7v-3.2c0-0.5 0.4-0.8 0.8-0.9h1.8c0.3-2 2.3-3.9 4.9-4.2v-14c-1.4-0.3-2.5-1.4-2.8-2.8h-6l4.8 9.6c0.3 0.1 0.6 0.4 0.6 0.8 0 3.3-3.1 6.1-6.8 6.1-3.6 0-6.7-2.8-6.7-6.1 0-0.4 0.3-0.7 0.6-0.8l5.4-10.8c0.2-0.3 0.5-0.5 0.7-0.5l0.4 0.1h7c0.3-1.3 1.3-2.3 2.7-2.7 2-0.5 4 0.7 4.5 2.7h7l0.4-0.1c0.2 0 0.5 0.2 0.7 0.5l5.4 10.8c0.3 0.1 0.6 0.4 0.6 0.8zm-23.6 0.7h-10.1c0.4 2 2.5 3.7 5 3.7 2.6 0 4.7-1.7 5.1-3.7zm-5.1-10.3l-4.3 8.7h8.7zm4.2 23.4h13.5v-1.6h-13.5zm6.8-6c-2.1 0-3.8 1.2-4.1 2.8h8.2c-0.4-1.6-2.1-2.8-4.1-2.8zm2.1-19c0-1.1-0.9-2.1-2.1-2.1-1.2 0-2.2 1-2.2 2.1 0 1.2 1 2.2 2.2 2.2 1.2 0 2.1-1 2.1-2.2zm4.5 10.3h8.7l-4.4-8.7zm9.4 1.6h-10.1c0.5 2 2.6 3.7 5.1 3.7 2.5 0 4.6-1.7 5-3.7z"/>
</svg>