<svg version="1.2" xmlns="http://www.w3.org/2000/svg" viewBox="0 0 512 512" width="112" height="112"><style>.a{fill:#fff}</style><path fill-rule="evenodd" class="a" d="m437.3 104.7v302.6l-181.3 104.7-181.3-104.7v-302.6l181.3-104.7zm-172 15.6l63.3 36.5 71.5-41.4-134.8-77.8zm-153.3-4.8l71.5 41.3 63.3-36.5v-82.6zm-9.3 265.1l71.5-41.3v-166.3l-71.5-41.4zm144 11.3l-63.2-36.4-71.5 41.3 134.7 77.8c0 0 0-82.7 0-82.7zm9.3-16.1l63.2-36.5v-166.3l-63.2-36.5-63.2 36.5v166.3zm144.1 21l-71.6-41.3-63.2 36.5v82.6zm9.3-265.1l-71.5 41.3v166.3l71.5 41.4z"/><path class="a" d="m214.5 197.9l47.3-28.4-47.3 89.9z"/></svg>