<?xml version="1.0" encoding="utf-8"?>
<!-- Generator: Adobe Illustrator 23.0.6, SVG Export Plug-In . SVG Version: 6.00 Build 0)  -->
<svg version="1.1" id="Layer_1" xmlns="http://www.w3.org/2000/svg" xmlns:xlink="http://www.w3.org/1999/xlink" x="0px" y="0px"
	 viewBox="0 0 512 512" style="enable-background:new 0 0 512 512;" xml:space="preserve">
<style type="text/css">
	.st0{fill:#FFFFFF;}
</style>
<g id="_07-Credit_card_discount">
	<g id="filled">
		<path class="st0" d="M507.7,292.5L478.8,54.2c-3-24.1-24.9-41.3-49-38.4L64.5,60.1C41.6,63,24.7,83,25.8,106
			C12.3,113.9,4,128.4,4,144v240c0,24.3,19.7,44,44,44h151c0.4,3.5,2.4,6.6,5.3,8.5l24.6,16.2l10.4,27.5c1.8,4.9,6.6,8,11.8,7.8
			l29.4-1.4l24.5,16.1c4.3,2.9,10,2.6,14.1-0.7l22.9-18.4l29.4-1.4c5.2-0.2,9.6-3.8,11-8.8l7.8-28.3l21.5-17.2h4.4
			c24.3,0,44-19.7,44-44v-41.4l9.3-1.1C493.4,338.5,510.6,316.6,507.7,292.5L507.7,292.5z M28,188h408v40H28V188z M436,164H28v-20
			c0-11,9-20,20-20h368c11,0,20,9,20,20V164z M372.1,428.9c-2,1.6-3.4,3.8-4.1,6.2l-6.5,23.7l-24.5,1.1c-2.5,0.1-5,1-6.9,2.6
			l-19.2,15.3l-20.5-13.5c-2-1.3-4.3-2-6.6-2c-0.2,0-0.4,0-0.6,0l-24.5,1.1l-8.7-23c-0.9-2.4-2.5-4.4-4.6-5.8l-20.5-13.5l6.5-23.7
			c0.7-2.4,0.5-5-0.3-7.4l-8.7-23l19.2-15.3c2-1.6,3.4-3.8,4.1-6.2l6.5-23.7l24.5-1.1c2.5-0.1,5-1,6.9-2.6l19.2-15.3l20.5,13.5
			c2.1,1.4,4.6,2.1,7.2,2l24.5-1.1l8.7,23c0.9,2.4,2.5,4.4,4.6,5.8l20.5,13.5l-6.5,23.7c-0.7,2.4-0.6,5,0.3,7.4l8.7,23L372.1,428.9z
			 M416,404h-2.6l-6.9-18.3l7.8-28.3c1.4-5-0.6-10.3-5-13.2L384.7,328l-10.4-27.5c-1.8-4.9-6.6-8-11.8-7.8l-29.4,1.4L308.6,278
			c-4.3-2.9-10-2.6-14.1,0.7L271.6,297l-29.4,1.4c-5.2,0.2-9.6,3.8-11,8.8l-7.8,28.3l-23,18.4c-4.1,3.2-5.6,8.7-3.7,13.6l10.4,27.5
			l-2.5,9H48c-11,0-20-9-20-20V252h408v132C436,395,427,404,416,404z M479.7,310.1c-4.5,6.3-12.5,7.8-19.7,8.3V144
			c0-24.3-19.7-44-44-44H50.2c1.7-8.5,8.6-15,17.2-16l365.3-44.3c11-1.3,20.9,6.5,22.3,17.4l28.9,238.3
			C484.5,300.6,483,306,479.7,310.1z"/>
		<path class="st0" d="M80,292H48c-6.6,0-12,5.4-12,12s5.4,12,12,12h32c6.6,0,12-5.4,12-12S86.6,292,80,292z"/>
		<path class="st0" d="M192,292h-64c-6.6,0-12,5.4-12,12s5.4,12,12,12h64c6.6,0,12-5.4,12-12S198.6,292,192,292z"/>
		<path class="st0" d="M330.3,349.9l-64,64c-11.2,10.9,6.1,28.1,17,17l64-64c4.7-4.7,4.7-12.3,0-17S335,345.2,330.3,349.9z"/>
		<circle class="st0" cx="334.8" cy="418.3" r="12"/>
		<circle class="st0" cx="278.8" cy="362.3" r="12"/>
	</g>
</g>
</svg>
