<svg version="1.2" xmlns="http://www.w3.org/2000/svg" viewBox="0 0 48 48" width="48" height="48">
	<title>modal-support-dark-mode-svg</title>
	<style>
		.s0 { fill: #ffffff } 
	</style>
	<path id="Layer" fill-rule="evenodd" class="s0" d="m37.5 34.1l1.3 4.7-4.7-1.3c-1.4 0.9-3.1 1.4-4.8 1.4-4.4 0-8.2-3-9.3-7.1-1.9-0.1-3.7-0.6-5.3-1.5l-5.5 1.5 1.5-5.5c-1-1.8-1.6-3.8-1.6-5.8 0-6.3 5.1-11.4 11.4-11.4 6.1 0 11.1 4.9 11.3 10.9 4.1 1.1 7.1 4.9 7.1 9.3 0 1.7-0.5 3.4-1.4 4.8zm-22.2-5.5c1.6 1 3.3 1.5 5.2 1.5 5.3 0 9.6-4.3 9.6-9.6 0-5.3-4.3-9.6-9.6-9.6-5.3 0-9.6 4.3-9.6 9.6 0 1.8 0.5 3.6 1.5 5.2l0.2 0.3-0.9 3.3 3.3-0.9zm20.3 5.3l0.2-0.4c0.9-1.2 1.3-2.7 1.3-4.3 0-3.4-2.2-6.3-5.4-7.4-0.6 5.2-4.7 9.4-9.9 10 1 3.1 4 5.3 7.4 5.3 1.6 0 3-0.4 4.3-1.3l0.3-0.2 2.5 0.7z"/>
	<path id="Layer" class="s0" d="m19.6 24.9h1.8v1.7h-1.8z"/>
	<path id="Layer" class="s0" d="m22.2 17.8c0 0.5-0.2 1-0.5 1.3l-2.1 1.9v2.1h1.8v-1.3l1.4-1.4c0.8-0.6 1.2-1.6 1.2-2.6 0-1.9-1.6-3.4-3.5-3.4-1.9 0-3.5 1.5-3.5 3.4h1.7c0-0.9 0.8-1.7 1.8-1.7 0.9 0 1.7 0.8 1.7 1.7z"/>
</svg>