<svg version="1.2" xmlns="http://www.w3.org/2000/svg" viewBox="0 0 48 48" width="48" height="48">
	<title>modal-provably-fair-dark-mode-svg</title>
	<style>
		.s0 { fill: #ffffff } 
	</style>
	<g id="Layer">
		<g id="Layer">
			<path id="Layer" fill-rule="evenodd" class="s0" d="m41.1 23.7c0 3.2-2.9 5.9-6.5 5.9-3.6 0-6.5-2.7-6.5-5.9 0-0.3 0.2-0.6 0.5-0.7l4.7-9.4h-5.8c-0.3 1.4-1.3 2.5-2.7 2.8v13.5c2.5 0.3 4.4 2.2 4.7 4.1h1.7c0.5 0 0.8 0.4 0.9 0.8v3.1c-0.1 0.4-0.5 0.7-0.9 0.7h-14.4c-0.4 0-0.8-0.3-0.9-0.7v-3.1c0.1-0.4 0.4-0.8 0.9-0.8h1.7c0.3-1.9 2.2-3.8 4.7-4.1v-13.5c-1.4-0.3-2.4-1.4-2.7-2.8h-5.8l4.7 9.4c0.3 0.1 0.5 0.4 0.5 0.7 0 3.2-2.9 5.9-6.5 5.9-3.6 0-6.5-2.7-6.5-5.9 0-0.3 0.3-0.7 0.6-0.7l5.2-10.5c0.2-0.3 0.4-0.5 0.7-0.5l0.4 0.1h6.7c0.3-1.3 1.3-2.2 2.6-2.6 1.9-0.5 3.9 0.7 4.4 2.6h6.7l0.4-0.1c0.3 0 0.5 0.2 0.7 0.5l5.2 10.5c0.3 0 0.6 0.3 0.6 0.7zm-22.8 0.7h-9.8c0.5 1.9 2.5 3.6 4.9 3.6 2.5 0 4.5-1.7 4.9-3.6zm-4.9-9.9l-4.2 8.4h8.4zm4.1 22.5h13v-1.5h-13zm6.5-5.7c-2 0-3.6 1.1-3.9 2.6h7.9c-0.3-1.5-2-2.6-4-2.6zm2.1-18.4c0-1.2-0.9-2.1-2.1-2.1-1.1 0-2 0.9-2 2.1 0 1.1 0.9 2.1 2 2.1 1.2 0 2.1-1 2.1-2.1zm4.3 9.9h8.4l-4.2-8.4zm9.1 1.6h-9.8c0.5 1.9 2.5 3.5 4.9 3.5 2.5 0 4.5-1.6 4.9-3.5z"/>
		</g>
	</g>
</svg>