<svg version="1.2" xmlns="http://www.w3.org/2000/svg" viewBox="0 0 40 40" width="40" height="40"><style>.a{fill:#ede724}.b{fill:#fff985}.c{opacity:.4;fill:#d6cc16}.d{opacity:.8;fill:#c1b411}.e{fill:#bfbfbf}.f{fill:#7f7f7f}.g{opacity:.3;fill:#eaeaea}.h{fill:#9e900a}.i{fill:#af9c19}.j{fill:#776903}</style><path class="a" d="m8.9 27.4c0-5.8 4.7-10.6 10.6-10.6h1.2c5.9 0 10.6 4.8 10.6 10.6 0 5.9-4.7 10.6-10.6 10.6h-1.2c-5.9 0-10.6-4.7-10.6-10.6z"/><path class="b" d="m9.7 35.9v-15.7c0-1.5 1.2-2.7 2.7-2.7h17q0.7 0 1.3 0.3c-0.5-0.6-1.3-1-2.1-1h-17c-1.5 0-2.7 1.3-2.7 2.7v15.8c0 1 0.6 1.9 1.4 2.4-0.4-0.5-0.6-1.1-0.6-1.8z"/><path class="c" d="m28.6 16.8h-1.1v14.7c0 1.5-1.2 2.7-2.7 2.7h-15.9v1.1c0 1.5 1.2 2.7 2.7 2.7h17c1.5 0 2.7-1.2 2.7-2.7v-15.8c0-1.4-1.2-2.7-2.7-2.7z"/><path class="d" d="m29.8 17.1q0.2 0.5 0.2 1.2v15.7c0 1.5-1.2 2.7-2.7 2.7h-17q-0.6 0-1.1-0.2c0.4 0.9 1.3 1.5 2.4 1.5h17c1.5 0 2.7-1.2 2.7-2.7v-15.8c0-1-0.6-2-1.5-2.4z"/><path class="e" d="m26.9 8.4c0-1.8-0.7-3.5-2-4.8-1.3-1.3-3-2-4.8-2-1.8 0-3.5 0.7-4.8 2-1.3 1.3-2 3-2 4.8v8.4h2v-8.4c0-2.7 2.1-4.8 4.8-4.8 2.7 0 4.9 2.1 4.9 4.8v8.4h1.9v-8.4z"/><path class="f" d="m24.9 3.6c-1.3-1.3-3-2-4.8-2q-0.2 0-0.4 0c1.7 0.1 3.3 0.8 4.5 2 1.3 1.3 2 3 2 4.8q0 0 0 0v8.4h-1.2 1.9v-8.4c0-1.8-0.7-3.5-2-4.8z"/><path class="f" d="m19.4 3.6c-2.7 0-4.9 2.1-4.9 4.8q0 0 0 0v8.4h-1.2 2v-8.4c0-2.5 1.9-4.6 4.4-4.8q-0.2 0-0.3 0z"/><path class="g" d="m13.7 9.3q0 0 0 0c0-1.9 0.8-3.7 2.1-5.1 1.4-1.4 3.3-2.2 5.2-2.2q1.3 0 2.5 0.5c-1.1-0.6-2.2-0.9-3.4-0.9-1.8 0-3.5 0.7-4.8 2-1.3 1.3-2 3-2 4.8v8.4h0.4z"/><path class="f" d="m20.8 1.6q0 0 0 0 0 0 0 0z"/><path class="f" d="m24.9 3.6q-0.9-0.9-2-1.4 0.3 0.1 0.6 0.3-0.8-0.3-1.5-0.4 1.2 0.5 2.2 1.5c1.3 1.3 2 3 2 4.8q0 0 0 0v8.4h0.7v-8.4c0-1.8-0.7-3.5-2-4.8z"/><path class="f" d="m20.5 1.6q-0.1 0-0.1 0 0 0 0.1 0z"/><path class="f" d="m19.7 1.6q0 0 0 0 0 0 0 0 0 0 0 0z"/><path class="f" d="m19.8 1.6q0.2 0 0.3 0-0.1 0-0.3 0z"/><path class="f" d="m21.2 1.7q-0.1-0.1-0.1-0.1 0 0 0.1 0.1z"/><path class="f" d="m22.9 2.2q-0.3-0.2-0.6-0.3 0.3 0.1 0.6 0.3z"/><path class="f" d="m22.2 1.9q-0.1 0-0.2-0.1 0.1 0.1 0.2 0.1z"/><path class="f" d="m21.8 1.8q0 0-0.1 0 0.1 0 0.1 0z"/><path class="f" d="m21.5 1.7q0 0-0.1 0 0.1 0 0.1 0z"/><path class="h" d="m22.8 25.4c0-1.4-1.2-2.6-2.7-2.6-1.5 0-2.6 1.2-2.6 2.6 0 1.1 0.6 2.1 1.6 2.5v4.2h2v-4.2c1-0.4 1.7-1.4 1.7-2.5z"/><path class="h" d="m22.8 25.6c0-1.5-1.2-2.7-2.7-2.7-1.5 0-2.6 1.2-2.6 2.7 0 1.1 0.6 2 1.6 2.4v4.2h2v-4.2c1-0.4 1.7-1.3 1.7-2.4z"/><path class="i" d="m22.7 25.1c0 1.2-0.8 2.3-1.8 2.7v4.4h0.2v-4.2c1-0.4 1.7-1.3 1.7-2.4q0-0.3-0.1-0.5z"/><path class="j" d="m18.1 26c0-1.5 1.1-2.7 2.6-2.7q0.7 0.1 1.2 0.3c-0.5-0.4-1.1-0.7-1.8-0.7-1.5 0-2.6 1.2-2.6 2.7 0 1 0.5 1.9 1.4 2.3-0.5-0.5-0.8-1.1-0.8-1.9z"/><path class="j" d="m19.7 28.4q-0.3-0.1-0.6-0.3v4.1h0.6z"/></svg>