<svg xmlns="http://www.w3.org/2000/svg" width="43" height="42" fill="none" viewBox="0 0 43 42">
    <path stroke="#fff" stroke-width="1.5" d="M31.275 18.622c0 1.323-.277 2.598-.824 3.796-.834 1.826-1.034 3.74-.568 5.541l.613 2.381c.051.195-.067.397-.266.445l-11.147 2.891c-.03.008-.063.011-.092.011-.163 0-.307-.102-.355-.264l-.812-2.749-3.534-.077c-.815-.018-1.476-.69-1.476-1.503v-3.806h-1.145c-.247 0-.473-.122-.61-.324-.136-.202-.158-.459-.066-.683l1.894-4.498c-.432-3.174.882-6.243 3.209-8.201 1.19-1.003 2.648-1.714 4.272-2"/>
    <path stroke="#fff" stroke-width="1.5" d="M29.741 11.308h0v.003c.115.932-.23 1.892-.907 2.553h0l-.007.006c-.618.619-1.016 1.447-1.09 2.325h-2.036c-.08-.894-.498-1.735-1.133-2.35-.87-.873-1.134-2.173-.67-3.332.458-1.145 1.573-1.888 2.812-1.888.156 0 .264.001.345.013l.01.001.009.001c1.4.165 2.502 1.268 2.667 2.668z"/>
    <mask id="vjq7wss6ua" fill="#fff">
        <path d="M26.71 19.86c.369 0 .697-.226.82-.596h-1.662c.123.37.472.595.841.595z"/>
    </mask>
    <path fill="#fff" d="M27.53 19.264l1.423.475.659-1.975H27.53v1.5zm-1.662 0v-1.5h-2.081l.658 1.975 1.423-.475zm.841 2.095c1.005 0 1.914-.629 2.244-1.62l-2.846-.95c.085-.252.337-.43.602-.43v3zm.821-3.595h-1.662v3h1.662v-3zm-3.085 1.975c.343 1.03 1.302 1.62 2.264 1.62v-3c.225 0 .485.14.582.43l-2.846.95z" mask="url(#vjq7wss6ua)"/>
    <mask id="3n86n1qjfb" fill="#fff">
        <path d="M25.232 18.402c0 .165.123.288.288.288h2.34c.163 0 .286-.123.286-.288v-.882h-2.914v.882z"/>
    </mask>
    <path fill="#fff" d="M28.146 17.52h1.5v-1.5h-1.5v1.5zm-2.914 0v-1.5h-1.5v1.5h1.5zm-1.5.882c0 .993.795 1.788 1.788 1.788v-3c.303 0 .616.118.855.357s.357.552.357.855h-3zm1.788 1.788h2.34v-3h-2.34v3zm2.34 0c.992 0 1.786-.795 1.786-1.788h-3c0-.303.119-.616.358-.855.238-.239.552-.357.855-.357v3zm1.786-1.788v-.882h-3v.882h3zm-1.5-2.382h-2.914v3h2.914v-3zm-4.414 1.5v.882h3v-.882h-3z" mask="url(#3n86n1qjfb)"/>
</svg>
