<svg version="1.2" xmlns="http://www.w3.org/2000/svg" viewBox="0 0 512 512" width="512" height="512"><style>.a{fill:#fff}</style><path fill-rule="evenodd" class="a" d="m397.7 137.8v236.4l-141.7 81.8-141.7-81.8v-236.4l141.7-81.8zm-134.4 12.2l49.5 28.5 55.8-32.4-105.3-60.8zm-119.8-3.7l55.9 32.3 49.4-28.6v-64.5zm-7.2 207.1l55.8-32.2v-130l-55.8-32.3zm112.5 8.8l-49.4-28.4-55.9 32.2 105.3 60.8zm7.3-12.6l49.3-28.5v-129.9l-49.3-28.5-49.4 28.5v129.9zm112.6 16.4l-56-32.2-49.4 28.5v64.5zm7.3-207.1l-55.9 32.2v130l55.9 32.3z"/><path class="a" d="m223.6 210.6l36.9-22.2-36.9 70.3z"/></svg>