<svg xmlns="http://www.w3.org/2000/svg" width="48" height="48" fill="none" viewBox="0 0 48 48">
    <path stroke="#747F8D" stroke-linecap="round" stroke-linejoin="round" stroke-width="1.5" d="M14.57 25.935c-.414 0-.75.336-.75.75V37.5c0 .967.784 1.75 1.75 1.75h17.334c.966 0 1.75-.783 1.75-1.75V26.685c0-.414-.336-.75-.75-.75H14.57z"/>
    <path stroke="#747F8D" stroke-width="1.5" d="M16.345 31.142l-1.771-4.78H33.9l-1.77 4.78c-.037.098-.13.163-.235.163H16.579c-.104 0-.198-.065-.234-.163z"/>
    <path fill="#747F8D" d="M8.62 31.58c-.263.321-.216.794.105 1.056.32.262.793.215 1.055-.105l-1.16-.95zm5.994-4.957c.262-.32.215-.793-.106-1.055-.32-.263-.793-.215-1.055.105l1.16.95zM9.78 32.531l4.834-5.908-1.161-.95-4.834 5.908 1.161.95zM39.854 31.58c.263.321.215.794-.105 1.056s-.793.215-1.056-.105l1.161-.95zm-5.994-4.957c-.262-.32-.215-.793.106-1.055.32-.263.793-.215 1.055.105l-1.16.95zm4.834 5.908l-4.834-5.908 1.161-.95 4.833 5.908-1.16.95z"/>
    <path stroke="#747F8D" stroke-width="1.5" d="M30.923 26.148c1.837-1.76 2.98-4.237 2.98-6.981 0-5.34-4.327-9.667-9.666-9.667s-9.667 4.328-9.667 9.667c0 2.744 1.144 5.221 2.98 6.981"/>
    <path stroke="#747F8D" stroke-width="1.5" d="M23.93 20.51v-1.88h.614c1.017 0 1.841-.842 1.841-1.88v-.125c0-.97-.77-1.755-1.718-1.755h-.737c-1.017 0-1.841.842-1.841 1.88m1.227 5.639h1.228"/>
</svg>
