<svg xmlns="http://www.w3.org/2000/svg" width="48" height="48" fill="none" viewBox="0 0 48 48">
    <path stroke="#747F8D" stroke-width="1.5" d="M23.62 27.363v-.92c0-.996.506-1.907 1.31-2.353.802-.445 1.309-1.372 1.309-2.368 0-1.49-1.087-2.722-2.428-2.722h-.136c-.874 0-1.713.386-2.33 1.072l-.345.382m2.62 8v1.454"/>
    <rect width="18.5" height="26.5" x="14.75" y="10.75" stroke="#747F8D" stroke-width="1.5" rx="1.25"/>
    <path stroke="#747F8D" stroke-width="1.5" d="M15.064 16l-4.615.951c-1.07.22-1.747 1.256-1.523 2.325l3.198 15.237c.186.887 1.037 1.486 1.936 1.364v0l.802-.108M32.936 16l4.615.951c1.07.22 1.747 1.256 1.523 2.325l-3.198 15.237c-.186.887-1.037 1.486-1.936 1.364v0l-.802-.108"/>
</svg>
