<svg width="329" height="357" viewBox="0 0 329 357" fill="none" xmlns="http://www.w3.org/2000/svg">
<g filter="url(#filter0_d_885_28630)">
<path fill-rule="evenodd" clip-rule="evenodd" d="M297.23 25.3207C297.23 25.3207 139.669 -13.0399 27 81.9773C27 81.9773 27 251.492 143.704 319.284C285.849 268.895 313.809 108.94 297.23 25.3207Z" fill="#001339"/>
<path d="M300.663 24.64L300.229 22.4485L298.058 21.92L297.23 25.3207C298.058 21.92 298.056 21.9195 298.054 21.919L298.046 21.9171L298.019 21.9107L297.924 21.8878C297.841 21.8682 297.72 21.8398 297.563 21.8034C297.247 21.7305 296.784 21.6255 296.179 21.4935C294.969 21.2295 293.191 20.8576 290.895 20.4199C286.304 19.5445 279.638 18.4055 271.294 17.3397C254.611 15.2087 231.193 13.367 204.216 14.5207C150.307 16.8264 81.8854 31.1124 24.7436 79.3017L23.5 80.3505V81.9773H27C23.5 81.9773 23.5 81.9791 23.5 81.9816L23.5 81.9898L23.5001 82.0177L23.5005 82.1195C23.501 82.2076 23.5019 82.3363 23.5038 82.5043C23.5075 82.8403 23.5148 83.3339 23.5294 83.9768C23.5585 85.2627 23.6165 87.1461 23.7319 89.5607C23.9628 94.3894 24.4236 101.345 25.3436 109.898C27.1828 126.995 30.8611 150.508 38.2237 176.174C52.9243 227.419 82.4694 287.761 141.946 322.31L143.347 323.124L144.873 322.583C217.09 296.983 260.263 243.526 283.238 186.063C306.178 128.689 309.083 67.1068 300.663 24.64Z" stroke="#FF8080" stroke-opacity="0.47" stroke-width="7"/>
</g>
<path fill-rule="evenodd" clip-rule="evenodd" d="M282.148 39.7638C277.462 38.9584 272.705 38.3106 268.177 37.7328C247.211 35.0541 225.823 34.1611 204.716 35.0716C146.681 37.5928 90.3375 53.9454 44.4946 89.9249C44.7941 96.0352 45.3755 102.251 46.0098 108.151C48.2826 129.283 52.3348 150.451 58.2193 170.883C72.9659 222.13 99.9219 270.715 145.571 300.234C202.02 277.823 241.45 234.648 263.931 178.429C280.422 137.18 288.421 84.935 282.148 39.7638ZM146.558 272.326C81.9688 227.907 62.7472 181.826 54.7485 107.223C54.2728 102.828 53.85 98.4164 53.5328 94.0043C97.3144 61.0363 150.575 46.1368 205.103 43.7732C228.289 42.7577 241.203 45.7866 264.142 49.1307C265.975 155.213 243.23 214.706 146.558 272.326Z" fill="#0F2D6A"/>
<path fill-rule="evenodd" clip-rule="evenodd" d="M147.245 252.822C147.245 252.822 80.3124 220.029 70.6047 101.761C70.6047 101.761 136.004 49.1662 247.881 63.1027C247.881 63.1027 256.813 184.12 165.55 240.531L151.473 250.126L147.245 252.822Z" fill="#FF0000"/>
<path fill-rule="evenodd" clip-rule="evenodd" d="M164.544 37.2784C164.544 37.2784 166.628 40.8535 166.247 42.9257C165.867 44.9978 163.177 48.8006 163.67 49.6887C164.163 50.5767 169.878 54.8805 169.878 54.8805C169.878 54.8805 163.894 51.5786 162.124 51.8747C160.376 52.1479 145.317 59.5257 143.211 63.1008C141.127 66.6758 133.642 78.4029 135.3 84.5511C136.958 90.6993 127.815 99.5117 125.507 104.544C123.199 109.576 117.597 117.159 116.05 124.309C114.504 131.459 106.37 139.611 104.958 140.386C103.524 141.16 100.386 141.388 98.6831 142.777C96.98 144.166 94.7167 150.701 96.5318 152.272C98.347 153.843 99.2882 152.773 99.2882 152.773C99.2882 152.773 98.1229 157.578 100.722 156.735C103.299 155.893 104.465 153.661 107.692 150.929C110.941 148.196 116.924 141.092 119.994 136.196C123.065 131.277 138.684 113.083 141.866 106.047C145.048 99.0107 151.749 93.3179 152.757 93.5456C153.743 93.7734 152.533 98.8057 155.289 102.267C158.046 105.728 159.032 109.759 158.583 115.224C158.135 120.689 162.55 125.493 165.284 125.607C165.284 125.607 157.53 131.459 158.203 136.606C158.852 141.752 153.474 143.186 151.502 145.213C149.53 147.217 150.852 152.477 147.872 156.166C144.914 159.855 140.185 166.208 140.073 168.235C139.961 170.238 137.115 176.501 137.541 179.074C137.989 181.647 136.981 188.797 135.681 190.573C135.681 190.573 137.115 184.698 136.331 183.582C136.331 183.582 133.575 183.924 132.925 185.267C132.275 186.611 125.776 185.427 120.779 191.074C115.781 196.721 112.308 205.716 118.134 205.647C123.961 205.602 131.603 201.913 131.603 201.913C131.603 201.913 131.827 205.943 134.785 206.376C137.743 206.831 140.454 205.602 142.269 206.262C144.085 206.923 157.597 193.806 158.875 190.3C160.13 186.793 161.676 190.527 167.009 187.909C172.343 185.29 184.377 176.842 184.937 169.646C184.937 169.646 188.612 174.292 188.791 179.256C188.948 184.22 190.607 188.637 190.001 190.322C189.396 192.008 188.634 195.059 186.102 197.86C183.57 200.661 178.416 209.359 177.968 213.276C177.519 217.192 173.239 230.696 170.819 233.041C168.399 235.386 166.965 238.734 166.965 240.237C166.965 241.739 161.967 242.013 162.012 246.203C162.057 250.392 163.558 252.282 167.077 251.349C170.595 250.392 170.976 249.391 175.816 250.575C180.657 251.736 188.119 251.531 187.133 249.345C186.147 247.159 178.124 242.582 178.124 241.034C178.124 239.462 196.142 217.078 201.766 208.813C207.369 200.547 206.047 192.736 206.047 191.279C206.047 189.822 208.131 189.275 209.789 185.017C211.447 180.781 224.624 165.798 222.652 146.374C220.68 126.951 218.685 124.696 219.582 119.118C220.456 113.539 214.741 111.512 214.741 101.698C214.741 91.8606 209.901 83.2759 211.335 79.0177C212.769 74.7823 216.826 72.4369 220.344 72.0953C223.862 71.7538 250.798 67.8599 261.129 62.5998C271.46 57.3397 278.832 58.4783 281.902 56.7932C284.973 55.1082 288.491 58.9109 290.53 58.5693C292.569 58.2278 288.558 54.5389 287.841 53.4914C287.124 52.4212 289.32 51.3054 290.709 51.7608C292.076 52.2162 296.984 54.8349 297.298 53.7191C297.634 52.6033 297.253 51.4193 297.253 51.4193C297.253 51.4193 299.673 53.6508 300.771 52.9221C301.869 52.1935 299.561 47.3432 295.281 44.8157C291.001 42.3108 288.58 41.5139 286.989 42.9257C285.398 44.3147 282.037 46.1591 277.914 46.8423C273.79 47.5026 257.79 48.4135 255.325 49.4154C252.86 50.4173 241.095 51.7608 237.465 52.0341C233.834 52.3073 216.31 50.1896 212.344 47.3888C208.377 44.5879 201.677 43.085 199.817 43.8137C197.957 44.5424 190.315 45.8176 188.276 45.2711C186.237 44.7018 185.408 44.4285 185.632 42.197C185.856 39.9654 186.125 40.5119 187.783 38.4625C189.441 36.3904 188.881 35.4568 189.755 34.6142C190.629 33.7717 191.122 31.5401 190.405 31.0392C189.688 30.5382 190.181 22.6139 189.15 18.5834C188.097 14.553 186.954 11.8887 181.508 9.20176C176.063 6.51478 169.586 10.1582 166.942 14.6213C164.298 19.0844 164.477 23.1604 164.253 24.8455C164.029 26.5305 161.295 26.8038 161.833 28.3067C162.393 29.8095 163.693 32.2233 163.581 33.1113C163.446 33.9311 164.544 37.2784 164.544 37.2784Z" fill="white"/>
<path d="M121.112 273.105C139.543 268.78 150.956 250.426 146.604 232.11C142.252 213.794 123.783 202.452 105.351 206.777C86.9202 211.102 75.5069 229.456 79.859 247.772C84.2111 266.088 102.681 277.43 121.112 273.105Z" fill="#001847"/>
<path fill-rule="evenodd" clip-rule="evenodd" d="M105.966 218.649L111.082 211.562C112.142 211.485 113.227 211.459 114.338 211.485C120.153 211.69 125.528 213.539 129.998 216.595L130.98 225.095L139.017 226.379C141.601 230.924 142.996 236.215 142.816 241.787C142.764 243.225 142.609 244.663 142.35 246.05L135.709 249.696L125.192 244.92L123.719 234.314L128.267 227.946L121.496 232.08L111.341 229.769L105.966 218.649Z" fill="white"/>
<path fill-rule="evenodd" clip-rule="evenodd" d="M108.805 229.819L104.567 219.701L95.8328 217.21C90.2252 221.319 86.1164 227.379 84.54 234.416L93.6621 244.431L87.7444 255.396C90.5094 260.173 94.6182 264.127 99.5539 266.721L108.366 260.969L117.643 269.803C124.827 268.75 131.236 265.103 135.758 259.839L134.853 252.032L123.897 246.716L113.638 251.262L109.555 257.579L110.382 250.825L104.128 244.148L96.5563 243.301L103.223 240.527L108.805 229.819Z" fill="white"/>
<path fill-rule="evenodd" clip-rule="evenodd" d="M95.8328 217.184C90.2252 221.293 86.1164 227.353 84.54 234.39L93.6621 244.405L87.7444 255.37C90.5094 260.147 94.6182 264.101 99.5539 266.695L108.366 260.943L117.643 269.777C124.827 268.724 131.236 265.077 135.758 259.813C124.388 261.379 116.17 259.787 110.252 256.449L109.555 257.527L109.736 256.141C104.464 253.008 101.079 248.437 98.9338 243.532L96.5563 243.275L98.4944 242.479C93.7138 230.589 95.8328 217.184 95.8328 217.184Z" fill="#C1CCD4"/>
<defs>
<filter id="filter0_d_885_28630" x="0" y="0.665039" width="328.486" height="356.299" filterUnits="userSpaceOnUse" color-interpolation-filters="sRGB">
<feFlood flood-opacity="0" result="BackgroundImageFix"/>
<feColorMatrix in="SourceAlpha" type="matrix" values="0 0 0 0 0 0 0 0 0 0 0 0 0 0 0 0 0 0 127 0" result="hardAlpha"/>
<feOffset dy="10"/>
<feGaussianBlur stdDeviation="10"/>
<feColorMatrix type="matrix" values="0 0 0 0 0 0 0 0 0 0 0 0 0 0 0 0 0 0 0.6 0"/>
<feBlend mode="normal" in2="BackgroundImageFix" result="effect1_dropShadow_885_28630"/>
<feBlend mode="normal" in="SourceGraphic" in2="effect1_dropShadow_885_28630" result="shape"/>
</filter>
</defs>
</svg>
