<svg xmlns="http://www.w3.org/2000/svg" width="32" height="32" fill="none" viewBox="0 0 32 32">
    <circle cx="18.361" cy="14.255" r="7.75" stroke="#fff" stroke-width="1.5" transform="rotate(8.444 18.36 14.255)"/>
    <path stroke="#fff" stroke-width="1.5" d="M11.113 17.273l3.735 1.347 2.04-2.393 2.968.44 1.38-2.49 2.736-.268 1.966 2.65M10.515 14.489l3.285-2.427 2.54 1.051 2.553-1.306.391-2.638 3.385-1.638"/>
    <path stroke="#fff" stroke-width="1.5" d="M16.783 6.32l2.502 2.85-.392 2.637 2.344 2.37 2.736-.268 1.321-3.63M24.508 19.38l-3.395.17-1.257-2.882-2.968-.44-.548-3.115-2.54-1.051-.279-4.204M19.402 21.992l1.71-2.442M14.849 18.62l1.208 3.212"/>
    <path stroke="#fff" stroke-linecap="round" stroke-width="1.5" d="M10.552 16.516L4.933 20.77M10.27 20.133l-5.356 3.97M15.33 21.36l-4.82 3.575M9.44 25.729l-.268.198"/>
</svg>
