<svg xmlns="http://www.w3.org/2000/svg" width="32" height="32" fill="none" viewBox="0 0 32 32">
    <path stroke="#fff" stroke-width="1.5" d="M20.93 17.414c.19-.355.457-.666.791-.914h0c.83-.616 1.95-.709 2.866-.233.763.397 1.295 1.11 1.446 1.954.141.792-.069 1.593-.576 2.213-.03.037-.062.073-.092.107l-.002.003c-.704.773-1.757 1.021-2.718.773.466.934.374 2.096-.329 2.956-.955 1.167-2.68 1.34-3.847.384-1.168-.955-1.34-2.68-.385-3.847.114-.139.24-.264.376-.376l-.166-.33-5.026-1.505h0c-.256-.076-.49-.201-.696-.37-.52-.426-.793-1.081-.727-1.751h0l.034-.35c.028-.296.187-.563.431-.729l.422.62m8.199 1.395l-6.122-4.193 1.473 2.91-3.143-.868s0 0 0 0h-.001c-.284-.08-.589-.028-.832.14l.426.617m8.199 1.394l-.355-.098-2.47-4.628h0c-.126-.236-.295-.441-.5-.61-.521-.426-1.218-.563-1.861-.366h0l-.336.103m5.522 5.599l-5.522-5.6m-2.677 4.206c.06-.042.136-.054.206-.035l3.802 1.05-3.257.846c-.16-.048-.307-.126-.436-.232-.327-.267-.497-.678-.456-1.098l.034-.351c.007-.073.046-.139.107-.18zm2.677-4.205h-.001m.001 0h-.001m0 0c-.281.086-.512.292-.628.565-.114.27-.104.578.029.84l.599-1.405zm4 7.17l-.055-.108-.012-.024-.114-.035c-.027-.08-.014-.171.044-.241.058-.07.145-.102.228-.092l.056.105.027.008.116.032c.02.045.028.095.021.144l-.228-.018h-.002l.063.221c-.046.017-.096.02-.144.008zm.98 3.71c-.085.102-.238.118-.341.034-.103-.084-.118-.238-.034-.34.084-.104.238-.119.34-.035.103.084.118.238.034.34zm3.14-3.839c-.084.103-.237.118-.34.034-.103-.084-.118-.238-.034-.34.084-.103.238-.118.34-.034.103.084.119.237.035.34z"/>
    <path stroke="#fff" stroke-width="1.5" d="M16.6 24.541H7.934c-1.105 0-2-.895-2-2V8.333c0-1.104.895-2 2-2H15.417c1.048 0 1.897.85 1.897 1.897v0c0 1.047.849 1.897 1.896 1.897v0c1.048 0 1.897.849 1.897 1.896V15"/>
</svg>
