<svg width="330" height="362" viewBox="0 0 330 362" fill="none" xmlns="http://www.w3.org/2000/svg">
<g filter="url(#filter0_d_885_28660)">
<path fill-rule="evenodd" clip-rule="evenodd" d="M298.161 29.5262C298.161 29.5262 140.6 -8.83433 27.9307 86.1829C27.9307 86.1829 27.9307 255.698 144.635 323.489C286.779 273.101 314.74 113.146 298.161 29.5262Z" fill="#001339"/>
<path d="M301.594 28.8455L301.159 26.6541L298.989 26.1256L298.161 29.5262C298.989 26.1256 298.987 26.1251 298.984 26.1245L298.977 26.1226L298.95 26.1162L298.854 26.0934C298.771 26.0737 298.651 26.0454 298.493 26.0089C298.178 25.9361 297.715 25.8311 297.11 25.699C295.9 25.435 294.122 25.0631 291.826 24.6254C287.235 23.7501 280.569 22.611 272.225 21.5452C255.542 19.4143 232.123 17.5726 205.147 18.7263C151.238 21.0319 82.8161 35.318 25.6743 83.5073L24.4307 84.5561V86.1829H27.9307C24.4307 86.1829 24.4307 86.1847 24.4307 86.1872L24.4307 86.1953L24.4307 86.2232L24.4312 86.325C24.4316 86.4132 24.4326 86.5418 24.4344 86.7098C24.4381 87.0458 24.4455 87.5394 24.4601 88.1824C24.4892 89.4682 24.5472 91.3516 24.6626 93.7663C24.8935 98.595 25.3543 105.551 26.2742 114.103C28.1134 131.2 31.7917 154.714 39.1543 180.379C53.855 231.625 83.4 291.967 142.876 326.516L144.277 327.33L145.804 326.788C218.021 301.188 261.194 247.732 284.169 190.269C307.108 132.894 310.014 71.3124 301.594 28.8455Z" stroke="#3B4C5A" stroke-width="7"/>
</g>
<path fill-rule="evenodd" clip-rule="evenodd" d="M281.77 49.0685C277.084 48.2631 272.327 47.6153 267.799 47.0375C246.833 44.3587 225.444 43.4658 204.337 44.3763C146.303 46.8974 89.9591 63.2501 44.1162 99.2295C44.4157 105.34 44.9971 111.555 45.6314 117.456C47.9042 138.588 51.9564 159.756 57.8409 180.188C72.5874 231.434 99.5435 280.02 145.193 309.538C201.642 287.128 241.072 243.953 263.553 187.734C280.043 146.484 288.042 94.2397 281.77 49.0685ZM146.179 281.63C81.5904 237.212 62.3688 191.13 54.3701 116.528C53.8944 112.133 53.4715 107.721 53.1544 103.309C96.936 70.341 150.196 55.4415 204.725 53.0778C227.911 52.0624 240.825 55.0913 263.764 58.4354C265.596 164.518 242.851 224.011 146.179 281.63Z" fill="#154D7B"/>
<path fill-rule="evenodd" clip-rule="evenodd" d="M151.342 262.127C151.342 262.127 84.4099 229.334 74.7021 111.066C74.7021 111.066 140.101 58.4709 251.978 72.4074C251.978 72.4074 260.91 193.424 169.647 249.836L155.57 259.43L151.342 262.127Z" fill="#8A0000"/>
<path fill-rule="evenodd" clip-rule="evenodd" d="M243.995 245.867L245.131 247.289L240.97 251.766C233.226 260.174 226.065 269.493 216.856 276.45L216.714 276.57L216.571 276.69C201.171 287.089 180.248 290.852 161.954 291L154.331 291.072L155.038 282.854C155.197 281.013 153.82 279.305 151.914 279.141C150.073 278.983 148.365 280.359 148.201 282.266L147.488 290.55L140.164 289.456C119.046 286.248 94.9021 277.414 81.869 259.536L81.7488 259.393L63.5043 231.263L64.7726 230.378C63.8338 228.973 63.0321 227.513 62.4334 226.004L60.0044 220.364L64.604 217.713C62.3828 214.277 61.0015 210.316 61.3805 205.911C62.6648 190.986 82.1157 184.315 94.3554 181.394C114.974 176.545 138.776 176.274 159.749 178.079C180.722 179.884 204.128 184.216 223.615 192.516C235.116 197.414 253.201 207.382 251.917 222.307C251.532 226.777 249.495 230.444 246.648 233.51L250.541 236.76L247.184 241.902C246.336 243.286 245.226 244.648 243.995 245.867Z" fill="#001339"/>
<path fill-rule="evenodd" clip-rule="evenodd" d="M158.03 199.59C198.727 203.092 230.903 214.802 229.958 225.782C229.013 236.762 195.244 242.798 154.612 239.301C113.915 235.799 81.739 224.089 82.6838 213.109C83.6286 202.129 117.332 196.088 158.03 199.59ZM213.945 250.236C217.12 249.515 220.169 248.718 222.967 247.766C225.416 243.937 227.464 240.139 229.185 236.313C226.304 237.456 223.101 238.505 219.58 239.394C217.926 243.226 216.026 246.838 213.945 250.236ZM199.624 252.712C203.505 252.252 207.2 251.642 210.704 250.95C212.593 247.47 214.088 243.956 215.248 240.479C211.804 241.242 208.109 241.851 204.222 242.378C202.853 245.969 201.299 249.412 199.624 252.712ZM187.011 253.813C190.272 253.63 193.473 253.375 196.549 253.044C198.032 249.661 199.252 246.256 200.138 242.888C197.26 243.236 194.262 243.442 191.198 243.642C189.9 247.173 188.549 250.567 187.011 253.813ZM174 254.15C177.441 254.182 180.828 254.076 184.15 253.964C185.502 250.57 186.519 247.213 187.208 243.828C184.149 243.963 180.965 244.02 177.715 244.071C176.621 247.554 175.406 250.893 174 254.15ZM162.3 253.872C165.336 254.001 168.306 254.124 171.216 254.176C172.37 250.765 173.256 247.397 173.868 244.138C170.761 244.069 167.588 243.995 164.421 243.855C163.864 247.251 163.181 250.57 162.3 253.872ZM147.041 252.625C149.074 252.866 151.178 253.048 153.282 253.229C155.517 253.421 157.687 253.608 159.862 253.729C160.491 250.272 160.845 246.925 160.931 243.62C158.755 243.499 156.52 243.307 154.284 243.115C152.049 242.922 149.814 242.73 147.65 242.478C147.175 245.682 146.947 249.107 147.041 252.625ZM135.844 251.132C138.72 251.578 141.667 251.964 144.614 252.35C144.305 249.012 144.139 245.554 144.176 242.046C141.032 241.643 137.887 241.24 134.82 240.711C134.926 244.098 135.223 247.568 135.844 251.132ZM123.196 248.785C126.45 249.463 129.769 250.146 133.165 250.703C132.336 247.253 131.71 243.755 131.16 240.131C127.961 239.591 124.839 238.925 121.783 238.265C121.955 241.658 122.444 245.21 123.196 248.785ZM111.131 245.826C114.105 246.678 117.215 247.476 120.397 248.213C119.437 244.753 118.624 241.106 118.015 237.411C115.03 236.69 112.117 235.91 109.269 235.135C109.567 238.605 110.187 242.168 111.131 245.826ZM97.6071 241.351C100.941 242.631 104.484 243.797 108.229 244.914C107.077 241.371 106.139 237.647 105.338 233.869C101.598 232.686 98.0612 231.455 94.7986 230.114C95.3422 233.804 96.2802 237.527 97.6071 241.351ZM86.1834 236.327C88.7828 237.677 91.5852 238.978 94.5961 240.164C93.1321 236.396 91.8109 232.506 90.7753 228.377C87.4583 226.899 84.4813 225.319 81.8331 223.766C82.8687 227.895 84.3645 232.064 86.1834 236.327ZM96.6929 245.047C93.6933 243.73 90.9566 242.434 88.3628 241.019C89.9378 244.267 91.7702 247.604 93.7341 250.953L93.7998 250.958L102.173 255.255C100.132 252.033 98.3054 248.63 96.6929 245.047ZM109.974 250.032C106.3 248.855 102.763 247.623 99.4351 246.277C100.807 249.574 102.437 252.96 104.395 256.374C107.652 257.78 111.238 259.215 114.649 260.369C112.882 257.038 111.324 253.592 109.974 250.032ZM122.011 253.32C118.763 252.577 115.658 251.713 112.685 250.861C113.788 254.202 115.155 257.565 116.779 261.016C119.807 262.005 123.097 263.017 126.219 263.683C124.584 260.363 123.163 256.863 122.011 253.32ZM134.51 255.852C131.048 255.289 127.729 254.606 124.416 253.858C125.388 257.187 126.611 260.67 128.038 264.105L138.193 266.171C136.82 262.873 135.597 259.39 134.51 255.852ZM145.302 257.443C142.48 257.134 139.67 256.694 136.926 256.259C137.766 259.577 138.793 263.043 140.082 266.532L147.412 267.56C146.506 264.237 145.802 260.864 145.302 257.443ZM158.714 258.597C156.736 258.493 154.764 258.324 152.792 258.154C150.951 257.996 149.11 257.837 147.274 257.613C147.595 260.82 148.101 264.175 148.864 267.619L155.439 268.184C156.839 264.993 157.911 261.774 158.714 258.597ZM169.345 258.982C166.567 258.942 163.723 258.896 160.89 258.718C159.812 262.004 158.543 265.206 157.083 268.326L164.48 268.565C166.347 265.348 167.945 262.174 169.345 258.982ZM182.016 258.748C178.689 258.925 175.236 259.026 171.729 258.989C170.114 262.36 168.319 265.517 166.332 268.592L176.691 268.291C178.755 265.091 180.55 261.933 182.016 258.748ZM194.289 257.751C191.142 258.142 187.941 258.397 184.608 258.64C182.796 261.994 180.87 265.14 178.752 268.203L188.515 267.123C190.71 263.934 192.631 260.854 194.289 257.751ZM208.138 255.366C204.629 256.124 200.928 256.799 197.041 257.325C195.103 260.603 193.045 263.737 190.801 266.723L190.867 266.729L201.587 264.539C204.034 261.504 206.218 258.446 208.138 255.366ZM220.149 252.028C217.346 253.045 214.357 253.914 211.111 254.694C208.91 257.949 206.594 260.995 204.027 263.887L213.088 260.958C215.727 258.006 218.037 255.025 220.149 252.028ZM159.291 184.928C208.076 189.126 246.536 205.55 245.155 221.592C244.742 226.392 240.802 230.623 234.21 234.096C231.985 238.409 229.507 242.567 226.921 246.451C233.153 244.073 238.164 241.258 241.489 238.034C238.28 242.991 232.153 247.232 223.918 250.564C221.526 253.736 219.007 256.831 216.309 259.712L235.946 247.029C228.79 254.758 221.195 264.504 212.766 270.865C199.968 279.501 181.313 283.856 161.962 283.98L162.018 283.322C162.505 277.668 158.298 272.67 152.578 272.177C146.924 271.691 141.926 275.897 141.439 281.551L141.354 282.538C119.059 279.162 98.379 270.097 87.5897 255.391L73.1492 233.086C77.7139 239.308 84.2849 245.304 90.8942 249.317C88.7218 246.084 86.7636 242.67 84.8825 239.13C76.889 234.269 71.3303 228.823 68.8956 223.249C71.8061 227.142 76.443 230.985 82.5659 234.493C80.5554 230.147 78.8305 225.561 77.2485 220.855C71.1503 216.29 67.9302 211.376 68.3489 206.511C69.8064 190.343 110.507 180.73 159.291 184.928Z" fill="white"/>
<path fill-rule="evenodd" clip-rule="evenodd" d="M210.468 101.306C212.011 97.9947 214.063 94.9259 216.702 91.9736C216.345 86.1143 216.585 80.2402 217.675 74.5053C217.45 72.4989 217.423 70.5095 217.658 68.5428C217.419 65.939 217.376 63.3522 217.537 60.7167C217.194 57.7728 217.652 54.7654 218.941 52.0946C220.413 48.8433 223.16 46.1654 226.893 45.8905C228.159 45.8007 229.469 45.9796 230.618 46.4759C235.545 48.4895 237.452 54.8133 238.233 59.5833L238.368 60.3235L238.3 61.1124C238.114 63.2821 238.053 65.5288 238.195 67.7268C238.637 66.4401 239.079 65.1534 239.581 63.9382C239.711 62.426 239.978 60.8594 240.174 59.3528C240.626 56.4112 241.735 53.5261 242.833 50.7725C244.112 45.915 245.074 40.8977 246.09 36.0175C247.14 30.7429 251.5 25.4881 257.351 25.9917C258.929 26.1274 260.407 26.6521 261.72 27.5598C265.779 30.426 266.662 36.3306 266.538 41.6187C267.83 38.1532 269.187 34.6933 270.479 31.2278C272.831 24.6743 280.08 18.9396 287.263 21.6772C292.01 23.4765 293.926 28.1454 293.979 32.9188C293.994 37.3578 292.524 42.1326 290.693 46.479C291.187 46.1241 291.609 45.8293 292.164 45.5458C296.055 43.43 301.114 43.1368 304.701 46.0948C308.966 49.641 308.545 55.301 306.434 59.822C305.299 62.2412 303.851 64.4348 302.213 66.5458C300.454 72.3556 296.624 78.3845 293.152 83.3183C291.836 87.8414 289.319 92.4599 286.919 96.4924L286.693 96.8041L286.468 97.1159C284.229 100.036 283.193 104.385 282.745 108.055C287.38 104.215 292.972 101.583 299.167 102.713L299.753 102.829L300.328 103.077C306.398 105.653 315.029 110.039 314.898 117.711C314.858 120.489 313.585 122.963 311.624 124.979L310.678 125.958L309.378 126.442C306.306 127.502 302.393 127.563 298.958 127.466C296.461 128.775 293.74 129.6 290.873 129.817L290.742 129.806C287.152 129.961 279.875 133.706 275.918 135.816C269.81 145.226 260.89 150.353 249.824 151.189C232.456 173.672 212.272 194.256 191.466 213.594C200.27 216.736 205.794 218.735 205.33 224.126C204.866 229.517 182.364 221.62 155.868 219.34C129.371 217.06 108.997 220.606 109.405 215.872C109.818 211.072 112.305 211.419 116.748 209.814C102.171 195.247 82.9815 174.255 77.2463 157.004C67.7527 149.564 58.853 141.38 50.8157 132.409L50.6956 132.266L50.5754 132.123C46.8237 127.23 44.3289 121.584 44.6692 115.321C44.3695 112.646 44.0698 109.971 43.7701 107.296L43.7871 107.099L43.8041 106.901C43.7469 103.717 43.1581 100.554 42.3006 97.433C37.9891 86.7294 36.2051 73.594 48.1473 67.2033C49.3273 66.5763 50.5503 66.2179 51.8936 66.0023C52.9767 62.6513 55.2638 59.9338 58.2833 57.9417C62.7797 54.9506 67.7617 54.7832 72.6022 56.2595C73.8013 54.6406 75.3121 53.2472 77.2492 52.2879C82.1606 49.8624 87.6699 51.2638 92.4426 53.529C96.1365 51.3962 100.424 50.8379 104.752 51.3427C109.459 51.2842 112.127 55.6865 113.646 59.5926C115.327 63.91 116.41 69.037 117.191 73.8069C121.822 73.8742 125.176 78.0043 127.275 82.0928C132.223 86.1615 135.817 92.8954 138.371 98.6127C140.007 101.933 138.588 107.639 137.774 110.947C137.375 112.502 136.97 114.123 136.506 115.673L137.267 116.07C137.46 111.516 138.814 107.327 141.208 103.361C140.698 101.595 140.193 99.763 139.617 97.9913C137.271 92.1595 137.611 85.8965 143.299 82.1469C145.989 80.1265 149.078 78.8689 152.305 79.0804C153.922 77.2324 155.898 75.8129 158.159 74.9476C155.656 64.0023 153.56 52.9595 151.595 41.928L151.497 41.5222L151.465 41.122C151.178 33.6791 153.392 25.6565 161.797 24.1941C163.218 23.8526 164.687 23.7141 166.188 23.9757C177.811 25.9032 180.629 47.8044 181.772 59.1625C183.005 54.8309 184.179 50.428 185.221 46.0137C187.266 37.6455 191.635 29.2122 200.863 27.4231C204.192 26.4511 207.753 26.6252 210.531 28.9837C215.282 33.0354 214.789 41.0736 213.908 46.6939L213.792 47.28L213.609 47.8604C211.208 54.211 208.867 60.633 206.466 66.9836L206.378 67.2409L206.224 67.4926C203.744 72.4455 202.627 78.5091 202.086 84.0263C202.165 86.9474 202.437 89.9513 202.917 92.8407C206.348 94.5269 208.866 97.5917 210.468 101.306Z" fill="#001339"/>
<path fill-rule="evenodd" clip-rule="evenodd" d="M96.1393 149.887C95.0564 147.078 92.3898 144.199 88.1509 141.119C90.51 142.183 92.3545 143.07 93.5584 143.704C94.9067 139.581 96.0987 136.504 97.1514 134.277C95.2785 139.878 94.8181 145.998 96.1393 149.887ZM95.9256 160.069C92.535 159.446 89.6817 158.737 87.3544 158.073C93.3964 173.297 105.104 188.876 122.411 204.804C123.143 201.688 123.956 199.175 124.991 197.144C127.358 199.666 129.318 202.285 130.807 204.997C129.998 185.918 127.843 170.167 124.133 157.86C124.94 155.412 124.615 153.795 123.082 153.133C114.701 155.856 108.988 156.821 105.943 156.029C113.562 153.704 118.556 151.087 120.854 148.238C123.763 144.448 125.004 141.575 124.522 139.48C124.859 136.33 124.631 133.594 123.909 131.214C127.886 123.476 130.549 115.624 131.891 107.725C130.693 107.026 129.746 106.481 129.046 106.156C131.258 106.611 132.436 106.779 132.436 106.779C133.101 105.975 133.252 104.994 132.828 103.766C131.115 102.89 130.288 102.487 130.288 102.487C132.195 102.652 133.116 102.731 133.116 102.731C133.251 101.153 132.822 99.9898 131.875 99.4447C128.653 99.1675 127.01 99.0261 127.01 99.0261C129.85 98.3432 131.265 98.0676 131.265 98.0676C128.781 92.2902 125.706 88.78 121.983 87.3999C119.252 89.8806 117.884 91.1538 117.884 91.1538C120.414 87.9273 121.619 86.2426 121.493 86.1655C121.298 85.3539 120.663 85.0344 119.725 85.1524C117.852 86.912 116.852 87.7533 116.852 87.7533C118.367 84.7706 119.161 83.2493 119.161 83.2493C118.594 82.1407 117.713 81.6013 116.452 81.6253C114.757 84.3937 113.372 85.8642 112.232 86.031C104.886 86.7236 100.526 85.8186 99.2893 83.2614C98.7937 82.0928 98.6326 80.8867 98.8002 79.7089C97.0193 79.6219 96.3463 81.2861 96.7039 84.8273C100.265 93.4792 106.173 97.1669 114.43 95.8904C113.073 97.0321 112.365 97.5672 112.365 97.5672C113.501 98.9897 115.148 99.86 117.361 100.315C115.732 100.771 114.017 100.69 112.144 100.131C113.573 102.771 115.793 104.684 118.684 105.728C116.003 106.093 113.619 106.087 111.538 105.643C101.928 112.632 97.0302 120.291 96.8377 128.686C95.5385 120.692 99.4447 113.014 108.765 105.537C104.968 105.011 101.88 103.951 99.4895 102.487C95.6153 104.405 92.1455 104.703 89.0088 103.439C83.9468 106.845 79.3459 107.973 75.1946 106.953C73.8845 109.093 72.2366 110.54 70.1079 111.417C79.5548 117.86 85.3709 123.394 87.5503 128.085C77.3895 116.084 67.5267 111.394 57.9077 113.878C56.3594 114.937 55.5853 115.466 55.5853 115.466C58.6138 120.297 61.7328 124.076 65.0385 125.685C59.6777 124.097 54.9341 119.185 52.423 117.578C52.0318 124.433 57.1409 132.026 67.8158 140.363C78.391 149.088 87.821 155.728 95.9256 160.069Z" fill="#A3D1F7"/>
<path fill-rule="evenodd" clip-rule="evenodd" d="M56.1801 77.7641C54.1058 78.7779 51.3366 79.4006 47.8612 79.7639C51.1259 80.3098 54.2408 79.5181 56.1801 77.7641ZM56.3348 81.3541C52.2216 84.5106 48.5015 86.1775 45.1257 86.152C47.4939 94.0389 50.3526 100.842 53.6363 106.556C59.1894 112.068 63.7974 112.398 67.5317 107.487C65.4313 108.034 63.2878 108.314 61.1669 108.33C64.3532 107.478 66.5589 106.476 67.8499 105.328C67.869 104.336 67.6626 103.656 67.302 103.228C63.6647 104.703 60.5554 105.429 57.8371 105.46C71.2477 101.249 65.5596 94.9974 60.1686 82.2139C57.891 73.275 54.7303 70.751 50.8723 74.7905C50.6715 74.0447 50.574 73.6389 50.574 73.6389C46.897 75.5744 45.1189 78.5344 45.2453 82.4531C47.3789 83.829 51.1117 83.554 56.3348 81.3541Z" fill="#A3D1F7"/>
<path fill-rule="evenodd" clip-rule="evenodd" d="M61.363 68.3401C64.4644 68.4745 66.8992 67.8892 68.673 66.5185C65.947 67.4099 63.5065 68.0609 61.363 68.3401ZM59.9567 71.5971C64.7506 72.0758 68.3597 70.9292 70.784 68.1573C67.8416 70.0236 64.2325 71.1702 59.9567 71.5971ZM73.7015 73.5084C68.3391 76.5573 60.2818 77.0562 61.3457 80.8569C64.3627 91.979 67.278 98.1247 69.9659 99.217C73.2964 99.7685 76.1179 100.078 78.5562 100.221C74.2804 100.648 71.162 100.711 69.2066 100.344C71.2496 102.772 75.1549 103.571 80.8509 102.803C77.9163 103.809 75.444 104.06 73.4341 103.556C77.2128 106.597 81.5111 105.907 86.3122 101.683C86.5421 99.7823 86.0974 98.022 85.0384 96.4737C80.8489 97.4379 77.6535 97.6266 75.5121 97.1111C80.774 96.7691 83.8232 95.9717 84.6482 94.8505C79.8449 77.5474 76.403 67.5148 74.3938 64.6925C68.8387 59.9755 63.9938 60.0885 59.9965 64.977C57.0519 67.638 56.8531 72.2573 59.191 75.1078C61.4087 77.8156 70.7442 74.7773 73.7015 73.5084Z" fill="#A3D1F7"/>
<path fill-rule="evenodd" clip-rule="evenodd" d="M79.7288 63.4964C82.6465 62.6877 84.9385 62.2225 86.5334 62.1611C84.4465 61.7828 82.1545 62.2479 79.7288 63.4964ZM79.3393 65.7148C82.9858 64.9026 85.8752 64.4226 87.9303 64.4008C85.3174 63.9772 82.428 64.4572 79.3393 65.7148ZM79.906 72.9831C82.9188 85.6944 85.1724 93.3728 86.787 96.1611C89.3999 96.5847 92.1182 96.5536 94.8591 96.2596C91.1412 97.1319 88.4547 97.5631 86.6081 97.4704C87.3793 100.054 88.427 101.733 89.8939 102.39C95.2464 100.996 98.5027 98.5602 99.6686 95.0176C99.3703 93.866 99.2183 93.323 99.2183 93.323C96.4979 94.1487 94.02 94.4653 91.9048 94.4158C95.4085 93.7238 97.586 93.0501 98.4315 92.4605C94.5526 85.9669 93.645 81.1199 95.7801 77.8595C94.3451 71.4437 93.6305 68.203 93.6305 68.203C92.5342 60.1605 88.8065 56.5281 82.513 57.3112C79.8209 57.8081 75.0933 61.1767 76.1481 64.3142C77.4261 67.9346 78.4773 70.3433 79.373 71.4801C84.9262 70.832 88.43 70.1399 89.8786 69.4698C86.4102 71.2908 87.945 71.158 79.906 72.9831Z" fill="#A3D1F7"/>
<path fill-rule="evenodd" clip-rule="evenodd" d="M114.959 80.502C108.941 78.8582 103.961 78.231 100.074 78.7576C99.8243 83.9686 101.669 84.8559 106.808 85.1657C111.165 85.3418 113.834 85.1079 114.959 80.502Z" fill="#DAECFC"/>
<path fill-rule="evenodd" clip-rule="evenodd" d="M97.1303 65.2592C102.415 64.6542 105.019 64.4146 105.019 64.4146C102.515 64.2654 99.8451 64.4993 97.1303 65.2592ZM103.37 62.0208C101.381 62.0483 99.2972 62.3989 97.1799 63.144C98.7451 61.8877 101.163 61.4997 103.37 62.0208ZM105.559 67.3754C100.85 69.7521 95.2002 67.6763 95.8287 70.3797C96.8416 74.7721 97.318 76.9326 97.318 76.9326C102.097 76.814 105.587 77.0481 107.783 77.7007C104.949 75.9996 102.113 75.0932 99.3513 74.8556C103.304 74.3347 106.601 75.2807 109.378 77.6392C110.825 77.7637 111.614 77.8316 111.614 77.8316C110.112 67.5685 108.086 61.1019 105.402 58.4203C102.609 57.7825 92.2581 57.223 93.4231 62.1584C93.802 63.9131 94.4792 66.8194 95.6513 67.0527C100.203 68.0405 103.507 68.1261 105.559 67.3754Z" fill="#A3D1F7"/>
<path fill-rule="evenodd" clip-rule="evenodd" d="M146.17 96.5027C147.81 102.075 148.63 104.861 148.63 104.861C149.244 106.967 149.711 108.465 149.972 109.282C150.901 110.024 151.871 110.306 152.819 110.057C152.083 110.921 151.26 111.247 150.356 110.971C151.665 113.468 153.909 114.323 157.084 113.603C159.448 113.078 160.45 111.442 160.079 108.827C158.525 109.952 157.159 110.43 156.118 110.208C158.683 108.111 160.025 106.372 160.132 105.122C158.285 97.3464 156.716 91.714 155.372 88.0879C153.338 86.3233 151.449 85.962 149.583 86.8612C147.097 88.0382 145.663 89.3058 145.347 90.6695C145.04 92.6963 145.348 94.5111 146.144 96.0368C147.87 95.9866 149.494 95.5964 151.074 94.9376C148.917 96.1429 147.348 96.6703 146.17 96.5027Z" fill="#FF0000"/>
<path fill-rule="evenodd" clip-rule="evenodd" d="M158.201 93.6958C159.796 99.7941 160.653 102.915 160.653 102.915C161.316 105.224 161.706 106.847 161.961 107.73C162.885 108.538 163.849 108.886 164.803 108.571C164.055 109.566 163.232 109.893 162.329 109.616C163.615 112.376 165.853 113.297 169.1 112.517C171.469 111.926 172.416 110.153 172.068 107.275C170.503 108.531 169.202 109.015 168.096 108.788C170.678 106.493 171.965 104.617 172.084 103.236C169.447 101.552 168.081 98.1888 169.918 93.7767C168.991 89.9216 168.062 86.8611 167.268 84.5409C165.246 82.6447 163.301 82.1463 161.49 83.1826C158.993 84.4912 157.548 85.8902 157.226 87.3197C156.968 89.5494 157.199 91.49 158.043 93.2186C159.77 93.1685 161.393 92.7783 162.984 91.9879C160.948 93.336 159.373 93.9291 158.201 93.6958Z" fill="#FF0000"/>
<path fill-rule="evenodd" clip-rule="evenodd" d="M193.777 84.3712C190.835 83.9194 187.77 82.5958 184.521 80.3292C187.505 83.3678 190.827 84.7797 193.777 84.3712ZM163.331 61.02C166.317 59.4224 169.246 58.4822 172.135 58.0022C168.239 57.8657 165.305 58.8716 163.331 61.02ZM165.266 63.1735C168.602 63.6593 171.217 63.2882 173.056 61.9231C171.076 62.6137 168.521 63.0562 165.266 63.1735ZM172.832 59.9167C170.962 60.0871 169.208 60.4659 167.633 61.059C169.529 61.3546 171.575 60.6696 172.832 59.9167ZM191.069 58.1081C194.36 59.1199 196.796 60.0581 198.438 60.9941C196.99 59.3462 194.488 58.4023 191.069 58.1081ZM191.461 61.2548C192.808 61.7681 194.149 62.3471 195.495 62.8604C194.517 61.9152 193.17 61.4019 191.461 61.2548ZM190.737 63.5107C192.311 65.2358 193.975 65.9088 195.795 65.5356C194.629 65.2365 192.964 64.5635 190.737 63.5107ZM195.872 93.8905C189.355 94.1908 195.155 87.6028 170.796 91.2691C170.166 89.3603 169.781 87.6714 169.648 86.1365C173 84.9016 175.583 84.1303 177.392 83.8886C173.776 83.5774 171.172 83.817 169.515 84.6017C168.131 83.754 167.175 82.5458 166.582 80.9714C163.429 67.5856 161.351 57.869 160.293 51.6845C162.178 49.7934 163.924 48.7514 165.524 48.6242C163.069 48.6778 161.243 49.1168 159.98 49.9354C158.906 43.9481 158.366 40.9874 158.366 40.9874C158.229 34.882 159.832 31.642 163.176 31.2674C165.985 30.1844 168.428 32.5804 170.577 38.3953C171.695 42.3331 172.255 44.302 172.255 44.302C169.748 44.9474 168.18 45.4747 167.405 46.0042C169.769 45.479 171.507 45.2974 172.553 45.4536C173.808 51.6552 174.642 57.3569 175.055 62.5587C176.64 74.1537 178.186 80.0491 179.759 80.2506C180.931 80.484 181.759 80.0916 182.316 79.0135C186.151 69.0772 189.298 58.6842 191.886 47.8458C194.642 48.1492 197.046 48.6873 199.171 49.3999C196.177 48.0163 193.866 47.1552 192.102 46.8709C193.863 40.2665 196.723 36.2737 200.69 34.8266C204.924 33.3365 207.417 33.6172 207.473 39.1195C207.598 47.6745 202.82 57.7945 199.428 65.6495C196.901 71.9231 195.449 78.0241 195.131 84.0241C195.558 90.618 195.872 93.8905 195.872 93.8905Z" fill="#FF0000"/>
<path fill-rule="evenodd" clip-rule="evenodd" d="M170.927 135.922C167.167 138.049 164.381 138.869 163.043 145.179C162.013 140.984 160.824 140.948 159.198 138.291C161.373 140.73 162.541 140.234 163.095 142.269C165.308 136.565 168.049 136.271 170.927 135.922ZM172.818 103.166C175.055 104.882 179.456 106.851 186.026 109.006C186.845 110.268 187.737 110.676 188.894 110.312C190.518 109.922 191.949 109.449 193.184 108.959C191.398 110.461 189.944 111.197 188.678 111.287C187.504 111.848 187.782 112.468 189.583 113.087C190.635 113.177 191.561 113.191 192.433 113.067C191.236 113.892 189.727 114.49 187.786 114.721C178.937 118.264 173.837 123.654 172.612 130.967C173.014 123.981 177.82 118.168 187.094 113.535C186.366 111.22 185.104 109.721 183.374 109.042C178.184 107.006 175.053 105.677 173.986 104.989C174.269 111.703 171.142 114.944 164.599 114.779C162.455 113.534 161.581 112.135 161.854 110.502C160.636 113.113 159.328 114.458 158.056 114.613C163.795 120.273 166.309 124.927 165.527 128.635C165.483 124.525 162.744 120.183 157.374 115.614C152.766 115.284 149.872 113.511 148.68 110.428C147.081 112.079 147.953 115.797 151.374 121.456C148.305 119.404 146.788 117.021 146.757 114.303C144.739 116.978 144.702 120.485 146.581 124.819C149.194 131.403 151.885 137.065 154.657 141.808C152.236 139.149 149.049 132.317 147.777 138.633C144.924 154.085 146.565 171.182 149.423 186.463C150.079 184.996 150.921 183.678 151.975 182.974L153.738 181.734L153.809 183.992C154.058 191.101 154.367 198.281 155.083 205.363C155.201 206.301 155.247 207.298 155.365 208.236C155.823 205.228 156.598 202.381 157.902 200.307L160.066 196.718L160.098 200.96C160.125 205.267 160.277 209.652 160.567 213.982C160.561 214.048 160.55 214.179 160.61 214.251C161.452 209.091 162.359 203.936 163.397 198.793C164.447 193.518 165.646 188.058 167.342 182.971C169.756 175.694 172.051 168.275 173.825 160.744C174.884 156.133 175.94 150.793 175.952 146.025L170.497 147.079L176.514 144.881C180.237 142.419 191.635 134.657 192.542 129.503L192.647 129.048L193.004 128.748C199.322 123.065 206.683 114.492 204.67 104.781C203.447 101.298 201.469 98.8759 197.913 98.6361L197.059 98.5626C194.976 96.595 192.57 94.5335 189.913 92.3178C189.648 93.0898 188.443 94.7744 186.227 97.4318C183.81 97.8199 180.019 97.2288 174.789 95.6528C173.751 94.6362 173.355 93.0787 173.536 90.9748C169.329 94.4543 169.127 98.3448 172.818 103.166Z" fill="#FF0000"/>
<path fill-rule="evenodd" clip-rule="evenodd" d="M188.461 92.2583C184.639 91.267 180.097 90.9424 174.9 91.2901C174.344 92.3682 174.374 93.5629 175.11 95.0172C179.55 96.5253 183.083 97.028 185.573 96.5799C187.561 95.0288 188.485 93.5188 188.461 92.2583Z" fill="#F88787"/>
<path fill-rule="evenodd" clip-rule="evenodd" d="M242.594 84.3333C248.116 83.285 250.874 82.7937 250.874 82.7937C248.249 82.5017 245.492 82.993 242.594 84.3333ZM229.257 71.5284C228.228 71.1749 227.296 71.2272 226.473 71.5538C227.322 71.6931 228.397 71.5206 229.257 71.5284ZM253.619 58.5895C252.109 57.6647 250.679 57.343 249.205 57.5473C250.611 58.132 252.255 58.2734 253.619 58.5895ZM273.205 62.6593C272.063 61.3026 270.739 60.5263 269.298 60.3361C270.474 61.2983 272.012 61.8943 273.205 62.6593ZM286.938 77.0217C285.797 75.665 284.472 74.8887 283.032 74.6985C284.207 75.6607 285.746 76.2567 286.938 77.0217ZM253.715 85.9525C257.038 85.0463 259.7 85.6728 261.831 87.8432C259.649 86.2645 256.987 85.638 253.715 85.9525ZM267.754 90.6048C271.82 92.6105 274.555 94.7004 276.023 96.88C274.574 93.7085 271.839 91.6186 267.754 90.6048ZM262.152 94.8916C264.979 97.453 267.23 99.7663 268.836 101.891C267.146 98.4344 264.9 96.0554 262.152 94.8916ZM235.751 124.611C240.97 117.841 252.945 113.374 271.754 111.084C254.39 105.815 241.52 106.827 233.011 114.109C240.572 108.6 250.753 107.29 263.618 110.185C248.252 114.029 238.967 118.794 235.751 124.611ZM248.245 128.733C239.649 130.113 233.984 133.599 231.185 139.187C231.386 133.773 230.615 128.872 228.736 124.537C231.472 128.151 232.602 131.957 232.185 136.028C236.737 130.856 242.048 128.398 248.245 128.733ZM232.185 75.2245C232.132 68.1329 231.353 62.5684 231.585 59.8727C230.715 55.3602 228.938 53.6839 227.514 53.2964C225.549 54.5845 224.688 56.8948 225.062 60.2388C226.103 60.4608 227.089 60.5456 228.01 60.6248C226.584 61.032 225.581 61.1444 225.055 61.0991C224.954 63.8061 224.953 66.1242 225.184 68.0649C226.39 67.9037 227.759 68.154 229.155 68.8702C227.308 68.7775 225.965 68.9931 225.119 69.5827C224.978 71.2264 225.002 72.4869 225.071 73.2214C227.027 73.5884 228.676 73.6641 229.953 73.4429C227.601 73.8366 225.995 74.0295 225.201 74.0274C225.232 74.4275 225.287 74.5647 225.287 74.5647C224.099 82.2119 223.793 88.0804 224.248 92.0274C226.453 91.025 228.345 90.5917 230.066 90.6073C227.789 91.6698 225.949 93.0349 224.405 94.8227C221.556 96.3659 216.319 101.81 216.051 111.855C226.207 109.284 238.597 101.541 249.718 90.8411C239.915 102.383 226.874 110.004 215.349 113.848C213.187 118.96 215.024 124.55 216.159 130.608C215.851 131.112 222.638 136.133 222.33 136.637C222.17 136.954 214.98 132.759 214.821 133.076C202.285 156.372 192.376 176.847 185.243 194.315C195.363 189.092 200.351 186.541 200.351 186.541C192.551 199.448 188.686 205.871 188.686 205.871C210.289 185.74 228.602 166.121 243.494 147.002C241.618 145.715 240.405 144.418 239.855 143.112C242.259 143.65 244.286 143.957 245.875 143.962C256.868 143.98 267.07 140.884 272.339 131.998C278.855 127.856 283.321 125.989 289.391 124.723C293.141 124.251 296.22 122.33 297.785 121.074C302.399 121.338 304.753 120.15 306.388 119.628C307.893 118.3 307.508 116.612 305.234 114.561C302.25 111.523 298.67 110.022 294.483 110.192C293.258 111.345 292.678 112.686 292.883 114.161C292.613 112.68 292.512 111.546 292.651 110.697C289.979 111.725 287.028 112.928 284.506 115.295C284.246 116.001 284.248 117.524 284.248 117.524C283.81 117.222 283.103 115.439 283.268 115.056C281.147 115.072 280.202 116.05 279.141 115.297C277.386 115.675 276.129 116.428 275.37 117.555C275.949 116.214 276.757 115.29 277.794 114.783C275.722 115.002 274.027 115.453 272.699 116.266C274.258 115.075 275.653 114.268 276.941 113.915C273.846 111.397 274.047 105.983 277.55 97.6075C278.46 95.5001 280.403 92.1569 281.294 91.0413C284.565 85.3617 286.181 83.5137 286.73 80.9778C284.591 79.6678 282.54 78.1004 282.148 77.2718C284.024 78.5592 286.503 79.7661 287.544 79.9881C292.357 73.3152 295.502 67.5585 296.45 63.4673C301.598 56.7569 301.548 52.7124 298.998 51.5656C295.799 51.0254 293.222 53.2544 291.263 58.3183C292.916 59.1229 294.032 60.0137 294.555 60.8536C293.134 59.6715 291.996 59.0437 291.075 58.9645C288.84 62.6138 286.566 66.7233 284.132 71.1503C285.751 72.3493 286.855 73.3716 287.499 74.3543C285.711 72.8095 284.458 71.9732 283.735 71.9109C279.2 76.8857 274.865 81.0828 271.811 85.7876C270.061 88.4189 266.048 88.8684 268.208 84.5503C274.423 72.3681 274.186 66.6516 274.186 66.6516C271.401 65.1534 268.687 63.5952 267.577 62.6387C270.691 64.1651 272.93 65.0863 274.162 65.3911C275.07 64.0782 276.29 62.991 276.128 61.7849C279.4 53.7871 280.69 48.7981 281.9 47.0477C286.688 37.5907 287.483 31.4331 284.213 28.6348C280.308 27.8352 277.207 31.5424 274.917 39.6908C276.374 42.0019 278.381 43.3007 281.006 43.5927C278.785 43.9977 276.6 43.2136 274.398 41.1033C272.764 45.4666 270.964 50.2131 269.065 55.3485C271.199 56.7243 272.555 57.9007 273.205 58.8177C271.554 57.2185 269.895 56.4796 268.152 56.727C266.793 58.6634 266.157 60.6619 266.168 62.8486C261.321 73.7576 257.688 79.8035 256.318 81.8713C254.474 84.8257 252.226 83.2413 253.061 80.4651C255.754 71.4902 256.475 66.1873 256.413 63.0689C257.668 60.7925 258.077 57.5822 257.713 56.4249C260.695 41.7788 259.646 34.7339 256.52 33.3389C254.602 33.3064 253.252 35.9058 252.417 41.0002C252.084 42.5611 251.944 43.4102 251.944 43.4102C253.691 43.8917 255.049 44.2735 255.876 44.6758C253.86 44.2374 252.551 44.0585 251.751 44.1221C250.21 50.4805 249.407 53.6569 249.407 53.6569C251.114 54.5986 252.444 55.3091 253.33 55.7828C251.326 55.213 249.897 54.8913 248.976 54.812C248.292 56.6077 247.844 57.9601 247.634 58.8693C250.282 60.4218 252.466 61.2059 254.258 61.1614C252.027 61.698 249.66 61.4943 247.295 60.496C246.994 62.4571 246.781 64.1609 246.662 65.5416C243.958 72.3298 241.873 79.6348 240.273 87.4453C242.105 86.9406 243.734 86.4846 245.089 86.1375C243.546 87.1308 241.817 87.9755 239.843 88.6005C237.446 93.3618 235.41 92.3918 233.925 90.4094C232.451 88.2955 233.029 79.2712 232.185 75.2245Z" fill="#FFB000"/>
<path fill-rule="evenodd" clip-rule="evenodd" d="M106.852 156.24C119.654 158.335 124.735 166.257 122.22 180.082C122.042 181.391 121.983 182.843 121.913 184.427C121.814 186.339 121.825 188.526 121.95 190.921C119.347 188.843 116.864 186.907 114.639 185.06C103.763 175.977 97.5944 169.154 96.1325 164.59C99.0855 164.911 102.692 164.559 106.953 163.534C76.2525 145.46 59.9771 132.932 57.99 126.005C62.8376 128.939 67.4865 130.333 71.8598 130.312C64.1109 124.148 60.6448 119.014 61.4728 114.78C71.2352 116.018 79.8714 120.337 87.5015 127.882C77.3406 115.881 67.4779 111.19 57.8588 113.674C56.3106 114.733 55.5364 115.263 55.5364 115.263C58.5649 120.094 61.6839 123.872 64.9897 125.482C59.6288 123.894 54.8852 118.982 52.3741 117.375C51.983 124.23 57.092 131.823 67.7669 140.16C78.4567 149.094 87.881 155.8 96.057 160.08C92.6664 159.457 89.8131 158.748 87.4858 158.084C91.1929 167.344 97.0038 176.786 104.859 186.337C108.458 190.688 112.458 195.006 116.913 199.429C118.744 201.243 120.58 202.99 122.543 204.815C123.07 202.542 123.705 200.544 124.313 198.874C124.566 198.233 124.815 197.659 125.057 197.15C125.543 197.655 126.024 198.226 126.511 198.732C128.259 200.737 129.733 202.851 130.872 205.002C130.796 202.81 130.648 200.678 130.561 198.617C130.273 193.492 129.831 188.619 129.301 184.003C128.172 174.037 126.469 165.346 124.204 157.799C125.011 155.352 124.686 153.734 123.154 153.072C115.518 155.595 110.063 156.649 106.852 156.24Z" fill="#7CBCF4"/>
<path fill-rule="evenodd" clip-rule="evenodd" d="M116.858 87.687C118.373 84.7044 119.166 83.183 119.166 83.183C118.599 82.0745 117.719 81.535 116.458 81.559C118.397 82.1232 118.49 84.1183 116.858 87.687Z" fill="#7CBCF4"/>
<path fill-rule="evenodd" clip-rule="evenodd" d="M117.89 91.0883C120.419 87.8618 121.624 86.1771 121.498 86.1C121.303 85.2884 120.668 84.9689 119.731 85.0869C117.857 86.8465 116.858 87.6878 116.858 87.6878C121.146 84.8112 121.444 85.9629 117.89 91.0883Z" fill="#7CBCF4"/>
<path fill-rule="evenodd" clip-rule="evenodd" d="M127.01 99.0261C129.851 98.3432 131.265 98.0675 131.265 98.0675C128.782 92.2902 125.706 88.78 121.983 87.3999C129.449 93.0099 131.104 96.8615 127.01 99.0261Z" fill="#7CBCF4"/>
<path fill-rule="evenodd" clip-rule="evenodd" d="M129.117 106.096C130.765 110.807 128.112 119.322 121.223 131.645C122.88 140.862 117.811 148.97 106.01 156.035C113.628 153.71 118.622 151.093 120.92 148.244C123.83 144.454 125.07 141.58 124.588 139.485C124.926 136.335 124.697 133.6 123.975 131.219C127.953 123.481 130.615 115.63 131.957 107.731C130.693 107.026 129.747 106.481 129.117 106.096Z" fill="#7CBCF4"/>
<path fill-rule="evenodd" clip-rule="evenodd" d="M129.116 106.098C131.33 106.553 132.508 106.721 132.508 106.721C133.174 105.917 133.325 104.936 132.9 103.706C131.187 102.83 130.36 102.427 130.36 102.427C131.428 104.64 130.992 105.862 129.116 106.098Z" fill="#7CBCF4"/>
<path fill-rule="evenodd" clip-rule="evenodd" d="M127.01 99.0254C129.24 99.2835 130.338 100.372 130.289 102.487C132.195 102.651 133.116 102.73 133.116 102.73C133.252 101.152 132.822 99.9891 131.875 99.444C128.654 99.1668 127.01 99.0254 127.01 99.0254Z" fill="#7CBCF4"/>
<path fill-rule="evenodd" clip-rule="evenodd" d="M87.502 127.882C85.3029 120.341 82.8456 115.03 80.1904 112.019C84.254 110.978 87.277 109.715 89.2537 108.295C93.7903 108.686 97.463 108.339 100.206 107.251C93.0698 111.67 91.9328 118.726 96.7894 128.483C95.4902 120.489 99.3964 112.811 108.717 105.334C104.92 104.808 101.832 103.748 99.4413 102.283C95.567 104.202 92.0973 104.5 88.9605 103.236C83.8985 106.642 79.2976 107.77 75.1463 106.75C73.8362 108.889 72.1883 110.337 70.0596 111.214C79.5122 117.591 85.3226 123.191 87.502 127.882Z" fill="#7CBCF4"/>
<path fill-rule="evenodd" clip-rule="evenodd" d="M116.576 92.4972C108.79 96 102.916 93.4413 98.8182 84.8756C102.785 87.2702 107.261 87.5892 112.236 85.964C104.891 86.6566 100.531 85.7516 99.294 83.1945C98.7985 82.0258 98.6373 80.8197 98.8049 79.6419C97.0241 79.5549 96.351 81.2191 96.7086 84.7603C100.269 93.4122 106.178 97.0999 114.435 95.8234C113.078 96.9651 112.37 97.5002 112.37 97.5002C113.506 98.9227 115.153 99.793 117.366 100.248C115.737 100.704 114.022 100.623 112.149 100.064C113.578 102.704 115.798 104.617 118.688 105.661C116.007 106.026 113.624 106.02 111.542 105.576C108.226 107.94 105.495 110.421 103.285 113.012C106.493 110.374 109.327 108.233 111.72 106.585C114.996 106.999 119.018 107.213 123.666 107.083C119.686 105.614 116.611 103.628 114.437 101.189C116.787 101.589 119.127 101.327 121.453 100.468C117.74 99.7507 115.243 98.741 113.839 97.3617C115.233 96.5544 116.163 94.9786 116.576 92.4972Z" fill="#7CBCF4"/>
<path fill-rule="evenodd" clip-rule="evenodd" d="M47.8607 79.7621C51.3362 79.3988 54.1054 78.776 56.1796 77.7623C54.2404 79.5162 51.1255 80.3079 47.8607 79.7621ZM47.8607 79.7621C50.1654 80.689 53.3665 80.4346 57.327 79.0533C57.327 79.0533 59.037 83.042 62.3913 91.0138C64.5587 98.1549 62.1019 102.845 55.0866 105.089C56.1421 105.909 58.2177 106.418 61.165 106.805C58.2587 107.482 55.749 107.398 53.5758 106.483C59.1288 111.994 63.7368 112.325 67.4711 107.413C65.3707 107.961 63.2272 108.24 61.1063 108.257C64.2926 107.405 66.4984 106.402 67.7893 105.255C67.8028 104.329 67.602 103.583 67.2415 103.155C63.6041 104.63 60.4949 105.356 57.7766 105.387C71.1871 101.176 65.4991 94.9241 60.1081 82.1406C57.8305 73.2017 54.6697 70.6778 50.8117 74.7173C50.611 73.9714 50.5134 73.5656 50.5134 73.5656C46.8364 75.5012 45.0583 78.4612 45.1848 82.3799C46.5048 78.5857 48.1061 76.1403 50.0602 74.9838C50.0602 74.9838 50.1464 75.5211 50.3246 76.5299C51.8467 75.005 53.53 74.6862 55.3801 75.5078C55.4302 77.2342 52.9219 78.6742 47.8607 79.7621Z" fill="#7CBCF4"/>
<path fill-rule="evenodd" clip-rule="evenodd" d="M83.1307 98.6295C80.5793 99.8009 75.832 100.32 69.8398 99.1417C69.9055 99.1473 69.9656 99.2187 70.0314 99.2244C73.3619 99.7759 76.1833 100.085 78.6217 100.229C74.3459 100.655 71.2275 100.718 69.2721 100.351C71.3151 102.779 75.2204 103.579 80.9164 102.81C77.9818 103.816 75.5095 104.067 73.4996 103.563C77.2839 106.538 81.5766 105.914 86.3777 101.691C86.6075 99.7897 86.1629 98.0294 85.1039 96.4811C80.9144 97.4453 77.7189 97.6339 75.5776 97.1185C78.4944 98.628 80.9702 99.1059 83.1307 98.6295Z" fill="#7CBCF4"/>
<path fill-rule="evenodd" clip-rule="evenodd" d="M75.6431 97.1218C80.905 96.7798 83.9542 95.9824 84.7792 94.8612C79.9759 77.5581 76.534 67.5255 74.5248 64.7033C68.9696 59.9862 64.1248 60.0992 60.1275 64.9878C64.5538 63.5803 67.8207 63.3316 69.9338 64.1757C68.3686 65.432 65.5315 66.8437 61.4282 68.3452C63.5774 68.0002 66.0122 67.4149 68.7383 66.5235C67.3158 67.6596 65.4127 68.2244 63.149 68.3608C66.4703 68.2492 69.2338 67.6922 71.4509 66.5583C68.0631 68.9823 64.2772 70.6436 60.022 71.6021C64.3034 71.1095 67.9068 70.0286 70.8492 68.1623C69.2274 70.076 67.0103 71.21 64.198 71.5641C68.0566 71.3662 71.5059 70.537 74.5403 69.1423C73.8707 71.5353 71.1686 73.6873 66.62 75.7465C69.5207 75.1351 72.3895 74.1235 73.8325 73.5191C72.5097 74.2663 71.0725 74.805 69.6352 75.3436C74.1195 74.8022 76.3344 74.463 76.3344 74.463C82.0916 87.6091 81.8411 95.1383 75.6431 97.1218Z" fill="#7CBCF4"/>
<path fill-rule="evenodd" clip-rule="evenodd" d="M94.7985 96.1885C91.0806 97.0608 88.3941 97.492 86.5475 97.3993C87.3188 99.9826 88.3664 101.662 89.8334 102.318C95.1858 100.924 98.4422 98.4891 99.6081 94.9465C99.3097 93.7949 99.1578 93.2519 99.1578 93.2519C96.4373 94.0776 93.9594 94.3942 91.8442 94.3447C95.3479 93.6526 97.5254 92.979 98.3709 92.3894C94.492 85.8958 93.5844 81.0488 95.7195 77.7884C94.2846 71.3726 93.5699 68.1319 93.5699 68.1319C92.4736 60.0894 88.7459 56.457 82.4525 57.2401C81.5808 57.3638 80.5493 57.8049 79.5666 58.4489C83.9738 58.0333 87.1672 58.6393 89.2895 60.1466C85.2824 60.5304 82.0734 61.6452 79.6626 63.491C84.3724 62.6378 88.0883 62.5602 90.8101 63.258C87.9977 63.6121 85.5799 64.0002 83.4852 64.4823C85.0313 64.2179 86.4891 64.2109 87.8641 64.3954C85.8033 64.483 82.9853 64.9029 79.273 65.7094C85.8012 65.2777 90.0203 65.5082 91.9192 66.5327C89.8371 68.4068 87.3288 69.8468 84.6027 70.7382C87.1577 70.2957 88.9124 69.9168 89.8124 69.4644C88.4896 70.2116 87.924 70.6266 87.2326 70.9645C89.7367 71.1138 91.6716 70.9491 92.9717 70.4649C92.826 73.6978 93.06 76.3673 93.542 78.4621C91.9944 83.3627 92.3555 87.6328 94.6799 91.4094C93.355 92.9513 91.6151 93.9275 89.5975 94.2838C91.4419 95.1711 93.7374 95.4349 96.4783 95.1408C91.4829 96.2344 87.9869 96.066 85.9361 94.4986C86.2082 95.1844 86.4917 95.7387 86.7208 96.1558C89.4051 96.5192 92.052 96.5483 94.7985 96.1885ZM79.7284 63.4967C82.2198 62.2539 84.446 61.7831 86.5329 62.1614C84.8723 62.2172 82.646 62.688 79.7284 63.4967Z" fill="#7CBCF4"/>
<path fill-rule="evenodd" clip-rule="evenodd" d="M109.224 75.5716C107.042 73.9929 103.388 73.3473 98.1977 73.6293C97.5968 72.9152 97.3041 71.6978 97.1281 69.8943C98.6233 70.2217 101.41 69.4017 105.349 67.4888C100.724 69.6739 95.1996 67.6751 95.828 70.3786C96.841 74.771 97.3174 76.9315 97.3174 76.9315C102.096 76.8128 105.587 77.0469 107.783 77.6995C104.948 75.9985 102.112 75.0921 99.3507 74.8545C103.303 74.3335 106.6 75.2795 109.377 77.6381C110.824 77.7625 111.613 77.8304 111.613 77.8304C110.112 67.5674 108.085 61.1007 105.401 58.4191C104.492 58.2084 102.854 58.0012 101.002 57.9743C102.14 58.6021 103.135 59.3501 104.18 60.301C102.782 60.3795 101.005 61.0213 98.9848 62.1722C98.5677 62.4013 98.1506 62.6303 97.7278 62.9251C101.012 62.4791 103.784 62.5852 106.035 63.375C102.736 63.2236 99.8296 63.9008 97.2612 65.2694C99.8027 65.753 103.13 65.5757 107.242 64.7373C108.467 65.9024 109.153 69.4719 109.224 75.5716Z" fill="#7CBCF4"/>
<path fill-rule="evenodd" clip-rule="evenodd" d="M151.702 176.924C150.286 171.834 149.421 161.096 149.109 144.709C149.398 141.356 151.264 140.457 154.641 142.006C152.22 139.347 149.033 132.516 147.761 138.831C145.047 153.434 146.373 169.577 148.959 184.172C149.088 184.978 149.278 185.855 149.407 186.661C149.815 185.769 150.283 184.948 150.806 184.265C151.174 183.833 151.542 183.401 151.965 183.106L153.728 181.867L153.798 184.125C153.793 184.191 153.781 184.322 153.841 184.394C154.014 189.31 154.248 194.297 154.552 199.225C154.705 201.291 154.853 203.424 155.072 205.496C155.19 206.433 155.237 207.431 155.355 208.368C155.812 205.361 156.587 202.513 157.892 200.44L158.431 199.559L160.055 196.85L160.075 199.7L160.088 201.092C160.114 205.4 160.267 209.784 160.557 214.114C160.551 214.18 160.54 214.312 160.6 214.383C161.347 209.546 162.22 204.786 163.165 199.966C163.259 199.643 163.293 199.249 163.387 198.925C164.298 194.5 165.291 189.883 166.591 185.557C166.861 184.719 167.061 183.941 167.326 183.169C169.74 175.893 172.035 168.473 173.809 160.943C174.868 156.331 175.924 150.991 175.936 146.223L170.481 147.277L176.498 145.079C180.221 142.618 191.619 134.855 192.526 129.701L192.631 129.246L192.988 128.946C199.306 123.264 206.667 114.69 204.654 104.979C203.431 101.496 201.453 99.0741 197.897 98.8344L197.043 98.7608C194.96 96.7933 192.554 94.7317 189.897 92.516C189.897 92.516 192.52 95.1262 197.773 100.281C205.972 104.298 203.468 114.15 190.317 129.975C183.136 138.762 174.252 145.018 163.736 148.684C163.736 148.684 165.912 148.805 170.202 148.975C176.443 147.26 174.723 157.246 165.124 178.741C165.124 178.741 165.053 176.483 164.978 171.972C163.791 174.983 162.3 179.227 160.565 184.773C159.669 187.478 158.746 190.512 157.734 193.803C157.363 191.188 157.235 188.063 157.277 184.49C157.366 178.073 158.05 170.118 159.337 160.558C157.011 165.26 154.492 170.673 151.702 176.924Z" fill="#9A0000"/>
<path fill-rule="evenodd" clip-rule="evenodd" d="M148.604 110.554C147.004 112.205 147.877 115.923 151.298 121.582C148.229 119.53 146.712 117.147 146.681 114.429C144.662 117.104 144.625 120.611 146.504 124.945C146.716 125.56 146.994 126.18 147.212 126.728C146.608 122.967 146.478 120.638 146.885 119.746C149.415 122.679 151.941 124.883 154.397 126.353C152.772 121.378 152.172 118.346 152.717 117.399C157.431 117.275 161.679 121.019 165.461 128.63C165.418 124.52 162.678 120.177 157.309 115.609C152.69 115.41 149.795 113.637 148.604 110.554Z" fill="#9A0000"/>
<path fill-rule="evenodd" clip-rule="evenodd" d="M88.1504 141.119C90.5095 142.183 92.354 143.07 93.5579 143.704C94.9062 139.581 96.0983 136.504 97.151 134.277C95.5376 139.172 94.9365 144.617 95.7975 148.467C95.6548 142.427 97.0979 135.663 99.61 128.792C96.6484 131.65 94.4114 136.094 92.7732 142.047C91.915 141.244 90.354 140.911 88.1504 141.119Z" fill="#7CBCF4"/>
<path fill-rule="evenodd" clip-rule="evenodd" d="M183.04 112.921C173.614 117.011 170.113 123.069 172.607 131.033C173.009 124.046 177.814 118.234 187.089 113.601C186.36 111.286 185.099 109.787 183.369 109.108C178.179 107.072 175.048 105.742 173.981 105.055C174.264 111.769 171.137 115.01 164.594 114.844C162.449 113.6 161.576 112.2 161.849 110.568C160.631 113.179 159.323 114.523 158.051 114.679C159.702 116.278 161.09 117.855 162.226 119.277C161.289 117.077 160.613 115.694 160.138 115.057C160.901 114.659 161.39 114.37 161.484 114.047C164.483 117.683 168.324 117.682 172.997 114.177C174.676 111.605 175.512 110.353 175.512 110.353C178.442 110.936 180.956 111.748 183.04 112.921Z" fill="#9A0000"/>
<path fill-rule="evenodd" clip-rule="evenodd" d="M173.299 91.4174C169.263 94.448 169.121 98.4099 172.818 103.166C175.055 104.882 179.456 106.85 186.026 109.005C186.845 110.268 187.737 110.675 188.894 110.311C190.518 109.921 191.949 109.448 193.184 108.958C191.399 110.461 189.944 111.197 188.678 111.286C187.504 111.848 187.782 112.468 189.583 113.086C190.635 113.177 191.561 113.19 192.433 113.067C191.236 113.891 189.727 114.49 187.787 114.72C186.141 115.373 184.621 116.103 183.298 116.851C186.101 115.833 187.659 115.438 187.91 115.592C191.123 115.206 193.883 113.92 196.262 111.674C192.621 112.42 190.166 112.474 188.884 111.966C192.873 110.256 195.393 108.685 196.581 107.197C191.749 108.702 188.525 109.22 187.046 108.695C177.587 104.702 172.753 100.842 172.407 97.1692C176.716 98.666 181.269 98.8591 186.133 97.7543C183.716 98.1423 179.925 97.5512 174.695 95.9752C173.58 95.0844 173.184 93.527 173.299 91.4174Z" fill="#9A0000"/>
<path fill-rule="evenodd" clip-rule="evenodd" d="M162.929 91.8501C159.937 91.99 157.998 91.4257 157.18 90.1631C157.292 91.1663 157.607 92.1207 158.06 93.0207C159.715 93.0306 161.344 92.5747 162.929 91.8501Z" fill="#9A0000"/>
<path fill-rule="evenodd" clip-rule="evenodd" d="M162.93 91.8502C160.948 93.3355 159.373 93.9286 158.201 93.6953C159.796 99.7936 160.653 102.914 160.653 102.914C161.316 105.223 161.706 106.846 161.961 107.729C162.879 108.603 163.848 108.885 164.803 108.57C164.055 109.565 163.232 109.892 162.329 109.616C163.614 112.376 165.853 113.297 169.1 112.516C171.469 111.925 172.416 110.152 172.068 107.274C170.502 108.531 169.202 109.015 168.096 108.787C170.678 106.492 171.965 104.616 172.084 103.235C169.447 101.551 168.081 98.1883 169.917 93.7762C168.991 89.9211 168.062 86.8606 167.268 84.5404C166.35 83.6665 165.469 83.1271 164.565 82.8506C166.9 88.8139 167.756 92.7291 166.934 94.5792C166.289 98.2328 167.152 101.288 169.649 103.821C168.634 106.383 167.407 108.33 165.979 109.532C166.16 107.428 166.444 105.664 166.837 104.175C165.636 106.588 164.176 107.39 162.452 106.646C160.633 100.064 159.712 96.1435 159.754 94.8887C161.323 94.3613 162.4 93.3942 162.93 91.8502Z" fill="#9A0000"/>
<path fill-rule="evenodd" clip-rule="evenodd" d="M160.012 108.82C158.458 109.945 157.092 110.423 156.052 110.201C158.616 108.104 159.958 106.365 160.066 105.116C158.218 97.3396 156.649 91.7071 155.306 88.0811C158.427 101.067 158.04 108.65 154.274 110.843C154.587 108.751 154.743 107.704 154.743 107.704C153.014 108.549 151.677 108.699 150.802 108.094C149.002 102.839 148.047 99.3124 147.942 97.4489C150.702 96.163 152.333 94.9124 152.693 93.8173C148.969 94.7554 146.531 94.6118 145.246 93.3753C145.364 94.3127 145.685 95.2014 146.083 95.9642C147.809 95.914 149.433 95.5238 151.013 94.865C149.042 96.2188 147.473 96.7461 146.229 96.5729C147.869 102.145 148.689 104.931 148.689 104.931C149.303 107.037 149.77 108.535 150.031 109.352C150.961 110.094 151.93 110.377 152.879 110.127C152.142 110.991 151.319 111.317 150.416 111.041C151.724 113.538 153.969 114.394 157.144 113.673C159.387 113.005 160.383 111.435 160.012 108.82Z" fill="#9A0000"/>
<path fill-rule="evenodd" clip-rule="evenodd" d="M196.104 38.0739C198.932 35.999 201.684 35.5735 204.295 36.7917C207.657 37.7433 206.381 45.6479 200.346 60.3625C196.92 58.6105 193.809 57.813 191.074 58.0412C194.359 59.1188 197.008 60.6713 199.007 62.8304C195.668 61.6158 193.132 61.0664 191.4 61.1823C192.63 62.2817 194.906 63.5373 198.229 64.9492C196.24 64.9767 193.764 64.4987 190.742 63.4439C191.535 65.7641 193.68 67.0085 197.236 67.2482C196.389 68.6324 195.093 73.6872 193.474 82.4896C192.18 82.908 189.195 82.1876 184.526 80.2624C185.21 82.3083 187.836 84.1239 192.528 85.7861C192.528 85.7861 192.541 87.1781 192.566 89.9621C190.264 88.2406 183.114 87.4267 171.244 87.5975C171.877 86.3935 173.974 85.1168 177.397 83.8217C175.588 84.0635 173.01 84.7689 169.653 86.0697C169.72 87.5988 170.105 89.2878 170.801 91.2023C195.159 87.5359 189.36 94.124 195.877 93.8237C195.877 93.8237 195.562 90.5511 195.005 83.9459C195.382 78.0173 196.769 71.9106 199.301 65.5714C202.693 57.7164 207.406 47.5906 207.347 39.0413C207.285 33.6048 204.863 33.2639 200.563 34.7484C198.911 35.4674 197.429 36.532 196.104 38.0739ZM184.52 80.3281C187.769 82.5947 190.829 83.984 193.776 84.3701C190.827 84.7786 187.504 83.3667 184.52 80.3281ZM190.736 63.5096C192.898 64.5567 194.628 65.2354 195.794 65.5345C194.034 65.9791 192.304 65.3004 190.736 63.5096ZM191.46 61.2537C193.169 61.4008 194.516 61.9141 195.495 62.8593C194.148 62.346 192.807 61.767 191.46 61.2537ZM191.068 58.107C194.487 58.4012 196.923 59.3394 198.437 60.993C196.795 60.057 194.359 59.1187 191.068 58.107Z" fill="#9A0000"/>
<path fill-rule="evenodd" clip-rule="evenodd" d="M190.724 52.1177C191.493 49.3358 194.285 48.45 199.039 49.389C196.915 48.6763 194.51 48.1383 191.754 47.8349C191.433 49.2644 191.111 50.6938 190.724 52.1177Z" fill="#9A0000"/>
<path fill-rule="evenodd" clip-rule="evenodd" d="M182.25 79.0085C181.694 80.0866 180.865 80.4789 179.693 80.2456C178.515 80.078 177.346 76.7319 176.119 70.2017C178.09 87.3272 181.032 87.779 184.944 71.5571C184.066 74.0647 183.188 76.5723 182.25 79.0085Z" fill="#9A0000"/>
<path fill-rule="evenodd" clip-rule="evenodd" d="M163.561 62.9608C162.167 57.6083 161.541 54.1103 161.682 52.4666C162.613 50.8908 164.315 49.5801 166.778 48.6661C163.728 47.9399 161.492 47.7476 160.138 48.0947C159.033 43.2307 158.589 39.1522 158.74 35.8535C158.424 37.2173 158.277 38.9267 158.299 40.9819C158.299 40.9819 158.839 43.9426 159.913 49.9299C161.176 49.1113 163.002 48.6723 165.457 48.6187C163.923 48.7515 162.177 49.7936 160.227 51.679C161.284 57.8635 163.357 67.6459 166.516 80.9659C167.109 82.5403 168.059 83.8143 169.449 84.5962C171.106 83.8115 173.775 83.5776 177.326 83.8831C169.192 82.1897 164.716 75.7109 163.848 64.244C166.835 64.1698 168.298 64.097 168.298 64.097C165.182 63.3652 163.561 62.9608 163.561 62.9608Z" fill="#9A0000"/>
<path fill-rule="evenodd" clip-rule="evenodd" d="M172.376 55.9687C167.93 56.8445 164.938 58.5079 163.397 61.0247C166.383 59.427 169.312 58.4868 172.201 58.0069C168.305 57.8703 165.37 58.8763 163.397 61.0247C167.078 59.818 169.781 59.1896 171.43 59.2653C169.724 59.847 168.479 60.4684 167.633 61.058C169.208 60.4649 170.962 60.086 172.832 59.9157C171.64 60.6742 169.731 61.3048 167.962 61.0863C169.857 61.3819 171.649 61.3374 173.201 61.0073C170.518 62.1673 167.875 62.8671 165.266 63.1725C168.602 63.6582 171.217 63.2872 173.056 61.9221C171.07 62.6785 168.455 63.0495 165.266 63.1725C168.459 63.7784 171.249 63.6873 173.635 62.8991C174.233 70.5676 175.458 75.5743 177.304 77.9851C177.659 78.4793 178.091 78.8476 178.468 79.0788C177.274 76.7903 176.089 71.3234 174.918 62.6121C174.504 57.4103 173.599 51.7687 172.416 45.507C171.369 45.3508 169.631 45.5324 167.268 46.0576C168.037 45.5939 169.677 45.0064 172.117 44.3554C172.117 44.3554 171.558 42.3865 170.44 38.4487C168.291 32.6338 165.782 30.2322 163.039 31.3208C168.325 36.081 170.178 39.9495 168.609 42.795C166.224 45.1067 165.064 46.2654 165.064 46.2654C168.358 46.4825 170.553 47.1351 171.652 48.2232C172.553 51.6124 172.792 54.2162 172.376 55.9687Z" fill="#9A0000"/>
<path fill-rule="evenodd" clip-rule="evenodd" d="M112.824 81.4452C105.105 82.6355 102.274 81.6634 104.327 78.5945C102.809 78.5301 101.417 78.5428 100.074 78.7584C99.8239 83.9694 101.668 84.8567 106.814 85.1008C111.164 85.3427 113.834 85.1087 115.03 80.4428C112.872 83.9662 109.5 84.6696 104.908 82.6186C106.474 82.8858 109.089 82.5147 112.824 81.4452Z" fill="#CDDEF5"/>
<path fill-rule="evenodd" clip-rule="evenodd" d="M184.067 94.0675C175.014 93.8184 173.839 92.8562 180.671 91.1922C178.825 91.0995 176.896 91.1985 174.835 91.2861C174.278 92.3642 174.308 93.559 175.044 95.0132C179.484 96.5213 183.018 97.024 185.507 96.5759C187.501 94.9591 188.491 93.4547 188.401 92.1885C186.944 96.0372 183.698 96.8176 178.657 94.5955C178.717 94.6669 180.52 94.4909 184.067 94.0675Z" fill="#F37575"/>
<path fill-rule="evenodd" clip-rule="evenodd" d="M210.872 172.809C210.872 172.809 205.747 175.414 195.496 180.626C195.496 180.626 201.902 166.208 214.711 137.439C216.107 135.837 218.453 135.509 221.75 136.455C219.9 135.633 215.107 132.836 214.952 133.088C203.678 154.041 194.591 172.666 187.631 188.891C186.809 190.741 186.059 192.531 185.375 194.327C188.629 192.686 191.335 191.263 193.552 190.129C198.194 187.747 200.549 186.558 200.549 186.558C199.547 188.194 198.622 189.704 197.769 191.154C193.822 197.769 191.13 202.108 189.814 204.313C189.192 205.385 188.884 205.888 188.884 205.888C189.389 205.402 189.895 204.916 190.466 204.435C194.719 200.429 198.834 196.478 202.884 192.522C218.522 177.044 232.149 161.856 243.757 147.025C241.881 145.738 240.668 144.441 240.118 143.135C242.522 143.673 244.549 143.98 246.138 143.985C257.132 144.003 267.333 140.907 272.602 132.021C279.118 127.88 283.584 126.012 289.654 124.746C293.404 124.274 296.483 122.353 298.049 121.097C302.662 121.361 305.017 120.173 306.651 119.651C307.799 118.624 307.841 117.369 306.771 115.952C307.006 120.145 303.234 120.881 295.388 118.152C295.388 118.152 295.703 119.107 296.394 121.087C296.394 121.087 294.353 121.706 290.333 123.016C286.848 122.716 280.879 125.117 272.569 130.098C272.569 130.098 271.468 129.804 269.261 129.283C270.623 134.236 266.996 137.898 258.386 140.203C251.579 142.333 242.213 142.653 230.418 141.175C232.886 142.513 235.829 144.488 239.241 147.167C240.001 149.881 228.436 162.663 204.612 185.517C204.421 185.434 206.569 181.248 210.872 172.809Z" fill="#C68800"/>
<path fill-rule="evenodd" clip-rule="evenodd" d="M163.03 142.263C165.309 136.565 168.05 136.271 170.928 135.922C167.168 138.049 164.382 138.869 163.044 145.179C164.909 140.438 169.265 136.772 176.177 134.188C169.582 133.091 165.099 135.156 162.806 140.257C162.425 139.297 161.221 138.663 159.205 138.225C161.314 140.658 162.477 140.229 163.03 142.263Z" fill="#9A0000"/>
<path fill-rule="evenodd" clip-rule="evenodd" d="M233.831 131.532C233.814 129.411 232.16 127.083 228.736 124.536C231.472 128.15 232.602 131.956 232.185 136.027C236.737 130.854 242.043 128.463 248.246 128.732C239.649 130.112 233.984 133.598 231.185 139.186C234.639 134.449 242.47 130.421 254.755 126.974C245.305 125.962 238.352 127.483 233.831 131.532Z" fill="#C68800"/>
<path fill-rule="evenodd" clip-rule="evenodd" d="M227.515 53.2966C225.549 54.5846 224.688 56.895 225.063 60.2389C226.103 60.4609 227.09 60.5458 228.01 60.625C226.584 61.0322 225.581 61.1445 225.055 61.0993C224.954 63.8062 224.954 66.1244 225.184 68.065C226.39 67.9039 227.76 68.1542 229.155 68.8704C227.309 68.7777 225.965 68.9933 225.12 69.5829C224.978 71.2265 225.002 72.4871 225.072 73.2216C226.895 73.5773 228.413 73.6416 229.619 73.4805C227.47 73.8254 225.93 74.024 225.135 74.0219C225.167 74.422 225.221 74.5592 225.221 74.5592C224.033 82.2064 223.727 88.0749 224.182 92.0219C226.388 91.0195 228.28 90.5861 230.001 90.6017C227.724 91.6643 225.884 93.0293 224.339 94.8172C221.491 96.3604 216.254 101.805 215.985 111.849C226.142 109.279 238.531 101.536 249.652 90.8356C219.809 110.522 211.15 112.625 223.741 97.1502C229.145 92.8463 231.847 90.6944 231.847 90.6944C229.094 89.5964 226.798 89.3327 224.889 89.9632C225.367 83.6458 225.791 78.7147 226.097 75.1644C227.868 74.5882 229.514 73.9351 231.028 73.2706C227.352 72.888 225.583 72.6695 225.583 72.6695C225.587 71.0802 225.792 70.2368 226.269 70.0792C227.575 69.5292 229.044 69.3907 230.688 69.5321C228.528 67.6904 226.744 66.8745 225.352 66.8872C225.52 63.3913 225.607 61.6104 225.607 61.6104C227.602 61.5172 229.225 61.127 230.477 60.4398C228.253 60.116 226.697 59.7172 225.751 59.1721C225.737 56.2566 226.75 54.4892 228.85 53.9414C228.347 53.6331 227.903 53.3963 227.515 53.2966ZM229.619 73.4805C229.685 73.4861 229.822 73.4317 229.888 73.4374C229.822 73.4317 229.751 73.4918 229.619 73.4805Z" fill="#C68800"/>
<path fill-rule="evenodd" clip-rule="evenodd" d="M232.94 114.168C241.964 110.904 249.88 109.731 256.618 110.708C244.398 112.637 237.376 117.265 235.679 124.67C238.895 118.853 248.181 114.089 263.541 110.31C250.753 107.289 240.507 108.593 232.94 114.168Z" fill="#C68800"/>
<path fill-rule="evenodd" clip-rule="evenodd" d="M277.007 113.92C273.912 111.402 274.113 105.988 277.615 97.6123C278.525 95.5049 280.469 92.1617 281.359 91.0461C284.63 85.3665 286.246 83.5185 286.796 80.9826C284.656 79.6726 282.606 78.1052 282.213 77.2766C284.089 78.564 286.569 79.7709 287.609 79.9929C292.423 73.32 295.567 67.5633 296.515 63.4721C301.663 56.7617 301.614 52.7172 299.063 51.5704C298.674 51.4707 298.34 51.5082 297.945 51.4742C300.002 52.9759 299.493 56.575 296.497 62.1458C296.497 62.1458 295.874 61.6948 294.626 60.7926C295.897 65.2734 293.547 71.0323 287.631 78.2064C285.976 78.1965 283.829 77.7468 281.069 76.7145C281.428 77.9376 282.798 79.7114 285.121 81.9646C283.139 83.4498 280.297 88.7689 276.595 97.9219C276.492 97.5819 276.323 97.2362 275.957 96.8735C275.284 96.2195 274.158 95.4602 272.51 94.5899C273.943 95.6405 275.014 97.0573 275.59 98.8289C273.863 101.197 273.285 104.062 273.911 107.56C273.116 109.876 273.538 111.899 275.177 113.63C272.769 114.681 271.389 116.086 271.088 118.047C271.742 117.375 272.999 116.622 274.99 115.8C274.32 116.669 274.223 117.787 274.768 119.158C275.698 117.583 277.038 116.638 278.798 116.193C279.482 116.716 280.694 116.489 282.351 115.704C282.332 116.696 283.024 117.882 284.358 119.321C284.592 115.831 287.048 113.459 291.666 112.134C291.438 113.241 291.928 114.475 293.13 115.903C293.13 115.903 293.572 114.617 294.527 111.983C294.52 110.525 296.011 110.124 299.008 110.713C297.584 110.325 296.077 110.13 294.482 110.191C293.257 111.344 292.678 112.685 292.882 114.16C292.612 112.68 292.511 111.545 292.651 110.696C289.979 111.724 287.027 112.928 284.506 115.294C284.246 116 284.247 117.523 284.247 117.523C283.81 117.221 283.102 115.438 283.268 115.055C281.147 115.071 280.201 116.049 279.14 115.296C277.386 115.675 276.129 116.427 275.369 117.554C275.948 116.213 276.756 115.289 277.794 114.782C275.721 115.001 274.027 115.452 272.698 116.265C274.324 115.08 275.718 114.273 277.007 113.92Z" fill="#C68800"/>
<path fill-rule="evenodd" clip-rule="evenodd" d="M272.08 85.744C270.33 88.3753 266.318 88.8248 268.477 84.5067C269.513 82.4764 270.335 80.6263 271.074 78.9677C261.388 93.7657 268.459 93.1819 276.991 79.4769C275.155 81.5709 273.456 83.6105 272.08 85.744Z" fill="#C68800"/>
<path fill-rule="evenodd" clip-rule="evenodd" d="M288.64 63.3901C287.242 65.7867 285.826 68.3805 284.334 71.1001C285.953 72.2992 287.057 73.3215 287.701 74.3042C285.913 72.7594 284.66 71.923 283.937 71.8608C283.723 72.0411 283.569 72.2927 283.355 72.473C284.735 72.5918 286.442 73.5335 288.405 75.3583C287.611 73.038 286.409 71.6099 284.805 71.0082C287.624 68.2702 288.836 65.7252 288.64 63.3901Z" fill="#C68800"/>
<path fill-rule="evenodd" clip-rule="evenodd" d="M273.206 62.6584C272.013 61.8934 270.475 61.2974 269.299 60.3352C270.806 60.531 272.064 61.3017 273.206 62.6584ZM273.625 71.6361C274.511 68.2682 274.455 66.6075 274.455 66.6075C271.67 65.1094 268.956 63.5511 267.846 62.5946C270.96 64.121 273.199 65.0422 274.431 65.347C274.888 64.6577 275.399 64.1056 275.85 63.482C275.676 63.2021 275.567 62.9278 275.398 62.5821C273.368 61.5463 271.443 60.056 269.82 58.128C271.201 58.2468 273.237 59.2169 275.923 61.1038C274.798 59.5499 273.284 57.8962 271.382 56.1429C272.105 56.2052 273.764 56.944 276.352 58.4251C274.012 56.3692 272.136 55.0818 270.717 54.6286C273.135 48.0807 274.839 44.4519 275.887 43.8136C278.663 44.6486 280.97 44.7809 282.807 44.2104C278.972 41.8271 276.873 40.0568 276.58 38.8394C278.032 32.7383 281.131 29.8257 285.925 30.3045C285.581 29.6788 285.166 29.1132 284.614 28.6021C280.709 27.8024 277.608 31.5096 275.317 39.658C276.774 41.9691 278.782 43.2679 281.406 43.5599C279.186 43.965 277.001 43.1809 274.798 41.0705C273.253 45.1765 271.613 49.6056 269.808 54.4179C269.714 54.741 269.554 55.0584 269.46 55.3815C271.594 56.7573 272.95 57.9337 273.6 58.8507C271.949 57.2515 270.29 56.5126 268.547 56.76C268.096 57.3836 267.711 58.0127 267.451 58.719C266.872 60.0601 266.556 61.4238 266.563 62.8816C265.747 64.6659 265.014 66.2587 264.286 67.7857C265.243 66.6758 266.414 65.3856 267.739 63.8438C269.589 64.6653 271.621 67.2246 273.625 71.6361Z" fill="#C68800"/>
<path fill-rule="evenodd" clip-rule="evenodd" d="M256.575 81.9597C254.732 84.914 252.483 83.3297 253.318 80.5535C256.012 71.5786 256.733 66.2757 256.67 63.1573C257.926 60.8809 258.334 57.6706 257.97 56.5133C260.953 41.8672 259.903 34.8222 256.778 33.4273C255.786 33.4082 254.929 34.1293 254.213 35.5248C258.736 36.8413 259.851 43.8919 257.553 56.7423C257.856 60.1463 256.683 62.2311 254.237 62.9479C256.412 65.387 255.615 72.3393 251.835 83.9362C252.483 89.4895 257.757 82.8562 267.667 63.9048C266.348 65.3809 265.237 66.7425 264.215 67.8468C260.434 75.6021 257.726 80.1379 256.575 81.9597Z" fill="#C68800"/>
<path fill-rule="evenodd" clip-rule="evenodd" d="M240.101 88.6873C237.704 93.4487 235.668 92.4787 234.182 90.4963C233.587 89.7165 233.274 87.9675 233.049 85.9611C233.196 96.5712 235.993 97.9379 241.385 89.9239C246.319 87.2354 248.756 85.8555 248.756 85.8555C244.943 85.5273 243.036 85.3633 243.036 85.3633C248.214 83.6893 250.874 82.7923 250.874 82.7923C245.746 82.351 243.182 82.1303 243.182 82.1303C246.491 72.1488 248.421 65.8901 248.887 63.5458C252.668 61.9503 254.588 61.1882 254.588 61.1882C252.356 61.7248 249.989 61.5211 247.624 60.5228C247.323 62.4839 247.11 64.1877 246.991 65.5684C244.288 72.3566 242.202 79.6616 240.603 87.4721C242.434 86.9674 244.063 86.5114 245.418 86.1643C243.809 87.1519 242.081 87.9967 240.101 88.6873ZM250.874 82.7923C250.874 82.7923 248.116 83.2835 242.595 84.3318C245.146 83.1604 247.575 82.6409 249.888 82.7074C250.217 82.7357 250.545 82.764 250.874 82.7923Z" fill="#C68800"/>
<path fill-rule="evenodd" clip-rule="evenodd" d="M265.144 90.9089C262.379 86.1007 258.547 84.4463 253.715 85.9513C257.26 86.3226 261.091 87.977 265.144 90.9089ZM253.715 85.9513C257.038 85.0451 259.7 85.6715 261.832 87.842C259.649 86.2632 256.988 85.6368 253.715 85.9513Z" fill="#C68800"/>
<path fill-rule="evenodd" clip-rule="evenodd" d="M276.022 96.8788C274.658 92.7211 271.277 90.4432 265.88 90.045C267.359 90.5697 270.182 92.4022 274.409 95.614C275.098 96.0708 275.59 96.5105 276.022 96.8788ZM276.022 96.8788C274.554 94.6992 271.82 92.6094 267.753 90.6036C271.839 91.6175 274.573 93.7074 276.022 96.8788Z" fill="#C9A505"/>
<path fill-rule="evenodd" clip-rule="evenodd" d="M269.935 104.503C269.287 98.9493 266.649 95.7417 262.152 94.8911C266.026 99.1323 268.598 102.334 269.935 104.503ZM262.152 94.8911C264.9 96.0549 267.146 98.4338 268.835 101.891C267.23 99.7658 264.978 97.4525 262.152 94.8911Z" fill="#C68800"/>
<path fill-rule="evenodd" clip-rule="evenodd" d="M222.292 136.302C218.036 127.259 216.718 120.257 218.277 115.225C227.84 111.081 236.741 104.627 244.968 95.9958C235.941 104.691 225.161 110.651 215.414 113.853C213.252 118.966 215.09 124.555 216.224 130.614C215.982 131.123 221.27 135.088 222.292 136.302Z" fill="#C68800"/>
<defs>
<filter id="filter0_d_885_28660" x="0.930664" y="4.87061" width="328.486" height="356.299" filterUnits="userSpaceOnUse" color-interpolation-filters="sRGB">
<feFlood flood-opacity="0" result="BackgroundImageFix"/>
<feColorMatrix in="SourceAlpha" type="matrix" values="0 0 0 0 0 0 0 0 0 0 0 0 0 0 0 0 0 0 127 0" result="hardAlpha"/>
<feOffset dy="10"/>
<feGaussianBlur stdDeviation="10"/>
<feColorMatrix type="matrix" values="0 0 0 0 0 0 0 0 0 0 0 0 0 0 0 0 0 0 0.6 0"/>
<feBlend mode="normal" in2="BackgroundImageFix" result="effect1_dropShadow_885_28660"/>
<feBlend mode="normal" in="SourceGraphic" in2="effect1_dropShadow_885_28660" result="shape"/>
</filter>
</defs>
</svg>
