<svg width="1347" height="233" viewBox="0 0 1347 233" fill="none" xmlns="http://www.w3.org/2000/svg">
<g filter="url(#filter0_dd_2404_29726)">
<mask id="mask0_2404_29726" style="mask-type:luminance" maskUnits="userSpaceOnUse" x="6" y="4" width="1335" height="221">
<path d="M1325 4H22C13.1634 4 6 11.1634 6 20V209C6 217.837 13.1634 225 22 225H1325C1333.84 225 1341 217.837 1341 209V20C1341 11.1634 1333.84 4 1325 4Z" fill="white"/>
</mask>
<g mask="url(#mask0_2404_29726)">
<path d="M1341 4H6V225H1341V4Z" fill="url(#paint0_linear_2404_29726)"/>
<g opacity="0.4">
<mask id="mask1_2404_29726" style="mask-type:luminance" maskUnits="userSpaceOnUse" x="839" y="-25" width="505" height="289">
<g opacity="0.4">
<path d="M1343.85 -24.72H839.85V263.28H1343.85V-24.72Z" fill="white"/>
</g>
</mask>
<g mask="url(#mask1_2404_29726)">
<g style="mix-blend-mode:overlay">
<path d="M913.87 64.9601C918.49 60.3401 925.98 60.3401 930.6 64.9601L1056.09 190.45C1060.71 195.07 1060.71 202.56 1056.09 207.18C1051.47 211.8 1043.98 211.8 1039.36 207.18L913.87 81.6901C909.25 77.0701 909.25 69.5801 913.87 64.9601Z" fill="#707070"/>
</g>
<g style="mix-blend-mode:overlay">
<path d="M977.88 184.82C980.3 182.4 984.22 182.4 986.64 184.82L1052.32 250.5C1054.74 252.92 1054.74 256.84 1052.32 259.26C1049.9 261.68 1045.98 261.68 1043.56 259.26L977.88 193.58C975.46 191.16 975.46 187.24 977.88 184.82Z" fill="#707070"/>
</g>
<g style="mix-blend-mode:overlay">
<path d="M942.74 0.94014C945.14 -1.45986 949.02 -1.45986 951.42 0.94014L1016.49 66.0102C1018.89 68.4102 1018.89 72.2902 1016.49 74.6902C1014.09 77.0902 1010.21 77.0902 1007.81 74.6902L942.74 9.62016C940.34 7.22014 940.34 3.34014 942.74 0.94014Z" fill="#707070"/>
</g>
<g style="mix-blend-mode:overlay">
<path d="M1025.81 -4.52991C1028.15 -6.86991 1031.93 -6.86991 1034.27 -4.52991L1097.7 58.9001C1100.04 61.2401 1100.04 65.0201 1097.7 67.3601C1095.36 69.7001 1091.58 69.7001 1089.24 67.3601L1025.81 3.93009C1023.47 1.59009 1023.47 -2.18991 1025.81 -4.52991Z" fill="#707070"/>
</g>
<g style="mix-blend-mode:overlay">
<path d="M1118.23 64.23C1122.45 60.02 1129.28 60.02 1133.49 64.23L1247.97 178.71C1252.19 182.92 1252.19 189.76 1247.97 193.97C1243.75 198.18 1236.92 198.18 1232.71 193.97L1118.23 79.49C1114.01 75.28 1114.01 68.44 1118.23 64.23Z" fill="#707070"/>
</g>
<g style="mix-blend-mode:overlay">
<path d="M803.05 114.96C809.79 108.22 820.71 108.22 827.45 114.96L1010.46 297.97C1017.2 304.71 1017.2 315.63 1010.46 322.37C1003.72 329.11 992.8 329.11 986.06 322.37L803.05 139.37C796.31 132.63 796.31 121.71 803.05 114.97V114.96Z" fill="#707070"/>
</g>
<g style="mix-blend-mode:overlay">
<path d="M1257 168.36C1260.26 165.1 1265.54 165.1 1268.8 168.36L1357.31 256.87C1360.57 260.13 1360.57 265.41 1357.31 268.67C1354.05 271.93 1348.77 271.93 1345.51 268.67L1257 180.16C1253.74 176.9 1253.74 171.62 1257 168.36Z" fill="#707070"/>
</g>
<g style="mix-blend-mode:overlay">
<path d="M1273.06 -5.71986C1275.58 -8.23986 1279.66 -8.23986 1282.17 -5.71986L1350.52 62.6301C1353.04 65.1501 1353.04 69.2302 1350.52 71.7402C1348 74.2602 1343.92 74.2602 1341.41 71.7402L1273.06 3.39014C1270.54 0.870137 1270.54 -3.20986 1273.06 -5.71986Z" fill="#707070"/>
</g>
<g style="mix-blend-mode:overlay">
<path d="M1153.29 155.62C1157.35 151.56 1163.93 151.56 1167.99 155.62L1278.22 265.85C1282.28 269.91 1282.28 276.49 1278.22 280.55C1274.16 284.61 1267.58 284.61 1263.52 280.55L1153.29 170.32C1149.23 166.26 1149.23 159.68 1153.29 155.62Z" fill="#919191"/>
</g>
<g style="mix-blend-mode:overlay">
<path d="M1092.9 -18.5099C1096.39 -21.9999 1102.05 -21.9999 1105.54 -18.5099L1200.33 76.2801C1203.82 79.7701 1203.82 85.4301 1200.33 88.9201C1196.84 92.41 1191.18 92.41 1187.69 88.9201L1092.9 -5.86999C1089.41 -9.35999 1089.41 -15.0199 1092.9 -18.5099Z" fill="#919191"/>
</g>
<g style="mix-blend-mode:overlay">
<path d="M1087.74 189.42C1089.63 187.53 1092.7 187.53 1094.6 189.42L1146.02 240.84C1147.91 242.73 1147.91 245.8 1146.02 247.7C1144.13 249.59 1141.06 249.59 1139.16 247.7L1087.74 196.28C1085.85 194.39 1085.85 191.32 1087.74 189.42Z" fill="#919191"/>
</g>
<g style="mix-blend-mode:overlay">
<path d="M827.22 51.25C831.75 46.72 839.1 46.72 843.63 51.25L966.67 174.29C971.2 178.82 971.2 186.17 966.67 190.7C962.14 195.23 954.79 195.23 950.26 190.7L827.22 67.66C822.69 63.13 822.69 55.78 827.22 51.25Z" fill="#919191"/>
</g>
<g style="mix-blend-mode:overlay">
<path d="M1259.49 120.34C1263.46 116.37 1269.9 116.37 1273.87 120.34L1381.75 228.22C1385.72 232.19 1385.72 238.63 1381.75 242.6C1377.78 246.57 1371.34 246.57 1367.37 242.6L1259.49 134.72C1255.52 130.75 1255.52 124.31 1259.49 120.34Z" fill="#919191"/>
</g>
<g style="mix-blend-mode:overlay">
<path d="M1119.81 -74.5799C1127.04 -81.8099 1138.77 -81.8099 1146 -74.5799L1342.4 121.82C1349.63 129.05 1349.63 140.78 1342.4 148.01C1335.17 155.24 1323.44 155.24 1316.21 148.01L1119.81 -48.3899C1112.58 -55.6199 1112.58 -67.3499 1119.81 -74.5799Z" fill="#919191"/>
</g>
<g style="mix-blend-mode:overlay">
<path d="M812.97 -55.3301C818.4 -60.7601 827.2 -60.7601 832.62 -55.3301L980.02 92.0699C985.45 97.4999 985.45 106.3 980.02 111.72C974.59 117.15 965.79 117.15 960.37 111.72L812.97 -35.6801C807.54 -41.1101 807.54 -49.9101 812.97 -55.3301Z" fill="#919191"/>
</g>
<g style="mix-blend-mode:overlay">
<path d="M993.01 40.46C998.64 34.83 1007.77 34.83 1013.4 40.46L1166.31 193.37C1171.94 199 1171.94 208.13 1166.31 213.76C1160.68 219.39 1151.55 219.39 1145.92 213.76L993.01 60.8502C987.38 55.2202 987.38 46.09 993.01 40.46Z" fill="#919191"/>
</g>
</g>
</g>
<g opacity="0.4">
<mask id="mask2_2404_29726" style="mask-type:luminance" maskUnits="userSpaceOnUse" x="335" y="-25" width="505" height="289">
<g opacity="0.4">
<path d="M335.89 -24.72H839.89V263.28H335.89V-24.72Z" fill="white"/>
</g>
</mask>
<g mask="url(#mask2_2404_29726)">
<g style="mix-blend-mode:overlay">
<path d="M765.87 64.9601C761.25 60.3401 753.76 60.3401 749.14 64.9601L623.65 190.45C619.03 195.07 619.03 202.56 623.65 207.18C628.27 211.8 635.76 211.8 640.38 207.18L765.87 81.6901C770.49 77.0701 770.49 69.5801 765.87 64.9601Z" fill="#707070"/>
</g>
<g style="mix-blend-mode:overlay">
<path d="M701.86 184.82C699.44 182.4 695.52 182.4 693.1 184.82L627.42 250.5C625 252.92 625 256.84 627.42 259.26C629.84 261.68 633.76 261.68 636.18 259.26L701.86 193.58C704.28 191.16 704.28 187.24 701.86 184.82Z" fill="#707070"/>
</g>
<g style="mix-blend-mode:overlay">
<path d="M737 0.94014C734.6 -1.45986 730.72 -1.45986 728.32 0.94014L663.25 66.0102C660.85 68.4102 660.85 72.2902 663.25 74.6902C665.65 77.0902 669.53 77.0902 671.93 74.6902L737 9.62016C739.4 7.22014 739.4 3.34014 737 0.94014Z" fill="#707070"/>
</g>
<g style="mix-blend-mode:overlay">
<path d="M653.93 -4.52991C651.59 -6.86991 647.81 -6.86991 645.47 -4.52991L582.04 58.9001C579.7 61.2401 579.7 65.0201 582.04 67.3601C584.38 69.7001 588.16 69.7001 590.5 67.3601L653.93 3.93009C656.27 1.59009 656.27 -2.18991 653.93 -4.52991Z" fill="#707070"/>
</g>
<g style="mix-blend-mode:overlay">
<path d="M561.51 64.23C557.29 60.02 550.46 60.02 546.25 64.23L431.77 178.71C427.55 182.92 427.55 189.76 431.77 193.97C435.99 198.18 442.82 198.18 447.03 193.97L561.51 79.49C565.73 75.28 565.73 68.44 561.51 64.23Z" fill="#707070"/>
</g>
<g style="mix-blend-mode:overlay">
<path d="M876.69 114.96C869.95 108.22 859.03 108.22 852.29 114.96L669.28 297.97C662.54 304.71 662.54 315.63 669.28 322.37C676.02 329.11 686.94 329.11 693.68 322.37L876.69 139.37C883.43 132.63 883.43 121.71 876.69 114.97V114.96Z" fill="#707070"/>
</g>
<g style="mix-blend-mode:overlay">
<path d="M422.74 168.36C419.48 165.1 414.2 165.1 410.94 168.36L322.43 256.87C319.17 260.13 319.17 265.41 322.43 268.67C325.69 271.93 330.97 271.93 334.23 268.67L422.74 180.16C426 176.9 426 171.62 422.74 168.36Z" fill="#707070"/>
</g>
<g style="mix-blend-mode:overlay">
<path d="M406.68 -5.71986C404.16 -8.23986 400.08 -8.23986 397.57 -5.71986L329.22 62.6301C326.7 65.1501 326.7 69.2302 329.22 71.7402C331.74 74.2602 335.82 74.2602 338.33 71.7402L406.68 3.39014C409.2 0.870137 409.2 -3.20986 406.68 -5.71986Z" fill="#707070"/>
</g>
<g style="mix-blend-mode:overlay">
<path d="M526.45 155.62C522.39 151.56 515.81 151.56 511.75 155.62L401.52 265.85C397.46 269.91 397.46 276.49 401.52 280.55C405.58 284.61 412.16 284.61 416.22 280.55L526.45 170.32C530.51 166.26 530.51 159.68 526.45 155.62Z" fill="#919191"/>
</g>
<g style="mix-blend-mode:overlay">
<path d="M586.84 -18.5099C583.35 -21.9999 577.69 -21.9999 574.2 -18.5099L479.41 76.2801C475.92 79.7701 475.92 85.4301 479.41 88.9201C482.9 92.41 488.56 92.41 492.05 88.9201L586.84 -5.86999C590.33 -9.35999 590.33 -15.0199 586.84 -18.5099Z" fill="#919191"/>
</g>
<g style="mix-blend-mode:overlay">
<path d="M592 189.42C590.11 187.53 587.04 187.53 585.14 189.42L533.72 240.84C531.83 242.73 531.83 245.8 533.72 247.7C535.61 249.59 538.68 249.59 540.58 247.7L592 196.28C593.89 194.39 593.89 191.32 592 189.42Z" fill="#919191"/>
</g>
<g style="mix-blend-mode:overlay">
<path d="M852.52 51.25C847.99 46.72 840.64 46.72 836.11 51.25L713.07 174.29C708.54 178.82 708.54 186.17 713.07 190.7C717.6 195.23 724.95 195.23 729.48 190.7L852.52 67.66C857.05 63.13 857.05 55.78 852.52 51.25Z" fill="#919191"/>
</g>
<g style="mix-blend-mode:overlay">
<path d="M420.25 120.34C416.28 116.37 409.84 116.37 405.87 120.34L297.99 228.22C294.02 232.19 294.02 238.63 297.99 242.6C301.96 246.57 308.4 246.57 312.37 242.6L420.25 134.72C424.22 130.75 424.22 124.31 420.25 120.34Z" fill="#919191"/>
</g>
<g style="mix-blend-mode:overlay">
<path d="M559.93 -74.5799C552.7 -81.8099 540.97 -81.8099 533.74 -74.5799L337.34 121.82C330.11 129.05 330.11 140.78 337.34 148.01C344.57 155.24 356.3 155.24 363.53 148.01L559.93 -48.3899C567.16 -55.6199 567.16 -67.3499 559.93 -74.5799Z" fill="#919191"/>
</g>
<g style="mix-blend-mode:overlay">
<path d="M866.77 -55.3301C861.34 -60.7601 852.54 -60.7601 847.12 -55.3301L699.72 92.0699C694.29 97.4999 694.29 106.3 699.72 111.72C705.15 117.15 713.95 117.15 719.37 111.72L866.77 -35.6801C872.2 -41.1101 872.2 -49.9101 866.77 -55.3301Z" fill="#919191"/>
</g>
<g style="mix-blend-mode:overlay">
<path d="M686.73 40.46C681.1 34.83 671.97 34.83 666.34 40.46L513.43 193.37C507.8 199 507.8 208.13 513.43 213.76C519.06 219.39 528.19 219.39 533.82 213.76L686.73 60.8502C692.36 55.2202 692.36 46.09 686.73 40.46Z" fill="#919191"/>
</g>
</g>
</g>
<g opacity="0.4">
<mask id="mask3_2404_29726" style="mask-type:luminance" maskUnits="userSpaceOnUse" x="-169" y="-25" width="505" height="289">
<g opacity="0.4">
<path d="M335.85 -24.72H-168.15V263.28H335.85V-24.72Z" fill="white"/>
</g>
</mask>
<g mask="url(#mask3_2404_29726)">
<g style="mix-blend-mode:overlay">
<path d="M-94.13 64.9601C-89.51 60.3401 -82.02 60.3401 -77.4 64.9601L48.09 190.45C52.71 195.07 52.71 202.56 48.09 207.18C43.47 211.8 35.98 211.8 31.36 207.18L-94.13 81.6901C-98.75 77.0701 -98.75 69.5801 -94.13 64.9601Z" fill="#707070"/>
</g>
<g style="mix-blend-mode:overlay">
<path d="M-30.1196 184.82C-27.6996 182.4 -23.7796 182.4 -21.3596 184.82L44.3204 250.5C46.7404 252.92 46.7404 256.84 44.3204 259.26C41.9004 261.68 37.9804 261.68 35.5604 259.26L-30.1196 193.58C-32.5396 191.16 -32.5396 187.24 -30.1196 184.82Z" fill="#707070"/>
</g>
<g style="mix-blend-mode:overlay">
<path d="M-65.2596 0.94014C-62.8596 -1.45986 -58.9796 -1.45986 -56.5796 0.94014L8.49043 66.0102C10.8904 68.4102 10.8904 72.2902 8.49043 74.6902C6.09042 77.0902 2.21041 77.0902 -0.18959 74.6902L-65.2596 9.62016C-67.6596 7.22014 -67.6596 3.34014 -65.2596 0.94014Z" fill="#707070"/>
</g>
<g style="mix-blend-mode:overlay">
<path d="M17.8104 -4.52991C20.1504 -6.86991 23.9304 -6.86991 26.2704 -4.52991L89.7004 58.9001C92.0404 61.2401 92.0404 65.0201 89.7004 67.3601C87.3604 69.7001 83.5804 69.7001 81.2404 67.3601L17.8104 3.93009C15.4704 1.59009 15.4704 -2.18991 17.8104 -4.52991Z" fill="#707070"/>
</g>
<g style="mix-blend-mode:overlay">
<path d="M110.23 64.23C114.45 60.02 121.28 60.02 125.49 64.23L239.97 178.71C244.19 182.92 244.19 189.76 239.97 193.97C235.75 198.18 228.92 198.18 224.71 193.97L110.23 79.49C106.01 75.28 106.01 68.44 110.23 64.23Z" fill="#707070"/>
</g>
<g style="mix-blend-mode:overlay">
<path d="M-204.95 114.96C-198.21 108.22 -187.29 108.22 -180.55 114.96L2.46025 297.97C9.20022 304.71 9.20022 315.63 2.46025 322.37C-4.27976 329.11 -15.1998 329.11 -21.9398 322.37L-204.95 139.37C-211.69 132.63 -211.69 121.71 -204.95 114.97V114.96Z" fill="#707070"/>
</g>
<g style="mix-blend-mode:overlay">
<path d="M249 168.36C252.26 165.1 257.54 165.1 260.8 168.36L349.31 256.87C352.57 260.13 352.57 265.41 349.31 268.67C346.05 271.93 340.77 271.93 337.51 268.67L249 180.16C245.74 176.9 245.74 171.62 249 168.36Z" fill="#707070"/>
</g>
<g style="mix-blend-mode:overlay">
<path d="M265.06 -5.71986C267.58 -8.23986 271.66 -8.23986 274.17 -5.71986L342.52 62.6301C345.04 65.1501 345.04 69.2302 342.52 71.7402C340 74.2602 335.92 74.2602 333.41 71.7402L265.06 3.39014C262.54 0.870137 262.54 -3.20986 265.06 -5.71986Z" fill="#707070"/>
</g>
<g style="mix-blend-mode:overlay">
<path d="M145.29 155.62C149.35 151.56 155.93 151.56 159.99 155.62L270.22 265.85C274.28 269.91 274.28 276.49 270.22 280.55C266.16 284.61 259.58 284.61 255.52 280.55L145.29 170.32C141.23 166.26 141.23 159.68 145.29 155.62Z" fill="#919191"/>
</g>
<g style="mix-blend-mode:overlay">
<path d="M84.9002 -18.5099C88.3902 -21.9999 94.0502 -21.9999 97.5402 -18.5099L192.33 76.2801C195.82 79.7701 195.82 85.4301 192.33 88.9201C188.84 92.41 183.18 92.41 179.69 88.9201L84.9002 -5.86999C81.4102 -9.35999 81.4102 -15.0199 84.9002 -18.5099Z" fill="#919191"/>
</g>
<g style="mix-blend-mode:overlay">
<path d="M79.74 189.42C81.63 187.53 84.7 187.53 86.6 189.42L138.02 240.84C139.91 242.73 139.91 245.8 138.02 247.7C136.13 249.59 133.06 249.59 131.16 247.7L79.74 196.28C77.85 194.39 77.85 191.32 79.74 189.42Z" fill="#919191"/>
</g>
<g style="mix-blend-mode:overlay">
<path d="M251.49 120.34C255.46 116.37 261.9 116.37 265.87 120.34L373.75 228.22C377.72 232.19 377.72 238.63 373.75 242.6C369.78 246.57 363.34 246.57 359.37 242.6L251.49 134.72C247.52 130.75 247.52 124.31 251.49 120.34Z" fill="#919191"/>
</g>
<g style="mix-blend-mode:overlay">
<path d="M111.81 -74.5799C119.04 -81.8099 130.77 -81.8099 138 -74.5799L334.4 121.82C341.63 129.05 341.63 140.78 334.4 148.01C327.17 155.24 315.44 155.24 308.21 148.01L111.81 -48.3899C104.58 -55.6199 104.58 -67.3499 111.81 -74.5799Z" fill="#919191"/>
</g>
<g style="mix-blend-mode:overlay">
<path d="M-14.9899 40.46C-9.3599 34.83 -0.229903 34.83 5.4001 40.46L158.31 193.37C163.94 199 163.94 208.13 158.31 213.76C152.68 219.39 143.55 219.39 137.92 213.76L-14.9899 60.8502C-20.6199 55.2202 -20.6199 46.09 -14.9899 40.46Z" fill="#919191"/>
</g>
</g>
</g>
</g>
<path d="M475.158 96.0909V131H467.777V103.097H467.572L459.578 108.108V101.562L468.22 96.0909H475.158ZM496.477 131.477C493.852 131.477 491.517 131.051 489.472 130.199C487.438 129.335 485.841 128.159 484.682 126.67C483.523 125.182 482.943 123.494 482.943 121.608C482.943 120.153 483.273 118.818 483.932 117.602C484.602 116.375 485.511 115.358 486.659 114.551C487.807 113.733 489.091 113.21 490.511 112.983V112.744C488.648 112.369 487.136 111.466 485.977 110.034C484.818 108.591 484.239 106.915 484.239 105.006C484.239 103.199 484.767 101.591 485.824 100.182C486.881 98.7614 488.33 97.6477 490.17 96.8409C492.023 96.0227 494.125 95.6136 496.477 95.6136C498.83 95.6136 500.926 96.0227 502.767 96.8409C504.619 97.6591 506.074 98.7784 507.131 100.199C508.188 101.608 508.722 103.21 508.733 105.006C508.722 106.926 508.131 108.602 506.96 110.034C505.79 111.466 504.29 112.369 502.46 112.744V112.983C503.858 113.21 505.125 113.733 506.261 114.551C507.409 115.358 508.318 116.375 508.989 117.602C509.67 118.818 510.017 120.153 510.028 121.608C510.017 123.494 509.432 125.182 508.273 126.67C507.114 128.159 505.511 129.335 503.466 130.199C501.432 131.051 499.102 131.477 496.477 131.477ZM496.477 126.057C497.648 126.057 498.67 125.847 499.545 125.426C500.42 124.994 501.102 124.403 501.591 123.653C502.091 122.892 502.341 122.017 502.341 121.028C502.341 120.017 502.085 119.125 501.574 118.352C501.063 117.568 500.369 116.955 499.494 116.511C498.619 116.057 497.614 115.83 496.477 115.83C495.352 115.83 494.347 116.057 493.46 116.511C492.574 116.955 491.875 117.568 491.364 118.352C490.864 119.125 490.614 120.017 490.614 121.028C490.614 122.017 490.858 122.892 491.347 123.653C491.835 124.403 492.523 124.994 493.409 125.426C494.295 125.847 495.318 126.057 496.477 126.057ZM496.477 110.46C497.455 110.46 498.324 110.261 499.085 109.864C499.847 109.466 500.443 108.915 500.875 108.21C501.307 107.506 501.523 106.693 501.523 105.773C501.523 104.864 501.307 104.068 500.875 103.386C500.443 102.693 499.852 102.153 499.102 101.767C498.352 101.369 497.477 101.17 496.477 101.17C495.489 101.17 494.614 101.369 493.852 101.767C493.091 102.153 492.494 102.693 492.062 103.386C491.642 104.068 491.432 104.864 491.432 105.773C491.432 106.693 491.648 107.506 492.08 108.21C492.511 108.915 493.108 109.466 493.869 109.864C494.631 110.261 495.5 110.46 496.477 110.46ZM534.297 124.455V122.614C534.297 121.216 534.592 119.932 535.183 118.761C535.786 117.58 536.655 116.636 537.791 115.932C538.939 115.216 540.337 114.858 541.984 114.858C543.655 114.858 545.058 115.21 546.195 115.915C547.342 116.619 548.206 117.562 548.786 118.744C549.376 119.915 549.672 121.205 549.672 122.614V124.455C549.672 125.852 549.376 127.142 548.786 128.324C548.195 129.494 547.325 130.432 546.178 131.136C545.03 131.852 543.632 132.21 541.984 132.21C540.314 132.21 538.911 131.852 537.774 131.136C536.638 130.432 535.774 129.494 535.183 128.324C534.592 127.142 534.297 125.852 534.297 124.455ZM539.257 122.614V124.455C539.257 125.261 539.45 126.023 539.837 126.739C540.234 127.455 540.95 127.812 541.984 127.812C543.018 127.812 543.723 127.46 544.098 126.756C544.484 126.051 544.678 125.284 544.678 124.455V122.614C544.678 121.784 544.496 121.011 544.132 120.295C543.768 119.58 543.053 119.222 541.984 119.222C540.962 119.222 540.251 119.58 539.854 120.295C539.456 121.011 539.257 121.784 539.257 122.614ZM516.382 104.477V102.636C516.382 101.227 516.683 99.9375 517.286 98.767C517.888 97.5852 518.757 96.642 519.893 95.9375C521.041 95.233 522.428 94.8807 524.053 94.8807C525.734 94.8807 527.143 95.233 528.28 95.9375C529.416 96.642 530.28 97.5852 530.871 98.767C531.462 99.9375 531.757 101.227 531.757 102.636V104.477C531.757 105.886 531.456 107.176 530.854 108.347C530.263 109.517 529.393 110.455 528.246 111.159C527.109 111.852 525.712 112.199 524.053 112.199C522.393 112.199 520.99 111.847 519.842 111.142C518.706 110.426 517.842 109.489 517.251 108.33C516.672 107.159 516.382 105.875 516.382 104.477ZM521.376 102.636V104.477C521.376 105.307 521.57 106.074 521.956 106.778C522.354 107.483 523.053 107.835 524.053 107.835C525.098 107.835 525.808 107.483 526.183 106.778C526.57 106.074 526.763 105.307 526.763 104.477V102.636C526.763 101.807 526.581 101.034 526.217 100.318C525.854 99.6023 525.132 99.2443 524.053 99.2443C523.041 99.2443 522.342 99.608 521.956 100.335C521.57 101.062 521.376 101.83 521.376 102.636ZM518.632 131L542.632 96.0909H547.098L523.098 131H518.632Z" fill="#BCED09"/>
<path d="M598.554 108.312H591.088C590.952 107.347 590.673 106.489 590.253 105.739C589.832 104.977 589.293 104.33 588.634 103.795C587.974 103.261 587.213 102.852 586.349 102.568C585.497 102.284 584.571 102.142 583.571 102.142C581.764 102.142 580.19 102.591 578.849 103.489C577.509 104.375 576.469 105.67 575.73 107.375C574.991 109.068 574.622 111.125 574.622 113.545C574.622 116.034 574.991 118.125 575.73 119.818C576.48 121.511 577.526 122.79 578.866 123.653C580.207 124.517 581.759 124.949 583.52 124.949C584.509 124.949 585.423 124.818 586.264 124.557C587.116 124.295 587.872 123.915 588.531 123.415C589.19 122.903 589.736 122.284 590.168 121.557C590.611 120.83 590.918 120 591.088 119.068L598.554 119.102C598.361 120.705 597.878 122.25 597.105 123.739C596.344 125.216 595.315 126.54 594.02 127.71C592.736 128.869 591.202 129.79 589.418 130.472C587.645 131.142 585.639 131.477 583.401 131.477C580.287 131.477 577.503 130.773 575.048 129.364C572.605 127.955 570.673 125.915 569.253 123.244C567.844 120.574 567.139 117.341 567.139 113.545C567.139 109.739 567.855 106.5 569.287 103.83C570.719 101.159 572.662 99.125 575.116 97.7273C577.571 96.3182 580.332 95.6136 583.401 95.6136C585.423 95.6136 587.298 95.8977 589.026 96.4659C590.764 97.0341 592.304 97.8636 593.645 98.9545C594.986 100.034 596.077 101.358 596.918 102.926C597.77 104.494 598.315 106.29 598.554 108.312ZM635.926 113.545C635.926 117.352 635.205 120.591 633.761 123.261C632.33 125.932 630.375 127.972 627.898 129.381C625.432 130.778 622.659 131.477 619.58 131.477C616.477 131.477 613.693 130.773 611.227 129.364C608.761 127.955 606.813 125.915 605.381 123.244C603.949 120.574 603.233 117.341 603.233 113.545C603.233 109.739 603.949 106.5 605.381 103.83C606.813 101.159 608.761 99.125 611.227 97.7273C613.693 96.3182 616.477 95.6136 619.58 95.6136C622.659 95.6136 625.432 96.3182 627.898 97.7273C630.375 99.125 632.33 101.159 633.761 103.83C635.205 106.5 635.926 109.739 635.926 113.545ZM628.443 113.545C628.443 111.08 628.074 109 627.335 107.307C626.608 105.614 625.58 104.33 624.25 103.455C622.92 102.58 621.364 102.142 619.58 102.142C617.795 102.142 616.239 102.58 614.909 103.455C613.58 104.33 612.545 105.614 611.807 107.307C611.08 109 610.716 111.08 610.716 113.545C610.716 116.011 611.08 118.091 611.807 119.784C612.545 121.477 613.58 122.761 614.909 123.636C616.239 124.511 617.795 124.949 619.58 124.949C621.364 124.949 622.92 124.511 624.25 123.636C625.58 122.761 626.608 121.477 627.335 119.784C628.074 118.091 628.443 116.011 628.443 113.545ZM641.393 96.0909H650.496L660.109 119.545H660.518L670.132 96.0909H679.234V131H672.075V108.278H671.786L662.751 130.83H657.876L648.842 108.193H648.553V131H641.393V96.0909ZM685.315 96.0909H694.418L704.031 119.545H704.44L714.054 96.0909H723.156V131H715.997V108.278H715.707L706.673 130.83H701.798L692.764 108.193H692.474V131H685.315V96.0909ZM736.618 96.0909V131H729.237V96.0909H736.618ZM761.628 106.131C761.491 104.756 760.906 103.687 759.872 102.926C758.838 102.165 757.435 101.784 755.662 101.784C754.457 101.784 753.44 101.955 752.611 102.295C751.781 102.625 751.145 103.085 750.702 103.676C750.27 104.267 750.054 104.938 750.054 105.688C750.031 106.312 750.162 106.858 750.446 107.324C750.741 107.79 751.145 108.193 751.656 108.534C752.168 108.864 752.759 109.153 753.429 109.403C754.099 109.642 754.815 109.847 755.577 110.017L758.713 110.767C760.236 111.108 761.634 111.562 762.906 112.131C764.179 112.699 765.281 113.398 766.213 114.227C767.145 115.057 767.866 116.034 768.378 117.159C768.901 118.284 769.168 119.574 769.179 121.028C769.168 123.165 768.622 125.017 767.543 126.585C766.474 128.142 764.929 129.352 762.906 130.216C760.895 131.068 758.469 131.494 755.628 131.494C752.81 131.494 750.355 131.062 748.264 130.199C746.185 129.335 744.56 128.057 743.389 126.364C742.23 124.659 741.622 122.551 741.565 120.04H748.707C748.787 121.21 749.122 122.187 749.713 122.972C750.315 123.744 751.116 124.33 752.116 124.727C753.128 125.114 754.27 125.307 755.543 125.307C756.793 125.307 757.878 125.125 758.798 124.761C759.73 124.398 760.452 123.892 760.963 123.244C761.474 122.597 761.73 121.852 761.73 121.011C761.73 120.227 761.497 119.568 761.031 119.034C760.577 118.5 759.906 118.045 759.02 117.67C758.145 117.295 757.071 116.955 755.798 116.648L751.997 115.693C749.054 114.977 746.73 113.858 745.026 112.335C743.321 110.812 742.474 108.761 742.486 106.182C742.474 104.068 743.037 102.222 744.173 100.642C745.321 99.0625 746.895 97.8295 748.895 96.9432C750.895 96.0568 753.168 95.6136 755.713 95.6136C758.304 95.6136 760.565 96.0568 762.497 96.9432C764.44 97.8295 765.952 99.0625 767.031 100.642C768.111 102.222 768.668 104.051 768.702 106.131H761.628ZM793.081 106.131C792.945 104.756 792.359 103.687 791.325 102.926C790.291 102.165 788.888 101.784 787.115 101.784C785.911 101.784 784.893 101.955 784.064 102.295C783.234 102.625 782.598 103.085 782.155 103.676C781.723 104.267 781.507 104.938 781.507 105.688C781.484 106.312 781.615 106.858 781.899 107.324C782.195 107.79 782.598 108.193 783.109 108.534C783.621 108.864 784.212 109.153 784.882 109.403C785.553 109.642 786.268 109.847 787.03 110.017L790.166 110.767C791.689 111.108 793.087 111.562 794.359 112.131C795.632 112.699 796.734 113.398 797.666 114.227C798.598 115.057 799.32 116.034 799.831 117.159C800.354 118.284 800.621 119.574 800.632 121.028C800.621 123.165 800.075 125.017 798.996 126.585C797.928 128.142 796.382 129.352 794.359 130.216C792.348 131.068 789.922 131.494 787.081 131.494C784.263 131.494 781.808 131.062 779.717 130.199C777.638 129.335 776.013 128.057 774.842 126.364C773.683 124.659 773.075 122.551 773.018 120.04H780.161C780.24 121.21 780.575 122.187 781.166 122.972C781.768 123.744 782.57 124.33 783.57 124.727C784.581 125.114 785.723 125.307 786.996 125.307C788.246 125.307 789.331 125.125 790.251 124.761C791.183 124.398 791.905 123.892 792.416 123.244C792.928 122.597 793.183 121.852 793.183 121.011C793.183 120.227 792.95 119.568 792.484 119.034C792.03 118.5 791.359 118.045 790.473 117.67C789.598 117.295 788.524 116.955 787.251 116.648L783.45 115.693C780.507 114.977 778.183 113.858 776.479 112.335C774.774 110.812 773.928 108.761 773.939 106.182C773.928 104.068 774.49 102.222 775.626 100.642C776.774 99.0625 778.348 97.8295 780.348 96.9432C782.348 96.0568 784.621 95.6136 787.166 95.6136C789.757 95.6136 792.018 96.0568 793.95 96.9432C795.893 97.8295 797.405 99.0625 798.484 100.642C799.564 102.222 800.121 104.051 800.155 106.131H793.081ZM812.977 96.0909V131H805.597V96.0909H812.977ZM851.129 113.545C851.129 117.352 850.408 120.591 848.964 123.261C847.533 125.932 845.578 127.972 843.101 129.381C840.635 130.778 837.862 131.477 834.783 131.477C831.68 131.477 828.896 130.773 826.43 129.364C823.964 127.955 822.016 125.915 820.584 123.244C819.152 120.574 818.436 117.341 818.436 113.545C818.436 109.739 819.152 106.5 820.584 103.83C822.016 101.159 823.964 99.125 826.43 97.7273C828.896 96.3182 831.68 95.6136 834.783 95.6136C837.862 95.6136 840.635 96.3182 843.101 97.7273C845.578 99.125 847.533 101.159 848.964 103.83C850.408 106.5 851.129 109.739 851.129 113.545ZM843.646 113.545C843.646 111.08 843.277 109 842.538 107.307C841.811 105.614 840.783 104.33 839.453 103.455C838.124 102.58 836.567 102.142 834.783 102.142C832.999 102.142 831.442 102.58 830.112 103.455C828.783 104.33 827.749 105.614 827.01 107.307C826.283 109 825.919 111.08 825.919 113.545C825.919 116.011 826.283 118.091 827.01 119.784C827.749 121.477 828.783 122.761 830.112 123.636C831.442 124.511 832.999 124.949 834.783 124.949C836.567 124.949 838.124 124.511 839.453 123.636C840.783 122.761 841.811 121.477 842.538 119.784C843.277 118.091 843.646 116.011 843.646 113.545ZM885.795 96.0909V131H879.42L864.233 109.028H863.977V131H856.597V96.0909H863.074L878.142 118.045H878.449V96.0909H885.795Z" fill="white"/>
<path d="M478.681 56.4545V71H476.92V56.4545H478.681ZM483.661 64.4375V71H481.985V60.0909H483.605V61.7955H483.747C484.002 61.2415 484.391 60.7964 484.911 60.4602C485.432 60.1193 486.105 59.9489 486.928 59.9489C487.667 59.9489 488.313 60.1004 488.867 60.4034C489.421 60.7017 489.852 61.1562 490.16 61.767C490.468 62.3731 490.622 63.1402 490.622 64.0682V71H488.945V64.1818C488.945 63.3248 488.723 62.6572 488.278 62.179C487.833 61.696 487.222 61.4545 486.445 61.4545C485.91 61.4545 485.432 61.5705 485.011 61.8026C484.594 62.0346 484.265 62.3731 484.024 62.8182C483.782 63.2633 483.661 63.803 483.661 64.4375ZM498.116 71.2273C497.094 71.2273 496.213 70.9858 495.474 70.5028C494.736 70.0199 494.167 69.3546 493.77 68.5071C493.372 67.6596 493.173 66.6913 493.173 65.6023C493.173 64.4943 493.377 63.5166 493.784 62.669C494.196 61.8168 494.769 61.1515 495.503 60.6733C496.241 60.1903 497.103 59.9489 498.088 59.9489C498.855 59.9489 499.546 60.0909 500.162 60.375C500.777 60.6591 501.282 61.0568 501.675 61.5682C502.068 62.0795 502.311 62.6761 502.406 63.358H500.73C500.602 62.8608 500.318 62.4205 499.878 62.0369C499.442 61.6487 498.855 61.4545 498.116 61.4545C497.463 61.4545 496.89 61.625 496.398 61.9659C495.91 62.3021 495.529 62.7779 495.254 63.3935C494.984 64.0043 494.849 64.7216 494.849 65.5455C494.849 66.3883 494.982 67.1222 495.247 67.7472C495.517 68.3722 495.896 68.8575 496.383 69.2031C496.876 69.5488 497.453 69.7216 498.116 69.7216C498.552 69.7216 498.947 69.6458 499.302 69.4943C499.657 69.3428 499.958 69.125 500.204 68.8409C500.451 68.5568 500.626 68.2159 500.73 67.8182H502.406C502.311 68.4621 502.077 69.0421 501.703 69.5582C501.334 70.0696 500.844 70.4768 500.233 70.7798C499.627 71.0781 498.921 71.2273 498.116 71.2273ZM504.856 71V60.0909H506.476V61.7386H506.589C506.788 61.1989 507.148 60.7609 507.669 60.4247C508.19 60.0885 508.777 59.9205 509.43 59.9205C509.553 59.9205 509.707 59.9228 509.892 59.9276C510.077 59.9323 510.216 59.9394 510.311 59.9489V61.6534C510.254 61.6392 510.124 61.6179 509.92 61.5895C509.721 61.5563 509.511 61.5398 509.288 61.5398C508.758 61.5398 508.284 61.651 507.868 61.8736C507.456 62.0914 507.129 62.3944 506.888 62.7827C506.651 63.1662 506.532 63.6042 506.532 64.0966V71H504.856ZM516.54 71.2273C515.488 71.2273 514.582 70.9953 513.819 70.5312C513.062 70.0625 512.477 69.4091 512.065 68.571C511.658 67.7282 511.454 66.7481 511.454 65.6307C511.454 64.5133 511.658 63.5284 512.065 62.6761C512.477 61.8191 513.05 61.1515 513.784 60.6733C514.523 60.1903 515.384 59.9489 516.369 59.9489C516.937 59.9489 517.498 60.0436 518.052 60.233C518.606 60.4223 519.111 60.7301 519.565 61.1562C520.02 61.5777 520.382 62.1364 520.652 62.8324C520.922 63.5284 521.057 64.3854 521.057 65.4034V66.1136H512.648V64.6648H519.352C519.352 64.0492 519.229 63.5 518.983 63.017C518.741 62.5341 518.396 62.1529 517.946 61.8736C517.501 61.5942 516.975 61.4545 516.369 61.4545C515.702 61.4545 515.124 61.6203 514.636 61.9517C514.153 62.2784 513.782 62.7045 513.521 63.2301C513.261 63.7557 513.131 64.3191 513.131 64.9205V65.8864C513.131 66.7102 513.273 67.4086 513.557 67.9815C513.845 68.5497 514.246 68.983 514.757 69.2812C515.268 69.5748 515.863 69.7216 516.54 69.7216C516.98 69.7216 517.378 69.66 517.733 69.5369C518.093 69.4091 518.403 69.2197 518.663 68.9688C518.924 68.7131 519.125 68.3958 519.267 68.017L520.886 68.4716C520.716 69.0208 520.429 69.5038 520.027 69.9205C519.624 70.3324 519.127 70.6544 518.535 70.8864C517.943 71.1136 517.278 71.2273 516.54 71.2273ZM526.817 71.2557C526.125 71.2557 525.498 71.1255 524.934 70.8651C524.371 70.5999 523.924 70.2188 523.592 69.7216C523.261 69.2197 523.095 68.6136 523.095 67.9034C523.095 67.2784 523.218 66.7718 523.464 66.3835C523.711 65.9905 524.04 65.6828 524.452 65.4602C524.863 65.2377 525.318 65.072 525.815 64.9631C526.317 64.8494 526.821 64.7595 527.328 64.6932C527.991 64.608 528.528 64.544 528.94 64.5014C529.357 64.4541 529.66 64.3759 529.849 64.267C530.043 64.1581 530.14 63.9687 530.14 63.6989V63.642C530.14 62.9413 529.949 62.3968 529.565 62.0085C529.186 61.6203 528.611 61.4261 527.839 61.4261C527.039 61.4261 526.412 61.6013 525.957 61.9517C525.503 62.3021 525.183 62.6761 524.998 63.0739L523.407 62.5057C523.692 61.8428 524.07 61.3267 524.544 60.9574C525.022 60.5833 525.543 60.3229 526.106 60.1761C526.675 60.0246 527.233 59.9489 527.782 59.9489C528.133 59.9489 528.535 59.9915 528.99 60.0767C529.449 60.1572 529.892 60.3253 530.318 60.581C530.749 60.8366 531.106 61.2225 531.39 61.7386C531.675 62.2547 531.817 62.946 531.817 63.8125V71H530.14V69.5227H530.055C529.942 69.7595 529.752 70.0128 529.487 70.2827C529.222 70.5526 528.869 70.7822 528.429 70.9716C527.988 71.161 527.451 71.2557 526.817 71.2557ZM527.072 69.75C527.735 69.75 528.294 69.6198 528.748 69.3594C529.208 69.099 529.553 68.7628 529.785 68.3509C530.022 67.9389 530.14 67.5057 530.14 67.0511V65.517C530.069 65.6023 529.913 65.6804 529.672 65.7514C529.435 65.8177 529.16 65.8769 528.848 65.929C528.54 65.9763 528.239 66.0189 527.946 66.0568C527.657 66.09 527.423 66.1184 527.243 66.142C526.807 66.1989 526.4 66.2912 526.021 66.419C525.647 66.5421 525.344 66.7292 525.112 66.9801C524.885 67.2263 524.771 67.5625 524.771 67.9886C524.771 68.571 524.987 69.0114 525.417 69.3097C525.853 69.6032 526.405 69.75 527.072 69.75ZM542.603 62.5341L541.097 62.9602C541.003 62.7093 540.863 62.4654 540.678 62.2287C540.499 61.9872 540.252 61.7884 539.94 61.6321C539.627 61.4759 539.227 61.3977 538.74 61.3977C538.072 61.3977 537.516 61.5516 537.07 61.8594C536.63 62.1624 536.41 62.5483 536.41 63.017C536.41 63.4337 536.561 63.7628 536.865 64.0043C537.168 64.2457 537.641 64.447 538.285 64.608L539.904 65.0057C540.88 65.2424 541.606 65.6046 542.085 66.0923C542.563 66.5753 542.802 67.1979 542.802 67.9602C542.802 68.5852 542.622 69.1439 542.262 69.6364C541.907 70.1288 541.41 70.517 540.771 70.8011C540.132 71.0852 539.388 71.2273 538.541 71.2273C537.428 71.2273 536.507 70.9858 535.778 70.5028C535.049 70.0199 534.587 69.3144 534.393 68.3864L535.984 67.9886C536.135 68.5758 536.422 69.0161 536.843 69.3097C537.269 69.6032 537.826 69.75 538.512 69.75C539.294 69.75 539.914 69.5843 540.373 69.2528C540.837 68.9167 541.069 68.5142 541.069 68.0455C541.069 67.6667 540.936 67.3494 540.671 67.0938C540.406 66.8333 539.999 66.6392 539.45 66.5114L537.632 66.0852C536.633 65.8485 535.899 65.4815 535.43 64.9844C534.966 64.4825 534.734 63.8551 534.734 63.1023C534.734 62.4867 534.907 61.9422 535.252 61.4688C535.603 60.9953 536.079 60.6236 536.68 60.3537C537.286 60.0838 537.972 59.9489 538.74 59.9489C539.819 59.9489 540.667 60.1856 541.282 60.6591C541.902 61.1326 542.343 61.7576 542.603 62.5341ZM549.899 71.2273C548.848 71.2273 547.941 70.9953 547.179 70.5312C546.421 70.0625 545.836 69.4091 545.425 68.571C545.017 67.7282 544.814 66.7481 544.814 65.6307C544.814 64.5133 545.017 63.5284 545.425 62.6761C545.836 61.8191 546.409 61.1515 547.143 60.6733C547.882 60.1903 548.744 59.9489 549.729 59.9489C550.297 59.9489 550.858 60.0436 551.412 60.233C551.966 60.4223 552.47 60.7301 552.925 61.1562C553.379 61.5777 553.741 62.1364 554.011 62.8324C554.281 63.5284 554.416 64.3854 554.416 65.4034V66.1136H546.007V64.6648H552.711C552.711 64.0492 552.588 63.5 552.342 63.017C552.101 62.5341 551.755 62.1529 551.305 61.8736C550.86 61.5942 550.335 61.4545 549.729 61.4545C549.061 61.4545 548.483 61.6203 547.996 61.9517C547.513 62.2784 547.141 62.7045 546.881 63.2301C546.62 63.7557 546.49 64.3191 546.49 64.9205V65.8864C546.49 66.7102 546.632 67.4086 546.916 67.9815C547.205 68.5497 547.605 68.983 548.116 69.2812C548.628 69.5748 549.222 69.7216 549.899 69.7216C550.339 69.7216 550.737 69.66 551.092 69.5369C551.452 69.4091 551.762 69.2197 552.023 68.9688C552.283 68.7131 552.484 68.3958 552.626 68.017L554.246 68.4716C554.075 69.0208 553.789 69.5038 553.386 69.9205C552.984 70.3324 552.487 70.6544 551.895 70.8864C551.303 71.1136 550.638 71.2273 549.899 71.2273ZM567.165 71.2273C566.113 71.2273 565.207 70.9953 564.444 70.5312C563.687 70.0625 563.102 69.4091 562.69 68.571C562.283 67.7282 562.079 66.7481 562.079 65.6307C562.079 64.5133 562.283 63.5284 562.69 62.6761C563.102 61.8191 563.675 61.1515 564.409 60.6733C565.148 60.1903 566.009 59.9489 566.994 59.9489C567.562 59.9489 568.123 60.0436 568.677 60.233C569.231 60.4223 569.736 60.7301 570.19 61.1562C570.645 61.5777 571.007 62.1364 571.277 62.8324C571.547 63.5284 571.682 64.3854 571.682 65.4034V66.1136H563.273V64.6648H569.977C569.977 64.0492 569.854 63.5 569.608 63.017C569.366 62.5341 569.021 62.1529 568.571 61.8736C568.126 61.5942 567.6 61.4545 566.994 61.4545C566.327 61.4545 565.749 61.6203 565.261 61.9517C564.778 62.2784 564.407 62.7045 564.146 63.2301C563.886 63.7557 563.756 64.3191 563.756 64.9205V65.8864C563.756 66.7102 563.898 67.4086 564.182 67.9815C564.47 68.5497 564.871 68.983 565.382 69.2812C565.893 69.5748 566.488 69.7216 567.165 69.7216C567.605 69.7216 568.003 69.66 568.358 69.5369C568.718 69.4091 569.028 69.2197 569.288 68.9688C569.549 68.7131 569.75 68.3958 569.892 68.017L571.511 68.4716C571.341 69.0208 571.054 69.5038 570.652 69.9205C570.249 70.3324 569.752 70.6544 569.16 70.8864C568.568 71.1136 567.903 71.2273 567.165 71.2273ZM577.442 71.2557C576.75 71.2557 576.123 71.1255 575.559 70.8651C574.996 70.5999 574.549 70.2188 574.217 69.7216C573.886 69.2197 573.72 68.6136 573.72 67.9034C573.72 67.2784 573.843 66.7718 574.089 66.3835C574.336 65.9905 574.665 65.6828 575.077 65.4602C575.488 65.2377 575.943 65.072 576.44 64.9631C576.942 64.8494 577.446 64.7595 577.953 64.6932C578.616 64.608 579.153 64.544 579.565 64.5014C579.982 64.4541 580.285 64.3759 580.474 64.267C580.668 64.1581 580.765 63.9687 580.765 63.6989V63.642C580.765 62.9413 580.574 62.3968 580.19 62.0085C579.811 61.6203 579.236 61.4261 578.464 61.4261C577.664 61.4261 577.037 61.6013 576.582 61.9517C576.128 62.3021 575.808 62.6761 575.623 63.0739L574.032 62.5057C574.317 61.8428 574.695 61.3267 575.169 60.9574C575.647 60.5833 576.168 60.3229 576.731 60.1761C577.3 60.0246 577.858 59.9489 578.407 59.9489C578.758 59.9489 579.16 59.9915 579.615 60.0767C580.074 60.1572 580.517 60.3253 580.943 60.581C581.374 60.8366 581.731 61.2225 582.015 61.7386C582.3 62.2547 582.442 62.946 582.442 63.8125V71H580.765V69.5227H580.68C580.567 69.7595 580.377 70.0128 580.112 70.2827C579.847 70.5526 579.494 70.7822 579.054 70.9716C578.613 71.161 578.076 71.2557 577.442 71.2557ZM577.697 69.75C578.36 69.75 578.919 69.6198 579.373 69.3594C579.833 69.099 580.178 68.7628 580.41 68.3509C580.647 67.9389 580.765 67.5057 580.765 67.0511V65.517C580.694 65.6023 580.538 65.6804 580.297 65.7514C580.06 65.8177 579.785 65.8769 579.473 65.929C579.165 65.9763 578.864 66.0189 578.571 66.0568C578.282 66.09 578.048 66.1184 577.868 66.142C577.432 66.1989 577.025 66.2912 576.646 66.419C576.272 66.5421 575.969 66.7292 575.737 66.9801C575.51 67.2263 575.396 67.5625 575.396 67.9886C575.396 68.571 575.612 69.0114 576.042 69.3097C576.478 69.6032 577.03 69.75 577.697 69.75ZM585.501 71V60.0909H587.12V61.7386H587.234C587.433 61.1989 587.793 60.7609 588.313 60.4247C588.834 60.0885 589.421 59.9205 590.075 59.9205C590.198 59.9205 590.352 59.9228 590.536 59.9276C590.721 59.9323 590.861 59.9394 590.955 59.9489V61.6534C590.899 61.6392 590.768 61.6179 590.565 61.5895C590.366 61.5563 590.155 61.5398 589.933 61.5398C589.402 61.5398 588.929 61.651 588.512 61.8736C588.1 62.0914 587.774 62.3944 587.532 62.7827C587.295 63.1662 587.177 63.6042 587.177 64.0966V71H585.501ZM594.618 64.4375V71H592.942V60.0909H594.562V61.7955H594.704C594.959 61.2415 595.348 60.7964 595.868 60.4602C596.389 60.1193 597.062 59.9489 597.885 59.9489C598.624 59.9489 599.27 60.1004 599.824 60.4034C600.378 60.7017 600.809 61.1562 601.117 61.767C601.425 62.3731 601.579 63.1402 601.579 64.0682V71H599.903V64.1818C599.903 63.3248 599.68 62.6572 599.235 62.179C598.79 61.696 598.179 61.4545 597.403 61.4545C596.867 61.4545 596.389 61.5705 595.968 61.8026C595.551 62.0346 595.222 62.3731 594.981 62.8182C594.739 63.2633 594.618 63.803 594.618 64.4375ZM604.642 71V60.0909H606.318V71H604.642ZM605.494 58.2727C605.167 58.2727 604.885 58.1615 604.649 57.9389C604.417 57.7164 604.301 57.4489 604.301 57.1364C604.301 56.8239 604.417 56.5563 604.649 56.3338C604.885 56.1113 605.167 56 605.494 56C605.82 56 606.1 56.1113 606.332 56.3338C606.569 56.5563 606.687 56.8239 606.687 57.1364C606.687 57.4489 606.569 57.7164 606.332 57.9389C606.1 58.1615 605.82 58.2727 605.494 58.2727ZM611.064 64.4375V71H609.388V60.0909H611.007V61.7955H611.149C611.405 61.2415 611.793 60.7964 612.314 60.4602C612.835 60.1193 613.507 59.9489 614.331 59.9489C615.069 59.9489 615.716 60.1004 616.27 60.4034C616.824 60.7017 617.255 61.1562 617.562 61.767C617.87 62.3731 618.024 63.1402 618.024 64.0682V71H616.348V64.1818C616.348 63.3248 616.125 62.6572 615.68 62.179C615.235 61.696 614.624 61.4545 613.848 61.4545C613.313 61.4545 612.835 61.5705 612.413 61.8026C611.997 62.0346 611.667 62.3731 611.426 62.8182C611.184 63.2633 611.064 63.803 611.064 64.4375ZM625.49 75.3182C624.681 75.3182 623.985 75.214 623.402 75.0057C622.82 74.8021 622.334 74.5322 621.946 74.196C621.563 73.8646 621.257 73.5095 621.03 73.1307L622.365 72.1932C622.517 72.392 622.709 72.6193 622.941 72.875C623.173 73.1354 623.49 73.3603 623.892 73.5497C624.299 73.7438 624.832 73.8409 625.49 73.8409C626.371 73.8409 627.098 73.6278 627.671 73.2017C628.244 72.7756 628.53 72.108 628.53 71.1989V68.983H628.388C628.265 69.1818 628.09 69.428 627.862 69.7216C627.64 70.0104 627.318 70.2685 626.896 70.4957C626.48 70.7183 625.916 70.8295 625.206 70.8295C624.325 70.8295 623.535 70.6212 622.834 70.2045C622.138 69.7879 621.586 69.1818 621.179 68.3864C620.777 67.5909 620.575 66.625 620.575 65.4886C620.575 64.3712 620.772 63.3982 621.165 62.5696C621.558 61.7363 622.105 61.0923 622.806 60.6378C623.506 60.1785 624.316 59.9489 625.235 59.9489C625.945 59.9489 626.508 60.0672 626.925 60.304C627.346 60.536 627.668 60.8011 627.891 61.0994C628.118 61.393 628.293 61.6345 628.416 61.8239H628.587V60.0909H630.206V71.3125C630.206 72.25 629.993 73.0123 629.567 73.5994C629.146 74.1913 628.577 74.6245 627.862 74.8991C627.152 75.1785 626.361 75.3182 625.49 75.3182ZM625.433 69.3239C626.106 69.3239 626.674 69.17 627.138 68.8622C627.602 68.5545 627.955 68.1117 628.196 67.5341C628.438 66.9564 628.558 66.2652 628.558 65.4602C628.558 64.6742 628.44 63.9806 628.203 63.3793C627.967 62.7779 627.616 62.3068 627.152 61.9659C626.688 61.625 626.115 61.4545 625.433 61.4545C624.723 61.4545 624.131 61.6345 623.658 61.9943C623.189 62.3542 622.836 62.8371 622.6 63.4432C622.368 64.0492 622.252 64.7216 622.252 65.4602C622.252 66.2178 622.37 66.8878 622.607 67.4702C622.848 68.0478 623.203 68.5024 623.672 68.8338C624.146 69.1605 624.733 69.3239 625.433 69.3239ZM641.002 62.5341L639.496 62.9602C639.401 62.7093 639.262 62.4654 639.077 62.2287C638.897 61.9872 638.651 61.7884 638.338 61.6321C638.026 61.4759 637.626 61.3977 637.138 61.3977C636.47 61.3977 635.914 61.5516 635.469 61.8594C635.029 62.1624 634.808 62.5483 634.808 63.017C634.808 63.4337 634.96 63.7628 635.263 64.0043C635.566 64.2457 636.039 64.447 636.683 64.608L638.303 65.0057C639.278 65.2424 640.005 65.6046 640.483 66.0923C640.961 66.5753 641.2 67.1979 641.2 67.9602C641.2 68.5852 641.021 69.1439 640.661 69.6364C640.306 70.1288 639.808 70.517 639.169 70.8011C638.53 71.0852 637.787 71.2273 636.939 71.2273C635.826 71.2273 634.905 70.9858 634.176 70.5028C633.447 70.0199 632.985 69.3144 632.791 68.3864L634.382 67.9886C634.534 68.5758 634.82 69.0161 635.242 69.3097C635.668 69.6032 636.224 69.75 636.911 69.75C637.692 69.75 638.312 69.5843 638.771 69.2528C639.235 68.9167 639.468 68.5142 639.468 68.0455C639.468 67.6667 639.335 67.3494 639.07 67.0938C638.805 66.8333 638.397 66.6392 637.848 66.5114L636.03 66.0852C635.031 65.8485 634.297 65.4815 633.828 64.9844C633.364 64.4825 633.132 63.8551 633.132 63.1023C633.132 62.4867 633.305 61.9422 633.651 61.4688C634.001 60.9953 634.477 60.6236 635.078 60.3537C635.684 60.0838 636.371 59.9489 637.138 59.9489C638.218 59.9489 639.065 60.1856 639.681 60.6591C640.301 61.1326 640.741 61.7576 641.002 62.5341ZM653.78 71.2273C652.796 71.2273 651.931 70.9929 651.188 70.5241C650.449 70.0554 649.872 69.3996 649.455 68.5568C649.043 67.714 648.837 66.7292 648.837 65.6023C648.837 64.4659 649.043 63.474 649.455 62.6264C649.872 61.7789 650.449 61.1207 651.188 60.652C651.931 60.1832 652.796 59.9489 653.78 59.9489C654.765 59.9489 655.627 60.1832 656.366 60.652C657.109 61.1207 657.687 61.7789 658.099 62.6264C658.515 63.474 658.724 64.4659 658.724 65.6023C658.724 66.7292 658.515 67.714 658.099 68.5568C657.687 69.3996 657.109 70.0554 656.366 70.5241C655.627 70.9929 654.765 71.2273 653.78 71.2273ZM653.78 69.7216C654.528 69.7216 655.144 69.5298 655.627 69.1463C656.11 68.7628 656.467 68.2585 656.699 67.6335C656.931 67.0085 657.047 66.3314 657.047 65.6023C657.047 64.8731 656.931 64.1937 656.699 63.5639C656.467 62.9342 656.11 62.4252 655.627 62.0369C655.144 61.6487 654.528 61.4545 653.78 61.4545C653.032 61.4545 652.417 61.6487 651.934 62.0369C651.451 62.4252 651.093 62.9342 650.861 63.5639C650.629 64.1937 650.513 64.8731 650.513 65.6023C650.513 66.3314 650.629 67.0085 650.861 67.6335C651.093 68.2585 651.451 68.7628 651.934 69.1463C652.417 69.5298 653.032 69.7216 653.78 69.7216ZM662.958 64.4375V71H661.282V60.0909H662.901V61.7955H663.044C663.299 61.2415 663.687 60.7964 664.208 60.4602C664.729 60.1193 665.401 59.9489 666.225 59.9489C666.964 59.9489 667.61 60.1004 668.164 60.4034C668.718 60.7017 669.149 61.1562 669.457 61.767C669.765 62.3731 669.919 63.1402 669.919 64.0682V71H668.242V64.1818C668.242 63.3248 668.02 62.6572 667.575 62.179C667.13 61.696 666.519 61.4545 665.742 61.4545C665.207 61.4545 664.729 61.5705 664.308 61.8026C663.891 62.0346 663.562 62.3731 663.32 62.8182C663.079 63.2633 662.958 63.803 662.958 64.4375ZM678.834 71V56.4545H680.595V62.9318H688.351V56.4545H690.112V71H688.351V64.4943H680.595V71H678.834ZM697.843 71.2273C696.858 71.2273 695.994 70.9929 695.251 70.5241C694.512 70.0554 693.934 69.3996 693.518 68.5568C693.106 67.714 692.9 66.7292 692.9 65.6023C692.9 64.4659 693.106 63.474 693.518 62.6264C693.934 61.7789 694.512 61.1207 695.251 60.652C695.994 60.1832 696.858 59.9489 697.843 59.9489C698.828 59.9489 699.689 60.1832 700.428 60.652C701.171 61.1207 701.749 61.7789 702.161 62.6264C702.578 63.474 702.786 64.4659 702.786 65.6023C702.786 66.7292 702.578 67.714 702.161 68.5568C701.749 69.3996 701.171 70.0554 700.428 70.5241C699.689 70.9929 698.828 71.2273 697.843 71.2273ZM697.843 69.7216C698.591 69.7216 699.206 69.5298 699.689 69.1463C700.172 68.7628 700.53 68.2585 700.762 67.6335C700.994 67.0085 701.11 66.3314 701.11 65.6023C701.11 64.8731 700.994 64.1937 700.762 63.5639C700.53 62.9342 700.172 62.4252 699.689 62.0369C699.206 61.6487 698.591 61.4545 697.843 61.4545C697.095 61.4545 696.479 61.6487 695.996 62.0369C695.513 62.4252 695.156 62.9342 694.924 63.5639C694.692 64.1937 694.576 64.8731 694.576 65.6023C694.576 66.3314 694.692 67.0085 694.924 67.6335C695.156 68.2585 695.513 68.7628 695.996 69.1463C696.479 69.5298 697.095 69.7216 697.843 69.7216ZM713.072 62.5341L711.566 62.9602C711.472 62.7093 711.332 62.4654 711.147 62.2287C710.967 61.9872 710.721 61.7884 710.409 61.6321C710.096 61.4759 709.696 61.3977 709.208 61.3977C708.541 61.3977 707.984 61.5516 707.539 61.8594C707.099 62.1624 706.879 62.5483 706.879 63.017C706.879 63.4337 707.03 63.7628 707.333 64.0043C707.636 64.2457 708.11 64.447 708.754 64.608L710.373 65.0057C711.348 65.2424 712.075 65.6046 712.553 66.0923C713.032 66.5753 713.271 67.1979 713.271 67.9602C713.271 68.5852 713.091 69.1439 712.731 69.6364C712.376 70.1288 711.879 70.517 711.24 70.8011C710.6 71.0852 709.857 71.2273 709.009 71.2273C707.897 71.2273 706.976 70.9858 706.247 70.5028C705.517 70.0199 705.056 69.3144 704.862 68.3864L706.453 67.9886C706.604 68.5758 706.891 69.0161 707.312 69.3097C707.738 69.6032 708.294 69.75 708.981 69.75C709.762 69.75 710.383 69.5843 710.842 69.2528C711.306 68.9167 711.538 68.5142 711.538 68.0455C711.538 67.6667 711.405 67.3494 711.14 67.0938C710.875 66.8333 710.468 66.6392 709.919 66.5114L708.1 66.0852C707.101 65.8485 706.367 65.4815 705.899 64.9844C705.435 64.4825 705.203 63.8551 705.203 63.1023C705.203 62.4867 705.375 61.9422 705.721 61.4688C706.071 60.9953 706.547 60.6236 707.149 60.3537C707.755 60.0838 708.441 59.9489 709.208 59.9489C710.288 59.9489 711.135 60.1856 711.751 60.6591C712.371 61.1326 712.811 61.7576 713.072 62.5341ZM720.538 60.0909V61.5114H714.885V60.0909H720.538ZM716.532 57.4773H718.209V67.875C718.209 68.3485 718.277 68.7036 718.415 68.9403C718.557 69.1723 718.737 69.3286 718.954 69.4091C719.177 69.4848 719.411 69.5227 719.657 69.5227C719.842 69.5227 719.994 69.5133 720.112 69.4943C720.23 69.4706 720.325 69.4517 720.396 69.4375L720.737 70.9432C720.623 70.9858 720.465 71.0284 720.261 71.071C720.058 71.1184 719.8 71.142 719.487 71.142C719.014 71.142 718.55 71.0402 718.095 70.8366C717.645 70.633 717.271 70.3229 716.973 69.9062C716.679 69.4896 716.532 68.964 716.532 68.3295V57.4773ZM727.516 71.2273C726.465 71.2273 725.558 70.9953 724.796 70.5312C724.038 70.0625 723.454 69.4091 723.042 68.571C722.635 67.7282 722.431 66.7481 722.431 65.6307C722.431 64.5133 722.635 63.5284 723.042 62.6761C723.454 61.8191 724.027 61.1515 724.76 60.6733C725.499 60.1903 726.361 59.9489 727.346 59.9489C727.914 59.9489 728.475 60.0436 729.029 60.233C729.583 60.4223 730.087 60.7301 730.542 61.1562C730.996 61.5777 731.358 62.1364 731.628 62.8324C731.898 63.5284 732.033 64.3854 732.033 65.4034V66.1136H723.624V64.6648H730.329C730.329 64.0492 730.206 63.5 729.959 63.017C729.718 62.5341 729.372 62.1529 728.922 61.8736C728.477 61.5942 727.952 61.4545 727.346 61.4545C726.678 61.4545 726.1 61.6203 725.613 61.9517C725.13 62.2784 724.758 62.7045 724.498 63.2301C724.237 63.7557 724.107 64.3191 724.107 64.9205V65.8864C724.107 66.7102 724.249 67.4086 724.533 67.9815C724.822 68.5497 725.222 68.983 725.733 69.2812C726.245 69.5748 726.839 69.7216 727.516 69.7216C727.956 69.7216 728.354 69.66 728.709 69.5369C729.069 69.4091 729.379 69.2197 729.64 68.9688C729.9 68.7131 730.101 68.3958 730.243 68.017L731.863 68.4716C731.692 69.0208 731.406 69.5038 731.003 69.9205C730.601 70.3324 730.104 70.6544 729.512 70.8864C728.92 71.1136 728.255 71.2273 727.516 71.2273ZM738.702 71.2273C737.793 71.2273 736.991 70.9976 736.295 70.5384C735.599 70.0743 735.054 69.4209 734.661 68.5781C734.268 67.7306 734.072 66.7292 734.072 65.5739C734.072 64.428 734.268 63.4337 734.661 62.5909C735.054 61.7481 735.601 61.0971 736.302 60.6378C737.002 60.1785 737.812 59.9489 738.731 59.9489C739.441 59.9489 740.002 60.0672 740.414 60.304C740.831 60.536 741.148 60.8011 741.366 61.0994C741.588 61.393 741.761 61.6345 741.884 61.8239H742.026V56.4545H743.702V71H742.083V69.3239H741.884C741.761 69.5227 741.586 69.7737 741.358 70.0767C741.131 70.375 740.807 70.6425 740.385 70.8793C739.964 71.1113 739.403 71.2273 738.702 71.2273ZM738.93 69.7216C739.602 69.7216 740.17 69.5464 740.634 69.196C741.098 68.8409 741.451 68.3509 741.692 67.7259C741.934 67.0961 742.055 66.3693 742.055 65.5455C742.055 64.7311 741.936 64.0185 741.699 63.4077C741.463 62.7921 741.112 62.3139 740.648 61.973C740.184 61.6274 739.611 61.4545 738.93 61.4545C738.219 61.4545 737.627 61.6368 737.154 62.0014C736.685 62.3613 736.332 62.8513 736.096 63.4716C735.864 64.0871 735.748 64.7784 735.748 65.5455C735.748 66.322 735.866 67.0275 736.103 67.6619C736.344 68.2917 736.699 68.7936 737.168 69.1676C737.642 69.5369 738.229 69.7216 738.93 69.7216ZM762.8 61C762.644 60.5218 762.438 60.0933 762.182 59.7145C761.931 59.331 761.631 59.0043 761.28 58.7344C760.935 58.4645 760.542 58.2585 760.101 58.1165C759.661 57.9744 759.178 57.9034 758.653 57.9034C757.791 57.9034 757.007 58.1259 756.302 58.571C755.596 59.0161 755.035 59.6719 754.618 60.5384C754.202 61.4048 753.993 62.4678 753.993 63.7273C753.993 64.9867 754.204 66.0497 754.626 66.9162C755.047 67.7827 755.617 68.4384 756.337 68.8835C757.057 69.3286 757.867 69.5511 758.766 69.5511C759.599 69.5511 760.333 69.3736 760.968 69.0185C761.607 68.6586 762.104 68.152 762.459 67.4986C762.819 66.8404 762.999 66.0663 762.999 65.1761L763.539 65.2898H759.164V63.7273H764.704V65.2898C764.704 66.4877 764.448 67.5294 763.937 68.4148C763.43 69.3002 762.729 69.9867 761.834 70.4744C760.944 70.9574 759.921 71.1989 758.766 71.1989C757.478 71.1989 756.347 70.8958 755.371 70.2898C754.401 69.6837 753.643 68.822 753.099 67.7045C752.559 66.5871 752.289 65.2614 752.289 63.7273C752.289 62.5767 752.443 61.5421 752.751 60.6236C753.063 59.7003 753.503 58.9143 754.072 58.2656C754.64 57.617 755.312 57.1198 756.089 56.7741C756.865 56.4285 757.72 56.2557 758.653 56.2557C759.42 56.2557 760.135 56.3717 760.797 56.6037C761.465 56.831 762.059 57.1553 762.58 57.5767C763.106 57.9934 763.544 58.4929 763.894 59.0753C764.244 59.6529 764.486 60.2945 764.618 61H762.8ZM770.703 71.2557C770.012 71.2557 769.385 71.1255 768.821 70.8651C768.258 70.5999 767.81 70.2188 767.479 69.7216C767.147 69.2197 766.982 68.6136 766.982 67.9034C766.982 67.2784 767.105 66.7718 767.351 66.3835C767.597 65.9905 767.926 65.6828 768.338 65.4602C768.75 65.2377 769.205 65.072 769.702 64.9631C770.204 64.8494 770.708 64.7595 771.215 64.6932C771.878 64.608 772.415 64.544 772.827 64.5014C773.244 64.4541 773.547 64.3759 773.736 64.267C773.93 64.1581 774.027 63.9687 774.027 63.6989V63.642C774.027 62.9413 773.835 62.3968 773.452 62.0085C773.073 61.6203 772.498 61.4261 771.726 61.4261C770.926 61.4261 770.298 61.6013 769.844 61.9517C769.389 62.3021 769.07 62.6761 768.885 63.0739L767.294 62.5057C767.578 61.8428 767.957 61.3267 768.431 60.9574C768.909 60.5833 769.43 60.3229 769.993 60.1761C770.561 60.0246 771.12 59.9489 771.669 59.9489C772.02 59.9489 772.422 59.9915 772.877 60.0767C773.336 60.1572 773.779 60.3253 774.205 60.581C774.636 60.8366 774.993 61.2225 775.277 61.7386C775.561 62.2547 775.703 62.946 775.703 63.8125V71H774.027V69.5227H773.942C773.828 69.7595 773.639 70.0128 773.374 70.2827C773.109 70.5526 772.756 70.7822 772.316 70.9716C771.875 71.161 771.338 71.2557 770.703 71.2557ZM770.959 69.75C771.622 69.75 772.181 69.6198 772.635 69.3594C773.094 69.099 773.44 68.7628 773.672 68.3509C773.909 67.9389 774.027 67.5057 774.027 67.0511V65.517C773.956 65.6023 773.8 65.6804 773.558 65.7514C773.322 65.8177 773.047 65.8769 772.735 65.929C772.427 65.9763 772.126 66.0189 771.833 66.0568C771.544 66.09 771.309 66.1184 771.129 66.142C770.694 66.1989 770.287 66.2912 769.908 66.419C769.534 66.5421 769.231 66.7292 768.999 66.9801C768.771 67.2263 768.658 67.5625 768.658 67.9886C768.658 68.571 768.873 69.0114 769.304 69.3097C769.74 69.6032 770.291 69.75 770.959 69.75ZM778.763 71V60.0909H780.382V61.7955H780.524C780.751 61.2131 781.118 60.7609 781.625 60.4389C782.131 60.1122 782.74 59.9489 783.45 59.9489C784.17 59.9489 784.769 60.1122 785.247 60.4389C785.73 60.7609 786.106 61.2131 786.376 61.7955H786.49C786.769 61.232 787.188 60.7846 787.747 60.4531C788.306 60.117 788.976 59.9489 789.757 59.9489C790.732 59.9489 791.53 60.2543 792.15 60.8651C792.771 61.4711 793.081 62.4157 793.081 63.6989V71H791.405V63.6989C791.405 62.8939 791.184 62.3187 790.744 61.973C790.304 61.6274 789.785 61.4545 789.189 61.4545C788.422 61.4545 787.827 61.6866 787.406 62.1506C786.985 62.6098 786.774 63.1922 786.774 63.8977V71H785.069V63.5284C785.069 62.9081 784.868 62.4086 784.466 62.0298C784.063 61.6463 783.545 61.4545 782.91 61.4545C782.475 61.4545 782.068 61.5705 781.689 61.8026C781.315 62.0346 781.012 62.3565 780.78 62.7685C780.552 63.1757 780.439 63.6468 780.439 64.1818V71H778.763ZM800.719 71.2273C799.668 71.2273 798.761 70.9953 797.999 70.5312C797.242 70.0625 796.657 69.4091 796.245 68.571C795.838 67.7282 795.634 66.7481 795.634 65.6307C795.634 64.5133 795.838 63.5284 796.245 62.6761C796.657 61.8191 797.23 61.1515 797.964 60.6733C798.702 60.1903 799.564 59.9489 800.549 59.9489C801.117 59.9489 801.678 60.0436 802.232 60.233C802.786 60.4223 803.29 60.7301 803.745 61.1562C804.199 61.5777 804.562 62.1364 804.831 62.8324C805.101 63.5284 805.236 64.3854 805.236 65.4034V66.1136H796.827V64.6648H803.532C803.532 64.0492 803.409 63.5 803.162 63.017C802.921 62.5341 802.575 62.1529 802.126 61.8736C801.68 61.5942 801.155 61.4545 800.549 61.4545C799.881 61.4545 799.304 61.6203 798.816 61.9517C798.333 62.2784 797.961 62.7045 797.701 63.2301C797.44 63.7557 797.31 64.3191 797.31 64.9205V65.8864C797.31 66.7102 797.452 67.4086 797.736 67.9815C798.025 68.5497 798.425 68.983 798.937 69.2812C799.448 69.5748 800.042 69.7216 800.719 69.7216C801.16 69.7216 801.557 69.66 801.912 69.5369C802.272 69.4091 802.582 69.2197 802.843 68.9688C803.103 68.7131 803.305 68.3958 803.447 68.017L805.066 68.4716C804.895 69.0208 804.609 69.5038 804.206 69.9205C803.804 70.3324 803.307 70.6544 802.715 70.8864C802.123 71.1136 801.458 71.2273 800.719 71.2273ZM815.513 62.5341L814.008 62.9602C813.913 62.7093 813.773 62.4654 813.589 62.2287C813.409 61.9872 813.162 61.7884 812.85 61.6321C812.537 61.4759 812.137 61.3977 811.65 61.3977C810.982 61.3977 810.426 61.5516 809.981 61.8594C809.54 62.1624 809.32 62.5483 809.32 63.017C809.32 63.4337 809.472 63.7628 809.775 64.0043C810.078 64.2457 810.551 64.447 811.195 64.608L812.814 65.0057C813.79 65.2424 814.517 65.6046 814.995 66.0923C815.473 66.5753 815.712 67.1979 815.712 67.9602C815.712 68.5852 815.532 69.1439 815.172 69.6364C814.817 70.1288 814.32 70.517 813.681 70.8011C813.042 71.0852 812.298 71.2273 811.451 71.2273C810.338 71.2273 809.417 70.9858 808.688 70.5028C807.959 70.0199 807.497 69.3144 807.303 68.3864L808.894 67.9886C809.046 68.5758 809.332 69.0161 809.753 69.3097C810.18 69.6032 810.736 69.75 811.422 69.75C812.204 69.75 812.824 69.5843 813.283 69.2528C813.747 68.9167 813.979 68.5142 813.979 68.0455C813.979 67.6667 813.847 67.3494 813.581 67.0938C813.316 66.8333 812.909 66.6392 812.36 66.5114L810.542 66.0852C809.543 65.8485 808.809 65.4815 808.34 64.9844C807.876 64.4825 807.644 63.8551 807.644 63.1023C807.644 62.4867 807.817 61.9422 808.162 61.4688C808.513 60.9953 808.989 60.6236 809.59 60.3537C810.196 60.0838 810.883 59.9489 811.65 59.9489C812.729 59.9489 813.577 60.1856 814.192 60.6591C814.813 61.1326 815.253 61.7576 815.513 62.5341ZM830.735 66.5398V60.0909H832.411V71H830.735V69.1534H830.622C830.366 69.7074 829.968 70.1785 829.428 70.5668C828.889 70.9503 828.207 71.142 827.383 71.142C826.701 71.142 826.095 70.9929 825.565 70.6946C825.035 70.3916 824.618 69.937 824.315 69.331C824.012 68.7202 823.86 67.9508 823.86 67.0227V60.0909H825.536V66.9091C825.536 67.7045 825.759 68.339 826.204 68.8125C826.654 69.286 827.227 69.5227 827.923 69.5227C828.339 69.5227 828.763 69.4162 829.194 69.2031C829.63 68.9901 829.994 68.6634 830.288 68.223C830.586 67.7827 830.735 67.2216 830.735 66.5398ZM835.481 75.0909V60.0909H837.101V61.8239H837.3C837.423 61.6345 837.593 61.393 837.811 61.0994C838.033 60.8011 838.351 60.536 838.763 60.304C839.179 60.0672 839.743 59.9489 840.453 59.9489C841.372 59.9489 842.181 60.1785 842.882 60.6378C843.583 61.0971 844.13 61.7481 844.523 62.5909C844.916 63.4337 845.112 64.428 845.112 65.5739C845.112 66.7292 844.916 67.7306 844.523 68.5781C844.13 69.4209 843.585 70.0743 842.889 70.5384C842.193 70.9976 841.39 71.2273 840.481 71.2273C839.781 71.2273 839.22 71.1113 838.798 70.8793C838.377 70.6425 838.052 70.375 837.825 70.0767C837.598 69.7737 837.423 69.5227 837.3 69.3239H837.157V75.0909H835.481ZM837.129 65.5455C837.129 66.3693 837.25 67.0961 837.491 67.7259C837.733 68.3509 838.086 68.8409 838.55 69.196C839.014 69.5464 839.582 69.7216 840.254 69.7216C840.955 69.7216 841.54 69.5369 842.008 69.1676C842.482 68.7936 842.837 68.2917 843.074 67.6619C843.315 67.0275 843.436 66.322 843.436 65.5455C843.436 64.7784 843.318 64.0871 843.081 63.4716C842.849 62.8513 842.496 62.3613 842.023 62.0014C841.554 61.6368 840.964 61.4545 840.254 61.4545C839.572 61.4545 838.999 61.6274 838.535 61.973C838.071 62.3139 837.721 62.7921 837.484 63.4077C837.247 64.0185 837.129 64.7311 837.129 65.5455ZM858.038 60.0909V61.5114H852.385V60.0909H858.038ZM854.032 57.4773H855.709V67.875C855.709 68.3485 855.777 68.7036 855.915 68.9403C856.057 69.1723 856.237 69.3286 856.454 69.4091C856.677 69.4848 856.911 69.5227 857.157 69.5227C857.342 69.5227 857.494 69.5133 857.612 69.4943C857.73 69.4706 857.825 69.4517 857.896 69.4375L858.237 70.9432C858.123 70.9858 857.965 71.0284 857.761 71.071C857.558 71.1184 857.3 71.142 856.987 71.142C856.514 71.142 856.05 71.0402 855.595 70.8366C855.145 70.633 854.771 70.3229 854.473 69.9062C854.179 69.4896 854.032 68.964 854.032 68.3295V57.4773ZM864.874 71.2273C863.889 71.2273 863.025 70.9929 862.282 70.5241C861.543 70.0554 860.965 69.3996 860.549 68.5568C860.137 67.714 859.931 66.7292 859.931 65.6023C859.931 64.4659 860.137 63.474 860.549 62.6264C860.965 61.7789 861.543 61.1207 862.282 60.652C863.025 60.1832 863.889 59.9489 864.874 59.9489C865.859 59.9489 866.721 60.1832 867.459 60.652C868.203 61.1207 868.78 61.7789 869.192 62.6264C869.609 63.474 869.817 64.4659 869.817 65.6023C869.817 66.7292 869.609 67.714 869.192 68.5568C868.78 69.3996 868.203 70.0554 867.459 70.5241C866.721 70.9929 865.859 71.2273 864.874 71.2273ZM864.874 69.7216C865.622 69.7216 866.238 69.5298 866.721 69.1463C867.204 68.7628 867.561 68.2585 867.793 67.6335C868.025 67.0085 868.141 66.3314 868.141 65.6023C868.141 64.8731 868.025 64.1937 867.793 63.5639C867.561 62.9342 867.204 62.4252 866.721 62.0369C866.238 61.6487 865.622 61.4545 864.874 61.4545C864.126 61.4545 863.51 61.6487 863.028 62.0369C862.545 62.4252 862.187 62.9342 861.955 63.5639C861.723 64.1937 861.607 64.8731 861.607 65.6023C861.607 66.3314 861.723 67.0085 861.955 67.6335C862.187 68.2585 862.545 68.7628 863.028 69.1463C863.51 69.5298 864.126 69.7216 864.874 69.7216Z" fill="white"/>
<path d="M592.532 166.54V160.091H594.208V171H592.532V169.153H592.419C592.163 169.707 591.765 170.179 591.225 170.567C590.686 170.95 590.004 171.142 589.18 171.142C588.498 171.142 587.892 170.993 587.362 170.695C586.831 170.392 586.415 169.937 586.112 169.331C585.809 168.72 585.657 167.951 585.657 167.023V160.091H587.333V166.909C587.333 167.705 587.556 168.339 588.001 168.812C588.451 169.286 589.024 169.523 589.72 169.523C590.136 169.523 590.56 169.416 590.991 169.203C591.427 168.99 591.791 168.663 592.085 168.223C592.383 167.783 592.532 167.222 592.532 166.54ZM605.006 162.534L603.5 162.96C603.405 162.709 603.265 162.465 603.081 162.229C602.901 161.987 602.655 161.788 602.342 161.632C602.03 161.476 601.63 161.398 601.142 161.398C600.474 161.398 599.918 161.552 599.473 161.859C599.032 162.162 598.812 162.548 598.812 163.017C598.812 163.434 598.964 163.763 599.267 164.004C599.57 164.246 600.043 164.447 600.687 164.608L602.307 165.006C603.282 165.242 604.009 165.605 604.487 166.092C604.965 166.575 605.204 167.198 605.204 167.96C605.204 168.585 605.024 169.144 604.665 169.636C604.309 170.129 603.812 170.517 603.173 170.801C602.534 171.085 601.791 171.227 600.943 171.227C599.83 171.227 598.909 170.986 598.18 170.503C597.451 170.02 596.989 169.314 596.795 168.386L598.386 167.989C598.538 168.576 598.824 169.016 599.246 169.31C599.672 169.603 600.228 169.75 600.915 169.75C601.696 169.75 602.316 169.584 602.775 169.253C603.239 168.917 603.471 168.514 603.471 168.045C603.471 167.667 603.339 167.349 603.074 167.094C602.809 166.833 602.401 166.639 601.852 166.511L600.034 166.085C599.035 165.848 598.301 165.482 597.832 164.984C597.368 164.482 597.136 163.855 597.136 163.102C597.136 162.487 597.309 161.942 597.655 161.469C598.005 160.995 598.481 160.624 599.082 160.354C599.688 160.084 600.375 159.949 601.142 159.949C602.221 159.949 603.069 160.186 603.684 160.659C604.305 161.133 604.745 161.758 605.006 162.534ZM607.727 171V160.091H609.404V171H607.727ZM608.58 158.273C608.253 158.273 607.971 158.161 607.735 157.939C607.503 157.716 607.387 157.449 607.387 157.136C607.387 156.824 607.503 156.556 607.735 156.334C607.971 156.111 608.253 156 608.58 156C608.906 156 609.186 156.111 609.418 156.334C609.655 156.556 609.773 156.824 609.773 157.136C609.773 157.449 609.655 157.716 609.418 157.939C609.186 158.161 608.906 158.273 608.58 158.273ZM614.15 164.438V171H612.474V160.091H614.093V161.795H614.235C614.491 161.241 614.879 160.796 615.4 160.46C615.921 160.119 616.593 159.949 617.417 159.949C618.155 159.949 618.802 160.1 619.356 160.403C619.91 160.702 620.34 161.156 620.648 161.767C620.956 162.373 621.11 163.14 621.11 164.068V171H619.434V164.182C619.434 163.325 619.211 162.657 618.766 162.179C618.321 161.696 617.71 161.455 616.934 161.455C616.399 161.455 615.921 161.571 615.499 161.803C615.082 162.035 614.753 162.373 614.512 162.818C614.27 163.263 614.15 163.803 614.15 164.438ZM628.576 175.318C627.767 175.318 627.07 175.214 626.488 175.006C625.906 174.802 625.42 174.532 625.032 174.196C624.649 173.865 624.343 173.509 624.116 173.131L625.451 172.193C625.603 172.392 625.794 172.619 626.026 172.875C626.258 173.135 626.576 173.36 626.978 173.55C627.385 173.744 627.918 173.841 628.576 173.841C629.457 173.841 630.184 173.628 630.757 173.202C631.329 172.776 631.616 172.108 631.616 171.199V168.983H631.474C631.351 169.182 631.176 169.428 630.948 169.722C630.726 170.01 630.404 170.268 629.982 170.496C629.566 170.718 629.002 170.83 628.292 170.83C627.411 170.83 626.621 170.621 625.92 170.205C625.224 169.788 624.672 169.182 624.265 168.386C623.863 167.591 623.661 166.625 623.661 165.489C623.661 164.371 623.858 163.398 624.251 162.57C624.644 161.736 625.191 161.092 625.892 160.638C626.592 160.179 627.402 159.949 628.32 159.949C629.031 159.949 629.594 160.067 630.011 160.304C630.432 160.536 630.754 160.801 630.977 161.099C631.204 161.393 631.379 161.634 631.502 161.824H631.673V160.091H633.292V171.312C633.292 172.25 633.079 173.012 632.653 173.599C632.231 174.191 631.663 174.625 630.948 174.899C630.238 175.179 629.447 175.318 628.576 175.318ZM628.519 169.324C629.192 169.324 629.76 169.17 630.224 168.862C630.688 168.554 631.041 168.112 631.282 167.534C631.524 166.956 631.644 166.265 631.644 165.46C631.644 164.674 631.526 163.981 631.289 163.379C631.052 162.778 630.702 162.307 630.238 161.966C629.774 161.625 629.201 161.455 628.519 161.455C627.809 161.455 627.217 161.634 626.744 161.994C626.275 162.354 625.922 162.837 625.686 163.443C625.454 164.049 625.338 164.722 625.338 165.46C625.338 166.218 625.456 166.888 625.693 167.47C625.934 168.048 626.289 168.502 626.758 168.834C627.231 169.161 627.819 169.324 628.519 169.324Z" fill="white"/>
<path d="M644.222 171H640.927L645.948 156.455H649.911L654.926 171H651.63L647.987 159.778H647.873L644.222 171ZM644.017 165.283H651.801V167.683H644.017V165.283ZM661.041 171.213C659.923 171.213 658.962 170.976 658.157 170.503C657.357 170.025 656.741 169.362 656.311 168.514C655.884 167.667 655.671 166.691 655.671 165.588C655.671 164.471 655.887 163.491 656.318 162.648C656.753 161.8 657.371 161.14 658.171 160.666C658.972 160.188 659.923 159.949 661.026 159.949C661.978 159.949 662.811 160.122 663.526 160.467C664.241 160.813 664.807 161.298 665.224 161.923C665.641 162.548 665.87 163.282 665.913 164.125H663.058C662.977 163.58 662.764 163.143 662.419 162.811C662.078 162.475 661.63 162.307 661.076 162.307C660.607 162.307 660.198 162.435 659.847 162.69C659.502 162.941 659.232 163.308 659.038 163.791C658.844 164.274 658.747 164.859 658.747 165.545C658.747 166.241 658.841 166.833 659.031 167.321C659.225 167.809 659.497 168.18 659.847 168.436C660.198 168.692 660.607 168.82 661.076 168.82C661.422 168.82 661.732 168.749 662.007 168.607C662.286 168.464 662.516 168.259 662.695 167.989C662.88 167.714 663.001 167.385 663.058 167.001H665.913C665.865 167.835 665.638 168.569 665.231 169.203C664.829 169.833 664.272 170.325 663.562 170.68C662.852 171.036 662.011 171.213 661.041 171.213ZM672.779 171.213C671.662 171.213 670.7 170.976 669.895 170.503C669.095 170.025 668.48 169.362 668.049 168.514C667.623 167.667 667.41 166.691 667.41 165.588C667.41 164.471 667.625 163.491 668.056 162.648C668.492 161.8 669.109 161.14 669.91 160.666C670.71 160.188 671.662 159.949 672.765 159.949C673.716 159.949 674.55 160.122 675.265 160.467C675.98 160.813 676.546 161.298 676.962 161.923C677.379 162.548 677.608 163.282 677.651 164.125H674.796C674.715 163.58 674.502 163.143 674.157 162.811C673.816 162.475 673.368 162.307 672.814 162.307C672.346 162.307 671.936 162.435 671.586 162.69C671.24 162.941 670.97 163.308 670.776 163.791C670.582 164.274 670.485 164.859 670.485 165.545C670.485 166.241 670.58 166.833 670.769 167.321C670.963 167.809 671.235 168.18 671.586 168.436C671.936 168.692 672.346 168.82 672.814 168.82C673.16 168.82 673.47 168.749 673.745 168.607C674.024 168.464 674.254 168.259 674.434 167.989C674.618 167.714 674.739 167.385 674.796 167.001H677.651C677.604 167.835 677.376 168.569 676.969 169.203C676.567 169.833 676.01 170.325 675.3 170.68C674.59 171.036 673.75 171.213 672.779 171.213ZM684.56 171.213C683.438 171.213 682.472 170.986 681.662 170.531C680.857 170.072 680.237 169.423 679.801 168.585C679.366 167.742 679.148 166.746 679.148 165.595C679.148 164.473 679.366 163.488 679.801 162.641C680.237 161.793 680.85 161.133 681.641 160.659C682.436 160.186 683.369 159.949 684.439 159.949C685.159 159.949 685.829 160.065 686.449 160.297C687.074 160.524 687.619 160.867 688.083 161.327C688.551 161.786 688.916 162.364 689.176 163.06C689.437 163.751 689.567 164.561 689.567 165.489V166.32H680.355V164.445H686.719C686.719 164.009 686.624 163.623 686.435 163.287C686.245 162.951 685.983 162.688 685.646 162.499C685.315 162.304 684.929 162.207 684.489 162.207C684.03 162.207 683.622 162.314 683.267 162.527C682.917 162.735 682.642 163.017 682.443 163.372C682.244 163.723 682.143 164.113 682.138 164.544V166.327C682.138 166.866 682.237 167.333 682.436 167.726C682.64 168.119 682.926 168.422 683.296 168.635C683.665 168.848 684.103 168.955 684.61 168.955C684.946 168.955 685.253 168.907 685.533 168.812C685.812 168.718 686.051 168.576 686.25 168.386C686.449 168.197 686.601 167.965 686.705 167.69L689.503 167.875C689.361 168.547 689.07 169.134 688.629 169.636C688.194 170.134 687.63 170.522 686.939 170.801C686.253 171.076 685.459 171.213 684.56 171.213ZM700.618 163.202L697.848 163.372C697.801 163.135 697.699 162.922 697.543 162.733C697.387 162.539 697.181 162.385 696.925 162.271C696.674 162.153 696.373 162.094 696.023 162.094C695.554 162.094 695.159 162.193 694.837 162.392C694.515 162.586 694.354 162.847 694.354 163.173C694.354 163.434 694.458 163.654 694.666 163.834C694.875 164.014 695.232 164.158 695.739 164.267L697.713 164.665C698.774 164.883 699.565 165.233 700.085 165.716C700.606 166.199 700.867 166.833 700.867 167.619C700.867 168.334 700.656 168.962 700.235 169.501C699.818 170.041 699.245 170.463 698.516 170.766C697.791 171.064 696.956 171.213 696.009 171.213C694.565 171.213 693.414 170.912 692.557 170.311C691.705 169.705 691.205 168.881 691.058 167.839L694.034 167.683C694.124 168.124 694.342 168.46 694.688 168.692C695.033 168.919 695.476 169.033 696.016 169.033C696.546 169.033 696.972 168.931 697.294 168.727C697.621 168.519 697.787 168.251 697.791 167.925C697.787 167.65 697.671 167.425 697.443 167.25C697.216 167.07 696.866 166.933 696.392 166.838L694.503 166.462C693.438 166.249 692.645 165.879 692.124 165.354C691.608 164.828 691.35 164.158 691.35 163.344C691.35 162.643 691.539 162.039 691.918 161.533C692.301 161.026 692.839 160.635 693.53 160.361C694.226 160.086 695.04 159.949 695.973 159.949C697.351 159.949 698.435 160.24 699.226 160.822C700.021 161.405 700.485 162.198 700.618 163.202ZM711.849 163.202L709.079 163.372C709.031 163.135 708.93 162.922 708.773 162.733C708.617 162.539 708.411 162.385 708.155 162.271C707.904 162.153 707.604 162.094 707.253 162.094C706.785 162.094 706.389 162.193 706.067 162.392C705.745 162.586 705.584 162.847 705.584 163.173C705.584 163.434 705.689 163.654 705.897 163.834C706.105 164.014 706.463 164.158 706.969 164.267L708.944 164.665C710.004 164.883 710.795 165.233 711.316 165.716C711.837 166.199 712.097 166.833 712.097 167.619C712.097 168.334 711.886 168.962 711.465 169.501C711.048 170.041 710.475 170.463 709.746 170.766C709.022 171.064 708.186 171.213 707.239 171.213C705.795 171.213 704.644 170.912 703.787 170.311C702.935 169.705 702.436 168.881 702.289 167.839L705.265 167.683C705.355 168.124 705.573 168.46 705.918 168.692C706.264 168.919 706.706 169.033 707.246 169.033C707.777 169.033 708.203 168.931 708.525 168.727C708.851 168.519 709.017 168.251 709.022 167.925C709.017 167.65 708.901 167.425 708.674 167.25C708.447 167.07 708.096 166.933 707.623 166.838L705.733 166.462C704.668 166.249 703.875 165.879 703.354 165.354C702.838 164.828 702.58 164.158 702.58 163.344C702.58 162.643 702.769 162.039 703.148 161.533C703.532 161.026 704.069 160.635 704.76 160.361C705.456 160.086 706.271 159.949 707.204 159.949C708.581 159.949 709.666 160.24 710.456 160.822C711.252 161.405 711.716 162.198 711.849 163.202ZM718.931 171.213C717.828 171.213 716.874 170.979 716.069 170.51C715.269 170.036 714.651 169.378 714.215 168.536C713.78 167.688 713.562 166.705 713.562 165.588C713.562 164.461 713.78 163.476 714.215 162.634C714.651 161.786 715.269 161.128 716.069 160.659C716.874 160.186 717.828 159.949 718.931 159.949C720.035 159.949 720.986 160.186 721.786 160.659C722.591 161.128 723.212 161.786 723.647 162.634C724.083 163.476 724.301 164.461 724.301 165.588C724.301 166.705 724.083 167.688 723.647 168.536C723.212 169.378 722.591 170.036 721.786 170.51C720.986 170.979 720.035 171.213 718.931 171.213ZM718.945 168.869C719.447 168.869 719.866 168.727 720.203 168.443C720.539 168.154 720.792 167.761 720.963 167.264C721.138 166.767 721.225 166.201 721.225 165.567C721.225 164.932 721.138 164.366 720.963 163.869C720.792 163.372 720.539 162.979 720.203 162.69C719.866 162.402 719.447 162.257 718.945 162.257C718.439 162.257 718.013 162.402 717.667 162.69C717.326 162.979 717.068 163.372 716.893 163.869C716.722 164.366 716.637 164.932 716.637 165.567C716.637 166.201 716.722 166.767 716.893 167.264C717.068 167.761 717.326 168.154 717.667 168.443C718.013 168.727 718.439 168.869 718.945 168.869ZM726.268 171V160.091H729.201V161.994H729.315C729.514 161.317 729.847 160.806 730.316 160.46C730.785 160.11 731.325 159.935 731.936 159.935C732.087 159.935 732.25 159.944 732.426 159.963C732.601 159.982 732.755 160.008 732.887 160.041V162.726C732.745 162.683 732.549 162.645 732.298 162.612C732.047 162.579 731.817 162.562 731.609 162.562C731.164 162.562 730.766 162.66 730.416 162.854C730.07 163.043 729.795 163.308 729.592 163.649C729.393 163.99 729.294 164.383 729.294 164.828V171H726.268ZM734.452 171V160.091H737.477V171H734.452ZM735.971 158.685C735.522 158.685 735.136 158.536 734.814 158.237C734.497 157.934 734.338 157.572 734.338 157.151C734.338 156.734 734.497 156.376 734.814 156.078C735.136 155.775 735.522 155.624 735.971 155.624C736.421 155.624 736.805 155.775 737.122 156.078C737.444 156.376 737.605 156.734 737.605 157.151C737.605 157.572 737.444 157.934 737.122 158.237C736.805 158.536 736.421 158.685 735.971 158.685ZM744.872 171.213C743.75 171.213 742.784 170.986 741.975 170.531C741.17 170.072 740.549 169.423 740.114 168.585C739.678 167.742 739.46 166.746 739.46 165.595C739.46 164.473 739.678 163.488 740.114 162.641C740.549 161.793 741.163 161.133 741.953 160.659C742.749 160.186 743.682 159.949 744.752 159.949C745.471 159.949 746.141 160.065 746.762 160.297C747.387 160.524 747.931 160.867 748.395 161.327C748.864 161.786 749.228 162.364 749.489 163.06C749.749 163.751 749.879 164.561 749.879 165.489V166.32H740.668V164.445H747.031C747.031 164.009 746.937 163.623 746.747 163.287C746.558 162.951 746.295 162.688 745.959 162.499C745.628 162.304 745.242 162.207 744.801 162.207C744.342 162.207 743.935 162.314 743.58 162.527C743.229 162.735 742.955 163.017 742.756 163.372C742.557 163.723 742.455 164.113 742.45 164.544V166.327C742.45 166.866 742.55 167.333 742.749 167.726C742.952 168.119 743.239 168.422 743.608 168.635C743.977 168.848 744.415 168.955 744.922 168.955C745.258 168.955 745.566 168.907 745.845 168.812C746.125 168.718 746.364 168.576 746.563 168.386C746.762 168.197 746.913 167.965 747.017 167.69L749.816 167.875C749.673 168.547 749.382 169.134 748.942 169.636C748.506 170.134 747.943 170.522 747.252 170.801C746.565 171.076 745.772 171.213 744.872 171.213ZM760.931 163.202L758.161 163.372C758.113 163.135 758.012 162.922 757.855 162.733C757.699 162.539 757.493 162.385 757.237 162.271C756.986 162.153 756.686 162.094 756.335 162.094C755.867 162.094 755.471 162.193 755.149 162.392C754.827 162.586 754.666 162.847 754.666 163.173C754.666 163.434 754.771 163.654 754.979 163.834C755.187 164.014 755.545 164.158 756.051 164.267L758.026 164.665C759.086 164.883 759.877 165.233 760.398 165.716C760.919 166.199 761.179 166.833 761.179 167.619C761.179 168.334 760.968 168.962 760.547 169.501C760.13 170.041 759.557 170.463 758.828 170.766C758.104 171.064 757.268 171.213 756.321 171.213C754.877 171.213 753.727 170.912 752.869 170.311C752.017 169.705 751.518 168.881 751.371 167.839L754.347 167.683C754.437 168.124 754.655 168.46 755 168.692C755.346 168.919 755.789 169.033 756.328 169.033C756.859 169.033 757.285 168.931 757.607 168.727C757.933 168.519 758.099 168.251 758.104 167.925C758.099 167.65 757.983 167.425 757.756 167.25C757.529 167.07 757.178 166.933 756.705 166.838L754.816 166.462C753.75 166.249 752.957 165.879 752.436 165.354C751.92 164.828 751.662 164.158 751.662 163.344C751.662 162.643 751.852 162.039 752.23 161.533C752.614 161.026 753.151 160.635 753.843 160.361C754.539 160.086 755.353 159.949 756.286 159.949C757.664 159.949 758.748 160.24 759.539 160.822C760.334 161.405 760.798 162.198 760.931 163.202Z" fill="#BCED09"/>
</g>
<defs>
<filter id="filter0_dd_2404_29726" x="0" y="0" width="1347" height="233" filterUnits="userSpaceOnUse" color-interpolation-filters="sRGB">
<feFlood flood-opacity="0" result="BackgroundImageFix"/>
<feColorMatrix in="SourceAlpha" type="matrix" values="0 0 0 0 0 0 0 0 0 0 0 0 0 0 0 0 0 0 127 0" result="hardAlpha"/>
<feOffset dy="1"/>
<feGaussianBlur stdDeviation="1"/>
<feColorMatrix type="matrix" values="0 0 0 0 0 0 0 0 0 0 0 0 0 0 0 0 0 0 0.3 0"/>
<feBlend mode="normal" in2="BackgroundImageFix" result="effect1_dropShadow_2404_29726"/>
<feColorMatrix in="SourceAlpha" type="matrix" values="0 0 0 0 0 0 0 0 0 0 0 0 0 0 0 0 0 0 127 0" result="hardAlpha"/>
<feOffset dy="2"/>
<feGaussianBlur stdDeviation="3"/>
<feColorMatrix type="matrix" values="0 0 0 0 0 0 0 0 0 0 0 0 0 0 0 0 0 0 0.15 0"/>
<feBlend mode="normal" in2="effect1_dropShadow_2404_29726" result="effect2_dropShadow_2404_29726"/>
<feBlend mode="normal" in="SourceGraphic" in2="effect2_dropShadow_2404_29726" result="shape"/>
</filter>
<linearGradient id="paint0_linear_2404_29726" x1="652" y1="4" x2="652" y2="225" gradientUnits="userSpaceOnUse">
<stop stop-color="#808793"/>
<stop offset="1" stop-color="#0F1112"/>
</linearGradient>
</defs>
</svg>
