<svg version="1.2" xmlns="http://www.w3.org/2000/svg" viewBox="0 0 64 64" width="64" height="64">
	<title>rps-logo-dd-svg</title>
	<style>
		.s0 { fill: #ffffff } 
	</style>
	<path id="Layer" class="s0" d="m34.1 55.9l15.2 5.8c0.5 0.2 1.1 0.1 1.6-0.1 0.5-0.2 0.9-0.6 1-1.1l4.8-13q3.1-8.2 1.4-14.3-1.6-6-8.5-12.8l-7 6.4q4.2 4.3 5.2 7.4c0.7 2.1 0.8 4.4 0.1 6.5l-7.2-2.8c-0.5-0.2-1.1-0.1-1.6 0.1-0.5 0.2-0.8 0.6-1 1.1l-5.2 14.1c-0.2 0.6-0.2 1.1 0 1.6 0.3 0.5 0.7 0.9 1.2 1.1z"/>
	<path id="Layer" class="s0" d="m31.2 38.6l-15.9 3.6q-0.4 0-0.8 0-0.4-0.1-0.7-0.3-0.4-0.2-0.6-0.5-0.2-0.4-0.3-0.7l-3.1-12.9q-1.9-8.2 0.5-13.8 2.4-5.5 10.1-11l6.1 6.9q-4.6 3.6-6.1 6.4c-1 1.9-1.3 4-0.9 6.1l7.5-1.6c0.5-0.2 1.1-0.1 1.5 0.2q0.8 0.4 0.9 1.2l3.3 14.1q0.2 0.7-0.3 1.5c-0.2 0.4-0.7 0.7-1.2 0.8z"/>
</svg>