<svg version="1.2" xmlns="http://www.w3.org/2000/svg" viewBox="0 0 1000 1600" width="1000" height="1600">
	<title>bear-svg</title>
	<defs>
		<clipPath clipPathUnits="userSpaceOnUse" id="cp1">
			<path d="m0 50c0-27.61 22.39-50 50-50h900c27.61 0 50 22.39 50 50v1500c0 27.61-22.39 50-50 50h-900c-27.61 0-50-22.39-50-50z"/>
		</clipPath>
		<linearGradient id="g1" x2="1" gradientUnits="userSpaceOnUse" gradientTransform="matrix(995,1571.5,-1413.425,894.914,0,17.5)">
			<stop offset="0" stop-color="#52a32c"/>
			<stop offset="1" stop-color="#1d5403"/>
		</linearGradient>
		<linearGradient id="g2" x2="1" gradientUnits="userSpaceOnUse" gradientTransform="matrix(515.5,-847,96.465,58.71,-44.5,669)">
			<stop offset="0" stop-color="#ffffff" stop-opacity="1"/>
			<stop offset="1" stop-color="#ffffff" stop-opacity=".37"/>
		</linearGradient>
		<linearGradient id="g3" x2="1" gradientUnits="userSpaceOnUse" gradientTransform="matrix(510.485,-821.05,61.319,38.125,-206.712,762.96)">
			<stop offset="0" stop-color="#194186" stop-opacity="1"/>
			<stop offset="1" stop-color="#ffffff" stop-opacity=".37"/>
		</linearGradient>
		<linearGradient id="g4" x2="1" gradientUnits="userSpaceOnUse" gradientTransform="matrix(792,0,0,116,104,1148.6)">
			<stop offset="0" stop-color="#50a02b"/>
			<stop offset="1" stop-color="#3a7f19"/>
		</linearGradient>
		<linearGradient id="g5" x2="1" gradientUnits="userSpaceOnUse" gradientTransform="matrix(792,0,0,116,104,1293.6)">
			<stop offset="0" stop-color="#50a02b"/>
			<stop offset="1" stop-color="#3a7f19"/>
		</linearGradient>
		<clipPath clipPathUnits="userSpaceOnUse" id="cp2">
			<path d="m832 1190c-24.33 0-44-19.67-44-44 0-24.33 19.67-44 44-44 24.33 0 44 19.67 44 44 0 24.33-19.67 44-44 44z"/>
		</clipPath>
		<linearGradient id="g6" x2="1" gradientUnits="userSpaceOnUse" gradientTransform="matrix(792,0,0,116,104,1438.6)">
			<stop offset="0" stop-color="#50a02b"/>
			<stop offset="1" stop-color="#3a7f19"/>
		</linearGradient>
		<clipPath clipPathUnits="userSpaceOnUse" id="cp3">
			<path d="m613 1483c-24.33 0-44-19.67-44-44 0-24.33 19.67-44 44-44 24.33 0 44 19.67 44 44 0 24.33-19.67 44-44 44z"/>
		</clipPath>
		<clipPath clipPathUnits="userSpaceOnUse" id="cp4">
			<path d="m501 1483c-24.33 0-44-19.67-44-44 0-24.33 19.67-44 44-44 24.33 0 44 19.67 44 44 0 24.33-19.67 44-44 44z"/>
		</clipPath>
		<clipPath clipPathUnits="userSpaceOnUse" id="cp5">
			<path d="m724 1483c-24.33 0-44-19.67-44-44 0-24.33 19.67-44 44-44 24.33 0 44 19.67 44 44 0 24.33-19.67 44-44 44z"/>
		</clipPath>
		<clipPath clipPathUnits="userSpaceOnUse" id="cp6">
			<path d="m832 1337c-24.33 0-44-19.67-44-44 0-24.33 19.67-44 44-44 24.33 0 44 19.67 44 44 0 24.33-19.67 44-44 44z"/>
		</clipPath>
		<clipPath clipPathUnits="userSpaceOnUse" id="cp7">
			<path d="m834 1478c-24.33 0-44-19.67-44-44 0-24.33 19.67-44 44-44 24.33 0 44 19.67 44 44 0 24.33-19.67 44-44 44z"/>
		</clipPath>
		<linearGradient id="g7" x2="1" gradientUnits="userSpaceOnUse" gradientTransform="matrix(30.975,40.164,-41.553,32.046,339.666,980.726)">
			<stop offset="0" stop-color="#ffe500"/>
			<stop offset="1" stop-color="#ffc42b"/>
		</linearGradient>
		<linearGradient id="g8" x2="1" gradientUnits="userSpaceOnUse" gradientTransform="matrix(0,537.267,-489.644,0,500.435,174.641)">
			<stop offset="0" stop-color="#b4cc13"/>
			<stop offset=".72" stop-color="#41ad49"/>
		</linearGradient>
		<linearGradient id="g9" x2="1" gradientUnits="userSpaceOnUse" gradientTransform="matrix(-389.964,-407.571,411.805,-394.015,699.981,656.962)">
			<stop offset=".05" stop-color="#0c772a"/>
			<stop offset="1" stop-color="#054a35"/>
		</linearGradient>
		<linearGradient id="g10" x2="1" gradientUnits="userSpaceOnUse" gradientTransform="matrix(0,45.221,-40.914,0,575.995,359.192)">
			<stop offset="0" stop-color="#b4cc13"/>
			<stop offset=".72" stop-color="#41ad49"/>
		</linearGradient>
		<linearGradient id="g11" x2="1" gradientUnits="userSpaceOnUse" gradientTransform="matrix(0,45.221,-39.838,0,423.505,359.192)">
			<stop offset="0" stop-color="#b4cc13"/>
			<stop offset=".72" stop-color="#41ad49"/>
		</linearGradient>
		<linearGradient id="g12" x2="1" gradientUnits="userSpaceOnUse" gradientTransform="matrix(0,215.745,-235.769,0,499.471,343.605)">
			<stop offset="0" stop-color="#b4cc13"/>
			<stop offset=".72" stop-color="#41ad49"/>
		</linearGradient>
	</defs>
	<style>
		tspan { white-space:pre } 
		.s0 { fill: url(#g1) } 
		.s1 { opacity: .1;fill: url(#g2) } 
		.s2 { opacity: .1;fill: url(#g3) } 
		.s3 { fill: #ffffff } 
		.s4 { fill: url(#g4) } 
		.s5 { fill: url(#g5) } 
		.s6 { fill: #ffc136 } 
		.s7 { fill: #3c2900 } 
		.s8 { fill: url(#g6) } 
		.s9 { fill: #56d69c } 
		.s10 { fill: #0e3e28;stroke: #0e3e28 } 
		.s11 { fill: #4774ca } 
		.s12 { fill: #163571 } 
		.s13 { fill: #8f3e02 } 
		.s14 { fill: #583114 } 
		.s15 { fill: #cc8f35 } 
		.s16 { fill: #ffffff;stroke: #142e46;stroke-width: 2 } 
		.s17 { fill: none;stroke: #142e46;stroke-width: 2 } 
		.s18 { fill: #142e46 } 
		.s19 { fill: #d81719 } 
		.s20 { fill: #600809 } 
		.s21 { fill: url(#g7) } 
		.s22 { fill: #4f972c } 
		.s23 { fill: url(#g8) } 
		.s24 { fill: url(#g9) } 
		.s25 { fill: url(#g10) } 
		.s26 { fill: url(#g11) } 
		.s27 { fill: url(#g12) } 
		.s28 { fill: #106a41 } 
		.t29 { font-size: 60px;fill: #ffffff;font-weight: 400;font-family: "DejaVuSans", "DejaVu Sans" } 
	</style>
	<g id="Clip-Path" clip-path="url(#cp1)">
		<g id="Layer">
			<path id="Layer" class="s0" d="m0 50c0-27.6 22.4-50 50-50h900c27.6 0 50 22.4 50 50v1500c0 27.6-22.4 50-50 50h-900c-27.6 0-50-22.4-50-50z"/>
			<path id="Layer" class="s1" d="m525.5-322l-675.5 1013 78 54 673.5-1021z"/>
			<path id="Layer" class="s2" d="m367.5-209l-675.5 1013 48 33.5 673.5-1021z"/>
			<path id="Layer" fill-rule="evenodd" class="s3" d="m383.1 82h27.8c14.6 0 22.3 6.3 22.3 16 0 7.1-4.9 12.5-12.3 14v0.6c8.2 0.3 14.8 6.2 14.8 15.3 0 10.5-8.5 18.1-22.5 18.1h-30.1zm25.5 50.1c5.9 0 8.8-2.2 8.8-6.5 0-4.5-3.2-7-8.5-7h-8.4v13.5zm-1-24.2c4.6 0 7.7-2.2 7.7-6.2 0-3.9-3.1-6.1-7.5-6.1h-7.3v12.3zm34.3-25.9h46.1v14h-28.8v11h26.4v14h-26.4v11h28.7v14h-46zm52.6 64l21.1-64h23.7l21.2 64h-18.8l-3.7-12.3h-21.1l-3.7 12.3zm39.6-25.3l-6.3-21.1h-0.5l-6.4 21.1zm32.5-38.7h27.7c14.2 0 23.7 8.1 23.7 21.7 0 8.9-4.1 15.1-10.9 18.4l13 23.9h-18.8l-11.3-21.1h-6v21.1h-17.4zm23.5 29.4c6.1 0 9.8-2.2 9.8-7.6 0-5.5-3.7-7.9-9.8-7.9h-6.1v15.5z"/>
			<path id="Layer" class="s4" d="m104 1148c0-32 26-58 58-58h676c32 0 58 26 58 58 0 32-26 58-58 58h-676c-32 0-58-26-58-58z"/>
			<path id="Layer" class="s5" d="m104 1293c0-32 26-58 58-58h676c32 0 58 26 58 58 0 32-26 58-58 58h-676c-32 0-58-26-58-58z"/>
			<path id="Layer" class="s6" d="m832 1190c-24.3 0-44-19.7-44-44 0-24.3 19.7-44 44-44 24.3 0 44 19.7 44 44 0 24.3-19.7 44-44 44z"/>
			<g id="Clip-Path" clip-path="url(#cp2)">
				<g id="Layer">
					<path id="Layer" class="s7" d="m810.1 1175.8l-29.2 19.1-11.5-29.9 27.9-12.2 6.1-13 13.8-3.6 4.1-2.2 20.7-17.2 5.9-0.1 2 2.3 0.4 4.9-19.4 16.6 27.2-5.6 1 0.5 2.4 3.1-0.6 4.9-2.9 2.3-17.9 4.2-6.6 1.7 2.8 0.1 1.8 1.6 1.1 3.8-0.6 3.1 1 1.3-1.6 6-2.9 2.5-3.3 0.2-1.8 0.9-8.7 4.8z"/>
					<path id="Layer" class="s3" d="m810 1173.8l-26.1 16.4-11.1-24 26.7-11.5 5.5-12.4 12.6-3.6 6.7 12.3-2.4 2.4-4.5-1.6-3.3-3-0.1-3.2-1 2.4-3.2 2.7 1.5-0.4 2.7 5.1-5.1 6.7 8.3-3.8 3.8 11.1 7.8 0.4-8 4.3z"/>
					<path id="Layer" class="s3" d="m821.4 1167.2l1.1 1.2 12.1-0.2 2-2 1-4.5-14.5 2.3-2 1z"/>
					<path id="Layer" class="s3" d="m837.1 1159.1l-1.5 1.5-14.9 1.2-1-3.5 1.4-1.3 12.1-3.8 2.7 0.4 1.2 2.1z"/>
					<path id="Layer" class="s3" d="m859 1142.1l-1.6 1.6-24.2 5.8-2.4-0.2 1.5 2.8-4.9 1.5-8.4-15.7 3.6-2 20.1-16.6 3.7-0.4 1.7 1.1 0.6 3.1-20.1 17.1-3.9 0.5 2.8 0.8 0.2 2.1 29.8-6.4 1.5 1.9z"/>
				</g>
			</g>
			<path id="Layer" class="s8" d="m104 1438c0-32 26-58 58-58h676c32 0 58 26 58 58 0 32-26 58-58 58h-676c-32 0-58-26-58-58z"/>
			<path id="Layer" class="s9" d="m613 1483c-24.3 0-44-19.7-44-44 0-24.3 19.7-44 44-44 24.3 0 44 19.7 44 44 0 24.3-19.7 44-44 44z"/>
			<g id="Clip-Path" clip-path="url(#cp3)">
				<g id="Layer">
					<path id="Layer" class="s10" d="m567.2 1453.1l18.9-8.8 2.7-9.6 6.3-14.9v-0.1l0.2-0.1 2.9-1.7 0.2-0.1 0.3 0.1 2.9 1.6 0.3 0.1v0.3l0.4 2.5v0.1l-1.3 7.9 4.1-1.7 18.9-10.3h0.1l2.1-0.7 0.2-0.1 0.2 0.1 2.7 1.4 0.3 0.2-0.1 0.3-0.8 3.3v0.1l-0.1 0.1-0.8 0.7 1.5-0.9 0.1-0.1h0.1l3.5-0.2 0.5-0.1 0.1 0.5 0.1 3.6v0.1l-0.1 0.1-0.9 2.5v0.1l-0.1 0.1-0.5 0.4v0.1h-0.1l-6.2 4 5.1-2.6 0.1-0.1 0.2 0.1 3.4 0.3h0.5v0.5l-0.4 4.1v0.2l-0.1 0.1-1.7 1.5v0.1h-0.1l-2.9 1.8 3.6 0.2h0.5v0.5l-0.1 3.3v0.2l-0.1 0.2-2 1.7-25.9 16-0.2 0.1h-0.1-8.3l-17.3 13-0.4 0.3-0.3-0.5-12.3-21.2-0.2-0.4z"/>
					<path id="Layer" class="s3" d="m597.1 1460.8l-18.6 13.9-11.4-19.8 20.2-9.8 2.9-9.9 6-14.8 2.3-1.1 2.1 0.9 0.5 2.4-1.7 9.9 6.1-2.9 18.8-10 2.1-0.8 1.9 1.1-0.7 2.1-1.7 1.8-13.6 9.5-0.3 0.6-0.3 0.5 0.7-0.2 0.3 0.8 0.2-1.3 16.7-9.5 2.4-0.3 0.2 2.7-0.7 2.1-16.6 10.5-0.3 1.9 0.8-0.3 0.6 1-0.1-1.5 14.8-7.5 2.8 0.1v2.7l-1.2 1.3-15.9 10.1-1.3 2.3 0.9-0.3 0.9 1.8-0.1-2.5 12.4-7.1 3.1 0.1 0.2 2.3-1.2 1.4-25.6 15.9z"/>
				</g>
			</g>
			<path id="Layer" class="s11" d="m501 1483c-24.3 0-44-19.7-44-44 0-24.3 19.7-44 44-44 24.3 0 44 19.7 44 44 0 24.3-19.7 44-44 44z"/>
			<g id="Clip-Path" clip-path="url(#cp4)">
				<g id="Layer">
					<path id="Layer" class="s12" d="m488 1461.7l-15.1 12.3-1.4 1-14.9-21.2 18.7-16.2 0.2-1.5-0.1-3.2 2.3-4.9 4-3.4 6.2-1.5 3.4-0.2 4.3 1.8 3 1.1 2.7 1.7 0.7 1.1 0.3 0.4 1.9-1.1 5.2-3.7 3.1-4.6 2.9-2.3 1.9-0.1 2.3 1 0.5 1.1 0.8 0.2 1.9 1.1 2.2 0.7 1.4 2-0.1 1.7 1.7 0.5 0.5 3.2-2.4 8.2-4.7 7.3-5.5 5.1-4.4 2.6-5.2 5-9.3 5.3z"/>
					<path id="Layer" class="s3" d="m487.6 1460l-2.2 1.6-17.4 14.7-13.3-19.1 22.1-18.8 0.3-2.3-0.2-2.7 2.1-4.5 3.3-2.6 6.1-1.7 2.6-0.1 4.3 1.7 2.3 0.7 2.5 1.4 0.8 1.1 0.3 1.4 1.4-0.5 2.3-1.1 5.6-4 1-1.7 2.1-3 2-1.8h1.4l1.7 0.5 0.6 1.6h1.1l1.9 1 1.7 0.5 1.1 1.5-0.3 2 2.2 0.7 0.3 2.1-2.4 7.6-4.7 7-5.5 4.8-4.3 2.7-5.1 4.8-8.6 5z"/>
					<path id="Layer" class="s12" d="m493.6 1431.3l-1-2.4-1.6-0.5-0.2 0.7 1.4 0.9 0.5 1.7-0.2 1.3 0.8 2.1-1 3.2 0.9 1.1 2.3 1.7-1.9-2.8 0.9-2.8-0.6-2.3 1.5-0.7 2.5-0.2 2.5 0.3 0.8-1.8-1.1 1.3-2.1-0.3-2.2-0.3-1 0.2z"/>
					<path id="Layer" class="s12" d="m501.4 1435.9l-1.1-2.5 1.5 1.2 0.4 1.1 1.1 0.3 0.6-0.2 1.3-0.9 2.1-0.9 1.7-1 2.1-1.3 3-3.2 1.2-1.7 3.9-6.6 0.5-0.3-0.3 0.9-3.4 6.5-1.3 1.4-1.6 2.1-2.5 2.3-2.2 1.3-4.1 2-0.9 1.1 1.6 1.4 1 0.9 0.8 0.7 0.8 0.2 1-0.6 2.1-1.7 1.9-1.2 1.6-2.3 2.5-2.6 2.1-3.3 3.2-7.5 0.8-0.2-2.2 5.5-1.3 3.1-2.3 3.4-1.7 2-2 2.4-1.8 1.2-2.7 1.8-0.4 1 1.9 2h1.8l2-1.5 1.2-1.3 1.4-1.2 2.9-3.7 1.1-2.1 1.3-1.9 3.1-7.1 0.5 0.2-2.5 6-1.9 3.5-1 1.9-2.6 3.1-0.7 1.3-1.2 1.1-3 2.9-0.6 1-2.5-1.1-1.5-1.9-1.8-0.9-0.6-1.1-1.5-1.3-2.3-2.3z"/>
				</g>
			</g>
			<path id="Layer" class="s13" d="m724 1483c-24.3 0-44-19.7-44-44 0-24.3 19.7-44 44-44 24.3 0 44 19.7 44 44 0 24.3-19.7 44-44 44z"/>
			<g id="Clip-Path" clip-path="url(#cp5)">
				<g id="Layer">
					<path id="Layer" class="s14" d="m690.3 1443.6l-16.8 9-1.8 1.4 13.5 24 1.9-1.1 14-9c3 1 7.9 1.3 10.1 1 3.6-0.5 9.3-3 11.5-4.1l16.2-8.2 15.6-8.5-0.2-5-5-1.9-7.6 1.4-6.9 2.8 0.4-1.3-1.4-4.7-2.1-1.5-2.1 0.3 1.1-2.1-0.7-3.9-3.7-2.5 14.2-13.7-1.3-8-6.2 2.2-25.1 16.1-6.3 0.9-7.3 2.5z"/>
					<path id="Layer" class="s3" d="m738 1410.5l0.6 4.6-17.9 17 3.6-1.3 3.9 2.7c0.2 1 0.6 2.8 0.7 3.2q0 0.1 0 0c-0.2-0.1-1.4 2-2 3.2l3.5-0.4 2 1.4 1 4-3.2 4.2 12.3-4.8 6.6-1.2 3.6 1.3 0.1 2.5-22.4 11.5c-3.9 2.2-13.2 6.8-19.6 8.1-2 0.2-6.9 0.3-10.1-0.9-0.4 0.2-16.1 10.6-20.8 13.6l-11.7-20.8 23.7-13.4 4.2-13.9 5.5-2 6.6-0.9 26.2-16.5z"/>
					<path id="Layer" fill-rule="evenodd" class="s14" d="m708.4 1428.7l1 1 4.4 8 4.5-3 2.5-2.8 3.5-1.2-4.6 5.9-5 2.7 3 5.4c0.2 0.2 0.4 0.6 0.5 1.1l5.5-3.5 4.1-4.1 1.5 1.3-4.8 4.3-6.4 3.1q0 0.2-0.1 0.3l-0.9 0.2-3.2 1.3-2.8 0.7 1.1 2.3 0.1 2.8 0.8 1.3 2 0.8 4.1-1.1 4.4-1.8 4.6-3.3 3.8-3.7 0.6 1.4-3.1 3.2-2.3 2-3.1 1.9c-0.5 0.2-1.3 0.5-2.1 0.8-1.1 0.4-2.2 0.8-2.4 0.9-0.4 0.1-0.9 0.3-1.6 0.5-0.7 0.2-1.6 0.4-2.3 0.6l-2.3-0.1-1.9-1.3-1.1-2.1 0.4-1.8-0.9-1.9-1.6-2.6 0.7-2.9-1.8-0.9-2-3-1.2 0.7 1 1.7-2.4 8.4-0.9-1.5-2.1-0.6 2.3-1.4c0.6-1.4 1.4-4.5 1.2-5.1-0.2-0.6-0.9-1.6-1.2-2.1l3.8-2.1 2.6 3.6 7.1 3.5 1.3-0.4-8.9-15.8-3.6-1.6 2.5-0.4zm2.1 17.2l-0.4 2 0.5 0.6 2.5-0.6 1.2-0.5z"/>
				</g>
			</g>
			<path id="Layer" fill-rule="evenodd" class="s3" d="m164.7 1164.6q-3.2 0-5.8-1.1-2.6-1.2-4.2-3.3-1.7-2.1-2.1-5l5.7-0.8q0.6 2.4 2.5 3.8 1.8 1.3 4.2 1.3 1.4 0 2.6-0.4 1.3-0.4 2.1-1.2 0.8-0.9 0.8-2.1 0-0.4-0.1-0.8-0.1-0.4-0.4-0.8-0.3-0.3-0.9-0.7-0.5-0.3-1.4-0.5l-7.5-2.2q-0.8-0.3-1.9-0.7-1.1-0.5-2.2-1.3-1-0.8-1.7-2.1-0.7-1.4-0.7-3.5 0-2.9 1.5-4.8 1.4-1.9 3.9-2.8 2.4-1 5.4-1 3 0.1 5.3 1.1 2.3 0.9 3.9 2.8 1.6 1.9 2.3 4.6l-5.9 1q-0.3-1.4-1.2-2.4-0.8-0.9-2-1.4-1.2-0.5-2.5-0.6-1.3 0-2.4 0.4-1.1 0.4-1.9 1.1-0.7 0.7-0.7 1.8 0 0.9 0.6 1.5 0.6 0.6 1.5 0.9 0.9 0.4 1.8 0.6l5 1.4q1.1 0.3 2.5 0.8 1.3 0.5 2.6 1.4 1.2 0.8 2 2.2 0.8 1.5 0.8 3.6 0 2.4-0.9 4.1-1 1.7-2.6 2.9-1.7 1.1-3.8 1.6-2 0.6-4.2 0.6zm28.9-0.6q-2.2 0.4-4.4 0.4-2.1-0.1-3.8-0.8-1.7-0.7-2.6-2.3-0.8-1.5-0.8-3-0.1-1.5-0.1-3.5v-8.2h-3.7v-4.2h3.7v-6h5.5v6h6.2v4.2h-6.2c0 0.9 0 9.5 0 10.2q0 1 0.4 1.6 0.7 1.1 2.3 1.2 1.6 0.1 3.5-0.1zm4.8 0v-21.6h4.8v3.5q0.3-0.5 0.6-1 0.7-0.9 1.7-1.5 0.8-0.5 1.7-0.7 0.9-0.3 1.9-0.4 1 0 2 0.1v5.1q-0.9-0.3-2.1-0.2-1.2 0.1-2.2 0.5-0.9 0.5-1.6 1.2-0.6 0.7-1 1.7-0.3 1-0.3 2.2v11.1zm4.8-18.1q-0.3 0.5-0.5 1.1l0.5 0.7zm21.3 18.7q-3.3 0-5.8-1.4-2.6-1.5-4-4-1.4-2.5-1.4-5.7 0-3.6 1.4-6.2 1.4-2.6 3.8-4.1 2.5-1.4 5.7-1.4 3.4 0 5.8 1.6 2.4 1.6 3.5 4.5 1.1 2.9 0.8 6.8h-2.6v-4h-2.9q-0.2-1.8-0.9-2.7-1.1-1.5-3.5-1.5-2.7 0-4.1 1.7-0.7 1-1 2.5h-1.9v4h1.7q0.3 1.9 1.2 3.2 1.4 1.6 3.9 1.6 1.6 0 2.7-0.7 1.2-0.7 1.8-2l5.4 1.5q-1.2 3-3.8 4.6-2.7 1.7-5.8 1.7zm4.4-9.9h-9.8q-0.1-0.7-0.1-1.5 0-1.4 0.3-2.5h9.5q0.1 0.9 0.1 2zm24.1 9.3v-10.2q0-0.8-0.1-1.9-0.1-1.2-0.5-2.3-0.4-1.2-1.4-2-0.9-0.7-2.7-0.7-0.7 0-1.5 0.2-0.8 0.2-1.5 0.8-0.7 0.7-1.1 1.9-0.5 1.2-0.5 3.2v11h-5.5v-21.6h4.8v2.2q0.8-0.8 1.8-1.5 2.1-1.4 5.2-1.4 2.6 0 4.2 0.9 1.6 0.9 2.5 2.2 0.9 1.3 1.2 2.7 0.4 1.5 0.5 2.6 0.1 1.2 0.1 1.8v12.1zm19.9 10.2q-1.8 0-3.5-0.6-1.6-0.6-3-1.7-1.3-1-2.1-2.4l5.1-2.4q0.5 0.9 1.4 1.4 1 0.5 2.2 0.5 1.2 0 2.3-0.4 1-0.4 1.7-1.2 0.6-0.8 0.6-2v-2.2q-2.1 1.4-5.2 1.4-2.9 0-5.2-1.5-2.2-1.5-3.5-4.1-1.2-2.6-1.2-5.8 0-3.3 1.2-5.9 1.3-2.6 3.6-4 2.3-1.5 5.4-1.5 3.1 0 5.2 1.5 0.2 0.1 0.4 0.3v-1.2h4.7c0 0.5 0 24.1 0 24.6q-0.1 0.7-0.3 1.4-0.5 2-1.9 3.2-1.4 1.3-3.5 1.9-2 0.7-4.4 0.7zm0.4-14.5q1.8 0 2.9-0.8 1.1-0.8 1.6-2.3 0.5-1.5 0.5-3.4 0-2-0.5-3.5-0.5-1.4-1.5-2.3-1.1-0.8-2.8-0.8-1.8 0-3 0.9-1.1 0.9-1.7 2.4-0.6 1.5-0.6 3.3 0 1.8 0.6 3.3 0.5 1.5 1.6 2.4 1.2 0.8 2.9 0.8zm28.3 4.3q-2.2 0.4-4.4 0.3-2.1 0-3.8-0.7-1.7-0.7-2.6-2.3-0.8-1.5-0.8-3-0.1-1.5-0.1-3.5v-8.2h-3.7v-4.2h3.7v-6h5.5v6h6.2v4.2h-6.2c0 0.9 0 9.5 0 10.2q0 1 0.4 1.6 0.7 1.1 2.3 1.2 1.6 0.1 3.5-0.1zm19.5 0c0-0.5 0-11.4 0-12.1q-0.1-1.2-0.5-2.3-0.5-1.2-1.4-2-1-0.8-2.7-0.8-0.7 0-1.5 0.3-0.8 0.2-1.5 0.8-0.7 0.6-1.2 1.9-0.4 1.2-0.4 3.2v11h-5.5v-28.8h4.8v9.4q0.8-0.8 1.7-1.5 2.1-1.4 5.3-1.4 2.6 0 4.2 0.9 1.6 0.8 2.4 2.2 0.9 1.3 1.3 2.7 0.4 1.4 0.5 2.6 0.1 1.2 0.1 1.7v12.2zm19.1 0.6q-4.1 0-6.6-1.9-2.5-1.8-3-5.2l5.5-0.9q0.4 1.6 1.5 2.4 1.2 0.9 3 0.9 1.5 0 2.3-0.6 0.8-0.6 0.8-1.6 0-0.6-0.3-1-0.4-0.4-1.5-0.8-1.1-0.4-3.4-1-2.7-0.7-4.2-1.5-1.6-0.8-2.3-2-0.7-1.2-0.7-2.8 0-2.1 1-3.6 1.1-1.6 3-2.4 2-0.8 4.6-0.8 2.5 0 4.5 0.7 1.9 0.8 3.1 2.3 1.3 1.4 1.5 3.4l-5.5 1q-0.2-1.2-1.1-1.9-0.9-0.7-2.4-0.9-1.5-0.1-2.4 0.4-0.9 0.5-0.9 1.5 0 0.5 0.4 0.9 0.4 0.4 1.6 0.8 1.2 0.4 3.7 1 2.5 0.7 4 1.5 1.5 0.9 2.2 2.1 0.6 1.2 0.6 2.8 0 3.4-2.4 5.3-2.4 1.9-6.6 1.9z"/>
			<path id="Layer" fill-rule="evenodd" class="s3" d="m153.8 1309v-28.8c0.3 0 12.8 0 13.3 0q0.7 0.1 1.3 0.2 2.5 0.4 4.2 1.7 1.6 1.3 2.4 3.2 0.8 2 0.8 4.4 0 3.6-1.8 6.2-1.1 1.6-3 2.4l5.2 10.7h-6.2l-4.7-9.8h-6.1v9.8zm5.5-14.8h6.5q0.4 0 0.9-0.1 0.5 0 0.9-0.1 1.1-0.3 1.7-1 0.6-0.8 0.8-1.6 0.3-0.9 0.3-1.7 0-0.8-0.3-1.6-0.2-0.9-0.8-1.6-0.6-0.7-1.7-1-0.4-0.1-0.9-0.2-0.5 0-0.9 0h-6.5zm31.4 15.4q-3.3 0-5.9-1.4-2.5-1.4-3.9-3.9-1.5-2.6-1.5-5.8 0-3.5 1.4-6.2 1.4-2.6 3.9-4 2.5-1.5 5.7-1.5 3.4 0 5.7 1.6 2.4 1.6 3.6 4.5 1.1 2.9 0.8 6.8h-2.7v-4h-2.8q-0.3-1.8-1-2.7-1-1.5-3.4-1.5-2.8 0-4.1 1.7-0.7 1-1.1 2.5h-1.9v4h1.8q0.2 2 1.2 3.2 1.3 1.6 3.9 1.6 1.6 0 2.7-0.7 1.1-0.7 1.7-2l5.5 1.6q-1.2 2.9-3.9 4.6-2.6 1.6-5.7 1.6zm4.4-9.9h-9.8q-0.1-0.7-0.1-1.5 0-1.4 0.2-2.5h9.6q0.1 0.9 0.1 2zm18.3 9.9q-4.1 0-6.6-1.8-2.5-1.9-3-5.3l5.5-0.8q0.4 1.5 1.5 2.4 1.2 0.8 3 0.8 1.5 0 2.3-0.5 0.8-0.6 0.8-1.6 0-0.7-0.3-1-0.3-0.4-1.5-0.8-1.1-0.4-3.4-1-2.6-0.7-4.2-1.5-1.6-0.9-2.3-2-0.7-1.2-0.7-2.9 0-2.1 1.1-3.6 1-1.5 2.9-2.3 2-0.9 4.6-0.9 2.5 0 4.5 0.8 2 0.8 3.2 2.2 1.2 1.5 1.5 3.4l-5.6 1q-0.1-1.2-1-1.9-0.9-0.7-2.5-0.8-1.5-0.1-2.4 0.4-0.9 0.5-0.9 1.4 0 0.6 0.4 1 0.4 0.4 1.6 0.8 1.2 0.4 3.8 1 2.4 0.6 3.9 1.5 1.5 0.8 2.2 2 0.7 1.2 0.7 2.9 0 3.3-2.4 5.2-2.4 1.9-6.7 1.9zm13.8-25.2v-4.8h5.5v4.8zm0 24.6v-21.6h5.4v21.6zm19.9 0.6q-4.1 0-6.6-1.8-2.5-1.9-3-5.3l5.5-0.8q0.4 1.5 1.5 2.4 1.2 0.8 3 0.8 1.5 0 2.3-0.5 0.8-0.6 0.8-1.6 0-0.7-0.3-1-0.4-0.4-1.5-0.8-1.1-0.4-3.4-1-2.7-0.7-4.2-1.5-1.6-0.9-2.3-2-0.7-1.2-0.7-2.9 0-2.1 1-3.6 1.1-1.5 3-2.3 2-0.9 4.6-0.9 2.5 0 4.5 0.8 1.9 0.8 3.1 2.2 1.3 1.5 1.5 3.4l-5.5 1q-0.2-1.2-1.1-1.9-0.9-0.7-2.4-0.8-1.5-0.1-2.4 0.4-0.9 0.5-0.9 1.4 0 0.6 0.4 1 0.4 0.4 1.6 0.8 1.2 0.4 3.7 1 2.5 0.6 4 1.5 1.5 0.8 2.2 2 0.6 1.2 0.6 2.9 0 3.3-2.4 5.2-2.4 1.9-6.6 1.9zm26.4-0.6q-2.2 0.4-4.4 0.4-2.1-0.1-3.8-0.8-1.7-0.7-2.6-2.3-0.8-1.4-0.8-3-0.1-1.5-0.1-3.4v-8.3h-3.7v-4.2h3.7v-6h5.5v6h6.2v4.2h-6.2c0 0.9 0 9.5 0 10.2q0 1 0.4 1.6 0.7 1.2 2.3 1.3 1.6 0.1 3.5-0.2zm10.8 0.6q-2.3 0-3.9-0.9-1.6-0.9-2.5-2.4-0.8-1.5-0.8-3.3 0-1.5 0.5-2.7 0.4-1.2 1.5-2.2 1-0.9 2.7-1.6 1.2-0.4 2.9-0.8 1.7-0.3 3.8-0.6 1.2-0.2 2.6-0.4-0.2-1.3-0.9-2-0.9-0.9-3.1-0.9-1.2 0-2.5 0.5-1.3 0.6-1.8 2.1l-4.9-1.6q0.8-2.6 3.1-4.3 2.2-1.7 6.1-1.7 2.9 0 5.1 0.9 2.2 0.9 3.4 3 0.6 1.2 0.7 2.4 0.1 1.2 0.1 2.7v13.2h-4.7v-2.7q-1.3 1.6-2.8 2.3-1.8 1-4.6 1zm6.8-14.9q0 0.4 0 0.8l2-1.1q-1.1 0.2-2 0.3zm0.6 11.6q0.3-0.4 0.7-0.8l-0.7-0.9zm-6.2-1.1q1.5 0 2.5-0.5 1-0.5 1.6-1.2 0.7-0.7 0.9-1.1 0.4-0.9 0.5-2.1 0-0.7 0-1.3-1.3 0.3-2.3 0.4-1.5 0.3-2.4 0.5-0.9 0.2-1.6 0.5-0.8 0.3-1.3 0.7-0.5 0.4-0.7 0.8-0.3 0.4-0.3 1 0 0.7 0.4 1.3 0.4 0.5 1.1 0.8 0.6 0.2 1.6 0.2zm5.5-6.2q0.8-0.1 1.6-0.2l-1.6-0.4q0 0.3 0 0.6zm25.4 9.9v-10.2q0-0.7-0.1-1.9-0.1-1.1-0.5-2.3-0.4-1.1-1.4-1.9-0.9-0.8-2.7-0.8-0.7 0-1.5 0.2-0.8 0.2-1.5 0.9-0.7 0.6-1.1 1.8-0.5 1.2-0.5 3.3v10.9h-5.5v-21.6h4.8v2.2q0.8-0.8 1.8-1.4 2.1-1.4 5.2-1.4 2.6 0 4.2 0.8 1.6 0.9 2.5 2.2 0.9 1.3 1.2 2.8 0.4 1.4 0.5 2.6 0.1 1.2 0.1 1.7v12.1zm19.8 0.6q-3.3 0-5.7-1.5-2.4-1.5-3.7-4.1-1.3-2.5-1.3-5.8 0-3.3 1.3-5.8 1.4-2.6 3.8-4.1 2.4-1.5 5.7-1.5 3.8 0 6.4 2 2.6 1.9 3.3 5.2l-5.4 1.5q-0.5-1.7-1.7-2.7-1.2-0.9-2.7-0.9-1.7 0-2.8 0.8-1.1 0.9-1.6 2.3-0.5 1.4-0.5 3.2 0 2.8 1.2 4.6 1.3 1.7 3.7 1.7 1.9 0 2.8-0.8 1-0.8 1.5-2.4l5.5 1.2q-0.9 3.4-3.5 5.3-2.5 1.8-6.3 1.8zm23.3 0q-3.4 0-5.9-1.4-2.5-1.4-4-3.9-1.4-2.6-1.4-5.8 0-3.5 1.4-6.2 1.4-2.6 3.9-4 2.4-1.5 5.6-1.5 3.4 0 5.8 1.6 2.4 1.6 3.5 4.5 1.2 2.9 0.8 6.8h-2.6v-4h-2.9q-0.2-1.8-0.9-2.7-1-1.5-3.4-1.5-2.8 0-4.1 1.7-0.8 1-1.1 2.5h-1.9v4h1.8q0.2 2 1.2 3.2 1.3 1.6 3.8 1.6 1.6 0 2.8-0.7 1.1-0.7 1.7-2l5.5 1.6q-1.3 2.9-3.9 4.6-2.6 1.6-5.7 1.6zm4.4-9.9h-9.8q-0.1-0.7-0.1-1.5 0-1.4 0.2-2.5h9.5q0.2 0.9 0.2 2zm18.3 9.9q-4.1 0-6.6-1.8-2.5-1.9-3-5.3l5.5-0.8q0.4 1.5 1.5 2.4 1.2 0.8 3 0.8 1.5 0 2.3-0.5 0.8-0.6 0.8-1.6 0-0.7-0.3-1-0.4-0.5-1.5-0.8-1.1-0.4-3.4-1-2.7-0.7-4.2-1.5-1.6-0.9-2.3-2-0.7-1.2-0.7-2.9 0-2.1 1-3.6 1.1-1.5 3-2.3 2-0.9 4.6-0.9 2.5 0 4.5 0.8 1.9 0.8 3.1 2.2 1.3 1.4 1.5 3.4l-5.5 1q-0.2-1.2-1.1-1.9-0.9-0.7-2.4-0.8-1.5-0.1-2.4 0.4-0.9 0.5-0.9 1.4 0 0.6 0.4 1 0.4 0.3 1.6 0.8 1.2 0.4 3.7 1 2.5 0.6 4 1.5 1.5 0.8 2.2 2 0.6 1.2 0.6 2.9 0 3.3-2.4 5.2-2.4 1.9-6.6 1.9z"/>
			<path id="Layer" fill-rule="evenodd" class="s3" d="m159.8 1454l-8.4-28.8h5.7l5.4 19.8 5.4-19.8h5.7l5.4 19.8 5.4-19.8h5.8l-8.5 28.8h-5.3l-5.6-19.4-5.6 19.4zm41.2 0.6q-3.3 0-5.9-1.4-2.5-1.5-3.9-4-1.5-2.5-1.5-5.7 0-3.6 1.4-6.2 1.4-2.6 3.9-4 2.5-1.5 5.7-1.5 3.4 0 5.7 1.6 2.4 1.6 3.6 4.5 1.1 2.9 0.8 6.8h-2.7v-4h-2.8q-0.3-1.8-1-2.7-1-1.5-3.4-1.5-2.8 0-4.1 1.7-0.7 1-1.1 2.5h-1.9v4h1.8q0.3 2 1.2 3.2 1.3 1.6 3.9 1.6 1.6 0 2.7-0.7 1.1-0.7 1.7-2l5.5 1.6q-1.2 2.9-3.9 4.6-2.6 1.6-5.7 1.6zm4.4-9.9h-9.8q-0.1-0.7-0.1-1.5 0-1.4 0.2-2.5h9.6q0.1 0.9 0.1 2zm15.5 9.9q-2.3 0-3.9-0.9-1.6-0.9-2.5-2.4-0.8-1.5-0.8-3.3 0-1.5 0.5-2.7 0.4-1.2 1.4-2.2 1.1-0.9 2.8-1.6 1.2-0.4 2.9-0.8 1.6-0.3 3.7-0.6 1.3-0.2 2.7-0.4-0.2-1.3-0.9-2-0.9-0.9-3.1-0.9-1.2 0-2.5 0.5-1.3 0.6-1.8 2.1l-4.9-1.6q0.8-2.6 3-4.3 2.3-1.7 6.2-1.7 2.9 0 5.1 0.9 2.2 0.9 3.3 3 0.7 1.2 0.8 2.4 0.1 1.2 0.1 2.7v13.2h-4.7v-2.7q-1.3 1.6-2.8 2.3-1.8 1-4.6 1zm6.8-14.9q0 0.4 0 0.8l2-1.1q-1.1 0.2-2 0.3zm0.6 11.6q0.3-0.4 0.6-0.8l-0.6-0.9zm-6.2-1.1q1.5 0 2.5-0.5 1-0.5 1.6-1.2 0.6-0.7 0.9-1.1 0.4-0.9 0.4-2.1 0.1-0.7 0.1-1.3-1.3 0.3-2.3 0.4-1.5 0.3-2.4 0.5-0.9 0.2-1.6 0.5-0.8 0.3-1.3 0.7-0.5 0.4-0.8 0.8-0.2 0.4-0.2 1 0 0.7 0.4 1.3 0.4 0.5 1 0.8 0.7 0.2 1.7 0.2zm5.5-6.2q0.7-0.1 1.6-0.2l-1.6-0.4q0 0.3 0 0.6zm10.6 9.9v-28.8h5.5v17.6l7.4-10.4h6.7l-7.8 10.8 8.3 10.8h-7.1l-7.5-10.4v10.4zm36.9 0v-10.2q0-0.7-0.1-1.9-0.1-1.1-0.5-2.3-0.4-1.1-1.4-1.9-0.9-0.8-2.7-0.8-0.7 0-1.5 0.2-0.8 0.2-1.5 0.9-0.7 0.6-1.1 1.8-0.5 1.2-0.5 3.3v10.9h-5.5v-21.6h4.8v2.2q0.8-0.8 1.8-1.4 2.1-1.4 5.2-1.4 2.6 0 4.2 0.8 1.6 0.9 2.5 2.2 0.9 1.3 1.2 2.8 0.4 1.4 0.5 2.6 0.1 1.2 0.1 1.7v12.1zm20.3 0.6q-3.3 0-5.8-1.4-2.5-1.4-4-3.9-1.4-2.6-1.4-5.8 0-3.5 1.4-6.2 1.4-2.6 3.9-4 2.4-1.5 5.6-1.5 3.4 0 5.8 1.6 2.4 1.6 3.5 4.5 1.2 2.9 0.8 6.8h-2.6v-4h-2.9q-0.2-1.8-0.9-2.7-1.1-1.5-3.4-1.5-2.8 0-4.1 1.7-0.8 1-1.1 2.5h-1.9v4h1.8q0.2 2 1.2 3.2 1.3 1.6 3.8 1.6 1.6 0 2.8-0.7 1.1-0.7 1.7-2l5.4 1.6q-1.2 2.9-3.8 4.6-2.6 1.6-5.8 1.6zm4.4-9.9h-9.7q-0.1-0.7-0.1-1.5 0-1.4 0.2-2.5h9.5q0.1 0.9 0.1 2zm18.4 9.9q-4.1 0-6.6-1.8-2.5-1.9-3.1-5.3l5.6-0.8q0.3 1.5 1.5 2.4 1.2 0.8 3 0.8 1.5 0 2.3-0.5 0.8-0.6 0.8-1.6 0-0.7-0.4-1-0.3-0.5-1.4-0.8-1.1-0.4-3.4-1-2.7-0.7-4.3-1.5-1.5-0.9-2.2-2-0.7-1.2-0.7-2.9 0-2.1 1-3.6 1.1-1.5 3-2.3 1.9-0.9 4.6-0.9 2.5 0 4.5 0.8 1.9 0.8 3.1 2.2 1.2 1.5 1.5 3.4l-5.5 1q-0.2-1.2-1.1-1.9-0.9-0.7-2.4-0.8-1.5-0.1-2.4 0.4-0.9 0.5-0.9 1.4 0 0.6 0.3 1 0.4 0.3 1.7 0.8 1.2 0.4 3.7 1 2.5 0.6 4 1.5 1.5 0.8 2.1 2 0.7 1.2 0.7 2.9 0 3.3-2.4 5.2-2.4 1.9-6.6 1.9zm21.9 0q-4.1 0-6.6-1.8-2.5-1.9-3.1-5.3l5.6-0.8q0.3 1.5 1.5 2.4 1.2 0.8 3 0.8 1.4 0 2.2-0.5 0.8-0.6 0.8-1.6 0-0.7-0.3-1-0.3-0.5-1.4-0.8-1.1-0.4-3.5-1-2.6-0.7-4.2-1.5-1.6-0.9-2.3-2-0.7-1.2-0.7-2.9 0-2.1 1.1-3.6 1.1-1.5 3-2.3 1.9-0.9 4.5-0.9 2.6 0 4.5 0.8 2 0.8 3.2 2.2 1.2 1.5 1.5 3.4l-5.6 1q-0.1-1.2-1-1.9-0.9-0.7-2.4-0.8-1.5-0.1-2.5 0.4-0.9 0.5-0.9 1.4 0 0.6 0.4 1 0.4 0.3 1.6 0.8 1.3 0.4 3.8 1 2.5 0.6 3.9 1.5 1.5 0.8 2.2 2 0.7 1.2 0.7 2.9 0 3.3-2.4 5.2-2.4 1.9-6.6 1.9zm23.4 0q-3.3 0-5.8-1.4-2.6-1.4-4-3.9-1.4-2.6-1.4-5.8 0-3.5 1.4-6.2 1.4-2.6 3.8-4 2.5-1.5 5.7-1.5 3.4 0 5.8 1.6 2.4 1.6 3.5 4.5 1.1 2.9 0.8 6.8h-2.6v-4h-2.9q-0.2-1.8-0.9-2.7-1.1-1.5-3.5-1.5-2.7 0-4.1 1.7-0.7 1-1 2.5h-1.9v4h1.7q0.3 2 1.2 3.2 1.4 1.6 3.9 1.6 1.6 0 2.7-0.7 1.2-0.7 1.8-2l5.4 1.6q-1.2 2.9-3.8 4.6-2.7 1.6-5.8 1.6zm4.4-9.9h-9.8q-0.1-0.7-0.1-1.5 0-1.4 0.3-2.5h9.5q0.1 0.9 0.1 2zm18.4 9.9q-4.1 0-6.6-1.8-2.5-1.9-3.1-5.3l5.6-0.8q0.3 1.5 1.5 2.4 1.2 0.8 3 0.8 1.4 0 2.2-0.5 0.8-0.6 0.8-1.6 0-0.7-0.3-1-0.3-0.5-1.4-0.8-1.1-0.4-3.5-1-2.6-0.7-4.2-1.5-1.6-0.9-2.3-2-0.7-1.2-0.7-2.9 0-2.1 1.1-3.6 1.1-1.5 3-2.3 1.9-0.9 4.5-0.9 2.6 0 4.5 0.8 2 0.8 3.2 2.2 1.2 1.5 1.5 3.4l-5.6 1q-0.1-1.2-1-1.9-0.9-0.7-2.4-0.8-1.5-0.1-2.5 0.4-0.9 0.5-0.9 1.4 0 0.6 0.4 1 0.4 0.3 1.6 0.8 1.3 0.4 3.8 1 2.5 0.6 3.9 1.5 1.5 0.8 2.2 2 0.7 1.2 0.7 2.9 0 3.3-2.4 5.2-2.4 1.9-6.6 1.9z"/>
			<path id="Layer" class="s15" d="m832 1337c-24.3 0-44-19.7-44-44 0-24.3 19.7-44 44-44 24.3 0 44 19.7 44 44 0 24.3-19.7 44-44 44z"/>
			<g id="Clip-Path" clip-path="url(#cp6)">
				<g id="Layer">
					<path id="Layer" class="s16" d="m811.6 1290.6l-47.7 7.6 2.1 29.8 48-13c0 0 11 3.4 14.1 4.1l8.1-3.1 9.3-9.6 6.6-14.9-2.7-15.6-17.1 0.6-6.7-7.3-6.1-2.4-9.5 3.1c-0.1 4.1-0.1 12.5 0.7 14 0.8 1.5 2 2.2 2.5 2.4l1.9 1.4z"/>
					<path id="Layer" class="s3" d="m858 1294.2l4.3-3.5c0.1-3.9-1.1-13.4-7.5-19.9-0.3-0.1-9.2-1.8-13.5-2.6l-7.7 6.3 3.3 4.1 11.1 0.6-0.7 4.1-12.1 0.1-1.1 4.4 3.6 4.5 10.4 1.4-3.2 2.6 0.3 1.6 0.4 1.8-14.6-5-2.7 2.2-0.2 3.3 6.8 8.3 5.8 1.8-2.6 3.6 4.1 2.7 4.8 0.3 3.1-2.5-0.1-9.3 6.2-1.5 2.3-2.6z"/>
					<path id="Layer" fill-rule="evenodd" class="s17" d="m858 1294.2l4.3-3.5c0.1-3.9-1.1-13.4-7.5-19.9-0.3-0.1-9.2-1.8-13.5-2.6l-7.7 6.3 3.3 4.1 11.1 0.6-0.7 4.1"/>
					<path id="Layer" fill-rule="evenodd" class="s17" d="m858 1294.2l-5.6-8.7-5.1-2.2"/>
					<path id="Layer" fill-rule="evenodd" class="s17" d="m858 1294.2l0.5 6.8-2.3 2.6-6.2 1.5"/>
					<path id="Layer" fill-rule="evenodd" class="s17" d="m847.3 1283.3l-12.1 0.1-1.1 4.4 3.6 4.5 10.4 1.4-3.2 2.6 0.3 1.6 0.4 1.8"/>
					<path id="Layer" fill-rule="evenodd" class="s17" d="m850 1305.1l0.1 9.3-3.1 2.5-4.8-0.3-4.1-2.7 2.6-3.6-5.8-1.8-6.8-8.3 0.2-3.2 2.7-2.3 14.6 5"/>
					<path id="Layer" fill-rule="evenodd" class="s17" d="m850 1305.1l-4.4-5.4"/>
					<path id="Layer" class="s16" d="m821.8 1308l1.2-1.5 4.9 0.3 11.8 10.1c1.3 1.1 1.4 2.9 1.3 3.6-0.5 1.4-2.1 4.3-3.9 4.6-1.9 0.2-3.2-0.5-3.7-0.9l-10.7-10.2z"/>
					<path id="Layer" class="s18" d="m821.1 1276.5l4.4 2.8-2.9-0.7c0 0.9 0.2 2.4-0.4 4.1-2.7 6-8.7 8.3-10.2 9l2.1-4-0.8-2.6c0 0 3 1.7 5.2-0.1 2.3-1.8 3-4.4 3-5.5z"/>
				</g>
			</g>
			<path id="Layer" class="s19" d="m834 1483c-24.3 0-44-19.7-44-44 0-24.3 19.7-44 44-44 24.3 0 44 19.7 44 44 0 24.3-19.7 44-44 44z"/>
			<g id="Clip-Path" clip-path="url(#cp7)">
				<g id="Layer">
					<path id="Layer" class="s20" d="m856.7 1427.8l3.3 1.6 0.8 8-0.8 2.9 1.7 6.5-4.6 6.1-5.9 1.5-14.1 7.9-16.3-0.8-42.3 28.1-12.2-37.3 38.1-20 5.9-17.6 21.4-6.8 15.7-4.2 7.2 3.4-1.6 8.2 3.8 1.8 2.1 8.6z"/>
					<path id="Layer" class="s3" d="m815.2 1459l3.7-2.3 1.6-0.4 14.3 0.4 11.9-6.4-15.6-1.2-4.3-12.6-0.7-3-1-2.9-3.6-6.8-2.6-1.3 3.6 0.2 3-4.5-0.7 3.2 2.6 4.5 8.1 2.3 3.7-3.4-9.5-16.8-19.7 7-5.2 16.1c-29.1 16.2-36.8 19.7-41.9 22.6 4.4 13.1 10.9 32.9 10.9 32.9l38.5-26 1.5-0.8z"/>
					<path id="Layer" class="s3" d="m838 1445.8l0.6 4.5 16.8-0.4 3.4-4.9-0.4-3.1z"/>
					<path id="Layer" class="s3" d="m834.6 1439c0.3 0.7 1 2.3 1.7 3.1l19.6-2.2 2.1-3-0.1-5.7-5.4-1.3-16 5.3z"/>
					<path id="Layer" class="s3" d="m852.2 1417.2l4 2.1-0.1 4.8-3.3 3.1-19.7 8.3-2-2 6.9-2.1 4.7-3.8-2.9-6.4z"/>
					<path id="Layer" class="s3" d="m847.5 1406l4.7 2.3-1.4 6.4-13.3 3.1-3.6-7.5z"/>
				</g>
			</g>
			<path id="Layer" class="s21" d="m362.2 977.5c1.2 3.4 4.4 5.7 8 5.8l7.9 0.1h1.4 0.1q1 0.1 2 0.4c3.7 1.5 4.8 6.7 1.2 9.4l-12.4 9.1c0 0 2.3 7.3 4.6 14.7 1.6 4.9-4.1 9-8.4 6l-7.6-5.4c-3-2-7-2-9.9 0l-7.7 5.4h0.1-0.1q-0.9 0.5-1.9 0.9c-3.8 0.9-7.8-2.7-6.5-7l4.6-14.6 0.1 0.1q-0.1-0.1-0.1-0.1l-12.4-9.1c-4.2-3.1-2-9.7 3.2-9.8l9.4-0.1c3.6-0.1 6.8-2.4 8-5.8l3-8.8c1.7-4.9 8.7-4.9 10.4 0z"/>
			<path id="Layer" class="s22" d="m435.2 977.5c1.2 3.4 4.4 5.7 8 5.8l7.9 0.1q0 0 0.1 0h1.3 0.1q1 0.1 2 0.4c3.7 1.5 4.8 6.7 1.2 9.4l-12.4 9.1c0 0 2.3 7.3 4.6 14.7 1.6 4.9-4.1 9-8.4 6l-7.6-5.4c-3-2-7-2-9.9 0l-7.6 5.4h-0.1q-0.9 0.5-1.8 0.9c-3.9 0.9-7.9-2.7-6.6-7l4.6-14.6 0.1 0.1q-0.1-0.1-0.1-0.1l-12.4-9.1c-4.2-3.1-2-9.7 3.2-9.8l9.4-0.1c3.6-0.1 6.8-2.4 8-5.8l3-8.8c1.7-4.9 8.7-4.9 10.4 0z"/>
			<path id="Layer" class="s22" d="m508.2 977.5c1.2 3.4 4.4 5.7 8.1 5.8l7.8 0.1q0 0 0.1 0h1.3 0.1q1 0.1 2 0.4c3.7 1.5 4.8 6.7 1.2 9.4l-12.4 9.1c0 0 2.3 7.3 4.6 14.7 1.6 4.9-4.1 9-8.4 6l-7.6-5.4c-3-2-7-2-9.9 0l-7.6 5.4h-0.1q-0.9 0.5-1.8 0.9c-3.9 0.9-7.9-2.7-6.6-7l4.6-14.6 0.1 0.1q0-0.1 0-0.1l-12.5-9.1c-4.2-3.1-2-9.7 3.3-9.8l9.3-0.1c3.6-0.1 6.9-2.4 8-5.8l3-8.8c1.7-4.9 8.8-4.9 10.4 0z"/>
			<path id="Layer" class="s22" d="m581.2 977.5c1.2 3.4 4.4 5.7 8.1 5.8l7.8 0.1q0 0 0.1 0h1.3 0.1q1 0.1 2 0.4c3.7 1.5 4.8 6.7 1.2 9.4l-12.3 9.1c0 0 2.2 7.3 4.5 14.7 1.6 4.9-4.1 9-8.4 6l-7.6-5.4c-2.9-2-6.9-2-9.9 0l-7.6 5.4q-1 0.5-1.9 0.9c-3.9 0.9-7.9-2.7-6.6-7l4.6-14.6 0.1 0.1q0-0.1 0-0.1l-12.5-9.1c-4.2-3.1-2-9.7 3.3-9.8l9.3-0.1c3.6-0.1 6.9-2.4 8-5.8l3-8.8c1.7-4.9 8.8-4.9 10.4 0z"/>
			<path id="Layer" class="s22" d="m654.2 977.5c1.2 3.4 4.4 5.7 8.1 5.8l7.8 0.1q0.1 0 0.1 0h1.3 0.1q1.1 0.1 2 0.4c3.8 1.5 4.9 6.7 1.2 9.4l-12.3 9.1c0 0 2.2 7.3 4.6 14.7 1.5 4.9-4.2 9-8.5 6l-7.6-5.4c-2.9-2-6.9-2-9.9 0l-7.6 5.4q-0.9 0.5-1.9 0.9c-3.9 0.9-7.9-2.7-6.5-7l4.5-14.6 0.1 0.1q0-0.1 0-0.1l-12.4-9.1c-4.3-3.1-2.1-9.7 3.2-9.8l9.3-0.1c3.6-0.1 6.9-2.4 8-5.8l3-8.8c1.7-4.9 8.8-4.9 10.4 0z"/>
			<path id="Layer" class="s23" d="m460.5 231.1c24.8-14.3 55.2-14.3 80 0l136.1 78.6c24.7 14.2 40 40.7 40 69.2v157.2c0 28.5-15.3 55-40 69.2l-136.1 78.6c-24.8 14.3-55.2 14.3-80 0l-136.1-78.6c-24.7-14.2-40-40.7-40-69.2v-157.2c0-28.5 15.3-55 40-69.2z"/>
			<path id="Layer" class="s24" d="m488.5 264.9c7.4-4.3 16.6-4.3 24 0l148.8 85.9c7.4 4.3 12 12.2 12 20.8v171.8c0 8.5-4.6 16.5-12 20.7l-148.8 85.9c-7.4 4.3-16.6 4.3-24 0l-148.8-85.9c-7.4-4.2-12-12.2-12-20.7v-171.8c0-8.6 4.6-16.5 12-20.8z"/>
			<path id="Layer" class="s25" d="m569 362l-12 7.7 25.3 34.3 8.5-10.5 4.2-15.4-9.9-13.3z"/>
			<path id="Layer" class="s26" d="m430.4 362l11.6 7.7-24.7 34.3-8.2-10.5-4.1-15.4 9.6-13.3z"/>
			<path id="Layer" fill-rule="evenodd" class="s27" d="m498.9 357.2c-16.4 2.2-49 7.4-56.7 11.8l-28.9 34.6-23.3 71.2c11.1 22.8 48 71.3 107.2 82.6h4.6c59.2-11.3 96.1-59.8 107.2-82.6l-23.3-71.2-28.9-34.6c-7.7-4.4-40.3-9.6-56.7-11.8v-0.2q-0.3 0-0.6 0.1-0.3-0.1-0.6-0.1z"/>
			<path id="Layer" class="s3" d="m466 492l-15-25.5 12.3-55.4 28.2-21.1h16.7l25.5 21.1 12.3 55.4-16.7 25.5z"/>
			<path id="Layer" class="s28" d="m500 424l-20-5.3v-8.9l14.8-9.8h11.3l13.9 9.8v8z"/>
			<path id="Layer" class="s28" d="m500.4 442.8l-19.5 3.2-0.9-3.2 17.8-3.2v-17.6h5.3v17.6l16.9 2.4-0.9 4z"/>
			<path id="Layer" class="s3" d="m548.3 400l-8.3 3.6 7.3 5.4h9.2l5.5-5.4v-3.6z"/>
			<path id="Layer" class="s3" d="m451.5 400l7.5 3.6-6.7 5.4h-8.3l-5-5.4v-3.6z"/>
		</g>
		<text id="0.1x for every consecutive Win" style="transform: matrix(1,0,0,1,501,828)" >
			<tspan x="-210.5" y="0" class="t29">0</tspan><tspan  y="0" class="t29">.</tspan><tspan  y="0" class="t29">1</tspan><tspan  y="0" class="t29">x</tspan><tspan  y="0" class="t29"> </tspan><tspan  y="0" class="t29">f</tspan><tspan  y="0" class="t29">o</tspan><tspan  y="0" class="t29">r</tspan><tspan  y="0" class="t29"> </tspan><tspan  y="0" class="t29">e</tspan><tspan  y="0" class="t29">v</tspan><tspan  y="0" class="t29">e</tspan><tspan  y="0" class="t29">r</tspan><tspan  y="0" class="t29">y</tspan><tspan  y="0" class="t29">
</tspan>
			<tspan x="-245.7" y="72" class="t29">c</tspan><tspan  y="72" class="t29">o</tspan><tspan  y="72" class="t29">n</tspan><tspan  y="72" class="t29">s</tspan><tspan  y="72" class="t29">e</tspan><tspan  y="72" class="t29">c</tspan><tspan  y="72" class="t29">u</tspan><tspan  y="72" class="t29">t</tspan><tspan  y="72" class="t29">i</tspan><tspan  y="72" class="t29">v</tspan><tspan  y="72" class="t29">e</tspan><tspan  y="72" class="t29"> </tspan><tspan  y="72" class="t29">W</tspan><tspan  y="72" class="t29">i</tspan><tspan  y="72" class="t29">n</tspan><tspan  y="72" class="t29">
</tspan>
		</text>
	</g>
</svg>