<svg version="1.2" xmlns="http://www.w3.org/2000/svg" width="1000" height="1600"><defs><linearGradient id="g13" x2="1" href="#P" gradientTransform="matrix(0 -50.646 44.005 0 239.972 356.752)"><stop stop-color="#b58bff"/><stop offset="1" stop-color="#653fc8"/></linearGradient><linearGradient id="g33" x2="1" href="#P" gradientTransform="matrix(0 -124.817 47.255 0 488.922 457.796)"><stop stop-color="#582d9e"/><stop offset=".98" stop-color="#591da5"/></linearGradient><linearGradient id="g1" x2="1" href="#P" gradientTransform="matrix(995 1571.5 -1413.426 894.915 0 17.5)"><stop stop-color="#6f09ad"/><stop offset="1" stop-color="#2c0644"/></linearGradient><linearGradient id="g2" x2="1" href="#P" gradientTransform="matrix(515.5 -847 96.465 58.71 -44.5 669)"><stop stop-color="#fff"/><stop offset="1" stop-color="#fff" stop-opacity=".37"/></linearGradient><linearGradient id="g3" x2="1" href="#P" gradientTransform="matrix(510.485 -821.05 61.319 38.125 -206.712 762.96)"><stop stop-color="#194186"/><stop offset="1" stop-color="#fff" stop-opacity=".37"/></linearGradient><linearGradient id="g4" x2="1" href="#P" gradientTransform="matrix(792 0 0 116 104 1148.6)"><stop stop-color="#5a1485"/><stop offset="1" stop-color="#53107c"/></linearGradient><linearGradient id="g32" x2="1" href="#P" gradientTransform="matrix(0 -58.208 33.285 0 566.19 459.544)"><stop stop-color="#6239a5"/><stop offset=".98" stop-color="#591da5"/></linearGradient><linearGradient id="g31" x2="1" href="#P" gradientTransform="matrix(0 -63.302 38.749 0 630.914 389.315)"><stop stop-color="#6239a5"/><stop offset=".98" stop-color="#591da5"/></linearGradient><linearGradient id="g30" x2="1" href="#P" gradientTransform="matrix(0 -43.461 29.77 0 425.772 372.839)"><stop stop-color="#582d9e"/><stop offset=".98" stop-color="#591da5"/></linearGradient><linearGradient id="g5" x2="1" href="#P" gradientTransform="matrix(792 0 0 116 104 1293.6)"><stop stop-color="#5a1485"/><stop offset="1" stop-color="#53107c"/></linearGradient><linearGradient id="g29" x2="1" href="#P" gradientTransform="matrix(16.776 0 0 5.106 585.613 319.715)"><stop stop-color="#7963ec"/><stop offset="1" stop-color="#6025b6"/></linearGradient><linearGradient id="g6" x2="1" href="#P" gradientTransform="matrix(792 0 0 116 104 1438.6)"><stop stop-color="#5a1485"/><stop offset="1" stop-color="#53107c"/></linearGradient><linearGradient id="g28" x2="1" href="#P" gradientTransform="matrix(48.32 0 0 13.777 420.159 315.549)"><stop stop-color="#7963ec"/><stop offset="1" stop-color="#6025b6"/></linearGradient><linearGradient id="g27" x2="1" href="#P" gradientTransform="matrix(53.323 0 0 25.065 406.831 308.508)"><stop stop-color="#c5c4ff"/><stop offset="1" stop-color="#f9bbff"/></linearGradient><linearGradient id="g7" x2="1" href="#P" gradientTransform="matrix(30.975 40.164 -41.564 32.055 339.666 980.726)"><stop stop-color="#ffe500"/><stop offset="1" stop-color="#ffc42b"/></linearGradient><linearGradient id="g8" x2="1" href="#P" gradientTransform="matrix(30.975 40.164 -41.564 32.055 412.676 980.726)"><stop stop-color="#ffe500"/><stop offset="1" stop-color="#ffc42b"/></linearGradient><linearGradient id="g9" x2="1" href="#P" gradientTransform="matrix(30.975 40.164 -41.564 32.055 485.686 980.726)"><stop stop-color="#ffe500"/><stop offset="1" stop-color="#ffc42b"/></linearGradient><linearGradient id="g10" x2="1" href="#P" gradientTransform="matrix(29.219 18.926 -26.766 41.323 550.354 980.722)"><stop stop-color="#ffe500"/><stop offset="1" stop-color="#ffc42b"/></linearGradient><linearGradient id="g26" x2="1" href="#P" gradientTransform="scale(262.545 243.084) rotate(-90 2.311 .03)"><stop stop-color="#a67cff"/><stop offset="1" stop-color="#6025b6"/></linearGradient><linearGradient id="g11" x2="1" href="#P" gradientTransform="matrix(-440.616 -720.797 803.488 -491.164 896 705)"><stop offset=".05" stop-color="#f14ca6"/><stop offset="1" stop-color="#5c48e4"/></linearGradient><linearGradient id="g12" x2="1" href="#P" gradientTransform="matrix(448.942 300.029 -44.327 66.328 165.795 392.782)"><stop stop-color="#fff" stop-opacity=".12"/><stop offset="1" stop-color="#fff" stop-opacity=".04"/></linearGradient><linearGradient id="g25" x2="1" href="#P" gradientTransform="matrix(295.881 0 0 33.944 354.49 327.311)"><stop stop-color="#c5c4ff"/><stop offset="1" stop-color="#f9bbff"/></linearGradient><linearGradient id="P" gradientUnits="userSpaceOnUse"/><linearGradient id="g14" x2="1" href="#P" gradientTransform="matrix(43.429 0 0 9.4 218.515 308.571)"><stop stop-color="#c5c4ff"/><stop offset="1" stop-color="#f9bbff"/></linearGradient><linearGradient id="g15" x2="1" href="#P" gradientTransform="matrix(0 -52.94 43.201 0 240.23 359.046)"><stop stop-color="#a67cff"/><stop offset="1" stop-color="#6025b6"/></linearGradient><linearGradient id="g24" x2="1" href="#P" gradientTransform="matrix(0 -154.454 164.847 0 499.735 479.001)"><stop stop-color="#be8bff"/><stop offset="1" stop-color="#7b3fc8"/></linearGradient><linearGradient id="g16" x2="1" href="#P" gradientTransform="matrix(0 -28.881 21.961 0 749.949 294.066)"><stop stop-color="#be8bff"/><stop offset="1" stop-color="#7b3fc8"/></linearGradient><linearGradient id="g17" x2="1" href="#P" gradientTransform="matrix(0 -45.853 39.787 0 750.317 318.196)"><stop stop-color="#6025b6"/><stop offset="1" stop-color="#b85fff"/></linearGradient><linearGradient id="g18" x2="1" href="#P" gradientTransform="matrix(30.311 0 0 16.631 731.671 270.999)"><stop stop-color="#c5c4ff"/><stop offset="1" stop-color="#f9bbff"/></linearGradient><linearGradient id="g19" x2="1" href="#P" gradientTransform="matrix(7.727 0 0 8.562 760.205 283.132)"><stop stop-color="#c5c4ff"/><stop offset="1" stop-color="#f9bbff"/></linearGradient><linearGradient id="g22" x2="1" href="#P" gradientTransform="matrix(0 -207.971 727.306 0 482.516 830.029)"><stop stop-color="#24003a"/><stop offset=".57" stop-color="#290080"/><stop offset="1" stop-color="#8200b0"/></linearGradient><linearGradient id="g20" x2="1" href="#P" gradientTransform="matrix(0 -20.848 20.794 0 713.014 555.666)"><stop stop-color="#be8bff"/><stop offset="1" stop-color="#7b3fc8"/></linearGradient><linearGradient id="g21" x2="1" href="#P" gradientTransform="matrix(0 -34.09 38.304 0 713.05 573.089)"><stop stop-color="#6025b6"/><stop offset="1" stop-color="#b85fff"/></linearGradient><clipPath clipPathUnits="userSpaceOnUse" id="cp6"><path d="M722 1483c-24.33 0-44-19.67-44-44s19.67-44 44-44 44 19.67 44 44-19.67 44-44 44z"/></clipPath><clipPath clipPathUnits="userSpaceOnUse" id="cp11"><path d="M694 534h38v39h-38z"/></clipPath><clipPath clipPathUnits="userSpaceOnUse" id="cp10"><path d="M730 264h40v54h-40z"/></clipPath><clipPath clipPathUnits="userSpaceOnUse" id="cp9"><path d="M218 305h44v54h-44z"/></clipPath><clipPath clipPathUnits="userSpaceOnUse" id="cp8"><path d="M104 223c0-13.25 10.75-24 24-24h744c13.25 0 24 10.75 24 24v458c0 13.25-10.75 24-24 24H128c-13.25 0-24-10.75-24-24z"/></clipPath><clipPath clipPathUnits="userSpaceOnUse" id="cp7"><path d="M834 1483c-24.33 0-44-19.67-44-44s19.67-44 44-44 44 19.67 44 44-19.67 44-44 44z"/></clipPath><clipPath clipPathUnits="userSpaceOnUse" id="cp2"><path d="M610 1193c-24.33 0-44-19.67-44-44s19.67-44 44-44 44 19.67 44 44-19.67 44-44 44z"/></clipPath><clipPath clipPathUnits="userSpaceOnUse" id="cp5"><path d="M834 1338c-24.33 0-44-19.67-44-44s19.67-44 44-44 44 19.67 44 44-19.67 44-44 44z"/></clipPath><clipPath clipPathUnits="userSpaceOnUse" id="cp4"><path d="M834 1193c-24.33 0-44-19.67-44-44s19.67-44 44-44 44 19.67 44 44-19.67 44-44 44z"/></clipPath><clipPath clipPathUnits="userSpaceOnUse" id="cp3"><path d="M722 1193c-24.33 0-44-19.67-44-44s19.67-44 44-44 44 19.67 44 44-19.67 44-44 44z"/></clipPath><clipPath clipPathUnits="userSpaceOnUse" id="cp1"><path d="M0 50C0 22.39 22.39 0 50 0h900c27.61 0 50 22.39 50 50v1500c0 27.61-22.39 50-50 50H50c-27.61 0-50-22.39-50-50z"/></clipPath><radialGradient id="g23" cx="0" cy="0" r="1" href="#P" gradientTransform="matrix(0 24 -24 0 500.5 641)"><stop stop-color="#410067"/><stop offset="1" stop-color="#6501a0" stop-opacity="0"/></radialGradient></defs><style>.g,.i{fill:#fff}.i{stroke:#142e46;stroke-width:2}.m{fill:#583114}.u{fill:#163571}.y{fill:#673387}.O,.P,.Q{fill:none;stroke:#8069aa;stroke-miterlimit:10;stroke-width:.5}.P,.Q{stroke:#ad67cf}.Q{stroke:#8e69bb}</style><g clip-path="url(#cp1)"><path d="M0 50C0 22.4 22.4 0 50 0h900c27.6 0 50 22.4 50 50v1500c0 27.6-22.4 50-50 50H50c-27.6 0-50-22.4-50-50z" style="fill:url(#g1)"/><path d="M525.5-322-150 691l78 54L601.5-276z" style="opacity:.1;fill:url(#g2)"/><path d="M367.5-209-308 804l48 33.5 673.5-1021z" style="opacity:.1;fill:url(#g3)"/><path d="M104 1148c0-32 26-58 58-58h676c32 0 58 26 58 58s-26 58-58 58H162c-32 0-58-26-58-58z" style="fill:url(#g4)"/><path d="M610 1193c-24.3 0-44-19.7-44-44s19.7-44 44-44 44 19.7 44 44-19.7 44-44 44z" style="fill:#ffc136"/><g clip-path="url(#cp2)"><path d="m588.1 1178.8-29.2 19.1-11.5-29.9 27.9-12.2 6.1-13 13.8-3.6 4.1-2.2 20.7-17.2 5.9-.1 2 2.3.4 4.9-19.4 16.6 27.2-5.6 1 .5 2.4 3.1-.6 4.9-2.9 2.3-17.9 4.2-6.6 1.7 2.8.1 1.8 1.6 1.1 3.8-.6 3.1 1 1.3-1.6 6-2.9 2.5-3.3.2-1.8.9-8.7 4.8z" style="fill:#3c2900"/><path class="g" d="m588 1176.8-26.1 16.4-11.1-24 26.7-11.5 5.5-12.4 12.6-3.6 6.7 12.3-2.4 2.4-4.5-1.6-3.3-3-.1-3.2-1 2.4-3.2 2.7 1.5-.4 2.7 5.1-5.1 6.7 8.3-3.8 3.8 11.1 7.8.4-8 4.3z"/><path class="g" d="m599.4 1170.2 1.1 1.2 12.1-.2 2-2 1-4.5-14.5 2.3-2 1zM615.1 1162.1l-1.5 1.5-14.9 1.2-1-3.5 1.4-1.3 12.1-3.8 2.7.4 1.2 2.1zM637 1145.1l-1.6 1.6-24.2 5.8-2.4-.2 1.5 2.8-4.9 1.5-8.4-15.7 3.6-2 20.1-16.6 3.7-.4 1.7 1.1.6 3.1-20.1 17.1-3.9.5 2.8.8.2 2.1 29.8-6.4 1.5 1.9z"/></g><path d="M722 1193c-24.3 0-44-19.7-44-44s19.7-44 44-44 44 19.7 44 44-19.7 44-44 44z" style="fill:#cc8f35"/><g clip-path="url(#cp3)"><path class="i" d="m701.6 1146.6-47.7 7.6 2.1 29.8 48-13s11 3.4 14.1 4.1l8.1-3.1 9.3-9.6 6.6-14.9-2.7-15.6-17.1.6-6.7-7.3-6.1-2.4-9.5 3.1c-.1 4.1-.1 12.5.7 14 .8 1.5 2 2.2 2.5 2.4l1.9 1.4z"/><path class="g" d="m748 1150.2 4.3-3.5c.1-3.9-1.1-13.4-7.5-19.9-.3-.1-9.2-1.8-13.5-2.6l-7.7 6.3 3.3 4.1 11.1.6-.7 4.1-12.1.1-1.1 4.4 3.6 4.5 10.4 1.4-3.2 2.6.3 1.6.4 1.8-14.6-5-2.7 2.2-.2 3.3 6.8 8.3 5.8 1.8-2.6 3.6 4.1 2.7 4.8.3 3.1-2.5-.1-9.3 6.2-1.5 2.3-2.6z"/><path fill-rule="evenodd" d="m737.3 1139.3.7-4.1-11.1-.6-3.3-4.1 7.7-6.3c4.3.8 13.2 2.5 13.5 2.6 6.4 6.5 7.6 16 7.5 19.9l-4.3 3.5m0 0-5.6-8.7-5.1-2.2zm0 0 .5 6.8-2.3 2.6-6.2 1.5zm-11.7-.8-8.5-1.1-3.7-4.5 1.2-4.4 12.1-.1zm1.8.2-2 1.6.2-1.8zm-2 1.6-.5 4.4-.3-1.8-.4-1.6zm4 9.8v9.3l-3.1 2.5-4.8-.4-4-2.6 2.5-3.6-5.8-1.8-6.8-8.3.2-3.3 2.8-2.2 14.6 5zm0 0-4.4-5.4" style="fill:none;stroke:#142e46;stroke-width:2"/><path class="i" d="m711.8 1164 1.2-1.5 4.9.3 11.8 10.1c1.3 1.1 1.4 2.9 1.3 3.6-.5 1.4-2.1 4.3-3.9 4.6-1.9.2-3.2-.5-3.7-.9l-10.7-10.2z"/><path d="m711.1 1132.5 4.4 2.8-2.9-.7c0 .9.2 2.4-.4 4.1-2.7 6-8.7 8.3-10.2 9l2.1-4-.8-2.6s3 1.7 5.2-.1c2.3-1.8 3-4.4 3-5.5z" style="fill:#142e46"/></g><path d="M834 1193c-24.3 0-44-19.7-44-44s19.7-44 44-44 44 19.7 44 44-19.7 44-44 44z" style="fill:#8f3e02"/><g clip-path="url(#cp4)"><path class="m" d="m800.3 1153.6-16.8 9-1.8 1.4 13.5 24 1.9-1.1 14-9c3 1 7.9 1.3 10.1 1 3.6-.5 9.3-3 11.5-4.1l16.2-8.2 15.6-8.5-.2-5-5-1.9-7.6 1.4-6.9 2.8.4-1.3-1.4-4.7-2.1-1.5-2.1.3 1.1-2.1-.7-3.9-3.7-2.5 14.2-13.7-1.3-8-6.2 2.2-25.1 16.1-6.3.9-7.3 2.5z"/><path class="g" d="m848 1120.5.6 4.6-17.9 17 3.6-1.3 3.9 2.7c.2 1 .6 2.8.7 3.2q0 .1 0 0c-.2-.1-1.4 2-2 3.2l3.5-.4 2 1.4 1 4-3.2 4.2 12.3-4.8 6.6-1.2 3.6 1.3.1 2.5-22.4 11.5c-3.9 2.2-13.2 6.8-19.6 8.1-2 .2-6.9.3-10.1-.9-.4.2-16.1 10.6-20.8 13.6l-11.7-20.8 23.7-13.4 4.2-13.9 5.5-2 6.6-.9 26.2-16.5z"/><path fill-rule="evenodd" class="m" d="m818.4 1138.7 1 1 4.4 8 4.5-3 2.5-2.8 3.5-1.2-4.6 5.9-5 2.7 3 5.4c.2.2.4.6.5 1.1l5.5-3.5 4.1-4.1 1.5 1.3-4.8 4.3-6.4 3.1q0 .2-.1.3l-.9.2-3.2 1.3-2.8.7 1.1 2.3.1 2.8.8 1.3 2 .8 4.1-1.1 4.4-1.8 4.6-3.3 3.8-3.7.6 1.4-3.1 3.2-2.3 2-3.1 1.9c-.5.2-1.3.5-2.1.8-1.1.4-2.2.8-2.4.9-.4.1-.9.3-1.6.5-.7.2-1.6.4-2.3.6l-2.3-.1-1.9-1.3-1.1-2.1.4-1.8-.9-1.9-1.6-2.6.7-2.9-1.8-.9-2-3-1.2.7 1 1.7-2.4 8.4-.9-1.5-2.1-.6 2.3-1.4c.6-1.4 1.4-4.5 1.2-5.1-.2-.6-.9-1.6-1.2-2.1l3.8-2.1 2.6 3.6 7.1 3.5 1.3-.4-8.9-15.8-3.6-1.6 2.5-.4zm2.1 17.2-.4 2 .5.6 2.5-.6 1.2-.5z"/></g><path d="M104 1293c0-32 26-58 58-58h676c32 0 58 26 58 58s-26 58-58 58H162c-32 0-58-26-58-58z" style="fill:url(#g5)"/><path d="M834 1338c-24.3 0-44-19.7-44-44s19.7-44 44-44 44 19.7 44 44-19.7 44-44 44z" style="fill:#d81719"/><g clip-path="url(#cp5)"><path d="m856.7 1287.8 3.3 1.6.8 8-.8 2.9 1.7 6.5-4.6 6.1-5.9 1.5-14.1 7.9-16.3-.8-42.3 28.1-12.2-37.3 38.1-20 5.9-17.6 21.4-6.8 15.7-4.2 7.2 3.4-1.6 8.2 3.8 1.8 2.1 8.6z" style="fill:#600809"/><path class="g" d="m817.2 1321 3.7-2.3 1.6-.4 14.3.4 11.9-6.4-15.6-1.2-4.3-12.6-.7-3-1-2.9-3.6-6.8-2.6-1.3 3.6.2 3-4.5-.7 3.2 2.6 4.5 8.1 2.3 3.7-3.4-9.5-16.8-19.7 7-5.2 16.1c-29.1 16.2-36.8 19.7-41.9 22.6 4.4 13.1 10.9 32.9 10.9 32.9l38.5-26 1.5-.8z"/><path class="g" d="m838 1305.8.6 4.5 16.8-.4 3.4-4.9-.4-3.1zM834.6 1299c.3.7 1 2.3 1.7 3.1l19.6-2.2 2.1-3-.1-5.7-5.4-1.3-16 5.3zM852.2 1277.2l4 2.1-.1 4.8-3.3 3.1-19.7 8.3-2-2 6.9-2.1 4.7-3.8-2.9-6.4zM847.5 1266l4.7 2.3-1.4 6.4-13.3 3.1-3.6-7.5z"/></g><path d="M104 1438c0-32 26-58 58-58h676c32 0 58 26 58 58s-26 58-58 58H162c-32 0-58-26-58-58z" style="fill:url(#g6)"/><path d="M722 1483c-24.3 0-44-19.7-44-44s19.7-44 44-44 44 19.7 44 44-19.7 44-44 44z" style="fill:#56d69c"/><g clip-path="url(#cp6)"><path d="m676.2 1453.1 18.9-8.8 2.7-9.6 6.3-14.9v-.1l.2-.1 2.9-1.7.2-.1.3.1 2.9 1.6.3.1v.3l.4 2.5v.1l-1.3 7.9 4.1-1.7 18.9-10.3h.1l2.1-.7.2-.1.2.1 2.7 1.4.3.2-.1.3-.8 3.3v.1l-.1.1-.8.7 1.5-.9.1-.1h.1l3.5-.2.5-.1.1.5.1 3.6v.1l-.1.1-.9 2.5v.1l-.1.1-.5.4v.1h-.1l-6.2 4 5.1-2.6.1-.1.2.1 3.4.3h.5v.5l-.4 4.1v.2l-.1.1-1.7 1.5v.1h-.1l-2.9 1.8 3.6.2h.5v.5l-.1 3.3v.2l-.1.2-2 1.7-25.9 16-.2.1h-8.4l-17.3 13-.4.3-.3-.5-12.3-21.2-.2-.4z" style="fill:#0e3e28;stroke:#0e3e28"/><path class="g" d="m706.1 1460.8-18.6 13.9-11.4-19.8 20.2-9.8 2.9-9.9 6-14.8 2.3-1.1 2.1.9.5 2.4-1.7 9.9 6.1-2.9 18.8-10 2.1-.8 1.9 1.1-.7 2.1-1.7 1.8-13.6 9.5-.3.6-.3.5.7-.2.3.8.2-1.3 16.7-9.5 2.4-.3.2 2.7-.7 2.1-16.6 10.5-.3 1.9.8-.3.6 1-.1-1.5 14.8-7.5 2.8.1v2.7l-1.2 1.3-15.9 10.1-1.3 2.3.9-.3.9 1.8-.1-2.5 12.4-7.1 3.1.1.2 2.3-1.2 1.4-25.6 15.9z"/></g><path d="M834 1483c-24.3 0-44-19.7-44-44s19.7-44 44-44 44 19.7 44 44-19.7 44-44 44z" style="fill:#4774ca"/><g clip-path="url(#cp7)"><path class="u" d="m821 1461.7-15.1 12.3-1.4 1-14.9-21.2 18.7-16.2.2-1.5-.1-3.2 2.3-4.9 4-3.4 6.2-1.5 3.4-.2 4.3 1.8 3 1.1 2.7 1.7.7 1.1.3.4 1.9-1.1 5.2-3.7 3.1-4.6 2.9-2.3 1.9-.1 2.3 1 .5 1.1.8.2 1.9 1.1 2.2.7 1.4 2-.1 1.7 1.7.5.5 3.2-2.4 8.2-4.7 7.3-5.5 5.1-4.4 2.6-5.2 5-9.3 5.3z"/><path class="g" d="m820.6 1460-2.2 1.6-17.4 14.7-13.3-19.1 22.1-18.8.3-2.3-.2-2.7 2.1-4.5 3.3-2.6 6.1-1.7 2.6-.1 4.3 1.7 2.3.7 2.5 1.4.8 1.1.3 1.4 1.4-.5 2.3-1.1 5.6-4 1-1.7 2.1-3 2-1.8h1.4l1.7.5.6 1.6h1.1l1.9 1 1.7.5 1.1 1.5-.3 2 2.2.7.3 2.1-2.4 7.6-4.7 7-5.5 4.8-4.3 2.7-5.1 4.8-8.6 5z"/><path class="u" d="m826.6 1431.3-1-2.4-1.6-.5-.2.7 1.4.9.5 1.7-.2 1.3.8 2.1-1 3.2.9 1.1 2.3 1.7-1.9-2.8.9-2.8-.6-2.3 1.5-.7 2.5-.2 2.5.3.8-1.8-1.1 1.3-2.1-.3-2.2-.3-1 .2zM834.4 1435.9l-1.1-2.5 1.5 1.2.4 1.1 1.1.3.6-.2 1.3-.9 2.1-.9 1.7-1 2.1-1.3 3-3.2 1.2-1.7 3.9-6.6.5-.3-.3.9-3.4 6.5-1.3 1.4-1.6 2.1-2.5 2.3-2.2 1.3-4.1 2-.9 1.1 1.6 1.4 1 .9.8.7.8.2 1-.6 2.1-1.7 1.9-1.2 1.6-2.3 2.5-2.6 2.1-3.3 3.2-7.5.8-.2-2.2 5.5-1.3 3.1-2.3 3.4-1.7 2-2 2.4-1.8 1.2-2.7 1.8-.4 1 1.9 2h1.8l2-1.5 1.2-1.3 1.4-1.2 2.9-3.7 1.1-2.1 1.3-1.9 3.1-7.1.5.2-2.5 6-1.9 3.5-1 1.9-2.6 3.1-.7 1.3-1.2 1.1-3 2.9-.6 1-2.5-1.1-1.5-1.9-1.8-.9-.6-1.1-1.5-1.3-2.3-2.3z"/></g><path d="M362.2 977.5c1.2 3.4 4.4 5.7 8 5.8l7.9.1h1.5q1 .1 2 .4c3.7 1.5 4.8 6.7 1.2 9.4l-12.4 9.1s2.3 7.3 4.6 14.7c1.6 4.9-4.1 9-8.4 6l-7.6-5.4c-3-2-7-2-9.9 0l-7.7 5.4h.1-.1q-.9.5-1.9.9c-3.8.9-7.8-2.7-6.5-7l4.6-14.6.1.1-.1-.1-12.4-9.1c-4.2-3.1-2-9.7 3.2-9.8l9.4-.1c3.6-.1 6.8-2.4 8-5.8l3-8.8c1.7-4.9 8.7-4.9 10.4 0z" style="fill:url(#g7)"/><path d="M435.2 977.5c1.2 3.4 4.4 5.7 8 5.8l7.9.1H452.6q1 .1 2 .4c3.7 1.5 4.8 6.7 1.2 9.4l-12.4 9.1s2.3 7.3 4.6 14.7c1.6 4.9-4.1 9-8.4 6l-7.6-5.4c-3-2-7-2-9.9 0l-7.6 5.4h-.1q-.9.5-1.8.9c-3.9.9-7.9-2.7-6.6-7l4.6-14.6.1.1-.1-.1-12.4-9.1c-4.2-3.1-2-9.7 3.2-9.8l9.4-.1c3.6-.1 6.8-2.4 8-5.8l3-8.8c1.7-4.9 8.7-4.9 10.4 0z" style="fill:url(#g8)"/><path d="M508.2 977.5c1.2 3.4 4.4 5.7 8.1 5.8l7.8.1H525.6q1 .1 2 .4c3.7 1.5 4.8 6.7 1.2 9.4l-12.4 9.1s2.3 7.3 4.6 14.7c1.6 4.9-4.1 9-8.4 6l-7.6-5.4c-3-2-7-2-9.9 0l-7.6 5.4h-.1q-.9.5-1.8.9c-3.9.9-7.9-2.7-6.6-7l4.6-14.6.1.1v-.1l-12.5-9.1c-4.2-3.1-2-9.7 3.3-9.8l9.3-.1c3.6-.1 6.9-2.4 8-5.8l3-8.8c1.7-4.9 8.8-4.9 10.4 0z" style="fill:url(#g9)"/><path class="y" d="M581.3 977.5c1.1 3.4 4.3 5.7 8 5.8l7.8.1h1.6q1 .1 2 .4c3.7 1.5 4.8 6.7 1.1 9.4l-12.3 9.1s2.3 7.3 4.6 14.7c1.5 4.9-4.1 9-8.4 6l-7.7-5.4c-2.9-2-6.9-2-9.9 0l-7.6 5.4q-.9.5-1.9.9c-3.9.9-7.9-2.7-6.5-7l4.5-14.6.1.1v-.1l-12.4-9.1c-4.2-3.1-2-9.7 3.2-9.8l9.3-.1c3.7-.1 6.9-2.4 8.1-5.8l3-8.8c1.7-4.9 8.7-4.9 10.4 0z"/><path d="m568.1 1017.6-7.6 5.4q-1 .5-1.9.8c-3.9 1-7.9-2.6-6.6-6.9l4.6-14.6.1.1v-.1l-12.5-9.1c-4.2-3.1-2-9.7 3.3-9.8l9.3-.1c3.6-.1 6.9-2.4 8-5.8l3-8.8c.4-1.2 2-3.7 5.2-3.7v51.1c-1.3 0-3.1.3-4.9 1.5z" style="fill:url(#g10)"/><path class="y" d="M654.3 977.5c1.1 3.4 4.4 5.7 8 5.8l7.9.1h1.5q1 .1 2 .4c3.7 1.5 4.8 6.7 1.2 9.4l-12.4 9.1s2.3 7.3 4.6 14.7c1.5 4.9-4.1 9-8.4 6l-7.6-5.4c-3-2-7-2-10 0l-7.6 5.4q-.9.5-1.9.9c-3.8.9-7.9-2.7-6.5-7l4.6-14.6v.1-.1l-12.4-9.1c-4.2-3.1-2-9.7 3.2-9.8l9.3-.1c3.7-.1 6.9-2.4 8.1-5.8l3-8.8c1.7-4.9 8.7-4.9 10.4 0z"/><path fill-rule="evenodd" class="g" d="M164.7 1164.6q-3.2 0-5.8-1.1-2.6-1.2-4.2-3.3-1.7-2.1-2.1-5l5.7-.8q.6 2.4 2.5 3.8 1.8 1.3 4.2 1.3 1.4 0 2.6-.4 1.3-.4 2.1-1.2.8-.9.8-2.1 0-.4-.1-.8t-.4-.8q-.3-.3-.9-.7-.5-.3-1.4-.5l-7.5-2.2q-.8-.3-1.9-.7-1.1-.5-2.2-1.3-1-.8-1.7-2.1-.7-1.4-.7-3.5 0-2.9 1.5-4.8 1.4-1.9 3.9-2.8 2.4-1 5.4-1 3 .1 5.3 1.1 2.3.9 3.9 2.8t2.3 4.6l-5.9 1q-.3-1.4-1.2-2.4-.8-.9-2-1.4-1.2-.5-2.5-.6-1.3 0-2.4.4-1.1.4-1.9 1.1-.7.7-.7 1.8 0 .9.6 1.5t1.5.9q.9.4 1.8.6l5 1.4q1.1.3 2.5.8 1.3.5 2.6 1.4 1.2.8 2 2.2.8 1.5.8 3.6 0 2.4-.9 4.1-1 1.7-2.6 2.9-1.7 1.1-3.8 1.6-2 .6-4.2.6zm28.9-.6q-2.2.4-4.4.4-2.1-.1-3.8-.8-1.7-.7-2.6-2.3-.8-1.5-.8-3-.1-1.5-.1-3.5v-8.2h-3.7v-4.2h3.7v-6h5.5v6h6.2v4.2h-6.2v10.2q0 1 .4 1.6.7 1.1 2.3 1.2 1.6.1 3.5-.1zm4.8 0v-21.6h4.8v3.5l.6-1q.7-.9 1.7-1.5.8-.5 1.7-.7.9-.3 1.9-.4 1 0 2 .1v5.1q-.9-.3-2.1-.2-1.2.1-2.2.5-.9.5-1.6 1.2-.6.7-1 1.7-.3 1-.3 2.2v11.1zm4.8-18.1q-.3.5-.5 1.1l.5.7zm21.3 18.7q-3.3 0-5.8-1.4-2.6-1.5-4-4t-1.4-5.7q0-3.6 1.4-6.2t3.8-4.1q2.5-1.4 5.7-1.4 3.4 0 5.8 1.6t3.5 4.5q1.1 2.9.8 6.8h-2.6v-4h-2.9q-.2-1.8-.9-2.7-1.1-1.5-3.5-1.5-2.7 0-4.1 1.7-.7 1-1 2.5h-1.9v4h1.7q.3 1.9 1.2 3.2 1.4 1.6 3.9 1.6 1.6 0 2.7-.7 1.2-.7 1.8-2l5.4 1.5q-1.2 3-3.8 4.6-2.7 1.7-5.8 1.7zm4.4-9.9h-9.8q-.1-.7-.1-1.5 0-1.4.3-2.5h9.5q.1.9.1 2zm24.1 9.3v-10.2q0-.8-.1-1.9-.1-1.2-.5-2.3-.4-1.2-1.4-2-.9-.7-2.7-.7-.7 0-1.5.2t-1.5.8q-.7.7-1.1 1.9-.5 1.2-.5 3.2v11h-5.5v-21.6h4.8v2.2q.8-.8 1.8-1.5 2.1-1.4 5.2-1.4 2.6 0 4.2.9t2.5 2.2q.9 1.3 1.2 2.7.4 1.5.5 2.6.1 1.2.1 1.8v12.1zm19.9 10.2q-1.8 0-3.5-.6-1.6-.6-3-1.7-1.3-1-2.1-2.4l5.1-2.4q.5.9 1.4 1.4 1 .5 2.2.5 1.2 0 2.3-.4 1-.4 1.7-1.2.6-.8.6-2v-2.2q-2.1 1.4-5.2 1.4-2.9 0-5.2-1.5-2.2-1.5-3.5-4.1-1.2-2.6-1.2-5.8 0-3.3 1.2-5.9 1.3-2.6 3.6-4 2.3-1.5 5.4-1.5 3.1 0 5.2 1.5.2.1.4.3v-1.2h4.7v24.6q-.1.7-.3 1.4-.5 2-1.9 3.2-1.4 1.3-3.5 1.9-2 .7-4.4.7zm.4-14.5q1.8 0 2.9-.8 1.1-.8 1.6-2.3.5-1.5.5-3.4 0-2-.5-3.5-.5-1.4-1.5-2.3-1.1-.8-2.8-.8-1.8 0-3 .9-1.1.9-1.7 2.4-.6 1.5-.6 3.3 0 1.8.6 3.3.5 1.5 1.6 2.4 1.2.8 2.9.8zm28.3 4.3q-2.2.4-4.4.3-2.1 0-3.8-.7-1.7-.7-2.6-2.3-.8-1.5-.8-3-.1-1.5-.1-3.5v-8.2h-3.7v-4.2h3.7v-6h5.5v6h6.2v4.2h-6.2v10.2q0 1 .4 1.6.7 1.1 2.3 1.2 1.6.1 3.5-.1zm19.5 0v-12.1q-.1-1.2-.5-2.3-.5-1.2-1.4-2-1-.8-2.7-.8-.7 0-1.5.3-.8.2-1.5.8-.7.6-1.2 1.9-.4 1.2-.4 3.2v11h-5.5v-28.8h4.8v9.4q.8-.8 1.7-1.5 2.1-1.4 5.3-1.4 2.6 0 4.2.9 1.6.8 2.4 2.2.9 1.3 1.3 2.7.4 1.4.5 2.6.1 1.2.1 1.7v12.2zm19.1.6q-4.1 0-6.6-1.9-2.5-1.8-3-5.2l5.5-.9q.4 1.6 1.5 2.4 1.2.9 3 .9 1.5 0 2.3-.6.8-.6.8-1.6 0-.6-.3-1-.4-.4-1.5-.8t-3.4-1q-2.7-.7-4.2-1.5-1.6-.8-2.3-2-.7-1.2-.7-2.8 0-2.1 1-3.6 1.1-1.6 3-2.4 2-.8 4.6-.8 2.5 0 4.5.7 1.9.8 3.1 2.3 1.3 1.4 1.5 3.4l-5.5 1q-.2-1.2-1.1-1.9-.9-.7-2.4-.9-1.5-.1-2.4.4-.9.5-.9 1.5 0 .5.4.9t1.6.8q1.2.4 3.7 1 2.5.7 4 1.5 1.5.9 2.2 2.1.6 1.2.6 2.8 0 3.4-2.4 5.3t-6.6 1.9zM153.8 1309v-28.8H167.1q.7.1 1.3.2 2.5.4 4.2 1.7 1.6 1.3 2.4 3.2.8 2 .8 4.4 0 3.6-1.8 6.2-1.1 1.6-3 2.4l5.2 10.7H170l-4.7-9.8h-6.1v9.8zm5.5-14.8h6.5q.4 0 .9-.1.5 0 .9-.1 1.1-.3 1.7-1 .6-.8.8-1.6.3-.9.3-1.7 0-.8-.3-1.6-.2-.9-.8-1.6-.6-.7-1.7-1-.4-.1-.9-.2h-7.4zm31.4 15.4q-3.3 0-5.9-1.4-2.5-1.4-3.9-3.9-1.5-2.6-1.5-5.8 0-3.5 1.4-6.2 1.4-2.6 3.9-4 2.5-1.5 5.7-1.5 3.4 0 5.7 1.6 2.4 1.6 3.6 4.5 1.1 2.9.8 6.8h-2.7v-4H195q-.3-1.8-1-2.7-1-1.5-3.4-1.5-2.8 0-4.1 1.7-.7 1-1.1 2.5h-1.9v4h1.8q.2 2 1.2 3.2 1.3 1.6 3.9 1.6 1.6 0 2.7-.7t1.7-2l5.5 1.6q-1.2 2.9-3.9 4.6-2.6 1.6-5.7 1.6zm4.4-9.9h-9.8q-.1-.7-.1-1.5 0-1.4.2-2.5h9.6q.1.9.1 2zm18.3 9.9q-4.1 0-6.6-1.8-2.5-1.9-3-5.3l5.5-.8q.4 1.5 1.5 2.4 1.2.8 3 .8 1.5 0 2.3-.5.8-.6.8-1.6 0-.7-.3-1-.3-.4-1.5-.8-1.1-.4-3.4-1-2.6-.7-4.2-1.5-1.6-.9-2.3-2-.7-1.2-.7-2.9 0-2.1 1.1-3.6 1-1.5 2.9-2.3 2-.9 4.6-.9 2.5 0 4.5.8t3.2 2.2q1.2 1.5 1.5 3.4l-5.6 1q-.1-1.2-1-1.9t-2.5-.8q-1.5-.1-2.4.4-.9.5-.9 1.4 0 .6.4 1t1.6.8q1.2.4 3.8 1 2.4.6 3.9 1.5 1.5.8 2.2 2 .7 1.2.7 2.9 0 3.3-2.4 5.2-2.4 1.9-6.7 1.9zm13.8-25.2v-4.8h5.5v4.8zm0 24.6v-21.6h5.4v21.6zm19.9.6q-4.1 0-6.6-1.8-2.5-1.9-3-5.3l5.5-.8q.4 1.5 1.5 2.4 1.2.8 3 .8 1.5 0 2.3-.5.8-.6.8-1.6 0-.7-.3-1-.4-.4-1.5-.8t-3.4-1q-2.7-.7-4.2-1.5-1.6-.9-2.3-2-.7-1.2-.7-2.9 0-2.1 1-3.6 1.1-1.5 3-2.3 2-.9 4.6-.9 2.5 0 4.5.8 1.9.8 3.1 2.2 1.3 1.5 1.5 3.4l-5.5 1q-.2-1.2-1.1-1.9-.9-.7-2.4-.8-1.5-.1-2.4.4-.9.5-.9 1.4 0 .6.4 1t1.6.8q1.2.4 3.7 1t4 1.5q1.5.8 2.2 2 .6 1.2.6 2.9 0 3.3-2.4 5.2-2.4 1.9-6.6 1.9zm26.4-.6q-2.2.4-4.4.4-2.1-.1-3.8-.8-1.7-.7-2.6-2.3-.8-1.4-.8-3-.1-1.5-.1-3.4v-8.3h-3.7v-4.2h3.7v-6h5.5v6h6.2v4.2h-6.2v10.2q0 1 .4 1.6.7 1.2 2.3 1.3 1.6.1 3.5-.2zm10.8.6q-2.3 0-3.9-.9t-2.5-2.4q-.8-1.5-.8-3.3 0-1.5.5-2.7.4-1.2 1.5-2.2 1-.9 2.7-1.6 1.2-.4 2.9-.8 1.7-.3 3.8-.6 1.2-.2 2.6-.4-.2-1.3-.9-2-.9-.9-3.1-.9-1.2 0-2.5.5-1.3.6-1.8 2.1l-4.9-1.6q.8-2.6 3.1-4.3 2.2-1.7 6.1-1.7 2.9 0 5.1.9 2.2.9 3.4 3 .6 1.2.7 2.4.1 1.2.1 2.7v13.2h-4.7v-2.7q-1.3 1.6-2.8 2.3-1.8 1-4.6 1zm6.8-14.9v.8l2-1.1q-1.1.2-2 .3zm.6 11.6q.3-.4.7-.8l-.7-.9zm-6.2-1.1q1.5 0 2.5-.5t1.6-1.2q.7-.7.9-1.1.4-.9.5-2.1v-1.3q-1.3.3-2.3.4-1.5.3-2.4.5-.9.2-1.6.5-.8.3-1.3.7-.5.4-.7.8-.3.4-.3 1 0 .7.4 1.3.4.5 1.1.8.6.2 1.6.2zm5.5-6.2 1.6-.2-1.6-.4v.6zm25.4 9.9v-10.2q0-.7-.1-1.9-.1-1.1-.5-2.3-.4-1.1-1.4-1.9-.9-.8-2.7-.8-.7 0-1.5.2t-1.5.9q-.7.6-1.1 1.8-.5 1.2-.5 3.3v10.9h-5.5v-21.6h4.8v2.2q.8-.8 1.8-1.4 2.1-1.4 5.2-1.4 2.6 0 4.2.8 1.6.9 2.5 2.2.9 1.3 1.2 2.8.4 1.4.5 2.6.1 1.2.1 1.7v12.1zm19.8.6q-3.3 0-5.7-1.5-2.4-1.5-3.7-4.1-1.3-2.5-1.3-5.8t1.3-5.8q1.4-2.6 3.8-4.1 2.4-1.5 5.7-1.5 3.8 0 6.4 2 2.6 1.9 3.3 5.2l-5.4 1.5q-.5-1.7-1.7-2.7-1.2-.9-2.7-.9-1.7 0-2.8.8-1.1.9-1.6 2.3t-.5 3.2q0 2.8 1.2 4.6 1.3 1.7 3.7 1.7 1.9 0 2.8-.8 1-.8 1.5-2.4l5.5 1.2q-.9 3.4-3.5 5.3-2.5 1.8-6.3 1.8zm23.3 0q-3.4 0-5.9-1.4-2.5-1.4-4-3.9-1.4-2.6-1.4-5.8 0-3.5 1.4-6.2 1.4-2.6 3.9-4 2.4-1.5 5.6-1.5 3.4 0 5.8 1.6t3.5 4.5q1.2 2.9.8 6.8h-2.6v-4h-2.9q-.2-1.8-.9-2.7-1-1.5-3.4-1.5-2.8 0-4.1 1.7-.8 1-1.1 2.5h-1.9v4h1.8q.2 2 1.2 3.2 1.3 1.6 3.8 1.6 1.6 0 2.8-.7 1.1-.7 1.7-2l5.5 1.6q-1.3 2.9-3.9 4.6-2.6 1.6-5.7 1.6zm4.4-9.9h-9.8q-.1-.7-.1-1.5 0-1.4.2-2.5h9.5q.2.9.2 2zm18.3 9.9q-4.1 0-6.6-1.8-2.5-1.9-3-5.3l5.5-.8q.4 1.5 1.5 2.4 1.2.8 3 .8 1.5 0 2.3-.5.8-.6.8-1.6 0-.7-.3-1-.4-.5-1.5-.8-1.1-.4-3.4-1-2.7-.7-4.2-1.5-1.6-.9-2.3-2-.7-1.2-.7-2.9 0-2.1 1-3.6 1.1-1.5 3-2.3 2-.9 4.6-.9 2.5 0 4.5.8 1.9.8 3.1 2.2 1.3 1.4 1.5 3.4l-5.5 1q-.2-1.2-1.1-1.9-.9-.7-2.4-.8-1.5-.1-2.4.4-.9.5-.9 1.4 0 .6.4 1 .4.3 1.6.8 1.2.4 3.7 1t4 1.5q1.5.8 2.2 2 .6 1.2.6 2.9 0 3.3-2.4 5.2-2.4 1.9-6.6 1.9zM159.8 1454l-8.4-28.8h5.7l5.4 19.8 5.4-19.8h5.7l5.4 19.8 5.4-19.8h5.8l-8.5 28.8h-5.3l-5.6-19.4-5.6 19.4zm41.2.6q-3.3 0-5.9-1.4-2.5-1.5-3.9-4-1.5-2.5-1.5-5.7 0-3.6 1.4-6.2t3.9-4q2.5-1.5 5.7-1.5 3.4 0 5.7 1.6 2.4 1.6 3.6 4.5 1.1 2.9.8 6.8h-2.7v-4h-2.8q-.3-1.8-1-2.7-1-1.5-3.4-1.5-2.8 0-4.1 1.7-.7 1-1.1 2.5h-1.9v4h1.8q.3 2 1.2 3.2 1.3 1.6 3.9 1.6 1.6 0 2.7-.7t1.7-2l5.5 1.6q-1.2 2.9-3.9 4.6-2.6 1.6-5.7 1.6zm4.4-9.9h-9.8q-.1-.7-.1-1.5 0-1.4.2-2.5h9.6q.1.9.1 2zm15.5 9.9q-2.3 0-3.9-.9t-2.5-2.4q-.8-1.5-.8-3.3 0-1.5.5-2.7.4-1.2 1.4-2.2 1.1-.9 2.8-1.6 1.2-.4 2.9-.8 1.6-.3 3.7-.6 1.3-.2 2.7-.4-.2-1.3-.9-2-.9-.9-3.1-.9-1.2 0-2.5.5-1.3.6-1.8 2.1l-4.9-1.6q.8-2.6 3-4.3 2.3-1.7 6.2-1.7 2.9 0 5.1.9 2.2.9 3.3 3 .7 1.2.8 2.4.1 1.2.1 2.7v13.2h-4.7v-2.7q-1.3 1.6-2.8 2.3-1.8 1-4.6 1zm6.8-14.9v.8l2-1.1q-1.1.2-2 .3zm.6 11.6.6-.8-.6-.9zm-6.2-1.1q1.5 0 2.5-.5t1.6-1.2q.6-.7.9-1.1.4-.9.4-2.1.1-.7.1-1.3-1.3.3-2.3.4-1.5.3-2.4.5-.9.2-1.6.5-.8.3-1.3.7-.5.4-.8.8-.2.4-.2 1 0 .7.4 1.3.4.5 1 .8.7.2 1.7.2zm5.5-6.2q.7-.1 1.6-.2l-1.6-.4v.6zm10.6 9.9v-28.8h5.5v17.6l7.4-10.4h6.7l-7.8 10.8 8.3 10.8h-7.1l-7.5-10.4v10.4zm36.9 0v-10.2q0-.7-.1-1.9-.1-1.1-.5-2.3-.4-1.1-1.4-1.9-.9-.8-2.7-.8-.7 0-1.5.2t-1.5.9q-.7.6-1.1 1.8-.5 1.2-.5 3.3v10.9h-5.5v-21.6h4.8v2.2q.8-.8 1.8-1.4 2.1-1.4 5.2-1.4 2.6 0 4.2.8 1.6.9 2.5 2.2.9 1.3 1.2 2.8.4 1.4.5 2.6.1 1.2.1 1.7v12.1zm20.3.6q-3.3 0-5.8-1.4t-4-3.9q-1.4-2.6-1.4-5.8 0-3.5 1.4-6.2 1.4-2.6 3.9-4 2.4-1.5 5.6-1.5 3.4 0 5.8 1.6t3.5 4.5q1.2 2.9.8 6.8h-2.6v-4h-2.9q-.2-1.8-.9-2.7-1.1-1.5-3.4-1.5-2.8 0-4.1 1.7-.8 1-1.1 2.5h-1.9v4h1.8q.2 2 1.2 3.2 1.3 1.6 3.8 1.6 1.6 0 2.8-.7 1.1-.7 1.7-2l5.4 1.6q-1.2 2.9-3.8 4.6-2.6 1.6-5.8 1.6zm4.4-9.9h-9.7q-.1-.7-.1-1.5 0-1.4.2-2.5h9.5q.1.9.1 2zm18.4 9.9q-4.1 0-6.6-1.8-2.5-1.9-3.1-5.3l5.6-.8q.3 1.5 1.5 2.4 1.2.8 3 .8 1.5 0 2.3-.5.8-.6.8-1.6 0-.7-.4-1-.3-.5-1.4-.8-1.1-.4-3.4-1-2.7-.7-4.3-1.5-1.5-.9-2.2-2-.7-1.2-.7-2.9 0-2.1 1-3.6 1.1-1.5 3-2.3 1.9-.9 4.6-.9 2.5 0 4.5.8 1.9.8 3.1 2.2 1.2 1.5 1.5 3.4l-5.5 1q-.2-1.2-1.1-1.9-.9-.7-2.4-.8-1.5-.1-2.4.4-.9.5-.9 1.4 0 .6.3 1 .4.3 1.7.8 1.2.4 3.7 1t4 1.5q1.5.8 2.1 2 .7 1.2.7 2.9 0 3.3-2.4 5.2-2.4 1.9-6.6 1.9zm21.9 0q-4.1 0-6.6-1.8-2.5-1.9-3.1-5.3l5.6-.8q.3 1.5 1.5 2.4 1.2.8 3 .8 1.4 0 2.2-.5.8-.6.8-1.6 0-.7-.3-1-.3-.5-1.4-.8-1.1-.4-3.5-1-2.6-.7-4.2-1.5-1.6-.9-2.3-2-.7-1.2-.7-2.9 0-2.1 1.1-3.6t3-2.3q1.9-.9 4.5-.9t4.5.8q2 .8 3.2 2.2 1.2 1.5 1.5 3.4l-5.6 1q-.1-1.2-1-1.9t-2.4-.8q-1.5-.1-2.5.4-.9.5-.9 1.4 0 .6.4 1 .4.3 1.6.8 1.3.4 3.8 1t3.9 1.5q1.5.8 2.2 2 .7 1.2.7 2.9 0 3.3-2.4 5.2-2.4 1.9-6.6 1.9zm23.4 0q-3.3 0-5.8-1.4-2.6-1.4-4-3.9-1.4-2.6-1.4-5.8 0-3.5 1.4-6.2 1.4-2.6 3.8-4 2.5-1.5 5.7-1.5 3.4 0 5.8 1.6t3.5 4.5q1.1 2.9.8 6.8h-2.6v-4h-2.9q-.2-1.8-.9-2.7-1.1-1.5-3.5-1.5-2.7 0-4.1 1.7-.7 1-1 2.5h-1.9v4h1.7q.3 2 1.2 3.2 1.4 1.6 3.9 1.6 1.6 0 2.7-.7 1.2-.7 1.8-2l5.4 1.6q-1.2 2.9-3.8 4.6-2.7 1.6-5.8 1.6zm4.4-9.9h-9.8q-.1-.7-.1-1.5 0-1.4.3-2.5h9.5q.1.9.1 2zm18.4 9.9q-4.1 0-6.6-1.8-2.5-1.9-3.1-5.3l5.6-.8q.3 1.5 1.5 2.4 1.2.8 3 .8 1.4 0 2.2-.5.8-.6.8-1.6 0-.7-.3-1-.3-.5-1.4-.8-1.1-.4-3.5-1-2.6-.7-4.2-1.5-1.6-.9-2.3-2-.7-1.2-.7-2.9 0-2.1 1.1-3.6t3-2.3q1.9-.9 4.5-.9t4.5.8q2 .8 3.2 2.2 1.2 1.5 1.5 3.4l-5.6 1q-.1-1.2-1-1.9t-2.4-.8q-1.5-.1-2.5.4-.9.5-.9 1.4 0 .6.4 1 .4.3 1.6.8 1.3.4 3.8 1t3.9 1.5q1.5.8 2.2 2 .7 1.2.7 2.9 0 3.3-2.4 5.2-2.4 1.9-6.6 1.9zM252.8 82l14.8 36.3h.8L283.2 82h21.7v64h-17v-37h-.5l-14.3 36.5h-10.2l-14.3-36.8h-.5V146h-17V82zm91.3 64.9c-17.5 0-31.2-11.7-31.2-32.9 0-21.4 13.7-32.9 31.2-32.9 17.3 0 31.1 11.5 31.1 32.9s-13.8 32.9-31.1 32.9zm0-50.7c-8.7 0-13.3 6.3-13.3 17.8s4.6 17.7 13.3 17.7c8.6 0 13.2-6.2 13.2-17.7s-4.6-17.8-13.2-17.8zm70 50.7c-17.5 0-31.1-11.7-31.1-32.9 0-21.4 13.6-32.9 31.1-32.9 17.4 0 31.1 11.5 31.1 32.9s-13.7 32.9-31.1 32.9zm0-50.7c-8.6 0-13.3 6.3-13.3 17.8s4.7 17.7 13.3 17.7c8.6 0 13.2-6.2 13.2-17.7s-4.6-17.8-13.2-17.8zm94.5 49.8h-14.5L471 112.4h-.4V146h-17.3V82H468l22.8 33.5h.5V82h17.3zm8.3-64h27.6c14.2 0 23.7 8.1 23.7 21.8 0 8.8-4 15-10.8 18.3l13 23.9h-18.9l-11.3-21.1h-6V146h-17.3zm23.5 29.4c6 0 9.7-2.2 9.7-7.6 0-5.5-3.7-7.9-9.7-7.9h-6.2v15.5zm66.2 35.5c-17.5 0-31.1-11.6-31.1-32.9 0-21.4 13.6-32.9 31.1-32.9 17.4 0 31.1 11.5 31.1 32.9s-13.7 32.9-31.1 32.9zm0-50.6c-8.6 0-13.3 6.2-13.3 17.7s4.7 17.8 13.3 17.8c8.6 0 13.2-6.3 13.2-17.8s-4.6-17.7-13.2-17.7zm81.3 9.7c-.5-5.8-4.3-9.7-11-9.7-8.8 0-13.5 6.6-13.5 17.7 0 11.8 4.9 17.8 13.4 17.8 6.3 0 10.2-3.5 11.1-8.9l17.6.1c-.9 10.9-10.4 23.9-29.1 23.9-17.6 0-30.9-11.6-30.9-32.9 0-21.4 13.6-32.9 30.9-32.9 16.1 0 27.7 9 29.1 24.9zm25.5-24h17.4v25.9h.9L750.9 82h20.3l-21.7 28.5 22.2 35.5h-20.8l-14.4-24-5.7 7.5V146h-17.4z"/><g clip-path="url(#cp8)"><path d="M104 223c0-13.3 10.7-24 24-24h744c13.3 0 24 10.7 24 24v458c0 13.3-10.7 24-24 24H128c-13.3 0-24-10.7-24-24z" style="fill:url(#g11)"/><path fill-rule="evenodd" d="M559.1 692.5h186L554.5 587.7l50.5 38.4-34.9-16L456.2 540l85.4 42.9L229 403.6l57.8 39.7-170.7-97.8v52L495 645.4l-155.9-97z" style="fill:url(#g12)"/><path fill-rule="evenodd" d="M116.1 295.5s22.3 16.2 26.9 20c4.5 3.9 16.5 3.6 20.5 7.7 3.9 4.1 11.1 5.8 16.2 11.4 5 5.5 21.6 9.6 27.3 16.1 5.7 6.6 15.2 9.2 20.2 12.2 4.9 3 19.9 10.1 19.9 10.1s-18.3-8.5-21.3-17.2c-3-8.5-1.3-19.3-1.3-19.3s3.9-.8 0-7.9c-3.8-7.1-.6-11.6-5.4-17.6-4.8-5.9-7.1-16.6-3.8-21.7 3.2-5 10.9-19.7 9.2-28.4-1.7-8.8 13.2-15.1 13.2-15.1s22.7 2.1 25.4 5.6c2.7 3.6 22.6 9.5 22.6 9.5s15.9.9 18.1 0c2.1-.8 8.9 4.9 14.5 9.8 5.5 5 6.7 2 14.4 7.3s9.1 13.4 13.6 17.3c0 0-5-8.7-6.5-17.3 0 0 8 .8 13.6 2.2 5.7 1.4 8.6 1.2 12.4 4.1 4 3 8.3 5 8.3 5s-6.7-6-8.3-9.4c-1.5-3.2-2.8-6.6-5-7.9-2.1-1.3-25.4-7.1-31.4-9.9-6-2.9-11.1-11.9-11.1-11.9s-13.7-19.2-22.4-19.6c-8.6-.3-23.7-4.4-29.3-8.4-5.8-3.5-17.5-11.2-17.5-11.2h-122c-6.1 0-11 4.9-11 11z" style="opacity:.1;fill:#fff"/><g clip-path="url(#cp9)"><path fill-rule="evenodd" d="M218.5 309.8s-1.2 18.1 0 25.6c0 0 1.4 4.3 8.2 6.2v14.3s11.3 2.6 15.1-1.7c3.9-4.1 20.2-48.2 20.2-48.2l-19.7 2.1z" style="fill:url(#g13)"/><path fill-rule="evenodd" d="M218.5 309.8s13.9-.9 16.3-2.4l4.8-2.4 22.4 1.2s-12.2 5.7-15 7.3c-3.2 1.7-10.2.5-16.4.1-6-.8-12.1-3.8-12.1-3.8z" style="fill:url(#g14)"/><path fill-rule="evenodd" d="m218.5 335.4 3.2.6c2.6.5 5.3.3 7.8-.6l.6 4 1.8-4 1 5.5c3.5 1.3 7.3-1 7.6-4.8.4-3.9.9-8.1 1.2-9.7.8-3.1 10.7-15.6 10.7-15.6l9.4-4.8s-12.3 35.9-17.8 44.3l-4.1 6.3-12.8 2.4-5.1-1.8 4.4-15.8c.3.2-7.4-1.9-7.9-6z" style="fill:url(#g15)"/></g><g clip-path="url(#cp10)"><path fill-rule="evenodd" d="M770 301.8s-3.2 9.6-5.6 12.2c-2.3 2.7-19.3 4-19.3 4s-12.5-6.9-14-10.9c-.3-.5-.3-1.1-.6-1.9-1-7.2-1-28.7 1.6-31.9 0 0 4.8-6.1 7.7-7.7 2.9-1.9 18.5 3.7 20.9 5.6.6.2 1.1.8 1.4 1v.3c1.3 2.4 1.3 6.1 1.3 6.4 0 0 3.7 2.1 4.5 4 .8 2.4 2.1 18.9 2.1 18.9z" style="fill:url(#g16)"/><path fill-rule="evenodd" d="M770 301.8s-3.2 9.6-5.6 12.2c-2.3 2.7-19.3 4-19.3 4s-12.5-6.9-14-10.9c-.3-.5-.3-1.1-.6-1.9.3.3 5.6 5.1 9 6.2 1.2.3 2-9 3.8-19.4 1.1 7.2 1.9 12.6 2.3 15.8.1.6.9.6 1 0l.4-2.6.7-9.3.8-9.8 1.6-5.3 2 16.6s2.3-3.3 2.5-5.7c.3-2.4 1.9-13.3 1.9-13.3l5.8-5.9v.3c.5.5-3-.2-3.5 3.3l1.7 10.5-.6 7.7 2.2 8.8s2.6-3.5 3.7-5.1c1-1.5 1-6.3 1-6.3l1.3-8.5c.6 2.1 1.9 18.6 1.9 18.6z" style="fill:url(#g17)"/><path fill-rule="evenodd" d="m731.6 274.4 18.4 6.3 3.3-1.3 3.7-2.1 5.1-5.1s-.6-2.6-3.2-3.7c-2.9-1-18-4.5-18-4.5l-1.6 1.1s-6.1 6.3-7.7 9.3z" style="fill:url(#g18)"/><path fill-rule="evenodd" d="m763.4 278.9-3.2 7.4 4 1.1 3.2-1.1.5-3.1s-2.1-3.2-4.5-4.3z" style="fill:url(#g19)"/></g><g clip-path="url(#cp11)"><path fill-rule="evenodd" d="M732 538.8c-.3 2-2 16-2.6 19.1-.6 3.4-2 3.4-2 3.4s-3.5 9.7-6.6 11.1c-3.2 1.5-12.7-.5-12.7-.5S696 562.8 694 540c0 0 11.5-5.4 19.6-5.1 8 .5 18.4 3.9 18.4 3.9z" style="fill:url(#g20)"/><path fill-rule="evenodd" d="M732 539.1c-.3 1.7-2 15.7-2.6 18.8-.6 3.4-2 3.4-2 3.4s-3.5 9.7-6.6 11.1c-3.2 1.5-12.7-.5-12.7-.5S696 562.8 694 540c0 0 3.2 15.6 8.6 22.2 5.5 6.5 11.3 4 11.3 4l5.7-12.3 2.6-9.4 2-4.2 2.6 7.9-1.1 8h3.7z" style="fill:url(#g21)"/><path fill-rule="evenodd" d="m694 540 10.7-.3 10-.9 13-.2 4.6.2s-11.2-4.2-17.9-4.8c-6.6-.6-20.4 6-20.4 6z" style="fill:#e5bfff"/></g><path d="M901.7 617.4H63.3v239.7h838.4z" style="fill:url(#g22)"/><path fill-rule="evenodd" class="O" d="M-623 841.9h2209c-233.3-75.2-466.6-150.5-700-225.8H76.9C-156.4 691.4-389.7 766.6-623 841.9z"/><path fill-rule="evenodd" class="P" d="M69 618.6h825M61.6 621h839.7M54.6 623.3h853.8M47.7 625.5h867.4M41 627.6h881M34.1 629.9h894.8M27 632.2h909M19.4 634.6h924.2M11.3 637.2h940.4"/><path fill-rule="evenodd" class="Q" d="M2.5 640h957.9M-7.2 643.2h977.3M-17.9 646.6h998.8M-29.8 650.5H992.7M-43.1 654.8h1049M-57.8 659.6h1078.6M-74.1 664.8h1111.3M-92.4 670.7h1147.7M-112.5 677.2h1187.9M-134.7 684.3h1232.4"/><path fill-rule="evenodd" class="O" d="M-159.3 692.3h1281.5M-186.3 700.9H1149"/><path fill-rule="evenodd" class="g" d="m103 616.1-654.7 225.8c173.6-59.9 347.3-119.8 521-179.7q66.8-23 133.7-46.1zm-278.9 113q-152.3 56.5-304.6 112.8zm.3 0 304.8-113zm48.9-.1 282-112.8zm48.3.1Q-208.2 785.6-338 842zm0 0q129.8-56.5 259.7-112.9zm48.5.1Q-148.4 785.6-266.8 842zm.4-.2 236.8-112.8zm48.4.2q-107.3 56.5-214.5 112.9zm-143.2 112.9C3.5 766.9 131.2 691.7 259 616.6zm198-84.5.3-.2.1-.1h.1l.1-.1.4-.3 211-140.6L-10.8 814q42-28.1 84.1-56.1l.3-.2v-.1zm91.4-28.4q73.4-56.5 146.8-112.9zm48.7 0q62.1-56.5 124.2-112.9zm97.3 0 79-113zm48.7 0q28.2-56.4 56.4-112.9zm14.9 112.9q16.9-56.4 33.8-112.9zm180-112.8q-17-56.5-33.9-113zm-86.2-113c-7.4 75.2-14.9 150.6-22.5 225.8zm48.7 225.8c-7.5-75.2-15.1-150.6-22.5-225.8zm29.6-225.8q28.3 56.4 56.5 112.9zm26.1 0q39.5 56.4 79 112.9zm52.2 0q62.1 56.4 124.2 112.9zM889 757.5q42.2 28.1 84.4 56.3L677.3 616.3q105.8 70.5 211.5 141.1h.1l.1.1zm269.5 84.6Q1051.8 786 945.1 729.8zM755.6 616.2q118.5 56.5 237.1 113zm26.1 0q129.8 56.4 259.6 112.9zm26.1 0q140.5 56.2 281.1 112.5zm52.2 0q163.7 56.4 327.4 112.9zM1087.3 842q-96-56.4-192-112.9z"/><path fill-rule="evenodd" d="M1515 840.9 859.8 616l654.5 226.9zm-71.1 0L833.9 616l609.2 227zm-71.1 0L807.8 616l564.1 226.8zm-71.3.1L781.8 616.1 1300.7 843zm-71.3 0L755.5 616.1l473.7 226.8zm-71.1 0L729.6 616.1l428.5 226.8zm-71.3 0L703.4 616.1l383.2 226.8zm-71.1 0L677.3 616.1l338.1 226.7zm-71.3.1-294.2-225 292.9 226.7zm-71.1 0L625.1 616l247.7 226.7zm-71.3.2L599.1 616.2l202.4 226.6zm-71.1.1L573 616.2l157.1 226.4zm-71.1.1L546.9 616.2l111.9 226.3zm-71.1.3-68.8-225.6 66.7 226.2zm-71.2.2-23.6-225.7 21.4 225.9zm-71.2.3 21.4-226L445.1 842zm-71.3.3 66.8-226.2L374 841.9zm-71.4.1 111.9-226.4-113.8 225.4zm-71.4.2 157.2-226.5-158.9 225.3zm-71.3.1 202.5-226.6-204.1 225.2zm-71.4.1 247.7-226.7L89.1 841.5zm-71.3.1 292.9-226.7L17.9 841.4zm-71.3 0L286 616.5-53.3 841.4zm-71.3 0 383.2-226.8-384.3 225zm-71.3.1 428.6-226.8-429.5 224.8zm-71.3 0 473.7-226.8L-267 841.4zm-71.4 0 518.9-226.8-519.6 224.9zm-71.3 0 564.1-226.8-564.9 224.8zm-71.3 0 609.2-226.9-609.9 224.9zm-71.3 0 654.5-226.9-655.3 224.8z" style="opacity:.4;fill:#fff"/><path d="M500.5 665C384.6 665 291 654.3 291 641s93.6-24 209.5-24S710 627.7 710 641s-93.6 24-209.5 24z" style="fill:url(#g23)"/><path fill-rule="evenodd" d="M354.3 324.7s-6.1 29.9-5.2 37c.5 7.1 14.2 22.8 14.2 22.8s14.3 96.3 19 111.5c4.7 15.2 19.9 34.2 19.9 34.2s19.2 26 39.9 42.8c9 7.3 22.7 5.8 32.9 11.4 12.3 6.7 23.3 22.6 31.5 22.6 25.6 0 48-68.6 48-68.6s40.7-133.5 43.6-136.9c3.3-3.3 20.9-9.4 20.9-9.4s28.9-52.7 31.3-66.4l-80.7 3.8z" style="fill:url(#g24)"/><path fill-rule="evenodd" d="m354.3 324.7 38.4-4.7 22.3-3.8s132.7 2.4 163 3.8c0 0 8.1-3.6 13.7-6.1 5.6 1.2 10.7 6.1 10.7 6.1l47.9 6.2s-21.9 7.5-38.9 7.1l16.1 5.7s-3.8 3.3-10 5.2c-6.6 1.9-41.6 4.8-77.3 3.3-23.2-1-33.2-8.5-33.2-8.5l-1.3-3.9-.6-1.4-45 6.3-39.4-3.9-1.4-2.8c.5-1-38.4-2.9-65-8.6z" style="fill:url(#g25)"/><path fill-rule="evenodd" d="m600 361.2-11.4 27.5-13.8 12.8-15.1 5.7-11.9 8.6h10.4l-.9 10.9-5.7 26.5-10.9 88.4-1.6 18.9s47.1-140 58.5-158.5c0 0 19-5.7 20.9-9.5.2-.5.9-1.8 1.9-3.7 6.7-12.7 27.3-51.9 29.4-62.6l-38.9 7.1 16.6 5.7s-11.4 5.2-19 6.1c-7.6 1-27.9 2.4-27.9 2.4l23.7 3.8zm-204.4-1.8s-6.7-2.5-9.1 3.2c-2.3 6.2-15.6 11.8-15.6 11.8l-7.6 10 11.5 73.7s11.3 35.8 15.5 38.7c4.3 2.8 14.3 10.9 14.3 10.9l6.1 16.1s2.4-66.4 2.4-71.1c.5-4.8 6.2-81.1 5.2-84.9-.9-3.3.5-17 .5-17l1.4-14.3s30.4 4.3 33.7 5.3c3.3 1.4 4.7 13.7 4.7 13.7l10.5 24.2-11 91.9 4.8 29.9 1.4 22.3 6.5 58.7 3.5 1.5 3.1 1.7 3.8 2.7 3.5 2.9s20.4-107.8 20.9-111.6c.9-3.8-2.9-11.9-2.9-11.9l5.2-92.4-.9-36.5-1.7-4.6-.4-1.1s-38.7 5.8-44.9 6.7c-6.6 0-39.3-5.7-39.3-5.7l19.4-4.8-29.4 2.4v20.9z" style="fill:url(#g26)"/><path fill-rule="evenodd" d="m415.2 314.2-8.5 4.3s6.2 1.4 9.9 2.4c3.8.9 23.3-.5 26.6-1.4 3.3-1 16.6-4.8 16.6-4.8l.5-4.2s-19.6-15-22.4-14.5c-3.3 0-17.5 15.4-22.7 18.2z" style="fill:url(#g27)"/><path fill-rule="evenodd" d="m468.3 316.1-8.1 8.4-28.7-.5-14.2-3.1s23.5-1.9 26.9-2.4c3.3-.5 15.1-4.3 15.1-4.3l.5-4.2z" style="fill:url(#g28)"/><path fill-rule="evenodd" d="m602.3 319.9-1.9 2.3-4.4.8-6.4-.4-5-1s8.2-.7 9.3-.9c.7-.1 2.4-.6 3.7-.9 1-.3 1.7-1.2 1.8-2.2l1.8 1.4z" style="fill:url(#g29)"/><path fill-rule="evenodd" d="m410.8 352.7 8.5 20.4 1.4-38.9 19.9-4.7-29.8 2.4z" style="fill:url(#g30)"/><path fill-rule="evenodd" d="m611.4 333.3 16.1 5.7-7.1 50.7s21.8-41.3 29.9-63.5z" style="fill:url(#g31)"/><path d="M548 415.7h10l-.8 11.2-5.8 26.2-.5 6.8 37.8-71.2-13.9 12.8-15.5 5.8z" style="fill:url(#g32)"/><path fill-rule="evenodd" d="m460.1 339.9 20.4 19.9 12.8 13.3 9.9 85.4 4.3-81.1-.5-38.4-1.1-3.5-.8-2.2z" style="fill:url(#g33)"/><path d="M110 223c0-9.9 8.1-18 18-18h744c9.9 0 18 8.1 18 18v458c0 9.9-8.1 18-18 18H128c-9.9 0-18-8.1-18-18z" style="fill:none;stroke:#ffe600;stroke-width:12"/></g></g><path fill-rule="evenodd" class="g" d="M235.8 796v-36.4h4v16.5h18.8v-16.5h3.9V796h-3.9v-16.4h-18.8V796zm39 0-4.8-4.8v-16.3l4.8-4.8h13.3l4.8 4.8v16.3l-4.8 4.8zm1.7-3.4h10l2.6-2.6v-13.9l-2.6-2.6h-10l-2.6 2.6V790zm26.7 3.5-4.3-4.3v-3.2h3.8v2.1l2.1 2h9.6l2.1-2v-4l-2.1-2.1h-11.2l-4.1-4.1v-6.1l4.3-4.2h12.1l4.3 4.2v3.2H316v-2.1l-2.1-2H305l-2 2v3.8l2 2.1h11.1l4.2 4.3v6.1l-4.2 4.3zm30.7 0-4.7-4.8v-17.8h-4.7v-3.3h4.8v-8.5h3.7v8.5h8.1v3.3H333v16.6l2.6 2.6h5.5v3.4zm15.9 0-4.3-4.3v-3.2h3.9v2.1l2 2h9.6l2.1-2v-4l-2.1-2.1h-11.2l-4.1-4.1v-6.1l4.3-4.2h12.2l4.2 4.2v3.2h-3.8v-2.1l-2.1-2h-8.9l-2 2v3.8l2 2.1h11.1l4.2 4.3v6.1l-4.2 4.3zm36.3 0v-37.2h3.9v16.7l5.4-5.4h8l4.8 4.7v21.2h-3.8v-20l-2.6-2.5h-5.4L390 780v16.1zm33.1 0-4.3-4.3v-6.6l4.3-4.2H433v-5l-2.6-2.5h-8.8L419 776v2.2h-3.9v-3.3l4.8-4.7H432l4.8 4.7v21.2h-3.7v-4.6l-4.8 4.6zm1.7-3.4h6.7l5.5-5.2v-3.2h-12.2l-2.1 2v4.4zm29.4 3.3-9.5-25.9h3.9l7.7 22.1h.2l7.7-22.1h4l-9.5 25.9zm22.4 0-4.8-4.8v-16.3l4.8-4.8h13l4.9 4.8v9.3h-18.8v5.8l2.6 2.6h9.7l2.6-2.6v-1.9h3.8v3.1l-4.8 4.8zm-.9-15.1h15v-4.8l-2.6-2.5h-9.8l-2.6 2.5zm42 15.1-4.2-4.2v-6.6l4.2-4.2h13.9v-5l-2.6-2.5h-8.9l-2.6 2.5v2.2h-3.8v-3.3l4.8-4.8h12.1l4.8 4.8V796h-3.7v-4.5L523 796zm1.6-3.3h6.7l5.5-5.2v-3.2h-12.2l-2 2v4.4zm42.5 3.3v-32.3l-8.2 4.2v-3.7l8.5-4.6h3.6V796zm17.3 0-5.2-5.2v-26l5.2-5.2h14.9l5.2 5.2v26l-5.2 5.2zm1.8-3.5h11.4l3.1-3v-23.4l-3.1-3H577l-3 3v23.4zm30.9 3.5-5.2-5.2v-26l5.2-5.2h15l5.2 5.2v26l-5.2 5.2zm1.7-3.5h11.5l3-3v-23.4l-3-2.9h-11.5l-3 2.9v23.4zm28.3-13.7-3.4-3.4v-12.3l3.4-3.4h7.9l3.4 3.4v12.3l-3.4 3.4zm3.3 17.3 20-36.4h4.1l-20.1 36.4zm-1.6-20.3h4.6l1.6-1.5v-10.1l-1.6-1.5h-4.6l-1.6 1.5v10.1zm21 20.3-3.4-3.4v-12.4l3.4-3.4h7.9l3.3 3.4v12.4l-3.3 3.4zm1.6-3h4.7l1.5-1.5v-10.1l-1.5-1.5h-4.7l-1.6 1.5v10.1zm33.1 3-6-25.9h3.9l4.4 21.5h.2l6.2-21.5h3.8l5.6 21.5h.2l4.8-21.5h4l-6.6 25.9h-4.1l-5.8-21.4h-.1l-6.3 21.4zm34.1-30.3-1.6-1.6V762l1.6-1.6h2.3l1.6 1.6v2.2l-1.6 1.6zm-.8 30.3v-25.9h3.9v25.9zm12.1 0v-25.9h3.8v5.5l5.5-5.5h7.9l4.8 4.8v21.1h-3.8v-19.9l-2.6-2.6H751l-6.4 6.5v16zm-489.5 62-4.8-4.8V837l4.8-4.8h12.5l4.7 4.8v3.1h-3.8v-1.9l-2.6-2.6h-9.2l-2.6 2.6v13.9l2.6 2.5h9.2l2.6-2.5v-2h3.8v3.2l-4.7 4.8zm23.5 0v-37.2h3.8v16.7l5.4-5.4h8.1l4.8 4.8v21.1h-3.9v-19.9l-2.6-2.6H285l-6.5 6.5v16zm33.1 0-4.2-4.3v-6.6l4.2-4.2h13.9v-5l-2.6-2.5h-8.9l-2.6 2.5v2.2h-3.8V837l4.8-4.8h12.1l4.8 4.8v21.1h-3.7v-4.6l-4.8 4.6zm1.7-3.4h6.7l5.4-5.2v-3.2h-12.1l-2.1 2v4.4zM333 858v-25.9h3.7v5.6l5.5-5.6h8l4.8 4.8V858h-3.9v-19.9l-2.6-2.5h-5.2l-6.5 6.4v16zm33.8 0-4.8-4.7v-16.4l4.8-4.8h12.5l4.8 4.8v3.2h-3.9v-2l-2.6-2.5h-9.1l-2.6 2.5v14l2.6 2.5h9.1l2.6-2.5v-2h3.9v3.2l-4.8 4.7zm27.8 0-4.8-4.7v-16.4l4.8-4.8h13l4.9 4.8v9.3h-18.9v5.9l2.6 2.5h9.8l2.6-2.5v-2h3.8v3.2l-4.8 4.7zm-.9-15.1h15v-4.8l-2.6-2.5h-9.8l-2.6 2.5zm42.5 15.2-6.1-25.9h4l4.4 21.5h.2l6.2-21.5h3.8l5.6 21.5h.2l4.8-21.5h4l-6.6 25.9h-4.1l-5.8-21.4h-.1l-6.3 21.4zm32.8 0v-37.2h3.8v16.7l5.5-5.4h8l4.8 4.7v21.2h-3.9v-20l-2.6-2.5h-5.3l-6.5 6.4v16.1zm31-30.3-1.6-1.6v-2.3l1.6-1.5h2.3l1.5 1.5v2.3l-1.5 1.6zm-.8 30.3v-25.9h3.8v25.9zm12.5 0v-37.2h3.8v37.2zm14.9 0-4.3-4.3v-3.2h3.9v2.1l2.1 2h9.5l2.1-2v-4l-2.1-2.1h-11.2l-4.1-4.1v-6.1l4.3-4.2H539l4.2 4.2v3.2h-3.8v-2.1l-2.1-2h-8.8l-2.1 2v3.8l2.1 2.1h11l4.2 4.3v6.1l-4.2 4.3zm30.8 0-4.8-4.8v-17.8h-4.7v-3.3h4.8v-8.5h3.7v8.5h8.1v3.3h-8.1v16.6l2.6 2.6h5.5v3.4zm29.5 0-5.7-5.8v-5.1h3.9v3.8l3.5 3.5h8.9l2.9-2.9v-29.9h4v31.2l-5.2 5.2zm29.5 0-4.7-4.8v-16.4l4.7-4.7h13.3l4.8 4.7v16.4l-4.8 4.8zm1.7-3.5h10l2.6-2.5v-14l-2.6-2.5h-10l-2.6 2.5v14zm25-26.9-1.5-1.5v-2.3l1.5-1.6h2.3l1.6 1.6v2.3l-1.6 1.5zm-.8 30.3v-25.9h3.9V858zm12.1 0v-25.9h3.8v5.5l5.5-5.5h8l4.7 4.8V858h-3.8v-19.9l-2.6-2.6h-5.3l-6.4 6.5v16zm33.8 0-4.8-4.8v-16.3l4.8-4.8h13l4.9 4.8v9.3h-18.8v5.8l2.6 2.6h9.7l2.6-2.6v-1.9h3.8v3.1l-4.8 4.8zm-.9-15.1h15v-4.8l-2.6-2.6h-9.8l-2.6 2.6zm25.9 15.1v-25.9h3.7v4.7l4.6-4.7h6.7v3.5h-5.7l-5.5 5.5V858zm22.2 0-4.3-4.2v-3.3h3.9v2.2l2.1 2h9.5l2.1-2v-4l-2.1-2.1h-11.1l-4.1-4.1v-6.1l4.2-4.3h12.2l4.2 4.3v3.2h-3.8v-2.1l-2.1-2h-8.8l-2.1 2v3.8l2.1 2.1h11l4.3 4.2v6.2l-4.3 4.2zm-481.8 63-6.1-25.9h3.9l4.5 21.6h.1l6.3-21.6h3.7l5.7 21.6h.1l4.9-21.6h3.9l-6.5 25.9h-4.2l-5.7-21.3h-.2l-6.2 21.3zm34-30.2-1.5-1.6v-2.3l1.5-1.5h2.3l1.6 1.5v2.3l-1.6 1.6zm-.7 30.2v-25.9h3.8V921zm12.4 0v-37.1h3.9V921zm12.1 0v-37.1h3.9V921zm23.5 0v-6.9l19-18.9v-4.5l-2.6-2.5h-10.1l-2.6 2.5v2.8h-3.9v-4.1l4.8-4.8h13.6l4.8 4.8v7l-19.1 18.8v2.3h19.3v3.5zm50.1 0h-4.3l-7.3-10.2L366 921h-4.3l9.5-13.1-9.2-12.8h4.3l7.1 9.9 7-9.9h4.4l-9.2 12.9zm19.9 0v-22.5h-4.7v-3.4h4.7v-5.8l4.5-4.5h7.5v3.3h-5.8l-2.3 2.3v4.7h8.1v3.4h-8.1V921zm16.9 0v-25.9h3.8v4.6l4.6-4.6h6.7v3.4h-5.7l-5.5 5.5v17zm23 0-4.8-4.8v-16.3l4.8-4.8h13.3l4.7 4.8v16.3l-4.7 4.8zm1.6-3.5h10l2.6-2.5v-13.9l-2.6-2.6h-10l-2.6 2.6V915zm23.7 3.4V895h3.8v5l5-5h6.2l4 4.1 4.1-4.1h8.1l4.8 4.8v21.1h-3.8V901l-2.6-2.5H494l-3.7 3.6v18.8h-3.7V901l-2.6-2.5h-4.4l-5.6 5.6v16.8zm63.3 0-4.8-4.8v-17.7H524V895h4.7v-8.4h3.8v8.4h8.1v3.4h-8.1v16.5l2.6 2.6h5.5v3.4zm13.2 0v-37.1h3.8v16.6l5.4-5.4h8.1l4.8 4.8v21.1h-3.9V901l-2.6-2.5h-5.3l-6.5 6.4v16zm33.9 0-4.8-4.8v-16.3l4.8-4.8h13.1l4.8 4.8v9.3h-18.8v5.8l2.6 2.6h9.7l2.6-2.6V913h3.8v3.1l-4.7 4.8zm-1-15.1h15V901l-2.6-2.5h-9.8l-2.6 2.5zm27.2-15.1-1.6-1.6v-2.3l1.6-1.5h2.3l1.5 1.5v2.3l-1.5 1.6zm-.8 30.2V895h3.8v25.9zm12.2 0V895h3.7v4.7l4.7-4.7h6.7v3.5h-5.7l-5.6 5.5v16.9zm36.8 0-6.1-25.9h3.9l4.4 21.6h.2l6.2-21.6h3.8l5.6 21.6h.2l4.8-21.6h4l-6.6 25.9h-4.1l-5.7-21.3h-.2l-6.2 21.3zm34-30.2-1.5-1.6v-2.3l1.5-1.5h2.3l1.6 1.5v2.3l-1.6 1.6zm-.8 30.2V895h3.9v25.9zm12.1 0V895h3.8v5.6l5.5-5.6h8l4.7 4.8v21.1h-3.8V901l-2.6-2.5h-5.3l-6.4 6.4v16zm32.5 0-4.3-4.2v-3.2h3.9v2.1l2.1 2h9.5l2.1-2v-4l-2.1-2.1h-11.2l-4.1-4.1v-6.1l4.3-4.3h12.2l4.2 4.3v3.2h-3.8v-2.1l-2.1-2h-8.8l-2.1 2v3.8l2.1 2.1h11l4.3 4.2v6.2l-4.3 4.2z"/></svg>