<svg version="1.2" xmlns="http://www.w3.org/2000/svg" width="1000" height="1600"><defs><linearGradient id="P" gradientUnits="userSpaceOnUse"/><linearGradient id="g11" x2="1" href="#P" gradientTransform="matrix(-390.002 -407.61 411.841 -394.05 700 657)"><stop offset=".05" stop-color="#f14ca6"/><stop offset="1" stop-color="#5c48e4"/></linearGradient><linearGradient id="g2" x2="1" href="#P" gradientTransform="matrix(515.5 -847 96.465 58.71 -44.5 669)"><stop stop-color="#fff"/><stop offset="1" stop-color="#fff" stop-opacity=".37"/></linearGradient><linearGradient id="g3" x2="1" href="#P" gradientTransform="matrix(510.485 -821.05 61.319 38.125 -206.712 762.96)"><stop stop-color="#f85457"/><stop offset="1" stop-color="#fff" stop-opacity=".37"/></linearGradient><linearGradient id="g4" x2="1" href="#P" gradientTransform="matrix(792 0 0 116 104 1148.6)"><stop stop-color="#7421a6"/><stop offset="1" stop-color="#600e91"/></linearGradient><linearGradient id="g5" x2="1" href="#P" gradientTransform="matrix(792 0 0 116 104 1293.6)"><stop stop-color="#7421a6"/><stop offset="1" stop-color="#600e91"/></linearGradient><linearGradient id="g1" x2="1" href="#P" gradientTransform="matrix(995 1571.5 -1413.426 894.915 0 17.5)"><stop stop-color="#6f09ad"/><stop offset="1" stop-color="#2c0644"/></linearGradient><linearGradient id="g6" x2="1" href="#P" gradientTransform="matrix(792 0 0 116 104 1438.6)"><stop stop-color="#7421a6"/><stop offset="1" stop-color="#600e91"/></linearGradient><linearGradient id="g7" x2="1" href="#P" gradientTransform="matrix(30.975 40.164 -41.564 32.055 339.666 980.726)"><stop stop-color="#ffe500"/><stop offset="1" stop-color="#ffc42b"/></linearGradient><linearGradient id="g8" x2="1" href="#P" gradientTransform="matrix(30.975 40.164 -41.564 32.055 412.676 980.726)"><stop stop-color="#ffe500"/><stop offset="1" stop-color="#ffc42b"/></linearGradient><linearGradient id="g9" x2="1" href="#P" gradientTransform="matrix(30.975 40.164 -41.564 32.055 485.686 980.726)"><stop stop-color="#ffe500"/><stop offset="1" stop-color="#ffc42b"/></linearGradient><linearGradient id="g10" x2="1" href="#P" gradientTransform="matrix(-355.538 371.315 -374.262 -358.359 664.143 273.31)"><stop stop-color="#c883ff"/><stop offset="1" stop-color="#b796ff"/></linearGradient><clipPath clipPathUnits="userSpaceOnUse" id="cp5"><path d="M834 1338c-24.33 0-44-19.67-44-44s19.67-44 44-44 44 19.67 44 44-19.67 44-44 44z"/></clipPath><clipPath clipPathUnits="userSpaceOnUse" id="cp7"><path d="M834 1483c-24.33 0-44-19.67-44-44s19.67-44 44-44 44 19.67 44 44-19.67 44-44 44z"/></clipPath><clipPath clipPathUnits="userSpaceOnUse" id="cp4"><path d="M834 1193c-24.33 0-44-19.67-44-44s19.67-44 44-44 44 19.67 44 44-19.67 44-44 44z"/></clipPath><clipPath clipPathUnits="userSpaceOnUse" id="cp1"><path d="M0 50C0 22.39 22.39 0 50 0h900c27.61 0 50 22.39 50 50v1500c0 27.61-22.39 50-50 50H50c-27.61 0-50-22.39-50-50z"/></clipPath><clipPath clipPathUnits="userSpaceOnUse" id="cp2"><path d="M610 1193c-24.33 0-44-19.67-44-44s19.67-44 44-44 44 19.67 44 44-19.67 44-44 44z"/></clipPath><clipPath clipPathUnits="userSpaceOnUse" id="cp3"><path d="M722 1193c-24.33 0-44-19.67-44-44s19.67-44 44-44 44 19.67 44 44-19.67 44-44 44z"/></clipPath><clipPath clipPathUnits="userSpaceOnUse" id="cp6"><path d="M722 1483c-24.33 0-44-19.67-44-44s19.67-44 44-44 44 19.67 44 44-19.67 44-44 44z"/></clipPath><clipPath clipPathUnits="userSpaceOnUse" id="cp8"><path d="M371.28 364.61h158.99v172.04H371.28z"/></clipPath><clipPath clipPathUnits="userSpaceOnUse" id="cp9"><path d="M504.13 434.3h114.55v99.09H504.13z"/></clipPath></defs><style>.d,.i{fill:#fff}.i{stroke:#142e46;stroke-width:2}.m{fill:#583114}.u{fill:#163571}.y{fill:#7215a7}.B{fill:#daadff}</style><g clip-path="url(#cp1)"><path d="M0 50C0 22.4 22.4 0 50 0h900c27.6 0 50 22.4 50 50v1500c0 27.6-22.4 50-50 50H50c-27.6 0-50-22.4-50-50z" style="fill:url(#g1)"/><path d="M525.5-322-150 691l78 54L601.5-276z" style="opacity:.1;fill:url(#g2)"/><path d="M367.5-209-308 804l48 33.5 673.5-1021z" style="opacity:.1;fill:url(#g3)"/><path fill-rule="evenodd" class="d" d="m236 804-8.8-43.4h4.8l7 36.7h.1l10.4-36.7h4.6l10 36.7h.2l6.7-36.7h4.8L267 804h-5l-10.1-36.7h-.2L241.1 804zm47.2-36.1-1.9-1.8v-2.8l1.9-1.8h2.7l1.9 1.8v2.8l-1.9 1.8zm-.9 36.1v-30.9h4.6V804zm14.5 0v-30.9h4.5v6.6l6.5-6.6h9.5l5.7 5.7V804h-4.6v-23.7l-3.1-3.1h-6.2l-7.7 7.7V804zm68.6 0v-8.9H344v-7.3l18.6-27.2h7.5v30.3h5.2v4.2h-5.2v8.9zm-16.8-13h16.8v-26.4h-.4l-16.4 24zm57.3 12.9h-5.1l-8.8-12.1-8.7 12.1h-5.2l11.4-15.7-11-15.2h5.1l8.4 11.8 8.5-11.8h5.1l-11 15.4zm25.8 0-7.2-30.9h4.7l5.3 25.6h.1l7.5-25.6h4.4l6.8 25.6h.2l5.8-25.6h4.7l-7.8 30.9h-5l-6.8-25.5h-.2l-7.4 25.5zm39 0v-44.3h4.6v19.8l6.4-6.4h9.7l5.7 5.7v25.2h-4.6v-23.8l-3.1-3H483l-7.7 7.7v19.1zm40.4 0-5.7-5.7v-19.5l5.7-5.7h15.6l5.8 5.7v11.1H510v6.9l3.1 3.1h11.6l3.1-3.1v-2.3h4.6v3.8l-5.7 5.7zm-1.1-18.1h17.8v-5.7l-3.1-3h-11.6l-3.1 3zm30.8 18.1V773h4.4v6.6l6.6-6.6h9.5l5.7 5.7v25.2h-4.6v-23.8l-3.1-3h-6.2l-7.7 7.7v19.1zm50.3 13.1v-44h4.5v5.5l5.5-5.5h11.6l5.7 5.7v19.5l-5.7 5.7h-11.9l-5.1-4.5V817zm10.5-17.2h9.1l3.1-3.1v-16.6l-3.1-3h-8.4l-6.6 6.6v10.7zm25.7 4.1v-44.3h4.6v44.3zm18.4 0-5.1-5.1v-7.9l5.1-5h16.5V780l-3.1-3h-10.6l-3.1 3v2.5h-4.6v-3.8l5.7-5.7H661l5.7 5.7v25.2h-4.4v-5.5l-5.7 5.5zm2-4h8l6.5-6.3v-3.8h-14.5l-2.5 2.5v5.2zm49.4-26.9h4.6v38.7l-5.7 5.7h-14.9l-4.8-4.8v-3.8h4.6v2.4l2.2 2.1H694l3.1-3.1v-12.9l-6.6 6.5h-9.4l-5.7-5.7V773h4.6v23.7l3.1 3.1h6.2l7.8-7.9zm19 30.9-5.7-5.7v-19.5l5.7-5.7h15.5l5.8 5.7v11.1h-22.5v7l3.1 3h11.6l3.1-3v-2.4h4.6v3.8l-5.7 5.7zm-1.1-18h17.9v-5.7l-3.1-3.1h-11.7l-3.1 3.1zm35.9 18-5.7-5.7v-19.5l5.7-5.7h11.9l5.1 4.5v-17.9h4.6v44.3H768v-5.6l-5.6 5.6zm2-4.1h8.5l6.5-6.5v-11l-6-5.2h-9l-3.1 3.1v16.6zm-472.8 78.1-5.1-5.1v-7.9l5.1-5h16.5V854l-3.1-3h-10.6l-3.1 3v2.5h-4.6v-3.8l5.7-5.7h14.5l5.7 5.7v25.2h-4.4v-5.5l-5.7 5.5zm2-4h8l6.5-6.3v-3.7h-14.5l-2.5 2.4v5.2zm50.2-26.9h4.5v38.7l-5.7 5.7h-15.3l-4.7-4.8v-3.8h4.5v2.3l2.2 2.2h11.3l3.1-3.1v-11.5l-5.7 5.2h-11.3l-5.7-5.7v-19.5l5.7-5.7h11.7l5.4 5.4zm-.1 20.7v-10.1l-6.5-6.5h-8.5l-3.1 3v16.6l3.1 3.1h8.5zm18.1 10.1-5.1-5.1v-7.9l5.1-5h16.5v-5.9l-3.1-3h-10.6l-3.1 3v2.5h-4.5v-3.8l5.7-5.7h14.4l5.7 5.7v25.2h-4.4v-5.5l-5.7 5.5zm2-4h8l6.5-6.3v-3.7h-14.5l-2.5 2.4v5.2zm29.6-32.1-1.9-1.9v-2.7l1.9-1.9h2.7l1.9 1.9v2.7l-1.9 1.9zm-.9 36v-30.8h4.6v30.8zm14.5 0v-30.8h4.4v6.5l6.6-6.5h9.5l5.7 5.7v25.1h-4.6V854l-3.1-3h-6.3l-7.6 7.6v19.1zm38.7 0-5.1-5v-3.9h4.6v2.6l2.5 2.4h11.4l2.5-2.4v-4.8l-2.5-2.5h-13.3l-4.9-4.9V852l5.1-5.1H449l5 5.1v3.8h-4.5v-2.5l-2.5-2.5h-10.6l-2.4 2.5v4.5l2.4 2.5h13.2l5.1 5v7.4l-5.1 5zm36.7 0-5.7-5.7v-21.1h-5.6v-4h5.7v-10.1h4.5v10.1h9.6v4h-9.6v19.7l3.1 3.1h6.5v4zm34.4 0-5.1-5v-3.9h4.6v2.6l2.5 2.4h11.4l2.5-2.4v-4.8l-2.5-2.5h-13.3l-4.9-4.9V852l5-5.1H520l5.1 5.1v3.8h-4.6v-2.5l-2.4-2.5h-10.6l-2.5 2.5v4.5l2.5 2.5h13.2l5.1 5v7.4l-5.1 5zm33.3 0-5.7-5.7v-19.4l5.7-5.7h14.8l5.7 5.7v3.8h-4.5V854l-3.1-3h-11l-3.1 3v16.6l3.1 3.1h11l3.1-3.1v-2.3h4.5v3.7l-5.7 5.7zm29.6-36-1.8-1.9v-2.7l1.8-1.9h2.7l1.9 1.9v2.7l-1.9 1.9zm-.9 36v-30.8h4.6v30.8zm18 0-5-5v-3.9h4.5v2.6l2.5 2.4h11.4l2.5-2.4v-4.8l-2.5-2.5h-13.3l-4.9-4.9V852l5.1-5.1h14.5l5.1 5.1v3.8h-4.6v-2.5l-2.5-2.5h-10.5l-2.5 2.5v4.5l2.5 2.5h13.1l5.1 5v7.4l-5.1 5zm31.8 0-5.1-5v-3.9h4.6v2.6l2.5 2.4h11.4l2.4-2.4v-4.8l-2.4-2.5h-13.4l-4.9-4.9V852l5.1-5.1h14.5l5.1 5.1v3.8h-4.6v-2.5l-2.5-2.5h-10.5l-2.5 2.5v4.5l2.5 2.5h13.1l5.1 5v7.4l-5.1 5zm33.3 0-5.7-5.7v-19.4l5.7-5.7h15.9l5.7 5.7V872l-5.7 5.7zm2-4h11.9l3.1-3.1V854l-3.1-3h-11.9l-3.1 3v16.6zm28.3 4.1v-30.9h4.4v5.5l5.5-5.5h8v4.1h-6.8l-6.5 6.6v20.2zm26.4 0-5.1-5.1v-3.8h4.6v2.5l2.5 2.4h11.4l2.5-2.4v-4.8l-2.5-2.4h-13.3l-4.9-4.9V852l5.1-5.1h14.5l5.1 5.1v3.9h-4.6v-2.6l-2.5-2.4h-10.5l-2.5 2.4v4.5l2.5 2.5h13.1l5.1 5.1v7.3l-5.1 5.1z"/><path d="M104 1148c0-32 26-58 58-58h676c32 0 58 26 58 58s-26 58-58 58H162c-32 0-58-26-58-58z" style="fill:url(#g4)"/><path d="M610 1193c-24.3 0-44-19.7-44-44s19.7-44 44-44 44 19.7 44 44-19.7 44-44 44z" style="fill:#ffc136"/><g clip-path="url(#cp2)"><path d="m588.1 1178.8-29.2 19.1-11.5-29.9 27.9-12.2 6.1-13 13.8-3.6 4.1-2.2 20.7-17.2 5.9-.1 2 2.3.4 4.9-19.4 16.6 27.2-5.6 1 .5 2.4 3.1-.6 4.9-2.9 2.3-17.9 4.2-6.6 1.7 2.8.1 1.8 1.6 1.1 3.8-.6 3.1 1 1.3-1.6 6-2.9 2.5-3.3.2-1.8.9-8.7 4.8z" style="fill:#3c2900"/><path class="d" d="m588 1176.8-26.1 16.4-11.1-24 26.7-11.5 5.5-12.4 12.6-3.6 6.7 12.3-2.4 2.4-4.5-1.6-3.3-3-.1-3.2-1 2.4-3.2 2.7 1.5-.4 2.7 5.1-5.1 6.7 8.3-3.8 3.8 11.1 7.8.4-8 4.3z"/><path class="d" d="m599.4 1170.2 1.1 1.2 12.1-.2 2-2 1-4.5-14.5 2.3-2 1zM615.1 1162.1l-1.5 1.5-14.9 1.2-1-3.5 1.4-1.3 12.1-3.8 2.7.4 1.2 2.1zM637 1145.1l-1.6 1.6-24.2 5.8-2.4-.2 1.5 2.8-4.9 1.5-8.4-15.7 3.6-2 20.1-16.6 3.7-.4 1.7 1.1.6 3.1-20.1 17.1-3.9.5 2.8.8.2 2.1 29.8-6.4 1.5 1.9z"/></g><path d="M722 1193c-24.3 0-44-19.7-44-44s19.7-44 44-44 44 19.7 44 44-19.7 44-44 44z" style="fill:#cc8f35"/><g clip-path="url(#cp3)"><path class="i" d="m701.6 1146.6-47.7 7.6 2.1 29.8 48-13s11 3.4 14.1 4.1l8.1-3.1 9.3-9.6 6.6-14.9-2.7-15.6-17.1.6-6.7-7.3-6.1-2.4-9.5 3.1c-.1 4.1-.1 12.5.7 14 .8 1.5 2 2.2 2.5 2.4l1.9 1.4z"/><path class="d" d="m748 1150.2 4.3-3.5c.1-3.9-1.1-13.4-7.5-19.9-.3-.1-9.2-1.8-13.5-2.6l-7.7 6.3 3.3 4.1 11.1.6-.7 4.1-12.1.1-1.1 4.4 3.6 4.5 10.4 1.4-3.2 2.6.3 1.6.4 1.8-14.6-5-2.7 2.2-.2 3.3 6.8 8.3 5.8 1.8-2.6 3.6 4.1 2.7 4.8.3 3.1-2.5-.1-9.3 6.2-1.5 2.3-2.6z"/><path fill-rule="evenodd" d="m737.3 1139.3.7-4.1-11.1-.6-3.3-4.1 7.7-6.3c4.3.8 13.2 2.5 13.5 2.6 6.4 6.5 7.6 16 7.5 19.9l-4.3 3.5m0 0-5.6-8.7-5.1-2.2zm0 0 .5 6.8-2.3 2.6-6.2 1.5zm-11.7-.8-8.5-1.1-3.7-4.5 1.2-4.4 12.1-.1zm1.8.2-2 1.6.2-1.8zm-2 1.6-.5 4.4-.3-1.8-.4-1.6zm4 9.8v9.3l-3.1 2.5-4.8-.4-4-2.6 2.5-3.6-5.8-1.8-6.8-8.3.2-3.3 2.8-2.2 14.6 5zm0 0-4.4-5.4" style="fill:none;stroke:#142e46;stroke-width:2"/><path class="i" d="m711.8 1164 1.2-1.5 4.9.3 11.8 10.1c1.3 1.1 1.4 2.9 1.3 3.6-.5 1.4-2.1 4.3-3.9 4.6-1.9.2-3.2-.5-3.7-.9l-10.7-10.2z"/><path d="m711.1 1132.5 4.4 2.8-2.9-.7c0 .9.2 2.4-.4 4.1-2.7 6-8.7 8.3-10.2 9l2.1-4-.8-2.6s3 1.7 5.2-.1c2.3-1.8 3-4.4 3-5.5z" style="fill:#142e46"/></g><path d="M834 1193c-24.3 0-44-19.7-44-44s19.7-44 44-44 44 19.7 44 44-19.7 44-44 44z" style="fill:#8f3e02"/><g clip-path="url(#cp4)"><path class="m" d="m800.3 1153.6-16.8 9-1.8 1.4 13.5 24 1.9-1.1 14-9c3 1 7.9 1.3 10.1 1 3.6-.5 9.3-3 11.5-4.1l16.2-8.2 15.6-8.5-.2-5-5-1.9-7.6 1.4-6.9 2.8.4-1.3-1.4-4.7-2.1-1.5-2.1.3 1.1-2.1-.7-3.9-3.7-2.5 14.2-13.7-1.3-8-6.2 2.2-25.1 16.1-6.3.9-7.3 2.5z"/><path class="d" d="m848 1120.5.6 4.6-17.9 17 3.6-1.3 3.9 2.7c.2 1 .6 2.8.7 3.2q0 .1 0 0c-.2-.1-1.4 2-2 3.2l3.5-.4 2 1.4 1 4-3.2 4.2 12.3-4.8 6.6-1.2 3.6 1.3.1 2.5-22.4 11.5c-3.9 2.2-13.2 6.8-19.6 8.1-2 .2-6.9.3-10.1-.9-.4.2-16.1 10.6-20.8 13.6l-11.7-20.8 23.7-13.4 4.2-13.9 5.5-2 6.6-.9 26.2-16.5z"/><path fill-rule="evenodd" class="m" d="m818.4 1138.7 1 1 4.4 8 4.5-3 2.5-2.8 3.5-1.2-4.6 5.9-5 2.7 3 5.4c.2.2.4.6.5 1.1l5.5-3.5 4.1-4.1 1.5 1.3-4.8 4.3-6.4 3.1q0 .2-.1.3l-.9.2-3.2 1.3-2.8.7 1.1 2.3.1 2.8.8 1.3 2 .8 4.1-1.1 4.4-1.8 4.6-3.3 3.8-3.7.6 1.4-3.1 3.2-2.3 2-3.1 1.9c-.5.2-1.3.5-2.1.8-1.1.4-2.2.8-2.4.9-.4.1-.9.3-1.6.5-.7.2-1.6.4-2.3.6l-2.3-.1-1.9-1.3-1.1-2.1.4-1.8-.9-1.9-1.6-2.6.7-2.9-1.8-.9-2-3-1.2.7 1 1.7-2.4 8.4-.9-1.5-2.1-.6 2.3-1.4c.6-1.4 1.4-4.5 1.2-5.1-.2-.6-.9-1.6-1.2-2.1l3.8-2.1 2.6 3.6 7.1 3.5 1.3-.4-8.9-15.8-3.6-1.6 2.5-.4zm2.1 17.2-.4 2 .5.6 2.5-.6 1.2-.5z"/></g><path d="M104 1293c0-32 26-58 58-58h676c32 0 58 26 58 58s-26 58-58 58H162c-32 0-58-26-58-58z" style="fill:url(#g5)"/><path d="M834 1338c-24.3 0-44-19.7-44-44s19.7-44 44-44 44 19.7 44 44-19.7 44-44 44z" style="fill:#d81719"/><g clip-path="url(#cp5)"><path d="m856.7 1287.8 3.3 1.6.8 8-.8 2.9 1.7 6.5-4.6 6.1-5.9 1.5-14.1 7.9-16.3-.8-42.3 28.1-12.2-37.3 38.1-20 5.9-17.6 21.4-6.8 15.7-4.2 7.2 3.4-1.6 8.2 3.8 1.8 2.1 8.6z" style="fill:#600809"/><path class="d" d="m817.2 1321 3.7-2.3 1.6-.4 14.3.4 11.9-6.4-15.6-1.2-4.3-12.6-.7-3-1-2.9-3.6-6.8-2.6-1.3 3.6.2 3-4.5-.7 3.2 2.6 4.5 8.1 2.3 3.7-3.4-9.5-16.8-19.7 7-5.2 16.1c-29.1 16.2-36.8 19.7-41.9 22.6 4.4 13.1 10.9 32.9 10.9 32.9l38.5-26 1.5-.8z"/><path class="d" d="m838 1305.8.6 4.5 16.8-.4 3.4-4.9-.4-3.1zM834.6 1299c.3.7 1 2.3 1.7 3.1l19.6-2.2 2.1-3-.1-5.7-5.4-1.3-16 5.3zM852.2 1277.2l4 2.1-.1 4.8-3.3 3.1-19.7 8.3-2-2 6.9-2.1 4.7-3.8-2.9-6.4zM847.5 1266l4.7 2.3-1.4 6.4-13.3 3.1-3.6-7.5z"/></g><path d="M104 1438c0-32 26-58 58-58h676c32 0 58 26 58 58s-26 58-58 58H162c-32 0-58-26-58-58z" style="fill:url(#g6)"/><path d="M722 1483c-24.3 0-44-19.7-44-44s19.7-44 44-44 44 19.7 44 44-19.7 44-44 44z" style="fill:#56d69c"/><g clip-path="url(#cp6)"><path d="m676.2 1453.1 18.9-8.8 2.7-9.6 6.3-14.9v-.1l.2-.1 2.9-1.7.2-.1.3.1 2.9 1.6.3.1v.3l.4 2.5v.1l-1.3 7.9 4.1-1.7 18.9-10.3h.1l2.1-.7.2-.1.2.1 2.7 1.4.3.2-.1.3-.8 3.3v.1l-.1.1-.8.7 1.5-.9.1-.1h.1l3.5-.2.5-.1.1.5.1 3.6v.1l-.1.1-.9 2.5v.1l-.1.1-.5.4v.1h-.1l-6.2 4 5.1-2.6.1-.1.2.1 3.4.3h.5v.5l-.4 4.1v.2l-.1.1-1.7 1.5v.1h-.1l-2.9 1.8 3.6.2h.5v.5l-.1 3.3v.2l-.1.2-2 1.7-25.9 16-.2.1h-8.4l-17.3 13-.4.3-.3-.5-12.3-21.2-.2-.4z" style="fill:#0e3e28;stroke:#0e3e28"/><path class="d" d="m706.1 1460.8-18.6 13.9-11.4-19.8 20.2-9.8 2.9-9.9 6-14.8 2.3-1.1 2.1.9.5 2.4-1.7 9.9 6.1-2.9 18.8-10 2.1-.8 1.9 1.1-.7 2.1-1.7 1.8-13.6 9.5-.3.6-.3.5.7-.2.3.8.2-1.3 16.7-9.5 2.4-.3.2 2.7-.7 2.1-16.6 10.5-.3 1.9.8-.3.6 1-.1-1.5 14.8-7.5 2.8.1v2.7l-1.2 1.3-15.9 10.1-1.3 2.3.9-.3.9 1.8-.1-2.5 12.4-7.1 3.1.1.2 2.3-1.2 1.4-25.6 15.9z"/></g><path d="M834 1483c-24.3 0-44-19.7-44-44s19.7-44 44-44 44 19.7 44 44-19.7 44-44 44z" style="fill:#4774ca"/><g clip-path="url(#cp7)"><path class="u" d="m821 1461.7-15.1 12.3-1.4 1-14.9-21.2 18.7-16.2.2-1.5-.1-3.2 2.3-4.9 4-3.4 6.2-1.5 3.4-.2 4.3 1.8 3 1.1 2.7 1.7.7 1.1.3.4 1.9-1.1 5.2-3.7 3.1-4.6 2.9-2.3 1.9-.1 2.3 1 .5 1.1.8.2 1.9 1.1 2.2.7 1.4 2-.1 1.7 1.7.5.5 3.2-2.4 8.2-4.7 7.3-5.5 5.1-4.4 2.6-5.2 5-9.3 5.3z"/><path class="d" d="m820.6 1460-2.2 1.6-17.4 14.7-13.3-19.1 22.1-18.8.3-2.3-.2-2.7 2.1-4.5 3.3-2.6 6.1-1.7 2.6-.1 4.3 1.7 2.3.7 2.5 1.4.8 1.1.3 1.4 1.4-.5 2.3-1.1 5.6-4 1-1.7 2.1-3 2-1.8h1.4l1.7.5.6 1.6h1.1l1.9 1 1.7.5 1.1 1.5-.3 2 2.2.7.3 2.1-2.4 7.6-4.7 7-5.5 4.8-4.3 2.7-5.1 4.8-8.6 5z"/><path class="u" d="m826.6 1431.3-1-2.4-1.6-.5-.2.7 1.4.9.5 1.7-.2 1.3.8 2.1-1 3.2.9 1.1 2.3 1.7-1.9-2.8.9-2.8-.6-2.3 1.5-.7 2.5-.2 2.5.3.8-1.8-1.1 1.3-2.1-.3-2.2-.3-1 .2zM834.4 1435.9l-1.1-2.5 1.5 1.2.4 1.1 1.1.3.6-.2 1.3-.9 2.1-.9 1.7-1 2.1-1.3 3-3.2 1.2-1.7 3.9-6.6.5-.3-.3.9-3.4 6.5-1.3 1.4-1.6 2.1-2.5 2.3-2.2 1.3-4.1 2-.9 1.1 1.6 1.4 1 .9.8.7.8.2 1-.6 2.1-1.7 1.9-1.2 1.6-2.3 2.5-2.6 2.1-3.3 3.2-7.5.8-.2-2.2 5.5-1.3 3.1-2.3 3.4-1.7 2-2 2.4-1.8 1.2-2.7 1.8-.4 1 1.9 2h1.8l2-1.5 1.2-1.3 1.4-1.2 2.9-3.7 1.1-2.1 1.3-1.9 3.1-7.1.5.2-2.5 6-1.9 3.5-1 1.9-2.6 3.1-.7 1.3-1.2 1.1-3 2.9-.6 1-2.5-1.1-1.5-1.9-1.8-.9-.6-1.1-1.5-1.3-2.3-2.3z"/></g><path d="M362.2 977.5c1.2 3.4 4.4 5.7 8 5.8l7.9.1h1.5q1 .1 2 .4c3.7 1.5 4.8 6.7 1.2 9.4l-12.4 9.1s2.3 7.3 4.6 14.7c1.6 4.9-4.1 9-8.4 6l-7.6-5.4c-3-2-7-2-9.9 0l-7.7 5.4h.1-.1q-.9.5-1.9.9c-3.8.9-7.8-2.7-6.5-7l4.6-14.6.1.1-.1-.1-12.4-9.1c-4.2-3.1-2-9.7 3.2-9.8l9.4-.1c3.6-.1 6.8-2.4 8-5.8l3-8.8c1.7-4.9 8.7-4.9 10.4 0z" style="fill:url(#g7)"/><path d="M435.2 977.5c1.2 3.4 4.4 5.7 8 5.8l7.9.1H452.6q1 .1 2 .4c3.7 1.5 4.8 6.7 1.2 9.4l-12.4 9.1s2.3 7.3 4.6 14.7c1.6 4.9-4.1 9-8.4 6l-7.6-5.4c-3-2-7-2-9.9 0l-7.6 5.4h-.1q-.9.5-1.8.9c-3.9.9-7.9-2.7-6.6-7l4.6-14.6.1.1-.1-.1-12.4-9.1c-4.2-3.1-2-9.7 3.2-9.8l9.4-.1c3.6-.1 6.8-2.4 8-5.8l3-8.8c1.7-4.9 8.7-4.9 10.4 0z" style="fill:url(#g8)"/><path d="M508.2 977.5c1.2 3.4 4.4 5.7 8.1 5.8l7.8.1H525.6q1 .1 2 .4c3.7 1.5 4.8 6.7 1.2 9.4l-12.4 9.1s2.3 7.3 4.6 14.7c1.6 4.9-4.1 9-8.4 6l-7.6-5.4c-3-2-7-2-9.9 0l-7.6 5.4h-.1q-.9.5-1.8.9c-3.9.9-7.9-2.7-6.6-7l4.6-14.6.1.1v-.1l-12.5-9.1c-4.2-3.1-2-9.7 3.3-9.8l9.3-.1c3.6-.1 6.9-2.4 8-5.8l3-8.8c1.7-4.9 8.8-4.9 10.4 0z" style="fill:url(#g9)"/><path class="y" d="M581.2 977.5c1.2 3.4 4.4 5.7 8.1 5.8l7.8.1H598.6q1 .1 2 .4c3.7 1.5 4.8 6.7 1.2 9.4l-12.3 9.1s2.2 7.3 4.5 14.7c1.6 4.9-4.1 9-8.4 6l-7.6-5.4c-2.9-2-6.9-2-9.9 0l-7.6 5.4q-1 .5-1.9.9c-3.9.9-7.9-2.7-6.6-7l4.6-14.6.1.1v-.1l-12.5-9.1c-4.2-3.1-2-9.7 3.3-9.8l9.3-.1c3.6-.1 6.9-2.4 8-5.8l3-8.8c1.7-4.9 8.8-4.9 10.4 0zM654.2 977.5c1.2 3.4 4.4 5.7 8.1 5.8l7.8.1H671.6q1.1.1 2 .4c3.8 1.5 4.9 6.7 1.2 9.4l-12.3 9.1s2.2 7.3 4.6 14.7c1.5 4.9-4.2 9-8.5 6l-7.6-5.4c-2.9-2-6.9-2-9.9 0l-7.6 5.4q-.9.5-1.9.9c-3.9.9-7.9-2.7-6.5-7l4.5-14.6.1.1v-.1l-12.4-9.1c-4.3-3.1-2.1-9.7 3.2-9.8l9.3-.1c3.6-.1 6.9-2.4 8-5.8l3-8.8c1.7-4.9 8.8-4.9 10.4 0z"/><path fill-rule="evenodd" class="d" d="M164.7 1164.6q-3.2 0-5.8-1.1-2.6-1.2-4.2-3.3-1.7-2.1-2.1-5l5.7-.8q.6 2.4 2.5 3.8 1.8 1.3 4.2 1.3 1.4 0 2.6-.4 1.3-.4 2.1-1.2.8-.9.8-2.1 0-.4-.1-.8t-.4-.8q-.3-.3-.9-.7-.5-.3-1.4-.5l-7.5-2.2q-.8-.3-1.9-.7-1.1-.5-2.2-1.3-1-.8-1.7-2.1-.7-1.4-.7-3.5 0-2.9 1.5-4.8 1.4-1.9 3.9-2.8 2.4-1 5.4-1 3 .1 5.3 1.1 2.3.9 3.9 2.8t2.3 4.6l-5.9 1q-.3-1.4-1.2-2.4-.8-.9-2-1.4-1.2-.5-2.5-.6-1.3 0-2.4.4-1.1.4-1.9 1.1-.7.7-.7 1.8 0 .9.6 1.5t1.5.9q.9.4 1.8.6l5 1.4q1.1.3 2.5.8 1.3.5 2.6 1.4 1.2.8 2 2.2.8 1.5.8 3.6 0 2.4-.9 4.1-1 1.7-2.6 2.9-1.7 1.1-3.8 1.6-2 .6-4.2.6zm28.9-.6q-2.2.4-4.4.4-2.1-.1-3.8-.8-1.7-.7-2.6-2.3-.8-1.5-.8-3-.1-1.5-.1-3.5v-8.2h-3.7v-4.2h3.7v-6h5.5v6h6.2v4.2h-6.2v10.2q0 1 .4 1.6.7 1.1 2.3 1.2 1.6.1 3.5-.1zm4.8 0v-21.6h4.8v3.5l.6-1q.7-.9 1.7-1.5.8-.5 1.7-.7.9-.3 1.9-.4 1 0 2 .1v5.1q-.9-.3-2.1-.2-1.2.1-2.2.5-.9.5-1.6 1.2-.6.7-1 1.7-.3 1-.3 2.2v11.1zm4.8-18.1q-.3.5-.5 1.1l.5.7zm21.3 18.7q-3.3 0-5.8-1.4-2.6-1.5-4-4t-1.4-5.7q0-3.6 1.4-6.2t3.8-4.1q2.5-1.4 5.7-1.4 3.4 0 5.8 1.6t3.5 4.5q1.1 2.9.8 6.8h-2.6v-4h-2.9q-.2-1.8-.9-2.7-1.1-1.5-3.5-1.5-2.7 0-4.1 1.7-.7 1-1 2.5h-1.9v4h1.7q.3 1.9 1.2 3.2 1.4 1.6 3.9 1.6 1.6 0 2.7-.7 1.2-.7 1.8-2l5.4 1.5q-1.2 3-3.8 4.6-2.7 1.7-5.8 1.7zm4.4-9.9h-9.8q-.1-.7-.1-1.5 0-1.4.3-2.5h9.5q.1.9.1 2zm24.1 9.3v-10.2q0-.8-.1-1.9-.1-1.2-.5-2.3-.4-1.2-1.4-2-.9-.7-2.7-.7-.7 0-1.5.2t-1.5.8q-.7.7-1.1 1.9-.5 1.2-.5 3.2v11h-5.5v-21.6h4.8v2.2q.8-.8 1.8-1.5 2.1-1.4 5.2-1.4 2.6 0 4.2.9t2.5 2.2q.9 1.3 1.2 2.7.4 1.5.5 2.6.1 1.2.1 1.8v12.1zm19.9 10.2q-1.8 0-3.5-.6-1.6-.6-3-1.7-1.3-1-2.1-2.4l5.1-2.4q.5.9 1.4 1.4 1 .5 2.2.5 1.2 0 2.3-.4 1-.4 1.7-1.2.6-.8.6-2v-2.2q-2.1 1.4-5.2 1.4-2.9 0-5.2-1.5-2.2-1.5-3.5-4.1-1.2-2.6-1.2-5.8 0-3.3 1.2-5.9 1.3-2.6 3.6-4 2.3-1.5 5.4-1.5 3.1 0 5.2 1.5.2.1.4.3v-1.2h4.7v24.6q-.1.7-.3 1.4-.5 2-1.9 3.2-1.4 1.3-3.5 1.9-2 .7-4.4.7zm.4-14.5q1.8 0 2.9-.8 1.1-.8 1.6-2.3.5-1.5.5-3.4 0-2-.5-3.5-.5-1.4-1.5-2.3-1.1-.8-2.8-.8-1.8 0-3 .9-1.1.9-1.7 2.4-.6 1.5-.6 3.3 0 1.8.6 3.3.5 1.5 1.6 2.4 1.2.8 2.9.8zm28.3 4.3q-2.2.4-4.4.3-2.1 0-3.8-.7-1.7-.7-2.6-2.3-.8-1.5-.8-3-.1-1.5-.1-3.5v-8.2h-3.7v-4.2h3.7v-6h5.5v6h6.2v4.2h-6.2v10.2q0 1 .4 1.6.7 1.1 2.3 1.2 1.6.1 3.5-.1zm19.5 0v-12.1q-.1-1.2-.5-2.3-.5-1.2-1.4-2-1-.8-2.7-.8-.7 0-1.5.3-.8.2-1.5.8-.7.6-1.2 1.9-.4 1.2-.4 3.2v11h-5.5v-28.8h4.8v9.4q.8-.8 1.7-1.5 2.1-1.4 5.3-1.4 2.6 0 4.2.9 1.6.8 2.4 2.2.9 1.3 1.3 2.7.4 1.4.5 2.6.1 1.2.1 1.7v12.2zm19.1.6q-4.1 0-6.6-1.9-2.5-1.8-3-5.2l5.5-.9q.4 1.6 1.5 2.4 1.2.9 3 .9 1.5 0 2.3-.6.8-.6.8-1.6 0-.6-.3-1-.4-.4-1.5-.8t-3.4-1q-2.7-.7-4.2-1.5-1.6-.8-2.3-2-.7-1.2-.7-2.8 0-2.1 1-3.6 1.1-1.6 3-2.4 2-.8 4.6-.8 2.5 0 4.5.7 1.9.8 3.1 2.3 1.3 1.4 1.5 3.4l-5.5 1q-.2-1.2-1.1-1.9-.9-.7-2.4-.9-1.5-.1-2.4.4-.9.5-.9 1.5 0 .5.4.9t1.6.8q1.2.4 3.7 1 2.5.7 4 1.5 1.5.9 2.2 2.1.6 1.2.6 2.8 0 3.4-2.4 5.3t-6.6 1.9zM153.8 1309v-28.8H167.1q.7.1 1.3.2 2.5.4 4.2 1.7 1.6 1.3 2.4 3.2.8 2 .8 4.4 0 3.6-1.8 6.2-1.1 1.6-3 2.4l5.2 10.7H170l-4.7-9.8h-6.1v9.8zm5.5-14.8h6.5q.4 0 .9-.1.5 0 .9-.1 1.1-.3 1.7-1 .6-.8.8-1.6.3-.9.3-1.7 0-.8-.3-1.6-.2-.9-.8-1.6-.6-.7-1.7-1-.4-.1-.9-.2h-7.4zm31.4 15.4q-3.3 0-5.9-1.4-2.5-1.4-3.9-3.9-1.5-2.6-1.5-5.8 0-3.5 1.4-6.2 1.4-2.6 3.9-4 2.5-1.5 5.7-1.5 3.4 0 5.7 1.6 2.4 1.6 3.6 4.5 1.1 2.9.8 6.8h-2.7v-4H195q-.3-1.8-1-2.7-1-1.5-3.4-1.5-2.8 0-4.1 1.7-.7 1-1.1 2.5h-1.9v4h1.8q.2 2 1.2 3.2 1.3 1.6 3.9 1.6 1.6 0 2.7-.7t1.7-2l5.5 1.6q-1.2 2.9-3.9 4.6-2.6 1.6-5.7 1.6zm4.4-9.9h-9.8q-.1-.7-.1-1.5 0-1.4.2-2.5h9.6q.1.9.1 2zm18.3 9.9q-4.1 0-6.6-1.8-2.5-1.9-3-5.3l5.5-.8q.4 1.5 1.5 2.4 1.2.8 3 .8 1.5 0 2.3-.5.8-.6.8-1.6 0-.7-.3-1-.3-.4-1.5-.8-1.1-.4-3.4-1-2.6-.7-4.2-1.5-1.6-.9-2.3-2-.7-1.2-.7-2.9 0-2.1 1.1-3.6 1-1.5 2.9-2.3 2-.9 4.6-.9 2.5 0 4.5.8t3.2 2.2q1.2 1.5 1.5 3.4l-5.6 1q-.1-1.2-1-1.9t-2.5-.8q-1.5-.1-2.4.4-.9.5-.9 1.4 0 .6.4 1t1.6.8q1.2.4 3.8 1 2.4.6 3.9 1.5 1.5.8 2.2 2 .7 1.2.7 2.9 0 3.3-2.4 5.2-2.4 1.9-6.7 1.9zm13.8-25.2v-4.8h5.5v4.8zm0 24.6v-21.6h5.4v21.6zm19.9.6q-4.1 0-6.6-1.8-2.5-1.9-3-5.3l5.5-.8q.4 1.5 1.5 2.4 1.2.8 3 .8 1.5 0 2.3-.5.8-.6.8-1.6 0-.7-.3-1-.4-.4-1.5-.8t-3.4-1q-2.7-.7-4.2-1.5-1.6-.9-2.3-2-.7-1.2-.7-2.9 0-2.1 1-3.6 1.1-1.5 3-2.3 2-.9 4.6-.9 2.5 0 4.5.8 1.9.8 3.1 2.2 1.3 1.5 1.5 3.4l-5.5 1q-.2-1.2-1.1-1.9-.9-.7-2.4-.8-1.5-.1-2.4.4-.9.5-.9 1.4 0 .6.4 1t1.6.8q1.2.4 3.7 1t4 1.5q1.5.8 2.2 2 .6 1.2.6 2.9 0 3.3-2.4 5.2-2.4 1.9-6.6 1.9zm26.4-.6q-2.2.4-4.4.4-2.1-.1-3.8-.8-1.7-.7-2.6-2.3-.8-1.4-.8-3-.1-1.5-.1-3.4v-8.3h-3.7v-4.2h3.7v-6h5.5v6h6.2v4.2h-6.2v10.2q0 1 .4 1.6.7 1.2 2.3 1.3 1.6.1 3.5-.2zm10.8.6q-2.3 0-3.9-.9t-2.5-2.4q-.8-1.5-.8-3.3 0-1.5.5-2.7.4-1.2 1.5-2.2 1-.9 2.7-1.6 1.2-.4 2.9-.8 1.7-.3 3.8-.6 1.2-.2 2.6-.4-.2-1.3-.9-2-.9-.9-3.1-.9-1.2 0-2.5.5-1.3.6-1.8 2.1l-4.9-1.6q.8-2.6 3.1-4.3 2.2-1.7 6.1-1.7 2.9 0 5.1.9 2.2.9 3.4 3 .6 1.2.7 2.4.1 1.2.1 2.7v13.2h-4.7v-2.7q-1.3 1.6-2.8 2.3-1.8 1-4.6 1zm6.8-14.9v.8l2-1.1q-1.1.2-2 .3zm.6 11.6q.3-.4.7-.8l-.7-.9zm-6.2-1.1q1.5 0 2.5-.5t1.6-1.2q.7-.7.9-1.1.4-.9.5-2.1v-1.3q-1.3.3-2.3.4-1.5.3-2.4.5-.9.2-1.6.5-.8.3-1.3.7-.5.4-.7.8-.3.4-.3 1 0 .7.4 1.3.4.5 1.1.8.6.2 1.6.2zm5.5-6.2 1.6-.2-1.6-.4v.6zm25.4 9.9v-10.2q0-.7-.1-1.9-.1-1.1-.5-2.3-.4-1.1-1.4-1.9-.9-.8-2.7-.8-.7 0-1.5.2t-1.5.9q-.7.6-1.1 1.8-.5 1.2-.5 3.3v10.9h-5.5v-21.6h4.8v2.2q.8-.8 1.8-1.4 2.1-1.4 5.2-1.4 2.6 0 4.2.8 1.6.9 2.5 2.2.9 1.3 1.2 2.8.4 1.4.5 2.6.1 1.2.1 1.7v12.1zm19.8.6q-3.3 0-5.7-1.5-2.4-1.5-3.7-4.1-1.3-2.5-1.3-5.8t1.3-5.8q1.4-2.6 3.8-4.1 2.4-1.5 5.7-1.5 3.8 0 6.4 2 2.6 1.9 3.3 5.2l-5.4 1.5q-.5-1.7-1.7-2.7-1.2-.9-2.7-.9-1.7 0-2.8.8-1.1.9-1.6 2.3t-.5 3.2q0 2.8 1.2 4.6 1.3 1.7 3.7 1.7 1.9 0 2.8-.8 1-.8 1.5-2.4l5.5 1.2q-.9 3.4-3.5 5.3-2.5 1.8-6.3 1.8zm23.3 0q-3.4 0-5.9-1.4-2.5-1.4-4-3.9-1.4-2.6-1.4-5.8 0-3.5 1.4-6.2 1.4-2.6 3.9-4 2.4-1.5 5.6-1.5 3.4 0 5.8 1.6t3.5 4.5q1.2 2.9.8 6.8h-2.6v-4h-2.9q-.2-1.8-.9-2.7-1-1.5-3.4-1.5-2.8 0-4.1 1.7-.8 1-1.1 2.5h-1.9v4h1.8q.2 2 1.2 3.2 1.3 1.6 3.8 1.6 1.6 0 2.8-.7 1.1-.7 1.7-2l5.5 1.6q-1.3 2.9-3.9 4.6-2.6 1.6-5.7 1.6zm4.4-9.9h-9.8q-.1-.7-.1-1.5 0-1.4.2-2.5h9.5q.2.9.2 2zm18.3 9.9q-4.1 0-6.6-1.8-2.5-1.9-3-5.3l5.5-.8q.4 1.5 1.5 2.4 1.2.8 3 .8 1.5 0 2.3-.5.8-.6.8-1.6 0-.7-.3-1-.4-.5-1.5-.8-1.1-.4-3.4-1-2.7-.7-4.2-1.5-1.6-.9-2.3-2-.7-1.2-.7-2.9 0-2.1 1-3.6 1.1-1.5 3-2.3 2-.9 4.6-.9 2.5 0 4.5.8 1.9.8 3.1 2.2 1.3 1.4 1.5 3.4l-5.5 1q-.2-1.2-1.1-1.9-.9-.7-2.4-.8-1.5-.1-2.4.4-.9.5-.9 1.4 0 .6.4 1 .4.3 1.6.8 1.2.4 3.7 1t4 1.5q1.5.8 2.2 2 .6 1.2.6 2.9 0 3.3-2.4 5.2-2.4 1.9-6.6 1.9zM159.8 1454l-8.4-28.8h5.7l5.4 19.8 5.4-19.8h5.7l5.4 19.8 5.4-19.8h5.8l-8.5 28.8h-5.3l-5.6-19.4-5.6 19.4zm41.2.6q-3.3 0-5.9-1.4-2.5-1.5-3.9-4-1.5-2.5-1.5-5.7 0-3.6 1.4-6.2t3.9-4q2.5-1.5 5.7-1.5 3.4 0 5.7 1.6 2.4 1.6 3.6 4.5 1.1 2.9.8 6.8h-2.7v-4h-2.8q-.3-1.8-1-2.7-1-1.5-3.4-1.5-2.8 0-4.1 1.7-.7 1-1.1 2.5h-1.9v4h1.8q.3 2 1.2 3.2 1.3 1.6 3.9 1.6 1.6 0 2.7-.7t1.7-2l5.5 1.6q-1.2 2.9-3.9 4.6-2.6 1.6-5.7 1.6zm4.4-9.9h-9.8q-.1-.7-.1-1.5 0-1.4.2-2.5h9.6q.1.9.1 2zm15.5 9.9q-2.3 0-3.9-.9t-2.5-2.4q-.8-1.5-.8-3.3 0-1.5.5-2.7.4-1.2 1.4-2.2 1.1-.9 2.8-1.6 1.2-.4 2.9-.8 1.6-.3 3.7-.6 1.3-.2 2.7-.4-.2-1.3-.9-2-.9-.9-3.1-.9-1.2 0-2.5.5-1.3.6-1.8 2.1l-4.9-1.6q.8-2.6 3-4.3 2.3-1.7 6.2-1.7 2.9 0 5.1.9 2.2.9 3.3 3 .7 1.2.8 2.4.1 1.2.1 2.7v13.2h-4.7v-2.7q-1.3 1.6-2.8 2.3-1.8 1-4.6 1zm6.8-14.9v.8l2-1.1q-1.1.2-2 .3zm.6 11.6.6-.8-.6-.9zm-6.2-1.1q1.5 0 2.5-.5t1.6-1.2q.6-.7.9-1.1.4-.9.4-2.1.1-.7.1-1.3-1.3.3-2.3.4-1.5.3-2.4.5-.9.2-1.6.5-.8.3-1.3.7-.5.4-.8.8-.2.4-.2 1 0 .7.4 1.3.4.5 1 .8.7.2 1.7.2zm5.5-6.2q.7-.1 1.6-.2l-1.6-.4v.6zm10.6 9.9v-28.8h5.5v17.6l7.4-10.4h6.7l-7.8 10.8 8.3 10.8h-7.1l-7.5-10.4v10.4zm36.9 0v-10.2q0-.7-.1-1.9-.1-1.1-.5-2.3-.4-1.1-1.4-1.9-.9-.8-2.7-.8-.7 0-1.5.2t-1.5.9q-.7.6-1.1 1.8-.5 1.2-.5 3.3v10.9h-5.5v-21.6h4.8v2.2q.8-.8 1.8-1.4 2.1-1.4 5.2-1.4 2.6 0 4.2.8 1.6.9 2.5 2.2.9 1.3 1.2 2.8.4 1.4.5 2.6.1 1.2.1 1.7v12.1zm20.3.6q-3.3 0-5.8-1.4t-4-3.9q-1.4-2.6-1.4-5.8 0-3.5 1.4-6.2 1.4-2.6 3.9-4 2.4-1.5 5.6-1.5 3.4 0 5.8 1.6t3.5 4.5q1.2 2.9.8 6.8h-2.6v-4h-2.9q-.2-1.8-.9-2.7-1.1-1.5-3.4-1.5-2.8 0-4.1 1.7-.8 1-1.1 2.5h-1.9v4h1.8q.2 2 1.2 3.2 1.3 1.6 3.8 1.6 1.6 0 2.8-.7 1.1-.7 1.7-2l5.4 1.6q-1.2 2.9-3.8 4.6-2.6 1.6-5.8 1.6zm4.4-9.9h-9.7q-.1-.7-.1-1.5 0-1.4.2-2.5h9.5q.1.9.1 2zm18.4 9.9q-4.1 0-6.6-1.8-2.5-1.9-3.1-5.3l5.6-.8q.3 1.5 1.5 2.4 1.2.8 3 .8 1.5 0 2.3-.5.8-.6.8-1.6 0-.7-.4-1-.3-.5-1.4-.8-1.1-.4-3.4-1-2.7-.7-4.3-1.5-1.5-.9-2.2-2-.7-1.2-.7-2.9 0-2.1 1-3.6 1.1-1.5 3-2.3 1.9-.9 4.6-.9 2.5 0 4.5.8 1.9.8 3.1 2.2 1.2 1.5 1.5 3.4l-5.5 1q-.2-1.2-1.1-1.9-.9-.7-2.4-.8-1.5-.1-2.4.4-.9.5-.9 1.4 0 .6.3 1 .4.3 1.7.8 1.2.4 3.7 1t4 1.5q1.5.8 2.1 2 .7 1.2.7 2.9 0 3.3-2.4 5.2-2.4 1.9-6.6 1.9zm21.9 0q-4.1 0-6.6-1.8-2.5-1.9-3.1-5.3l5.6-.8q.3 1.5 1.5 2.4 1.2.8 3 .8 1.4 0 2.2-.5.8-.6.8-1.6 0-.7-.3-1-.3-.5-1.4-.8-1.1-.4-3.5-1-2.6-.7-4.2-1.5-1.6-.9-2.3-2-.7-1.2-.7-2.9 0-2.1 1.1-3.6t3-2.3q1.9-.9 4.5-.9t4.5.8q2 .8 3.2 2.2 1.2 1.5 1.5 3.4l-5.6 1q-.1-1.2-1-1.9t-2.4-.8q-1.5-.1-2.5.4-.9.5-.9 1.4 0 .6.4 1 .4.3 1.6.8 1.3.4 3.8 1t3.9 1.5q1.5.8 2.2 2 .7 1.2.7 2.9 0 3.3-2.4 5.2-2.4 1.9-6.6 1.9zm23.4 0q-3.3 0-5.8-1.4-2.6-1.4-4-3.9-1.4-2.6-1.4-5.8 0-3.5 1.4-6.2 1.4-2.6 3.8-4 2.5-1.5 5.7-1.5 3.4 0 5.8 1.6t3.5 4.5q1.1 2.9.8 6.8h-2.6v-4h-2.9q-.2-1.8-.9-2.7-1.1-1.5-3.5-1.5-2.7 0-4.1 1.7-.7 1-1 2.5h-1.9v4h1.7q.3 2 1.2 3.2 1.4 1.6 3.9 1.6 1.6 0 2.7-.7 1.2-.7 1.8-2l5.4 1.6q-1.2 2.9-3.8 4.6-2.7 1.6-5.8 1.6zm4.4-9.9h-9.8q-.1-.7-.1-1.5 0-1.4.3-2.5h9.5q.1.9.1 2zm18.4 9.9q-4.1 0-6.6-1.8-2.5-1.9-3.1-5.3l5.6-.8q.3 1.5 1.5 2.4 1.2.8 3 .8 1.4 0 2.2-.5.8-.6.8-1.6 0-.7-.3-1-.3-.5-1.4-.8-1.1-.4-3.5-1-2.6-.7-4.2-1.5-1.6-.9-2.3-2-.7-1.2-.7-2.9 0-2.1 1.1-3.6t3-2.3q1.9-.9 4.5-.9t4.5.8q2 .8 3.2 2.2 1.2 1.5 1.5 3.4l-5.6 1q-.1-1.2-1-1.9t-2.4-.8q-1.5-.1-2.5.4-.9.5-.9 1.4 0 .6.4 1 .4.3 1.6.8 1.3.4 3.8 1t3.9 1.5q1.5.8 2.2 2 .7 1.2.7 2.9 0 3.3-2.4 5.2-2.4 1.9-6.6 1.9z"/><path d="M463.5 229.4a73.61 73.61 0 0 1 74 0l142.1 82c22.9 13.2 37 37.6 37 64.1v164c0 26.5-14.1 50.9-37 64.1l-142.1 82a73.61 73.61 0 0 1-74 0l-142.1-82c-22.9-13.2-37-37.6-37-64.1v-164c0-26.5 14.1-50.9 37-64.1z" style="fill:url(#g10)"/><path d="M488.5 264.9c7.4-4.3 16.6-4.3 24 0l148.8 85.9c7.4 4.3 12 12.2 12 20.8v171.8c0 8.6-4.6 16.5-12 20.8l-148.8 85.9c-7.4 4.3-16.6 4.3-24 0l-148.8-85.9c-7.4-4.3-12-12.2-12-20.8V371.6c0-8.6 4.6-16.5 12-20.8z" style="fill:url(#g11)"/><g clip-path="url(#cp8)"><path fill-rule="evenodd" class="d" d="m441.5 480.1 6.5 53.8-20.3-5.4v.1l-34.9-9.4-10.5-104.3c-1.6-15.7-2.3-22-2.9-27.9-.3-2.8-.6-5.5-1-9.1l16.4-11.9v-.1l62.1-1.5 47.4 46.2-36.6 46.7 62.6 60.3-44.6 18.9zm-7.5-85.2-.6 36.6 27.5-17.9z"/><path class="B" d="m413 496.2-18.1-130.3-16.6 11.9c1.1 11.2 1.2 12.4 3.5 35.6l10.6 106 25.3 6.5z"/></g><g clip-path="url(#cp9)"><path class="B" d="m504.1 479.8 22.5-44 35.5-1.5 12.8 13.1L598 450l20.7 38.7-23.1 44.7-38.5-1.3-32.1-13.5z"/><path d="m526.6 435.8-22.5 44 38.6 5.9 2.9-3.3 3-2.6 6.9-7.2 7.8-4.3-32.4-30.3z" style="fill:#fff3eb"/><path fill-rule="evenodd" d="M570.6 464.5 598 450c1.1 2 20.7 38.7 20.7 38.7l-22.9 44.1.1.7-38.8-1.4-32.1-13.5 17.7-32.9 13.2-13.1 14.7-8.1z" style="fill:#e380da"/></g><path fill-rule="evenodd" class="d" d="M374.1 82h27.6c14.3 0 23.8 8.1 23.8 21.8 0 8.8-4.1 15-10.9 18.3l13 23.9h-18.9l-11.2-21.1h-6V146h-17.4zm23.5 29.4c6.1 0 9.8-2.2 9.8-7.6 0-5.5-3.7-7.9-9.8-7.9h-6.1v15.5zm66.2 35.5c-17.5 0-31.2-11.6-31.2-32.9 0-21.4 13.7-32.9 31.2-32.9 17.3 0 31.1 11.5 31.1 32.9s-13.8 32.9-31.1 32.9zm0-50.6c-8.7 0-13.3 6.2-13.3 17.7s4.6 17.8 13.3 17.8c8.6 0 13.2-6.3 13.2-17.8s-4.6-17.7-13.2-17.7zM545 106c-.5-5.8-4.3-9.7-11-9.7-8.7 0-13.5 6.6-13.5 17.7 0 11.8 5 17.8 13.4 17.8 6.4 0 10.3-3.5 11.1-8.9l17.7.1c-.9 10.9-10.4 23.9-29.2 23.9-17.6 0-30.8-11.6-30.8-32.9 0-21.4 13.6-32.9 30.8-32.9 16.2 0 27.8 9 29.2 24.9zm25.5-24h17.4v25.9h.8L608 82h20.2l-21.6 28.5 22.1 35.5H608l-14.4-24-5.7 7.5V146h-17.4z"/></g></svg>