<svg version="1.2" xmlns="http://www.w3.org/2000/svg" width="1000" height="1600"><defs><linearGradient id="P" gradientUnits="userSpaceOnUse"/><linearGradient id="g1" x2="1" href="#P" gradientTransform="matrix(-1433.488 -936.38 1033.832 -1582.675 1000 1600)"><stop stop-color="#042759"/><stop offset="1" stop-color="#145f9e"/></linearGradient><linearGradient id="g2" x2="1" href="#P" gradientTransform="matrix(515.5 -847 96.465 58.71 -44.5 669)"><stop stop-color="#fff"/><stop offset="1" stop-color="#fff" stop-opacity=".37"/></linearGradient><linearGradient id="g3" x2="1" href="#P" gradientTransform="matrix(510.485 -821.05 61.319 38.125 -206.712 762.96)"><stop stop-color="#194186"/><stop offset="1" stop-color="#fff" stop-opacity=".37"/></linearGradient><linearGradient id="g4" x2="1" href="#P" gradientTransform="matrix(792 0 0 116 104 1148.6)"><stop stop-color="#195b9d"/><stop offset="1" stop-color="#104375"/></linearGradient><linearGradient id="g5" x2="1" href="#P" gradientTransform="matrix(792 0 0 116 104 1293.6)"><stop stop-color="#195b9d"/><stop offset="1" stop-color="#104375"/></linearGradient><linearGradient id="g6" x2="1" href="#P" gradientTransform="matrix(792 0 0 116 104 1438.6)"><stop stop-color="#195b9d"/><stop offset="1" stop-color="#104375"/></linearGradient><linearGradient id="g7" x2="1" href="#P" gradientTransform="matrix(30.975 40.164 -41.553 32.046 339.666 980.726)"><stop stop-color="#ffe500"/><stop offset="1" stop-color="#ffc42b"/></linearGradient><linearGradient id="g8" x2="1" href="#P" gradientTransform="matrix(30.975 40.164 -41.549 32.043 412.676 980.726)"><stop stop-color="#ffe500"/><stop offset="1" stop-color="#ffc42b"/></linearGradient><linearGradient id="g9" x2="1" href="#P" gradientTransform="matrix(30.975 40.164 -41.566 32.057 485.686 980.726)"><stop stop-color="#ffe500"/><stop offset="1" stop-color="#ffc42b"/></linearGradient><linearGradient id="g10" x2="1" href="#P" gradientTransform="matrix(30.974 40.164 -41.567 32.056 558.696 980.726)"><stop stop-color="#ffe500"/><stop offset="1" stop-color="#ffc42b"/></linearGradient><linearGradient id="g11" x2="1" href="#P" gradientTransform="matrix(0 -.909 .588 0 794.259 693.905)"><stop stop-color="#fefefe"/><stop offset=".67" stop-color="#c4d9ec"/></linearGradient><linearGradient id="g12" x2="1" href="#P" gradientTransform="matrix(0 -.895 .527 0 708.616 647.551)"><stop stop-color="#fefefe"/><stop offset=".67" stop-color="#c4d9ec"/></linearGradient><linearGradient id="g13" x2="1" href="#P" gradientTransform="matrix(0 -1.169 .482 0 780.877 597.596)"><stop stop-color="#fefefe"/><stop offset=".67" stop-color="#c4d9ec"/></linearGradient><linearGradient id="g14" x2="1" href="#P" gradientTransform="matrix(0 -1.295 .364 0 730.151 535.384)"><stop stop-color="#fefefe"/><stop offset=".67" stop-color="#c4d9ec"/></linearGradient><linearGradient id="g15" x2="1" href="#P" gradientTransform="matrix(0 -1.013 .656 0 346.166 592.603)"><stop stop-color="#fefefe"/><stop offset=".67" stop-color="#c4d9ec"/></linearGradient><linearGradient id="g16" x2="1" href="#P" gradientTransform="matrix(0 -.998 .588 0 250.689 540.926)"><stop stop-color="#fefefe"/><stop offset=".67" stop-color="#c4d9ec"/></linearGradient><linearGradient id="g17" x2="1" href="#P" gradientTransform="matrix(0 -1.303 .537 0 331.247 485.236)"><stop stop-color="#fefefe"/><stop offset=".67" stop-color="#c4d9ec"/></linearGradient><linearGradient id="g18" x2="1" href="#P" gradientTransform="matrix(0 -1.444 .406 0 274.697 415.88)"><stop stop-color="#fefefe"/><stop offset=".67" stop-color="#c4d9ec"/></linearGradient><linearGradient id="g19" x2="1" href="#P" gradientTransform="matrix(0 -1.013 .656 0 260.862 647.234)"><stop stop-color="#fefefe"/><stop offset=".67" stop-color="#c4d9ec"/></linearGradient><linearGradient id="g20" x2="1" href="#P" gradientTransform="matrix(0 -.998 .588 0 165.386 595.557)"><stop stop-color="#fefefe"/><stop offset=".67" stop-color="#c4d9ec"/></linearGradient><linearGradient id="g21" x2="1" href="#P" gradientTransform="matrix(0 -1.303 .538 0 245.944 539.866)"><stop stop-color="#fefefe"/><stop offset=".67" stop-color="#c4d9ec"/></linearGradient><linearGradient id="g22" x2="1" href="#P" gradientTransform="matrix(0 -1.444 .406 0 189.393 470.511)"><stop stop-color="#fefefe"/><stop offset=".67" stop-color="#c4d9ec"/></linearGradient><linearGradient id="g23" x2="1" href="#P" gradientTransform="matrix(0 -1.163 .753 0 162.382 643.468)"><stop stop-color="#fefefe"/><stop offset=".67" stop-color="#c4d9ec"/></linearGradient><linearGradient id="g24" x2="1" href="#P" gradientTransform="matrix(0 -1.146 .675 0 52.769 584.14)"><stop stop-color="#fefefe"/><stop offset=".67" stop-color="#c4d9ec"/></linearGradient><linearGradient id="g25" x2="1" href="#P" gradientTransform="matrix(0 -1.496 .617 0 145.254 520.204)"><stop stop-color="#fefefe"/><stop offset=".67" stop-color="#c4d9ec"/></linearGradient><linearGradient id="g26" x2="1" href="#P" gradientTransform="matrix(0 -1.658 .466 0 80.331 440.58)"><stop stop-color="#fefefe"/><stop offset=".67" stop-color="#c4d9ec"/></linearGradient><clipPath clipPathUnits="userSpaceOnUse" id="cp1"><path d="M0 50C0 22.39 22.39 0 50 0h900c27.61 0 50 22.39 50 50v1500c0 27.61-22.39 50-50 50H50c-27.61 0-50-22.39-50-50z"/></clipPath><clipPath clipPathUnits="userSpaceOnUse" id="cp2"><path d="M104 225c0-14.36 11.64-26 26-26h740c14.36 0 26 11.64 26 26v454c0 14.36-11.64 26-26 26H130c-14.36 0-26-11.64-26-26z"/></clipPath><clipPath clipPathUnits="userSpaceOnUse" id="cp3"><path d="M384 339h36v36h-36z"/></clipPath><clipPath clipPathUnits="userSpaceOnUse" id="cp4"><path d="M456 339h36v36h-36z"/></clipPath><clipPath clipPathUnits="userSpaceOnUse" id="cp5"><path d="m438.63 358 20.38 20.63-20.63 20.38L418 378.38z"/></clipPath><clipPath clipPathUnits="userSpaceOnUse" id="cp6"><path d="m451.93 417.15-19.15 7.78-7.78-19.15 19.15-7.78z"/></clipPath><clipPath clipPathUnits="userSpaceOnUse" id="cp7"><path d="M833 1481c-24.33 0-44-19.67-44-44s19.67-44 44-44 44 19.67 44 44-19.67 44-44 44z"/></clipPath><clipPath clipPathUnits="userSpaceOnUse" id="cp8"><path d="M721 1339c-24.33 0-44-19.67-44-44s19.67-44 44-44 44 19.67 44 44-19.67 44-44 44z"/></clipPath><clipPath clipPathUnits="userSpaceOnUse" id="cp9"><path d="M833 1339c-24.33 0-44-19.67-44-44s19.67-44 44-44 44 19.67 44 44-19.67 44-44 44z"/></clipPath><clipPath clipPathUnits="userSpaceOnUse" id="cp10"><path d="M834 1192c-24.33 0-44-19.67-44-44s19.67-44 44-44 44 19.67 44 44-19.67 44-44 44z"/></clipPath><clipPath clipPathUnits="userSpaceOnUse" id="cp11"><path d="M722 1193c-24.33 0-44-19.67-44-44s19.67-44 44-44 44 19.67 44 44-19.67 44-44 44z"/></clipPath><clipPath clipPathUnits="userSpaceOnUse" id="cp12"><path d="M610 1195c-24.33 0-44-19.67-44-44s19.67-44 44-44 44 19.67 44 44-19.67 44-44 44z"/></clipPath></defs><style>.g{fill:#fff}.o{fill:#e3f4fc}.p{fill:#c2dae7}.q{fill:#59392b}.r{fill:#865b49}.s{fill:#adc3d0}.w{fill:#141d02}.z{opacity:.3;fill:#562c03}.A{fill:#9a0002}.C{opacity:.2;fill:#1a1a1a}.E{fill:#fffff4}.F{fill:#73b14c}.G{opacity:.3;fill:#141d02}.a1{fill:#163571}.a3{fill:#583114}.a5{fill:#fff;stroke:#142e46;stroke-width:2}</style><g clip-path="url(#cp1)"><path d="M0 50C0 22.4 22.4 0 50 0h900c27.6 0 50 22.4 50 50v1500c0 27.6-22.4 50-50 50H50c-27.6 0-50-22.4-50-50z" style="fill:url(#g1)"/><path d="M525.5-322-150 691l78 54L601.5-276z" style="opacity:.1;fill:url(#g2)"/><path d="M367.5-209-308 804l48 33.5 673.5-1021z" style="opacity:.1;fill:url(#g3)"/><path d="M104 1148c0-32 26-58 58-58h676c32 0 58 26 58 58s-26 58-58 58H162c-32 0-58-26-58-58z" style="fill:url(#g4)"/><path d="M104 1293c0-32 26-58 58-58h676c32 0 58 26 58 58s-26 58-58 58H162c-32 0-58-26-58-58z" style="fill:url(#g5)"/><path d="M104 1438c0-32 26-58 58-58h676c32 0 58 26 58 58s-26 58-58 58H162c-32 0-58-26-58-58z" style="fill:url(#g6)"/><path fill-rule="evenodd" class="g" d="M164.7 1164.6q-3.2 0-5.8-1.1-2.6-1.2-4.2-3.3-1.7-2.1-2.1-5l5.7-.8q.6 2.4 2.5 3.8 1.8 1.3 4.2 1.3 1.4 0 2.6-.4 1.3-.4 2.1-1.2.8-.9.8-2.1 0-.4-.1-.8t-.4-.8q-.3-.3-.9-.7-.5-.3-1.4-.5l-7.5-2.2q-.8-.3-1.9-.7-1.1-.5-2.2-1.3-1-.8-1.7-2.1-.7-1.4-.7-3.5 0-2.9 1.5-4.8 1.4-1.9 3.9-2.8 2.4-1 5.4-1 3 .1 5.3 1.1 2.3.9 3.9 2.8t2.3 4.6l-5.9 1q-.3-1.4-1.2-2.4-.8-.9-2-1.4-1.2-.5-2.5-.6-1.3 0-2.4.4-1.1.4-1.9 1.1-.7.7-.7 1.8 0 .9.6 1.5t1.5.9q.9.4 1.8.6l5 1.4q1.1.3 2.5.8 1.3.5 2.6 1.4 1.2.8 2 2.2.8 1.5.8 3.6 0 2.4-.9 4.1-1 1.7-2.6 2.9-1.7 1.1-3.8 1.6-2 .6-4.2.6zm28.9-.6q-2.2.4-4.4.4-2.1-.1-3.8-.8-1.7-.7-2.6-2.3-.8-1.5-.8-3-.1-1.5-.1-3.5v-8.2h-3.7v-4.2h3.7v-6h5.5v6h6.2v4.2h-6.2v10.2q0 1 .4 1.6.7 1.1 2.3 1.2 1.6.1 3.5-.1zm4.8 0v-21.6h4.8v3.5l.6-1q.7-.9 1.7-1.5.8-.5 1.7-.7.9-.3 1.9-.4 1 0 2 .1v5.1q-.9-.3-2.1-.2-1.2.1-2.2.5-.9.5-1.6 1.2-.6.7-1 1.7-.3 1-.3 2.2v11.1zm4.8-18.1q-.3.5-.5 1.1l.5.7zm21.3 18.7q-3.3 0-5.8-1.4-2.6-1.5-4-4t-1.4-5.7q0-3.6 1.4-6.2t3.8-4.1q2.5-1.4 5.7-1.4 3.4 0 5.8 1.6t3.5 4.5q1.1 2.9.8 6.8h-2.6v-4h-2.9q-.2-1.8-.9-2.7-1.1-1.5-3.5-1.5-2.7 0-4.1 1.7-.7 1-1 2.5h-1.9v4h1.7q.3 1.9 1.2 3.2 1.4 1.6 3.9 1.6 1.6 0 2.7-.7 1.2-.7 1.8-2l5.4 1.5q-1.2 3-3.8 4.6-2.7 1.7-5.8 1.7zm4.4-9.9h-9.8q-.1-.7-.1-1.5 0-1.4.3-2.5h9.5q.1.9.1 2zm24.1 9.3v-10.2q0-.8-.1-1.9-.1-1.2-.5-2.3-.4-1.2-1.4-2-.9-.7-2.7-.7-.7 0-1.5.2t-1.5.8q-.7.7-1.1 1.9-.5 1.2-.5 3.2v11h-5.5v-21.6h4.8v2.2q.8-.8 1.8-1.5 2.1-1.4 5.2-1.4 2.6 0 4.2.9t2.5 2.2q.9 1.3 1.2 2.7.4 1.5.5 2.6.1 1.2.1 1.8v12.1zm19.9 10.2q-1.8 0-3.5-.6-1.6-.6-3-1.7-1.3-1-2.1-2.4l5.1-2.4q.5.9 1.4 1.4 1 .5 2.2.5 1.2 0 2.3-.4 1-.4 1.7-1.2.6-.8.6-2v-2.2q-2.1 1.4-5.2 1.4-2.9 0-5.2-1.5-2.2-1.5-3.5-4.1-1.2-2.6-1.2-5.8 0-3.3 1.2-5.9 1.3-2.6 3.6-4 2.3-1.5 5.4-1.5 3.1 0 5.2 1.5.2.1.4.3v-1.2h4.7v24.6q-.1.7-.3 1.4-.5 2-1.9 3.2-1.4 1.3-3.5 1.9-2 .7-4.4.7zm.4-14.5q1.8 0 2.9-.8 1.1-.8 1.6-2.3.5-1.5.5-3.4 0-2-.5-3.5-.5-1.4-1.5-2.3-1.1-.8-2.8-.8-1.8 0-3 .9-1.1.9-1.7 2.4-.6 1.5-.6 3.3 0 1.8.6 3.3.5 1.5 1.6 2.4 1.2.8 2.9.8zm28.3 4.3q-2.2.4-4.4.3-2.1 0-3.8-.7-1.7-.7-2.6-2.3-.8-1.5-.8-3-.1-1.5-.1-3.5v-8.2h-3.7v-4.2h3.7v-6h5.5v6h6.2v4.2h-6.2v10.2q0 1 .4 1.6.7 1.1 2.3 1.2 1.6.1 3.5-.1zm19.5 0v-12.1q-.1-1.2-.5-2.3-.5-1.2-1.4-2-1-.8-2.7-.8-.7 0-1.5.3-.8.2-1.5.8-.7.6-1.2 1.9-.4 1.2-.4 3.2v11h-5.5v-28.8h4.8v9.4q.8-.8 1.7-1.5 2.1-1.4 5.3-1.4 2.6 0 4.2.9 1.6.8 2.4 2.2.9 1.3 1.3 2.7.4 1.4.5 2.6.1 1.2.1 1.7v12.2zm19.1.6q-4.1 0-6.6-1.9-2.5-1.8-3-5.2l5.5-.9q.4 1.6 1.5 2.4 1.2.9 3 .9 1.5 0 2.3-.6.8-.6.8-1.6 0-.6-.3-1-.4-.4-1.5-.8t-3.4-1q-2.7-.7-4.2-1.5-1.6-.8-2.3-2-.7-1.2-.7-2.8 0-2.1 1-3.6 1.1-1.6 3-2.4 2-.8 4.6-.8 2.5 0 4.5.7 1.9.8 3.1 2.3 1.3 1.4 1.5 3.4l-5.5 1q-.2-1.2-1.1-1.9-.9-.7-2.4-.9-1.5-.1-2.4.4-.9.5-.9 1.5 0 .5.4.9t1.6.8q1.2.4 3.7 1 2.5.7 4 1.5 1.5.9 2.2 2.1.6 1.2.6 2.8 0 3.4-2.4 5.3t-6.6 1.9zM153.8 1309v-28.8h13.3q.7.1 1.3.2 2.5.4 4.2 1.7 1.6 1.3 2.4 3.2.8 2 .8 4.4 0 3.6-1.8 6.2-1.1 1.6-3 2.4l5.2 10.7H170l-4.7-9.8h-6.1v9.8zm5.5-14.8h6.5q.4 0 .9-.1.5 0 .9-.1 1.1-.3 1.7-1 .6-.8.8-1.6.3-.9.3-1.7 0-.8-.3-1.6-.2-.9-.8-1.6-.6-.7-1.7-1-.4-.1-.9-.2h-7.4zm31.4 15.4q-3.3 0-5.9-1.4-2.5-1.4-3.9-3.9-1.5-2.6-1.5-5.8 0-3.5 1.4-6.2 1.4-2.6 3.9-4 2.5-1.5 5.7-1.5 3.4 0 5.7 1.6 2.4 1.6 3.6 4.5 1.1 2.9.8 6.8h-2.7v-4H195q-.3-1.8-1-2.7-1-1.5-3.4-1.5-2.8 0-4.1 1.7-.7 1-1.1 2.5h-1.9v4h1.8q.2 2 1.2 3.2 1.3 1.6 3.9 1.6 1.6 0 2.7-.7t1.7-2l5.5 1.6q-1.2 2.9-3.9 4.6-2.6 1.6-5.7 1.6zm4.4-9.9h-9.8q-.1-.7-.1-1.5 0-1.4.2-2.5h9.6q.1.9.1 2zm18.3 9.9q-4.1 0-6.6-1.8-2.5-1.9-3-5.3l5.5-.8q.4 1.5 1.5 2.4 1.2.8 3 .8 1.5 0 2.3-.5.8-.6.8-1.6 0-.7-.3-1-.3-.4-1.5-.8-1.1-.4-3.4-1-2.6-.7-4.2-1.5-1.6-.9-2.3-2-.7-1.2-.7-2.9 0-2.1 1.1-3.6 1-1.5 2.9-2.3 2-.9 4.6-.9 2.5 0 4.5.8t3.2 2.2q1.2 1.5 1.5 3.4l-5.6 1q-.1-1.2-1-1.9t-2.5-.8q-1.5-.1-2.4.4-.9.5-.9 1.4 0 .6.4 1t1.6.8q1.2.4 3.8 1 2.4.6 3.9 1.5 1.5.8 2.2 2 .7 1.2.7 2.9 0 3.3-2.4 5.2-2.4 1.9-6.7 1.9zm13.8-25.2v-4.8h5.5v4.8zm0 24.6v-21.6h5.4v21.6zm19.9.6q-4.1 0-6.6-1.8-2.5-1.9-3-5.3l5.5-.8q.4 1.5 1.5 2.4 1.2.8 3 .8 1.5 0 2.3-.5.8-.6.8-1.6 0-.7-.3-1-.4-.4-1.5-.8t-3.4-1q-2.7-.7-4.2-1.5-1.6-.9-2.3-2-.7-1.2-.7-2.9 0-2.1 1-3.6 1.1-1.5 3-2.3 2-.9 4.6-.9 2.5 0 4.5.8 1.9.8 3.1 2.2 1.3 1.5 1.5 3.4l-5.5 1q-.2-1.2-1.1-1.9-.9-.7-2.4-.8-1.5-.1-2.4.4-.9.5-.9 1.4 0 .6.4 1t1.6.8q1.2.4 3.7 1t4 1.5q1.5.8 2.2 2 .6 1.2.6 2.9 0 3.3-2.4 5.2-2.4 1.9-6.6 1.9zm26.4-.6q-2.2.4-4.4.4-2.1-.1-3.8-.8-1.7-.7-2.6-2.3-.8-1.4-.8-3-.1-1.5-.1-3.4v-8.3h-3.7v-4.2h3.7v-6h5.5v6h6.2v4.2h-6.2v10.2q0 1 .4 1.6.7 1.2 2.3 1.3 1.6.1 3.5-.2zm10.8.6q-2.3 0-3.9-.9t-2.5-2.4q-.8-1.5-.8-3.3 0-1.5.5-2.7.4-1.2 1.5-2.2 1-.9 2.7-1.6 1.2-.4 2.9-.8 1.7-.3 3.8-.6 1.2-.2 2.6-.4-.2-1.3-.9-2-.9-.9-3.1-.9-1.2 0-2.5.5-1.3.6-1.8 2.1l-4.9-1.6q.8-2.6 3.1-4.3 2.2-1.7 6.1-1.7 2.9 0 5.1.9 2.2.9 3.4 3 .6 1.2.7 2.4.1 1.2.1 2.7v13.2h-4.7v-2.7q-1.3 1.6-2.8 2.3-1.8 1-4.6 1zm6.8-14.9v.8l2-1.1q-1.1.2-2 .3zm.6 11.6q.3-.4.7-.8l-.7-.9zm-6.2-1.1q1.5 0 2.5-.5t1.6-1.2q.7-.7.9-1.1.4-.9.5-2.1v-1.3q-1.3.3-2.3.4-1.5.3-2.4.5-.9.2-1.6.5-.8.3-1.3.7-.5.4-.7.8-.3.4-.3 1 0 .7.4 1.3.4.5 1.1.8.6.2 1.6.2zm5.5-6.2 1.6-.2-1.6-.4zm25.4 9.9v-10.2q0-.7-.1-1.9-.1-1.1-.5-2.3-.4-1.1-1.4-1.9-.9-.8-2.7-.8-.7 0-1.5.2t-1.5.9q-.7.6-1.1 1.8-.5 1.2-.5 3.3v10.9h-5.5v-21.6h4.8v2.2q.8-.8 1.8-1.4 2.1-1.4 5.2-1.4 2.6 0 4.2.8 1.6.9 2.5 2.2.9 1.3 1.2 2.8.4 1.4.5 2.6.1 1.2.1 1.7v12.1zm19.8.6q-3.3 0-5.7-1.5-2.4-1.5-3.7-4.1-1.3-2.5-1.3-5.8t1.3-5.8q1.4-2.6 3.8-4.1 2.4-1.5 5.7-1.5 3.8 0 6.4 2 2.6 1.9 3.3 5.2l-5.4 1.5q-.5-1.7-1.7-2.7-1.2-.9-2.7-.9-1.7 0-2.8.8-1.1.9-1.6 2.3t-.5 3.2q0 2.8 1.2 4.6 1.3 1.7 3.7 1.7 1.9 0 2.8-.8 1-.8 1.5-2.4l5.5 1.2q-.9 3.4-3.5 5.3-2.5 1.8-6.3 1.8zm23.3 0q-3.4 0-5.9-1.4-2.5-1.4-4-3.9-1.4-2.6-1.4-5.8 0-3.5 1.4-6.2 1.4-2.6 3.9-4 2.4-1.5 5.6-1.5 3.4 0 5.8 1.6t3.5 4.5q1.2 2.9.8 6.8h-2.6v-4h-2.9q-.2-1.8-.9-2.7-1-1.5-3.4-1.5-2.8 0-4.1 1.7-.8 1-1.1 2.5h-1.9v4h1.8q.2 2 1.2 3.2 1.3 1.6 3.8 1.6 1.6 0 2.8-.7 1.1-.7 1.7-2l5.5 1.6q-1.3 2.9-3.9 4.6-2.6 1.6-5.7 1.6zm4.4-9.9h-9.8q-.1-.7-.1-1.5 0-1.4.2-2.5h9.5q.2.9.2 2zm18.3 9.9q-4.1 0-6.6-1.8-2.5-1.9-3-5.3l5.5-.8q.4 1.5 1.5 2.4 1.2.8 3 .8 1.5 0 2.3-.5.8-.6.8-1.6 0-.7-.3-1-.4-.5-1.5-.8-1.1-.4-3.4-1-2.7-.7-4.2-1.5-1.6-.9-2.3-2-.7-1.2-.7-2.9 0-2.1 1-3.6 1.1-1.5 3-2.3 2-.9 4.6-.9 2.5 0 4.5.8 1.9.8 3.1 2.2 1.3 1.4 1.5 3.4l-5.5 1q-.2-1.2-1.1-1.9-.9-.7-2.4-.8-1.5-.1-2.4.4-.9.5-.9 1.4 0 .6.4 1 .4.3 1.6.8 1.2.4 3.7 1t4 1.5q1.5.8 2.2 2 .6 1.2.6 2.9 0 3.3-2.4 5.2-2.4 1.9-6.6 1.9zM159.8 1454l-8.4-28.8h5.7l5.4 19.8 5.4-19.8h5.7l5.4 19.8 5.4-19.8h5.8l-8.5 28.8h-5.3l-5.6-19.4-5.6 19.4zm41.2.6q-3.3 0-5.9-1.4-2.5-1.5-3.9-4-1.5-2.5-1.5-5.7 0-3.6 1.4-6.2t3.9-4q2.5-1.5 5.7-1.5 3.4 0 5.7 1.6 2.4 1.6 3.6 4.5 1.1 2.9.8 6.8h-2.7v-4h-2.8q-.3-1.8-1-2.7-1-1.5-3.4-1.5-2.8 0-4.1 1.7-.7 1-1.1 2.5h-1.9v4h1.8q.3 2 1.2 3.2 1.3 1.6 3.9 1.6 1.6 0 2.7-.7t1.7-2l5.5 1.6q-1.2 2.9-3.9 4.6-2.6 1.6-5.7 1.6zm4.4-9.9h-9.8q-.1-.7-.1-1.5 0-1.4.2-2.5h9.6q.1.9.1 2zm15.5 9.9q-2.3 0-3.9-.9t-2.5-2.4q-.8-1.5-.8-3.3 0-1.5.5-2.7.4-1.2 1.4-2.2 1.1-.9 2.8-1.6 1.2-.4 2.9-.8 1.6-.3 3.7-.6 1.3-.2 2.7-.4-.2-1.3-.9-2-.9-.9-3.1-.9-1.2 0-2.5.5-1.3.6-1.8 2.1l-4.9-1.6q.8-2.6 3-4.3 2.3-1.7 6.2-1.7 2.9 0 5.1.9 2.2.9 3.3 3 .7 1.2.8 2.4.1 1.2.1 2.7v13.2h-4.7v-2.7q-1.3 1.6-2.8 2.3-1.8 1-4.6 1zm6.8-14.9v.8l2-1.1q-1.1.2-2 .3zm.6 11.6.6-.8-.6-.9zm-6.2-1.1q1.5 0 2.5-.5t1.6-1.2q.6-.7.9-1.1.4-.9.4-2.1.1-.7.1-1.3-1.3.3-2.3.4-1.5.3-2.4.5-.9.2-1.6.5-.8.3-1.3.7-.5.4-.8.8-.2.4-.2 1 0 .7.4 1.3.4.5 1 .8.7.2 1.7.2zm5.5-6.2q.7-.1 1.6-.2l-1.6-.4zm10.6 9.9v-28.8h5.5v17.6l7.4-10.4h6.7l-7.8 10.8 8.3 10.8h-7.1l-7.5-10.4v10.4zm36.9 0v-10.2q0-.7-.1-1.9-.1-1.1-.5-2.3-.4-1.1-1.4-1.9-.9-.8-2.7-.8-.7 0-1.5.2t-1.5.9q-.7.6-1.1 1.8-.5 1.2-.5 3.3v10.9h-5.5v-21.6h4.8v2.2q.8-.8 1.8-1.4 2.1-1.4 5.2-1.4 2.6 0 4.2.8 1.6.9 2.5 2.2.9 1.3 1.2 2.8.4 1.4.5 2.6.1 1.2.1 1.7v12.1zm20.3.6q-3.3 0-5.8-1.4t-4-3.9q-1.4-2.6-1.4-5.8 0-3.5 1.4-6.2 1.4-2.6 3.9-4 2.4-1.5 5.6-1.5 3.4 0 5.8 1.6t3.5 4.5q1.2 2.9.8 6.8h-2.6v-4h-2.9q-.2-1.8-.9-2.7-1.1-1.5-3.4-1.5-2.8 0-4.1 1.7-.8 1-1.1 2.5h-1.9v4h1.8q.2 2 1.2 3.2 1.3 1.6 3.8 1.6 1.6 0 2.8-.7 1.1-.7 1.7-2l5.4 1.6q-1.2 2.9-3.8 4.6-2.6 1.6-5.8 1.6zm4.4-9.9h-9.7q-.1-.7-.1-1.5 0-1.4.2-2.5h9.5q.1.9.1 2zm18.4 9.9q-4.1 0-6.6-1.8-2.5-1.9-3.1-5.3l5.6-.8q.3 1.5 1.5 2.4 1.2.8 3 .8 1.5 0 2.3-.5.8-.6.8-1.6 0-.7-.4-1-.3-.5-1.4-.8-1.1-.4-3.4-1-2.7-.7-4.3-1.5-1.5-.9-2.2-2-.7-1.2-.7-2.9 0-2.1 1-3.6 1.1-1.5 3-2.3 1.9-.9 4.6-.9 2.5 0 4.5.8 1.9.8 3.1 2.2 1.2 1.5 1.5 3.4l-5.5 1q-.2-1.2-1.1-1.9-.9-.7-2.4-.8-1.5-.1-2.4.4-.9.5-.9 1.4 0 .6.3 1 .4.3 1.7.8 1.2.4 3.7 1t4 1.5q1.5.8 2.1 2 .7 1.2.7 2.9 0 3.3-2.4 5.2-2.4 1.9-6.6 1.9zm21.9 0q-4.1 0-6.6-1.8-2.5-1.9-3.1-5.3l5.6-.8q.3 1.5 1.5 2.4 1.2.8 3 .8 1.4 0 2.2-.5.8-.6.8-1.6 0-.7-.3-1-.3-.5-1.4-.8-1.1-.4-3.5-1-2.6-.7-4.2-1.5-1.6-.9-2.3-2-.7-1.2-.7-2.9 0-2.1 1.1-3.6t3-2.3q1.9-.9 4.5-.9t4.5.8q2 .8 3.2 2.2 1.2 1.5 1.5 3.4l-5.6 1q-.1-1.2-1-1.9t-2.4-.8q-1.5-.1-2.5.4-.9.5-.9 1.4 0 .6.4 1 .4.3 1.6.8 1.3.4 3.8 1t3.9 1.5q1.5.8 2.2 2 .7 1.2.7 2.9 0 3.3-2.4 5.2-2.4 1.9-6.6 1.9zm23.4 0q-3.3 0-5.8-1.4-2.6-1.4-4-3.9-1.4-2.6-1.4-5.8 0-3.5 1.4-6.2 1.4-2.6 3.8-4 2.5-1.5 5.7-1.5 3.4 0 5.8 1.6t3.5 4.5q1.1 2.9.8 6.8h-2.6v-4h-2.9q-.2-1.8-.9-2.7-1.1-1.5-3.5-1.5-2.7 0-4.1 1.7-.7 1-1 2.5h-1.9v4h1.7q.3 2 1.2 3.2 1.4 1.6 3.9 1.6 1.6 0 2.7-.7 1.2-.7 1.8-2l5.4 1.6q-1.2 2.9-3.8 4.6-2.7 1.6-5.8 1.6zm4.4-9.9h-9.8q-.1-.7-.1-1.5 0-1.4.3-2.5h9.5q.1.9.1 2zm18.4 9.9q-4.1 0-6.6-1.8-2.5-1.9-3.1-5.3l5.6-.8q.3 1.5 1.5 2.4 1.2.8 3 .8 1.4 0 2.2-.5.8-.6.8-1.6 0-.7-.3-1-.3-.5-1.4-.8-1.1-.4-3.5-1-2.6-.7-4.2-1.5-1.6-.9-2.3-2-.7-1.2-.7-2.9 0-2.1 1.1-3.6t3-2.3q1.9-.9 4.5-.9t4.5.8q2 .8 3.2 2.2 1.2 1.5 1.5 3.4l-5.6 1q-.1-1.2-1-1.9t-2.4-.8q-1.5-.1-2.5.4-.9.5-.9 1.4 0 .6.4 1 .4.3 1.6.8 1.3.4 3.8 1t3.9 1.5q1.5.8 2.2 2 .7 1.2.7 2.9 0 3.3-2.4 5.2-2.4 1.9-6.6 1.9z"/><path d="M362.2 977.5c1.2 3.4 4.4 5.7 8 5.8l7.9.1h1.5q1 .1 2 .4c3.7 1.5 4.8 6.7 1.2 9.4l-12.4 9.1s2.3 7.3 4.6 14.7c1.6 4.9-4.1 9-8.4 6l-7.6-5.4c-3-2-7-2-9.9 0l-7.7 5.4h.1-.1q-.9.5-1.9.9c-3.8.9-7.8-2.7-6.5-7l4.6-14.6.1.1-.1-.1-12.4-9.1c-4.2-3.1-2-9.7 3.2-9.8l9.4-.1c3.6-.1 6.8-2.4 8-5.8l3-8.8c1.7-4.9 8.7-4.9 10.4 0z" style="fill:url(#g7)"/><path d="M435.2 977.5c1.2 3.4 4.4 5.7 8 5.8l7.9.1h1.5q1 .1 2 .4c3.7 1.5 4.8 6.7 1.2 9.4l-12.4 9.1s2.3 7.3 4.6 14.7c1.6 4.9-4.1 9-8.4 6l-7.6-5.4c-3-2-7-2-9.9 0l-7.6 5.4h-.1q-.9.5-1.8.9c-3.9.9-7.9-2.7-6.6-7l4.6-14.6.1.1-.1-.1-12.4-9.1c-4.2-3.1-2-9.7 3.2-9.8l9.4-.1c3.6-.1 6.8-2.4 8-5.8l3-8.8c1.7-4.9 8.7-4.9 10.4 0z" style="fill:url(#g8)"/><path d="M508.2 977.5c1.2 3.4 4.4 5.7 8.1 5.8l7.8.1h1.5q1 .1 2 .4c3.7 1.5 4.8 6.7 1.2 9.4l-12.4 9.1s2.3 7.3 4.6 14.7c1.6 4.9-4.1 9-8.4 6l-7.6-5.4c-3-2-7-2-9.9 0l-7.6 5.4h-.1q-.9.5-1.8.9c-3.9.9-7.9-2.7-6.6-7l4.6-14.6.1.1v-.1l-12.5-9.1c-4.2-3.1-2-9.7 3.3-9.8l9.3-.1c3.6-.1 6.9-2.4 8-5.8l3-8.8c1.7-4.9 8.8-4.9 10.4 0z" style="fill:url(#g9)"/><path d="M581.2 977.5c1.2 3.4 4.4 5.7 8.1 5.8l7.8.1h1.5q1 .1 2 .4c3.7 1.5 4.8 6.7 1.2 9.4l-12.3 9.1s2.2 7.3 4.5 14.7c1.6 4.9-4.1 9-8.4 6l-7.6-5.4c-2.9-2-6.9-2-9.9 0l-7.6 5.4q-1 .5-1.9.9c-3.9.9-7.9-2.7-6.6-7l4.6-14.6.1.1v-.1l-12.5-9.1c-4.2-3.1-2-9.7 3.3-9.8l9.3-.1c3.6-.1 6.9-2.4 8-5.8l3-8.8c1.7-4.9 8.8-4.9 10.4 0z" style="fill:url(#g10)"/><path d="M654.2 977.5c1.2 3.4 4.4 5.7 8.1 5.8l7.8.1h1.5q1.1.1 2 .4c3.8 1.5 4.8 6.7 1.2 9.4l-12.3 9.1s2.2 7.3 4.6 14.7c1.5 4.9-4.2 9-8.5 6l-7.6-5.4c-2.9-2-6.9-2-9.9 0l-7.6 5.4q-.9.5-1.9.9c-3.9.9-7.9-2.7-6.5-7l4.5-14.6.1.1v-.1l-12.4-9.1c-4.3-3.1-2.1-9.7 3.2-9.8l9.3-.1c3.6-.1 6.9-2.4 8-5.8l3-8.8c1.7-4.9 8.8-4.9 10.4 0z" style="fill:#305b8d"/><g clip-path="url(#cp2)"><path fill-rule="evenodd" d="M110 223c0-9.9 8.1-18 18-18h744c9.9 0 18 8.1 18 18v458c0 9.9-8.1 18-18 18H128c-9.9 0-18-8.1-18-18z" style="fill:none;stroke:#ffe600;stroke-width:12"/><path d="M90.8 48.8h828.3v828.9H90.8z" style="fill:#cfeaf7"/><path class="o" d="M724.9 69.3c-100.4 24.8-200.3 52-299.5 81.4q-12.8 3.7-25.6 7.6-61.5 18.5-122.7 38.1c-45.1 14.5-91.3 35.8-137.9 43.2-14.5 2.3-31.7 9.3-48.4 13.8V158c24.3-5.3 48.6-9.7 72.9-13.1 20.3-2.8 38.5-1.8 58.6-7 27-7 54.1-11.7 82.1-12.3q-13 9.6-26.1 19.2c74.6-11.2 149.1-24.3 222.2-41.3 37.6-8.8 75.5-16 113.7-21.8 35.7-5.4 75.9-3.8 110.7-12.4zM604.3 188c103.6-41.2 208.6-78.8 314.8-112.7v85.3c-24.4 9.8-49.7 17.9-74.7 25.1C768.3 207.4 689 224 622 266c98.5-21 197.4-42.2 297.1-55.6V267c-41.9 12.3-80.5 24.1-88.7 26.2q-107 28.3-214 56.5c-141 37.3-282 75.8-422.8 113-41.2 10.9-87.3-29.2-44.4-62.5 34.6-26.8 86.3-26.8 126.4-40.9 72.5-25.5 144.1-53.4 214.7-83.6 20.5-8.8 41.7-18.5 55.1-36.2 6.6-8.7 10.9-18.9 18.1-27.1 10.5-12.1 25.9-18.5 40.8-24.4zM919.1 374.1v61.3q-7.6 1.6-15.1 3.1c-5.7 1.1-11.6 2.2-17.1.4-5.4-1.7-10.1-7.4-8.7-13q-103.4 25.2-206.8 50.5 85-33.4 170-66.7c24.7-14.2 50.8-26.1 77.7-35.6z"/><path class="o" d="M442.7 478.8C399.6 456.1 88.2 343.6 88.2 343.6s-.1 4.5-.3 12.6q.3.1.6.3c24.8 12.4 48.5 23.6 73.3 34.3 8.9 3.5 16.6 8.9 25.5 11.8 39 12.4 76.3 25.5 112.4 44.4-4.8-.6-10.1.6-14.2 1.8-4.7 1.7-9.5 0-14.2 2.9 34.9 9.5 71.6 10.1 105.9 22.5 11.2 4.1 22.5 10.6 33.7 16.6 13.6 6.5 26.6 11.2 40.2 17.7 5.4 3 10.1 7.7 15.4 10.7 40.2 21.3 79.9 36.6 115.4 66.2 26 21.3 56.2 30.2 88.1 39.7 6.7 2.1 13.5 4.7 20.2 7.4 17.3-9.1 27.3-17.4 27.3-17.4-38.1-10-231.7-113.5-274.8-136.3z"/><path class="p" d="M581.9 585.4c-35.5-29.6-75.2-44.9-115.4-66.2-5.3-3-10-7.7-15.4-10.7-13.6-6.5-26.6-11.2-40.2-17.7-11.2-6-22.5-12.5-33.7-16.6-34.3-12.4-71-13-105.9-22.5 4.7-2.9 9.5-1.2 14.2-2.9 4.1-1.2 9.4-2.4 14.2-1.8-36.1-18.9-73.4-32-112.4-44.4-8.9-2.9-16.6-8.3-25.5-11.8-24.8-10.7-48.5-21.9-73.3-34.3q-.3-.2-.6-.3c-1.7 61.6-8.5 329.1.3 329.1 10 0 373 10 384.9 6.2 12-3.8 74.8-32.8 137.6-36.3 32.9-1.9 60.5-12.7 79.5-22.7-6.7-2.7-13.5-5.3-20.2-7.4-31.9-9.5-62.1-18.4-88.1-39.7z"/><path class="o" d="M919.1 628.1v25.8h-.1l-2.8-.4q-3-.4-5.9-.9-1.2-.2-2.3-.4-.5-.1-.9-.1-.9-.2-1.8-.3-1.2-.3-2.4-.5l-2.4-.4q-1.1-.2-2.1-.4l-3-.6c-33.1-7.1-65.1-8.3-98.8-13.6-5.3-.6-11.2.6-16.5 0-4.2-.6-7.7-3-11.9-3.6-32.5-2.9-63.9-7.6-97-11.8-12.3-1.4-24.6-2.6-36.8-4 30.2-12.4 51.7-20.9 55.8-22 17.4-4.5 224.7 31.9 228.9 33.2z"/><path class="p" d="M919.1 653.9v109.7c-110.2-4.4-558.5-22.4-562.7-25.4-3.7-2.6 181.7-81.7 278-121.3 12.2 1.4 24.5 2.6 36.8 4 33.1 4.2 64.5 8.9 97 11.8 4.2.6 7.7 3 11.9 3.6 5.3.6 11.2-.6 16.5 0 33.7 5.3 65.7 6.5 98.8 13.6 8 1.6 15.9 2.9 23.7 4z"/><path class="q" d="M767.7 666.4h-18.5v58.5c6.2-7.2 12.4-14.5 18.5-21.8z"/><path class="r" d="M749.2 724.9v11.6h18.5v-33.4c-6.1 7.3-12.3 14.6-18.5 21.8z"/><path class="s" d="m746.5 590 54.8 60c2.5 4.8 4.9 9.6 7 14.6-4.2-2.1-7.5-5-11.7-7.1-5.8-2.5-11.2-5.8-17-9.1v3.7c1.3 5.4 5 9.6 5 15-7.5-9.2-19.9-12.5-26.2-22.5 2.9 15.9 10.1 30.3 16.1 45.5l-3.8 5.8-18.4-12.4-22.5 12.4-1.6-16-28.7 16-3.7-18.4-39.7 13.6z"/><path d="M793.7 693.5c-.4.2-.3-.1.1-.7.2.3.2.6-.1.7z" style="fill:url(#g11)"/><path class="o" d="M784.6 667.1c0-5.4-3.7-9.6-5-15v-3.7c5.8 3.3 11.2 6.6 17 9.1 4.2 2.1 7.5 5 11.7 7.1-2.1-5-4.5-9.8-7-14.6l39.6 43.5-36.1-14.2s-9.2 10.6-11 13.5c-1.8-2.2-15.7-8.2-15.7-8.2l-3.6 5.5c-6-15.2-13.2-29.6-16.1-45.5 6.3 10 18.7 13.3 26.2 22.5z"/><path class="s" d="m665.7 647.2 84.6-102 46.6 57.4q.1.5.1.9c0 .4 1.3.9 1.3 1.3-.8 3.3 1.2 5.8 2.5 8.7.4 1.2.4 2.9-.4 3.3-.9 1.3-2.5 0-3.4-.8-4.1-6.2-12-7.9-17.4-12.5.4 1.3-.4 2.1.8 3.8.9 1.2.5 3.3 1.7 5 .4.8.4 2 0 2.4-1.2.5-2.9.5-3.7-.4-6.7-5-13.3-8.7-20-13.3v3.8q.7 1.2 1.3 2.5c0 1.6-.4 3.3 0 5 2.3 7.5 5 14.7 7.7 22l-.7-.5-1.4 15.7-20.2-12.2-16.5 12.2-6.7-11s-12.4 5.8-14 8c-1.6-2.8-9.9-13.3-9.9-13.3z"/><path d="M708 647.2c-.3-.1-.3-.4-.1-.7.4.6.4.9.1.7z" style="fill:url(#g12)"/><path class="o" d="M759.7 607.3q-.6-1.3-1.3-2.5V601c6.7 4.6 13.3 8.3 20 13.3.8.9 2.5.9 3.7.4.4-.4.4-1.6 0-2.4-1.2-1.7-.8-3.8-1.7-5-1.2-1.7-.4-2.5-.8-3.8 5.4 4.6 13.3 6.3 17.4 12.5.9.8 2.5 2.1 3.4.8.8-.4.8-2.1.4-3.3-1.3-2.9-3.3-5.4-2.5-8.7 0-.4-1.3-.9-1.3-1.3q0-.4-.1-.9l34.4 42.3-35.5-13.4-3.4 18-25-15.2c-2.7-7.3-5.4-14.5-7.7-22-.4-1.7 0-3.4 0-5z"/><path d="M779.9 597.1c-.3.2-.2-.1 0-.7q.3.5 0 .7z" style="fill:url(#g13)"/><path class="s" d="m747.1 484.4 36.2 62.2c.7 3.8 2.2 7.4 3.8 10.8-7.5-6.6-15.8-11.2-24.9-14.9 0 5.8-.4 11.6 0 17.4h1.2v1.3c-6.2-5.4-10.8-13.3-18.7-16.2 3.2 19.1 13.3 35.8 19.6 53.9l-.4.8-12.7-13.5-15.7 13.5-1.1-17.4-19.9 17.4-2.7-20-27.5 14.8z"/><path class="w" d="m461.6 467.9-32.1 18.3-4.2-2.2 34.4-19.6z"/><path d="m526.6 500.5-1.2 34.9" style="fill:none;stroke:#141d02;stroke-miterlimit:10;stroke-width:36"/><path d="m651.8 443.2-35.3-10.6 38.3-6.9-1.5 8.7z" style="fill:#700"/><path class="z" d="m651.8 443.2-35.3-10.6 36.4 4.3z"/><path class="A" d="m644.4 435.8-18.5-2.3-2.3-.3-4.4-.6c.1 0 .6-.6 1.3-1.4 3.9-4.7 15-18.8 15-18.8z"/><path class="A" d="m621.7 470.8-47.2 21.5-41.9-36.5 5.3-12.6 12.5-29.7 73.8 16.1z"/><path d="M652.7 474.7c-50.3 30-81.2 59.5-81.2 59.5-13.2-8.6-28.2-17.5-43.5-26.1q-2.6-1.4-5.2-2.9C467.7 474.7 409.2 448 409.2 448c20.7-65.8 26.8-134.1 26.9-135.1l1.7.9 30.1 16.3 5.5 48 28 14 11.4 38.7 61.7 30.2 35.1-7.1 42.9 20.8z" style="fill:#844603"/><path class="C" d="M528 508.1q-2.6-1.4-5.2-2.9C467.7 474.7 409.2 448 409.2 448c20.7-65.8 26.8-134.1 26.9-135.1l32 116.1z"/><path class="z" d="m622.3 460 1.9-30.4-4 7-8 21.6z"/><path class="w" d="M595.8 535c-2.3 11.9-4.6 24.4-6.6 36.3-29.6-14-58.4-29.7-87.2-45.2-35.7-19.1-73-39.1-108.5-58.4l.2-.5c22.6 11.3 50.8 25.5 73.4 36.9 40.5 20.8 81.9 40.6 121.5 63l-2.5 1.2c.5-2.4 1.4-5.9 2-8.4 2.2-8.4 4.5-16.8 7.3-25.1l.4.2z"/><path class="C" d="M522.8 505.2C467.7 474.7 409.2 448 409.2 448c20.9-66.4 26.9-135.1 26.9-135.1l8.5 119.9z"/><path class="z" d="m625.5 434.4-1.9-1.2-3.1-2c3.9-4.7 15-18.8 15-18.8l5.9 15.7-15.5 5.4z"/><path d="M652.7 474.7c-50.3 30-81.2 59.5-81.2 59.5-13.2-8.6-28.2-17.5-43.5-26.1l37.6 8.5 86.9-41.9z" style="opacity:.3;fill:#1a1a1a"/><path class="z" d="m550.4 413.5 24.1 47.5-36.6-17.8z"/><path class="E" d="M463.4 331.5c2.2 14.6 3.9 29.4 5.5 44l.7 6.3-.7-.9c4.3 2.1 10.4 5.1 14.6 7.3 4.7 2.4 9.8 5 14.5 7.4l.4.2.1.4c2.9 9.5 5.7 19.1 8.4 28.6.3 1.1.8 3 1.1 4.1-.4-1.1-1.1-2.8-1.5-4-3.4-9.2-6.7-18.7-9.9-28.1l.5.6c-7.3-3.5-14.7-7.1-22-10.7l-7.3-3.7-.5-.3c-.4-3.4-1-9.8-1.3-13.3-1-12.6-2-25.2-2.6-37.9zM644.7 474.7c-11.4-4.2-22.5-9.2-33.5-14.2l-2.2-1.1.7.1c-10.5 1.9-21 3.7-31.6 4.7 9.6-2.6 19.4-4.7 29.2-6.7.3 0 2.1-.4 2.3-.4l.4.2c2.8 1.3 5.9 2.7 8.7 4.1 8.8 4.2 17.5 8.5 26 13.3z" style="opacity:.2"/><path class="F" d="m620.9 433.4-34.2 16.1-1.7-5.8-1.5-5.3zM611.1 477.9l-5.2-2-5.6-2.1 21.9-42.1z"/><path class="G" d="m620.9 433.4-34.2 16.1-1.7-5.8zM605.9 475.9l-5.6-2.1 21.9-42.1z"/><path class="F" d="M628.1 434.2c-.9 1.7-2.5 2.8-4.3 3-1.2.2-2.4 0-3.6-.6-2.8-1.5-3.9-5-2.4-7.9 1.3-2.4 4.2-3.6 6.8-2.8q.5.2 1.1.4c2.8 1.5 3.9 5.1 2.4 7.9z"/><path class="G" d="M623.8 437.2c-1.2.2-2.4 0-3.6-.6-2.8-1.5-3.9-5-2.4-7.9 1.3-2.4 4.2-3.6 6.8-2.8l.1.1-3.2 5.3z"/><g style="opacity:.3;mix-blend-mode:overlay"><path class="E" d="M554.3 417.1c21.4 5.2 41.9 9.6 61.1 13.1"/><path class="E" d="M554.3 417.1c10.3 1.5 20.5 3.7 30.7 5.8 10.2 2.2 20.4 4.5 30.4 7.3-10.4-.9-20.7-2.8-30.9-4.9-10.2-2.3-20.3-4.8-30.2-8.2z"/></g><path class="o" d="M763.4 561.2v-1.3h-1.2c-.4-5.8 0-11.6 0-17.4 9.1 3.7 17.4 8.3 24.9 14.9-1.6-3.4-3.1-7-3.8-10.8l29.4 50.5-25.1-15.4s-6.4 11.5-7.7 14.7c-1.1-2.5-10.8-9-10.8-9l-4.8 11.5c-6.3-18.1-16.4-34.8-19.6-53.9 7.9 2.9 12.5 10.8 18.7 16.2zM757.2 505.1c-1.3-14.1-4.2-28.2-4.6-42.4-.2-9.7-1.3-19.4-2.4-29.1l38.5 99-17.2-13.6-1.7 18.3-11-14.1c-.6-2.2-1.2-4.5-1.6-6.9-.4-3.7.4-7.5 0-11.2z"/><path d="M728.8 535q-.2-.2 0-.7c.2.6.2.9 0 .7z" style="fill:url(#g14)"/><path class="s" d="m708.3 535 41.1-103.5.8 2.1c1.1 9.7 2.2 19.4 2.4 29.1.4 14.2 3.3 28.3 4.6 42.4.4 3.7-.4 7.5 0 11.2.4 2.4 1 4.7 1.6 6.9l-1.5-1.8-.6 15.9-9.9-12.4-8 12.4-3.2-11.2s-6 6-6.8 8.2c-.8-2.9-4.8-13.5-4.8-13.5z"/><path class="q" d="M316.6 562H296v65.2c6.8-8.1 13.7-16.2 20.6-24.3z"/><path class="r" d="M296 627.2V640h20.6v-37.1c-6.9 8.1-13.8 16.2-20.6 24.3z"/><path class="s" d="m293 476.8 61 66.9c2.8 5.3 5.5 10.6 7.8 16.2-4.7-2.3-8.4-5.5-13-7.9-6.5-2.7-12.5-6.4-19-10.1v4.1c1.4 6 5.6 10.7 5.6 16.7-8.3-10.2-22.2-13.9-29.2-25 3.2 17.7 11.3 33.7 18 50.7l-4.3 6.4-20.5-13.8-25.1 13.8-1.7-17.8-32.1 17.8-4.1-20.4-44.3 15.1z"/><path d="M345.6 592.2c-.5.2-.4-.1 0-.8.3.3.3.6 0 .8z" style="fill:url(#g15)"/><path class="o" d="M335.4 562.7c0-6-4.2-10.7-5.6-16.7v-4.1c6.5 3.7 12.5 7.4 19 10.1 4.6 2.4 8.3 5.6 13 7.9-2.3-5.6-5-10.9-7.8-16.2l44.2 48.5-40.3-15.9s-10.3 11.8-12.3 15.1c-1.9-2.5-17.4-9.1-17.4-9.1l-4 6.1c-6.7-17-14.8-33-18-50.7 7 11.1 20.9 14.8 29.2 25z"/><path class="s" d="m202.8 540.5 94.3-113.6 52 63.9q.1.5.2 1.1c0 .4 1.4.9 1.4 1.3-1 3.7 1.4 6.5 2.7 9.8.5 1.4.5 3.2-.4 3.7-.9 1.4-2.8 0-3.7-1-4.7-6.9-13.4-8.8-19.5-13.8.5 1.3-.4 2.3 1 4.1.9 1.4.4 3.7 1.8 5.6.5.9.5 2.3 0 2.8-1.4.4-3.2.4-4.2-.5-7.4-5.6-14.8-9.7-22.2-14.8v4.1l1.4 2.8c0 1.9-.5 3.7 0 5.6 2.6 8.4 5.6 16.5 8.7 24.5l-.9-.5-1.5 17.5-22.6-13.6-18.3 13.6-7.5-12.3s-13.8 6.6-15.6 9c-1.8-3.2-11-14.8-11-14.8z"/><path d="M250 540.5c-.3-.1-.3-.4-.1-.7.4.7.5 1 .1.7z" style="fill:url(#g16)"/><path class="o" d="m307.6 496-1.4-2.8v-4.1c7.4 5.1 14.8 9.2 22.2 14.8 1 .9 2.8.9 4.2.5.5-.5.5-1.9 0-2.8-1.4-1.9-.9-4.2-1.8-5.6-1.4-1.8-.5-2.8-1-4.1 6.1 5 14.8 6.9 19.5 13.8.9 1 2.8 2.4 3.7 1 .9-.5.9-2.3.4-3.7-1.3-3.3-3.7-6.1-2.7-9.8 0-.4-1.4-.9-1.4-1.3q-.1-.6-.2-1.1l38.4 47.1-39.6-14.9-3.8 20.1-27.8-17c-3.1-8-6.1-16.1-8.7-24.5-.5-1.9 0-3.7 0-5.6z"/><path d="M330.2 484.7c-.3.2-.3-.1 0-.8.2.3.2.6 0 .8z" style="fill:url(#g17)"/><path class="s" d="m293.6 359.1 40.4 69.3c.7 4.3 2.4 8.3 4.2 12.1-8.4-7.4-17.6-12.5-27.8-16.7 0 6.5-.5 13 0 19.4h1.4v1.4c-7-6-12.1-14.8-20.9-18 3.6 21.3 14.9 39.9 21.8 60.1l-.3.9-14.3-15.1-17.5 15.1-1.2-19.4-22.2 19.4-2.9-22.3-30.7 16.5z"/><path class="o" d="M311.8 444.6v-1.4h-1.4c-.5-6.4 0-12.9 0-19.4 10.2 4.2 19.4 9.3 27.8 16.7-1.8-3.8-3.5-7.8-4.2-12.1l32.7 56.3-27.9-17.2s-7.2 12.8-8.6 16.4c-1.3-2.7-12.1-10-12.1-10l-5.4 12.8c-6.9-20.2-18.2-38.8-21.8-60.1 8.8 3.2 13.9 12 20.9 18zM304.8 382.1c-1.4-15.7-4.6-31.5-5.1-47.2-.3-10.8-1.5-21.7-2.7-32.5l43 110.4-19.3-15.2-1.8 20.5-12.3-15.8c-.6-2.5-1.3-5-1.8-7.7-.4-4.1.5-8.3 0-12.5z"/><path d="M273.2 415.4q-.2-.2 0-.7c.2.6.2 1 0 .7z" style="fill:url(#g18)"/><path class="s" d="m250.3 415.4 45.8-115.3.9 2.3c1.2 10.8 2.4 21.7 2.7 32.5.5 15.7 3.7 31.5 5.1 47.2.5 4.2-.4 8.4 0 12.5.5 2.7 1.2 5.2 1.8 7.7l-1.6-2-.8 17.8-10.9-13.9-8.9 13.9-3.6-12.6s-6.8 6.7-7.6 9.2c-.9-3.3-5.4-15.1-5.4-15.1z"/><path class="q" d="M231.3 616.6h-20.6v65.2c6.8-8.1 13.7-16.2 20.6-24.3z"/><path class="r" d="M210.7 681.8v12.9h20.6v-37.2c-6.9 8.1-13.8 16.2-20.6 24.3z"/><path class="s" d="m207.7 531.4 61 66.9c2.8 5.3 5.5 10.7 7.8 16.2-4.7-2.3-8.4-5.5-13-7.8-6.5-2.8-12.5-6.5-19-10.2v4.1c1.4 6.1 5.6 10.7 5.6 16.7-8.3-10.2-22.2-13.9-29.2-25 3.2 17.7 11.2 33.8 18 50.7l-4.3 6.4-20.5-13.8-25.1 13.8-1.7-17.8-32.1 17.8L151 629l-44.2 15.2z"/><path d="M260.3 646.8c-.5.2-.4-.1 0-.8.3.4.3.6 0 .8z" style="fill:url(#g19)"/><path class="o" d="M250.1 617.3c0-6-4.2-10.6-5.6-16.7v-4.1c6.5 3.7 12.5 7.4 19 10.2 4.6 2.3 8.3 5.5 13 7.8-2.3-5.5-5-10.9-7.8-16.2l44.2 48.5-40.3-15.8s-10.3 11.8-12.3 15c-1.9-2.4-17.4-9.1-17.4-9.1l-4 6.1c-6.8-16.9-14.8-33-18-50.7 7 11.1 20.9 14.8 29.2 25z"/><path class="s" d="m117.5 595.2 94.3-113.7 52 63.9q.1.6.2 1.1c0 .4 1.4.9 1.4 1.4-1 3.7 1.4 6.5 2.7 9.7.5 1.4.5 3.2-.4 3.7-.9 1.4-2.8 0-3.7-.9-4.7-7-13.5-8.8-19.5-13.9.5 1.4-.4 2.3 1 4.1.9 1.4.4 3.8 1.8 5.6.5.9.5 2.3 0 2.8-1.4.4-3.2.4-4.2-.5-7.4-5.5-14.8-9.7-22.2-14.8v4.2q.7 1.4 1.4 2.7c0 1.9-.5 3.8 0 5.6 2.6 8.4 5.6 16.5 8.7 24.6l-.9-.6-1.5 17.6-22.6-13.7-18.3 13.7-7.5-12.4s-13.9 6.6-15.6 9c-1.8-3.2-11-14.8-11-14.8z"/><path d="M164.7 595.2c-.3-.2-.3-.4-.1-.8.4.7.5 1 .1.8z" style="fill:url(#g20)"/><path class="o" d="M222.3 550.6q-.7-1.3-1.4-2.7v-4.2c7.4 5.1 14.8 9.3 22.2 14.8 1 .9 2.8.9 4.2.5.5-.5.5-1.9 0-2.8-1.4-1.8-.9-4.2-1.8-5.6-1.4-1.8-.5-2.7-1-4.1 6 5.1 14.8 6.9 19.5 13.9.9.9 2.8 2.3 3.7.9.9-.5.9-2.3.4-3.7-1.3-3.2-3.7-6-2.7-9.7 0-.5-1.4-1-1.4-1.4q-.1-.5-.2-1.1l38.4 47.2-39.6-15-3.8 20.2-27.8-17c-3.1-8.1-6.1-16.2-8.7-24.6-.5-1.8 0-3.7 0-5.6z"/><path d="M244.9 539.3c-.3.3-.3-.1 0-.8.2.4.2.6 0 .8z" style="fill:url(#g21)"/><path class="s" d="m208.3 413.7 40.4 69.3c.7 4.3 2.4 8.3 4.2 12.1-8.4-7.4-17.6-12.5-27.8-16.7 0 6.5-.5 13 0 19.5h1.4v1.4c-7-6.1-12.1-14.9-20.9-18.1 3.6 21.3 14.8 39.9 21.8 60.1l-.3.9-14.3-15.1-17.5 15.1-1.2-19.4-22.2 19.4-2.9-22.3-30.7 16.5z"/><path class="o" d="M226.5 499.3v-1.4h-1.4c-.5-6.5 0-13 0-19.5 10.2 4.2 19.4 9.3 27.8 16.7-1.8-3.8-3.5-7.8-4.2-12.1l32.7 56.3-27.9-17.2s-7.2 12.9-8.6 16.4c-1.3-2.7-12.1-9.9-12.1-9.9l-5.4 12.7c-7-20.2-18.2-38.8-21.8-60.1 8.8 3.2 13.9 12 20.9 18.1zM219.5 436.8c-1.4-15.8-4.6-31.5-5.1-47.3-.3-10.8-1.5-21.6-2.7-32.5l43 110.4-19.3-15.1-1.8 20.4-12.3-15.7c-.6-2.5-1.3-5.1-1.8-7.7-.4-4.2.5-8.4 0-12.5z"/><path d="M187.9 470.1q-.2-.3 0-.8c.2.7.2 1 0 .8z" style="fill:url(#g22)"/><path class="s" d="m165 470.1 45.8-115.4.9 2.3c1.2 10.9 2.4 21.7 2.7 32.5.5 15.8 3.7 31.5 5.1 47.3.5 4.1-.4 8.3 0 12.5.5 2.6 1.2 5.2 1.8 7.7l-1.6-2.1-.8 17.8-10.9-13.8-8.9 13.8-3.6-12.5s-6.8 6.6-7.6 9.1c-.9-3.2-5.4-15.1-5.4-15.1z"/><path class="q" d="M128.4 608.3h-23.7v74.9c7.9-9.3 15.9-18.6 23.7-27.9z"/><path class="r" d="M104.7 683.2v14.7h23.7v-42.6c-7.8 9.3-15.8 18.6-23.7 27.9z"/><path class="s" d="m101.3 510.5 70.1 76.8c3.2 6.1 6.3 12.2 8.9 18.6-5.3-2.6-9.6-6.3-14.9-9-7.4-3.2-14.3-7.4-21.8-11.7v4.8c1.6 6.9 6.4 12.2 6.4 19.1-9.6-11.7-25.5-15.9-33.5-28.7 3.7 20.3 12.9 38.8 20.6 58.2l-4.9 7.4-23.5-15.9L79.8 646l-1.9-20.4L41.1 646l-4.8-23.5-50.7 17.4z"/><path d="M161.7 643c-.5.2-.4-.1 0-.9.3.4.3.7 0 .9z" style="fill:url(#g23)"/><path class="o" d="M150 609.1c0-6.9-4.8-12.2-6.4-19.1v-4.8c7.5 4.3 14.4 8.5 21.8 11.7 5.3 2.7 9.6 6.4 14.9 9-2.6-6.4-5.7-12.5-8.9-18.6l50.7 55.7-46.2-18.2s-11.9 13.5-14.2 17.3c-2.2-2.9-19.9-10.5-19.9-10.5l-4.7 7c-7.7-19.4-16.9-37.9-20.6-58.2 8 12.8 23.9 17 33.5 28.7z"/><path class="s" d="m-2.2 583.7 108.3-130.5 59.7 73.4.2 1.2c0 .5 1.5 1.1 1.5 1.6-1 4.2 1.6 7.4 3.2 11.2.6 1.5.6 3.7-.5 4.2-1.1 1.6-3.2 0-4.2-1.1-5.4-7.9-15.5-10.1-22.4-15.9.6 1.6-.5 2.7 1.1 4.8 1.1 1.6.5 4.2 2.1 6.4.5 1 .5 2.6 0 3.1-1.6.6-3.7.6-4.8-.5-8.5-6.4-17-11.1-25.5-17v4.8l1.6 3.2c0 2.1-.5 4.2 0 6.4 2.9 9.6 6.5 18.9 10 28.1l-1-.6-1.8 20.2L99.4 571l-21.1 15.7-8.5-14.2s-15.9 7.5-17.9 10.3c-2.1-3.6-12.7-17-12.7-17z"/><path d="M51.9 583.7c-.3-.2-.3-.5 0-.9.4.8.5 1.2 0 .9z" style="fill:url(#g24)"/><path class="o" d="m118.1 532.6-1.6-3.2v-4.8c8.5 5.9 17 10.6 25.5 17 1.1 1.1 3.2 1.1 4.8.5.5-.5.5-2.1 0-3.1-1.6-2.2-1-4.8-2.1-6.4-1.6-2.1-.5-3.2-1.1-4.8 6.9 5.8 17 8 22.4 15.9 1 1.1 3.1 2.7 4.2 1.1 1.1-.5 1.1-2.7.5-4.2-1.6-3.8-4.2-7-3.2-11.2 0-.5-1.5-1.1-1.5-1.6l-.2-1.2 44 54.1-45.5-17.1-4.3 23.1-31.9-19.6c-3.5-9.2-7.1-18.5-10-28.1-.5-2.2 0-4.3 0-6.4z"/><path d="M144 519.6c-.3.3-.3-.1.1-1 .2.5.2.8-.1 1z" style="fill:url(#g25)"/><path class="s" d="m102.1 375.4 46.3 79.5c.9 4.9 2.8 9.6 4.8 13.9-9.6-8.5-20.2-14.4-31.9-19.1 0 7.4-.5 14.8 0 22.3h1.6v1.6c-8-6.9-13.8-17-23.9-20.7 4.1 24.4 17 45.7 25 68.9l-.4 1.1-16.4-17.3-20 17.3-1.4-22.3-25.6 22.3-3.3-25.6-35.3 19z"/><path class="o" d="M122.9 473.6V472h-1.6c-.5-7.5 0-14.9 0-22.3 11.7 4.7 22.3 10.6 31.9 19.1-2-4.3-3.9-9-4.8-13.9l37.6 64.7-32.1-19.8s-8.2 14.8-9.8 18.8c-1.6-3.1-13.9-11.4-13.9-11.4l-6.2 14.6c-8-23.2-20.9-44.5-25-68.9 10.1 3.7 15.9 13.8 23.9 20.7zM114.9 401.8c-1.6-18-5.3-36.1-5.8-54.2-.4-12.4-1.8-24.9-3.1-37.3L155.3 437l-22.1-17.4-2.1 23.5L117 425c-.8-2.8-1.5-5.8-2.1-8.8-.5-4.8.6-9.6 0-14.4z"/><path d="M78.6 440.1q-.2-.3 0-.9c.2.8.3 1.1 0 .9z" style="fill:url(#g26)"/><path class="s" d="m52.3 440.1 52.6-132.5 1.1 2.7c1.3 12.4 2.7 24.9 3.1 37.3.5 18.1 4.2 36.2 5.8 54.2.6 4.8-.5 9.6 0 14.4.6 3 1.3 6 2.1 8.8l-1.9-2.3-.8 20.4-12.6-15.9-10.2 15.9-4.2-14.4s-7.7 7.6-8.7 10.5c-1-3.7-6.1-17.3-6.1-17.3z"/><path class="o" d="M917.9 744v133.7H396c-.5 0-53.7-167.9-53.7-167.9.9-1.2 59 1.8 132.7 5.7 84 4.4 188.3 9.8 251.1 10.9 15.1.3 27.8.3 37.2 0 83-2.6 154.6 17.6 154.6 17.6z"/><path d="M786.3 732.7c-15.4-1.8-36.6-4.1-59.1-6.3-55.5-5.5-118.8-10.9-121-9.7l-130-1.2-67.4-.6s22.5 53.6 41.5 99.3l18.6-5.2c107-30.4 210.8-56.5 317.4-76.3z" style="fill:#abc2ce"/><path d="M887.7 813.8C800.2 796 710.2 770 749.5 761.7c39.3-8.3 88.5-21.3 55.4-26.5-4.3-.7-10.6-1.5-18.6-2.5-106.6 19.8-210.4 45.9-317.4 76.3l-18.6 5.2c14.1 33.9 26.2 63.5 25.7 63.5h443.1v-57.3q-14.4-3.2-31.4-6.6z" style="fill:#f5fbfd"/><path class="o" d="M482.3 728.8c-37.8-8-124.3-21.8-176.3-26.4-52-4.6-217.8-46-217.8-46s.1 11.3.2 28.9c25.9 11.1 53.7 17.4 79.4 28.5 1.7 1.2 1.7 11.8-.6 18.3-6.5 15.4-14.8 30.2-16.6 47.4 27.2-15.4 58-22.5 88.7-30.2 15.4-3.6 31.4-8.3 45.6-3 11.2 4.8 23.7 4.8 34.9 5.9 43.2 4.8 85.8 2.4 129 3 1.1 0 3.5-3 4.1-1.8 10.7 17.2-18.3 19.6-26.6 29.6 78.7-8.3 144.9 39.1 214.7 68 23.2 9.4 46.8 18 70.8 26.2 52-.1 85.1-.1 85.1-.1S520 736.9 482.3 728.8z"/><path class="p" d="M426.3 783c8.3-10 37.3-12.4 26.6-29.6-.6-1.2-3 1.8-4.1 1.8-43.2-.6-85.8 1.8-129-3-11.2-1.1-23.7-1.1-34.9-5.9-14.2-5.3-30.2-.6-45.6 3-30.7 7.7-61.5 14.8-88.7 30.2 1.8-17.2 10.1-32 16.6-47.4 2.3-6.5 2.3-17.1.6-18.3-25.7-11.1-53.5-17.4-79.4-28.5.3 59.5 1 190.6-.2 191.8-1.1 1.1 435 .5 623.6.1-24-8.2-47.6-16.8-70.8-26.2-69.8-28.9-136-76.3-214.7-68z"/></g></g><path d="M833 1481c-24.3 0-44-19.7-44-44s19.7-44 44-44 44 19.7 44 44-19.7 44-44 44z" style="fill:#ffc136"/><g clip-path="url(#cp7)"><path d="m811.1 1466.8-29.2 19.1-11.5-29.9 27.9-12.2 6.1-13 13.8-3.6 4.1-2.2 20.7-17.2 5.9-.1 2 2.3.4 4.9-19.4 16.6 27.2-5.6 1 .5 2.4 3.1-.6 4.9-2.9 2.3-17.9 4.2-6.6 1.7 2.8.1 1.8 1.6 1.1 3.8-.6 3.1 1 1.3-1.6 6-2.9 2.5-3.3.2-1.8.9-8.7 4.8z" style="fill:#3c2900"/><path class="g" d="m811 1464.8-26.1 16.4-11.1-24 26.7-11.5 5.5-12.4 12.6-3.6 6.7 12.3-2.4 2.4-4.5-1.6-3.3-3-.1-3.2-1 2.4-3.2 2.7 1.5-.4 2.7 5.1-5.1 6.7 8.3-3.8 3.8 11.1 7.8.4-8 4.3z"/><path fill-rule="evenodd" class="g" d="m822.4 1458.2 1.1 1.2 12.1-.2 2-2 1-4.5-14.5 2.3-2 1zm15.7-11.5-1.2-2.1-2.7-.4-12.1 3.8-1.4 1.3 1 3.5 14.9-1.2 1.5-1.5zm21.9-16.6-1.5-1.9-29.8 6.4-.2-2.1-2.8-.8 3.9-.5 20.1-17.1-.6-3.1-1.7-1.1-3.7.4-20.1 16.6-3.6 2 8.4 15.7 4.9-1.5-1.5-2.8 2.4.2 24.1-5.8 1.7-1.6z"/></g><path d="M721 1339c-24.3 0-44-19.7-44-44s19.7-44 44-44 44 19.7 44 44-19.7 44-44 44z" style="fill:#56d69c"/><g clip-path="url(#cp8)"><path d="m675.2 1309.1 18.9-8.8 2.7-9.6 6.3-14.9v-.1l.2-.1 2.9-1.7.2-.1.3.1 2.9 1.6.3.1v.3l.4 2.5v.1l-1.3 7.9 4.1-1.7 18.9-10.3h.1l2.1-.7.2-.1.2.1 2.7 1.4.3.2-.1.3-.8 3.3v.1l-.1.1-.8.7 1.5-.9.1-.1h.1l3.5-.2.5-.1.1.5.1 3.6v.1l-.1.1-.9 2.5v.1l-.1.1-.5.4v.1h-.1l-6.2 4 5.1-2.6.1-.1.2.1 3.4.3h.5v.5l-.4 4.1v.2l-.1.1-1.7 1.5v.1h-.1l-2.9 1.8 3.6.2h.5v.5l-.1 3.3v.2l-.1.2-2 1.7-25.9 16-.2.1h-8.4l-17.3 13-.4.3-.3-.5-12.3-21.2-.2-.4z" style="fill:#0e3e28;stroke:#0e3e28"/><path class="g" d="m705.1 1316.8-18.6 13.9-11.4-19.8 20.2-9.8 2.9-9.9 6-14.8 2.3-1.1 2.1.9.5 2.4-1.7 9.9 6.1-2.9 18.8-10 2.1-.8 1.9 1.1-.7 2.1-1.7 1.8-13.6 9.5-.3.6-.3.5.7-.2.3.8.2-1.3 16.7-9.5 2.4-.3.2 2.7-.7 2.1-16.6 10.5-.3 1.9.8-.3.6 1-.1-1.5 14.8-7.5 2.8.1v2.7l-1.2 1.3-15.9 10.1-1.3 2.3.9-.3.9 1.8-.1-2.5 12.4-7.1 3.1.1.2 2.3-1.2 1.4-25.6 15.9z"/></g><path d="M833 1339c-24.3 0-44-19.7-44-44s19.7-44 44-44 44 19.7 44 44-19.7 44-44 44z" style="fill:#4774ca"/><g clip-path="url(#cp9)"><path class="a1" d="m820 1317.7-15.1 12.3-1.4 1-14.9-21.2 18.7-16.2.2-1.5-.1-3.2 2.3-4.9 4-3.4 6.2-1.5 3.4-.2 4.3 1.8 3 1.1 2.7 1.7.7 1.1.3.4 1.9-1.1 5.2-3.7 3.1-4.6 2.9-2.3 1.9-.1 2.3 1 .5 1.1.8.2 1.9 1.1 2.2.7 1.4 2-.1 1.7 1.7.5.5 3.2-2.4 8.2-4.7 7.3-5.5 5.1-4.4 2.6-5.2 5-9.3 5.3z"/><path class="g" d="m819.6 1316-2.2 1.6-17.4 14.7-13.3-19.1 22.1-18.8.3-2.3-.2-2.7 2.1-4.5 3.3-2.6 6.1-1.7 2.6-.1 4.3 1.7 2.3.7 2.5 1.4.8 1.1.3 1.4 1.4-.5 2.3-1.1 5.6-4 1-1.7 2.1-3 2-1.8h1.4l1.7.5.6 1.6h1.1l1.9 1 1.7.5 1.1 1.5-.3 2 2.2.7.3 2.1-2.4 7.6-4.7 7-5.5 4.8-4.3 2.7-5.1 4.8-8.6 5z"/><path fill-rule="evenodd" class="a1" d="m825.6 1287.3-1-2.4-1.6-.5-.2.7 1.4.9.5 1.7-.2 1.3.8 2.1-1 3.2.9 1.1 2.3 1.7-1.9-2.8.9-2.8-.6-2.3 1.5-.7 2.5-.2 2.5.3.8-1.8-1.1 1.3-2.1-.3-2.2-.3-1 .2zm8.3 6 2.3 2.3 1.5 1.3.6 1.1 1.8.9 1.5 1.9 2.5 1.1.6-1 3-2.9 1.2-1.1.7-1.3 2.6-3.1 1-1.9 1.9-3.5 2.5-6-.5-.2-3.1 7.1-1.3 1.9-1.1 2.1-2.9 3.7-1.4 1.2-1.2 1.3-2 1.5h-1.8l-1.9-2 .4-1 4.5-3 2-2.4 1.7-2 2.3-3.4 1.3-3.1 2.2-5.5-.8.2-3.2 7.5-2.1 3.3-2.5 2.6-1.6 2.3-1.9 1.2-2.1 1.7-1 .6-.8-.2-.8-.7-1-.9-1.6-1.4.9-1.1 4.1-2 2.2-1.3 2.5-2.3 1.6-2.1 1.3-1.4 3.4-6.5.3-.9-.5.3-3.9 6.6-1.2 1.7-3 3.2-2.1 1.3-1.7 1-2.1.9-1.3.9-.6.2-1.1-.3-.4-1.1-1.5-1.2 1.1 2.5z"/></g><path d="M834 1192c-24.3 0-44-19.7-44-44s19.7-44 44-44 44 19.7 44 44-19.7 44-44 44z" style="fill:#8f3e02"/><g clip-path="url(#cp10)"><path class="a3" d="m800.3 1152.6-16.8 9-1.8 1.4 13.5 24 1.9-1.1 14-9c3 1 7.9 1.3 10.1 1 3.6-.5 9.3-3 11.5-4.1l16.2-8.2 15.6-8.5-.2-5-5-1.9-7.6 1.4-6.9 2.8.4-1.3-1.4-4.7-2.1-1.5-2.1.3 1.1-2.1-.7-3.9-3.7-2.5 14.2-13.7-1.3-8-6.2 2.2-25.1 16.1-6.3.9-7.3 2.5z"/><path class="g" d="m848 1119.5.6 4.6-17.9 17 3.6-1.3 3.9 2.7c.2 1 .6 2.8.7 3.2q0 .1 0 0c-.2-.1-1.4 2-2 3.2l3.5-.4 2 1.4 1 4-3.2 4.2 12.3-4.8 6.6-1.2 3.6 1.3.1 2.5-22.4 11.5c-3.9 2.2-13.2 6.8-19.6 8.1-2 .2-6.9.3-10.1-.9-.4.2-16.1 10.6-20.8 13.6l-11.7-20.8 23.7-13.4 4.2-13.9 5.5-2 6.6-.9 26.2-16.5z"/><path fill-rule="evenodd" class="a3" d="m818.4 1137.7 1 1 4.4 8 4.5-3 2.5-2.8 3.5-1.2-4.6 5.9-5 2.7 3 5.4c.2.2.4.6.5 1.1l5.5-3.5 4.1-4.1 1.5 1.3-4.8 4.3-6.4 3.1q0 .2-.1.3l-.9.2-3.2 1.3-2.8.7 1.1 2.3.1 2.8.8 1.3 2 .8 4.1-1.1 4.4-1.8 4.6-3.3 3.8-3.7.6 1.4-3.1 3.2-2.3 2-3.1 1.9c-.5.2-1.3.5-2.1.8-1.1.4-2.2.8-2.4.9-.4.1-.9.3-1.6.5-.7.2-1.6.4-2.3.6l-2.3-.1-1.9-1.3-1.1-2.1.4-1.8-.9-1.9-1.6-2.6.7-2.9-1.8-.9-2-3-1.2.7 1 1.7-2.4 8.4-.9-1.5-2.1-.6 2.3-1.4c.6-1.4 1.4-4.5 1.2-5.1-.2-.6-.9-1.6-1.2-2.1l3.8-2.1 2.6 3.6 7.1 3.5 1.3-.4-8.9-15.8-3.6-1.6 2.5-.4zm2.1 17.2-.4 2 .5.6 2.5-.6 1.2-.5z"/></g><path d="M722 1193c-24.3 0-44-19.7-44-44s19.7-44 44-44 44 19.7 44 44-19.7 44-44 44z" style="fill:#cc8f35"/><g clip-path="url(#cp11)"><path class="a5" d="m701.6 1146.6-47.7 7.6 2.1 29.8 48-13s11 3.4 14.1 4.1l8.1-3.1 9.3-9.6 6.6-14.9-2.7-15.6-17.1.6-6.7-7.3-6.1-2.4-9.5 3.1c-.1 4.1-.1 12.5.7 14 .8 1.5 2 2.2 2.5 2.4l1.9 1.4z"/><path class="g" d="m748 1150.2 4.3-3.5c.1-3.9-1.1-13.4-7.5-19.9-.3-.1-9.2-1.8-13.5-2.6l-7.7 6.3 3.3 4.1 11.1.6-.7 4.1-12.1.1-1.1 4.4 3.6 4.5 10.4 1.4-3.2 2.6.3 1.6.4 1.8-14.6-5-2.7 2.2-.2 3.3 6.8 8.3 5.8 1.8-2.6 3.6 4.1 2.7 4.8.3 3.1-2.5-.1-9.3 6.2-1.5 2.3-2.6z"/><path fill-rule="evenodd" class="a5" d="m748 1150.2 4.3-3.5c.1-3.9-1.1-13.4-7.5-19.9-.3-.1-9.2-1.8-13.5-2.6l-7.7 6.3 3.3 4.1 11.1.6-.7 4.1"/><path fill-rule="evenodd" class="a5" d="m748 1150.2-5.6-8.7-5.1-2.2m2.7 21.8 6.2-1.5 2.3-2.6-.5-6.8zm-2.7-21.8-12.1.1-1.1 4.4 3.6 4.5 8.5 1.2zm-1 10.1-.2 1.9 2-1.6zm-1.3 2.8.3 1.6.4 1.8.4-4.3zm.7 3.4-14.6-5-2.7 2.3-.2 3.2 6.8 8.3 5.8 1.8-2.6 3.6 4.1 2.7 4.8.3 3.1-2.5-.1-9.3zm4.4 5.4-4.4-5.4"/><path class="a5" d="m711.8 1164 1.2-1.5 4.9.3 11.8 10.1c1.3 1.1 1.4 2.9 1.3 3.6-.5 1.4-2.1 4.3-3.9 4.6-1.9.2-3.2-.5-3.7-.9l-10.7-10.2z"/><path d="m711.1 1132.5 4.4 2.8-2.9-.7c0 .9.2 2.4-.4 4.1-2.7 6-8.7 8.3-10.2 9l2.1-4-.8-2.6s3 1.7 5.2-.1c2.3-1.8 3-4.4 3-5.5z" style="fill:#142e46"/></g><path d="M610 1195c-24.3 0-44-19.7-44-44s19.7-44 44-44 44 19.7 44 44-19.7 44-44 44z" style="fill:#d81719"/><g clip-path="url(#cp12)"><path d="m632.7 1144.8 3.3 1.6.8 8-.8 2.9 1.7 6.5-4.6 6.1-5.9 1.5-14.1 7.9-16.3-.8-42.3 28.1-12.2-37.3 38.1-20 5.9-17.6 21.4-6.8 15.7-4.2 7.2 3.4-1.6 8.2 3.8 1.8 2.1 8.6z" style="fill:#600809"/><path class="g" d="m593.2 1178 3.7-2.3 1.6-.4 14.3.4 11.9-6.4-15.6-1.2-4.3-12.6-.7-3-1-2.9-3.6-6.8-2.6-1.3 3.6.2 3-4.5-.7 3.2 2.6 4.5 8.1 2.3 3.7-3.4-9.5-16.8-19.7 7-5.2 16.1c-29.1 16.2-36.8 19.7-41.9 22.6 4.4 13.1 10.9 32.9 10.9 32.9l38.5-26 1.5-.8z"/><path fill-rule="evenodd" class="g" d="m634.4 1158.9.4 3.1-3.4 4.9-16.8.4-.6-4.5zm-21.9-6.7 16-5.3 5.4 1.3.1 5.7-2.1 3-19.6 2.2c-.7-.8-1.4-2.4-1.7-3.1zm15.7-18 4 2.1-.1 4.8-3.3 3.1-19.7 8.3-2-2 6.9-2.1 4.7-3.8-2.9-6.4zm-4.7-11.2 4.7 2.3-1.4 6.4-13.3 3.1-3.6-7.5z"/></g><path fill-rule="evenodd" class="g" d="M349 94.1c-5.7 0-8.1 2.1-8.2 5.1-.1 3.2 2.7 5 9.1 6.4l5.5 1.2c14.7 3.1 20.8 10.3 20.9 20.5-.1 13.2-10.3 20.5-27.2 20.5-17.5 0-28.8-7.5-28.9-24.3h17.3c.2 6.1 4.4 9.4 11.3 9.4 5.8 0 8.8-2.3 8.9-5.6-.1-3.1-2.6-4.9-10.1-6.6l-6.6-1.4c-11.9-2.6-19.1-8.4-19.1-18.8-.1-12.8 11.1-21.3 27.1-21.3 16.2 0 26.3 8.7 26.3 21.8H358c-.4-4.3-3.2-6.9-9-6.9zm34.2-14h18.2v52.3h27V147h-45.2zm52.5 0h48.2v14.6h-30v11.5h27.6v14.7h-27.6v11.5h29.9V147h-48.1zM493 147V80.1h25.4c20.7 0 33.6 12.6 33.6 33.5S539.1 147 518.7 147zm25.1-15.4c9.9 0 15.7-4.1 15.7-18 0-14-5.8-18.1-16.2-18.1h-6.4v36.1zM593.2 95c-9.1 0-14.4 6.8-14.4 18.4 0 11.8 4.9 18.7 14.3 18.7 8.1 0 12.2-3.7 12.4-9.5h-12.2v-13H623v9.3c0 18.3-12.5 29-30 29-19.6 0-32.8-13-32.8-34.2 0-22.1 14.6-34.5 32.6-34.5 15.8 0 28 9.6 29.4 23h-18.3c-1.1-4.6-5-7.2-10.7-7.2zm38.3-14.9h48.2v14.6h-30v11.5h27.5v14.7h-27.5v11.5h29.9V147h-48.1zM115.2 827v-42.3h5.7V827zm43.3-19.1V827h-5.2v-19q0-4.5-1.8-6.7-1.8-2.3-5.3-2.3-4.2 0-6.6 2.7-2.5 2.7-2.5 7.4V827h-5.2v-31.7h5.2v4.9q1.9-2.9 4.4-4.3 2.6-1.4 5.9-1.4 5.5 0 8.3 3.4 2.8 3.4 2.8 10zm33.2-11.4v4.9q-2.2-1.2-4.5-1.8-2.2-.7-4.4-.7-5.1 0-7.9 3.3-2.8 3.2-2.8 9t2.8 9q2.8 3.2 7.9 3.2 2.2 0 4.4-.6 2.3-.6 4.5-1.8v4.8q-2.2 1-4.5 1.5-2.4.5-5 .5-7.2 0-11.4-4.5t-4.2-12.1q0-7.8 4.2-12.2 4.3-4.5 11.7-4.5 2.4 0 4.7.5 2.3.5 4.5 1.5zm27.4-1.7v5.4q-.9-.6-1.9-.8-1-.2-2.3-.2-4.4 0-6.8 2.8-2.3 2.9-2.3 8.3V827h-5.3v-31.7h5.3v4.9q1.6-2.9 4.3-4.3 2.6-1.4 6.4-1.4.5 0 1.2.1.6.1 1.4.2zm31.3 15v2.6h-23.9q.3 5.4 3.2 8.2 2.9 2.8 8.1 2.8 3 0 5.8-.7 2.9-.8 5.6-2.2v4.9q-2.8 1.2-5.7 1.8-3 .6-6 .6-7.6 0-12-4.4t-4.4-11.9q0-7.8 4.1-12.4 4.3-4.6 11.4-4.6 6.4 0 10.1 4.2 3.7 4.1 3.7 11.1zm-23.7-1.5h18.5q0-4.3-2.4-6.8-2.3-2.6-6.1-2.6-4.4 0-7 2.5-2.6 2.5-3 6.9zm57.1.6V827h-5.2v-4.8q-1.8 2.9-4.4 4.3-2.7 1.3-6.6 1.3-4.8 0-7.7-2.7-2.9-2.7-2.9-7.3 0-5.4 3.6-8.1 3.6-2.7 10.7-2.7h7.3v-.5q0-3.6-2.4-5.6-2.3-2-6.6-2-2.7 0-5.3.7-2.6.6-5 1.9v-4.8q2.9-1.1 5.6-1.6 2.7-.6 5.2-.6 6.9 0 10.3 3.6 3.4 3.6 3.4 10.8zm-5.2 2.2h-5.2q-6.3 0-8.7 1.4-2.5 1.4-2.5 4.9 0 2.8 1.8 4.4 1.9 1.7 5 1.7 4.4 0 7-3.1 2.6-3.1 2.6-8.2zm36.2-14.8v4.9q-2.2-1.1-4.6-1.7-2.4-.6-5-.6-3.8 0-5.8 1.2-1.9 1.2-1.9 3.6 0 1.8 1.4 2.9 1.4 1 5.6 1.9l1.7.4q5.6 1.2 7.9 3.4 2.4 2.1 2.4 6 0 4.4-3.5 7-3.5 2.6-9.6 2.6-2.6 0-5.4-.5-2.7-.5-5.8-1.5v-5.4q2.9 1.5 5.7 2.3 2.8.7 5.6.7 3.6 0 5.6-1.2 2-1.3 2-3.6 0-2.1-1.4-3.3-1.5-1.1-6.3-2.1l-1.8-.5q-4.8-1-7-3.1t-2.2-5.8q0-4.5 3.2-6.9 3.2-2.4 9-2.4 2.9 0 5.5.4 2.5.4 4.7 1.3zm37.1 13.6v2.5h-24q.4 5.4 3.3 8.3 2.9 2.8 8.1 2.8 3 0 5.8-.8 2.8-.7 5.6-2.2v4.9q-2.8 1.2-5.8 1.9-2.9.6-6 .6-7.5 0-12-4.4-4.4-4.5-4.4-12 0-7.8 4.2-12.3 4.2-4.6 11.3-4.6 6.4 0 10.2 4.1 3.7 4.1 3.7 11.2zm-23.8-1.5h18.6q-.1-4.3-2.4-6.9-2.3-2.5-6.2-2.5-4.4 0-7 2.5-2.6 2.4-3 6.9zm52.6-12.1v4.9q-2.2-1.1-4.6-1.7-2.4-.6-5-.6-3.8 0-5.8 1.2-1.9 1.2-1.9 3.6 0 1.8 1.4 2.9 1.4 1 5.6 1.9l1.7.4q5.6 1.2 7.9 3.4 2.4 2.1 2.4 6 0 4.4-3.5 7-3.5 2.6-9.6 2.6-2.6 0-5.4-.5-2.7-.5-5.8-1.5v-5.4q2.9 1.5 5.7 2.3 2.8.7 5.6.7 3.6 0 5.6-1.2 2-1.3 2-3.6 0-2.1-1.4-3.3-1.4-1.1-6.3-2.1l-1.8-.5q-4.8-1-7-3.1t-2.2-5.8q0-4.5 3.2-6.9 3.2-2.4 9-2.4 2.9 0 5.5.4 2.5.4 4.7 1.3zm33.4-13.3v17.2q1.7-2.9 4.2-4.2 2.5-1.4 6-1.4 5.8 0 9.4 4.6 3.6 4.6 3.6 12 0 7.5-3.6 12.1t-9.4 4.6q-3.5 0-6-1.4t-4.2-4.2v4.8h-5.2V783zm17.7 28.2q0-5.7-2.4-9-2.3-3.3-6.4-3.3-4.2 0-6.5 3.3-2.4 3.3-2.4 9 0 5.8 2.4 9.1 2.3 3.2 6.5 3.2 4.1 0 6.4-3.2 2.4-3.3 2.4-9.1zm41.2-15.9L459.1 830q-2.2 5.7-4.3 7.4-2.1 1.7-5.6 1.7H445v-4.3h3.1q2.1 0 3.3-1.1 1.2-1 2.6-4.8l1-2.3-12.9-31.3h5.6l9.9 24.9 9.9-24.9zm38.6-11.3q7.1 0 10.8 5.6 3.8 5.7 3.8 16.4 0 10.6-3.8 16.3-3.7 5.6-10.8 5.6-7.1 0-10.9-5.6-3.7-5.7-3.7-16.3 0-10.7 3.7-16.3 3.8-5.7 10.9-5.7zm0 4.5q-4.4 0-6.7 4.4-2.2 4.3-2.2 13.1 0 8.7 2.2 13 2.3 4.4 6.7 4.4t6.6-4.4q2.3-4.3 2.3-13 0-8.8-2.3-13.1-2.2-4.4-6.6-4.4zm24.7 38.6v-7.2h5.9v7.2zm18.5-21.1v-21.2h22.5v4.8h-17.2V800q1.2-.5 2.5-.7 1.2-.2 2.4-.2 7.1 0 11.3 3.9 4.1 3.9 4.1 10.5 0 6.8-4.3 10.6-4.2 3.8-11.9 3.8-2.7 0-5.5-.5-2.7-.4-5.7-1.3v-5.8q2.6 1.4 5.3 2.1 2.7.7 5.8.7 4.9 0 7.7-2.6 2.9-2.6 2.9-7t-2.9-7q-2.8-2.6-7.7-2.6-2.3 0-4.6.5t-4.7 1.6zm56.3-10.7h6.2l-11.5 15.5 12.1 16.3h-6.2l-9.2-12.5-9.2 12.5h-6.2l12.4-16.6-11.3-15.2h6.1l8.4 11.3zm37.6 27v16.8h-5.2v-43.8h5.2v4.9q1.7-2.9 4.2-4.2 2.5-1.4 6-1.4 5.7 0 9.3 4.6 3.7 4.6 3.7 12 0 7.5-3.7 12.1-3.6 4.6-9.3 4.6-3.5 0-6-1.4t-4.2-4.2zm17.7-11.1q0-5.7-2.3-9-2.4-3.3-6.5-3.3-4.2 0-6.5 3.3-2.4 3.3-2.4 9 0 5.8 2.4 9.1 2.3 3.2 6.5 3.2 4.1 0 6.5-3.2 2.3-3.3 2.3-9.1zm41.2-1.3v2.5h-23.9q.3 5.4 3.2 8.3 2.9 2.8 8.1 2.8 3 0 5.8-.8 2.8-.7 5.6-2.2v4.9q-2.8 1.2-5.7 1.9-3 .6-6 .6-7.6 0-12.1-4.4-4.4-4.5-4.4-12 0-7.8 4.2-12.3 4.2-4.6 11.4-4.6 6.4 0 10.1 4.1 3.7 4.1 3.7 11.2zm-23.8-1.5h18.6q0-4.3-2.4-6.9-2.3-2.5-6.2-2.5-4.3 0-7 2.5-2.6 2.4-3 6.9zm50.7-13.5.1 5.3q-.9-.5-2-.7-1-.3-2.2-.3-4.5 0-6.8 2.9-2.4 2.9-2.4 8.3v16.7H716v-31.8h5.2v5q1.7-2.9 4.3-4.3 2.6-1.4 6.4-1.4.5 0 1.2.1.6 0 1.4.2zm23.9-8.6h5.2v9h10.7v4.1h-10.7v17.2q0 3.9 1.1 5 1 1.1 4.3 1.1h5.3v4.4H769q-6 0-8.3-2.3-2.3-2.2-2.3-8.2v-17.2h-3.8v-4.1h3.8zm22.3 28.2v-19.2h5.2v19.1q0 4.5 1.7 6.7 1.8 2.3 5.3 2.3 4.2 0 6.7-2.7 2.4-2.7 2.4-7.4v-18h5.2v31.8H802v-4.9q-1.9 2.9-4.4 4.3-2.5 1.4-5.8 1.4-5.5 0-8.3-3.4-2.8-3.4-2.8-10zm55.6-19.6v5.3q-.8-.5-1.9-.7-1-.3-2.3-.3-4.4 0-6.7 2.9-2.4 2.9-2.4 8.3v16.7h-5.2v-31.8h5.2v5q1.6-2.9 4.3-4.3 2.6-1.4 6.4-1.4.5 0 1.2.1.6 0 1.4.2zm30.9 13v19.2h-5.3v-19q0-4.5-1.7-6.7-1.8-2.3-5.3-2.3-4.2 0-6.6 2.7-2.5 2.7-2.5 7.3v18h-5.2v-31.8h5.2v5q1.9-2.9 4.4-4.3 2.6-1.4 5.9-1.4 5.4 0 8.3 3.4 2.8 3.4 2.8 9.9zm11.7 16.8v-4.8h6v4.8l-4.7 9.1h-3.6zM278.6 897v-31.7h5.2V897zm0-37.4V853h5.2v6.6zm42.5 18.3V897h-5.2v-18.9q0-4.5-1.8-6.8-1.7-2.2-5.2-2.2-4.3 0-6.7 2.7-2.4 2.7-2.4 7.3V897h-5.3v-31.7h5.3v4.9q1.8-2.8 4.4-4.2 2.5-1.5 5.8-1.5 5.5 0 8.3 3.4 2.8 3.4 2.8 10zm10.4 19.1v-31.7h5.2V897zm0-37.4V853h5.2v6.6zm16-3.3h5.3v9h10.7v4.1h-10.7v17.2q0 3.9 1 5 1.1 1.1 4.4 1.1h5.3v4.3h-5.3q-6.1 0-8.4-2.2-2.3-2.3-2.3-8.2v-17.2h-3.8v-4.1h3.8zm22.9 40.7v-31.7h5.2V897zm0-37.4V853h5.2v6.6zm40.9 19.3V897h-5.2v-4.8q-1.8 2.9-4.4 4.3-2.7 1.4-6.6 1.4-4.8 0-7.7-2.8-2.9-2.7-2.9-7.3 0-5.3 3.6-8.1 3.6-2.7 10.7-2.7h7.3v-.5q0-3.6-2.4-5.5-2.3-2-6.6-2-2.7 0-5.3.6-2.6.7-5 2v-4.8q2.9-1.1 5.6-1.7 2.7-.5 5.2-.5 6.9 0 10.3 3.5 3.4 3.6 3.4 10.8zm-5.2 2.2h-5.2q-6.3 0-8.7 1.4-2.5 1.5-2.5 5 0 2.7 1.8 4.4 1.9 1.6 5 1.6 4.4 0 7-3.1 2.6-3.1 2.6-8.1zm15.9-24.8h5.2v9h10.7v4h-10.7v17.2q0 3.9 1 5 1.1 1.1 4.4 1.1h5.3v4.4h-5.3q-6.1 0-8.3-2.2-2.3-2.3-2.3-8.3v-17.2h-3.9v-4h3.9zm49.9 23.5v2.6H448q.3 5.4 3.2 8.2 2.9 2.8 8.1 2.8 3 0 5.8-.7 2.8-.8 5.6-2.2v4.9q-2.8 1.2-5.8 1.8-2.9.6-5.9.6-7.6 0-12.1-4.4-4.4-4.4-4.4-11.9 0-7.8 4.2-12.4 4.2-4.6 11.4-4.6 6.4 0 10.1 4.2 3.7 4.1 3.7 11.1zm-23.8-1.5h18.6q-.1-4.3-2.4-6.8-2.3-2.6-6.2-2.6-4.3 0-7 2.5-2.6 2.5-3 6.9zm52.6-12.1v4.9q-2.2-1.1-4.6-1.7-2.4-.5-4.9-.5-3.9 0-5.9 1.2-1.9 1.2-1.9 3.5 0 1.9 1.4 2.9t5.6 2l1.8.3q5.5 1.2 7.8 3.4 2.4 2.2 2.4 6.1 0 4.4-3.5 6.9-3.5 2.6-9.6 2.6-2.6 0-5.3-.5-2.8-.5-5.9-1.5v-5.3q2.9 1.5 5.7 2.2 2.8.8 5.6.8 3.7 0 5.7-1.3 1.9-1.3 1.9-3.6 0-2.1-1.4-3.2t-6.3-2.2l-1.8-.4q-4.8-1-7-3.1-2.1-2.2-2.1-5.8 0-4.5 3.1-6.9 3.2-2.5 9.1-2.5 2.8 0 5.4.4 2.5.5 4.7 1.3zm53.2 12.7V897h-5.2v-4.8q-1.8 2.9-4.4 4.3-2.7 1.3-6.5 1.3-4.9 0-7.8-2.7-2.9-2.7-2.9-7.3 0-5.4 3.6-8.1 3.6-2.7 10.7-2.7h7.3v-.5q0-3.6-2.4-5.6-2.3-2-6.6-2-2.7 0-5.3.7-2.6.6-4.9 1.9v-4.8q2.8-1.1 5.5-1.6 2.7-.6 5.3-.6 6.8 0 10.2 3.6 3.4 3.6 3.4 10.8zm-5.2 2.2h-5.2q-6.3 0-8.7 1.4-2.4 1.4-2.4 4.9 0 2.8 1.8 4.4 1.8 1.7 4.9 1.7 4.4 0 7-3.1 2.6-3.1 2.6-8.2zm15.9-24.8h5.2v9h10.8v4.1h-10.8v17.2q0 3.9 1.1 5 1 1.1 4.3 1.1h5.4v4.4h-5.4q-6 0-8.3-2.3-2.3-2.2-2.3-8.2v-17.2h-3.8v-4.1h3.8zm43 40.8v-4.8h9.3V860l-10.2 2v-5.2l10.2-2h5.7v37.5h9.3v4.8zm35.9 0v-7.2h6v7.2zM662 876v-21.2h22.5v4.8h-17.3V870q1.3-.5 2.5-.7 1.3-.2 2.5-.2 7.1 0 11.2 3.9 4.2 3.9 4.2 10.5 0 6.8-4.3 10.6-4.2 3.8-11.9 3.8-2.7 0-5.5-.5-2.7-.4-5.7-1.3v-5.8q2.6 1.4 5.3 2.1 2.7.7 5.7.7 4.9 0 7.8-2.6 2.9-2.6 2.9-7t-2.9-7q-2.9-2.6-7.8-2.6-2.3 0-4.6.5-2.2.6-4.6 1.6zm56.3-10.6h6.2L713 880.8l12.1 16.3h-6.2l-9.2-12.5-9.2 12.5h-6.2l12.3-16.6-11.2-15.1h6.1l8.4 11.3z"/></svg>