<svg version="1.2" xmlns="http://www.w3.org/2000/svg" viewBox="0 0 1000 1600" width="1000" height="1600"><defs><clipPath clipPathUnits="userSpaceOnUse" id="cp1"><path d="m0 50c0-27.61 22.39-50 50-50h900c27.61 0 50 22.39 50 50v1500c0 27.61-22.39 50-50 50h-900c-27.61 0-50-22.39-50-50z"/></clipPath><linearGradient id="P" gradientUnits="userSpaceOnUse"/><linearGradient id="g1" x2="1" href="#P" gradientTransform="matrix(-1433.488,-936.38,1033.832,-1582.675,1000,1600)"><stop stop-color="#042759"/><stop offset="1" stop-color="#145f9e"/></linearGradient><linearGradient id="g2" x2="1" href="#P" gradientTransform="matrix(515.5,-847,96.465,58.71,-44.5,669)"><stop stop-color="#fff" stop-opacity="1"/><stop offset="1" stop-color="#fff" stop-opacity=".37"/></linearGradient><linearGradient id="g3" x2="1" href="#P" gradientTransform="matrix(510.485,-821.05,61.319,38.125,-206.712,762.96)"><stop stop-color="#194186" stop-opacity="1"/><stop offset="1" stop-color="#fff" stop-opacity=".37"/></linearGradient><linearGradient id="g4" x2="1" href="#P" gradientTransform="matrix(792,0,0,116,104,1148.6)"><stop stop-color="#195b9d"/><stop offset="1" stop-color="#104375"/></linearGradient><linearGradient id="g5" x2="1" href="#P" gradientTransform="matrix(792,0,0,116,104,1293.6)"><stop stop-color="#195b9d"/><stop offset="1" stop-color="#104375"/></linearGradient><linearGradient id="g6" x2="1" href="#P" gradientTransform="matrix(792,0,0,116,104,1438.6)"><stop stop-color="#195b9d"/><stop offset="1" stop-color="#104375"/></linearGradient><linearGradient id="g7" x2="1" href="#P" gradientTransform="matrix(30.975,40.164,-41.553,32.046,339.666,980.726)"><stop stop-color="#ffe500"/><stop offset="1" stop-color="#ffc42b"/></linearGradient><linearGradient id="g8" x2="1" href="#P" gradientTransform="matrix(30.975,40.164,-41.549,32.043,412.676,980.726)"><stop stop-color="#ffe500"/><stop offset="1" stop-color="#ffc42b"/></linearGradient><linearGradient id="g9" x2="1" href="#P" gradientTransform="matrix(30.975,40.164,-41.566,32.057,485.686,980.726)"><stop stop-color="#ffe500"/><stop offset="1" stop-color="#ffc42b"/></linearGradient><linearGradient id="g10" x2="1" href="#P" gradientTransform="matrix(30.974,40.164,-41.567,32.056,558.696,980.726)"><stop stop-color="#ffe500"/><stop offset="1" stop-color="#ffc42b"/></linearGradient><clipPath clipPathUnits="userSpaceOnUse" id="cp2"><path d="m104 225c0-14.36 11.64-26 26-26h740c14.36 0 26 11.64 26 26v454c0 14.36-11.64 26-26 26h-740c-14.36 0-26-11.64-26-26z"/></clipPath><linearGradient id="g11" x2="1" href="#P" gradientTransform="matrix(0,-533.305,1323.312,0,574.06,731.792)"><stop stop-color="#d3ffe2"/><stop offset=".99" stop-color="#6375d0"/></linearGradient><linearGradient id="g12" x2="1" href="#P" gradientTransform="matrix(0,342.062,-1330.641,0,729.035,392.377)"><stop stop-color="#efedff"/><stop offset="1" stop-color="#fff"/></linearGradient><linearGradient id="g13" x2="1" href="#P" gradientTransform="matrix(562.225,0,0,45.202,19.852,512.731)"><stop offset=".01" stop-color="#cecae8"/><stop offset=".45" stop-color="#c7d8f0"/><stop offset="1" stop-color="#9ba2d6"/></linearGradient><linearGradient id="g14" x2="1" href="#P" gradientTransform="matrix(1328.166,0,0,217.38,15.023,519.734)"><stop stop-color="#e3daf5"/><stop offset=".99" stop-color="#d4f7ff"/></linearGradient><linearGradient id="g15" x2="1" href="#P" gradientTransform="matrix(427.744,0,0,61.992,903.618,529.033)"><stop stop-color="#e0d6f5"/><stop offset=".99" stop-color="#fffff4"/></linearGradient><linearGradient id="g16" x2="1" href="#P" gradientTransform="matrix(0,-3.532,296.099,0,170.734,516.264)"><stop stop-color="#e7fffc"/><stop offset="1" stop-color="#ebf5ff"/></linearGradient><radialGradient id="g17" cx="0" cy="0" r="1" href="#P" gradientTransform="matrix(12.928,0,0,12.928,484.72,319.654)"><stop stop-color="#fff"/><stop offset=".99"/></radialGradient><radialGradient id="g18" cx="0" cy="0" r="1" href="#P" gradientTransform="matrix(12.928,0,0,12.928,1062.874,354.835)"><stop stop-color="#fff"/><stop offset=".99"/></radialGradient><radialGradient id="g19" cx="0" cy="0" r="1" href="#P" gradientTransform="matrix(12.928,0,0,12.928,1192.302,213.211)"><stop stop-color="#fff"/><stop offset=".99"/></radialGradient><radialGradient id="g20" cx="0" cy="0" r="1" href="#P" gradientTransform="matrix(6.19,0,0,6.19,141.247,392.011)"><stop stop-color="#fff"/><stop offset=".99"/></radialGradient><radialGradient id="g21" cx="0" cy="0" r="1" href="#P" gradientTransform="matrix(30.535,0,0,30.535,950.613,318.737)"><stop stop-color="#fff"/><stop offset=".99"/></radialGradient><radialGradient id="g22" cx="0" cy="0" r="1" href="#P" gradientTransform="matrix(30.535,0,0,30.535,323.22,671.497)"><stop stop-color="#fff"/><stop offset=".99"/></radialGradient><clipPath clipPathUnits="userSpaceOnUse" id="cp3"><path d="m384 339h36v36h-36z"/></clipPath><clipPath clipPathUnits="userSpaceOnUse" id="cp4"><path d="m456 339h36v36h-36z"/></clipPath><clipPath clipPathUnits="userSpaceOnUse" id="cp5"><path d="m438.63 358l20.38 20.63-20.63 20.38-20.38-20.63z"/></clipPath><clipPath clipPathUnits="userSpaceOnUse" id="cp6"><path d="m451.93 417.15l-19.15 7.78-7.78-19.15 19.15-7.78z"/></clipPath><clipPath clipPathUnits="userSpaceOnUse" id="cp7"><path d="m833 1481c-24.33 0-44-19.67-44-44 0-24.33 19.67-44 44-44 24.33 0 44 19.67 44 44 0 24.33-19.67 44-44 44z"/></clipPath><clipPath clipPathUnits="userSpaceOnUse" id="cp8"><path d="m721 1339c-24.33 0-44-19.67-44-44 0-24.33 19.67-44 44-44 24.33 0 44 19.67 44 44 0 24.33-19.67 44-44 44z"/></clipPath><clipPath clipPathUnits="userSpaceOnUse" id="cp9"><path d="m833 1339c-24.33 0-44-19.67-44-44 0-24.33 19.67-44 44-44 24.33 0 44 19.67 44 44 0 24.33-19.67 44-44 44z"/></clipPath><clipPath clipPathUnits="userSpaceOnUse" id="cp10"><path d="m834 1192c-24.33 0-44-19.67-44-44 0-24.33 19.67-44 44-44 24.33 0 44 19.67 44 44 0 24.33-19.67 44-44 44z"/></clipPath><clipPath clipPathUnits="userSpaceOnUse" id="cp11"><path d="m722 1193c-24.33 0-44-19.67-44-44 0-24.33 19.67-44 44-44 24.33 0 44 19.67 44 44 0 24.33-19.67 44-44 44z"/></clipPath><clipPath clipPathUnits="userSpaceOnUse" id="cp12"><path d="m610 1195c-24.33 0-44-19.67-44-44 0-24.33 19.67-44 44-44 24.33 0 44 19.67 44 44 0 24.33-19.67 44-44 44z"/></clipPath></defs><style>.a{fill:#fff}.b{fill:url(#g1)}.c{opacity:.1;fill:url(#g2)}.d{opacity:.1;fill:url(#g3)}.e{fill:url(#g4)}.f{fill:url(#g5)}.g{fill:url(#g6)}.h{fill:url(#g7)}.i{fill:url(#g8)}.j{fill:url(#g9)}.k{fill:url(#g10)}.l{fill:#305b8d}.m{fill:url(#g11)}.n{opacity:.4;mix-blend-mode:screen;fill:#fffbff}.o{fill:#f3f6f8}.p{opacity:.8;mix-blend-mode:multiply;fill:#ebfbff}.q{fill:url(#g12)}.r{mix-blend-mode:soft-light;fill:#fff}.s{opacity:.5;mix-blend-mode:multiply;fill:#acd3f7}.t{fill:#36231a}.u{fill:#4f486e}.v{fill:url(#g13)}.w{fill:url(#g14)}.x{fill:url(#g15)}.y{opacity:.4;fill:#bddef2}.z{opacity:.2;mix-blend-mode:multiply;fill:#95b9e8}.A{opacity:.5;mix-blend-mode:multiply;fill:#d4eaff}.B{fill:url(#g16)}.C{opacity:.8;mix-blend-mode:multiply;fill:#7ba5c9}.D{opacity:.5;mix-blend-mode:multiply;fill:#a1becc}.E{fill:#c9bfff}.F{opacity:.5;mix-blend-mode:screen;fill:url(#g17)}.G{opacity:.5;mix-blend-mode:screen;fill:url(#g18)}.H{opacity:.5;mix-blend-mode:screen;fill:url(#g19)}.I{opacity:.5;mix-blend-mode:screen;fill:url(#g20)}.J{opacity:.2;mix-blend-mode:screen;fill:url(#g21)}.K{opacity:.2;mix-blend-mode:screen;fill:url(#g22)}.L{fill:#85c3fb}.M{fill:#e6f3fe}.N{fill:#a8d5fc}.O{fill:#c1e1fd}.P{fill:#6fb8fa}.Q{fill:#4fa8f9}.R{fill:#2c90ec}.S{fill:#9d5528}.T{fill:#c66b32}.U{fill:#d48554}.V{fill:#d4d4d4}.W{fill:#b6b6b6}.X{fill:#e3e3e3}.Y{fill:#e91616}.Z{fill:none;stroke:#000;stroke-width:9}.a0{fill:#ec770f}.a1{fill:#a4a4a4}.a2{fill:#939393}.a3{fill:#858585}.a4{fill:#d1d1d1}.a5{fill:#f2f2f2}.a6{fill:#bebebe}.a7{fill:#f28f38}.a8{fill:#f4a45d}.a9{fill:#d0690d}.aa{fill:#de0000}.ab{fill:#a60000}.ac{fill:#f00}.ad{fill:#770202}.ae{fill:#ac0606}.af{fill:#ca0000}.ag{fill:#c78157}.ah{fill:none;stroke:#ffe600;stroke-width:12}.ai{fill:#ffc136}.aj{fill:#3c2900}.ak{fill:#56d69c}.al{fill:#0e3e28;stroke:#0e3e28}.am{fill:#4774ca}.an{fill:#163571}.ao{fill:#8f3e02}.ap{fill:#583114}.aq{fill:#cc8f35}.ar{fill:#fff;stroke:#142e46;stroke-width:2}.as{fill:#142e46}.at{fill:#d81719}.au{fill:#600809}</style><path fill-rule="evenodd" class="a" d="m214.8 82l14.8 36.3h0.8l14.9-36.3h21.6v64h-17v-37h-0.5l-14.3 36.5h-10.2l-14.3-36.8h-0.5v37.3h-17v-64zm91.3 64.9c-17.5 0-31.1-11.7-31.1-32.9 0-21.4 13.6-32.9 31.1-32.9 17.4 0 31.1 11.5 31.1 32.9 0 21.4-13.7 32.9-31.1 32.9zm0-50.7c-8.6 0-13.3 6.3-13.3 17.8 0 11.5 4.7 17.7 13.3 17.7 8.6 0 13.2-6.2 13.2-17.7 0-11.5-4.6-17.8-13.2-17.8zm70 50.7c-17.5 0-31.1-11.7-31.1-32.9 0-21.4 13.6-32.9 31.1-32.9 17.4 0 31.1 11.5 31.1 32.9 0 21.4-13.7 32.9-31.1 32.9zm0-50.7c-8.6 0-13.2 6.3-13.2 17.8 0 11.5 4.6 17.7 13.2 17.7 8.6 0 13.3-6.2 13.3-17.7 0-11.5-4.7-17.8-13.3-17.8zm94.6 49.8h-14.5l-23.2-33.6h-0.3v33.6h-17.4v-64h14.7l22.8 33.5h0.5v-33.5h17.4zm5.6-64h19.3l8.8 39.4h0.5l10.4-39.4h15.2l10.4 39.5h0.5l8.7-39.5h19.4l-18.9 64h-16.6l-10.9-35.8h-0.5l-10.8 35.8h-16.7zm98.9 0h17.4v25h23v-25h17.4v64h-17.4v-25h-23v25h-17.4zm63.9 64l21.1-64h23.8l21.1 64h-18.8l-3.7-12.3-21.1 0.1-3.7 12.2zm39.7-25.3l-6.4-21.1h-0.5l-6.4 21.2zm32.5-38.8h17.4v50h25.9v14h-43.3zm50.3 0h46.1v14h-28.7v11h26.4v14h-26.4v11h28.6v14h-46z"/><g clip-path="url(#cp1)"><path class="b" d="m0 50c0-27.6 22.4-50 50-50h900c27.6 0 50 22.4 50 50v1500c0 27.6-22.4 50-50 50h-900c-27.6 0-50-22.4-50-50z"/><path class="c" d="m525.5-322l-675.5 1013 78 54 673.5-1021z"/><path class="d" d="m367.5-209l-675.5 1013 48 33.5 673.5-1021z"/><path class="e" d="m104 1148c0-32 26-58 58-58h676c32 0 58 26 58 58 0 32-26 58-58 58h-676c-32 0-58-26-58-58z"/><path class="f" d="m104 1293c0-32 26-58 58-58h676c32 0 58 26 58 58 0 32-26 58-58 58h-676c-32 0-58-26-58-58z"/><path class="g" d="m104 1438c0-32 26-58 58-58h676c32 0 58 26 58 58 0 32-26 58-58 58h-676c-32 0-58-26-58-58z"/><path fill-rule="evenodd" class="a" d="m164.7 1164.6q-3.2 0-5.8-1.1-2.6-1.2-4.2-3.3-1.7-2.1-2.1-5l5.7-0.8q0.6 2.4 2.5 3.8 1.8 1.3 4.2 1.3 1.4 0 2.6-0.4 1.3-0.4 2.1-1.2 0.8-0.9 0.8-2.1 0-0.4-0.1-0.8-0.1-0.4-0.4-0.8-0.3-0.3-0.9-0.7-0.5-0.3-1.4-0.5l-7.5-2.2q-0.8-0.3-1.9-0.7-1.1-0.5-2.2-1.3-1-0.8-1.7-2.1-0.7-1.4-0.7-3.5 0-2.9 1.5-4.8 1.4-1.9 3.9-2.8 2.4-1 5.4-1 3 0.1 5.3 1.1 2.3 0.9 3.9 2.8 1.6 1.9 2.3 4.6l-5.9 1q-0.3-1.4-1.2-2.4-0.8-0.9-2-1.4-1.2-0.5-2.5-0.6-1.3 0-2.4 0.4-1.1 0.4-1.9 1.1-0.7 0.7-0.7 1.8 0 0.9 0.6 1.5 0.6 0.6 1.5 0.9 0.9 0.4 1.8 0.6l5 1.4q1.1 0.3 2.5 0.8 1.3 0.5 2.6 1.4 1.2 0.8 2 2.2 0.8 1.5 0.8 3.6 0 2.4-0.9 4.1-1 1.7-2.6 2.9-1.7 1.1-3.8 1.6-2 0.6-4.2 0.6zm28.9-0.6q-2.2 0.4-4.4 0.4-2.1-0.1-3.8-0.8-1.7-0.7-2.6-2.3-0.8-1.5-0.8-3-0.1-1.5-0.1-3.5v-8.2h-3.7v-4.2h3.7v-6h5.5v6h6.2v4.2h-6.2v10.2q0 1 0.4 1.6 0.7 1.1 2.3 1.2 1.6 0.1 3.5-0.1zm4.8 0v-21.6h4.8v3.5l0.6-1q0.7-0.9 1.7-1.5 0.8-0.5 1.7-0.7 0.9-0.3 1.9-0.4 1 0 2 0.1v5.1q-0.9-0.3-2.1-0.2-1.2 0.1-2.2 0.5-0.9 0.5-1.6 1.2-0.6 0.7-1 1.7-0.3 1-0.3 2.2v11.1zm4.8-18.1q-0.3 0.5-0.5 1.1l0.5 0.7zm21.3 18.7q-3.3 0-5.8-1.4-2.6-1.5-4-4-1.4-2.5-1.4-5.7 0-3.6 1.4-6.2 1.4-2.6 3.8-4.1 2.5-1.4 5.7-1.4 3.4 0 5.8 1.6 2.4 1.6 3.5 4.5 1.1 2.9 0.8 6.8h-2.6v-4h-2.9q-0.2-1.8-0.9-2.7-1.1-1.5-3.5-1.5-2.7 0-4.1 1.7-0.7 1-1 2.5h-1.9v4h1.7q0.3 1.9 1.2 3.2 1.4 1.6 3.9 1.6 1.6 0 2.7-0.7 1.2-0.7 1.8-2l5.4 1.5q-1.2 3-3.8 4.6-2.7 1.7-5.8 1.7zm4.4-9.9h-9.8q-0.1-0.7-0.1-1.5 0-1.4 0.3-2.5h9.5q0.1 0.9 0.1 2zm24.1 9.3v-10.2q0-0.8-0.1-1.9-0.1-1.2-0.5-2.3-0.4-1.2-1.4-2-0.9-0.7-2.7-0.7-0.7 0-1.5 0.2-0.8 0.2-1.5 0.8-0.7 0.7-1.1 1.9-0.5 1.2-0.5 3.2v11h-5.5v-21.6h4.8v2.2q0.8-0.8 1.8-1.5 2.1-1.4 5.2-1.4 2.6 0 4.2 0.9 1.6 0.9 2.5 2.2 0.9 1.3 1.2 2.7 0.4 1.5 0.5 2.6 0.1 1.2 0.1 1.8v12.1zm19.9 10.2q-1.8 0-3.5-0.6-1.6-0.6-3-1.7-1.3-1-2.1-2.4l5.1-2.4q0.5 0.9 1.4 1.4 1 0.5 2.2 0.5 1.2 0 2.3-0.4 1-0.4 1.7-1.2 0.6-0.8 0.6-2v-2.2q-2.1 1.4-5.2 1.4-2.9 0-5.2-1.5-2.2-1.5-3.5-4.1-1.2-2.6-1.2-5.8 0-3.3 1.2-5.9 1.3-2.6 3.6-4 2.3-1.5 5.4-1.5 3.1 0 5.2 1.5 0.2 0.1 0.4 0.3v-1.2h4.7v24.6q-0.1 0.7-0.3 1.4-0.5 2-1.9 3.2-1.4 1.3-3.5 1.9-2 0.7-4.4 0.7zm0.4-14.5q1.8 0 2.9-0.8 1.1-0.8 1.6-2.3 0.5-1.5 0.5-3.4 0-2-0.5-3.5-0.5-1.4-1.5-2.3-1.1-0.8-2.8-0.8-1.8 0-3 0.9-1.1 0.9-1.7 2.4-0.6 1.5-0.6 3.3 0 1.8 0.6 3.3 0.5 1.5 1.6 2.4 1.2 0.8 2.9 0.8zm28.3 4.3q-2.2 0.4-4.4 0.3-2.1 0-3.8-0.7-1.7-0.7-2.6-2.3-0.8-1.5-0.8-3-0.1-1.5-0.1-3.5v-8.2h-3.7v-4.2h3.7v-6h5.5v6h6.2v4.2h-6.2v10.2q0 1 0.4 1.6 0.7 1.1 2.3 1.2 1.6 0.1 3.5-0.1zm19.5 0v-12.1q-0.1-1.2-0.5-2.3-0.5-1.2-1.4-2-1-0.8-2.7-0.8-0.7 0-1.5 0.3-0.8 0.2-1.5 0.8-0.7 0.6-1.2 1.9-0.4 1.2-0.4 3.2v11h-5.5v-28.8h4.8v9.4q0.8-0.8 1.7-1.5 2.1-1.4 5.3-1.4 2.6 0 4.2 0.9 1.6 0.8 2.4 2.2 0.9 1.3 1.3 2.7 0.4 1.4 0.5 2.6 0.1 1.2 0.1 1.7v12.2zm19.1 0.6q-4.1 0-6.6-1.9-2.5-1.8-3-5.2l5.5-0.9q0.4 1.6 1.5 2.4 1.2 0.9 3 0.9 1.5 0 2.3-0.6 0.8-0.6 0.8-1.6 0-0.6-0.3-1-0.4-0.4-1.5-0.8-1.1-0.4-3.4-1-2.7-0.7-4.2-1.5-1.6-0.8-2.3-2-0.7-1.2-0.7-2.8 0-2.1 1-3.6 1.1-1.6 3-2.4 2-0.8 4.6-0.8 2.5 0 4.5 0.7 1.9 0.8 3.1 2.3 1.3 1.4 1.5 3.4l-5.5 1q-0.2-1.2-1.1-1.9-0.9-0.7-2.4-0.9-1.5-0.1-2.4 0.4-0.9 0.5-0.9 1.5 0 0.5 0.4 0.9 0.4 0.4 1.6 0.8 1.2 0.4 3.7 1 2.5 0.7 4 1.5 1.5 0.9 2.2 2.1 0.6 1.2 0.6 2.8 0 3.4-2.4 5.3-2.4 1.9-6.6 1.9zm-186.4 144.4v-28.8h13.3q0.7 0.1 1.3 0.2 2.5 0.4 4.2 1.7 1.6 1.3 2.4 3.2 0.8 2 0.8 4.4 0 3.6-1.8 6.2-1.1 1.6-3 2.4l5.2 10.7h-6.2l-4.7-9.8h-6.1v9.8zm5.5-14.8h6.5q0.4 0 0.9-0.1 0.5 0 0.9-0.1 1.1-0.3 1.7-1 0.6-0.8 0.8-1.6 0.3-0.9 0.3-1.7 0-0.8-0.3-1.6-0.2-0.9-0.8-1.6-0.6-0.7-1.7-1-0.4-0.1-0.9-0.2h-7.4zm31.4 15.4q-3.3 0-5.9-1.4-2.5-1.4-3.9-3.9-1.5-2.6-1.5-5.8 0-3.5 1.4-6.2 1.4-2.6 3.9-4 2.5-1.5 5.7-1.5 3.4 0 5.7 1.6 2.4 1.6 3.6 4.5 1.1 2.9 0.8 6.8h-2.7v-4h-2.8q-0.3-1.8-1-2.7-1-1.5-3.4-1.5-2.8 0-4.1 1.7-0.7 1-1.1 2.5h-1.9v4h1.8q0.2 2 1.2 3.2 1.3 1.6 3.9 1.6 1.6 0 2.7-0.7 1.1-0.7 1.7-2l5.5 1.6q-1.2 2.9-3.9 4.6-2.6 1.6-5.7 1.6zm4.4-9.9h-9.8q-0.1-0.7-0.1-1.5 0-1.4 0.2-2.5h9.6q0.1 0.9 0.1 2zm18.3 9.9q-4.1 0-6.6-1.8-2.5-1.9-3-5.3l5.5-0.8q0.4 1.5 1.5 2.4 1.2 0.8 3 0.8 1.5 0 2.3-0.5 0.8-0.6 0.8-1.6 0-0.7-0.3-1-0.3-0.4-1.5-0.8-1.1-0.4-3.4-1-2.6-0.7-4.2-1.5-1.6-0.9-2.3-2-0.7-1.2-0.7-2.9 0-2.1 1.1-3.6 1-1.5 2.9-2.3 2-0.9 4.6-0.9 2.5 0 4.5 0.8 2 0.8 3.2 2.2 1.2 1.5 1.5 3.4l-5.6 1q-0.1-1.2-1-1.9-0.9-0.7-2.5-0.8-1.5-0.1-2.4 0.4-0.9 0.5-0.9 1.4 0 0.6 0.4 1 0.4 0.4 1.6 0.8 1.2 0.4 3.8 1 2.4 0.6 3.9 1.5 1.5 0.8 2.2 2 0.7 1.2 0.7 2.9 0 3.3-2.4 5.2-2.4 1.9-6.7 1.9zm13.8-25.2v-4.8h5.5v4.8zm0 24.6v-21.6h5.4v21.6zm19.9 0.6q-4.1 0-6.6-1.8-2.5-1.9-3-5.3l5.5-0.8q0.4 1.5 1.5 2.4 1.2 0.8 3 0.8 1.5 0 2.3-0.5 0.8-0.6 0.8-1.6 0-0.7-0.3-1-0.4-0.4-1.5-0.8-1.1-0.4-3.4-1-2.7-0.7-4.2-1.5-1.6-0.9-2.3-2-0.7-1.2-0.7-2.9 0-2.1 1-3.6 1.1-1.5 3-2.3 2-0.9 4.6-0.9 2.5 0 4.5 0.8 1.9 0.8 3.1 2.2 1.3 1.5 1.5 3.4l-5.5 1q-0.2-1.2-1.1-1.9-0.9-0.7-2.4-0.8-1.5-0.1-2.4 0.4-0.9 0.5-0.9 1.4 0 0.6 0.4 1 0.4 0.4 1.6 0.8 1.2 0.4 3.7 1 2.5 0.6 4 1.5 1.5 0.8 2.2 2 0.6 1.2 0.6 2.9 0 3.3-2.4 5.2-2.4 1.9-6.6 1.9zm26.4-0.6q-2.2 0.4-4.4 0.4-2.1-0.1-3.8-0.8-1.7-0.7-2.6-2.3-0.8-1.4-0.8-3-0.1-1.5-0.1-3.4v-8.3h-3.7v-4.2h3.7v-6h5.5v6h6.2v4.2h-6.2v10.2q0 1 0.4 1.6 0.7 1.2 2.3 1.3 1.6 0.1 3.5-0.2zm10.8 0.6q-2.3 0-3.9-0.9-1.6-0.9-2.5-2.4-0.8-1.5-0.8-3.3 0-1.5 0.5-2.7 0.4-1.2 1.5-2.2 1-0.9 2.7-1.6 1.2-0.4 2.9-0.8 1.7-0.3 3.8-0.6 1.2-0.2 2.6-0.4-0.2-1.3-0.9-2-0.9-0.9-3.1-0.9-1.2 0-2.5 0.5-1.3 0.6-1.8 2.1l-4.9-1.6q0.8-2.6 3.1-4.3 2.2-1.7 6.1-1.7 2.9 0 5.1 0.9 2.2 0.9 3.4 3 0.6 1.2 0.7 2.4 0.1 1.2 0.1 2.7v13.2h-4.7v-2.7q-1.3 1.6-2.8 2.3-1.8 1-4.6 1zm6.8-14.9v0.8l2-1.1q-1.1 0.2-2 0.3zm0.6 11.6q0.3-0.4 0.7-0.8l-0.7-0.9zm-6.2-1.1q1.5 0 2.5-0.5 1-0.5 1.6-1.2 0.7-0.7 0.9-1.1 0.4-0.9 0.5-2.1v-1.3q-1.3 0.3-2.3 0.4-1.5 0.3-2.4 0.5-0.9 0.2-1.6 0.5-0.8 0.3-1.3 0.7-0.5 0.4-0.7 0.8-0.3 0.4-0.3 1 0 0.7 0.4 1.3 0.4 0.5 1.1 0.8 0.6 0.2 1.6 0.2zm5.5-6.2l1.6-0.2-1.6-0.4zm25.4 9.9v-10.2q0-0.7-0.1-1.9-0.1-1.1-0.5-2.3-0.4-1.1-1.4-1.9-0.9-0.8-2.7-0.8-0.7 0-1.5 0.2-0.8 0.2-1.5 0.9-0.7 0.6-1.1 1.8-0.5 1.2-0.5 3.3v10.9h-5.5v-21.6h4.8v2.2q0.8-0.8 1.8-1.4 2.1-1.4 5.2-1.4 2.6 0 4.2 0.8 1.6 0.9 2.5 2.2 0.9 1.3 1.2 2.8 0.4 1.4 0.5 2.6 0.1 1.2 0.1 1.7v12.1zm19.8 0.6q-3.3 0-5.7-1.5-2.4-1.5-3.7-4.1-1.3-2.5-1.3-5.8 0-3.3 1.3-5.8 1.4-2.6 3.8-4.1 2.4-1.5 5.7-1.5 3.8 0 6.4 2 2.6 1.9 3.3 5.2l-5.4 1.5q-0.5-1.7-1.7-2.7-1.2-0.9-2.7-0.9-1.7 0-2.8 0.8-1.1 0.9-1.6 2.3-0.5 1.4-0.5 3.2 0 2.8 1.2 4.6 1.3 1.7 3.7 1.7 1.9 0 2.8-0.8 1-0.8 1.5-2.4l5.5 1.2q-0.9 3.4-3.5 5.3-2.5 1.8-6.3 1.8zm23.3 0q-3.4 0-5.9-1.4-2.5-1.4-4-3.9-1.4-2.6-1.4-5.8 0-3.5 1.4-6.2 1.4-2.6 3.9-4 2.4-1.5 5.6-1.5 3.4 0 5.8 1.6 2.4 1.6 3.5 4.5 1.2 2.9 0.8 6.8h-2.6v-4h-2.9q-0.2-1.8-0.9-2.7-1-1.5-3.4-1.5-2.8 0-4.1 1.7-0.8 1-1.1 2.5h-1.9v4h1.8q0.2 2 1.2 3.2 1.3 1.6 3.8 1.6 1.6 0 2.8-0.7 1.1-0.7 1.7-2l5.5 1.6q-1.3 2.9-3.9 4.6-2.6 1.6-5.7 1.6zm4.4-9.9h-9.8q-0.1-0.7-0.1-1.5 0-1.4 0.2-2.5h9.5q0.2 0.9 0.2 2zm18.3 9.9q-4.1 0-6.6-1.8-2.5-1.9-3-5.3l5.5-0.8q0.4 1.5 1.5 2.4 1.2 0.8 3 0.8 1.5 0 2.3-0.5 0.8-0.6 0.8-1.6 0-0.7-0.3-1-0.4-0.5-1.5-0.8-1.1-0.4-3.4-1-2.7-0.7-4.2-1.5-1.6-0.9-2.3-2-0.7-1.2-0.7-2.9 0-2.1 1-3.6 1.1-1.5 3-2.3 2-0.9 4.6-0.9 2.5 0 4.5 0.8 1.9 0.8 3.1 2.2 1.3 1.4 1.5 3.4l-5.5 1q-0.2-1.2-1.1-1.9-0.9-0.7-2.4-0.8-1.5-0.1-2.4 0.4-0.9 0.5-0.9 1.4 0 0.6 0.4 1 0.4 0.3 1.6 0.8 1.2 0.4 3.7 1 2.5 0.6 4 1.5 1.5 0.8 2.2 2 0.6 1.2 0.6 2.9 0 3.3-2.4 5.2-2.4 1.9-6.6 1.9zm-222.4 144.5l-8.4-28.8h5.7l5.4 19.8 5.4-19.8h5.7l5.4 19.8 5.4-19.8h5.8l-8.5 28.8h-5.3l-5.6-19.4-5.6 19.4zm41.2 0.6q-3.3 0-5.9-1.4-2.5-1.5-3.9-4-1.5-2.5-1.5-5.7 0-3.6 1.4-6.2 1.4-2.6 3.9-4 2.5-1.5 5.7-1.5 3.4 0 5.7 1.6 2.4 1.6 3.6 4.5 1.1 2.9 0.8 6.8h-2.7v-4h-2.8q-0.3-1.8-1-2.7-1-1.5-3.4-1.5-2.8 0-4.1 1.7-0.7 1-1.1 2.5h-1.9v4h1.8q0.3 2 1.2 3.2 1.3 1.6 3.9 1.6 1.6 0 2.7-0.7 1.1-0.7 1.7-2l5.5 1.6q-1.2 2.9-3.9 4.6-2.6 1.6-5.7 1.6zm4.4-9.9h-9.8q-0.1-0.7-0.1-1.5 0-1.4 0.2-2.5h9.6q0.1 0.9 0.1 2zm15.5 9.9q-2.3 0-3.9-0.9-1.6-0.9-2.5-2.4-0.8-1.5-0.8-3.3 0-1.5 0.5-2.7 0.4-1.2 1.4-2.2 1.1-0.9 2.8-1.6 1.2-0.4 2.9-0.8 1.6-0.3 3.7-0.6 1.3-0.2 2.7-0.4-0.2-1.3-0.9-2-0.9-0.9-3.1-0.9-1.2 0-2.5 0.5-1.3 0.6-1.8 2.1l-4.9-1.6q0.8-2.6 3-4.3 2.3-1.7 6.2-1.7 2.9 0 5.1 0.9 2.2 0.9 3.3 3 0.7 1.2 0.8 2.4 0.1 1.2 0.1 2.7v13.2h-4.7v-2.7q-1.3 1.6-2.8 2.3-1.8 1-4.6 1zm6.8-14.9v0.8l2-1.1q-1.1 0.2-2 0.3zm0.6 11.6l0.6-0.8-0.6-0.9zm-6.2-1.1q1.5 0 2.5-0.5 1-0.5 1.6-1.2 0.6-0.7 0.9-1.1 0.4-0.9 0.4-2.1 0.1-0.7 0.1-1.3-1.3 0.3-2.3 0.4-1.5 0.3-2.4 0.5-0.9 0.2-1.6 0.5-0.8 0.3-1.3 0.7-0.5 0.4-0.8 0.8-0.2 0.4-0.2 1 0 0.7 0.4 1.3 0.4 0.5 1 0.8 0.7 0.2 1.7 0.2zm5.5-6.2q0.7-0.1 1.6-0.2l-1.6-0.4zm10.6 9.9v-28.8h5.5v17.6l7.4-10.4h6.7l-7.8 10.8 8.3 10.8h-7.1l-7.5-10.4v10.4zm36.9 0v-10.2q0-0.7-0.1-1.9-0.1-1.1-0.5-2.3-0.4-1.1-1.4-1.9-0.9-0.8-2.7-0.8-0.7 0-1.5 0.2-0.8 0.2-1.5 0.9-0.7 0.6-1.1 1.8-0.5 1.2-0.5 3.3v10.9h-5.5v-21.6h4.8v2.2q0.8-0.8 1.8-1.4 2.1-1.4 5.2-1.4 2.6 0 4.2 0.8 1.6 0.9 2.5 2.2 0.9 1.3 1.2 2.8 0.4 1.4 0.5 2.6 0.1 1.2 0.1 1.7v12.1zm20.3 0.6q-3.3 0-5.8-1.4-2.5-1.4-4-3.9-1.4-2.6-1.4-5.8 0-3.5 1.4-6.2 1.4-2.6 3.9-4 2.4-1.5 5.6-1.5 3.4 0 5.8 1.6 2.4 1.6 3.5 4.5 1.2 2.9 0.8 6.8h-2.6v-4h-2.9q-0.2-1.8-0.9-2.7-1.1-1.5-3.4-1.5-2.8 0-4.1 1.7-0.8 1-1.1 2.5h-1.9v4h1.8q0.2 2 1.2 3.2 1.3 1.6 3.8 1.6 1.6 0 2.8-0.7 1.1-0.7 1.7-2l5.4 1.6q-1.2 2.9-3.8 4.6-2.6 1.6-5.8 1.6zm4.4-9.9h-9.7q-0.1-0.7-0.1-1.5 0-1.4 0.2-2.5h9.5q0.1 0.9 0.1 2zm18.4 9.9q-4.1 0-6.6-1.8-2.5-1.9-3.1-5.3l5.6-0.8q0.3 1.5 1.5 2.4 1.2 0.8 3 0.8 1.5 0 2.3-0.5 0.8-0.6 0.8-1.6 0-0.7-0.4-1-0.3-0.5-1.4-0.8-1.1-0.4-3.4-1-2.7-0.7-4.3-1.5-1.5-0.9-2.2-2-0.7-1.2-0.7-2.9 0-2.1 1-3.6 1.1-1.5 3-2.3 1.9-0.9 4.6-0.9 2.5 0 4.5 0.8 1.9 0.8 3.1 2.2 1.2 1.5 1.5 3.4l-5.5 1q-0.2-1.2-1.1-1.9-0.9-0.7-2.4-0.8-1.5-0.1-2.4 0.4-0.9 0.5-0.9 1.4 0 0.6 0.3 1 0.4 0.3 1.7 0.8 1.2 0.4 3.7 1 2.5 0.6 4 1.5 1.5 0.8 2.1 2 0.7 1.2 0.7 2.9 0 3.3-2.4 5.2-2.4 1.9-6.6 1.9zm21.9 0q-4.1 0-6.6-1.8-2.5-1.9-3.1-5.3l5.6-0.8q0.3 1.5 1.5 2.4 1.2 0.8 3 0.8 1.4 0 2.2-0.5 0.8-0.6 0.8-1.6 0-0.7-0.3-1-0.3-0.5-1.4-0.8-1.1-0.4-3.5-1-2.6-0.7-4.2-1.5-1.6-0.9-2.3-2-0.7-1.2-0.7-2.9 0-2.1 1.1-3.6 1.1-1.5 3-2.3 1.9-0.9 4.5-0.9 2.6 0 4.5 0.8 2 0.8 3.2 2.2 1.2 1.5 1.5 3.4l-5.6 1q-0.1-1.2-1-1.9-0.9-0.7-2.4-0.8-1.5-0.1-2.5 0.4-0.9 0.5-0.9 1.4 0 0.6 0.4 1 0.4 0.3 1.6 0.8 1.3 0.4 3.8 1 2.5 0.6 3.9 1.5 1.5 0.8 2.2 2 0.7 1.2 0.7 2.9 0 3.3-2.4 5.2-2.4 1.9-6.6 1.9zm23.4 0q-3.3 0-5.8-1.4-2.6-1.4-4-3.9-1.4-2.6-1.4-5.8 0-3.5 1.4-6.2 1.4-2.6 3.8-4 2.5-1.5 5.7-1.5 3.4 0 5.8 1.6 2.4 1.6 3.5 4.5 1.1 2.9 0.8 6.8h-2.6v-4h-2.9q-0.2-1.8-0.9-2.7-1.1-1.5-3.5-1.5-2.7 0-4.1 1.7-0.7 1-1 2.5h-1.9v4h1.7q0.3 2 1.2 3.2 1.4 1.6 3.9 1.6 1.6 0 2.7-0.7 1.2-0.7 1.8-2l5.4 1.6q-1.2 2.9-3.8 4.6-2.7 1.6-5.8 1.6zm4.4-9.9h-9.8q-0.1-0.7-0.1-1.5 0-1.4 0.3-2.5h9.5q0.1 0.9 0.1 2zm18.4 9.9q-4.1 0-6.6-1.8-2.5-1.9-3.1-5.3l5.6-0.8q0.3 1.5 1.5 2.4 1.2 0.8 3 0.8 1.4 0 2.2-0.5 0.8-0.6 0.8-1.6 0-0.7-0.3-1-0.3-0.5-1.4-0.8-1.1-0.4-3.5-1-2.6-0.7-4.2-1.5-1.6-0.9-2.3-2-0.7-1.2-0.7-2.9 0-2.1 1.1-3.6 1.1-1.5 3-2.3 1.9-0.9 4.5-0.9 2.6 0 4.5 0.8 2 0.8 3.2 2.2 1.2 1.5 1.5 3.4l-5.6 1q-0.1-1.2-1-1.9-0.9-0.7-2.4-0.8-1.5-0.1-2.5 0.4-0.9 0.5-0.9 1.4 0 0.6 0.4 1 0.4 0.3 1.6 0.8 1.3 0.4 3.8 1 2.5 0.6 3.9 1.5 1.5 0.8 2.2 2 0.7 1.2 0.7 2.9 0 3.3-2.4 5.2-2.4 1.9-6.6 1.9z"/><path class="h" d="m362.2 977.5c1.2 3.4 4.4 5.7 8 5.8l7.9 0.1h1.5q1 0.1 2 0.4c3.7 1.5 4.8 6.7 1.2 9.4l-12.4 9.1c0 0 2.3 7.3 4.6 14.7 1.6 4.9-4.1 9-8.4 6l-7.6-5.4c-3-2-7-2-9.9 0l-7.7 5.4h0.1-0.1q-0.9 0.5-1.9 0.9c-3.8 0.9-7.8-2.7-6.5-7l4.6-14.6 0.1 0.1-0.1-0.1-12.4-9.1c-4.2-3.1-2-9.7 3.2-9.8l9.4-0.1c3.6-0.1 6.8-2.4 8-5.8l3-8.8c1.7-4.9 8.7-4.9 10.4 0z"/><path class="i" d="m435.2 977.5c1.2 3.4 4.4 5.7 8 5.8l7.9 0.1h1.5q1 0.1 2 0.4c3.7 1.5 4.8 6.7 1.2 9.4l-12.4 9.1c0 0 2.3 7.3 4.6 14.7 1.6 4.9-4.1 9-8.4 6l-7.6-5.4c-3-2-7-2-9.9 0l-7.6 5.4h-0.1q-0.9 0.5-1.8 0.9c-3.9 0.9-7.9-2.7-6.6-7l4.6-14.6 0.1 0.1-0.1-0.1-12.4-9.1c-4.2-3.1-2-9.7 3.2-9.8l9.4-0.1c3.6-0.1 6.8-2.4 8-5.8l3-8.8c1.7-4.9 8.7-4.9 10.4 0z"/><path class="j" d="m508.2 977.5c1.2 3.4 4.4 5.7 8.1 5.8l7.8 0.1h1.5q1 0.1 2 0.4c3.7 1.5 4.8 6.7 1.2 9.4l-12.4 9.1c0 0 2.3 7.3 4.6 14.7 1.6 4.9-4.1 9-8.4 6l-7.6-5.4c-3-2-7-2-9.9 0l-7.6 5.4h-0.1q-0.9 0.5-1.8 0.9c-3.9 0.9-7.9-2.7-6.6-7l4.6-14.6 0.1 0.1v-0.1l-12.5-9.1c-4.2-3.1-2-9.7 3.3-9.8l9.3-0.1c3.6-0.1 6.9-2.4 8-5.8l3-8.8c1.7-4.9 8.8-4.9 10.4 0z"/><path class="k" d="m581.2 977.5c1.2 3.4 4.4 5.7 8.1 5.8l7.8 0.1h1.5q1 0.1 2 0.4c3.7 1.5 4.8 6.7 1.2 9.4l-12.3 9.1c0 0 2.2 7.3 4.5 14.7 1.6 4.9-4.1 9-8.4 6l-7.6-5.4c-2.9-2-6.9-2-9.9 0l-7.6 5.4q-1 0.5-1.9 0.9c-3.9 0.9-7.9-2.7-6.6-7l4.6-14.6 0.1 0.1v-0.1l-12.5-9.1c-4.2-3.1-2-9.7 3.3-9.8l9.3-0.1c3.6-0.1 6.9-2.4 8-5.8l3-8.8c1.7-4.9 8.8-4.9 10.4 0z"/><path class="l" d="m654.2 977.5c1.2 3.4 4.4 5.7 8.1 5.8l7.8 0.1h1.5q1.1 0.1 2 0.4c3.8 1.5 4.8 6.7 1.2 9.4l-12.3 9.1c0 0 2.2 7.3 4.6 14.7 1.5 4.9-4.2 9-8.5 6l-7.6-5.4c-2.9-2-6.9-2-9.9 0l-7.6 5.4q-0.9 0.5-1.9 0.9c-3.9 0.9-7.9-2.7-6.5-7l4.5-14.6 0.1 0.1v-0.1l-12.4-9.1c-4.3-3.1-2.1-9.7 3.2-9.8l9.3-0.1c3.6-0.1 6.9-2.4 8-5.8l3-8.8c1.7-4.9 8.8-4.9 10.4 0z"/><g clip-path="url(#cp2)"><path class="m" d="m19.9 198.5h1323.3v533.3h-1323.3z"/><path class="n" d="m-26 439.3c0 0 880.2-64.6 1179.7-56.5l-79.3 9.6h268.8v61.6l-1007.9 3.9z"/><path class="o" d="m1343.2 557.9c0 0-118.1-121.7-354.8-121.9-263.3-0.2-987.9 160.8-987.9 160.8l-4 144.3 1346.7-5.3z"/><path class="p" d="m692.5 500.5c0 0 93-39.4 146.5-54.5 0 0 162.1-19.5 268.2 0 0 0-72.2 21.3-126.4 72.9z"/><path class="p" d="m995.4 535.1c0 0 69.4-65.8 131.9-83.9 0 0 66.7 15.8 104.2 34.7 0 0-42.3 26.7-75.5 63.2z"/><path class="q" d="m19.9 731.8v-339.4c0 0 336.5 16.5 1327.7 277.2l2.7 64.8z"/><path class="r" d="m19.9 392.4c0 0 41.2 41.2 59.3 70.8l278.8 10.5c0 0-21.6-25.1-46.2-38 0 0-120-22.7-159.1-28.2-33.1-4.6-132.8-15.1-132.8-15.1z"/><path class="r" d="m362.7 446c0 0 78 27.7 117.6 72.1l148.9 1.9c0 0-48-26.5-105.2-39z"/><path class="r" d="m629.2 520c0 0-22.2-15.9-84-34.1l19.7 4.6c0 0 102.4 18 132.8 31.8z"/><path class="r" d="m321.7 437.7c0 0 55 23 90.5 77.9l60.5 1.4c0 0-53.9-50.7-117.8-72.6z"/><path class="r" d="m79.2 463.2l131.5 7.1h3.9l143.4 3.4z"/><path class="s" d="m266.9 436c0 0 50.6 21 115 27.2 64.4 6.1 73.9 5.2 73.9 5.2 0 0-107.7-32.1-188.9-32.4z"/><path class="t" d="m294.8 289.5l19.6-19.9h25.1l-24.1 3.3-12.3 16.3-1.3 7.6-7.1-1.3-30 4.3-14.7 10.4 15.3-14z"/><path class="u" d="m480.1 299.6l4.3-5.3 13.7 2.7 11.4-4.4 5.7 3.5-5.5-1.4-9.6 3.7-1.2 2-2.1-2.1-11.3-1.8z"/><path class="t" d="m351.4 240l15.8 14.1 3 11.7-3-11.7 12.6-17.1-5.1 17.1-1.6 10.5-2.2 6.1-3-5.8-3.1-9.8z"/><path class="v" d="m19.9 512.7l562.2 6.6-562.2 38.6z"/><path class="w" d="m15 735.8l4.9-177.9c0 0 210.2-44.6 646.5-37.4 436.3 7.3 676.8 55.4 676.8 55.4v161.2z"/><path class="r" d="m614.2 638.5c0 0-240.2-90.2-349-107.2l-94.8 6.1c0 0 93.8 32.4 248.9 122z"/><path class="x" d="m1188.8 591c0 0-161.3-44.2-285.2-62 0 0 200.8 11.4 309.9 27.3 0 0 93.8 16.1 117.9 29.1z"/><path class="r" d="m1188.8 591l26.2-1.1c0 0-168-48.8-282-58.6l-29.4-2.3c0 0 170.5 20.3 285.2 62z"/><path class="r" d="m1262.7 588.1c0 0-77.1-29.2-214.9-49l-29.4-2.6c0 0 125.4 17.5 213.6 52.8z"/><path class="r" d="m1305.3 586.5c0 0-61.8-24.7-181.6-40.7 0 0 110.9 9.1 207.7 39.6z"/><path class="y" d="m581.2 599.3l160.8-23.4 61.8 24.5-177.7 16.1z"/><path class="y" d="m465 563.9l166.6-19.6 49.9 13.2-179.6 16.6z"/><path class="y" d="m386 544.9l183.1-13.6 25.6 4.9-184.6 14.2z"/><path class="y" d="m319.2 531.3l187.1-9 16.9 2-182.6 11.1z"/><path class="z" d="m333.2 577.7l-317.4 74.7v-32.7l284.6-58c0 0 24.7 11.5 32.8 16z"/><path class="z" d="m18.7 576.2l221.2-35.4-13.5-3.2-206.5 24.1z"/><path class="r" d="m19.9 506l530 12.9-530-6.2z"/><path class="r" d="m765.7 525.5l137.9 81.7 233.7-16.2c0 0-193.5-52.1-272.3-59.7z"/><path class="r" d="m658.4 521.3c0 0 130.4 33.4 206.6 89.7l9-0.7c0 0-82-57.5-195.6-88.7z"/><path class="A" d="m853.9 577.7h238.4l45 13.3-233.7 16.2z"/><path class="A" d="m828.8 562.9l161-7.7-37.2-7.9-140 6z"/><path class="A" d="m791.6 540.8l119.2-1.7-23.7-3.8h-104.9z"/><path class="B" d="m19.9 514.7l301.8 1.6-301.8-3.6z"/><path class="C" d="m493.7 521l-21-1.3c0 0 107.9 31.4 266.5 40.3 171.6 9.7 228.1-9.6 228.1-9.6 0 0-44.3-6.9-74.7-11l114.8-3.6c0 0-331.3-23.7-513.7-14.8z"/><path class="D" d="m9 696.4l1.2-13.7 0.6-28.5c0 0 147-11.5 271.2 7.7l-40.4 5.9c0 0 102.9-3.2 163.9 7.2l210.3 4.4 708 55.9-1316.6 5.6 2.1-36.2z"/><path class="a" d="m581.8 336.9q-1.5 1.4-2.6 3.2c-0.3 0.4-0.6 0.8-0.6 1.3 0 1.3 1.4 2 2.7 2.3 1.1 0.3 2.4 0.5 3.5 0 1.2-0.6 1.8-1.9 1.8-3.2 0-1.3-0.7-2.5-1.6-3.3-1-0.9-2.6-1.3-3.4-0.3z"/><path class="a" d="m595.7 410.4c0.8-0.3 1.7-0.8 2-1.7 1.5-4.6-6.1-4.8-8.2-1.9-3.5 4.8 3 4.8 6.2 3.6z"/><path class="a" d="m616 434.5c-0.1 0.8 0.9 1.4 1.7 1.3 0.8-0.1 1.5-0.6 1.8-1.3 0.3-0.6 0.1-1.6-0.5-2-0.6-0.3-1.3-0.2-1.9 0.2-0.5 0.4-0.8 1-0.9 1.6z"/><path class="a" d="m536.3 475.1c-0.5 1.2 0.6 2.6 1.9 2.9 1.8 0.4 3.7-1.3 3.6-3.1 0-1.8-2-3.3-3.8-2.9-1.8 0.5-2.8 2.8-2 4.4z"/><path class="a" d="m337.4 221.7c0.2-1.2 1.3-2.3 2.5-2.5 1.3-0.3 2.7 0.3 3.4 1.3 1.1 1.6 0.3 4.1-1.4 4.7-1.8 0.7-4-0.9-3.9-2.8z"/><path class="a" d="m470.5 244.4c-1.3 1.2-1.3 3.6 0.1 4.8 1.3 1.2 3.6 1.2 4.9-0.1 1.3-1.2 1.6-3.4 0.6-5-0.5-0.9-1.4-1.6-2.4-1.7-1-0.1-2.1 0.6-2.4 1.5z"/><path class="a" d="m514.6 416.2c-0.9 0.4-0.9 1.8-0.2 2.5 0.7 0.7 1.8 0.8 2.8 0.7 1-0.1 2.2-0.5 2.8-1.3 1.1-1.5 0.3-3.9-1.4-4.5-1.7-0.6-3.8 0.7-4.2 2.5z"/><path class="a" d="m832.9 283.5c-1.8 0.1-3.6 0.8-4.7 2.3-1.1 1.4-1.2 3.6 0 4.9 0.8 0.9 2 1.4 3.2 1.5 1.8 0.3 3.8 0.1 5.3-1 1.5-1.1 2.3-3.1 1.7-4.9-0.8-2.1-3.4-3.1-5.7-2.8z"/><path class="a" d="m1015.1 197.6c-1.8 0.2-3.6 0.9-4.7 2.3-1.1 1.5-1.2 3.7 0 5 0.8 0.9 2 1.3 3.2 1.5 1.8 0.3 3.8 0 5.3-1 1.5-1.1 2.3-3.2 1.7-4.9-0.8-2.2-3.4-3.1-5.7-2.9z"/><path class="a" d="m552.2 246.6c-0.9 0-1.4 1.1-1 1.9 0.4 0.8 1.3 1.2 2.1 1.3 1.5 0.2 3.1-0.1 4.1-1.2 0.9-1.1 1.1-3 0-4-0.8-0.8-2.2-0.9-3.3-0.4-1 0.4-1.8 1.4-2.4 2.4z"/><path class="a" d="m562.5 406c-0.6 0.3-0.8 1.3-0.4 1.9 0.3 0.6 1.2 0.9 1.9 0.7 0.7-0.1 1.2-0.7 1.4-1.3 0.1-0.7-0.3-1.5-0.9-1.7-0.7-0.3-1.5 0.1-1.7 0.8z"/><path class="E" d="m566.1 426.2c0-0.7 0.9-1.3 1.6-1 0.7 0.3 0.9 1.4 0.3 1.9-0.6 0.4-1.6 0.1-1.7-0.7z"/><path class="E" d="m698.9 280.8c-0.9 0.7-0.6 2.3 0.5 2.6 1 0.3 2.1-1 1.7-2-0.3-0.6-1.1-0.9-1.6-0.5z"/><path class="a" d="m644.2 179.1c0.5 0.5 1.3 0.7 2 0.8 1.2 0.2 2.6 0.1 3.4-0.8 0.9-1.2 0.4-3.1-0.9-3.8-2.2-1.4-6.8 1.1-4.5 3.8z"/><path class="a" d="m638.4 259.9c-0.2-0.6 0.7-1.2 1.4-1.2 1.3 0 2.5 1.4 2.5 2.7-0.1 0.8-0.5 1.5-0.9 2.1-0.4 0.5-0.8 1-1.4 1.3-0.8 0.4-1.7 0.2-2.5-0.3-0.5-0.2-0.9-0.6-1.1-1.1-0.3-0.7 0-1.5 0.5-2.1 0.4-0.6 1.1-0.9 1.7-1.3z"/><path class="a" d="m763.8 199.1c0.9 0.2 1.9-0.1 2.7-0.6 0.9-0.5 1.7-1.5 1.6-2.6-0.2-0.9-1-1.6-1.9-1.9-0.9-0.2-1.8 0-2.7 0.4-0.7 0.2-1.4 0.6-1.8 1.2-1.2 1.6 0.4 3.2 2.1 3.5z"/><path class="a" d="m697 213.9c0.2-0.8 1.4-1.2 2.1-0.6 0.6 0.5 0.7 1.6 0.1 2.3-0.1 0.2-0.4 0.4-0.6 0.5-0.6 0.1-1.1-0.2-1.4-0.7-0.2-0.4-0.3-1-0.3-1.5z"/><path class="a" d="m715.2 210.7c1-0.1 2.1-0.6 2.5-1.5 0.3-0.7 0.2-1.6-0.1-2.3-1-1.9-4.4-2.8-5.8-0.9-1.9 2.5 0.8 5 3.4 4.7z"/><path class="E" d="m644.9 344.8c-0.3-1 0.5-2.2 1.5-2.2 1.1-0.1 2 0.9 1.9 1.9 0 0.2-0.1 0.5-0.3 0.6q-0.1 0.2-0.3 0.2c-0.9 0.3-2 0.1-2.6-0.6z"/><path class="a" d="m612.9 318.6c-0.4 0-0.7 0.4-0.8 0.7-0.1 0.4 0.1 0.8 0.3 1.1 0.6 0.8 1.8 1.1 2.7 0.6 0.8-0.5 1.2-1.7 0.6-2.6-0.5-0.8-1.9-0.9-2.5-0.2z"/><path class="a" d="m536.9 414.8c-0.2-0.3-0.1-0.6 0.1-0.9 0.2-0.2 0.5-0.3 0.8-0.4 1.2-0.3 2.7 0.2 3 1.3 0.2 0.8-0.2 1.7-0.9 2.1-0.8 0.4-1.7 0.2-2.4-0.3-0.6-0.5-0.9-1.4-0.8-2.2z"/><path class="a" d="m699.9 348.4c1.1-0.1 2.2-0.7 2.9-1.5 0.9-1.1 1.3-2.7 0.4-3.7-0.6-0.8-1.7-0.9-2.7-0.8-1.4 0.2-3.4 1.2-3.7 2.6-0.6 1.9 1.4 3.5 3.1 3.4z"/><path class="a" d="m680.5 192.6c-0.7-0.5-0.3-1.8 0.6-2.1 0.8-0.2 1.7 0.3 2.2 1 0.4 0.6 0.6 1.4 0.1 2-0.4 0.3-1 0.4-1.5 0.2-0.5-0.2-0.9-0.6-1.2-0.9z"/><path class="a" d="m1209.5 729.5c0.5 0.6 1.3 0.8 2 0.9 1.2 0.2 2.6 0 3.4-0.9 0.9-1.1 0.4-3-0.9-3.8-2.2-1.4-6.8 1.1-4.5 3.8z"/><path class="a" d="m1329.1 749.6c0.9 0.1 1.9-0.1 2.7-0.6 1-0.6 1.7-1.6 1.6-2.7-0.2-0.9-1-1.6-1.9-1.8-0.9-0.3-1.8-0.1-2.7 0.3-0.7 0.3-1.3 0.6-1.8 1.2-1.2 1.6 0.4 3.3 2.1 3.6z"/><path class="a" d="m1262.3 764.3c0.2-0.8 1.4-1.2 2.1-0.6 0.6 0.5 0.7 1.6 0.1 2.3-0.1 0.2-0.4 0.4-0.6 0.5-0.5 0.1-1.1-0.2-1.4-0.7q-0.3-0.6-0.3-1.5z"/><path class="a" d="m1280.5 761.2c1-0.2 2.1-0.6 2.5-1.6 0.3-0.7 0.2-1.5-0.1-2.2-1-2-4.4-2.9-5.8-1-1.9 2.5 0.8 5 3.4 4.8z"/><path class="a" d="m1245.8 743.1c-0.7-0.6-0.3-1.8 0.6-2.1 0.8-0.3 1.7 0.2 2.2 0.9 0.4 0.6 0.6 1.5 0.1 2-0.4 0.3-1 0.4-1.5 0.2q-0.8-0.3-1.2-0.9z"/><path class="a" d="m1125.6 383.3c0.5 0.5 1.2 0.7 1.9 0.8 1.2 0.2 2.6 0.1 3.4-0.8 1-1.2 0.4-3.1-0.8-3.9-2.3-1.3-6.9 1.2-4.5 3.9z"/><path class="E" d="m1178.4 418.1c0.1-0.9 1.3-1.2 2-0.7 0.7 0.6 0.7 1.7 0.2 2.4-0.2 0.2-0.4 0.4-0.7 0.4-0.5 0.2-1-0.2-1.3-0.6-0.3-0.4-0.4-1-0.4-1.5z"/><path class="a" d="m1196.5 414.9c1-0.1 2.1-0.6 2.5-1.5 0.4-0.7 0.3-1.6-0.1-2.3-1-1.9-4.3-2.8-5.8-0.9-1.9 2.5 0.9 5 3.4 4.7z"/><path class="E" d="m1161.8 396.8c-0.6-0.5-0.2-1.8 0.6-2.1 0.8-0.2 1.8 0.2 2.3 1 0.4 0.5 0.5 1.4 0 1.9-0.3 0.4-0.9 0.4-1.4 0.3-0.5-0.2-0.9-0.6-1.3-0.9z"/><path class="E" d="m599.9 303.2c-0.5 0.4-0.5 1.4 0 1.9 0.5 0.5 1.3 0.6 2 0.4 0.3-0.1 0.6-0.2 0.8-0.5 0.5-0.8 0-1.7-0.7-2.3-0.3-0.2-0.5-0.4-0.9-0.4-0.3-0.1-0.6 0.1-0.7 0.4z"/><path class="a" d="m433.6 195c-0.3 0-0.4-0.3-0.4-0.6 0-0.2 0.2-0.5 0.4-0.7 0.3-0.4 0.6-0.9 1.1-1.2 0.8-0.5 1.8-0.5 2.6-0.1 0.8 0.5 1.4 1.4 1.4 2.3 0 0.3 0 0.7-0.2 1-0.4 0.6-1.2 0.8-1.9 0.9-1.2 0-2.6-0.6-2.7-1.8z"/><path class="E" d="m532.7 323.6c-0.6 0.7-0.5 1.9 0.2 2.5 0.7 0.6 2 0.5 2.6-0.2 0.6-0.7 0.5-1.9-0.3-2.5-0.7-0.5-2-0.3-2.4 0.5z"/><path class="a" d="m742.8 303.3c-0.2-0.5 0.1-0.9 0.5-1.2 0.4-0.2 0.8-0.2 1.3-0.2 0.8 0.1 1.7 0.3 2.3 0.9 0.6 0.5 1 1.4 0.9 2.2-0.1 0.8-0.8 1.6-1.6 1.7-0.6 0-1.2-0.3-1.6-0.6-1-0.7-1.8-2-1.4-3.1z"/><path class="E" d="m742.3 267.7c-0.5 0.1-0.8 0.6-0.7 1.1 0 0.5 0.4 0.9 0.9 1.1 0.7 0.4 1.6 0.2 2.2-0.3 0.5-0.6 0.6-1.6 0-2.2-0.5-0.6-1.6-0.6-2.1 0z"/><path class="a" d="m1283 313.2c-0.9 0.6-0.6 2.2 0.4 2.5 1.1 0.3 2.2-1 1.7-2-0.2-0.5-1-0.9-1.5-0.5z"/><path class="a" d="m1228.3 211.4c0.5 0.6 1.2 0.8 2 0.9 1.2 0.2 2.5 0 3.3-0.9 1-1.1 0.5-3-0.8-3.8-2.3-1.4-6.8 1.1-4.5 3.8z"/><path class="a" d="m1297.9 326c-0.2-0.6 0.6-1.2 1.3-1.2 1.4 0 2.6 1.4 2.5 2.7 0 0.8-0.4 1.5-0.8 2.1-0.4 0.5-0.8 1-1.4 1.3-0.8 0.4-1.8 0.2-2.5-0.3-0.5-0.2-0.9-0.6-1.1-1.1-0.3-0.7 0-1.5 0.4-2.1 0.5-0.6 1.1-0.9 1.8-1.3z"/><path class="E" d="m1281.1 246.2c0.2-0.8 1.4-1.2 2-0.6 0.7 0.5 0.7 1.6 0.2 2.3-0.2 0.2-0.4 0.4-0.7 0.5-0.5 0.1-1-0.2-1.3-0.7-0.3-0.4-0.3-0.9-0.3-1.5z"/><path class="a" d="m1299.3 243c1-0.1 2-0.5 2.5-1.5 0.3-0.7 0.2-1.5-0.2-2.2-0.9-2-4.3-2.9-5.8-1-1.9 2.5 0.9 5 3.5 4.7z"/><path class="E" d="m1228.9 377.1c-0.2-1 0.6-2.1 1.6-2.2 1-0.1 2 0.9 1.9 1.9 0 0.3-0.1 0.5-0.3 0.7q-0.2 0.1-0.4 0.2c-0.8 0.3-1.9 0-2.5-0.7z"/><path class="a" d="m1196.9 351c-0.3-0.1-0.7 0.3-0.7 0.7-0.1 0.3 0.1 0.7 0.3 1 0.6 0.8 1.8 1.1 2.6 0.6 0.9-0.5 1.2-1.7 0.7-2.5-0.6-0.9-1.9-1-2.6-0.2z"/><path class="a" d="m1250.3 354.8c1.2 0 2.2-0.6 2.9-1.5 0.9-1 1.3-2.7 0.4-3.7-0.6-0.7-1.7-0.9-2.7-0.8-1.4 0.2-3.3 1.2-3.7 2.7-0.5 1.9 1.4 3.4 3.1 3.3z"/><path class="E" d="m1264.6 225c-0.7-0.6-0.3-1.8 0.5-2.1 0.9-0.3 1.8 0.2 2.3 0.9 0.4 0.6 0.6 1.5 0.1 2-0.4 0.3-1 0.4-1.5 0.2-0.5-0.2-0.9-0.5-1.3-0.9z"/><path class="E" d="m1326.3 300c-0.4 0.1-0.7 0.7-0.7 1.2 0.1 0.4 0.5 0.9 0.9 1.1 0.8 0.3 1.7 0.2 2.2-0.4 0.6-0.6 0.6-1.6 0.1-2.2-0.5-0.6-1.6-0.6-2.1 0z"/><path class="a" d="m575.1 475.7c-0.4-1.7 1.3-3.7 3.1-3.5 1.8 0.2 3 2.4 2.2 4.1-0.8 1.6-3.3 2-4.6 0.7z"/><path class="a" d="m534.2 498.3q0 1.2-0.1 2.5c1.2 0.9 3.4 0.4 3.7-1.1 0.3-1.5-2.1-2.7-2.9-1.4z"/><path class="E" d="m475.4 182.7c0.2-0.8 1.4-1.2 2-0.6 0.6 0.6 0.2 1.8-0.6 2.1-0.8 0.2-1.7-0.7-1.4-1.5z"/><path class="a" d="m506.1 484.8c-0.3 0.2-0.3 0.6-0.1 0.8q0.2 0.1 0.5 0.1 0.3-0.1 0.4-0.3c0.1-0.1 0.2-0.3 0.1-0.5-0.1-0.2-0.4-0.3-0.7-0.2-0.2 0.1-0.4 0.2-0.5 0.4z"/><path class="a" d="m559.2 448.7c-0.1 0-0.1-0.2-0.1-0.3q0.1-0.2 0.3-0.3c0.3-0.1 0.6-0.1 0.9 0.1 0.3 0.2 0.4 0.5 0.3 0.8-0.1 0.3-0.5 0.5-0.8 0.4-0.3-0.1-0.5-0.4-0.6-0.7z"/><path class="a" d="m567.9 445.7c0.2 0.2 0.3 0.4 0.6 0.5 0.2 0.1 0.5-0.1 0.6-0.3 0-0.2-0.1-0.4-0.3-0.5q-0.3-0.2-0.6 0z"/><path class="a" d="m469.1 451.1c1.2 0.8 2.9 0.6 4.2 0 0.9-0.5 1.7-1.2 1.9-2.2 0.2-0.8-0.1-1.6-0.6-2.3-0.6-0.6-1.4-1-2.2-1.3-0.8-0.2-1.7-0.3-2.5 0-2.1 0.8-2.7 4.5-0.8 5.8z"/><path class="a" d="m435 452.4q-0.1-0.3-0.2-0.6c0.3-0.9 1.5-1.4 2.3-1 0.9 0.4 1.2 1.6 0.7 2.4-0.5 0.7-1.8 0.9-2.5 0.2-0.2-0.3-0.4-0.6-0.5-1z"/><path class="a" d="m477.9 404.8q-0.2 0.4-0.4 0.8c0.6 0.9 2 1 2.8 0.2q0.2-0.2 0.4-0.6c0.2-0.8-0.5-1.7-1.3-1.7-0.8-0.1-1.6 0.5-1.8 1.3z"/><path class="a" d="m389.1 458c-0.5 1 0.2 2.4 1.3 2.7 1.1 0.3 2.3-0.6 2.4-1.7 0.2-1.1-0.9-2.2-2-2.2-0.6 0-1.3 0.4-1.4 1z"/><path class="a" d="m442.9 427c0-0.9 1.2-1.5 1.9-1 0.8 0.4 0.7 1.8-0.1 2.2-0.8 0.4-1.9-0.3-1.9-1.2z"/><path class="a" d="m660.1 521.4q-1.6 1.4-2.7 3.1c-0.3 0.4-0.5 0.9-0.6 1.4 0 1.3 1.5 2 2.7 2.3 1.2 0.3 2.4 0.4 3.5-0.1 1.2-0.5 1.9-1.9 1.9-3.1-0.1-1.3-0.7-2.5-1.7-3.4-1-0.8-2.6-1.2-3.4-0.2z"/><path class="a" d="m327.7 349.5c0.8-0.3 1.7-0.8 2-1.6 1.5-4.6-6.1-4.8-8.2-2-3.5 4.8 3 4.9 6.2 3.6z"/><path class="a" d="m340.6 442.2c-0.1 0.9 0.9 1.4 1.7 1.3 0.8-0.1 1.5-0.6 1.8-1.2 0.3-0.7 0.1-1.7-0.5-2.1-0.6-0.3-1.3-0.2-1.8 0.2-0.5 0.4-0.9 1-1 1.6z"/><path class="a" d="m260.9 482.8c-0.5 1.2 0.6 2.6 1.9 2.9 1.8 0.4 3.7-1.3 3.7-3.1-0.1-1.8-2.1-3.3-3.9-2.9-1.8 0.5-2.8 2.8-1.9 4.4z"/><path class="a" d="m168.4 385.3c0.3-1.2 1.4-2.3 2.6-2.5 1.3-0.3 2.6 0.3 3.4 1.3 1 1.6 0.3 4.1-1.5 4.7-1.7 0.7-4-0.9-3.8-2.8z"/><path class="a" d="m239.3 423.9c-0.9 0.4-1 1.8-0.3 2.5 0.7 0.7 1.8 0.8 2.8 0.8 1.1-0.2 2.2-0.6 2.9-1.4 1.1-1.5 0.3-3.9-1.5-4.5-1.7-0.6-3.8 0.7-4.2 2.5z"/><path class="a" d="m317.8 187.4c-0.8 0-1.3 1.2-1 2 0.4 0.7 1.3 1.1 2.2 1.3 1.4 0.2 3-0.2 4-1.3 1-1 1.1-2.9 0.1-3.9-0.9-0.9-2.2-1-3.3-0.5-1.1 0.5-1.9 1.4-2.4 2.5z"/><path class="a" d="m671.9 464.6c-0.6 0.4-0.8 1.3-0.5 2 0.4 0.6 1.2 0.9 2 0.7 0.6-0.2 1.2-0.7 1.3-1.4 0.2-0.6-0.2-1.4-0.9-1.6-0.6-0.3-1.4 0.1-1.6 0.7z"/><path class="a" d="m290.7 433.9c0.1-0.7 0.9-1.3 1.6-1 0.7 0.3 0.9 1.4 0.3 1.9-0.5 0.4-1.6 0.1-1.7-0.7z"/><path class="a" d="m251.2 152.2c0.5 0.6 1.2 0.8 1.9 0.9 1.2 0.2 2.6 0 3.4-0.9 0.9-1.1 0.4-3-0.8-3.8-2.3-1.4-6.9 1.1-4.5 3.8z"/><path class="a" d="m309.2 263.1c-0.3-1 0.5-2.1 1.5-2.2 1.1-0.1 2 0.9 1.9 1.9 0 0.3-0.1 0.5-0.3 0.7q-0.1 0.1-0.3 0.1c-0.9 0.4-2 0.1-2.6-0.6z"/><path class="a" d="m277.2 236.9c-0.4 0-0.7 0.4-0.8 0.7 0 0.4 0.1 0.8 0.3 1.1 0.6 0.8 1.8 1.1 2.7 0.6 0.9-0.5 1.2-1.7 0.6-2.6-0.5-0.8-1.9-0.9-2.5-0.1z"/><path class="a" d="m269.2 330.6c-0.2-0.3-0.1-0.7 0.1-0.9 0.2-0.2 0.5-0.3 0.8-0.4 1.2-0.3 2.7 0.1 3 1.3 0.2 0.8-0.2 1.7-1 2.1-0.7 0.3-1.6 0.2-2.3-0.3-0.6-0.6-0.9-1.4-0.8-2.3z"/><path class="a" d="m196 520.5c1.1-0.1 2.1-0.7 2.9-1.6 0.9-1 1.3-2.6 0.4-3.6-0.7-0.8-1.8-1-2.8-0.8-1.3 0.2-3.3 1.1-3.7 2.6-0.5 1.9 1.4 3.5 3.2 3.4z"/><path class="a" d="m264.3 221.5c-0.6 0.5-0.5 1.4-0.1 1.9 0.5 0.5 1.3 0.7 2 0.4 0.3-0.1 0.6-0.2 0.8-0.5 0.5-0.7 0-1.7-0.7-2.3-0.2-0.2-0.5-0.4-0.8-0.4-0.4-0.1-0.7 0.1-0.8 0.4z"/><path class="a" d="m158.2 202.7c-0.2 0-0.4-0.3-0.4-0.5 0.1-0.3 0.2-0.5 0.4-0.8 0.3-0.4 0.7-0.9 1.1-1.2 0.8-0.5 1.9-0.5 2.7-0.1 0.8 0.5 1.3 1.4 1.3 2.3 0.1 0.4 0 0.7-0.2 1-0.4 0.6-1.1 0.8-1.8 0.9-1.2 0-2.6-0.6-2.8-1.8z"/><path class="E" d="m227.5 316.7c-0.6 0.7-0.5 1.9 0.2 2.5 0.7 0.7 1.9 0.6 2.5-0.1 0.6-0.8 0.5-2-0.2-2.5-0.8-0.6-2-0.4-2.5 0.4z"/><path class="a" d="m299.8 483.5c-0.5-1.8 1.2-3.8 3-3.6 1.8 0.2 3.1 2.4 2.3 4.1-0.8 1.6-3.4 2-4.6 0.7z"/><path class="a" d="m258.9 506q-0.1 1.2-0.2 2.5c1.3 0.9 3.4 0.4 3.8-1.1 0.3-1.5-2.2-2.7-2.9-1.4z"/><path class="E" d="m200 190.4c0.2-0.8 1.4-1.1 2-0.6 0.6 0.6 0.3 1.8-0.5 2.1-0.8 0.2-1.7-0.7-1.5-1.5z"/><path class="E" d="m230.7 492.5c-0.3 0.2-0.3 0.6 0 0.8q0.2 0.1 0.4 0.1 0.3-0.1 0.5-0.3c0.1-0.1 0.1-0.3 0-0.5-0.1-0.2-0.4-0.3-0.6-0.2-0.3 0.1-0.4 0.2-0.6 0.4z"/><path class="a" d="m283.9 456.4c-0.1 0-0.2-0.2-0.1-0.3q0-0.2 0.2-0.3c0.3-0.1 0.7-0.1 0.9 0.1 0.3 0.2 0.4 0.5 0.3 0.8-0.1 0.3-0.5 0.5-0.8 0.4-0.3-0.1-0.5-0.4-0.6-0.7z"/><path class="a" d="m292.6 453.4c0.1 0.2 0.3 0.4 0.5 0.5 0.2 0.1 0.5 0 0.6-0.3 0.1-0.2-0.1-0.4-0.3-0.5-0.1-0.1-0.4-0.1-0.6 0z"/><path class="a" d="m193.8 458.8c1.2 0.8 2.8 0.6 4.1 0 0.9-0.4 1.7-1.2 2-2.1 0.1-0.9-0.2-1.7-0.7-2.4q-0.9-0.9-2.1-1.2c-0.8-0.3-1.7-0.4-2.5-0.1-2.2 0.8-2.8 4.5-0.8 5.8z"/><path class="a" d="m182.7 452.9q-0.1-0.3-0.2-0.5c0.3-0.9 1.4-1.4 2.3-1 0.8 0.4 1.1 1.6 0.6 2.4-0.5 0.7-1.8 0.8-2.4 0.2-0.3-0.3-0.4-0.7-0.6-1z"/><path class="a" d="m201.3 422q-0.2 0.4-0.4 0.8c0.6 0.9 2 1 2.8 0.2q0.2-0.3 0.4-0.6c0.1-0.8-0.5-1.7-1.3-1.7-0.8-0.1-1.6 0.5-1.8 1.3z"/><path class="a" d="m262.9 557.2c-0.5 1 0.2 2.4 1.3 2.7 1.1 0.3 2.3-0.6 2.4-1.7 0.2-1.1-0.9-2.2-2-2.2-0.6 0-1.3 0.4-1.4 1.1z"/><path class="a" d="m167.6 434.7c0-0.9 1.1-1.5 1.9-1 0.7 0.5 0.6 1.8-0.2 2.2-0.8 0.4-1.9-0.3-1.9-1.2z"/><path class="a" d="m84.6 298.6q-1.5 1.4-2.7 3.2c-0.2 0.4-0.5 0.8-0.5 1.3 0 1.3 1.4 2 2.6 2.3 1.2 0.3 2.5 0.5 3.6 0 1.1-0.6 1.8-1.9 1.8-3.2 0-1.3-0.7-2.5-1.7-3.3-0.9-0.9-2.5-1.3-3.3-0.3z"/><path class="a" d="m237.2 383.1c0.9-0.3 1.7-0.8 2-1.6 1.5-4.6-6.1-4.8-8.2-2-3.5 4.8 3 4.9 6.2 3.6z"/><path class="a" d="m190 434.5c0 0.8 1 1.4 1.8 1.3 0.7-0.1 1.4-0.6 1.8-1.3 0.3-0.6 0.1-1.6-0.6-2-0.5-0.3-1.3-0.2-1.8 0.2-0.5 0.4-0.8 1-1 1.6z"/><path class="a" d="m110.3 475.1c-0.5 1.2 0.6 2.6 1.9 2.9 1.8 0.4 3.7-1.3 3.7-3.1-0.1-1.8-2.1-3.3-3.9-2.9-1.7 0.5-2.8 2.8-1.9 4.4z"/><path class="a" d="m39.7 291.1c-0.9 0.4-1 1.8-0.3 2.5 0.7 0.7 1.8 0.9 2.8 0.8 1.1-0.1 2.2-0.5 2.9-1.4 1.1-1.4 0.2-3.9-1.5-4.5-1.7-0.6-3.8 0.7-4.2 2.5z"/><path class="a" d="m147 328.3c-0.7 0.4-0.9 1.3-0.5 1.9 0.4 0.7 1.2 1 1.9 0.8 0.7-0.2 1.3-0.7 1.4-1.4 0.1-0.7-0.2-1.4-0.9-1.7-0.6-0.2-1.4 0.2-1.6 0.8z"/><path class="a" d="m140.1 426.2c0.1-0.7 1-1.3 1.6-1 0.7 0.3 0.9 1.4 0.4 1.9-0.6 0.4-1.7 0.1-1.7-0.7z"/><path class="E" d="m126.6 229.2c-0.4 0-0.7 0.4-0.7 0.7-0.1 0.4 0 0.8 0.3 1.1 0.6 0.8 1.8 1.1 2.6 0.6 0.9-0.5 1.2-1.7 0.7-2.6-0.6-0.8-2-0.9-2.6-0.2z"/><path class="E" d="m118.3 330.6c-0.2-0.3-0.1-0.7 0.1-0.9 0.2-0.2 0.5-0.3 0.8-0.4 1.2-0.3 2.7 0.1 3 1.3 0.2 0.8-0.2 1.7-0.9 2.1-0.8 0.3-1.7 0.2-2.4-0.3-0.6-0.6-0.9-1.4-0.8-2.3z"/><path class="a" d="m113.7 213.8c-0.5 0.4-0.5 1.4 0 1.9 0.4 0.5 1.2 0.6 1.9 0.4 0.3-0.1 0.7-0.2 0.9-0.5 0.4-0.8-0.1-1.7-0.8-2.3-0.2-0.2-0.5-0.4-0.8-0.4-0.3-0.1-0.7 0.1-0.8 0.4z"/><path class="E" d="m73.8 242.3c-0.6 0.8-0.5 2 0.2 2.6 0.7 0.6 1.9 0.5 2.5-0.2 0.6-0.7 0.5-1.9-0.3-2.5-0.7-0.6-1.9-0.3-2.4 0.5z"/><path class="a" d="m149.2 475.7c-0.5-1.7 1.2-3.7 3-3.5 1.8 0.2 3.1 2.4 2.3 4.1-0.8 1.6-3.3 2-4.6 0.7z"/><path class="a" d="m108.3 498.3q-0.1 1.2-0.1 2.5c1.2 0.9 3.4 0.4 3.7-1.1 0.3-1.5-2.1-2.7-2.9-1.4z"/><path class="a" d="m49.4 182.7c0.2-0.8 1.4-1.2 2-0.6 0.6 0.6 0.3 1.8-0.5 2.1-0.8 0.2-1.7-0.7-1.5-1.5z"/><path class="a" d="m1218.4 587.8c-0.3-0.1-0.4-0.4-0.4-0.6 0-0.3 0.2-0.5 0.4-0.7 0.3-0.5 0.7-1 1.1-1.3 0.8-0.5 1.8-0.5 2.6-0.1 0.8 0.5 1.4 1.4 1.4 2.3 0 0.4 0 0.7-0.2 1.1-0.4 0.5-1.2 0.7-1.9 0.8-1.1 0-2.5-0.6-2.7-1.8z"/><path class="a" d="m1144.8 683.6q-1.6 1.4-2.7 3.2c-0.3 0.4-0.5 0.8-0.5 1.3-0.1 1.3 1.4 2 2.6 2.3 1.2 0.3 2.5 0.5 3.5 0 1.2-0.6 1.9-1.9 1.9-3.2-0.1-1.3-0.7-2.5-1.7-3.3-0.9-0.9-2.6-1.3-3.4-0.3z"/><path class="a" d="m1099.8 676.1c-0.9 0.4-0.9 1.8-0.2 2.5 0.7 0.7 1.8 0.9 2.8 0.8 1.1-0.1 2.2-0.5 2.8-1.4 1.2-1.4 0.3-3.9-1.4-4.5-1.7-0.6-3.8 0.7-4.2 2.5z"/><path class="a" d="m1186.8 614.2c-0.4 0-0.7 0.4-0.8 0.7 0 0.4 0.1 0.8 0.3 1.1 0.6 0.8 1.8 1.1 2.7 0.6 0.9-0.5 1.2-1.7 0.6-2.6-0.5-0.8-1.9-0.9-2.5-0.1z"/><path class="a" d="m1173.9 598.8c-0.6 0.5-0.5 1.4-0.1 1.9 0.5 0.5 1.3 0.6 2 0.4 0.3-0.1 0.6-0.2 0.8-0.5 0.5-0.8 0-1.7-0.7-2.3-0.2-0.2-0.5-0.4-0.8-0.4-0.4-0.1-0.7 0.1-0.8 0.4z"/><path class="a" d="m1067.8 580c-0.2 0-0.4-0.3-0.4-0.6 0.1-0.2 0.2-0.4 0.4-0.7 0.3-0.4 0.7-0.9 1.1-1.2 0.8-0.5 1.9-0.5 2.7-0.1 0.8 0.5 1.3 1.4 1.3 2.3 0.1 0.3 0 0.7-0.2 1-0.4 0.6-1.1 0.8-1.8 0.9-1.2 0-2.6-0.6-2.8-1.8z"/><path class="a" d="m1133.9 627.3c-0.6 0.8-0.5 2 0.2 2.6 0.8 0.6 2 0.5 2.6-0.2 0.6-0.7 0.5-1.9-0.3-2.5-0.7-0.6-2-0.3-2.4 0.5z"/><path class="a" d="m1109.6 567.7c0.2-0.8 1.4-1.2 2-0.6 0.6 0.6 0.3 1.8-0.5 2.1-0.8 0.2-1.7-0.7-1.5-1.5z"/><path class="a" d="m925.8 578.7c-0.2-0.1-0.4-0.4-0.4-0.6 0.1-0.3 0.2-0.5 0.4-0.7 0.3-0.5 0.7-0.9 1.1-1.3 0.8-0.5 1.9-0.5 2.7 0 0.8 0.4 1.3 1.3 1.3 2.2 0.1 0.4 0 0.7-0.2 1.1-0.4 0.5-1.1 0.8-1.8 0.8-1.2 0-2.6-0.6-2.8-1.8z"/><path class="a" d="m855.1 674.7q-1.5 1.4-2.6 3.1c-0.3 0.4-0.6 0.9-0.6 1.4 0 1.3 1.4 2 2.7 2.3 1.1 0.3 2.4 0.5 3.5-0.1 1.2-0.5 1.8-1.9 1.8-3.1 0-1.3-0.7-2.5-1.6-3.4-1-0.8-2.6-1.2-3.4-0.2z"/><path class="a" d="m807.3 667c-0.9 0.4-1 1.8-0.3 2.5 0.7 0.7 1.8 0.9 2.8 0.8 1.1-0.1 2.2-0.5 2.9-1.4 1.1-1.4 0.2-3.9-1.5-4.5-1.7-0.6-3.8 0.7-4.2 2.5z"/><path class="a" d="m894.2 605.1c-0.4 0-0.7 0.4-0.8 0.7 0 0.4 0.1 0.8 0.4 1.1 0.5 0.8 1.7 1.1 2.6 0.6 0.9-0.5 1.2-1.7 0.7-2.6-0.6-0.8-2-0.9-2.6-0.1z"/><path class="a" d="m881.3 589.7c-0.6 0.5-0.5 1.4-0.1 1.9 0.5 0.5 1.3 0.7 2 0.5 0.3-0.1 0.7-0.3 0.8-0.6 0.5-0.7 0-1.7-0.7-2.3-0.2-0.2-0.5-0.4-0.8-0.4-0.3-0.1-0.7 0.1-0.8 0.4z"/><path class="a" d="m775.3 570.9c-0.3 0-0.5-0.3-0.4-0.5 0-0.3 0.1-0.5 0.3-0.8 0.3-0.4 0.7-0.9 1.2-1.2 0.7-0.5 1.8-0.5 2.6-0.1 0.8 0.5 1.3 1.4 1.4 2.3 0 0.4-0.1 0.7-0.3 1-0.4 0.6-1.1 0.8-1.8 0.9-1.2 0-2.6-0.6-2.8-1.8z"/><path class="a" d="m841.3 618.2c-0.5 0.8-0.4 2 0.3 2.6 0.7 0.6 1.9 0.5 2.5-0.2 0.6-0.7 0.5-1.9-0.3-2.5-0.7-0.6-1.9-0.3-2.4 0.5z"/><path class="a" d="m817 558.6c0.2-0.8 1.4-1.1 2-0.6 0.6 0.6 0.3 1.8-0.5 2.1-0.8 0.2-1.7-0.7-1.5-1.5z"/><path class="a" d="m604 569.4c-0.3 0-0.4-0.3-0.4-0.6 0-0.2 0.2-0.5 0.4-0.7 0.3-0.4 0.7-0.9 1.1-1.2 0.8-0.5 1.8-0.5 2.6-0.1 0.8 0.5 1.4 1.4 1.4 2.3 0 0.3 0 0.7-0.2 1-0.4 0.6-1.2 0.8-1.9 0.9-1.2 0-2.5-0.6-2.7-1.8z"/><path class="a" d="m530.4 665.3q-1.6 1.4-2.7 3.1c-0.3 0.5-0.5 0.9-0.5 1.4-0.1 1.3 1.4 2 2.6 2.3 1.2 0.3 2.5 0.5 3.5 0 1.2-0.6 1.9-1.9 1.9-3.2-0.1-1.3-0.7-2.5-1.7-3.3-1-0.9-2.6-1.3-3.4-0.3z"/><path class="a" d="m485.4 657.8c-0.9 0.4-0.9 1.8-0.2 2.5 0.7 0.7 1.8 0.9 2.8 0.8 1-0.1 2.2-0.5 2.8-1.4 1.1-1.5 0.3-3.9-1.4-4.5-1.7-0.6-3.8 0.7-4.2 2.5z"/><path class="a" d="m572.4 595.9c-0.4 0-0.7 0.4-0.8 0.7 0 0.4 0.1 0.8 0.3 1.1 0.6 0.8 1.8 1.1 2.7 0.6 0.8-0.5 1.2-1.8 0.6-2.6-0.5-0.8-1.9-0.9-2.5-0.2z"/><path class="a" d="m559.5 580.5c-0.6 0.4-0.6 1.4-0.1 1.9 0.5 0.5 1.3 0.6 2 0.4 0.3-0.1 0.6-0.3 0.8-0.5 0.5-0.8 0-1.7-0.7-2.3-0.2-0.2-0.5-0.4-0.8-0.5-0.4 0-0.7 0.2-0.8 0.5z"/><path class="a" d="m453.4 561.7c-0.2 0-0.4-0.3-0.4-0.6 0.1-0.2 0.2-0.5 0.4-0.7 0.3-0.4 0.7-0.9 1.1-1.2 0.8-0.5 1.9-0.5 2.7-0.1 0.8 0.5 1.3 1.3 1.3 2.3 0 0.3 0 0.7-0.2 1-0.4 0.6-1.2 0.8-1.8 0.8-1.2 0.1-2.6-0.5-2.8-1.7z"/><path class="a" d="m519.5 609c-0.6 0.8-0.5 1.9 0.2 2.6 0.7 0.6 2 0.5 2.6-0.2 0.6-0.7 0.5-1.9-0.3-2.5-0.7-0.6-2-0.4-2.4 0.4z"/><path class="a" d="m495.2 549.4c0.2-0.8 1.4-1.2 2-0.6 0.6 0.6 0.3 1.8-0.5 2-0.8 0.3-1.7-0.6-1.5-1.4z"/><path class="a" d="m190.9 595.2c-0.3-0.1-0.5-0.4-0.4-0.6 0-0.3 0.1-0.5 0.3-0.7 0.3-0.5 0.7-0.9 1.2-1.3 0.7-0.5 1.8-0.5 2.6-0.1 0.8 0.5 1.3 1.4 1.4 2.3 0 0.4-0.1 0.7-0.3 1.1-0.4 0.5-1.1 0.8-1.8 0.8-1.2 0-2.6-0.6-2.8-1.8z"/><path class="a" d="m232.6 582.8c0.2-0.8 1.4-1.1 2-0.5 0.6 0.5 0.3 1.7-0.5 2-0.8 0.2-1.7-0.7-1.5-1.5z"/><path class="a" d="m117.2 691q-1.5 1.4-2.7 3.2c-0.2 0.4-0.5 0.8-0.5 1.3 0 1.3 1.4 2 2.6 2.3 1.2 0.3 2.5 0.5 3.6 0 1.1-0.6 1.8-1.9 1.8-3.2 0-1.3-0.7-2.5-1.7-3.3-0.9-0.9-2.5-1.3-3.3-0.3z"/><path class="a" d="m21.7 654.3c-1.3 1.2-1.2 3.6 0.1 4.8 1.3 1.2 3.6 1.2 4.9-0.1 1.3-1.2 1.6-3.4 0.7-5-0.5-0.8-1.4-1.5-2.5-1.6-1-0.1-2.1 0.5-2.4 1.5z"/><path class="a" d="m72.3 683.5c-0.9 0.4-0.9 1.8-0.3 2.5 0.7 0.7 1.8 0.9 2.8 0.8 1.1-0.1 2.2-0.5 2.9-1.4 1.1-1.4 0.3-3.9-1.5-4.5-1.7-0.6-3.8 0.7-4.2 2.5z"/><path class="a" d="m159.2 621.6c-0.3 0-0.7 0.4-0.7 0.7-0.1 0.4 0 0.8 0.3 1.1 0.6 0.8 1.8 1.1 2.6 0.6 0.9-0.5 1.2-1.7 0.7-2.6-0.6-0.8-1.9-0.9-2.6-0.1z"/><path class="a" d="m146.3 606.2c-0.5 0.5-0.5 1.4 0 1.9 0.4 0.5 1.2 0.6 1.9 0.4 0.4-0.1 0.7-0.2 0.9-0.5 0.4-0.8-0.1-1.7-0.7-2.3-0.3-0.2-0.6-0.4-0.9-0.4-0.3-0.1-0.7 0.1-0.8 0.4z"/><path class="E" d="m40.3 587.4c-0.3 0-0.5-0.3-0.4-0.6 0-0.2 0.2-0.4 0.3-0.7 0.4-0.4 0.7-0.9 1.2-1.2 0.8-0.5 1.8-0.5 2.6-0.1 0.8 0.5 1.3 1.4 1.4 2.3 0 0.3-0.1 0.7-0.3 1-0.3 0.6-1.1 0.8-1.8 0.9-1.2 0-2.6-0.6-2.7-1.8z"/><path class="E" d="m106.4 634.7c-0.6 0.8-0.5 2 0.2 2.6 0.7 0.6 1.9 0.5 2.5-0.2 0.6-0.7 0.5-1.9-0.2-2.5-0.8-0.6-2-0.3-2.5 0.5z"/><path class="a" d="m82 575.1c0.2-0.8 1.4-1.1 2-0.6 0.6 0.6 0.3 1.8-0.5 2.1-0.8 0.2-1.7-0.7-1.5-1.5z"/><path class="a" d="m734.4 482.8c-0.2 0-0.4-0.4-0.4-0.6 0.1-0.3 0.2-0.5 0.4-0.7q0.5-0.7 1.2-1.2c0.7-0.5 1.8-0.6 2.6-0.1 0.8 0.4 1.3 1.3 1.3 2.2 0.1 0.4 0 0.8-0.2 1.1-0.4 0.6-1.1 0.8-1.8 0.8-1.2 0-2.6-0.6-2.8-1.7z"/><path class="a" d="m776.2 470.4c0.2-0.8 1.4-1.1 2-0.5 0.6 0.6 0.3 1.8-0.5 2-0.8 0.2-1.7-0.7-1.5-1.5z"/><path class="a" d="m621.1 542.3q-0.9 0.9-1.6 1.9c-0.2 0.3-0.3 0.6-0.4 0.9 0 0.7 0.9 1.2 1.7 1.4 0.7 0.1 1.4 0.2 2.1-0.1 0.7-0.3 1.1-1.1 1.1-1.9 0-0.8-0.4-1.5-1-2-0.6-0.5-1.6-0.8-2-0.2z"/><path class="a" d="m565.3 541.9c-1.3 1.2-1.3 3.6 0.1 4.8 1.3 1.3 3.6 1.2 4.9 0 1.3-1.3 1.6-3.5 0.7-5-0.6-0.9-1.5-1.6-2.5-1.7-1-0.1-2.1 0.5-2.4 1.5z"/><path class="a" d="m615.9 571.1c-0.9 0.4-1 1.8-0.3 2.5 0.7 0.8 1.8 0.9 2.8 0.8 1.1-0.1 2.2-0.5 2.9-1.4 1.1-1.4 0.3-3.9-1.5-4.4-1.7-0.6-3.8 0.6-4.2 2.4z"/><path class="a" d="m702.8 509.3c-0.3 0-0.7 0.3-0.7 0.7-0.1 0.3 0 0.7 0.3 1 0.6 0.8 1.8 1.1 2.6 0.6 0.9-0.5 1.2-1.7 0.7-2.5-0.6-0.9-2-1-2.6-0.2z"/><path class="a" d="m689.9 493.8c-0.5 0.5-0.5 1.4 0 1.9 0.4 0.5 1.2 0.7 1.9 0.5 0.3-0.1 0.7-0.3 0.9-0.6 0.4-0.7-0.1-1.7-0.8-2.3-0.2-0.2-0.5-0.4-0.8-0.4-0.3-0.1-0.7 0.1-0.8 0.4z"/><path class="a" d="m583.9 475.1c-0.3-0.1-0.5-0.4-0.4-0.6 0-0.3 0.2-0.5 0.3-0.7 0.4-0.5 0.7-0.9 1.2-1.2 0.7-0.5 1.8-0.6 2.6-0.1 0.8 0.4 1.3 1.3 1.4 2.2 0 0.4-0.1 0.8-0.3 1.1-0.4 0.6-1.1 0.8-1.8 0.8-1.2 0-2.6-0.6-2.7-1.8z"/><path class="a" d="m650 522.4c-0.6 0.7-0.5 1.9 0.2 2.5 0.7 0.6 1.9 0.5 2.5-0.2 0.6-0.7 0.5-1.9-0.3-2.5-0.7-0.5-1.9-0.3-2.4 0.5z"/><path class="a" d="m625.6 462.7c0.2-0.8 1.4-1.1 2-0.5 0.6 0.6 0.3 1.8-0.5 2-0.8 0.2-1.7-0.7-1.5-1.5z"/><path class="a" d="m1071.2 208.5c-0.3 0-0.5-0.3-0.4-0.6 0-0.2 0.2-0.4 0.3-0.7 0.4-0.4 0.7-0.9 1.2-1.2 0.7-0.5 1.8-0.5 2.6-0.1 0.8 0.5 1.3 1.4 1.4 2.3 0 0.3-0.1 0.7-0.3 1-0.4 0.6-1.1 0.8-1.8 0.9-1.2 0-2.6-0.6-2.7-1.8z"/><path class="a" d="m1128.5 284.3c0.2-0.9 1.4-1.2 2-0.6 0.6 0.6 0.3 1.8-0.6 2-0.8 0.2-1.6-0.6-1.4-1.4z"/><path class="a" d="m1013.1 392.5q-1.6 1.4-2.7 3.1c-0.3 0.4-0.5 0.9-0.5 1.4-0.1 1.3 1.4 2 2.6 2.3 1.2 0.3 2.5 0.5 3.5-0.1 1.2-0.5 1.9-1.9 1.9-3.1-0.1-1.3-0.7-2.5-1.7-3.4-0.9-0.8-2.6-1.2-3.4-0.2z"/><path class="a" d="m1149 733.7q-1.5 1.4-2.7 3.1c-0.2 0.4-0.5 0.9-0.5 1.4 0 1.2 1.4 2 2.6 2.3 1.2 0.3 2.5 0.4 3.6-0.1 1.1-0.6 1.8-1.9 1.8-3.1 0-1.3-0.7-2.6-1.7-3.4-0.9-0.8-2.5-1.2-3.3-0.2z"/><path class="a" d="m917.6 355.7c-1.3 1.3-1.3 3.6 0 4.9 1.4 1.2 3.7 1.1 5-0.1 1.3-1.3 1.5-3.4 0.6-5-0.5-0.9-1.4-1.6-2.4-1.7-1-0.1-2.1 0.5-2.4 1.5z"/><path class="a" d="m968.1 385c-0.9 0.4-0.9 1.8-0.2 2.5 0.7 0.7 1.8 0.8 2.8 0.7 1.1-0.1 2.2-0.5 2.8-1.3 1.2-1.5 0.3-3.9-1.4-4.5-1.7-0.6-3.8 0.7-4.2 2.5z"/><path class="E" d="m1055.1 323.1c-0.4 0-0.7 0.3-0.8 0.7 0 0.4 0.1 0.8 0.3 1.1 0.6 0.8 1.8 1.1 2.7 0.6 0.9-0.5 1.2-1.8 0.6-2.6-0.5-0.8-1.9-0.9-2.5-0.2z"/><path class="E" d="m1042.2 307.6c-0.6 0.5-0.5 1.4-0.1 1.9 0.5 0.6 1.3 0.7 2 0.5 0.3-0.1 0.6-0.3 0.8-0.6 0.5-0.7 0-1.7-0.7-2.2-0.2-0.2-0.5-0.4-0.8-0.5-0.4 0-0.7 0.1-0.8 0.4z"/><path class="a" d="m936.1 288.9c-0.2 0-0.4-0.3-0.4-0.6 0.1-0.3 0.2-0.5 0.4-0.7 0.3-0.4 0.7-0.9 1.1-1.2 0.8-0.5 1.9-0.5 2.7-0.1 0.8 0.4 1.3 1.3 1.3 2.2 0.1 0.4 0 0.8-0.2 1.1-0.4 0.6-1.1 0.8-1.8 0.8-1.2 0.1-2.6-0.5-2.8-1.7z"/><path class="E" d="m1153.1 210.5c-0.3-0.1-0.5-0.4-0.4-0.6 0-0.3 0.2-0.5 0.3-0.7 0.4-0.5 0.7-0.9 1.2-1.2 0.7-0.5 1.8-0.6 2.6-0.1 0.8 0.4 1.3 1.3 1.4 2.2 0 0.4-0.1 0.8-0.3 1.1-0.4 0.6-1.1 0.8-1.8 0.8-1.2 0-2.6-0.6-2.7-1.8z"/><path class="a" d="m1002.2 336.2c-0.6 0.7-0.5 1.9 0.2 2.5 0.8 0.7 2 0.6 2.6-0.1 0.6-0.8 0.5-2-0.3-2.5-0.7-0.6-2-0.4-2.4 0.4z"/><path class="a" d="m977.9 276.5c0.2-0.8 1.4-1.1 2-0.5 0.6 0.6 0.3 1.8-0.5 2-0.8 0.2-1.7-0.6-1.5-1.5z"/><path class="a" d="m80.1 484.8c-0.2 0.2-0.2 0.6 0 0.8q0.2 0.1 0.4 0.1 0.3-0.1 0.5-0.3c0.1-0.1 0.1-0.3 0.1-0.5-0.2-0.2-0.5-0.3-0.7-0.2-0.2 0.1-0.4 0.2-0.6 0.4z"/><path class="a" d="m133.3 448.7c-0.1 0-0.2-0.2-0.1-0.3q0.1-0.2 0.2-0.3c0.3-0.1 0.7-0.1 1 0.1 0.2 0.2 0.4 0.5 0.2 0.8-0.1 0.3-0.4 0.5-0.7 0.4-0.4-0.1-0.5-0.4-0.7-0.7z"/><path class="a" d="m142 445.7c0.1 0.2 0.3 0.4 0.5 0.5 0.3 0.1 0.6-0.1 0.6-0.3 0.1-0.2 0-0.4-0.2-0.5-0.2-0.1-0.5-0.1-0.6 0z"/><path class="a" d="m994.5 719.8c1.2 0 2.2-0.7 2.9-1.5 0.9-1 1.3-2.7 0.4-3.7-0.6-0.7-1.7-0.9-2.7-0.8-1.4 0.2-3.3 1.2-3.7 2.7-0.5 1.8 1.4 3.4 3.1 3.3z"/><path class="E" d="m1029.3 691.9c-0.3 0.1-0.3 0.6-0.1 0.7q0.2 0.2 0.5 0.1 0.2 0 0.4-0.2c0.1-0.2 0.2-0.4 0.1-0.5-0.1-0.3-0.4-0.3-0.7-0.3-0.2 0.1-0.4 0.3-0.6 0.5z"/><path class="a" d="m992.3 658.1c1.2 0.8 2.9 0.7 4.2 0 0.9-0.4 1.7-1.1 1.9-2.1 0.2-0.8-0.1-1.7-0.6-2.3-0.6-0.6-1.4-1.1-2.2-1.3-0.8-0.2-1.7-0.3-2.5 0-2.1 0.7-2.7 4.5-0.8 5.7z"/><path class="a" d="m981.2 652.3q-0.1-0.3-0.2-0.6c0.3-0.9 1.5-1.4 2.3-1 0.9 0.4 1.2 1.6 0.7 2.4-0.6 0.8-1.8 0.9-2.5 0.2-0.2-0.3-0.4-0.6-0.5-0.9z"/><path class="a" d="m908.9 674.5c-0.5 1.2 0.6 2.6 1.9 2.9 1.8 0.3 3.7-1.3 3.6-3.1 0-1.9-2-3.4-3.8-2.9-1.8 0.4-2.8 2.7-1.9 4.4z"/><path class="a" d="m947.8 675.1c-0.5-1.8 1.2-3.7 3-3.5 1.8 0.1 3 2.4 2.3 4-0.8 1.7-3.4 2.1-4.6 0.8z"/><path class="a" d="m906.8 697.6q0 1.3-0.1 2.6c1.3 0.9 3.4 0.3 3.7-1.2 0.4-1.5-2.1-2.7-2.9-1.4z"/><path class="a" d="m855.2 736.6c-0.3 0-0.5-0.3-0.4-0.6 0-0.2 0.2-0.5 0.3-0.7 0.4-0.4 0.7-0.9 1.2-1.2 0.8-0.5 1.8-0.5 2.6-0.1 0.8 0.5 1.3 1.4 1.4 2.3 0 0.3-0.1 0.7-0.3 1-0.3 0.6-1.1 0.8-1.8 0.9-1.2 0-2.6-0.6-2.7-1.8z"/><path class="a" d="m896.9 724.3c0.2-0.8 1.4-1.2 2-0.6 0.6 0.6 0.3 1.8-0.5 2.1-0.8 0.2-1.7-0.7-1.5-1.5z"/><path class="a" d="m810.6 747.7c-0.5 0.4-0.5 1.3 0 1.9 0.5 0.5 1.3 0.6 1.9 0.4 0.4-0.1 0.7-0.3 0.9-0.5 0.5-0.8-0.1-1.7-0.7-2.3-0.3-0.2-0.5-0.4-0.9-0.5-0.3 0-0.7 0.2-0.8 0.5z"/><path class="a" d="m931.8 648.1c-0.1-0.1-0.1-0.2-0.1-0.3q0.1-0.2 0.3-0.3c0.3-0.2 0.7-0.2 0.9 0 0.3 0.2 0.4 0.6 0.3 0.9-0.1 0.3-0.5 0.5-0.8 0.4-0.3-0.1-0.5-0.5-0.6-0.8z"/><path class="a" d="m940.6 645c0.1 0.3 0.2 0.5 0.5 0.5 0.2 0.1 0.5 0 0.6-0.2 0.1-0.2-0.1-0.5-0.3-0.6-0.2-0.1-0.4 0-0.6 0.1z"/><path class="a" d="m619.4 603.4c0.2-1.2 1.3-2.3 2.6-2.5 1.2-0.3 2.6 0.3 3.3 1.4 1.1 1.5 0.4 4-1.4 4.7-1.8 0.6-4-1-3.9-2.8z"/><path class="a" d="m690.2 642c-0.9 0.4-0.9 1.8-0.2 2.5 0.7 0.7 1.7 0.9 2.7 0.8 1.1-0.1 2.2-0.5 2.9-1.4 1.1-1.4 0.3-3.9-1.4-4.5-1.8-0.6-3.8 0.7-4.2 2.5z"/><path class="a" d="m646.9 738.6c1.1-0.1 2.2-0.7 2.9-1.5 0.9-1.1 1.3-2.7 0.4-3.7-0.6-0.8-1.7-0.9-2.7-0.8-1.4 0.2-3.4 1.2-3.8 2.6-0.5 1.9 1.5 3.5 3.2 3.4z"/><path class="E" d="m681.6 710.6c-0.2 0.2-0.2 0.7 0 0.8q0.2 0.1 0.4 0.1 0.3 0 0.5-0.2c0.1-0.2 0.2-0.4 0.1-0.6-0.1-0.2-0.4-0.3-0.7-0.2-0.2 0.1-0.4 0.3-0.6 0.5z"/><path class="a" d="m644.7 676.9c1.2 0.8 2.8 0.7 4.1 0 0.9-0.4 1.8-1.1 2-2.1 0.2-0.8-0.1-1.7-0.7-2.3-0.5-0.7-1.3-1.1-2.1-1.3-0.8-0.3-1.7-0.3-2.5-0.1-2.1 0.8-2.7 4.5-0.8 5.8z"/><path class="a" d="m633.6 671.1q-0.1-0.3-0.2-0.6c0.3-0.9 1.4-1.4 2.3-1 0.8 0.4 1.2 1.6 0.6 2.4-0.5 0.8-1.7 0.9-2.4 0.2-0.2-0.3-0.4-0.6-0.5-1z"/><path class="a" d="m652.3 640.1q-0.3 0.4-0.5 0.8c0.6 0.9 2 1 2.8 0.3q0.3-0.3 0.4-0.7c0.2-0.8-0.5-1.6-1.3-1.7-0.8-0.1-1.5 0.6-1.7 1.3z"/><path class="a" d="m618.5 652.9c0-0.9 1.2-1.6 1.9-1.1 0.8 0.5 0.7 1.8-0.1 2.2-0.8 0.4-1.9-0.3-1.9-1.2z"/><path class="a" d="m688.2 601.3c0.8-0.4 1.7-0.8 2-1.7 1.4-4.6-6.2-4.8-8.2-2-3.5 4.8 3 4.9 6.2 3.7z"/><path class="a" d="m641 652.7c-0.1 0.8 0.9 1.3 1.7 1.2 0.8-0.1 1.5-0.5 1.8-1.2 0.3-0.7 0.1-1.6-0.5-2-0.6-0.4-1.3-0.3-1.9 0.1-0.5 0.4-0.8 1-0.9 1.6z"/><path class="a" d="m1318.8 694c-0.5 1.2 0.6 2.6 1.9 2.9 1.8 0.3 3.7-1.3 3.7-3.1-0.1-1.9-2.1-3.4-3.9-2.9-1.7 0.4-2.8 2.7-1.9 4.4z"/><path class="a" d="m591.1 644.4c0-0.8 0.9-1.3 1.6-1 0.7 0.2 0.8 1.3 0.3 1.8-0.6 0.5-1.6 0.1-1.7-0.7z"/><path class="a" d="m600.1 693.9c-0.4-1.8 1.3-3.7 3.1-3.6 1.8 0.2 3 2.5 2.2 4.1-0.8 1.6-3.3 2-4.6 0.7z"/><path class="a" d="m1316.8 717.1q-0.1 1.3-0.1 2.6c1.2 0.9 3.4 0.4 3.7-1.2 0.3-1.5-2.1-2.7-2.9-1.4z"/><path class="a" d="m1341.8 667.6c-0.1-0.1-0.2-0.2-0.1-0.3q0.1-0.2 0.2-0.3c0.3-0.2 0.7-0.2 1 0 0.2 0.2 0.4 0.6 0.2 0.9-0.1 0.3-0.4 0.5-0.7 0.4-0.4-0.1-0.5-0.5-0.7-0.8z"/><path class="a" d="m616.4 662c0.1 0.3 0.2 0.5 0.5 0.5 0.2 0.1 0.5 0 0.6-0.3 0-0.2-0.1-0.4-0.3-0.5-0.2-0.1-0.4 0-0.6 0.1z"/><path class="a" d="m336.8 636.9c0.3-1.2 1.3-2.3 2.6-2.5 1.2-0.3 2.6 0.3 3.3 1.3 1.1 1.6 0.4 4.1-1.4 4.8-1.8 0.6-4-1-3.9-2.9z"/><path class="a" d="m407.6 675.5c-0.9 0.4-0.9 1.8-0.2 2.5 0.7 0.7 1.8 0.9 2.7 0.8 1.1-0.1 2.3-0.5 2.9-1.4 1.1-1.5 0.3-3.9-1.4-4.5-1.8-0.6-3.8 0.7-4.2 2.5z"/><path class="a" d="m362.1 710.4c1.2 0.8 2.9 0.6 4.2 0 0.9-0.4 1.7-1.2 1.9-2.1 0.2-0.8-0.1-1.7-0.7-2.4-0.5-0.6-1.3-1-2.1-1.2-0.8-0.3-1.7-0.4-2.5-0.1-2.1 0.8-2.7 4.5-0.8 5.8z"/><path class="a" d="m351 704.6q-0.1-0.3-0.2-0.6c0.3-0.9 1.5-1.4 2.3-1 0.9 0.4 1.2 1.6 0.7 2.4-0.6 0.7-1.8 0.9-2.5 0.2-0.2-0.3-0.4-0.6-0.5-1z"/><path class="a" d="m369.7 673.6q-0.2 0.4-0.5 0.8c0.6 0.9 2.1 1 2.8 0.2q0.3-0.2 0.4-0.6c0.2-0.8-0.5-1.6-1.3-1.7-0.8-0.1-1.5 0.5-1.7 1.3z"/><path class="a" d="m335.9 686.3c0-0.9 1.2-1.5 1.9-1 0.8 0.5 0.7 1.8-0.1 2.2-0.8 0.4-1.9-0.3-1.9-1.2z"/><path class="a" d="m405.6 634.7c0.8-0.3 1.7-0.8 2-1.6 1.5-4.6-6.1-4.8-8.2-2-3.5 4.8 3 4.9 6.2 3.6z"/><path class="a" d="m358.4 686.1c-0.1 0.9 0.9 1.4 1.7 1.3 0.8-0.1 1.5-0.6 1.8-1.2 0.3-0.7 0.1-1.6-0.5-2-0.6-0.4-1.3-0.3-1.9 0.1-0.5 0.4-0.8 1-0.9 1.6z"/><path class="a" d="m333.8 695.5c0.1 0.2 0.3 0.4 0.5 0.5 0.2 0.1 0.5 0 0.6-0.3 0.1-0.2-0.1-0.4-0.3-0.5q-0.3-0.1-0.6 0z"/><path class="a" d="m46.9 546.4c1.2 0.8 2.8 0.7 4.1 0.1 0.9-0.5 1.7-1.2 1.9-2.2 0.2-0.8-0.1-1.7-0.6-2.3-0.6-0.6-1.3-1-2.1-1.3-0.9-0.2-1.8-0.3-2.6 0-2.1 0.7-2.7 4.5-0.7 5.7z"/><path class="a" d="m833.6 186.5q-0.1-0.3-0.2-0.6c0.3-0.8 1.4-1.3 2.3-0.9 0.8 0.4 1.2 1.6 0.6 2.3-0.5 0.8-1.8 0.9-2.4 0.2-0.3-0.2-0.4-0.6-0.6-0.9z"/><path class="a" d="m52 404.8q-0.2 0.4-0.5 0.8c0.6 0.9 2.1 1 2.8 0.2q0.3-0.2 0.4-0.6c0.2-0.8-0.5-1.7-1.3-1.7-0.8-0.1-1.5 0.5-1.7 1.3z"/><path class="a" d="m841.5 161.2c0-0.9 1.1-1.6 1.9-1.1 0.7 0.5 0.6 1.8-0.2 2.2-0.7 0.4-1.8-0.3-1.8-1.2z"/><path class="a" d="m968.2 164c-0.5 1.2 0.6 2.6 1.9 2.9 1.8 0.4 3.7-1.3 3.7-3.1-0.1-1.8-2.1-3.3-3.9-2.9-1.7 0.5-2.8 2.8-1.9 4.4z"/><path class="a" d="m853.9 240.5c-1.4 1.3-1.3 3.6 0 4.9 1.3 1.2 3.6 1.1 4.9-0.1 1.4-1.2 1.6-3.4 0.7-5-0.5-0.9-1.4-1.6-2.4-1.7-1-0.1-2.1 0.5-2.4 1.5z"/><path class="a" d="m1090.2 490.1c-1.8 0.2-3.6 0.9-4.7 2.3-1.1 1.5-1.2 3.6 0 5 0.7 0.9 2 1.3 3.1 1.5 1.9 0.3 3.8 0 5.3-1.1 1.5-1 2.4-3.1 1.8-4.8-0.8-2.2-3.5-3.1-5.7-2.9z"/><path class="a" d="m1270.4 599.1q-1.6 1.4-2.7 3.2c-0.3 0.4-0.6 0.9-0.6 1.4 0 1.2 1.5 2 2.7 2.3 1.2 0.2 2.4 0.4 3.5-0.1 1.2-0.6 1.9-1.9 1.8-3.2 0-1.3-0.7-2.5-1.6-3.3-1-0.8-2.6-1.2-3.4-0.3z"/><path class="a" d="m1174.9 562.4c-1.4 1.2-1.3 3.6 0 4.8 1.3 1.3 3.6 1.2 5-0.1 1.3-1.2 1.5-3.4 0.6-4.9-0.5-0.9-1.4-1.6-2.4-1.7-1-0.1-2.1 0.5-2.4 1.5z"/><path class="a" d="m1225.4 591.6c-0.9 0.4-0.9 1.8-0.2 2.5 0.7 0.8 1.8 0.9 2.7 0.8 1.1-0.1 2.3-0.5 2.9-1.4 1.1-1.4 0.3-3.9-1.4-4.5-1.8-0.5-3.8 0.7-4.2 2.5z"/><path class="a" d="m1312.4 529.8c-0.4-0.1-0.7 0.3-0.8 0.7-0.1 0.3 0.1 0.7 0.3 1 0.6 0.8 1.8 1.1 2.7 0.6 0.8-0.5 1.2-1.7 0.6-2.5-0.5-0.9-1.9-1-2.5-0.2z"/><path class="a" d="m1299.4 514.3c-0.5 0.5-0.5 1.4 0 1.9 0.5 0.5 1.3 0.7 2 0.5 0.3-0.1 0.6-0.3 0.8-0.6 0.5-0.7 0-1.7-0.7-2.3-0.3-0.2-0.5-0.4-0.9-0.4-0.3-0.1-0.6 0.1-0.7 0.4z"/><path class="a" d="m1193.4 495.6c-0.3-0.1-0.4-0.4-0.4-0.6 0-0.3 0.2-0.5 0.4-0.7 0.3-0.5 0.7-0.9 1.1-1.3 0.8-0.5 1.8-0.5 2.6 0 0.8 0.4 1.4 1.3 1.4 2.2 0 0.4 0 0.7-0.2 1.1-0.4 0.5-1.2 0.8-1.9 0.8-1.1 0-2.5-0.6-2.7-1.8z"/><path class="a" d="m1259.5 542.9c-0.6 0.7-0.5 1.9 0.2 2.5 0.7 0.6 1.9 0.5 2.6-0.2 0.6-0.7 0.4-1.9-0.3-2.5-0.8-0.6-2-0.3-2.5 0.5z"/><path class="a" d="m1235.2 483.2c0.2-0.8 1.4-1.1 2-0.5 0.6 0.5 0.3 1.7-0.6 2-0.8 0.2-1.6-0.7-1.4-1.5z"/><path class="a" d="m1111.1 447.2c-1.3 1.2-1.2 3.6 0.1 4.8 1.3 1.3 3.6 1.2 4.9-0.1 1.3-1.2 1.6-3.4 0.7-4.9-0.5-0.9-1.4-1.6-2.5-1.7-1-0.1-2.1 0.5-2.4 1.5z"/><path class="a" d="m521.6 168.9c-0.8 0-1.3 1.1-1 1.9 0.4 0.8 1.3 1.2 2.2 1.3 1.4 0.2 3-0.1 4-1.2 1-1.1 1.1-3 0.1-4-0.8-0.8-2.2-0.9-3.3-0.5-1.1 0.5-1.9 1.5-2.4 2.5z"/><path class="a" d="m1284.1 162.8c0.1-0.7 1-1.2 1.7-0.9 0.6 0.2 0.8 1.3 0.3 1.8-0.6 0.5-1.6 0.1-1.7-0.7z"/><path class="E" d="m481 218.4c-0.4 0-0.7 0.3-0.8 0.7 0 0.4 0.1 0.7 0.3 1 0.6 0.8 1.8 1.1 2.7 0.6 0.9-0.4 1.2-1.7 0.7-2.5-0.6-0.8-2-1-2.6-0.2z"/><path class="E" d="m1255 151.4c-0.2-0.2-0.1-0.6 0.1-0.8 0.2-0.3 0.5-0.4 0.8-0.5 1.2-0.3 2.7 0.2 3 1.4 0.2 0.8-0.2 1.7-1 2-0.7 0.4-1.6 0.2-2.3-0.3-0.6-0.5-0.9-1.4-0.8-2.2z"/><path class="a" d="m479.9 200.7c1.2-0.1 2.2-0.7 3-1.5 0.8-1.1 1.2-2.7 0.4-3.7-0.7-0.8-1.8-0.9-2.8-0.8-1.4 0.2-3.3 1.2-3.7 2.6-0.5 1.9 1.4 3.5 3.1 3.4z"/><path class="a" d="m468.1 202.9c-0.6 0.5-0.5 1.4-0.1 1.9 0.5 0.5 1.3 0.7 2 0.5 0.3-0.1 0.7-0.3 0.8-0.6 0.5-0.7 0-1.7-0.7-2.2-0.2-0.3-0.5-0.5-0.8-0.5-0.3 0-0.7 0.1-0.8 0.4z"/><path class="a" d="m1258.5 167.7c-0.6 0.7-0.5 1.9 0.2 2.5 0.8 0.7 2 0.6 2.6-0.1 0.6-0.7 0.5-2-0.3-2.5-0.7-0.6-2-0.4-2.4 0.4z"/><path class="a" d="m1277.3 185.4c-0.1-0.1-0.1-0.3-0.1-0.4q0.1-0.2 0.3-0.2c0.2-0.2 0.6-0.2 0.9 0q0.5 0.3 0.3 0.9c-0.1 0.3-0.5 0.5-0.8 0.4-0.3-0.1-0.5-0.5-0.7-0.8z"/><path class="a" d="m1286 182.3c0.1 0.2 0.3 0.4 0.5 0.5 0.3 0.1 0.6 0 0.7-0.3 0-0.2-0.1-0.4-0.3-0.5q-0.3-0.1-0.6 0z"/><path class="F" d="m484.7 332.6c-7.1 0-12.9-5.8-12.9-12.9 0-7.2 5.8-13 12.9-13 7.2 0 12.9 5.8 12.9 13 0 7.1-5.7 12.9-12.9 12.9z"/><path class="G" d="m1062.9 367.8c-7.2 0-13-5.8-13-13 0-7.1 5.8-12.9 13-12.9 7.1 0 12.9 5.8 12.9 12.9 0 7.2-5.8 13-12.9 13z"/><path class="H" d="m1192.3 226.1c-7.1 0-12.9-5.7-12.9-12.9 0-7.1 5.8-12.9 12.9-12.9 7.2 0 12.9 5.8 12.9 12.9 0 7.2-5.7 12.9-12.9 12.9z"/><path class="I" d="m141.2 398.2c-3.4 0-6.1-2.8-6.1-6.2 0-3.4 2.7-6.2 6.1-6.2 3.5 0 6.2 2.8 6.2 6.2 0 3.4-2.7 6.2-6.2 6.2z"/><path class="J" d="m950.6 349.3c-16.9 0-30.5-13.7-30.5-30.6 0-16.8 13.6-30.5 30.5-30.5 16.9 0 30.5 13.7 30.5 30.5 0 16.9-13.6 30.6-30.5 30.6z"/><path class="K" d="m323.2 702c-16.9 0-30.5-13.6-30.5-30.5 0-16.9 13.6-30.5 30.5-30.5 16.9 0 30.6 13.6 30.6 30.5 0 16.9-13.7 30.5-30.6 30.5z"/><path class="L" d="m595 544.6l-23.6-27 87.7 39z"/><path class="M" d="m595 544.6l64.1 12-56.4 25.2z"/><path class="N" d="m595 544.6l7.7 37.2-49.1-13.5z"/><path class="L" d="m553.6 568.3l49.1 13.5-96.4 6.1z"/><path class="N" d="m521.1 634.6l-14.8-46.7 96.4-6.1z"/><path class="O" d="m506.3 587.9l-55.5 36.6 70.3 10.1z"/><path class="N" d="m506.3 587.9l-80.8-25.9 25.3 62.5z"/><path class="L" d="m425.5 562l25.3 62.5-82.2-56.8z"/><path class="O" d="m373.5 539.8l52 22.2-56.9 5.7z"/><path fill-rule="evenodd" class="L" d="m373.5 539.8l133.7-28.2-81.7 50.4zm6 74.4l-58.7-7.2-18-31.2z"/><path class="P" d="m320.7 607l100.8 36-42-28.8z"/><path class="L" d="m421.5 643l99.6-8.4-141.6-20.4z"/><path class="Q" d="m421.5 643h136.8l-37.2-8.4z"/><path class="P" d="m558.3 643l63.6-44.4-100.8 36z"/><path class="Q" d="m602.7 581.8l21.8 3.8 34.6-29z"/><path class="R" d="m624.5 585.6l-2.6 13-19.2-16.8z"/><path class="Q" d="m621.9 598.6l-3.5 17.4-60.1 27z"/><path class="M" d="m373.5 539.8l-4.9 27.9-65.9 8.1z"/><path class="O" d="m368.6 567.7l10.9 46.5-76.8-38.4z"/><path class="M" d="m368.6 567.7l10.9 46.5 71.3 10.3z"/><path class="O" d="m521.1 634.6l81.6-52.8 19.2 16.8z"/><path class="S" d="m323.5 399.7l89 47.1-76.2-49z"/><path class="T" d="m423.4 433.5l-56.6-15.2 45.7 28.5z"/><path class="U" d="m689.9 396.5l-16.3-1.1-51.8 18 22.7 0.5z"/><path class="V" d="m496.5 412l30.3 40.2-25 14.1z"/><path class="W" d="m526.8 452.2l29.6-44.4-59.9 4.2z"/><path fill-rule="evenodd" class="X" d="m496.5 412l5.3 54.3-28.3 13.5-24.3-36.1zm-86-56.3l24.8-44.7 19.6 40.8z"/><path class="V" d="m484.1 312l-14.1 38.9-14.5 7.1-11.5-14 24.9-27.4z"/><path class="Y" d="m456.3 335.7l-14.8-4.9-9.8 18.2 11.3 12.2 11.8-9.3z"/><path fill-rule="evenodd" class="Z" d="m470 350.9l-34.8 18.2 28.4 19.6 13.3-1.4 8.4-13.8-7.9-18.2z"/><path class="a0" d="m470 350.9l15.3 22.6-7.9-18.2z"/><path class="W" d="m407.5 380.2l39.8 30.9 1.9 32.6-26.1-20.4z"/><path class="a1" d="m447.3 411.1l49.2 0.9-6.4 35.3-40.9-3.6z"/><path class="a2" d="m496.5 412l17.6 22.1-24 13.2z"/><path class="a1" d="m514.1 434.1l26.7-13.4-8.3-42.8-36 34.1z"/><path class="a3" d="m540.8 420.7l15.6-12.9-0.4-48.8-23.5 18.9z"/><path class="a2" d="m556 359l14.7-19.3 3.2 26.2-5 28.1-12.5 13.8z"/><path class="a4" d="m570.7 339.7l-32.7-24.5-10 21.5z"/><path class="X" d="m528 336.7l4.5 41.2 23.5-18.9z"/><path class="a5" d="m556 359l14.7-19.3-42.7-3z"/><path class="W" d="m532.5 377.9l-65.9-0.9 29.9 35z"/><path class="V" d="m447.7 372.8l-0.4 38.3 49.2 0.9-29.9-35z"/><path class="X" d="m447.7 372.8l-40.2 7.4 39.8 30.9z"/><path class="a5" d="m407.5 380.2l2.9-24.4 44.4-3.9 0.7 6.1-7.8 14.8zm27.8-69.1l23.4-17.5 10.2 23-24.9 27.4z"/><path class="X" d="m468.9 316.6l15.2-4.6 18.9-27.2-44.2 8.8z"/><path class="W" d="m484.1 312l19.3 22.7-33.4 16.2z"/><path class="V" d="m484.1 312l53.9 3.2-35-30.4z"/><path class="a4" d="m484.1 312l19.3 22.7 24.6 2 10-21.5z"/><path class="a6" d="m503 284.8l44.7 24.9-9.7 5.5z"/><path fill-rule="evenodd" class="W" d="m547.7 309.7l23 30-32.7-24.5zm-44.2 25l-26.6 52.6-6.8-36.4zm24.5 2l4.5 41.2-29-43.2z"/><path class="V" d="m503.4 334.7l29.1 43.2-55.6 9.4z"/><path class="a0" d="m435.2 369.1l31.4 7.9-3 11.7z"/><path class="a7" d="m466.6 377l-11.1-19-20.3 11.1z"/><path class="a8" d="m455.5 358l14.5-7.1 15.3 22.6-18.7 3.5z"/><path class="a9" d="m466.6 377l18.7-3.5-8.4 13.8-13.3 1.4z"/><path class="aa" d="m444 344l10.8 7.9-11.8 9.3-11.3-12.2z"/><path class="ab" d="m444 344l12.3-8.3-14.8-4.9z"/><path class="ac" d="m441.5 330.8l2.5 13.2-12.3 5z"/><path class="ad" d="m503.4 334.7l9.9-6.9 14.7 8.9-0.5 13.2-12.3 9.9-12.8-9.4z"/><path class="ae" d="m503.4 334.7l11.8 10.3-1.9-17.2z"/><path class="ac" d="m515.2 345l12.3 4.9-12.3 9.9-12.8-9.4 1-15.7z"/><path class="af" d="m515.2 345v14.8l12.3-9.9z"/><path class="X" d="m423.1 423.3l1.8 54.5 24.3-34.1z"/><path class="V" d="m424.9 477.8l48.6 2-24.3-36.1z"/><path class="a5" d="m424.9 477.8l-25-28.3 23.2-26.2z"/><path class="X" d="m424.9 477.8l4 52-52.6-37.8 23.6-42.5z"/><path class="a5" d="m424.9 477.8l48.6 2-44.6 50zm48.6 2l33.8 31.7-5.4-45.2z"/><path class="X" d="m501.8 466.3l25-14.1 32.4 25.6-52 33.8z"/><path class="V" d="m507.2 511.6l1.4 47.9-42.5 11.5-37.2-41.2 44.6-50z"/><path class="W" d="m507.2 511.6l52-33.8-2.7 54.7-47.9 27z"/><path class="V" d="m556.4 407.8l-1.2 28.9-28.4 15.5z"/><path class="a3" d="m556.4 407.8l14.3 10-15.5 18.9z"/><path class="W" d="m555.2 436.7l4 41.1-32.4-25.6z"/><path class="a2" d="m570.7 417.8l15.5 16.8-27 43.2-4-41.1z"/><path class="W" d="m586.2 434.6l-14.8 83-12.2-39.8z"/><path fill-rule="evenodd" class="a1" d="m559.2 477.8l-2.7 54.7 14.9-14.9zm12.2 39.8l28.4-27-0.7-39.8-12.8-16.2z"/><path class="a3" d="m599.7 490.6l-4.7 54-23.6-27z"/><path class="a2" d="m595 544.6l-23 27.7-15.5-39.8 14.9-14.9z"/><path class="a1" d="m556.5 532.5l-47.9 27 39.8 27 23.6-14.2z"/><path class="a3" d="m376.3 492l39.8 96.5 12.8-58.7z"/><path class="a1" d="m416.1 588.5l47.3 16.9 2.7-34.4-37.2-41.2z"/><path class="a3" d="m466.1 571l-2.7 34.4 41.1 10.8 43.9-29.7-39.8-27z"/><path class="U" d="m561.5 454.6l8.5-17.9 41.7-11.1z"/><path class="S" d="m561.5 454.6l23.8 1.1 47.6-27.5-21.2-2.6zm50.2-29.1l10.1-12.2-51.8 23.3z"/><path class="T" d="m621.8 413.4l15.3-24.8-4.2 39.6-21.2-2.6z"/><path class="S" d="m637.1 388.6l7.4 25.3-11.6 14.3z"/><path class="ag" d="m366.8 418.3l-28.1-34.8-2.4 14.3z"/><path fill-rule="evenodd" class="T" d="m338.7 383.5l-15.2 16.2 12.8-1.9zm294.2 44.7l57.1-31.7-45.5 17.4z"/><path class="M" d="m629.3 588.7l30.9-18.5-7.1 22.6z"/><path class="L" d="m653.1 592.8l20.8-0.6-13.7-22z"/><path class="N" d="m660.2 570.2l36.9 17.9-23.2 4.1z"/><path class="Q" d="m629.3 588.7l36.9 14.8 7.7-11.3-20.8 0.6z"/><path class="R" d="m666.2 603.5l30.9-15.4-23.2 4.1z"/><path fill-rule="evenodd" class="ah" d="m110 223c0-9.9 8.1-18 18-18h744c9.9 0 18 8.1 18 18v458c0 9.9-8.1 18-18 18h-744c-9.9 0-18-8.1-18-18z"/></g><g clip-path="url(#cp3)"></g><g clip-path="url(#cp4)"></g><g clip-path="url(#cp5)"></g><g clip-path="url(#cp6)"></g></g><path class="ai" d="m833 1481c-24.3 0-44-19.7-44-44 0-24.3 19.7-44 44-44 24.3 0 44 19.7 44 44 0 24.3-19.7 44-44 44z"/><g clip-path="url(#cp7)"><path class="aj" d="m811.1 1466.8l-29.2 19.1-11.5-29.9 27.9-12.2 6.1-13 13.8-3.6 4.1-2.2 20.7-17.2 5.9-0.1 2 2.3 0.4 4.9-19.4 16.6 27.2-5.6 1 0.5 2.4 3.1-0.6 4.9-2.9 2.3-17.9 4.2-6.6 1.7 2.8 0.1 1.8 1.6 1.1 3.8-0.6 3.1 1 1.3-1.6 6-2.9 2.5-3.3 0.2-1.8 0.9-8.7 4.8z"/><path class="a" d="m811 1464.8l-26.1 16.4-11.1-24 26.7-11.5 5.5-12.4 12.6-3.6 6.7 12.3-2.4 2.4-4.5-1.6-3.3-3-0.1-3.2-1 2.4-3.2 2.7 1.5-0.4 2.7 5.1-5.1 6.7 8.3-3.8 3.8 11.1 7.8 0.4-8 4.3z"/><path fill-rule="evenodd" class="a" d="m822.4 1458.2l1.1 1.2 12.1-0.2 2-2 1-4.5-14.5 2.3-2 1zm15.7-11.5l-1.2-2.1-2.7-0.4-12.1 3.8-1.4 1.3 1 3.5 14.9-1.2 1.5-1.5zm21.9-16.6l-1.5-1.9-29.8 6.4-0.2-2.1-2.8-0.8 3.9-0.5 20.1-17.1-0.6-3.1-1.7-1.1-3.7 0.4-20.1 16.6-3.6 2 8.4 15.7 4.9-1.5-1.5-2.8 2.4 0.2 24.1-5.8 1.7-1.6z"/></g><path class="ak" d="m721 1339c-24.3 0-44-19.7-44-44 0-24.3 19.7-44 44-44 24.3 0 44 19.7 44 44 0 24.3-19.7 44-44 44z"/><g clip-path="url(#cp8)"><path class="al" d="m675.2 1309.1l18.9-8.8 2.7-9.6 6.3-14.9v-0.1l0.2-0.1 2.9-1.7 0.2-0.1 0.3 0.1 2.9 1.6 0.3 0.1v0.3l0.4 2.5v0.1l-1.3 7.9 4.1-1.7 18.9-10.3h0.1l2.1-0.7 0.2-0.1 0.2 0.1 2.7 1.4 0.3 0.2-0.1 0.3-0.8 3.3v0.1l-0.1 0.1-0.8 0.7 1.5-0.9 0.1-0.1h0.1l3.5-0.2 0.5-0.1 0.1 0.5 0.1 3.6v0.1l-0.1 0.1-0.9 2.5v0.1l-0.1 0.1-0.5 0.4v0.1h-0.1l-6.2 4 5.1-2.6 0.1-0.1 0.2 0.1 3.4 0.3h0.5v0.5l-0.4 4.1v0.2l-0.1 0.1-1.7 1.5v0.1h-0.1l-2.9 1.8 3.6 0.2h0.5v0.5l-0.1 3.3v0.2l-0.1 0.2-2 1.7-25.9 16-0.2 0.1h-8.4l-17.3 13-0.4 0.3-0.3-0.5-12.3-21.2-0.2-0.4z"/><path class="a" d="m705.1 1316.8l-18.6 13.9-11.4-19.8 20.2-9.8 2.9-9.9 6-14.8 2.3-1.1 2.1 0.9 0.5 2.4-1.7 9.9 6.1-2.9 18.8-10 2.1-0.8 1.9 1.1-0.7 2.1-1.7 1.8-13.6 9.5-0.3 0.6-0.3 0.5 0.7-0.2 0.3 0.8 0.2-1.3 16.7-9.5 2.4-0.3 0.2 2.7-0.7 2.1-16.6 10.5-0.3 1.9 0.8-0.3 0.6 1-0.1-1.5 14.8-7.5 2.8 0.1v2.7l-1.2 1.3-15.9 10.1-1.3 2.3 0.9-0.3 0.9 1.8-0.1-2.5 12.4-7.1 3.1 0.1 0.2 2.3-1.2 1.4-25.6 15.9z"/></g><path fill-rule="evenodd" class="a" d="m190 831h-5.8l16.8-36.8h-22.7v-4.5h28.4v4zm26.9 0h-5.4l11.6-15.5-11.2-15.1h5.6l8.5 11.4h0.3l8.5-11.4h5.4l-11.1 15 11.6 15.6h-5.7l-8.9-11.8h-0.3zm59.9 0.4q-2.1 0-4.1-0.3-2-0.3-3.6-1.3-1.5-1.1-2.4-3.2h-0.4l-0.2 4.4h-4.4v-44.6h4.9v17.9h0.3q0.9-1.7 2.2-2.7 1.5-0.9 3.4-1.3 1.9-0.4 4.4-0.4 3.3 0 5.4 0.8 2.2 0.7 3.5 2.4 1.2 1.8 1.7 4.8 0.5 3.1 0.5 7.8 0 4.6-0.5 7.7-0.5 3.1-1.8 4.8-1.3 1.7-3.5 2.5-2.1 0.7-5.4 0.7zm-2-4.3q2.8 0 4.4-0.3 1.7-0.5 2.5-1.6 0.9-1.1 1.2-3.4 0.3-2.3 0.3-6.1 0-3.9-0.3-6.1-0.3-2.3-1.2-3.4-0.8-1.2-2.5-1.6-1.6-0.3-4.4-0.3-2.9 0-4.6 0.7-1.8 0.8-2.5 2.4-0.7 1.5-0.9 3.6-0.2 2-0.2 4.7 0 2.6 0.1 4.6 0.2 2 0.9 3.6 0.8 1.7 2.6 2.4 1.7 0.8 4.6 0.8zm32.7 4.3q-3.3 0-5.4-0.7-2.1-0.7-3.1-2.1-1.1-1.5-1.5-3.7-0.4-2.3-0.4-5.4v-19.1h4.9v17.4q0 3.1 0.3 4.9 0.2 1.9 1 2.9 0.8 0.9 2.3 1.2 1.5 0.3 3.9 0.3 3 0 4.7-0.8 1.7-0.7 2.4-2.1 0.8-1.5 1-3.4 0.2-2.1 0.2-4.7v-15.7h4.9v30.6h-4.4l-0.2-4.4h-0.4q-0.6 1.4-1.8 2.5-1.2 1.1-3.2 1.7-2 0.6-5.2 0.6zm33-0.4h-4.9v-26.5h-6.2v-4.1h6.2v-8.9h4.9v8.9h7.3v4.1h-7.3zm40.2 0.5q-3.7 0-6.3-0.4-2.4-0.5-3.9-1.5-1.4-1.1-2.1-2.9-0.7-1.8-0.9-4.5-0.1-2.7-0.1-6.5 0-3.8 0.1-6.5 0.2-2.7 0.9-4.5 0.7-1.8 2.1-2.9 1.5-1 3.9-1.4 2.6-0.5 6.3-0.5 3.9 0 6.3 0.5 2.5 0.4 3.9 1.4 1.5 1.1 2.2 2.9 0.7 1.8 0.9 4.5 0.2 2.7 0.2 6.5 0 3.8-0.2 6.5-0.2 2.7-0.9 4.5-0.7 1.8-2.2 2.9-1.4 1-3.9 1.5-2.4 0.4-6.3 0.4zm0-4.2q3.3 0 5-0.4 1.8-0.4 2.5-1.6 0.8-1.2 0.9-3.5 0.2-2.3 0.2-6.1 0-3.8-0.2-6.1-0.1-2.3-0.9-3.5-0.7-1.2-2.5-1.6-1.7-0.4-5-0.4-3.1 0-4.9 0.4-1.8 0.4-2.5 1.6-0.7 1.2-0.9 3.5-0.2 2.3-0.2 6.1 0 3.8 0.2 6.1 0.2 2.3 0.9 3.5 0.7 1.2 2.5 1.6 1.8 0.4 4.9 0.4zm27.5 3.7h-5v-30.6h4.5l0.2 4.4h0.3q0.7-1.5 1.8-2.5 1.2-1.1 3.2-1.7 2-0.7 5.2-0.7 3.4 0 5.4 0.7 2.1 0.8 3.1 2.2 1.2 1.4 1.5 3.7 0.4 2.2 0.4 5.4v19.1h-4.9v-17.5q0-3.1-0.3-4.9-0.2-1.8-1-2.7-0.8-1-2.3-1.3-1.5-0.3-3.9-0.3-3 0-4.6 0.8-1.7 0.7-2.5 2.1-0.8 1.4-1 3.5-0.1 1.9-0.1 4.5zm35.9 0h-4.9v-44.6h4.9zm22.1 12.4q-1.8 0-3.7-0.1-1.8-0.1-3.6-0.1-1.7-0.2-3-0.3v-3.9q2 0 3.6 0.1 1.7 0.1 3.1 0.2 1.4 0 2.6 0 3.4 0 5.4-0.6 2.1-0.5 3-1.7 1-1.3 1.2-3.3 0.3-2.1 0.3-5v-1.8h-0.3q-0.5 1.2-1.7 2.2-1.1 1-3.1 1.6-2 0.6-5.1 0.6-3.4 0-5.5-0.6-2-0.7-3.1-2.2-1.1-1.5-1.5-3.7-0.4-2.2-0.4-5.3v-19.1h4.9v17.4q0 3.1 0.3 5 0.2 1.8 1 2.8 0.8 0.9 2.3 1.2 1.5 0.3 3.9 0.3 3 0 4.7-0.7 1.7-0.8 2.4-2.3 0.8-1.4 1-3.4 0.2-2 0.2-4.5v-15.8h4.9v26.9q0 4.3-0.5 7.5-0.4 3-1.9 4.9-1.3 1.9-4.1 2.8-2.8 0.9-7.3 0.9zm50.4-11.9q-3.8 0-6.3-0.4-2.5-0.5-3.9-1.5-1.5-1-2.2-2.8-0.6-1.8-0.8-4.5-0.2-2.8-0.2-6.6 0-3.7 0.2-6.4 0.2-2.8 0.8-4.6 0.7-1.8 2.2-2.8 1.4-1 3.9-1.5 2.5-0.4 6.3-0.4 3.8 0 6.3 0.4 2.4 0.5 3.9 1.5 1.5 1 2.1 2.8 0.8 1.8 0.9 4.6 0.2 2.7 0.2 6.4 0 3.8-0.2 6.6-0.1 2.7-0.9 4.5-0.6 1.8-2.1 2.8-1.5 1-3.9 1.5-2.5 0.4-6.3 0.4zm0-4.1q3.2 0 5-0.4 1.7-0.5 2.4-1.7 0.8-1.2 0.9-3.4 0.2-2.4 0.2-6.2 0-3.7-0.2-6-0.1-2.4-0.9-3.6-0.7-1.2-2.4-1.6-1.8-0.4-5-0.4-3.2 0-5 0.4-1.7 0.4-2.5 1.6-0.7 1.2-0.9 3.6-0.1 2.3-0.1 6 0 3.8 0.1 6.2 0.2 2.2 0.9 3.4 0.8 1.2 2.5 1.7 1.8 0.4 5 0.4zm27.4 3.6h-4.9v-30.6h4.4l0.2 4.4h0.4q0.6-1.4 1.8-2.5 1.2-1.1 3.1-1.7 2.1-0.6 5.2-0.6 3.4 0 5.5 0.7 2 0.7 3.1 2.1 1.1 1.5 1.5 3.8 0.3 2.2 0.3 5.3v19.1h-4.8v-17.4q0-3.1-0.3-4.9-0.3-1.9-1-2.8-0.8-1-2.3-1.3-1.5-0.3-4-0.3-2.9 0-4.6 0.8-1.7 0.7-2.5 2.2-0.7 1.4-0.9 3.4-0.2 2-0.2 4.6zm52.6 0h-4.8v-26.5h-6.3v-4.1h6.3v-4.9q0-2.6 0.4-4.2 0.4-1.7 1.3-2.6 1-1.1 2.5-1.5 1.5-0.5 3.6-0.6 2.1-0.2 4.9-0.2v3.8q-2.4 0-4 0.1-1.5 0.2-2.4 0.7-0.8 0.4-1.2 1.3-0.3 0.9-0.3 2.4v5.7h7.9v4.1h-7.9zm19.8 0h-4.9v-30.6h4.9zm0.1-39.2h-5.2v-5.4h5.2zm15.1 39.3h-4.9v-30.6h4.4l0.2 5.8h0.4q0.7-2.5 2.2-3.9 1.4-1.4 3.5-1.9 2-0.5 4.5-0.5v4.8q-4.2 0-6.4 1.3-2.2 1.3-3.1 4.1-0.8 2.7-0.8 6.9zm27.3 0.5q-1.7 0-3.7-0.1-2-0.1-3.9-0.2-1.9-0.2-3.5-0.5v-3.9q1.4 0.1 2.8 0.2 1.3 0.1 2.7 0.3 1.3 0 2.6 0.1 1.3 0 2.7 0 3.1 0 4.5-0.4 1.4-0.5 1.9-1.6 0.4-1.1 0.4-2.8 0-2-0.3-2.9-0.3-0.9-1.2-1.1-0.7-0.3-2.4-0.5l-7.9-0.9q-2.8-0.3-4.2-1.2-1.5-1-2-2.7-0.6-1.8-0.6-4.4 0-3 0.9-4.8 0.8-1.8 2.4-2.7 1.5-0.9 3.8-1.1 2.2-0.3 4.9-0.3 1.6 0 3.3 0.1 1.8 0.1 3.5 0.3 1.6 0.2 2.8 0.4v4q-1.5-0.3-3.1-0.4-1.6-0.2-3.3-0.2-1.6-0.1-3.3-0.1-2.3 0-3.9 0.2-1.6 0.3-2.4 1.2-0.8 1-0.8 3.2 0 1.8 0.2 2.7 0.3 0.8 1.2 1.2 0.8 0.3 2.3 0.4l8.3 0.9q2.4 0.3 3.8 1 1.5 0.7 2.1 2.4 0.6 1.7 0.6 5.2 0 2.9-0.7 4.7-0.7 1.7-2.1 2.7-1.4 1-3.5 1.3-2.1 0.3-4.9 0.3zm26.9-0.5h-4.9v-26.4h-6.2v-4.2h6.2v-8.8h4.9v8.8h7.3v4.2h-7.3zm35.6 0h-4.9v-26.5h-6.2v-4.1h6.2v-8.9h4.9v8.9h7.3v4.1h-7.3zm24.4 0.5q-3.3 0-5.4-0.7-2.1-0.7-3.1-2.2-1.1-1.4-1.5-3.6-0.4-2.3-0.4-5.4v-19.2h4.9v17.5q0 3 0.3 4.9 0.2 1.9 1 2.8 0.8 0.9 2.3 1.2 1.5 0.3 3.9 0.3 3 0 4.7-0.7 1.7-0.8 2.4-2.2 0.8-1.4 1-3.4 0.2-2 0.2-4.6v-15.8h4.9v30.6h-4.4l-0.2-4.4h-0.4q-0.6 1.5-1.8 2.6-1.2 1-3.2 1.7-2 0.6-5.2 0.6zm30.5-0.5h-5v-30.6h4.4l0.3 5.9h0.3q0.8-2.6 2.2-4 1.5-1.3 3.5-1.8 2.1-0.6 4.5-0.6v4.8q-4.1 0-6.3 1.4-2.3 1.3-3.1 4-0.8 2.8-0.8 7zm22 0h-4.9v-30.6h4.4l0.2 4.4h0.3q0.7-1.5 1.8-2.5 1.2-1.1 3.2-1.7 2.1-0.7 5.2-0.7 3.4 0 5.4 0.7 2.1 0.8 3.2 2.2 1.1 1.4 1.5 3.7 0.3 2.2 0.3 5.4v19.1h-4.8v-17.5q0-3.1-0.3-4.9-0.3-1.8-1.1-2.7-0.7-1-2.2-1.3-1.5-0.3-4-0.3-2.9 0-4.6 0.8-1.7 0.7-2.5 2.1-0.8 1.4-0.9 3.5-0.2 1.9-0.2 4.5zm-685.4 72.5q-3.8 0-6.3-0.4-2.5-0.5-3.9-1.5-1.5-1-2.2-2.8-0.7-1.8-0.8-4.5-0.2-2.8-0.2-6.6 0-3.8 0.2-6.5 0.1-2.7 0.8-4.5 0.7-1.8 2.2-2.8 1.4-1.1 3.9-1.5 2.5-0.5 6.3-0.5 3.8 0 6.3 0.5 2.4 0.4 3.9 1.5 1.5 1 2.1 2.8 0.7 1.8 0.9 4.5 0.2 2.7 0.2 6.5 0 3.8-0.2 6.6-0.2 2.7-0.9 4.5-0.6 1.8-2.1 2.8-1.5 1-3.9 1.5-2.5 0.4-6.3 0.4zm0-4.1q3.2 0 4.9-0.5 1.8-0.4 2.5-1.6 0.8-1.2 0.9-3.5 0.2-2.3 0.2-6.1 0-3.8-0.2-6-0.1-2.4-0.9-3.6-0.7-1.2-2.5-1.6-1.7-0.4-4.9-0.4-3.2 0-5 0.4-1.8 0.4-2.5 1.6-0.7 1.2-0.9 3.6-0.2 2.2-0.2 6 0 3.8 0.2 6.1 0.2 2.3 0.9 3.5 0.7 1.2 2.5 1.6 1.8 0.5 5 0.5zm30 3.6h-4.9v-26.4h-6.2v-4.2h6.2v-4.8q0-2.6 0.4-4.2 0.4-1.7 1.3-2.7 1-1 2.5-1.5 1.5-0.5 3.6-0.6 2.2-0.1 5-0.1v3.7q-2.5 0-4 0.2-1.6 0.2-2.4 0.7-0.9 0.4-1.2 1.3-0.3 0.9-0.3 2.3v5.7h7.9v4.2h-7.9zm36.3 0h-4.8v-26.5h-6.2v-4.1h6.2v-8.9h4.8v8.9h7.3v4.1h-7.3zm19 0h-4.9v-44.6h4.9v18h0.3q0.6-1.2 1.7-2.3 1.2-1 3.1-1.5 2-0.6 5.1-0.6 3.3 0 5.4 0.7 2.1 0.7 3.2 2.1 1.1 1.4 1.5 3.7 0.3 2.2 0.3 5.4v19.1h-4.8v-17.5q0-3.1-0.3-4.9-0.3-1.8-1.1-2.7-0.7-1-2.2-1.3-1.5-0.3-4-0.3-2.9 0-4.6 0.8-1.7 0.7-2.5 2.1-0.8 1.4-0.9 3.5-0.2 1.9-0.2 4.5zm43.5 0.5q-3.7 0-6.3-0.5-2.4-0.5-3.9-1.5-1.5-1.2-2.3-3-0.8-1.8-1-4.5-0.3-2.6-0.3-6.2 0-4.3 0.4-7.3 0.4-3 1.6-4.9 1.3-1.9 4.1-2.8 2.8-0.9 7.4-0.9 3.6 0 5.8 0.6 2.3 0.5 3.6 1.7 1.3 1.1 1.9 3 0.7 1.9 0.9 4.5 0.1 2.6 0.1 6v1.6h-20.9q0 3.2 0.3 5.1 0.3 2 1.2 3.1 1 1.1 2.9 1.5 2.1 0.4 5.6 0.4 1.4 0 3.1 0 1.8-0.2 3.5-0.3 1.8-0.2 3.1-0.4v4q-1.2 0.2-3.1 0.4-1.8 0.2-3.8 0.3-2 0.1-3.9 0.1zm7.3-17.6v1l1.1-1zm0-0.6q0.1-3.2-0.3-5-0.4-1.8-1.3-2.7-0.8-1-2.3-1.3-1.5-0.3-3.7-0.3-2.9 0-4.6 0.4-1.7 0.4-2.5 1.4-0.9 1-1.2 3-0.3 1.9-0.3 5.1h16.2zm39.1 30.1q-1.9 0-4-0.1-1.9-0.1-3.7-0.2-1.8-0.1-3.1-0.3v-3.9q1.4 0.1 3.2 0.2 1.7 0.1 3.4 0.1 1.7 0 3.1 0 3.5 0 5.5-0.4 2-0.5 3-1.7 1-1.2 1.2-3.4 0.3-2.1 0.3-5.5v-1.3h-0.3q-0.7 1.7-2.1 2.7-1.4 0.9-3.3 1.4-1.9 0.3-4.4 0.3-3.4 0-5.6-0.7-2.1-0.7-3.4-2.4-1.3-1.7-1.8-4.8-0.5-3.1-0.5-7.7 0-4.7 0.6-7.7 0.5-3.1 1.8-4.8 1.2-1.8 3.4-2.5 2.2-0.8 5.6-0.8 2 0 4 0.4 2 0.3 3.5 1.4 1.6 1.1 2.5 3.1h0.3l0.3-4.4h4.4v26.7q0 4.4-0.5 7.5-0.4 3.1-1.8 5.1-1.4 1.9-4.2 2.8-2.7 0.9-7.4 0.9zm0.7-16.3q3 0 4.8-0.8 1.7-0.9 2.5-2.6 0.6-1.4 0.8-3.4 0.1-2 0.1-4.6 0-2.6-0.1-4.5-0.1-2-0.8-3.3-0.7-2-2.5-2.8-1.8-0.8-4.8-0.8-2.7 0-4.4 0.4-1.6 0.3-2.5 1.5-0.8 1.1-1.1 3.4-0.3 2.3-0.3 6.1 0 3.7 0.3 6 0.3 2.3 1.1 3.4 0.9 1.2 2.5 1.6 1.7 0.4 4.4 0.4zm31.7 4.4q-3.4 0-5.6-0.8-2.3-0.8-3.4-2.7-1.1-1.9-1.1-5.4 0-3.5 0.8-5.4 0.8-2.1 2.9-2.9 2-0.9 5.7-0.9 0.6 0 1.8 0.1 1.4 0 3 0.1 1.7 0 3.4 0 1.7 0 3.2 0.1v-1.9q0-2.7-0.4-4.2-0.3-1.6-1.3-2.3-1-0.8-2.9-1-1.8-0.2-4.8-0.2-1.3 0-3.1 0.1-1.8 0.1-3.5 0.2-1.7 0.2-2.7 0.3v-3.9q2.2-0.4 5.1-0.6 2.8-0.3 5.9-0.3 3.2 0 5.5 0.5 2.2 0.3 3.6 1.2 1.5 0.8 2.2 2.2 0.7 1.4 0.9 3.3 0.3 2 0.3 4.7v19.2h-4.3l-0.2-4.3h-0.4q-0.9 2.1-2.7 3.2-1.8 1-3.9 1.3-2.1 0.3-4 0.3zm1.8-4q1.7 0 3.2-0.2 1.5-0.2 2.7-0.8 1.1-0.6 1.8-1.8 0.6-1.3 0.9-2.7 0.3-1.5 0.3-3.5v-1.6h-10.2q-2.4 0-3.6 0.4-1.3 0.3-1.8 1.5-0.4 1.1-0.4 3.4 0 2.2 0.6 3.4 0.5 1.1 2 1.5 1.6 0.4 4.5 0.4zm29 3.5h-4.9v-30.6h4.5l0.1 4.4h0.4q0.5-1.4 1.6-2.5 1.2-1.1 3-1.7 1.8-0.7 4.7-0.7 4.1 0 6.1 1.2 1.9 1.2 2.7 3.7h0.4q0.6-1.4 1.7-2.5 1.2-1.1 3.1-1.7 1.9-0.7 4.7-0.7 4.2 0 6.2 1.3 2 1.3 2.7 3.9 0.7 2.6 0.7 6.8v19.1h-4.9v-17.4q0-3.2-0.2-5-0.3-1.8-0.9-2.7-0.7-1-2-1.3-1.3-0.3-3.6-0.3-2.5 0-4 0.7-1.5 0.7-2.3 2.1-0.6 1.4-0.8 3.4-0.2 2-0.2 4.7v15.8h-4.8v-17.4q0-3.2-0.3-5-0.2-1.8-0.9-2.7-0.6-1-2-1.3-1.3-0.3-3.5-0.3-2.6 0-4.1 0.8-1.5 0.7-2.1 2.1-0.7 1.4-0.9 3.4-0.2 2.1-0.2 4.6zm60.5 0.5q-3.7 0-6.2-0.5-2.5-0.4-4-1.5-1.5-1.2-2.3-3-0.7-1.8-1-4.5-0.2-2.6-0.2-6.2 0-4.3 0.3-7.3 0.4-3 1.7-4.9 1.3-1.9 4-2.7 2.8-0.9 7.5-0.9 3.5 0 5.7 0.5 2.3 0.5 3.6 1.7 1.4 1.1 2 3 0.6 1.9 0.8 4.5 0.2 2.6 0.2 6v1.7h-21q0 3.1 0.3 5.1 0.3 1.9 1.2 3 1 1.1 3 1.5 2 0.4 5.5 0.4 1.4 0 3.2 0 1.7-0.1 3.5-0.3 1.7-0.2 3.1-0.4v4q-1.3 0.2-3.1 0.4-1.8 0.2-3.9 0.3-2 0.1-3.9 0.1zm7.3-17.6v1l1.2-1zm0-0.6q0-3.1-0.4-4.9-0.3-1.9-1.2-2.8-0.9-1-2.4-1.3-1.5-0.3-3.7-0.3-2.9 0-4.6 0.5-1.6 0.3-2.5 1.3-0.8 1.1-1.1 3-0.3 1.9-0.3 5.1h16.2zm11.1 24.9v-2.3q1.5 0 2.3-0.3 0.7-0.3 1-1.1 0.2-0.9 0.2-2.4v-1.1h-2.2v-5.8h5.7v4.9q0 2.5-0.3 4.1-0.2 1.6-1 2.5-0.7 0.8-2.1 1.2-1.3 0.3-3.6 0.3zm42.2-6.7q-3.8 0-6.3-0.4-2.4-0.5-3.9-1.5-1.4-1-2.1-2.8-0.7-1.8-0.9-4.5-0.2-2.8-0.2-6.6 0-3.7 0.2-6.4 0.2-2.8 0.9-4.6 0.7-1.8 2.1-2.8 1.5-1 3.9-1.5 2.5-0.4 6.3-0.4 3.9 0 6.3 0.4 2.5 0.5 3.9 1.5 1.5 1 2.2 2.8 0.7 1.8 0.9 4.6 0.2 2.7 0.2 6.4 0 3.8-0.2 6.6-0.2 2.7-0.9 4.5-0.7 1.8-2.2 2.8-1.4 1-3.9 1.5-2.4 0.4-6.3 0.4zm0-4.1q3.3 0 5-0.4 1.7-0.5 2.5-1.7 0.7-1.2 0.9-3.4 0.1-2.4 0.1-6.2 0-3.7-0.1-6-0.2-2.4-0.9-3.6-0.8-1.2-2.5-1.6-1.7-0.4-5-0.4-3.2 0-5 0.4-1.7 0.4-2.4 1.6-0.7 1.2-0.9 3.6-0.2 2.3-0.2 6 0 3.8 0.2 6.2 0.2 2.2 0.9 3.4 0.7 1.2 2.4 1.7 1.8 0.4 5 0.4zm29.7 3.6h-4.9v-26.4h-6.2v-4.2h6.2v-8.8h4.9v8.8h7.3v4.2h-7.3zm18.9 0h-4.9v-44.6h4.9v18h0.3q0.6-1.3 1.8-2.3 1.1-1 3.1-1.5 2-0.6 5-0.6 3.4 0 5.4 0.7 2.1 0.6 3.2 2.1 1.1 1.4 1.5 3.7 0.4 2.2 0.4 5.3v19.2h-4.9v-17.5q0-3.1-0.3-4.9-0.2-1.9-1-2.8-0.8-0.9-2.3-1.2-1.5-0.3-4-0.3-2.9 0-4.6 0.8-1.7 0.7-2.4 2.1-0.8 1.4-1 3.4-0.2 2-0.2 4.6zm43.5 0.5q-3.7 0-6.2-0.5-2.5-0.5-4-1.6-1.5-1.1-2.3-2.9-0.7-1.9-1-4.5-0.2-2.6-0.2-6.2 0-4.3 0.3-7.3 0.4-3.1 1.7-4.9 1.3-1.9 4-2.8 2.8-0.9 7.5-0.9 3.5 0 5.7 0.6 2.3 0.5 3.6 1.6 1.4 1.2 2 3.1 0.6 1.9 0.8 4.5 0.2 2.6 0.2 6v1.6h-21q0 3.1 0.3 5.1 0.3 2 1.2 3.1 1 1.1 3 1.5 2 0.4 5.5 0.4 1.4 0 3.2-0.1 1.7-0.1 3.5-0.3 1.7-0.1 3.1-0.3v3.9q-1.3 0.3-3.1 0.5-1.8 0.1-3.9 0.3-2 0.1-3.9 0.1zm7.3-17.7v1.1l1.2-1.1zm0-0.6q0-3.1-0.4-4.9-0.3-1.8-1.2-2.7-0.9-1-2.4-1.3-1.5-0.3-3.7-0.3-2.9 0-4.6 0.4-1.6 0.4-2.5 1.4-0.8 1-1.1 2.9-0.3 2-0.3 5.1h16.2zm18.6 17.8h-4.9v-30.6h4.4l0.2 5.9h0.4q0.8-2.6 2.2-4 1.5-1.4 3.5-1.8 2-0.6 4.5-0.6v4.8q-4.1 0-6.4 1.3-2.2 1.4-3 4.1-0.9 2.8-0.9 7zm29.3 0h-5.7l-9.8-30.6h5.1l7.5 24.6h0.4l7.4-24.6h4.7l7.4 24.6h0.5l7.4-24.6h4.9l-9.8 30.6h-5.6l-7.1-22.6h-0.4zm42-39.2h-5.2v-5.4h5.2zm-0.2 39.3h-4.9v-30.6h4.9zm20.6 0.5q-1.8 0-3.8-0.2-1.9-0.1-3.9-0.2-1.9-0.2-3.4-0.4v-4q1.4 0.1 2.7 0.3 1.4 0.1 2.7 0.2 1.3 0.1 2.7 0.1 1.3 0 2.7 0 3.1 0 4.5-0.4 1.4-0.5 1.8-1.6 0.5-1 0.5-2.8 0-2-0.4-2.9-0.3-0.9-1.1-1.1-0.8-0.3-2.4-0.5l-7.9-0.9q-2.8-0.3-4.3-1.2-1.4-0.9-2-2.7-0.5-1.7-0.5-4.4 0-3 0.8-4.8 0.9-1.8 2.4-2.7 1.6-0.9 3.8-1.1 2.2-0.3 5-0.3 1.6 0 3.3 0.1 1.7 0.1 3.4 0.3 1.7 0.2 2.9 0.4v4q-1.6-0.2-3.2-0.4-1.5-0.1-3.2-0.2-1.6-0.1-3.3-0.1-2.3 0-3.9 0.3-1.6 0.2-2.5 1.2-0.8 0.9-0.8 3.2 0 1.7 0.3 2.6 0.3 0.8 1.1 1.2 0.9 0.3 2.4 0.5l8.2 0.9q2.5 0.2 3.9 0.9 1.4 0.7 2 2.4 0.7 1.8 0.7 5.3 0 2.8-0.7 4.6-0.7 1.8-2.1 2.7-1.5 1-3.6 1.4-2.1 0.3-4.8 0.3zm32.2 0q-3.7 0-6.3-0.5-2.4-0.5-3.9-1.6-1.5-1.1-2.3-2.9-0.8-1.9-1-4.5-0.3-2.7-0.3-6.3 0-4.2 0.4-7.2 0.4-3.1 1.6-4.9 1.3-2 4.1-2.8 2.8-0.9 7.4-0.9 3.6 0 5.8 0.5 2.3 0.6 3.6 1.7 1.3 1.2 1.9 3.1 0.7 1.8 0.9 4.5 0.1 2.6 0.1 6v1.6h-20.9q0 3.1 0.3 5.1 0.3 2 1.2 3.1 1 1 2.9 1.5 2.1 0.4 5.6 0.4 1.4 0 3.1-0.1 1.8-0.1 3.5-0.3 1.8-0.2 3.1-0.3v3.9q-1.2 0.3-3.1 0.4-1.8 0.2-3.8 0.3-2 0.2-3.9 0.2zm7.3-17.7v1l1.1-1zm0-0.6q0-3.1-0.3-4.9-0.4-1.9-1.3-2.8-0.8-0.9-2.3-1.2-1.5-0.3-3.7-0.3-2.9 0-4.6 0.4-1.7 0.4-2.5 1.4-0.9 1-1.2 2.9-0.3 1.9-0.3 5.1h16.2zm42.8 18.3q-4.5 0-7.4-0.5-2.9-0.6-4.6-1.9-1.6-1.3-2.4-3.6-0.7-2.4-0.9-6.1-0.2-3.7-0.2-9.1 0-5.3 0.2-9 0.2-3.7 0.9-6 0.8-2.4 2.4-3.7 1.7-1.4 4.6-1.8 2.9-0.6 7.4-0.6 4.5 0 7.4 0.6 2.9 0.4 4.6 1.8 1.6 1.3 2.4 3.7 0.8 2.3 1 6 0.2 3.7 0.2 9 0 5.4-0.2 9.1-0.2 3.7-1 6.1-0.8 2.3-2.4 3.6-1.7 1.3-4.6 1.9-2.9 0.5-7.4 0.5zm0-4.5q3.1 0 5-0.2 1.9-0.2 3-1 1.1-0.8 1.6-2.6 0.6-1.8 0.7-4.9 0.2-3.1 0.2-8 0-4.8-0.2-7.9-0.1-3.2-0.7-5-0.5-1.8-1.6-2.5-1.1-0.8-3-1-1.9-0.2-5-0.2-2.9 0-4.9 0.2-2 0.2-3.1 1-1.1 0.7-1.6 2.5-0.5 1.8-0.6 5-0.2 3.1-0.2 7.9 0 4.9 0.2 8 0.1 3.1 0.6 4.9 0.5 1.8 1.6 2.6 1.1 0.8 3 1 2 0.2 5 0.2zm29.7 4h-5.7v-5.9h5.7zm36.2 0h-28.1v-4.8q0-3.4 0.1-5.7 0.2-2.3 0.8-3.8 0.7-1.5 2.1-2.6 1.4-1.1 4-2.2l10.8-4.6q2.2-1 3.3-1.8 1.1-0.8 1.4-2 0.4-1.2 0.4-3.2 0-2.9-0.9-4.3-0.8-1.4-3-1.8-2.2-0.5-6.2-0.5-1.4 0-3.5 0.1-2.1 0.1-4.3 0.3-2.2 0.1-4.2 0.4v-4.2q1.7-0.3 4-0.5 2.4-0.3 4.8-0.4 2.5-0.2 4.8-0.2 2.8 0 5.3 0.3 2.5 0.3 4.4 1.4 1.9 1 2.9 3.1 1.1 2.1 1.1 5.7 0 3.6-0.8 5.8-0.7 2.1-2.4 3.4-1.6 1.3-4.3 2.4l-12.4 5.2q-1.5 0.7-2.2 1.5-0.7 0.9-0.9 2.3-0.2 1.3-0.2 3.4v2.8h23.2zm21.5 0.5q-1.9 0-4.1-0.1-2.2-0.2-4.4-0.4-2.1-0.2-3.8-0.5v-4.2q2.1 0.2 4.3 0.4 2.2 0.2 4.2 0.3 2 0 3.4 0 3.4 0 5.5-0.3 2.1-0.4 3.3-1.3 1.2-1 1.7-2.6 0.4-1.6 0.4-4 0-2.6-0.5-4.2-0.5-1.6-1.8-2.4-1.3-0.8-3.5-1-2.3-0.3-5.9-0.3-1.2 0-3 0.1-1.8 0.1-3.7 0.3-2 0.1-3.9 0.4v-22h24.5v4.5h-19.8v12.9q1.2-0.2 2.8-0.3 1.6-0.2 3.2-0.3 1.7 0 3.1 0 4.5 0 7.2 0.7 2.7 0.7 4 2.3 1.5 1.5 2 3.7 0.6 2.1 0.6 5 0 3.7-0.8 6.3-0.6 2.5-2.4 4-1.6 1.5-4.7 2.3-3.1 0.7-7.9 0.7zm27.1-0.5h-5.4l11.6-15.5-11.2-15.1h5.6l8.5 11.4h0.3l8.5-11.4h5.4l-11.1 15 11.6 15.6h-5.7l-8.9-11.9h-0.3z"/><path class="am" d="m833 1339c-24.3 0-44-19.7-44-44 0-24.3 19.7-44 44-44 24.3 0 44 19.7 44 44 0 24.3-19.7 44-44 44z"/><g clip-path="url(#cp9)"><path class="an" d="m820 1317.7l-15.1 12.3-1.4 1-14.9-21.2 18.7-16.2 0.2-1.5-0.1-3.2 2.3-4.9 4-3.4 6.2-1.5 3.4-0.2 4.3 1.8 3 1.1 2.7 1.7 0.7 1.1 0.3 0.4 1.9-1.1 5.2-3.7 3.1-4.6 2.9-2.3 1.9-0.1 2.3 1 0.5 1.1 0.8 0.2 1.9 1.1 2.2 0.7 1.4 2-0.1 1.7 1.7 0.5 0.5 3.2-2.4 8.2-4.7 7.3-5.5 5.1-4.4 2.6-5.2 5-9.3 5.3z"/><path class="a" d="m819.6 1316l-2.2 1.6-17.4 14.7-13.3-19.1 22.1-18.8 0.3-2.3-0.2-2.7 2.1-4.5 3.3-2.6 6.1-1.7 2.6-0.1 4.3 1.7 2.3 0.7 2.5 1.4 0.8 1.1 0.3 1.4 1.4-0.5 2.3-1.1 5.6-4 1-1.7 2.1-3 2-1.8h1.4l1.7 0.5 0.6 1.6h1.1l1.9 1 1.7 0.5 1.1 1.5-0.3 2 2.2 0.7 0.3 2.1-2.4 7.6-4.7 7-5.5 4.8-4.3 2.7-5.1 4.8-8.6 5z"/><path fill-rule="evenodd" class="an" d="m825.6 1287.3l-1-2.4-1.6-0.5-0.2 0.7 1.4 0.9 0.5 1.7-0.2 1.3 0.8 2.1-1 3.2 0.9 1.1 2.3 1.7-1.9-2.8 0.9-2.8-0.6-2.3 1.5-0.7 2.5-0.2 2.5 0.3 0.8-1.8-1.1 1.3-2.1-0.3-2.2-0.3-1 0.2zm8.3 6l2.3 2.3 1.5 1.3 0.6 1.1 1.8 0.9 1.5 1.9 2.5 1.1 0.6-1 3-2.9 1.2-1.1 0.7-1.3 2.6-3.1 1-1.9 1.9-3.5 2.5-6-0.5-0.2-3.1 7.1-1.3 1.9-1.1 2.1-2.9 3.7-1.4 1.2-1.2 1.3-2 1.5h-1.8l-1.9-2 0.4-1 4.5-3 2-2.4 1.7-2 2.3-3.4 1.3-3.1 2.2-5.5-0.8 0.2-3.2 7.5-2.1 3.3-2.5 2.6-1.6 2.3-1.9 1.2-2.1 1.7-1 0.6-0.8-0.2-0.8-0.7-1-0.9-1.6-1.4 0.9-1.1 4.1-2 2.2-1.3 2.5-2.3 1.6-2.1 1.3-1.4 3.4-6.5 0.3-0.9-0.5 0.3-3.9 6.6-1.2 1.7-3 3.2-2.1 1.3-1.7 1-2.1 0.9-1.3 0.9-0.6 0.2-1.1-0.3-0.4-1.1-1.5-1.2 1.1 2.5z"/></g><path class="ao" d="m834 1192c-24.3 0-44-19.7-44-44 0-24.3 19.7-44 44-44 24.3 0 44 19.7 44 44 0 24.3-19.7 44-44 44z"/><g clip-path="url(#cp10)"><path class="ap" d="m800.3 1152.6l-16.8 9-1.8 1.4 13.5 24 1.9-1.1 14-9c3 1 7.9 1.3 10.1 1 3.6-0.5 9.3-3 11.5-4.1l16.2-8.2 15.6-8.5-0.2-5-5-1.9-7.6 1.4-6.9 2.8 0.4-1.3-1.4-4.7-2.1-1.5-2.1 0.3 1.1-2.1-0.7-3.9-3.7-2.5 14.2-13.7-1.3-8-6.2 2.2-25.1 16.1-6.3 0.9-7.3 2.5z"/><path class="a" d="m848 1119.5l0.6 4.6-17.9 17 3.6-1.3 3.9 2.7c0.2 1 0.6 2.8 0.7 3.2q0 0.1 0 0c-0.2-0.1-1.4 2-2 3.2l3.5-0.4 2 1.4 1 4-3.2 4.2 12.3-4.8 6.6-1.2 3.6 1.3 0.1 2.5-22.4 11.5c-3.9 2.2-13.2 6.8-19.6 8.1-2 0.2-6.9 0.3-10.1-0.9-0.4 0.2-16.1 10.6-20.8 13.6l-11.7-20.8 23.7-13.4 4.2-13.9 5.5-2 6.6-0.9 26.2-16.5z"/><path fill-rule="evenodd" class="ap" d="m818.4 1137.7l1 1 4.4 8 4.5-3 2.5-2.8 3.5-1.2-4.6 5.9-5 2.7 3 5.4c0.2 0.2 0.4 0.6 0.5 1.1l5.5-3.5 4.1-4.1 1.5 1.3-4.8 4.3-6.4 3.1q0 0.2-0.1 0.3l-0.9 0.2-3.2 1.3-2.8 0.7 1.1 2.3 0.1 2.8 0.8 1.3 2 0.8 4.1-1.1 4.4-1.8 4.6-3.3 3.8-3.7 0.6 1.4-3.1 3.2-2.3 2-3.1 1.9c-0.5 0.2-1.3 0.5-2.1 0.8-1.1 0.4-2.2 0.8-2.4 0.9-0.4 0.1-0.9 0.3-1.6 0.5-0.7 0.2-1.6 0.4-2.3 0.6l-2.3-0.1-1.9-1.3-1.1-2.1 0.4-1.8-0.9-1.9-1.6-2.6 0.7-2.9-1.8-0.9-2-3-1.2 0.7 1 1.7-2.4 8.4-0.9-1.5-2.1-0.6 2.3-1.4c0.6-1.4 1.4-4.5 1.2-5.1-0.2-0.6-0.9-1.6-1.2-2.1l3.8-2.1 2.6 3.6 7.1 3.5 1.3-0.4-8.9-15.8-3.6-1.6 2.5-0.4zm2.1 17.2l-0.4 2 0.5 0.6 2.5-0.6 1.2-0.5z"/></g><path class="aq" d="m722 1193c-24.3 0-44-19.7-44-44 0-24.3 19.7-44 44-44 24.3 0 44 19.7 44 44 0 24.3-19.7 44-44 44z"/><g clip-path="url(#cp11)"><path class="ar" d="m701.6 1146.6l-47.7 7.6 2.1 29.8 48-13c0 0 11 3.4 14.1 4.1l8.1-3.1 9.3-9.6 6.6-14.9-2.7-15.6-17.1 0.6-6.7-7.3-6.1-2.4-9.5 3.1c-0.1 4.1-0.1 12.5 0.7 14 0.8 1.5 2 2.2 2.5 2.4l1.9 1.4z"/><path class="a" d="m748 1150.2l4.3-3.5c0.1-3.9-1.1-13.4-7.5-19.9-0.3-0.1-9.2-1.8-13.5-2.6l-7.7 6.3 3.3 4.1 11.1 0.6-0.7 4.1-12.1 0.1-1.1 4.4 3.6 4.5 10.4 1.4-3.2 2.6 0.3 1.6 0.4 1.8-14.6-5-2.7 2.2-0.2 3.3 6.8 8.3 5.8 1.8-2.6 3.6 4.1 2.7 4.8 0.3 3.1-2.5-0.1-9.3 6.2-1.5 2.3-2.6z"/><path fill-rule="evenodd" class="ar" d="m748 1150.2l4.3-3.5c0.1-3.9-1.1-13.4-7.5-19.9-0.3-0.1-9.2-1.8-13.5-2.6l-7.7 6.3 3.3 4.1 11.1 0.6-0.7 4.1"/><path fill-rule="evenodd" class="ar" d="m737.3 1139.3l5.1 2.2 5.6 8.7m0 0l0.5 6.8-2.3 2.6-6.1 1.5v-0.1zm-7.9 10.9l0.1 9.2-3.1 2.5-4.8-0.3-4.1-2.7 2.6-3.6-5.8-1.8-6.8-8.3 0.2-3.2 2.7-2.3 14.6 5 4.4 5.4-0.1 0.1zm-3.9-11.6l-8.5-1.2-3.6-4.5 1.1-4.4 12.1-0.1zm1.9 0.2l-2 1.6 0.2-1.9zm-2 1.6l-0.4 4.3-0.4-1.8-0.3-1.6zm4 9.7l-4.4-5.4"/><path class="ar" d="m711.8 1164l1.2-1.5 4.9 0.3 11.8 10.1c1.3 1.1 1.4 2.9 1.3 3.6-0.5 1.4-2.1 4.3-3.9 4.6-1.9 0.2-3.2-0.5-3.7-0.9l-10.7-10.2z"/><path class="as" d="m711.1 1132.5l4.4 2.8-2.9-0.7c0 0.9 0.2 2.4-0.4 4.1-2.7 6-8.7 8.3-10.2 9l2.1-4-0.8-2.6c0 0 3 1.7 5.2-0.1 2.3-1.8 3-4.4 3-5.5z"/></g><path class="at" d="m610 1195c-24.3 0-44-19.7-44-44 0-24.3 19.7-44 44-44 24.3 0 44 19.7 44 44 0 24.3-19.7 44-44 44z"/><g clip-path="url(#cp12)"><path class="au" d="m632.7 1144.8l3.3 1.6 0.8 8-0.8 2.9 1.7 6.5-4.6 6.1-5.9 1.5-14.1 7.9-16.3-0.8-42.3 28.1-12.2-37.3 38.1-20 5.9-17.6 21.4-6.8 15.7-4.2 7.2 3.4-1.6 8.2 3.8 1.8 2.1 8.6z"/><path class="a" d="m593.2 1178l3.7-2.3 1.6-0.4 14.3 0.4 11.9-6.4-15.6-1.2-4.3-12.6-0.7-3-1-2.9-3.6-6.8-2.6-1.3 3.6 0.2 3-4.5-0.7 3.2 2.6 4.5 8.1 2.3 3.7-3.4-9.5-16.8-19.7 7-5.2 16.1c-29.1 16.2-36.8 19.7-41.9 22.6 4.4 13.1 10.9 32.9 10.9 32.9l38.5-26 1.5-0.8z"/><path fill-rule="evenodd" class="a" d="m634.4 1158.9l0.4 3.1-3.4 4.9-16.8 0.4-0.6-4.5zm-21.9-6.7l16-5.3 5.4 1.3 0.1 5.7-2.1 3-19.6 2.2c-0.7-0.8-1.4-2.4-1.7-3.1zm15.7-18l4 2.1-0.1 4.8-3.3 3.1-19.7 8.3-2-2 6.9-2.1 4.7-3.8-2.9-6.4zm-4.7-11.2l4.7 2.3-1.4 6.4-13.3 3.1-3.6-7.5z"/></g><path fill-rule="evenodd" class="a" d="m271.4 94.1c-5.7 0-8.1 2.1-8.1 5.1-0.2 3.2 2.6 5 9 6.4l5.5 1.2c14.7 3.1 20.8 10.3 20.9 20.5-0.1 13.2-10.2 20.5-27.2 20.5-17.5 0-28.8-7.5-28.9-24.3h17.3c0.3 6.1 4.4 9.4 11.3 9.4 5.8 0 8.9-2.3 8.9-5.6 0-3.1-2.6-4.9-10-6.6l-6.7-1.4c-11.9-2.6-19.1-8.4-19.1-18.8-0.1-12.8 11.2-21.3 27.1-21.3 16.2 0 26.3 8.7 26.4 21.8h-17.4c-0.4-4.3-3.2-6.9-9-6.9zm92.1 52.9h-15.2l-24.1-35.2h-0.4v35.2h-18.2v-66.9h15.4l23.8 35h0.5v-35h18.2zm40.9 0.9c-18.3 0-32.5-12.1-32.5-34.4 0-22.3 14.2-34.3 32.5-34.3 18.2 0 32.5 12 32.5 34.3 0 22.4-14.3 34.4-32.5 34.4zm0-52.9c-9 0-13.9 6.5-13.9 18.5 0 12.1 4.9 18.6 13.9 18.6 9 0 13.9-6.5 13.9-18.6 0-12-4.9-18.5-13.9-18.5zm34-14.9h20.2l9.2 41.1h0.5l10.8-41.1h16l10.8 41.3h0.6l9.1-41.3h20.3l-19.8 66.9h-17.3l-11.4-37.4h-0.5l-11.4 37.4h-17.4zm126 0l15.5 37.9h0.8l15.6-37.9h22.6v66.9h-17.8v-38.7h-0.5l-14.9 38.2h-10.7l-14.9-38.4h-0.5v38.9h-17.8v-66.9zm60.9 66.9l22.1-66.9h24.8l22.1 66.9h-19.6l-3.9-12.8h-22.1l-3.8 12.8zm41.4-26.4l-6.7-22.1h-0.5l-6.6 22.1zm91.8 26.4h-15.1l-24.2-35.2h-0.4v35.2h-18.2v-66.9h15.4l23.8 35h0.6v-35h18.1z"/></svg>