<svg version="1.2" xmlns="http://www.w3.org/2000/svg" viewBox="0 0 2000 2000" width="100" height="100">
	<title>vecteezy_laptop-icon-for-your-website-mobile-presentation-and-logo_21349063-ai</title>
	<style>
		.s0 { fill: #ffffff } 
		.s1 { fill: #000000 } 
	</style>
	<g id="_Artboards_">
	</g>
	<g id="Background">
		<path id="Shape 1" class="s0" d="m1000.5 1960c-527.8 0-954.5-426.7-954.5-954.5 0-527.8 426.7-954.5 954.5-954.5 527.8 0 954.5 426.7 954.5 954.5 0 527.8-426.7 954.5-954.5 954.5z"/>
	</g>
	<g id="OBJECT">
		<g id="&lt;Group&gt;">
			<path id="&lt;Path&gt;" class="s1" d="m933.6 655.5c0-36.6 29.8-66.4 66.4-66.4 36.6 0 66.4 29.8 66.4 66.4v5.4c0 25.3-14 48.1-36.7 59.4l-12.6 6.3c-15 7.6-24.5 22.9-24.5 39.6v69.1h88.6v-42.3c45.8-28.1 73.8-77.5 73.8-132.1v-5.4c0-85.4-69.6-154.9-155-154.9-85.4 0-155 69.5-155 154.9v88.6h88.6z"/>
			<path id="&lt;Path&gt;" class="s1" d="m992.6 870.7h88.6v97.4h-88.6z"/>
			<path id="&lt;Compound Path&gt;" fill-rule="evenodd" class="s1" d="m1664.2 1442.8v88.6c0 73.2-59.6 132.8-132.8 132.8h-1062.8c-73.2 0-132.8-59.6-132.8-132.8v-88.6c0-24.5 19.8-44.3 44.3-44.3h44.3v-664.2c0-24.4 19.8-44.3 44.2-44.3h135.5c22.1-198.9 191.1-354.2 395.9-354.2 204.8 0 373.8 155.3 395.9 354.2h135.5c24.4 0 44.2 19.9 44.2 44.3v664.2h44.3c24.5 0 44.3 19.8 44.3 44.3zm-974.2-708.5c0 170.9 139.1 310 310 310 170.9 0 310-139.1 310-310 0-170.9-139.1-309.9-310-309.9-170.9 0-310 139-310 309.9zm-177.1 44.3v442.8h974.2v-442.8h-91.2c-22.1 199-191.1 354.2-395.9 354.2-204.8 0-373.8-155.2-395.9-354.2zm0 619.9h974.1v-88.5h-974.1zm1062.7 88.5h-1151.3v44.3c0 24.4 19.9 44.3 44.3 44.3h1062.7c24.4 0 44.3-19.9 44.3-44.3z"/>
		</g>
	</g>
</svg>