<svg version="1.2" xmlns="http://www.w3.org/2000/svg" viewBox="0 0 72 72" width="72" height="72"><style>.a{fill:#f2f3f5}.b{fill:#dcb68a}.c{fill:#fff;stroke:#000;paint-order:stroke fill markers;stroke-linejoin:round;stroke-width:4}</style><path class="a" d="m36 72c-19.9 0-36-16.1-36-36 0-19.9 16.1-36 36-36 19.9 0 36 16.1 36 36 0 19.9-16.1 36-36 36z"/><path fill-rule="evenodd" class="b" d="m61.6 17.5c-0.1 0.4-0.4 0.7-0.7 0.9q-2.2 2.3-4.4 4.5c-1.6 1.5-3 3-4.5 4.5-1.8 1.7-3.2 3.7-5 5.4-0.1 0.1-0.3 0.4-0.5 0.2-0.2-0.2 0-0.4 0.2-0.6q1.5-1.7 3.2-3.4c1.7-1.7 3.4-3.4 5-5.2 1.1-1.1 2.2-2.2 3.4-3.3q1.3-1.3 2.7-2.6c0.2-0.2 0.3-0.3 0.6-0.4zm-53.1 1.6c1.2 0.9 2.2 1.9 3.3 2.9 3.4 3.2 6.5 6.7 10.1 9.7 0.3 0.3 0.6 0.6 0.8 0.9 0.1 0.1 0.3 0.2 0.1 0.4-0.1 0.1-0.2 0-0.3-0.1q-1-0.7-1.9-1.6c-3.1-3.1-6.4-6.1-9.5-9.3q-1.2-1.3-2.5-2.6c-0.1-0.1-0.2-0.2-0.1-0.3zm63.8 25.3c-0.1 0.2-0.3 0.2-0.4 0.2-3.9 0-7.7 0.2-11.5 0.1q-3.6-0.1-7.1 0.2c-0.5 0.1-1.1 0.1-1.6 0.1-0.1-0.1-0.4 0-0.4-0.3 0-0.2 0.3-0.1 0.4-0.1q1.4-0.1 2.8-0.1c1.8 0 3.6 0 5.4-0.1 2-0.2 4-0.3 6-0.3 2.1 0.1 4.1 0.2 6.1 0.2 0.1 0 0.2 0 0.3 0.1zm-37.7-38.6c0.2 1.4 0.2 2.8 0.2 4.2 0 2.4 0 4.8 0.1 7.3 0 2.1 0.1 4.3 0.1 6.4q0 2-0.1 3.9 0 0.2 0 0.3c0 0.1-0.1 0.2-0.2 0.2-0.1 0-0.1-0.1-0.1-0.1-0.2-0.3-0.1-0.5-0.1-0.8 0.1-2.2 0.2-4.5 0.2-6.8-0.1-3.1-0.3-6.3-0.3-9.4q0-2.4 0.1-4.8c0-0.1 0-0.3 0.1-0.4zm32.6 26c-0.6 0.4-1.1 0.6-1.7 0.8-4.4 1.8-8.8 3.5-13.2 5.4q-0.8 0.3-1.6 0.5c-0.2 0.1-0.4 0.2-0.4 0-0.1-0.2 0.1-0.3 0.3-0.4 1-0.4 2.1-0.9 3.2-1.4q6.3-2.3 12.5-4.7c0.3-0.1 0.5-0.2 0.9-0.2zm-68.4 12.7c0.5-0.1 1.1-0.1 1.6-0.2q4.8-0.1 9.6 0.2c1.6 0.1 3.1 0.1 4.7 0 1-0.1 2 0 3 0 0.1 0 0.3 0 0.4 0.2 0 0.2-0.3 0.3-0.4 0.3q-1 0.2-1.9 0.1c-3.2-0.3-6.3-0.2-9.5-0.3q-3.6-0.1-7.3-0.2-0.1 0-0.2-0.1zm22.2-30.8c0.3 0.1 0.4 0.3 0.5 0.5 0.9 1.5 1.6 3.2 2.2 4.9q1.5 4.2 3.4 8.2 0.4 0.8 0.8 1.6 0 0.2 0.1 0.3c0 0.2 0 0.3-0.2 0.3-0.1 0.1-0.2 0-0.3-0.1q-0.2-0.4-0.4-0.8c-0.9-2.2-1.7-4.4-2.6-6.6-1.1-2.6-2.1-5.1-3.3-7.6-0.1-0.2-0.2-0.4-0.2-0.7zm-18.7 18.4c0.3 0 0.5 0 0.8 0.1 2.9 0.8 5.7 2 8.4 3.2q3.6 1.5 7.3 2.7 0.1 0.1 0.2 0.1c0.2 0.1 0.3 0.2 0.2 0.3 0 0.2-0.2 0.2-0.3 0.1q-0.6-0.1-1.2-0.4c-2.1-0.8-4.1-1.8-6.2-2.5q-3.7-1.4-7.5-2.8c-0.5-0.2-1.1-0.4-1.7-0.8zm45.3-19.7c-0.2 0.9-0.5 1.7-0.8 2.5q-2 5.3-4 10.7c-0.4 1.2-0.7 2.3-1.1 3.5-0.1 0.2-0.1 0.5-0.5 0.4-0.3-0.1-0.1-0.4 0-0.6 0.6-1.6 1.2-3.2 1.9-4.9q1.5-4.2 3.1-8.5c0.3-0.9 0.6-1.8 1-2.7 0.1-0.1 0.2-0.3 0.4-0.4zm4.8 8.5c-0.1 0.5-0.3 0.8-0.6 1.2-1 1.5-2.1 3-3.3 4.4-0.9 1.2-1.6 2.4-2.4 3.6q-0.4 0.6-0.8 1.1c-0.1 0.2-0.3 0.5-0.5 0.3-0.3-0.2 0-0.5 0.1-0.7 0.7-0.9 1.3-1.8 2-2.7 1.5-1.8 2.7-3.7 4.1-5.6 0.4-0.5 0.9-1.1 1.4-1.6zm-47.4 20.4c1.2-0.1 2.4-0.1 3.6 0 2.4 0.3 4.8 0.6 7.2 0.8 0.7 0.1 1.3 0.2 2 0.3 0.1 0 0.3 0 0.3 0.2 0.1 0.3-0.2 0.3-0.3 0.3-0.6 0-1.1-0.1-1.6-0.2-3.3-0.5-6.6-0.9-10-1.2q-0.6-0.1-1.2-0.2zm53.6-15.4q-0.4 0.3-0.8 0.7-1.9 1.7-4 3.3c-1.3 1-2.6 2.1-3.8 3.2q-0.8 0.6-1.6 1.3-0.1 0.1-0.2 0.2c-0.1 0-0.2 0.1-0.3 0-0.1-0.1 0-0.3 0-0.4q0.4-0.4 0.8-0.7 1.5-1.2 3-2.3c0.8-0.7 1.6-1.4 2.4-2q2-1.6 4.1-3.3 0.1-0.1 0.3-0.1 0 0 0.1 0.1zm-47.6 1.3c0.9 0.4 1.7 1 2.5 1.6 2.2 1.5 4.3 3.2 6.5 4.7q0.6 0.4 1.2 0.8c0.1 0.1 0.3 0.2 0.2 0.3-0.1 0.2-0.2 0.1-0.4 0.1q-0.2-0.1-0.4-0.3c-3-2.4-6.2-4.5-9.3-6.8-0.1-0.1-0.2-0.2-0.3-0.4zm5.4-4.4c1.3 1.1 2.4 2.2 3.3 3.5 1.3 1.8 2.8 3.3 4.2 4.9 0.1 0.2 0.4 0.3 0.2 0.5-0.2 0.3-0.4-0.1-0.6-0.2q-1.2-1.5-2.5-3c-1.4-1.8-3-3.5-4.4-5.3-0.1-0.1-0.2-0.2-0.2-0.4zm21.7-5.1q0.1 0.8 0 1.5c-0.2 2.6-0.5 5.3-0.8 7.9q0 0.5-0.1 0.9c-0.1 0.1-0.1 0.2-0.3 0.2-0.1-0.1-0.1-0.2-0.2-0.3q0-0.2 0.1-0.5c0.4-2.8 0.8-5.6 1-8.5 0.1-0.4 0.1-0.7 0.2-1.1q0 0 0.1-0.1zm-7.5 0.7c0.3 0.7 0.4 1.4 0.5 2q0.7 3.5 1.3 7 0 0.2 0 0.4c0 0.2 0.1 0.4-0.2 0.4-0.2 0-0.2-0.2-0.3-0.3q-0.1-0.3-0.1-0.6-0.3-2.3-0.6-4.5c-0.2-1.3-0.5-2.6-0.7-4 0-0.1 0-0.2 0.1-0.4zm-18.2 14.3c0.3 0 0.6 0.1 0.8 0.2q3.1 1.6 6.1 3.1 0.4 0.2 0.7 0.4 0.1 0.1 0.1 0.2c0 0.2-0.2 0.2-0.3 0.2-0.2 0-0.4-0.1-0.6-0.2-1.2-0.6-2.3-1.4-3.5-2q-1.3-0.6-2.7-1.4c-0.2-0.1-0.5-0.2-0.6-0.5zm28.7-12.1q0 1.1-0.2 2.1c-0.4 1.8-1 3.6-1.2 5.4 0 0.3 0 0.7-0.4 0.6-0.3-0.1-0.2-0.5-0.1-0.7 0.2-1.5 0.7-2.9 1-4.4 0.2-0.9 0.5-1.8 0.7-2.7q0.1-0.1 0.2-0.3zm22.3 20.7c-0.5 0.1-1 0.3-1.5 0.3q-3.2 0.5-6.4 0.9c-1.3 0.1-2.5 0.3-3.8 0.5-0.1 0-0.4 0.1-0.4-0.1 0-0.2 0.2-0.2 0.4-0.3 1-0.2 2-0.3 3.1-0.3q3.3-0.3 6.7-0.8c0.6-0.1 1.2-0.2 1.9-0.3q0 0.1 0 0.1zm-16.5-18.6c0.2 0 0.1 0.1 0.1 0.2-0.2 0.6-0.5 1.1-0.8 1.7-0.9 1.5-1.6 3.1-2.4 4.7q-0.2 0.4-0.5 0.9c0 0-0.1 0.1-0.2 0.1-0.2 0-0.2-0.2-0.1-0.3q0-0.3 0.1-0.5c0.5-0.8 0.9-1.7 1.3-2.5 0.8-1.2 1.4-2.6 2.1-3.9 0.1-0.2 0.2-0.3 0.4-0.4zm-19.6-1c0.2 0.1 0.2 0.2 0.3 0.4 0.7 2 1.4 3.9 2.1 5.9q0 0.3 0.1 0.5c0 0.1 0 0.3-0.1 0.3-0.2 0.1-0.3 0-0.3-0.1-0.2-0.2-0.2-0.4-0.3-0.6q-0.9-3-1.8-6c0-0.2-0.1-0.3 0-0.4zm-5.6 2c0.4 0.4 0.6 0.7 0.8 1 1.1 1.7 2.1 3.4 3.2 5.1q0.2 0.2 0.3 0.4c0 0.1 0.1 0.2-0.1 0.3-0.1 0.1-0.2 0-0.3-0.1q-0.4-0.5-0.7-1c-1-1.6-1.8-3.2-2.9-4.8-0.1-0.2-0.3-0.5-0.3-0.9zm-10 14.9c0.7 0.1 1.3 0.3 1.8 0.5q2 0.6 4.1 0.9 0.3 0 0.6 0.1c0.1 0.1 0.4 0.1 0.3 0.4-0.1 0.2-0.3 0.2-0.5 0.2-0.5-0.2-1.1-0.3-1.7-0.5-1.3-0.4-2.6-0.7-3.9-1q-0.4-0.1-0.7-0.2c-0.1-0.1-0.3-0.1-0.2-0.3 0-0.1 0.2 0 0.2-0.1zm46.1 0.7q-1 0.2-2 0.5c-1.5 0.4-3.1 0.7-4.6 0.9-0.2 0.1-0.4 0.1-0.4-0.1-0.1-0.2 0.1-0.3 0.3-0.3 0.4-0.2 0.9-0.3 1.4-0.4q2.5-0.3 5-0.7 0.2 0 0.3 0 0 0 0 0.1zm-2.5-5.9c-0.1 0.2-0.2 0.2-0.4 0.3-1.6 1-3.3 2.1-5.1 2.9q-0.1 0.1-0.2 0.1c-0.1 0-0.3 0.1-0.3-0.1-0.1-0.1 0-0.2 0.1-0.3 0.3-0.1 0.5-0.3 0.8-0.5q2.3-1.2 4.7-2.3c0.1-0.1 0.2-0.2 0.4-0.1zm-45.7 4.5c0.2 0 0.4 0.2 0.4 0.4 0 0.3-0.1 0.4-0.4 0.4-0.2 0-0.4-0.2-0.4-0.4q0-0.4 0.4-0.4zm1.7-6c0 0.2-0.1 0.4-0.3 0.4-0.3 0-0.4-0.2-0.4-0.4 0-0.3 0.1-0.4 0.3-0.4 0.3 0 0.4 0.1 0.4 0.4zm30.6-13c0 0.2-0.1 0.4-0.3 0.4-0.3 0-0.4-0.2-0.4-0.4 0.1-0.3 0.2-0.4 0.4-0.4 0.3 0 0.3 0.2 0.3 0.4zm20.2 19.3q0 0.4-0.4 0.4c-0.2 0-0.4-0.1-0.4-0.3 0-0.3 0.2-0.4 0.4-0.4q0.3 0 0.4 0.3zm-19.5-21.5c0 0.3-0.1 0.4-0.4 0.4-0.2 0.1-0.3-0.1-0.3-0.3 0-0.2 0.1-0.4 0.4-0.4 0.2 0 0.3 0.1 0.3 0.3zm14.1 16.1c-0.2 0-0.3-0.1-0.4-0.3 0-0.2 0.2-0.4 0.4-0.4 0.2 0 0.4 0.2 0.4 0.4 0 0.2-0.2 0.3-0.4 0.3zm-30.3-14.6q0.4 0 0.4 0.4-0.1 0.3-0.4 0.3c-0.2 0-0.3-0.2-0.3-0.4 0-0.2 0.1-0.3 0.3-0.3zm-5.6 4q0.3 0 0.4 0.4c0 0.2-0.2 0.3-0.3 0.3q-0.4 0-0.4-0.3 0-0.3 0.3-0.4zm38.8 16.2c0.2 0.1 0.4 0.1 0.3 0.3q0 0.4-0.3 0.4-0.3-0.1-0.3-0.3c0-0.3 0.1-0.4 0.3-0.4zm-51.7-0.6q0 0.3-0.3 0.3c-0.2 0-0.3-0.1-0.3-0.3q0-0.3 0.3-0.3 0.3 0 0.3 0.3zm50.8-6.3q0 0.3-0.3 0.4c-0.2 0-0.3-0.1-0.3-0.3 0-0.2 0.1-0.3 0.3-0.4q0.3 0.1 0.3 0.3zm-31.5-11.3q-0.1 0.3-0.4 0.3-0.2 0-0.2-0.3 0-0.3 0.2-0.3c0.2 0 0.3 0.1 0.4 0.3zm20.6 1.2q0 0.3-0.3 0.3-0.3 0-0.3-0.3 0.1-0.3 0.3-0.3c0.2 0 0.3 0.1 0.3 0.3z"/><path class="c" d="m60.1 43.5c-0.3 0.3-0.8 0.4-1.2 0.2-0.4-0.2-0.7-0.5-1-0.8-0.3-0.4-0.6-0.8-0.7-1.3 0-0.2 0-0.3 0-0.5-0.1-0.4-0.4-0.8-0.9-0.8-0.2-0.1-0.4-0.1-0.6-0.2-0.3-0.1-0.4-0.4-0.6-0.6-0.4-0.2-0.8-0.2-1.2-0.1-1.3 0.2-2.5 0.7-3.8 1-0.9 0.2-1.9 0.3-2.8 0.1-0.7 0.9-1.3 1.9-2.2 2.7-0.6 0.6-1.4 1-1.7 1.8-0.1 0.5-0.1 0.9-0.1 1.4q0.2 2.6 1 5c0.4 1.6 0.1 3.4 0.5 5 0.1 0.4 0.2 0.7 0.4 1 0.1 0.2 0.2 0.3 0.3 0.5 0.1 0.1 0.1 0.3 0.2 0.5 0 0.2 0.2 0.4 0.4 0.5 0.4 0.5 0.6 1.1 0.4 1.7q0 0.1 0 0.1-0.1 0.1-0.2 0.2-0.1 0.1-0.3 0.1-1.1 0.1-2.2 0.2c-0.3 0-0.6 0-0.9-0.1-0.3-0.1-0.6-0.2-0.8-0.5-0.2-0.4-0.1-0.8-0.1-1.2 0.1-0.6-0.1-1.1-0.2-1.6q-0.6-2.7-1.3-5.3c-0.4-1.7-1-3.3-1.6-4.9 0-0.1-0.1-0.3-0.2-0.3q-0.1 0.1-0.2 0.1c-0.2 0.3-0.3 0.7-0.5 1-0.2 0.5-0.5 1-0.9 1.4q-1.1 1.5-2.5 2.8-1.4 1.3-2.9 2.3-0.1 0.1-0.2 0.2c-0.2 0.3 0 0.7 0.2 0.9 0.2 0.2 2.6 2.2 4.2 2.1 0.5 0 1-0.1 1.4 0.1 0.3 0.2 0.4 0.6 0.6 0.9q0 0.2 0 0.5c-0.1 0.5-0.7 0.5-1.1 0.5l-2 0.1c-0.4 0-0.8 0-1.2-0.1-0.4-0.1-0.8-0.3-1.1-0.5q-2.3-1.3-4.7-2.3c-0.4-0.1-0.9-0.3-1.2-0.6-0.4-0.3-0.7-0.7-0.7-1.1 0-0.4 0.2-0.7 0.4-1 0.5-0.7 1.2-1.3 1.5-2.1 0.1-0.3 0.2-0.6-0.1-0.7q-0.1 0-0.1 0-0.1 0-0.2 0.1c-0.9 0.5-3 2.8-3 2.8q-0.5 0.4-1 0.9c-0.1 0.2-0.3 0.3-0.4 0.5-0.1 0.3 0 0.7 0.1 1.1 0.1 0.4 0.3 0.9 0.6 1.2 0.2 0.2 0.4 0.3 0.6 0.5q0.2 0.2 0.3 0.4 0.1 0.3 0.2 0.6c0 0.2 0 0.5-0.2 0.7q-0.2 0.1-0.4 0.2c-0.8 0.3-1.6 0.2-2.3 0.2-0.3 0-0.5 0-0.8-0.1-0.6-0.2-0.8-0.8-1-1.4-0.4-1.6-0.8-3.2-0.4-4.8 0.1-0.6 0.4-1.2 0.6-1.8 0.3-1.1 0.4-2.3 0.5-3.5 0-1.4-0.1-2.8-0.7-4.1q0-0.3-0.1-0.5 0-0.3 0-0.5-0.1-0.3 0-0.5 0-0.3 0.1-0.5c0.1-0.4 0.3-0.8 0.3-1.2 0.1-0.7-0.2-1.4-0.4-2-0.7-1.6-1.2-3.4-2-5q-0.6-1.3-1.5-2.5c-0.2-0.4-4-5.1-4.4-6.9-0.3-1.9 0-3.9 1.1-5.5 0.2-0.4 0.6-0.8 1-1 0.5-0.4 1.2-0.6 1.8-0.7q0.6-0.1 1.2-0.1c0.4 0 0.8 0.1 1.1 0.3q0.2 0.1 0.2 0.2 0.1 0.2 0.2 0.3c0.1 0.5-0.4 0.9-0.9 1-0.3 0.1-0.8 0-1.2 0.1-1.1 0.2-2 1.4-2.1 2.6-0.1 1.1 0.4 2.3 0.9 3.4q0.8 1.3 1.8 2.5c0.8 0.9 1.7 1.6 2.5 2.5 0.8 0.9 1.5 1.9 1.9 3 0 0 0.2 1 0.5 1.6 0.1 0.1 0.2 0.3 0.4 0.4 0.3 0.2 0.6 0 0.9-0.1 0.7-0.5 1.3-1.1 1.9-1.6 0.9-0.7 1.9-1.3 3-1.8q2.4-1.3 4.7-2.7c1.5-0.9 2.9-1.8 4-3.1 0.3-0.4 0.6-0.8 0.8-1.3 0.3-0.9 0.2-2 0.4-2.9 0.1-1 0-2.1 0.2-3.1 0.4-1.6 1.6-3.1 1.9-4.8 0.1-0.6 0.1-1.3 0.2-2 0.1-0.7 0.4-1.4 1-1.8q0.1-0.1 0.2-0.1c0.5-0.1 0.8 0.4 1 0.8 0.1 0.3 0.3 0.8 0.4 1.2q0.1 0.1 0.1 0.1 0 0 0 0 0.1 0 0.1 0 0 0.1 0 0.1 0.1-0.1 0.1-0.1 0 0 0.1 0 0 0 0 0 0-0.1 0-0.1c0.2-0.6 0.3-1.2 0.6-1.6 0.1-0.2 0.2-0.3 0.4-0.3q0 0 0.1 0.1 0 0 0.1 0 0 0.1 0.1 0.1 0 0.1 0 0.2 0.1 0.9 0 1.8c-0.1 0.3-0.1 0.7 0.3 0.8q0.1 0 0.2 0 0.4-0.1 0.8-0.1 0.4 0 0.9 0.1 0.4 0.1 0.7 0.2 0.4 0.2 0.8 0.3c0.7 0.4 1.3 0.9 1.9 1.4 0.7 0.4 1.5 0.5 2.1 1.1q0.2 0.2 0.4 0.5 0.1 0.4 0.1 0.7 0.1 0.5-0.1 1-0.1 0.5-0.3 0.9c-0.3 0.5-0.4 1-0.9 1.4-0.3 0.3-0.8 0.3-1.2 0.6-0.4 0.2-0.7 0.5-1 0.9-0.3 0.5-0.8 1-0.7 1.7 0 0.9 0.9 1.4 1.2 2.1 0.4 0.9 0.6 1.9 0.7 2.9 0.1 1.1 0.1 2.3-0.1 3.5 0 0.3 0 0.6 0.1 0.8 0.2 0.4 0.7 0.6 1 0.7 1 0.5 2.1 0.5 3.1 1 0.5 0.2 0.8 0.5 1.2 0.7 1 0.8 2 1.6 2.9 2.6 0.8 1 1.4 2.2 1.4 3.5 0.1 0.3 0 0.7-0.2 0.9z"/></svg>