<svg version="1.2" xmlns="http://www.w3.org/2000/svg" viewBox="0 0 465 465" width="465" height="465"><style></style><path fill-rule="evenodd" d="m465 228.4c0 43.9-39.2 79.9-88.3 79.9-49.1 0-88.8-36-88.8-79.9 0-4.7 3.3-8.7 7.8-9.9l63.2-127h-78.4c-3.9 18.9-18.7 33.6-37.6 37.6v183.4c34 4.2 60.6 29.8 64.8 55.9h23c6.1 0.5 11 5.4 11.5 11.5v41.9c-0.6 5.7-5.8 9.9-11.5 9.3h-196.5c-5.8 0.6-10.9-3.7-11.4-9.4v-41.8c0.5-6.1 5.4-11 11.5-11.5h23c4.2-26.1 30.8-51.7 64.8-55.9v-183.4c-18.9-3.9-33.6-18.7-37.6-37.6h-78.4l63.2 127c4.5 1.1 7.7 5.2 7.8 9.9 0 43.9-40.2 79.9-88.8 79.9-48.6 0-88.3-36-88.3-79.9-0.1-4.7 3.1-8.9 7.8-9.9l71.1-143.2c1.9-3.4 5.5-5.6 9.4-5.7l4.7 1h91.9c4.4-17.2 17.9-30.7 35.2-35.2 26.3-6.8 53.1 8.9 59.9 35.2h92l4.7-1c3.9 0 7.5 2.2 9.4 5.7l71 143.2c4.7 1 8 5.1 7.9 9.9zm-309.9 9.4h-133.2c5.8 26.1 33.5 48.6 66.4 48.6 33.4 0 61.1-22.5 66.8-48.6zm-66.9-135.3l-56.9 114.4h114.5zm55.5 286.8v20.9h177.6v-20.9zm88.8-57.5c-27.2 0-49.6 15.7-53.8 36.6h107.6c-4.2-20.9-26.6-36.6-53.8-36.6zm28.2-250.2c0-15.6-12.6-28.2-28.2-28.2-15.6 0-28.2 12.6-28.2 28.2 0 15.6 12.6 28.2 28.2 28.2 15.6 0 28.2-12.6 28.2-28.2zm58.5 135.3h114.4l-56.9-114.4zm123.8 20.9h-133.2c5.8 26.1 33.5 48.6 66.9 48.6 32.9 0 60.6-22.5 66.3-48.6z"/></svg>