<svg version="1.2" xmlns="http://www.w3.org/2000/svg" viewBox="0 0 48 48" width="48" height="48">
	<title>modal-house-edge-dark-mode-svg</title>
	<style>
		.s0 { fill: #ffffff } 
	</style>
	<g id="_07-Credit_card_discount">
		<g id="filled">
			<path id="Layer" fill-rule="evenodd" class="s0" d="m36.1 29l-0.5 0.1v2.3c0 1.4-1.1 2.5-2.5 2.5h-0.3l-1.2 1-0.4 1.6c-0.1 0.3-0.4 0.5-0.7 0.5l-1.6 0.1-1.3 1c-0.3 0.2-0.6 0.2-0.8 0l-1.4-0.9-1.7 0.1c-0.3 0-0.5-0.2-0.6-0.4l-0.6-1.6-1.4-0.9q-0.3-0.2-0.3-0.5h-8.6c-1.4 0-2.5-1.1-2.5-2.5v-13.6c0-0.9 0.5-1.7 1.3-2.2-0.1-1.3 0.8-2.4 2.1-2.6l20.8-2.5c1.3-0.1 2.6 0.8 2.7 2.2l1.7 13.5c0.1 1.4-0.8 2.6-2.2 2.8zm-25-6.4h23.1v-2.3h-23.1zm23.1-4.8c0-0.6-0.5-1.1-1.1-1.1h-20.9c-0.6 0-1.1 0.5-1.1 1.1v1.2h23.1zm-2.5 15.3l-0.5-1.4q-0.1-0.2 0-0.4l0.3-1.3-1.1-0.8q-0.2-0.1-0.3-0.3l-0.5-1.3h-1.4q-0.2 0.1-0.4-0.1l-1.1-0.7-1.1 0.8q-0.2 0.2-0.4 0.2h-1.4l-0.4 1.4q0 0.2-0.2 0.3l-1.1 0.9 0.5 1.3q0.1 0.2 0 0.4l-0.4 1.4 1.2 0.7q0.2 0.2 0.3 0.4l0.5 1.3 1.3-0.1q0.1 0 0.1 0 0.2 0 0.4 0.1l1.1 0.8 1.1-0.9q0.2-0.1 0.4-0.1l1.4-0.1 0.3-1.3q0.1-0.2 0.3-0.4zm2.5-1.7v-7.4h-23.1v7.4c0 0.7 0.5 1.2 1.1 1.2h8.9l0.1-0.5-0.5-1.6c-0.2-0.3-0.1-0.6 0.2-0.8l1.3-1 0.4-1.6c0.1-0.3 0.3-0.5 0.6-0.5l1.7-0.1 1.3-1c0.2-0.2 0.5-0.2 0.8-0.1l1.4 0.9h1.6c0.3 0 0.6 0.1 0.7 0.4l0.6 1.6 1.4 0.9c0.3 0.1 0.4 0.4 0.3 0.7l-0.5 1.6 0.4 1.1h0.2c0.6 0 1.1-0.5 1.1-1.2zm2.7-5l-1.6-13.5c-0.1-0.6-0.6-1.1-1.3-1l-20.7 2.5c-0.5 0.1-0.9 0.5-1 0.9h20.8c1.4 0 2.5 1.2 2.5 2.5v9.9c0.4 0 0.8-0.1 1.1-0.4 0.2-0.3 0.3-0.6 0.2-0.9z"/>
			<path id="Layer" class="s0" d="m14 26.2h-1.8c-0.4 0-0.7 0.3-0.7 0.7 0 0.3 0.3 0.7 0.7 0.7h1.8c0.4 0 0.7-0.4 0.7-0.7 0-0.4-0.3-0.7-0.7-0.7z"/>
			<path id="Layer" class="s0" d="m20.4 26.2h-3.7c-0.3 0-0.6 0.3-0.6 0.7 0 0.3 0.3 0.7 0.6 0.7h3.7c0.3 0 0.7-0.4 0.7-0.7 0-0.4-0.4-0.7-0.7-0.7z"/>
			<path id="Layer" class="s0" d="m28.2 29.5l-3.6 3.6c-0.7 0.6 0.3 1.6 0.9 1l3.7-3.7c0.2-0.2 0.2-0.7 0-0.9-0.3-0.3-0.7-0.3-1 0z"/>
			<path id="Layer" class="s0" d="m28.5 34c-0.4 0-0.7-0.3-0.7-0.6 0-0.4 0.3-0.7 0.7-0.7 0.3 0 0.6 0.3 0.6 0.7 0 0.3-0.3 0.6-0.6 0.6z"/>
			<path id="Layer" class="s0" d="m25.3 30.9c-0.4 0-0.7-0.3-0.7-0.7 0-0.4 0.3-0.7 0.7-0.7 0.4 0 0.7 0.3 0.7 0.7 0 0.4-0.3 0.7-0.7 0.7z"/>
		</g>
	</g>
</svg>