<?xml version="1.0" encoding="utf-8"?>
<!-- Generator: Adobe Illustrator 23.0.6, SVG Export Plug-In . SVG Version: 6.00 Build 0)  -->
<svg version="1.1" id="Capa_1" xmlns="http://www.w3.org/2000/svg" xmlns:xlink="http://www.w3.org/1999/xlink" x="0px" y="0px"
	 viewBox="0 0 465 465" style="enable-background:new 0 0 465 465;" xml:space="preserve">
<style type="text/css">
	.st0{fill:#FFFFFF;}
</style>
<g>
	<g>
		<path class="st0" d="M457.1,218.5L386.1,75.3c-1.9-3.5-5.5-5.7-9.4-5.7l-4.7,1h-92c-6.8-26.3-33.6-42-59.9-35.2
			c-17.3,4.5-30.8,18-35.2,35.2H93l-4.7-1c-3.9,0.1-7.5,2.3-9.4,5.7L7.8,218.5c-4.7,1-7.9,5.2-7.8,9.9c0,43.9,39.7,79.9,88.3,79.9
			s88.8-36,88.8-79.9c-0.1-4.7-3.3-8.8-7.8-9.9l-63.2-127h78.4c4,18.9,18.7,33.7,37.6,37.6v183.4c-34,4.2-60.6,29.8-64.8,55.9h-23
			c-6.1,0.5-11,5.4-11.5,11.5v41.8c0.5,5.7,5.6,10,11.4,9.4c0,0,0.1,0,0.1,0h196.4c5.7,0.6,10.9-3.6,11.5-9.3c0,0,0-0.1,0-0.1v-41.8
			c-0.5-6.1-5.4-11-11.5-11.5h-23c-4.2-26.1-30.8-51.7-64.8-55.9V129.1c18.9-4,33.7-18.7,37.6-37.6h78.4l-63.2,127
			c-4.5,1.2-7.8,5.2-7.8,9.9c0,43.9,39.7,79.9,88.8,79.9s88.3-36,88.3-79.9C465.1,223.6,461.8,219.5,457.1,218.5z M88.3,286.4
			c-32.9,0-60.6-22.5-66.4-48.6h133.2C149.4,263.9,121.7,286.4,88.3,286.4z M145.8,216.9H31.3l56.9-114.4L145.8,216.9z M321.3,389.3
			v20.9H143.7v-20.9H321.3z M286.3,368.4H178.7c4.2-20.9,26.6-36.6,53.8-36.6S282.1,347.5,286.3,368.4z M232.5,109.8
			c-15.6,0-28.2-12.6-28.2-28.2s12.6-28.2,28.2-28.2s28.2,12.6,28.2,28.2C260.7,97.2,248.1,109.8,232.5,109.8z M376.7,102.5
			l56.9,114.4H319.2L376.7,102.5z M376.7,286.4c-33.4,0-61.1-22.5-66.9-48.6H443C437.3,263.9,409.6,286.4,376.7,286.4z"/>
	</g>
</g>
</svg>
