<svg version="1.2" xmlns="http://www.w3.org/2000/svg" viewBox="0 0 40 40" width="40" height="40"><style>.a{fill:#ede724}.b{fill:#fff985}.c{opacity:.4;fill:#d6cc16}.d{opacity:.8;fill:#c1b411}.e{fill:#bfbfbf}.f{fill:#7f7f7f}.g{opacity:.3;fill:#eaeaea}.h{fill:#9e900a}.i{fill:#af9c19}.j{fill:#776903}</style><path class="a" d="m4.8 27.4c0-5.8 4.8-10.6 10.6-10.6h1.2c5.9 0 10.6 4.8 10.6 10.6 0 5.8-4.7 10.6-10.6 10.6h-1.2c-5.8 0-10.6-4.8-10.6-10.6z"/><path class="b" d="m5.6 35.9v-15.7c0-1.5 1.2-2.7 2.7-2.7h17q0.7 0 1.3 0.3c-0.5-0.6-1.3-1-2.1-1h-17c-1.5 0-2.7 1.3-2.7 2.7v15.8c0 1 0.6 1.9 1.5 2.3-0.4-0.4-0.7-1-0.7-1.7z"/><path class="c" d="m24.5 16.8h-1.1v14.7c0 1.5-1.2 2.7-2.7 2.7h-15.9v1.1c0 1.4 1.2 2.7 2.7 2.7h17c1.5 0 2.7-1.3 2.7-2.7v-15.8c0-1.4-1.2-2.7-2.7-2.7z"/><path class="d" d="m25.7 17.1q0.2 0.5 0.2 1.2v15.7c0 1.5-1.2 2.7-2.7 2.7h-16.9q-0.7 0-1.2-0.3c0.4 0.9 1.4 1.6 2.4 1.6h17c1.5 0 2.7-1.3 2.7-2.7v-15.8c0-1-0.6-2-1.5-2.4z"/><path class="e" d="m34.6 8.4c0-1.8-0.8-3.5-2.1-4.8-1.2-1.3-2.9-2-4.7-2-1.8 0-3.6 0.7-4.9 2-1.3 1.3-2 3-2 4.8v8.1c0 0.2 0.2 0.3 0.4 0.3h1.2c0.2 0 0.4-0.1 0.4-0.3v-8.1c0-2.6 2.2-4.8 4.8-4.8 2.7 0 4.9 2.2 4.9 4.8v8.1c0 0.2 0.2 0.3 0.4 0.3h1.2c0.2 0 0.4-0.1 0.4-0.3v-8.1z"/><path class="f" d="m32.6 3.6c-1.3-1.3-3-2-4.9-2q-0.1 0-0.3 0c1.7 0.1 3.2 0.8 4.4 2 1.3 1.3 2 3 2 4.8q0 0 0 0v8.1c0 0.2 0 0.3 0 0.3h-1.2 1.6c0.2 0 0.4-0.1 0.4-0.3v-8.1c0-1.8-0.7-3.5-2-4.8z"/><path class="f" d="m27 3.6c-2.7 0-4.8 2.2-4.8 4.8q0 0 0 0v8.4h-1.3 2v-8.4c0-2.5 2-4.6 4.5-4.8q-0.2 0-0.4 0z"/><path class="g" d="m21.4 9.4q0 0 0 0c0-2 0.7-3.8 2.1-5.2 1.4-1.4 3.2-2.1 5.1-2.1q1.3 0 2.5 0.4c-1-0.6-2.2-0.9-3.4-0.9-1.8 0-3.5 0.7-4.8 2-1.3 1.3-2 3-2 4.8v8.4h0.5z"/><path class="f" d="m28.5 1.7q-0.1 0-0.1 0 0 0 0.1 0z"/><path class="f" d="m28.1 1.6q0 0-0.1 0 0.1 0 0.1 0z"/><path class="f" d="m27.4 1.6q0 0 0 0 0 0 0 0 0 0 0 0z"/><path class="f" d="m27.5 1.6q0.1 0 0.2 0-0.1 0-0.2 0z"/><path class="f" d="m28.8 1.7q0 0-0.1 0 0.1 0 0.1 0z"/><path class="f" d="m30.5 2.2q-0.3-0.1-0.6-0.2 0.3 0.1 0.6 0.2z"/><path class="f" d="m29.9 2q-0.2-0.1-0.3-0.1 0.1 0 0.3 0.1z"/><path class="f" d="m29.5 1.8q-0.1 0-0.2 0 0.1 0 0.2 0z"/><path class="f" d="m29.2 1.8q-0.1 0-0.1-0.1 0 0.1 0.1 0.1z"/><path class="h" d="m18.7 25.4c0-1.4-1.2-2.6-2.7-2.6-1.4 0-2.6 1.2-2.6 2.6 0 1.1 0.7 2.1 1.6 2.4v4.3h2v-4.3c1-0.3 1.7-1.3 1.7-2.4z"/><path class="h" d="m18.7 25.6c0-1.5-1.2-2.7-2.7-2.7-1.4 0-2.6 1.2-2.6 2.7 0 1.1 0.7 2 1.6 2.4v4.2h2v-4.2c1-0.4 1.7-1.3 1.7-2.4z"/><path class="i" d="m18.6 25.1c0 1.2-0.8 2.3-1.8 2.7v4.4h0.2v-4.2c1-0.4 1.7-1.3 1.7-2.4q-0.1-0.3-0.1-0.5z"/><path class="j" d="m14 26c0-1.5 1.1-2.7 2.6-2.7q0.7 0 1.2 0.3c-0.5-0.4-1.1-0.7-1.8-0.7-1.4 0-2.6 1.2-2.6 2.7 0 1 0.6 1.9 1.4 2.3-0.5-0.5-0.8-1.2-0.8-1.9z"/><path class="j" d="m15.6 28.4q-0.3-0.1-0.6-0.3v4.1h0.6z"/></svg>