<svg version="1.2" xmlns="http://www.w3.org/2000/svg" viewBox="0 0 48 48" width="48" height="48"><style>.a{fill:#fff}</style><path fill-rule="evenodd" class="a" d="m39.5 13c-0.1 3.1-1.7 7.3-4.3 9.3-0.3 0.2-0.7 0.3-1 0.3q-0.7 0-1.2-0.5l-3.5-3.5-2.5 2.5c1.5 1.5 3.4 2.6 5.2 3.2 0.2 0.1 0.4 0.4 0.3 0.7-0.1 0.2-0.4 0.4-0.7 0.3-1.9-0.6-3.8-1.9-5.5-3.5l-2 1.9c1.2 1.2 2.6 2.1 4 2.5 0.3 0.1 0.4 0.4 0.3 0.7-0.1 0.3-0.3 0.4-0.6 0.3-1.5-0.5-3-1.4-4.4-2.7l-1.9 1.9c0.8 0.9 1.9 1.5 2.8 1.8 0.3 0.1 0.4 0.4 0.3 0.6-0.1 0.3-0.3 0.5-0.6 0.4-1.1-0.4-2.3-1.1-3.3-2l-1.9 1.9q0.8 0.8 1.7 1.1c0.3 0.1 0.4 0.3 0.3 0.6-0.1 0.2-0.3 0.4-0.6 0.3-0.7-0.2-1.5-0.7-2.1-1.2l-1.7 1.6c0.3 1.6-0.7 5.9-1.1 7.5 0 0.2-0.2 0.3-0.4 0.3-0.2 0-0.4-0.1-0.5-0.3l-1.7-4.4-4.5-1.8c-0.2-0.1-0.3-0.3-0.3-0.4 0-0.2 0.2-0.4 0.4-0.5 3.9-0.9 6.4-1.3 7.4-1.1l1.6-1.4c-0.6-0.7-1.1-1.4-1.3-2.1-0.1-0.3 0-0.6 0.3-0.7 0.3 0 0.5 0.1 0.6 0.4 0.2 0.5 0.5 1.1 1 1.7l1.9-2c-0.9-0.9-1.6-2.1-2-3.2 0-0.3 0.1-0.6 0.4-0.7 0.3 0 0.5 0.1 0.6 0.4 0.3 0.9 0.9 2 1.8 2.8l1.9-1.9c-1.2-1.3-2.2-2.9-2.7-4.4-0.1-0.3 0.1-0.5 0.3-0.6 0.3-0.1 0.6 0 0.7 0.2 0.4 1.4 1.3 2.8 2.5 4.1l1.9-2c-1.6-1.7-2.9-3.7-3.4-5.6-0.1-0.3 0-0.5 0.3-0.6 0.3-0.1 0.5 0.1 0.6 0.3 0.6 1.8 1.8 3.7 3.3 5.2l2.4-2.5-3.5-3.5c-0.6-0.6-0.6-1.6-0.1-2.2 1.9-2.6 6.1-4.1 9.3-4.3 1.9-0.2 3.3 0.2 4.1 0.9 0.4 0.4 0.7 1 0.8 1.6l-4.8 4.8c-0.2 0.2-0.2 0.5 0 0.7 0.2 0.2 0.5 0.2 0.7 0l4.3-4.3c0 0.4 0 0.8 0.1 1.1zm-4.9 0.5c0.2-0.2 0.2-0.5 0-0.7l-0.5-0.4 0.5-0.5c0.2-0.2 0.2-0.5 0-0.7-0.2-0.2-0.5-0.2-0.7 0l-0.5 0.5-0.5-0.5c-0.1-0.2-0.4-0.2-0.6 0-0.2 0.2-0.2 0.5 0 0.7l0.5 0.5-0.5 0.4c-0.2 0.2-0.2 0.5 0 0.7 0.2 0.2 0.5 0.2 0.6 0l0.5-0.5 0.5 0.5c0.2 0.2 0.5 0.3 0.7 0z"/></svg>