<svg xmlns="http://www.w3.org/2000/svg" width="32" height="32" fill="none" viewBox="0 0 32 32">
    <path stroke="#fff" stroke-linecap="round" stroke-linejoin="round" stroke-width="1.5" d="M9.713 17.04c-.414 0-.75.336-.75.75v6.877c0 .966.783 1.75 1.75 1.75h10.889c.966 0 1.75-.784 1.75-1.75V17.79c0-.414-.336-.75-.75-.75H9.712z"/>
    <path stroke="#fff" stroke-width="1.5" d="M11.05 20.457l-.975-2.633H22.24l-.976 2.633c-.036.098-.13.163-.234.163h-9.747c-.104 0-.198-.065-.234-.163z"/>
    <path fill="#fff" d="M5.552 20.895c-.262.321-.215.794.106 1.056.32.262.793.215 1.055-.106l-1.16-.95zm4.383-2.988c.263-.32.215-.793-.105-1.055-.32-.263-.793-.215-1.055.105l1.16.95zm-3.222 3.938l3.222-3.938-1.16-.95-3.223 3.938 1.161.95zM26.763 20.895c.262.321.215.794-.106 1.056-.32.262-.793.215-1.055-.106l1.161-.95zm-4.383-2.988c-.262-.32-.215-.793.105-1.055.321-.263.794-.215 1.056.105l-1.161.95zm3.222 3.938l-3.222-3.938 1.16-.95 3.223 3.938-1.16.95z"/>
    <path stroke="#fff" stroke-width="1.5" d="M20.615 17.432c1.224-1.173 1.987-2.825 1.987-4.654 0-3.56-2.886-6.445-6.445-6.445S9.713 9.22 9.713 12.778c0 1.83.762 3.481 1.987 4.654"/>
    <path stroke="#fff" stroke-width="1.5" d="M15.953 13.673V12.42h.41c.677 0 1.227-.561 1.227-1.253v-.084c0-.646-.513-1.17-1.146-1.17h-.49c-.679 0-1.228.562-1.228 1.254m.818 3.759h.818"/>
</svg>
