<svg xmlns="http://www.w3.org/2000/svg" width="32" height="32" fill="none" viewBox="0 0 32 32">
    <path stroke="#fff" stroke-width="1.5" d="M15.746 18.242v-.613c0-.664.338-1.271.873-1.569.535-.297.873-.914.873-1.579 0-.992-.724-1.814-1.618-1.814h-.09c-.584 0-1.142.257-1.555.715l-.229.254m1.746 5.333v.97"/>
    <rect width="11.833" height="17.167" x="10.084" y="7.417" stroke="#fff" stroke-width="1.5" rx="1.25"/>
    <path stroke="#fff" stroke-width="1.5" d="M10.043 10.667l-2.434.502c-1.07.22-1.748 1.255-1.523 2.324l1.997 9.515c.124.592.69.992 1.29.91v0l.535-.072M21.958 10.667l2.434.502c1.07.22 1.748 1.255 1.523 2.324l-1.997 9.515c-.124.592-.69.992-1.29.91v0l-.535-.072"/>
</svg>
